<?xml version="1.0" encoding="UTF-8" standalone="no"?>
<!DOCTYPE svg PUBLIC "-//W3C//DTD SVG 1.1//EN"
 "http://www.w3.org/Graphics/SVG/1.1/DTD/svg11.dtd">
<!-- Generated by graphviz version 2.47.0 (20210316.0004)
 -->
<!-- Title: dependencies Pages: 1 -->
<svg width="1328pt" height="211pt"
 viewBox="0.00 0.00 1328.00 211.00" xmlns="http://www.w3.org/2000/svg" xmlns:xlink="http://www.w3.org/1999/xlink">
<g id="graph0" class="graph" transform="scale(1 1) rotate(0) translate(4 207)">
<title>dependencies</title>
<polygon fill="white" stroke="transparent" points="-4,4 -4,-207 1324,-207 1324,4 -4,4"/>
<text text-anchor="start" x="639.01" y="-42.4" font-family="Times-12" font-weight="bold" font-size="14.00">Legend</text>
<polygon fill="#ffffb3" stroke="transparent" points="426,-10 426,-30 446,-30 446,-10 426,-10"/>
<text text-anchor="start" x="449.63" y="-15.4" font-family="Times-12" font-size="14.00"> &#160;Declarations</text>
<polygon fill="#8dd3c7" stroke="transparent" points="539,-10 539,-30 559,-30 559,-10 539,-10"/>
<text text-anchor="start" x="562.73" y="-15.4" font-family="Times-12" font-size="14.00"> &#160;Module</text>
<polygon fill="#80b1d3" stroke="transparent" points="625,-10 625,-30 645,-30 645,-10 625,-10"/>
<text text-anchor="start" x="648.78" y="-15.4" font-family="Times-12" font-size="14.00"> &#160;Bootstrap</text>
<polygon fill="#fdb462" stroke="transparent" points="722,-10 722,-30 742,-30 742,-10 722,-10"/>
<text text-anchor="start" x="745.67" y="-15.4" font-family="Times-12" font-size="14.00"> &#160;Providers</text>
<polygon fill="#fb8072" stroke="transparent" points="818,-10 818,-30 838,-30 838,-10 818,-10"/>
<text text-anchor="start" x="841.73" y="-15.4" font-family="Times-12" font-size="14.00"> &#160;Exports</text>
<g id="clust1" class="cluster">
<title>cluster_ExploreModule</title>
<polygon fill="none" stroke="black" stroke-dasharray="1,5" points="8,-70 8,-195 1312,-195 1312,-70 8,-70"/>
</g>
<g id="clust5" class="cluster">
<title>cluster_ExploreModule_imports</title>
<polygon fill="none" stroke="black" points="464,-78 464,-130 1304,-130 1304,-78 464,-78"/>
</g>
<g id="clust2" class="cluster">
<title>cluster_ExploreModule_declarations</title>
<polygon fill="none" stroke="black" points="16,-78 16,-130 456,-130 456,-78 16,-78"/>
</g>
<!-- ExploreContentComponent -->
<g id="node1" class="node">
<title>ExploreContentComponent</title>
<polygon fill="#ffffb3" stroke="black" points="447.98,-122 278.02,-122 278.02,-86 447.98,-86 447.98,-122"/>
<text text-anchor="middle" x="363" y="-99.8" font-family="Times,serif" font-size="14.00">ExploreContentComponent</text>
</g>
<!-- ExploreModule -->
<g id="node3" class="node">
<title>ExploreModule</title>
<polygon fill="#8dd3c7" stroke="black" points="776.87,-187 773.87,-191 752.87,-191 749.87,-187 673.13,-187 673.13,-151 776.87,-151 776.87,-187"/>
<text text-anchor="middle" x="725" y="-164.8" font-family="Times,serif" font-size="14.00">ExploreModule</text>
</g>
<!-- ExploreContentComponent&#45;&gt;ExploreModule -->
<g id="edge1" class="edge">
<title>ExploreContentComponent&#45;&gt;ExploreModule</title>
<path fill="none" stroke="black" d="M363,-122.11C363,-141.34 363,-169 363,-169 363,-169 662.75,-169 662.75,-169"/>
<polygon fill="black" stroke="black" points="662.75,-172.5 672.75,-169 662.75,-165.5 662.75,-172.5"/>
</g>
<!-- ExploreCurriculumCoursesComponent -->
<g id="node2" class="node">
<title>ExploreCurriculumCoursesComponent</title>
<polygon fill="#ffffb3" stroke="black" points="259.8,-122 24.2,-122 24.2,-86 259.8,-86 259.8,-122"/>
<text text-anchor="middle" x="142" y="-99.8" font-family="Times,serif" font-size="14.00">ExploreCurriculumCoursesComponent</text>
</g>
<!-- ExploreCurriculumCoursesComponent&#45;&gt;ExploreModule -->
<g id="edge2" class="edge">
<title>ExploreCurriculumCoursesComponent&#45;&gt;ExploreModule</title>
<path fill="none" stroke="black" d="M142,-122.29C142,-144.21 142,-178 142,-178 142,-178 663.01,-178 663.01,-178"/>
<polygon fill="black" stroke="black" points="663.01,-181.5 673.01,-178 663.01,-174.5 663.01,-181.5"/>
</g>
<!-- ContentSearchModule -->
<g id="node4" class="node">
<title>ContentSearchModule</title>
<polygon fill="#8dd3c7" stroke="black" points="1295.97,-122 1292.97,-126 1271.97,-126 1268.97,-122 1154.03,-122 1154.03,-86 1295.97,-86 1295.97,-122"/>
<text text-anchor="middle" x="1225" y="-99.8" font-family="Times,serif" font-size="14.00">ContentSearchModule</text>
</g>
<!-- ContentSearchModule&#45;&gt;ExploreModule -->
<g id="edge3" class="edge">
<title>ContentSearchModule&#45;&gt;ExploreModule</title>
<path fill="none" stroke="black" d="M1225,-122.29C1225,-144.21 1225,-178 1225,-178 1225,-178 787.09,-178 787.09,-178"/>
<polygon fill="black" stroke="black" points="787.09,-174.5 777.09,-178 787.09,-181.5 787.09,-174.5"/>
</g>
<!-- CoreModule -->
<g id="node5" class="node">
<title>CoreModule</title>
<polygon fill="#8dd3c7" stroke="black" points="1136.26,-122 1133.26,-126 1112.26,-126 1109.26,-122 1049.74,-122 1049.74,-86 1136.26,-86 1136.26,-122"/>
<text text-anchor="middle" x="1093" y="-99.8" font-family="Times,serif" font-size="14.00">CoreModule</text>
</g>
<!-- CoreModule&#45;&gt;ExploreModule -->
<g id="edge4" class="edge">
<title>CoreModule&#45;&gt;ExploreModule</title>
<path fill="none" stroke="black" d="M1093,-122.11C1093,-141.34 1093,-169 1093,-169 1093,-169 786.94,-169 786.94,-169"/>
<polygon fill="black" stroke="black" points="786.94,-165.5 776.94,-169 786.94,-172.5 786.94,-165.5"/>
</g>
<!-- ExploreRoutingModule -->
<g id="node6" class="node">
<title>ExploreRoutingModule</title>
<polygon fill="#8dd3c7" stroke="black" points="1031.49,-122 1028.49,-126 1007.49,-126 1004.49,-122 882.51,-122 882.51,-86 1031.49,-86 1031.49,-122"/>
<text text-anchor="middle" x="957" y="-99.8" font-family="Times,serif" font-size="14.00">ExploreRoutingModule</text>
</g>
<!-- ExploreRoutingModule&#45;&gt;ExploreModule -->
<g id="edge5" class="edge">
<title>ExploreRoutingModule&#45;&gt;ExploreModule</title>
<path fill="none" stroke="black" d="M957,-122.03C957,-138.4 957,-160 957,-160 957,-160 787.07,-160 787.07,-160"/>
<polygon fill="black" stroke="black" points="787.07,-156.5 777.07,-160 787.07,-163.5 787.07,-156.5"/>
</g>
<!-- SharedFeatureModule -->
<g id="node7" class="node">
<title>SharedFeatureModule</title>
<polygon fill="#8dd3c7" stroke="black" points="864.4,-122 861.4,-126 840.4,-126 837.4,-122 723.6,-122 723.6,-86 864.4,-86 864.4,-122"/>
<text text-anchor="middle" x="794" y="-99.8" font-family="Times,serif" font-size="14.00">SharedFeatureModule</text>
</g>
<!-- SharedFeatureModule&#45;&gt;ExploreModule -->
<g id="edge6" class="edge">
<title>SharedFeatureModule&#45;&gt;ExploreModule</title>
<path fill="none" stroke="black" d="M750.37,-122.11C750.37,-122.11 750.37,-140.99 750.37,-140.99"/>
<polygon fill="black" stroke="black" points="746.87,-140.99 750.37,-150.99 753.87,-140.99 746.87,-140.99"/>
</g>
<!-- SharedModule -->
<g id="node8" class="node">
<title>SharedModule</title>
<polygon fill="#8dd3c7" stroke="black" points="706.42,-122 703.42,-126 682.42,-126 679.42,-122 607.58,-122 607.58,-86 706.42,-86 706.42,-122"/>
<text text-anchor="middle" x="657" y="-99.8" font-family="Times,serif" font-size="14.00">SharedModule</text>
</g>
<!-- SharedModule&#45;&gt;ExploreModule -->
<g id="edge7" class="edge">
<title>SharedModule&#45;&gt;ExploreModule</title>
<path fill="none" stroke="black" d="M689.64,-122.11C689.64,-122.11 689.64,-140.99 689.64,-140.99"/>
<polygon fill="black" stroke="black" points="686.14,-140.99 689.64,-150.99 693.14,-140.99 686.14,-140.99"/>
</g>
<!-- TelemetryModule -->
<g id="node9" class="node">
<title>TelemetryModule</title>
<polygon fill="#8dd3c7" stroke="black" points="589.58,-122 586.58,-126 565.58,-126 562.58,-122 472.42,-122 472.42,-86 589.58,-86 589.58,-122"/>
<text text-anchor="middle" x="531" y="-99.8" font-family="Times,serif" font-size="14.00">TelemetryModule</text>
</g>
<!-- TelemetryModule&#45;&gt;ExploreModule -->
<g id="edge8" class="edge">
<title>TelemetryModule&#45;&gt;ExploreModule</title>
<path fill="none" stroke="black" d="M531,-122.03C531,-138.4 531,-160 531,-160 531,-160 663.01,-160 663.01,-160"/>
<polygon fill="black" stroke="black" points="663.01,-163.5 673.01,-160 663.01,-156.5 663.01,-163.5"/>
</g>
</g>
</svg>
