<?xml version="1.0" encoding="UTF-8" standalone="no"?>
<!DOCTYPE svg PUBLIC "-//W3C//DTD SVG 1.1//EN"
 "http://www.w3.org/Graphics/SVG/1.1/DTD/svg11.dtd">
<!-- Generated by graphviz version 2.47.0 (20210316.0004)
 -->
<!-- Title: dependencies Pages: 1 -->
<svg width="2118pt" height="211pt"
 viewBox="0.00 0.00 2118.00 211.00" xmlns="http://www.w3.org/2000/svg" xmlns:xlink="http://www.w3.org/1999/xlink">
<g id="graph0" class="graph" transform="scale(1 1) rotate(0) translate(4 207)">
<title>dependencies</title>
<polygon fill="white" stroke="transparent" points="-4,4 -4,-207 2114,-207 2114,4 -4,4"/>
<text text-anchor="start" x="1034.01" y="-42.4" font-family="Times-12" font-weight="bold" font-size="14.00">Legend</text>
<polygon fill="#ffffb3" stroke="transparent" points="821,-10 821,-30 841,-30 841,-10 821,-10"/>
<text text-anchor="start" x="844.63" y="-15.4" font-family="Times-12" font-size="14.00"> &#160;Declarations</text>
<polygon fill="#8dd3c7" stroke="transparent" points="934,-10 934,-30 954,-30 954,-10 934,-10"/>
<text text-anchor="start" x="957.73" y="-15.4" font-family="Times-12" font-size="14.00"> &#160;Module</text>
<polygon fill="#80b1d3" stroke="transparent" points="1020,-10 1020,-30 1040,-30 1040,-10 1020,-10"/>
<text text-anchor="start" x="1043.78" y="-15.4" font-family="Times-12" font-size="14.00"> &#160;Bootstrap</text>
<polygon fill="#fdb462" stroke="transparent" points="1117,-10 1117,-30 1137,-30 1137,-10 1117,-10"/>
<text text-anchor="start" x="1140.67" y="-15.4" font-family="Times-12" font-size="14.00"> &#160;Providers</text>
<polygon fill="#fb8072" stroke="transparent" points="1213,-10 1213,-30 1233,-30 1233,-10 1213,-10"/>
<text text-anchor="start" x="1236.73" y="-15.4" font-family="Times-12" font-size="14.00"> &#160;Exports</text>
<g id="clust1" class="cluster">
<title>cluster_programDashboardModule</title>
<polygon fill="none" stroke="black" stroke-dasharray="1,5" points="8,-70 8,-195 2102,-195 2102,-70 8,-70"/>
</g>
<g id="clust2" class="cluster">
<title>cluster_programDashboardModule_declarations</title>
<polygon fill="none" stroke="black" points="1132,-78 1132,-130 2094,-130 2094,-78 1132,-78"/>
</g>
<g id="clust10" class="cluster">
<title>cluster_programDashboardModule_imports</title>
<polygon fill="none" stroke="black" points="348,-78 348,-130 1124,-130 1124,-78 348,-78"/>
</g>
<g id="clust13" class="cluster">
<title>cluster_programDashboardModule_providers</title>
<polygon fill="none" stroke="black" points="16,-78 16,-130 340,-130 340,-78 16,-78"/>
</g>
<!-- BigDataPipe -->
<g id="node1" class="node">
<title>BigDataPipe</title>
<polygon fill="#ffffb3" stroke="black" points="2085.54,-122 1998.46,-122 1998.46,-86 2085.54,-86 2085.54,-122"/>
<text text-anchor="middle" x="2042" y="-99.8" font-family="Times,serif" font-size="14.00">BigDataPipe</text>
</g>
<!-- programDashboardModule -->
<g id="node8" class="node">
<title>programDashboardModule</title>
<polygon fill="#8dd3c7" stroke="black" points="1213.62,-187 1210.62,-191 1189.62,-191 1186.62,-187 1046.38,-187 1046.38,-151 1213.62,-151 1213.62,-187"/>
<text text-anchor="middle" x="1130" y="-164.8" font-family="Times,serif" font-size="14.00">programDashboardModule</text>
</g>
<!-- BigDataPipe&#45;&gt;programDashboardModule -->
<g id="edge1" class="edge">
<title>BigDataPipe&#45;&gt;programDashboardModule</title>
<path fill="none" stroke="black" d="M2042,-122.09C2042,-145.13 2042,-182 2042,-182 2042,-182 1223.76,-182 1223.76,-182"/>
<polygon fill="black" stroke="black" points="1223.76,-178.5 1213.76,-182 1223.76,-185.5 1223.76,-178.5"/>
</g>
<!-- ChartTypePipe -->
<g id="node2" class="node">
<title>ChartTypePipe</title>
<polygon fill="#ffffb3" stroke="black" points="1980.26,-122 1879.74,-122 1879.74,-86 1980.26,-86 1980.26,-122"/>
<text text-anchor="middle" x="1930" y="-99.8" font-family="Times,serif" font-size="14.00">ChartTypePipe</text>
</g>
<!-- ChartTypePipe&#45;&gt;programDashboardModule -->
<g id="edge2" class="edge">
<title>ChartTypePipe&#45;&gt;programDashboardModule</title>
<path fill="none" stroke="black" d="M1930,-122.04C1930,-143.66 1930,-177 1930,-177 1930,-177 1223.73,-177 1223.73,-177"/>
<polygon fill="black" stroke="black" points="1223.73,-173.5 1213.73,-177 1223.73,-180.5 1223.73,-173.5"/>
</g>
<!-- DatasetsComponent -->
<g id="node3" class="node">
<title>DatasetsComponent</title>
<polygon fill="#ffffb3" stroke="black" points="1861.25,-122 1732.75,-122 1732.75,-86 1861.25,-86 1861.25,-122"/>
<text text-anchor="middle" x="1797" y="-99.8" font-family="Times,serif" font-size="14.00">DatasetsComponent</text>
</g>
<!-- DatasetsComponent&#45;&gt;programDashboardModule -->
<g id="edge3" class="edge">
<title>DatasetsComponent&#45;&gt;programDashboardModule</title>
<path fill="none" stroke="black" d="M1797,-122.22C1797,-142.37 1797,-172 1797,-172 1797,-172 1223.8,-172 1223.8,-172"/>
<polygon fill="black" stroke="black" points="1223.8,-168.5 1213.8,-172 1223.8,-175.5 1223.8,-168.5"/>
</g>
<!-- FilterChartPipe -->
<g id="node4" class="node">
<title>FilterChartPipe</title>
<polygon fill="#ffffb3" stroke="black" points="1714.32,-122 1611.68,-122 1611.68,-86 1714.32,-86 1714.32,-122"/>
<text text-anchor="middle" x="1663" y="-99.8" font-family="Times,serif" font-size="14.00">FilterChartPipe</text>
</g>
<!-- FilterChartPipe&#45;&gt;programDashboardModule -->
<g id="edge4" class="edge">
<title>FilterChartPipe&#45;&gt;programDashboardModule</title>
<path fill="none" stroke="black" d="M1663,-122.22C1663,-140.83 1663,-167 1663,-167 1663,-167 1223.87,-167 1223.87,-167"/>
<polygon fill="black" stroke="black" points="1223.87,-163.5 1213.87,-167 1223.87,-170.5 1223.87,-163.5"/>
</g>
<!-- PdFiltersComponent -->
<g id="node5" class="node">
<title>PdFiltersComponent</title>
<polygon fill="#ffffb3" stroke="black" points="1593.89,-122 1462.11,-122 1462.11,-86 1593.89,-86 1593.89,-122"/>
<text text-anchor="middle" x="1528" y="-99.8" font-family="Times,serif" font-size="14.00">PdFiltersComponent</text>
</g>
<!-- PdFiltersComponent&#45;&gt;programDashboardModule -->
<g id="edge5" class="edge">
<title>PdFiltersComponent&#45;&gt;programDashboardModule</title>
<path fill="none" stroke="black" d="M1528,-122.03C1528,-139.06 1528,-162 1528,-162 1528,-162 1223.92,-162 1223.92,-162"/>
<polygon fill="black" stroke="black" points="1223.92,-158.5 1213.92,-162 1223.92,-165.5 1223.92,-158.5"/>
</g>
<!-- SbBignumberComponent -->
<g id="node6" class="node">
<title>SbBignumberComponent</title>
<polygon fill="#ffffb3" stroke="black" points="1444.61,-122 1285.39,-122 1285.39,-86 1444.61,-86 1444.61,-122"/>
<text text-anchor="middle" x="1365" y="-99.8" font-family="Times,serif" font-size="14.00">SbBignumberComponent</text>
</g>
<!-- SbBignumberComponent&#45;&gt;programDashboardModule -->
<g id="edge6" class="edge">
<title>SbBignumberComponent&#45;&gt;programDashboardModule</title>
<path fill="none" stroke="black" d="M1365,-122.24C1365,-137.57 1365,-157 1365,-157 1365,-157 1223.85,-157 1223.85,-157"/>
<polygon fill="black" stroke="black" points="1223.85,-153.5 1213.85,-157 1223.85,-160.5 1223.85,-153.5"/>
</g>
<!-- SbChartComponent -->
<g id="node7" class="node">
<title>SbChartComponent</title>
<polygon fill="#ffffb3" stroke="black" points="1267.72,-122 1140.28,-122 1140.28,-86 1267.72,-86 1267.72,-122"/>
<text text-anchor="middle" x="1204" y="-99.8" font-family="Times,serif" font-size="14.00">SbChartComponent</text>
</g>
<!-- SbChartComponent&#45;&gt;programDashboardModule -->
<g id="edge7" class="edge">
<title>SbChartComponent&#45;&gt;programDashboardModule</title>
<path fill="none" stroke="black" d="M1177.1,-122.11C1177.1,-122.11 1177.1,-140.99 1177.1,-140.99"/>
<polygon fill="black" stroke="black" points="1173.6,-140.99 1177.1,-150.99 1180.6,-140.99 1173.6,-140.99"/>
</g>
<!-- DashboardModule -->
<g id="node9" class="node">
<title>DashboardModule</title>
<polygon fill="#8dd3c7" stroke="black" points="1116.19,-122 1113.19,-126 1092.19,-126 1089.19,-122 995.81,-122 995.81,-86 1116.19,-86 1116.19,-122"/>
<text text-anchor="middle" x="1056" y="-99.8" font-family="Times,serif" font-size="14.00">DashboardModule</text>
</g>
<!-- DashboardModule&#45;&gt;programDashboardModule -->
<g id="edge8" class="edge">
<title>DashboardModule&#45;&gt;programDashboardModule</title>
<path fill="none" stroke="black" d="M1081.14,-122.11C1081.14,-122.11 1081.14,-140.99 1081.14,-140.99"/>
<polygon fill="black" stroke="black" points="1077.64,-140.99 1081.14,-150.99 1084.64,-140.99 1077.64,-140.99"/>
</g>
<!-- SharedFeatureModule -->
<g id="node10" class="node">
<title>SharedFeatureModule</title>
<polygon fill="#8dd3c7" stroke="black" points="978.4,-122 975.4,-126 954.4,-126 951.4,-122 837.6,-122 837.6,-86 978.4,-86 978.4,-122"/>
<text text-anchor="middle" x="908" y="-99.8" font-family="Times,serif" font-size="14.00">SharedFeatureModule</text>
</g>
<!-- SharedFeatureModule&#45;&gt;programDashboardModule -->
<g id="edge9" class="edge">
<title>SharedFeatureModule&#45;&gt;programDashboardModule</title>
<path fill="none" stroke="black" d="M908,-122.24C908,-137.57 908,-157 908,-157 908,-157 1036.07,-157 1036.07,-157"/>
<polygon fill="black" stroke="black" points="1036.07,-160.5 1046.07,-157 1036.07,-153.5 1036.07,-160.5"/>
</g>
<!-- SharedModule -->
<g id="node11" class="node">
<title>SharedModule</title>
<polygon fill="#8dd3c7" stroke="black" points="820.42,-122 817.42,-126 796.42,-126 793.42,-122 721.58,-122 721.58,-86 820.42,-86 820.42,-122"/>
<text text-anchor="middle" x="771" y="-99.8" font-family="Times,serif" font-size="14.00">SharedModule</text>
</g>
<!-- SharedModule&#45;&gt;programDashboardModule -->
<g id="edge10" class="edge">
<title>SharedModule&#45;&gt;programDashboardModule</title>
<path fill="none" stroke="black" d="M771,-122.03C771,-139.06 771,-162 771,-162 771,-162 1036.28,-162 1036.28,-162"/>
<polygon fill="black" stroke="black" points="1036.28,-165.5 1046.28,-162 1036.28,-158.5 1036.28,-165.5"/>
</g>
<!-- TelemetryModule -->
<g id="node12" class="node">
<title>TelemetryModule</title>
<polygon fill="#8dd3c7" stroke="black" points="703.58,-122 700.58,-126 679.58,-126 676.58,-122 586.42,-122 586.42,-86 703.58,-86 703.58,-122"/>
<text text-anchor="middle" x="645" y="-99.8" font-family="Times,serif" font-size="14.00">TelemetryModule</text>
</g>
<!-- TelemetryModule&#45;&gt;programDashboardModule -->
<g id="edge11" class="edge">
<title>TelemetryModule&#45;&gt;programDashboardModule</title>
<path fill="none" stroke="black" d="M645,-122.22C645,-140.83 645,-167 645,-167 645,-167 1036.35,-167 1036.35,-167"/>
<polygon fill="black" stroke="black" points="1036.35,-170.5 1046.35,-167 1036.35,-163.5 1036.35,-170.5"/>
</g>
<!-- programDashboardRoutingModule -->
<g id="node13" class="node">
<title>programDashboardRoutingModule</title>
<polygon fill="#8dd3c7" stroke="black" points="568.24,-122 565.24,-126 544.24,-126 541.24,-122 355.76,-122 355.76,-86 568.24,-86 568.24,-122"/>
<text text-anchor="middle" x="462" y="-99.8" font-family="Times,serif" font-size="14.00">programDashboardRoutingModule</text>
</g>
<!-- programDashboardRoutingModule&#45;&gt;programDashboardModule -->
<g id="edge12" class="edge">
<title>programDashboardRoutingModule&#45;&gt;programDashboardModule</title>
<path fill="none" stroke="black" d="M462,-122.22C462,-142.37 462,-172 462,-172 462,-172 1036.07,-172 1036.07,-172"/>
<polygon fill="black" stroke="black" points="1036.07,-175.5 1046.07,-172 1036.07,-168.5 1036.07,-175.5"/>
</g>
<!-- ResourceService -->
<g id="node14" class="node">
<title>ResourceService</title>
<ellipse fill="#fdb462" stroke="black" cx="256" cy="-104" rx="75.84" ry="18"/>
<text text-anchor="middle" x="256" y="-99.8" font-family="Times,serif" font-size="14.00">ResourceService</text>
</g>
<!-- ResourceService&#45;&gt;programDashboardModule -->
<g id="edge13" class="edge">
<title>ResourceService&#45;&gt;programDashboardModule</title>
<path fill="none" stroke="black" d="M256,-122.04C256,-143.66 256,-177 256,-177 256,-177 1036.2,-177 1036.2,-177"/>
<polygon fill="black" stroke="black" points="1036.2,-180.5 1046.2,-177 1036.2,-173.5 1036.2,-180.5"/>
</g>
<!-- ToasterService -->
<g id="node15" class="node">
<title>ToasterService</title>
<ellipse fill="#fdb462" stroke="black" cx="93" cy="-104" rx="68.89" ry="18"/>
<text text-anchor="middle" x="93" y="-99.8" font-family="Times,serif" font-size="14.00">ToasterService</text>
</g>
<!-- ToasterService&#45;&gt;programDashboardModule -->
<g id="edge14" class="edge">
<title>ToasterService&#45;&gt;programDashboardModule</title>
<path fill="none" stroke="black" d="M93,-122.09C93,-145.13 93,-182 93,-182 93,-182 1036.02,-182 1036.02,-182"/>
<polygon fill="black" stroke="black" points="1036.02,-185.5 1046.02,-182 1036.02,-178.5 1036.02,-185.5"/>
</g>
</g>
</svg>
