<?xml version="1.0" encoding="UTF-8" standalone="no"?>
<!DOCTYPE svg PUBLIC "-//W3C//DTD SVG 1.1//EN"
 "http://www.w3.org/Graphics/SVG/1.1/DTD/svg11.dtd">
<!-- Generated by graphviz version 2.47.0 (20210316.0004)
 -->
<!-- Title: dependencies Pages: 1 -->
<svg width="504pt" height="284pt"
 viewBox="0.00 0.00 504.00 284.00" xmlns="http://www.w3.org/2000/svg" xmlns:xlink="http://www.w3.org/1999/xlink">
<g id="graph0" class="graph" transform="scale(1 1) rotate(0) translate(4 280)">
<title>dependencies</title>
<polygon fill="white" stroke="transparent" points="-4,4 -4,-280 500,-280 500,4 -4,4"/>
<text text-anchor="start" x="227.01" y="-42.4" font-family="Times-12" font-weight="bold" font-size="14.00">Legend</text>
<polygon fill="#ffffb3" stroke="transparent" points="14,-10 14,-30 34,-30 34,-10 14,-10"/>
<text text-anchor="start" x="37.63" y="-15.4" font-family="Times-12" font-size="14.00"> &#160;Declarations</text>
<polygon fill="#8dd3c7" stroke="transparent" points="127,-10 127,-30 147,-30 147,-10 127,-10"/>
<text text-anchor="start" x="150.73" y="-15.4" font-family="Times-12" font-size="14.00"> &#160;Module</text>
<polygon fill="#80b1d3" stroke="transparent" points="213,-10 213,-30 233,-30 233,-10 213,-10"/>
<text text-anchor="start" x="236.78" y="-15.4" font-family="Times-12" font-size="14.00"> &#160;Bootstrap</text>
<polygon fill="#fdb462" stroke="transparent" points="310,-10 310,-30 330,-30 330,-10 310,-10"/>
<text text-anchor="start" x="333.67" y="-15.4" font-family="Times-12" font-size="14.00"> &#160;Providers</text>
<polygon fill="#fb8072" stroke="transparent" points="406,-10 406,-30 426,-30 426,-10 406,-10"/>
<text text-anchor="start" x="429.73" y="-15.4" font-family="Times-12" font-size="14.00"> &#160;Exports</text>
<g id="clust1" class="cluster">
<title>cluster_QrcoderesultPageModule</title>
<polygon fill="none" stroke="black" stroke-dasharray="1,5" points="103,-70 103,-268 393,-268 393,-70 103,-70"/>
</g>
<g id="clust2" class="cluster">
<title>cluster_QrcoderesultPageModule_declarations</title>
<polygon fill="none" stroke="black" points="253,-78 253,-130 385,-130 385,-78 253,-78"/>
</g>
<g id="clust5" class="cluster">
<title>cluster_QrcoderesultPageModule_exports</title>
<polygon fill="none" stroke="black" points="180,-208 180,-260 316,-260 316,-208 180,-208"/>
</g>
<g id="clust4" class="cluster">
<title>cluster_QrcoderesultPageModule_imports</title>
<polygon fill="none" stroke="black" points="111,-78 111,-130 245,-130 245,-78 111,-78"/>
</g>
<!-- QrcoderesultPage -->
<g id="node1" class="node">
<title>QrcoderesultPage</title>
<polygon fill="#ffffb3" stroke="black" points="376.51,-122 261.49,-122 261.49,-86 376.51,-86 376.51,-122"/>
<text text-anchor="middle" x="319" y="-99.8" font-family="Times,serif" font-size="14.00">QrcoderesultPage</text>
</g>
<!-- QrcoderesultPageModule -->
<g id="node2" class="node">
<title>QrcoderesultPageModule</title>
<polygon fill="#8dd3c7" stroke="black" points="327.56,-187 324.56,-191 303.56,-191 300.56,-187 168.44,-187 168.44,-151 327.56,-151 327.56,-187"/>
<text text-anchor="middle" x="248" y="-164.8" font-family="Times,serif" font-size="14.00">QrcoderesultPageModule</text>
</g>
<!-- QrcoderesultPage&#45;&gt;QrcoderesultPageModule -->
<g id="edge1" class="edge">
<title>QrcoderesultPage&#45;&gt;QrcoderesultPageModule</title>
<path fill="none" stroke="black" d="M294.39,-122.11C294.39,-122.11 294.39,-140.99 294.39,-140.99"/>
<polygon fill="black" stroke="black" points="290.89,-140.99 294.39,-150.99 297.89,-140.99 290.89,-140.99"/>
</g>
<!-- QrcoderesultPage  -->
<g id="node4" class="node">
<title>QrcoderesultPage </title>
<polygon fill="#fb8072" stroke="black" points="307.51,-252 188.49,-252 188.49,-216 307.51,-216 307.51,-252"/>
<text text-anchor="middle" x="248" y="-229.8" font-family="Times,serif" font-size="14.00">QrcoderesultPage </text>
</g>
<!-- QrcoderesultPageModule&#45;&gt;QrcoderesultPage  -->
<g id="edge3" class="edge">
<title>QrcoderesultPageModule&#45;&gt;QrcoderesultPage </title>
<path fill="none" stroke="black" stroke-dasharray="5,2" d="M248,-187.11C248,-187.11 248,-205.99 248,-205.99"/>
<polygon fill="black" stroke="black" points="244.5,-205.99 248,-215.99 251.5,-205.99 244.5,-205.99"/>
</g>
<!-- DirectivesModule -->
<g id="node3" class="node">
<title>DirectivesModule</title>
<polygon fill="#8dd3c7" stroke="black" points="236.58,-122 233.58,-126 212.58,-126 209.58,-122 119.42,-122 119.42,-86 236.58,-86 236.58,-122"/>
<text text-anchor="middle" x="178" y="-99.8" font-family="Times,serif" font-size="14.00">DirectivesModule</text>
</g>
<!-- DirectivesModule&#45;&gt;QrcoderesultPageModule -->
<g id="edge2" class="edge">
<title>DirectivesModule&#45;&gt;QrcoderesultPageModule</title>
<path fill="none" stroke="black" d="M202.5,-122.11C202.5,-122.11 202.5,-140.99 202.5,-140.99"/>
<polygon fill="black" stroke="black" points="199,-140.99 202.5,-150.99 206,-140.99 199,-140.99"/>
</g>
</g>
</svg>
