<?xml version="1.0" encoding="UTF-8" standalone="no"?>
<!DOCTYPE svg PUBLIC "-//W3C//DTD SVG 1.1//EN"
 "http://www.w3.org/Graphics/SVG/1.1/DTD/svg11.dtd">
<!-- Generated by graphviz version 2.47.0 (20210316.0004)
 -->
<!-- Title: dependencies Pages: 1 -->
<svg width="639pt" height="211pt"
 viewBox="0.00 0.00 639.00 211.00" xmlns="http://www.w3.org/2000/svg" xmlns:xlink="http://www.w3.org/1999/xlink">
<g id="graph0" class="graph" transform="scale(1 1) rotate(0) translate(4 207)">
<title>dependencies</title>
<polygon fill="white" stroke="transparent" points="-4,4 -4,-207 635,-207 635,4 -4,4"/>
<text text-anchor="start" x="294.51" y="-42.4" font-family="Times-12" font-weight="bold" font-size="14.00">Legend</text>
<polygon fill="#ffffb3" stroke="transparent" points="81.5,-10 81.5,-30 101.5,-30 101.5,-10 81.5,-10"/>
<text text-anchor="start" x="105.13" y="-15.4" font-family="Times-12" font-size="14.00"> &#160;Declarations</text>
<polygon fill="#8dd3c7" stroke="transparent" points="194.5,-10 194.5,-30 214.5,-30 214.5,-10 194.5,-10"/>
<text text-anchor="start" x="218.23" y="-15.4" font-family="Times-12" font-size="14.00"> &#160;Module</text>
<polygon fill="#80b1d3" stroke="transparent" points="280.5,-10 280.5,-30 300.5,-30 300.5,-10 280.5,-10"/>
<text text-anchor="start" x="304.28" y="-15.4" font-family="Times-12" font-size="14.00"> &#160;Bootstrap</text>
<polygon fill="#fdb462" stroke="transparent" points="377.5,-10 377.5,-30 397.5,-30 397.5,-10 377.5,-10"/>
<text text-anchor="start" x="401.17" y="-15.4" font-family="Times-12" font-size="14.00"> &#160;Providers</text>
<polygon fill="#fb8072" stroke="transparent" points="473.5,-10 473.5,-30 493.5,-30 493.5,-10 473.5,-10"/>
<text text-anchor="start" x="497.23" y="-15.4" font-family="Times-12" font-size="14.00"> &#160;Exports</text>
<g id="clust1" class="cluster">
<title>cluster_ProgramsModule</title>
<polygon fill="none" stroke="black" stroke-dasharray="1,5" points="8,-70 8,-195 623,-195 623,-70 8,-70"/>
</g>
<g id="clust2" class="cluster">
<title>cluster_ProgramsModule_declarations</title>
<polygon fill="none" stroke="black" points="243,-78 243,-130 615,-130 615,-78 243,-78"/>
</g>
<g id="clust5" class="cluster">
<title>cluster_ProgramsModule_imports</title>
<polygon fill="none" stroke="black" points="16,-78 16,-130 235,-130 235,-78 16,-78"/>
</g>
<!-- ProgramListingComponent -->
<g id="node1" class="node">
<title>ProgramListingComponent</title>
<polygon fill="#ffffb3" stroke="black" points="606.71,-122 437.29,-122 437.29,-86 606.71,-86 606.71,-122"/>
<text text-anchor="middle" x="522" y="-99.8" font-family="Times,serif" font-size="14.00">ProgramListingComponent</text>
</g>
<!-- ProgramsModule -->
<g id="node3" class="node">
<title>ProgramsModule</title>
<polygon fill="#8dd3c7" stroke="black" points="315.7,-187 312.7,-191 291.7,-191 288.7,-187 202.3,-187 202.3,-151 315.7,-151 315.7,-187"/>
<text text-anchor="middle" x="259" y="-164.8" font-family="Times,serif" font-size="14.00">ProgramsModule</text>
</g>
<!-- ProgramListingComponent&#45;&gt;ProgramsModule -->
<g id="edge1" class="edge">
<title>ProgramListingComponent&#45;&gt;ProgramsModule</title>
<path fill="none" stroke="black" d="M522,-122.11C522,-141.34 522,-169 522,-169 522,-169 325.74,-169 325.74,-169"/>
<polygon fill="black" stroke="black" points="325.74,-165.5 315.74,-169 325.74,-172.5 325.74,-165.5"/>
</g>
<!-- SolutionListingComponent -->
<g id="node2" class="node">
<title>SolutionListingComponent</title>
<polygon fill="#ffffb3" stroke="black" points="419.46,-122 250.54,-122 250.54,-86 419.46,-86 419.46,-122"/>
<text text-anchor="middle" x="335" y="-99.8" font-family="Times,serif" font-size="14.00">SolutionListingComponent</text>
</g>
<!-- SolutionListingComponent&#45;&gt;ProgramsModule -->
<g id="edge2" class="edge">
<title>SolutionListingComponent&#45;&gt;ProgramsModule</title>
<path fill="none" stroke="black" d="M283.19,-122.11C283.19,-122.11 283.19,-140.99 283.19,-140.99"/>
<polygon fill="black" stroke="black" points="279.69,-140.99 283.19,-150.99 286.69,-140.99 279.69,-140.99"/>
</g>
<!-- CoreModule -->
<g id="node4" class="node">
<title>CoreModule</title>
<polygon fill="#8dd3c7" stroke="black" points="227.26,-122 224.26,-126 203.26,-126 200.26,-122 140.74,-122 140.74,-86 227.26,-86 227.26,-122"/>
<text text-anchor="middle" x="184" y="-99.8" font-family="Times,serif" font-size="14.00">CoreModule</text>
</g>
<!-- CoreModule&#45;&gt;ProgramsModule -->
<g id="edge3" class="edge">
<title>CoreModule&#45;&gt;ProgramsModule</title>
<path fill="none" stroke="black" d="M214.89,-122.11C214.89,-122.11 214.89,-140.99 214.89,-140.99"/>
<polygon fill="black" stroke="black" points="211.39,-140.99 214.89,-150.99 218.39,-140.99 211.39,-140.99"/>
</g>
<!-- SharedModule -->
<g id="node5" class="node">
<title>SharedModule</title>
<polygon fill="#8dd3c7" stroke="black" points="122.42,-122 119.42,-126 98.42,-126 95.42,-122 23.58,-122 23.58,-86 122.42,-86 122.42,-122"/>
<text text-anchor="middle" x="73" y="-99.8" font-family="Times,serif" font-size="14.00">SharedModule</text>
</g>
<!-- SharedModule&#45;&gt;ProgramsModule -->
<g id="edge4" class="edge">
<title>SharedModule&#45;&gt;ProgramsModule</title>
<path fill="none" stroke="black" d="M73,-122.11C73,-141.34 73,-169 73,-169 73,-169 192.18,-169 192.18,-169"/>
<polygon fill="black" stroke="black" points="192.18,-172.5 202.18,-169 192.18,-165.5 192.18,-172.5"/>
</g>
</g>
</svg>
