<?xml version="1.0" encoding="UTF-8" standalone="no"?>
<!DOCTYPE svg PUBLIC "-//W3C//DTD SVG 1.1//EN"
 "http://www.w3.org/Graphics/SVG/1.1/DTD/svg11.dtd">
<!-- Generated by graphviz version 2.47.0 (20210316.0004)
 -->
<!-- Title: dependencies Pages: 1 -->
<svg width="504pt" height="211pt"
 viewBox="0.00 0.00 504.00 211.00" xmlns="http://www.w3.org/2000/svg" xmlns:xlink="http://www.w3.org/1999/xlink">
<g id="graph0" class="graph" transform="scale(1 1) rotate(0) translate(4 207)">
<title>dependencies</title>
<polygon fill="white" stroke="transparent" points="-4,4 -4,-207 500,-207 500,4 -4,4"/>
<text text-anchor="start" x="227.01" y="-42.4" font-family="Times-12" font-weight="bold" font-size="14.00">Legend</text>
<polygon fill="#ffffb3" stroke="transparent" points="14,-10 14,-30 34,-30 34,-10 14,-10"/>
<text text-anchor="start" x="37.63" y="-15.4" font-family="Times-12" font-size="14.00"> &#160;Declarations</text>
<polygon fill="#8dd3c7" stroke="transparent" points="127,-10 127,-30 147,-30 147,-10 127,-10"/>
<text text-anchor="start" x="150.73" y="-15.4" font-family="Times-12" font-size="14.00"> &#160;Module</text>
<polygon fill="#80b1d3" stroke="transparent" points="213,-10 213,-30 233,-30 233,-10 213,-10"/>
<text text-anchor="start" x="236.78" y="-15.4" font-family="Times-12" font-size="14.00"> &#160;Bootstrap</text>
<polygon fill="#fdb462" stroke="transparent" points="310,-10 310,-30 330,-30 330,-10 310,-10"/>
<text text-anchor="start" x="333.67" y="-15.4" font-family="Times-12" font-size="14.00"> &#160;Providers</text>
<polygon fill="#fb8072" stroke="transparent" points="406,-10 406,-30 426,-30 426,-10 406,-10"/>
<text text-anchor="start" x="429.73" y="-15.4" font-family="Times-12" font-size="14.00"> &#160;Exports</text>
<g id="clust1" class="cluster">
<title>cluster_FiltersPageModule</title>
<polygon fill="none" stroke="black" stroke-dasharray="1,5" points="122,-70 122,-195 374,-195 374,-70 122,-70"/>
</g>
<g id="clust4" class="cluster">
<title>cluster_FiltersPageModule_imports</title>
<polygon fill="none" stroke="black" points="232,-78 232,-130 366,-130 366,-78 232,-78"/>
</g>
<g id="clust2" class="cluster">
<title>cluster_FiltersPageModule_declarations</title>
<polygon fill="none" stroke="black" points="130,-78 130,-130 224,-130 224,-78 130,-78"/>
</g>
<!-- FiltersPage -->
<g id="node1" class="node">
<title>FiltersPage</title>
<polygon fill="#ffffb3" stroke="black" points="216.49,-122 137.51,-122 137.51,-86 216.49,-86 216.49,-122"/>
<text text-anchor="middle" x="177" y="-99.8" font-family="Times,serif" font-size="14.00">FiltersPage</text>
</g>
<!-- FiltersPageModule -->
<g id="node2" class="node">
<title>FiltersPageModule</title>
<polygon fill="#8dd3c7" stroke="black" points="306.04,-187 303.04,-191 282.04,-191 279.04,-187 183.96,-187 183.96,-151 306.04,-151 306.04,-187"/>
<text text-anchor="middle" x="245" y="-164.8" font-family="Times,serif" font-size="14.00">FiltersPageModule</text>
</g>
<!-- FiltersPage&#45;&gt;FiltersPageModule -->
<g id="edge1" class="edge">
<title>FiltersPage&#45;&gt;FiltersPageModule</title>
<path fill="none" stroke="black" d="M200.11,-122.11C200.11,-122.11 200.11,-140.99 200.11,-140.99"/>
<polygon fill="black" stroke="black" points="196.61,-140.99 200.11,-150.99 203.61,-140.99 196.61,-140.99"/>
</g>
<!-- DirectivesModule -->
<g id="node3" class="node">
<title>DirectivesModule</title>
<polygon fill="#8dd3c7" stroke="black" points="357.58,-122 354.58,-126 333.58,-126 330.58,-122 240.42,-122 240.42,-86 357.58,-86 357.58,-122"/>
<text text-anchor="middle" x="299" y="-99.8" font-family="Times,serif" font-size="14.00">DirectivesModule</text>
</g>
<!-- DirectivesModule&#45;&gt;FiltersPageModule -->
<g id="edge2" class="edge">
<title>DirectivesModule&#45;&gt;FiltersPageModule</title>
<path fill="none" stroke="black" d="M273.36,-122.11C273.36,-122.11 273.36,-140.99 273.36,-140.99"/>
<polygon fill="black" stroke="black" points="269.86,-140.99 273.36,-150.99 276.86,-140.99 269.86,-140.99"/>
</g>
</g>
</svg>
