<?xml version="1.0" encoding="UTF-8" standalone="no"?>
<!DOCTYPE svg PUBLIC "-//W3C//DTD SVG 1.1//EN"
 "http://www.w3.org/Graphics/SVG/1.1/DTD/svg11.dtd">
<!-- Generated by graphviz version 2.47.0 (20210316.0004)
 -->
<!-- Title: dependencies Pages: 1 -->
<svg width="523pt" height="211pt"
 viewBox="0.00 0.00 523.00 211.00" xmlns="http://www.w3.org/2000/svg" xmlns:xlink="http://www.w3.org/1999/xlink">
<g id="graph0" class="graph" transform="scale(1 1) rotate(0) translate(4 207)">
<title>dependencies</title>
<polygon fill="white" stroke="transparent" points="-4,4 -4,-207 519,-207 519,4 -4,4"/>
<text text-anchor="start" x="236.51" y="-42.4" font-family="Times-12" font-weight="bold" font-size="14.00">Legend</text>
<polygon fill="#ffffb3" stroke="transparent" points="23.5,-10 23.5,-30 43.5,-30 43.5,-10 23.5,-10"/>
<text text-anchor="start" x="47.13" y="-15.4" font-family="Times-12" font-size="14.00"> &#160;Declarations</text>
<polygon fill="#8dd3c7" stroke="transparent" points="136.5,-10 136.5,-30 156.5,-30 156.5,-10 136.5,-10"/>
<text text-anchor="start" x="160.23" y="-15.4" font-family="Times-12" font-size="14.00"> &#160;Module</text>
<polygon fill="#80b1d3" stroke="transparent" points="222.5,-10 222.5,-30 242.5,-30 242.5,-10 222.5,-10"/>
<text text-anchor="start" x="246.28" y="-15.4" font-family="Times-12" font-size="14.00"> &#160;Bootstrap</text>
<polygon fill="#fdb462" stroke="transparent" points="319.5,-10 319.5,-30 339.5,-30 339.5,-10 319.5,-10"/>
<text text-anchor="start" x="343.17" y="-15.4" font-family="Times-12" font-size="14.00"> &#160;Providers</text>
<polygon fill="#fb8072" stroke="transparent" points="415.5,-10 415.5,-30 435.5,-30 435.5,-10 415.5,-10"/>
<text text-anchor="start" x="439.23" y="-15.4" font-family="Times-12" font-size="14.00"> &#160;Exports</text>
<g id="clust1" class="cluster">
<title>cluster_DistrictMappingPageModule</title>
<polygon fill="none" stroke="black" stroke-dasharray="1,5" points="8,-70 8,-195 507,-195 507,-70 8,-70"/>
</g>
<g id="clust7" class="cluster">
<title>cluster_DistrictMappingPageModule_providers</title>
<polygon fill="none" stroke="black" points="176,-78 176,-130 499,-130 499,-78 176,-78"/>
</g>
<g id="clust2" class="cluster">
<title>cluster_DistrictMappingPageModule_declarations</title>
<polygon fill="none" stroke="black" points="16,-78 16,-130 168,-130 168,-78 16,-78"/>
</g>
<!-- DistrictMappingPage -->
<g id="node1" class="node">
<title>DistrictMappingPage</title>
<polygon fill="#ffffb3" stroke="black" points="159.75,-122 24.25,-122 24.25,-86 159.75,-86 159.75,-122"/>
<text text-anchor="middle" x="92" y="-99.8" font-family="Times,serif" font-size="14.00">DistrictMappingPage</text>
</g>
<!-- DistrictMappingPageModule -->
<g id="node2" class="node">
<title>DistrictMappingPageModule</title>
<polygon fill="#8dd3c7" stroke="black" points="341.8,-187 338.8,-191 317.8,-191 314.8,-187 162.2,-187 162.2,-151 341.8,-151 341.8,-187"/>
<text text-anchor="middle" x="252" y="-164.8" font-family="Times,serif" font-size="14.00">DistrictMappingPageModule</text>
</g>
<!-- DistrictMappingPage&#45;&gt;DistrictMappingPageModule -->
<g id="edge1" class="edge">
<title>DistrictMappingPage&#45;&gt;DistrictMappingPageModule</title>
<path fill="none" stroke="black" d="M159.96,-104C167.75,-104 172.97,-104 172.97,-104 172.97,-104 172.97,-140.89 172.97,-140.89"/>
<polygon fill="black" stroke="black" points="169.47,-140.89 172.97,-150.89 176.47,-140.89 169.47,-140.89"/>
</g>
<!-- LocationHandler -->
<g id="node3" class="node">
<title>LocationHandler</title>
<ellipse fill="#fdb462" stroke="black" cx="415" cy="-104" rx="76.42" ry="18"/>
<text text-anchor="middle" x="415" y="-99.8" font-family="Times,serif" font-size="14.00">LocationHandler</text>
</g>
<!-- LocationHandler&#45;&gt;DistrictMappingPageModule -->
<g id="edge2" class="edge">
<title>LocationHandler&#45;&gt;DistrictMappingPageModule</title>
<path fill="none" stroke="black" d="M338.31,-104C332.87,-104 329.48,-104 329.48,-104 329.48,-104 329.48,-140.89 329.48,-140.89"/>
<polygon fill="black" stroke="black" points="325.98,-140.89 329.48,-150.89 332.98,-140.89 325.98,-140.89"/>
</g>
<!-- ProfileHandler -->
<g id="node4" class="node">
<title>ProfileHandler</title>
<ellipse fill="#fdb462" stroke="black" cx="252" cy="-104" rx="68.33" ry="18"/>
<text text-anchor="middle" x="252" y="-99.8" font-family="Times,serif" font-size="14.00">ProfileHandler</text>
</g>
<!-- ProfileHandler&#45;&gt;DistrictMappingPageModule -->
<g id="edge3" class="edge">
<title>ProfileHandler&#45;&gt;DistrictMappingPageModule</title>
<path fill="none" stroke="black" d="M252,-122.11C252,-122.11 252,-140.99 252,-140.99"/>
<polygon fill="black" stroke="black" points="248.5,-140.99 252,-150.99 255.5,-140.99 248.5,-140.99"/>
</g>
</g>
</svg>
