<?xml version="1.0" encoding="UTF-8" standalone="no"?>
<!DOCTYPE svg PUBLIC "-//W3C//DTD SVG 1.1//EN"
 "http://www.w3.org/Graphics/SVG/1.1/DTD/svg11.dtd">
<!-- Generated by graphviz version 2.47.0 (20210316.0004)
 -->
<!-- Title: dependencies Pages: 1 -->
<svg width="1040pt" height="211pt"
 viewBox="0.00 0.00 1040.00 211.00" xmlns="http://www.w3.org/2000/svg" xmlns:xlink="http://www.w3.org/1999/xlink">
<g id="graph0" class="graph" transform="scale(1 1) rotate(0) translate(4 207)">
<title>dependencies</title>
<polygon fill="white" stroke="transparent" points="-4,4 -4,-207 1036,-207 1036,4 -4,4"/>
<text text-anchor="start" x="495.01" y="-42.4" font-family="Times-12" font-weight="bold" font-size="14.00">Legend</text>
<polygon fill="#ffffb3" stroke="transparent" points="282,-10 282,-30 302,-30 302,-10 282,-10"/>
<text text-anchor="start" x="305.63" y="-15.4" font-family="Times-12" font-size="14.00"> &#160;Declarations</text>
<polygon fill="#8dd3c7" stroke="transparent" points="395,-10 395,-30 415,-30 415,-10 395,-10"/>
<text text-anchor="start" x="418.73" y="-15.4" font-family="Times-12" font-size="14.00"> &#160;Module</text>
<polygon fill="#80b1d3" stroke="transparent" points="481,-10 481,-30 501,-30 501,-10 481,-10"/>
<text text-anchor="start" x="504.78" y="-15.4" font-family="Times-12" font-size="14.00"> &#160;Bootstrap</text>
<polygon fill="#fdb462" stroke="transparent" points="578,-10 578,-30 598,-30 598,-10 578,-10"/>
<text text-anchor="start" x="601.67" y="-15.4" font-family="Times-12" font-size="14.00"> &#160;Providers</text>
<polygon fill="#fb8072" stroke="transparent" points="674,-10 674,-30 694,-30 694,-10 674,-10"/>
<text text-anchor="start" x="697.73" y="-15.4" font-family="Times-12" font-size="14.00"> &#160;Exports</text>
<g id="clust1" class="cluster">
<title>cluster_LearnModule</title>
<polygon fill="none" stroke="black" stroke-dasharray="1,5" points="8,-70 8,-195 1024,-195 1024,-70 8,-70"/>
</g>
<g id="clust2" class="cluster">
<title>cluster_LearnModule_declarations</title>
<polygon fill="none" stroke="black" points="852,-78 852,-130 1016,-130 1016,-78 852,-78"/>
</g>
<g id="clust4" class="cluster">
<title>cluster_LearnModule_imports</title>
<polygon fill="none" stroke="black" points="16,-78 16,-130 844,-130 844,-78 16,-78"/>
</g>
<!-- CoursePageComponent -->
<g id="node1" class="node">
<title>CoursePageComponent</title>
<polygon fill="#ffffb3" stroke="black" points="1008.2,-122 859.8,-122 859.8,-86 1008.2,-86 1008.2,-122"/>
<text text-anchor="middle" x="934" y="-99.8" font-family="Times,serif" font-size="14.00">CoursePageComponent</text>
</g>
<!-- LearnModule -->
<g id="node2" class="node">
<title>LearnModule</title>
<polygon fill="#8dd3c7" stroke="black" points="549.19,-187 546.19,-191 525.19,-191 522.19,-187 456.81,-187 456.81,-151 549.19,-151 549.19,-187"/>
<text text-anchor="middle" x="503" y="-164.8" font-family="Times,serif" font-size="14.00">LearnModule</text>
</g>
<!-- CoursePageComponent&#45;&gt;LearnModule -->
<g id="edge1" class="edge">
<title>CoursePageComponent&#45;&gt;LearnModule</title>
<path fill="none" stroke="black" d="M934,-122.29C934,-144.21 934,-178 934,-178 934,-178 559.12,-178 559.12,-178"/>
<polygon fill="black" stroke="black" points="559.12,-174.5 549.12,-178 559.12,-181.5 559.12,-174.5"/>
</g>
<!-- ContentSearchModule -->
<g id="node3" class="node">
<title>ContentSearchModule</title>
<polygon fill="#8dd3c7" stroke="black" points="835.97,-122 832.97,-126 811.97,-126 808.97,-122 694.03,-122 694.03,-86 835.97,-86 835.97,-122"/>
<text text-anchor="middle" x="765" y="-99.8" font-family="Times,serif" font-size="14.00">ContentSearchModule</text>
</g>
<!-- ContentSearchModule&#45;&gt;LearnModule -->
<g id="edge2" class="edge">
<title>ContentSearchModule&#45;&gt;LearnModule</title>
<path fill="none" stroke="black" d="M765,-122.11C765,-141.34 765,-169 765,-169 765,-169 559.24,-169 559.24,-169"/>
<polygon fill="black" stroke="black" points="559.24,-165.5 549.24,-169 559.24,-172.5 559.24,-165.5"/>
</g>
<!-- CoreModule -->
<g id="node4" class="node">
<title>CoreModule</title>
<polygon fill="#8dd3c7" stroke="black" points="676.26,-122 673.26,-126 652.26,-126 649.26,-122 589.74,-122 589.74,-86 676.26,-86 676.26,-122"/>
<text text-anchor="middle" x="633" y="-99.8" font-family="Times,serif" font-size="14.00">CoreModule</text>
</g>
<!-- CoreModule&#45;&gt;LearnModule -->
<g id="edge3" class="edge">
<title>CoreModule&#45;&gt;LearnModule</title>
<path fill="none" stroke="black" d="M633,-122.03C633,-138.4 633,-160 633,-160 633,-160 559.2,-160 559.2,-160"/>
<polygon fill="black" stroke="black" points="559.2,-156.5 549.2,-160 559.2,-163.5 559.2,-156.5"/>
</g>
<!-- LearnRoutingModule -->
<g id="node5" class="node">
<title>LearnRoutingModule</title>
<polygon fill="#8dd3c7" stroke="black" points="571.81,-122 568.81,-126 547.81,-126 544.81,-122 434.19,-122 434.19,-86 571.81,-86 571.81,-122"/>
<text text-anchor="middle" x="503" y="-99.8" font-family="Times,serif" font-size="14.00">LearnRoutingModule</text>
</g>
<!-- LearnRoutingModule&#45;&gt;LearnModule -->
<g id="edge4" class="edge">
<title>LearnRoutingModule&#45;&gt;LearnModule</title>
<path fill="none" stroke="black" d="M503,-122.11C503,-122.11 503,-140.99 503,-140.99"/>
<polygon fill="black" stroke="black" points="499.5,-140.99 503,-150.99 506.5,-140.99 499.5,-140.99"/>
</g>
<!-- SharedFeatureModule -->
<g id="node6" class="node">
<title>SharedFeatureModule</title>
<polygon fill="#8dd3c7" stroke="black" points="416.4,-122 413.4,-126 392.4,-126 389.4,-122 275.6,-122 275.6,-86 416.4,-86 416.4,-122"/>
<text text-anchor="middle" x="346" y="-99.8" font-family="Times,serif" font-size="14.00">SharedFeatureModule</text>
</g>
<!-- SharedFeatureModule&#45;&gt;LearnModule -->
<g id="edge5" class="edge">
<title>SharedFeatureModule&#45;&gt;LearnModule</title>
<path fill="none" stroke="black" d="M346,-122.03C346,-138.4 346,-160 346,-160 346,-160 446.74,-160 446.74,-160"/>
<polygon fill="black" stroke="black" points="446.74,-163.5 456.74,-160 446.74,-156.5 446.74,-163.5"/>
</g>
<!-- SharedModule -->
<g id="node7" class="node">
<title>SharedModule</title>
<polygon fill="#8dd3c7" stroke="black" points="258.42,-122 255.42,-126 234.42,-126 231.42,-122 159.58,-122 159.58,-86 258.42,-86 258.42,-122"/>
<text text-anchor="middle" x="209" y="-99.8" font-family="Times,serif" font-size="14.00">SharedModule</text>
</g>
<!-- SharedModule&#45;&gt;LearnModule -->
<g id="edge6" class="edge">
<title>SharedModule&#45;&gt;LearnModule</title>
<path fill="none" stroke="black" d="M209,-122.11C209,-141.34 209,-169 209,-169 209,-169 446.74,-169 446.74,-169"/>
<polygon fill="black" stroke="black" points="446.74,-172.5 456.74,-169 446.74,-165.5 446.74,-172.5"/>
</g>
<!-- TelemetryModule -->
<g id="node8" class="node">
<title>TelemetryModule</title>
<polygon fill="#8dd3c7" stroke="black" points="141.58,-122 138.58,-126 117.58,-126 114.58,-122 24.42,-122 24.42,-86 141.58,-86 141.58,-122"/>
<text text-anchor="middle" x="83" y="-99.8" font-family="Times,serif" font-size="14.00">TelemetryModule</text>
</g>
<!-- TelemetryModule&#45;&gt;LearnModule -->
<g id="edge7" class="edge">
<title>TelemetryModule&#45;&gt;LearnModule</title>
<path fill="none" stroke="black" d="M83,-122.29C83,-144.21 83,-178 83,-178 83,-178 446.85,-178 446.85,-178"/>
<polygon fill="black" stroke="black" points="446.85,-181.5 456.85,-178 446.85,-174.5 446.85,-181.5"/>
</g>
</g>
</svg>
