<?xml version="1.0" encoding="UTF-8" standalone="no"?>
<!DOCTYPE svg PUBLIC "-//W3C//DTD SVG 1.1//EN"
 "http://www.w3.org/Graphics/SVG/1.1/DTD/svg11.dtd">
<!-- Generated by graphviz version 2.47.0 (20210316.0004)
 -->
<!-- Title: dependencies Pages: 1 -->
<svg width="504pt" height="211pt"
 viewBox="0.00 0.00 504.00 211.00" xmlns="http://www.w3.org/2000/svg" xmlns:xlink="http://www.w3.org/1999/xlink">
<g id="graph0" class="graph" transform="scale(1 1) rotate(0) translate(4 207)">
<title>dependencies</title>
<polygon fill="white" stroke="transparent" points="-4,4 -4,-207 500,-207 500,4 -4,4"/>
<text text-anchor="start" x="227.01" y="-42.4" font-family="Times-12" font-weight="bold" font-size="14.00">Legend</text>
<polygon fill="#ffffb3" stroke="transparent" points="14,-10 14,-30 34,-30 34,-10 14,-10"/>
<text text-anchor="start" x="37.63" y="-15.4" font-family="Times-12" font-size="14.00"> &#160;Declarations</text>
<polygon fill="#8dd3c7" stroke="transparent" points="127,-10 127,-30 147,-30 147,-10 127,-10"/>
<text text-anchor="start" x="150.73" y="-15.4" font-family="Times-12" font-size="14.00"> &#160;Module</text>
<polygon fill="#80b1d3" stroke="transparent" points="213,-10 213,-30 233,-30 233,-10 213,-10"/>
<text text-anchor="start" x="236.78" y="-15.4" font-family="Times-12" font-size="14.00"> &#160;Bootstrap</text>
<polygon fill="#fdb462" stroke="transparent" points="310,-10 310,-30 330,-30 330,-10 310,-10"/>
<text text-anchor="start" x="333.67" y="-15.4" font-family="Times-12" font-size="14.00"> &#160;Providers</text>
<polygon fill="#fb8072" stroke="transparent" points="406,-10 406,-30 426,-30 426,-10 406,-10"/>
<text text-anchor="start" x="429.73" y="-15.4" font-family="Times-12" font-size="14.00"> &#160;Exports</text>
<g id="clust1" class="cluster">
<title>cluster_SubmissionPreviewModule</title>
<polygon fill="none" stroke="black" stroke-dasharray="1,5" points="8.5,-70 8.5,-195 487.5,-195 487.5,-70 8.5,-70"/>
</g>
<g id="clust2" class="cluster">
<title>cluster_SubmissionPreviewModule_declarations</title>
<polygon fill="none" stroke="black" points="243.5,-78 243.5,-130 479.5,-130 479.5,-78 243.5,-78"/>
</g>
<g id="clust4" class="cluster">
<title>cluster_SubmissionPreviewModule_imports</title>
<polygon fill="none" stroke="black" points="16.5,-78 16.5,-130 235.5,-130 235.5,-78 16.5,-78"/>
</g>
<!-- SubmissionPreviewPageComponent -->
<g id="node1" class="node">
<title>SubmissionPreviewPageComponent</title>
<polygon fill="#ffffb3" stroke="black" points="471.26,-122 251.74,-122 251.74,-86 471.26,-86 471.26,-122"/>
<text text-anchor="middle" x="361.5" y="-99.8" font-family="Times,serif" font-size="14.00">SubmissionPreviewPageComponent</text>
</g>
<!-- SubmissionPreviewModule -->
<g id="node2" class="node">
<title>SubmissionPreviewModule</title>
<polygon fill="#8dd3c7" stroke="black" points="269.76,-187 266.76,-191 245.76,-191 242.76,-187 99.24,-187 99.24,-151 269.76,-151 269.76,-187"/>
<text text-anchor="middle" x="184.5" y="-164.8" font-family="Times,serif" font-size="14.00">SubmissionPreviewModule</text>
</g>
<!-- SubmissionPreviewPageComponent&#45;&gt;SubmissionPreviewModule -->
<g id="edge1" class="edge">
<title>SubmissionPreviewPageComponent&#45;&gt;SubmissionPreviewModule</title>
<path fill="none" stroke="black" d="M260.75,-122.11C260.75,-122.11 260.75,-140.99 260.75,-140.99"/>
<polygon fill="black" stroke="black" points="257.25,-140.99 260.75,-150.99 264.25,-140.99 257.25,-140.99"/>
</g>
<!-- CoreModule -->
<g id="node3" class="node">
<title>CoreModule</title>
<polygon fill="#8dd3c7" stroke="black" points="227.76,-122 224.76,-126 203.76,-126 200.76,-122 141.24,-122 141.24,-86 227.76,-86 227.76,-122"/>
<text text-anchor="middle" x="184.5" y="-99.8" font-family="Times,serif" font-size="14.00">CoreModule</text>
</g>
<!-- CoreModule&#45;&gt;SubmissionPreviewModule -->
<g id="edge2" class="edge">
<title>CoreModule&#45;&gt;SubmissionPreviewModule</title>
<path fill="none" stroke="black" d="M184.5,-122.11C184.5,-122.11 184.5,-140.99 184.5,-140.99"/>
<polygon fill="black" stroke="black" points="181,-140.99 184.5,-150.99 188,-140.99 181,-140.99"/>
</g>
<!-- SharedModule -->
<g id="node4" class="node">
<title>SharedModule</title>
<polygon fill="#8dd3c7" stroke="black" points="122.92,-122 119.92,-126 98.92,-126 95.92,-122 24.08,-122 24.08,-86 122.92,-86 122.92,-122"/>
<text text-anchor="middle" x="73.5" y="-99.8" font-family="Times,serif" font-size="14.00">SharedModule</text>
</g>
<!-- SharedModule&#45;&gt;SubmissionPreviewModule -->
<g id="edge3" class="edge">
<title>SharedModule&#45;&gt;SubmissionPreviewModule</title>
<path fill="none" stroke="black" d="M110.91,-122.11C110.91,-122.11 110.91,-140.99 110.91,-140.99"/>
<polygon fill="black" stroke="black" points="107.41,-140.99 110.91,-150.99 114.41,-140.99 107.41,-140.99"/>
</g>
</g>
</svg>
