<?xml version="1.0" encoding="UTF-8" standalone="no"?>
<!DOCTYPE svg PUBLIC "-//W3C//DTD SVG 1.1//EN"
 "http://www.w3.org/Graphics/SVG/1.1/DTD/svg11.dtd">
<!-- Generated by graphviz version 2.47.0 (20210316.0004)
 -->
<!-- Title: dependencies Pages: 1 -->
<svg width="1629pt" height="211pt"
 viewBox="0.00 0.00 1629.00 211.00" xmlns="http://www.w3.org/2000/svg" xmlns:xlink="http://www.w3.org/1999/xlink">
<g id="graph0" class="graph" transform="scale(1 1) rotate(0) translate(4 207)">
<title>dependencies</title>
<polygon fill="white" stroke="transparent" points="-4,4 -4,-207 1625,-207 1625,4 -4,4"/>
<text text-anchor="start" x="789.51" y="-42.4" font-family="Times-12" font-weight="bold" font-size="14.00">Legend</text>
<polygon fill="#ffffb3" stroke="transparent" points="576.5,-10 576.5,-30 596.5,-30 596.5,-10 576.5,-10"/>
<text text-anchor="start" x="600.13" y="-15.4" font-family="Times-12" font-size="14.00"> &#160;Declarations</text>
<polygon fill="#8dd3c7" stroke="transparent" points="689.5,-10 689.5,-30 709.5,-30 709.5,-10 689.5,-10"/>
<text text-anchor="start" x="713.23" y="-15.4" font-family="Times-12" font-size="14.00"> &#160;Module</text>
<polygon fill="#80b1d3" stroke="transparent" points="775.5,-10 775.5,-30 795.5,-30 795.5,-10 775.5,-10"/>
<text text-anchor="start" x="799.28" y="-15.4" font-family="Times-12" font-size="14.00"> &#160;Bootstrap</text>
<polygon fill="#fdb462" stroke="transparent" points="872.5,-10 872.5,-30 892.5,-30 892.5,-10 872.5,-10"/>
<text text-anchor="start" x="896.17" y="-15.4" font-family="Times-12" font-size="14.00"> &#160;Providers</text>
<polygon fill="#fb8072" stroke="transparent" points="968.5,-10 968.5,-30 988.5,-30 988.5,-10 968.5,-10"/>
<text text-anchor="start" x="992.23" y="-15.4" font-family="Times-12" font-size="14.00"> &#160;Exports</text>
<g id="clust1" class="cluster">
<title>cluster_RecoverAccountModule</title>
<polygon fill="none" stroke="black" stroke-dasharray="1,5" points="8,-70 8,-195 1613,-195 1613,-70 8,-70"/>
</g>
<g id="clust2" class="cluster">
<title>cluster_RecoverAccountModule_declarations</title>
<polygon fill="none" stroke="black" points="754,-78 754,-130 1605,-130 1605,-78 754,-78"/>
</g>
<g id="clust7" class="cluster">
<title>cluster_RecoverAccountModule_imports</title>
<polygon fill="none" stroke="black" points="16,-78 16,-130 746,-130 746,-78 16,-78"/>
</g>
<!-- IdentifyAccountComponent -->
<g id="node1" class="node">
<title>IdentifyAccountComponent</title>
<polygon fill="#ffffb3" stroke="black" points="1596.58,-122 1423.42,-122 1423.42,-86 1596.58,-86 1596.58,-122"/>
<text text-anchor="middle" x="1510" y="-99.8" font-family="Times,serif" font-size="14.00">IdentifyAccountComponent</text>
</g>
<!-- RecoverAccountModule -->
<g id="node5" class="node">
<title>RecoverAccountModule</title>
<polygon fill="#8dd3c7" stroke="black" points="771.62,-187 768.62,-191 747.62,-191 744.62,-187 618.38,-187 618.38,-151 771.62,-151 771.62,-187"/>
<text text-anchor="middle" x="695" y="-164.8" font-family="Times,serif" font-size="14.00">RecoverAccountModule</text>
</g>
<!-- IdentifyAccountComponent&#45;&gt;RecoverAccountModule -->
<g id="edge1" class="edge">
<title>IdentifyAccountComponent&#45;&gt;RecoverAccountModule</title>
<path fill="none" stroke="black" d="M1510,-122.29C1510,-144.21 1510,-178 1510,-178 1510,-178 781.67,-178 781.67,-178"/>
<polygon fill="black" stroke="black" points="781.67,-174.5 771.67,-178 781.67,-181.5 781.67,-174.5"/>
</g>
<!-- RecoverAccountComponent -->
<g id="node2" class="node">
<title>RecoverAccountComponent</title>
<polygon fill="#ffffb3" stroke="black" points="1405.9,-122 1230.1,-122 1230.1,-86 1405.9,-86 1405.9,-122"/>
<text text-anchor="middle" x="1318" y="-99.8" font-family="Times,serif" font-size="14.00">RecoverAccountComponent</text>
</g>
<!-- RecoverAccountComponent&#45;&gt;RecoverAccountModule -->
<g id="edge2" class="edge">
<title>RecoverAccountComponent&#45;&gt;RecoverAccountModule</title>
<path fill="none" stroke="black" d="M1318,-122.11C1318,-141.34 1318,-169 1318,-169 1318,-169 781.7,-169 781.7,-169"/>
<polygon fill="black" stroke="black" points="781.7,-165.5 771.7,-169 781.7,-172.5 781.7,-165.5"/>
</g>
<!-- SelectAccountIdentifierComponent -->
<g id="node3" class="node">
<title>SelectAccountIdentifierComponent</title>
<polygon fill="#ffffb3" stroke="black" points="1212.55,-122 997.45,-122 997.45,-86 1212.55,-86 1212.55,-122"/>
<text text-anchor="middle" x="1105" y="-99.8" font-family="Times,serif" font-size="14.00">SelectAccountIdentifierComponent</text>
</g>
<!-- SelectAccountIdentifierComponent&#45;&gt;RecoverAccountModule -->
<g id="edge3" class="edge">
<title>SelectAccountIdentifierComponent&#45;&gt;RecoverAccountModule</title>
<path fill="none" stroke="black" d="M1105,-122.03C1105,-138.4 1105,-160 1105,-160 1105,-160 781.64,-160 781.64,-160"/>
<polygon fill="black" stroke="black" points="781.64,-156.5 771.64,-160 781.64,-163.5 781.64,-156.5"/>
</g>
<!-- VerifyAccountIdentifierComponent -->
<g id="node4" class="node">
<title>VerifyAccountIdentifierComponent</title>
<polygon fill="#ffffb3" stroke="black" points="979.87,-122 762.13,-122 762.13,-86 979.87,-86 979.87,-122"/>
<text text-anchor="middle" x="871" y="-99.8" font-family="Times,serif" font-size="14.00">VerifyAccountIdentifierComponent</text>
</g>
<!-- VerifyAccountIdentifierComponent&#45;&gt;RecoverAccountModule -->
<g id="edge4" class="edge">
<title>VerifyAccountIdentifierComponent&#45;&gt;RecoverAccountModule</title>
<path fill="none" stroke="black" d="M767.06,-122.11C767.06,-122.11 767.06,-140.99 767.06,-140.99"/>
<polygon fill="black" stroke="black" points="763.56,-140.99 767.06,-150.99 770.56,-140.99 763.56,-140.99"/>
</g>
<!-- CoreModule -->
<g id="node6" class="node">
<title>CoreModule</title>
<polygon fill="#8dd3c7" stroke="black" points="738.26,-122 735.26,-126 714.26,-126 711.26,-122 651.74,-122 651.74,-86 738.26,-86 738.26,-122"/>
<text text-anchor="middle" x="695" y="-99.8" font-family="Times,serif" font-size="14.00">CoreModule</text>
</g>
<!-- CoreModule&#45;&gt;RecoverAccountModule -->
<g id="edge5" class="edge">
<title>CoreModule&#45;&gt;RecoverAccountModule</title>
<path fill="none" stroke="black" d="M695,-122.11C695,-122.11 695,-140.99 695,-140.99"/>
<polygon fill="black" stroke="black" points="691.5,-140.99 695,-150.99 698.5,-140.99 691.5,-140.99"/>
</g>
<!-- RecoverAccountRoutingModule -->
<g id="node7" class="node">
<title>RecoverAccountRoutingModule</title>
<polygon fill="#8dd3c7" stroke="black" points="633.24,-122 630.24,-126 609.24,-126 606.24,-122 434.76,-122 434.76,-86 633.24,-86 633.24,-122"/>
<text text-anchor="middle" x="534" y="-99.8" font-family="Times,serif" font-size="14.00">RecoverAccountRoutingModule</text>
</g>
<!-- RecoverAccountRoutingModule&#45;&gt;RecoverAccountModule -->
<g id="edge6" class="edge">
<title>RecoverAccountRoutingModule&#45;&gt;RecoverAccountModule</title>
<path fill="none" stroke="black" d="M625.78,-122.11C625.78,-122.11 625.78,-140.99 625.78,-140.99"/>
<polygon fill="black" stroke="black" points="622.28,-140.99 625.78,-150.99 629.28,-140.99 622.28,-140.99"/>
</g>
<!-- SharedFeatureModule -->
<g id="node8" class="node">
<title>SharedFeatureModule</title>
<polygon fill="#8dd3c7" stroke="black" points="416.4,-122 413.4,-126 392.4,-126 389.4,-122 275.6,-122 275.6,-86 416.4,-86 416.4,-122"/>
<text text-anchor="middle" x="346" y="-99.8" font-family="Times,serif" font-size="14.00">SharedFeatureModule</text>
</g>
<!-- SharedFeatureModule&#45;&gt;RecoverAccountModule -->
<g id="edge7" class="edge">
<title>SharedFeatureModule&#45;&gt;RecoverAccountModule</title>
<path fill="none" stroke="black" d="M346,-122.03C346,-138.4 346,-160 346,-160 346,-160 607.98,-160 607.98,-160"/>
<polygon fill="black" stroke="black" points="607.98,-163.5 617.98,-160 607.98,-156.5 607.98,-163.5"/>
</g>
<!-- SharedModule -->
<g id="node9" class="node">
<title>SharedModule</title>
<polygon fill="#8dd3c7" stroke="black" points="258.42,-122 255.42,-126 234.42,-126 231.42,-122 159.58,-122 159.58,-86 258.42,-86 258.42,-122"/>
<text text-anchor="middle" x="209" y="-99.8" font-family="Times,serif" font-size="14.00">SharedModule</text>
</g>
<!-- SharedModule&#45;&gt;RecoverAccountModule -->
<g id="edge8" class="edge">
<title>SharedModule&#45;&gt;RecoverAccountModule</title>
<path fill="none" stroke="black" d="M209,-122.11C209,-141.34 209,-169 209,-169 209,-169 608.26,-169 608.26,-169"/>
<polygon fill="black" stroke="black" points="608.26,-172.5 618.26,-169 608.26,-165.5 608.26,-172.5"/>
</g>
<!-- TelemetryModule -->
<g id="node10" class="node">
<title>TelemetryModule</title>
<polygon fill="#8dd3c7" stroke="black" points="141.58,-122 138.58,-126 117.58,-126 114.58,-122 24.42,-122 24.42,-86 141.58,-86 141.58,-122"/>
<text text-anchor="middle" x="83" y="-99.8" font-family="Times,serif" font-size="14.00">TelemetryModule</text>
</g>
<!-- TelemetryModule&#45;&gt;RecoverAccountModule -->
<g id="edge9" class="edge">
<title>TelemetryModule&#45;&gt;RecoverAccountModule</title>
<path fill="none" stroke="black" d="M83,-122.29C83,-144.21 83,-178 83,-178 83,-178 608.11,-178 608.11,-178"/>
<polygon fill="black" stroke="black" points="608.11,-181.5 618.11,-178 608.11,-174.5 608.11,-181.5"/>
</g>
</g>
</svg>
