<?xml version="1.0" encoding="UTF-8" standalone="no"?>
<!DOCTYPE svg PUBLIC "-//W3C//DTD SVG 1.1//EN"
 "http://www.w3.org/Graphics/SVG/1.1/DTD/svg11.dtd">
<!-- Generated by graphviz version 2.47.0 (20210316.0004)
 -->
<!-- Title: dependencies Pages: 1 -->
<svg width="504pt" height="284pt"
 viewBox="0.00 0.00 504.00 284.00" xmlns="http://www.w3.org/2000/svg" xmlns:xlink="http://www.w3.org/1999/xlink">
<g id="graph0" class="graph" transform="scale(1 1) rotate(0) translate(4 280)">
<title>dependencies</title>
<polygon fill="white" stroke="transparent" points="-4,4 -4,-280 500,-280 500,4 -4,4"/>
<text text-anchor="start" x="227.01" y="-42.4" font-family="Times-12" font-weight="bold" font-size="14.00">Legend</text>
<polygon fill="#ffffb3" stroke="transparent" points="14,-10 14,-30 34,-30 34,-10 14,-10"/>
<text text-anchor="start" x="37.63" y="-15.4" font-family="Times-12" font-size="14.00"> &#160;Declarations</text>
<polygon fill="#8dd3c7" stroke="transparent" points="127,-10 127,-30 147,-30 147,-10 127,-10"/>
<text text-anchor="start" x="150.73" y="-15.4" font-family="Times-12" font-size="14.00"> &#160;Module</text>
<polygon fill="#80b1d3" stroke="transparent" points="213,-10 213,-30 233,-30 233,-10 213,-10"/>
<text text-anchor="start" x="236.78" y="-15.4" font-family="Times-12" font-size="14.00"> &#160;Bootstrap</text>
<polygon fill="#fdb462" stroke="transparent" points="310,-10 310,-30 330,-30 330,-10 310,-10"/>
<text text-anchor="start" x="333.67" y="-15.4" font-family="Times-12" font-size="14.00"> &#160;Providers</text>
<polygon fill="#fb8072" stroke="transparent" points="406,-10 406,-30 426,-30 426,-10 406,-10"/>
<text text-anchor="start" x="429.73" y="-15.4" font-family="Times-12" font-size="14.00"> &#160;Exports</text>
<g id="clust1" class="cluster">
<title>cluster_LocationModule</title>
<polygon fill="none" stroke="black" stroke-dasharray="1,5" points="11,-70 11,-268 485,-268 485,-70 11,-70"/>
</g>
<g id="clust5" class="cluster">
<title>cluster_LocationModule_exports</title>
<polygon fill="none" stroke="black" points="193,-208 193,-260 395,-260 395,-208 193,-208"/>
</g>
<g id="clust4" class="cluster">
<title>cluster_LocationModule_imports</title>
<polygon fill="none" stroke="black" points="227,-78 227,-130 477,-130 477,-78 227,-78"/>
</g>
<g id="clust2" class="cluster">
<title>cluster_LocationModule_declarations</title>
<polygon fill="none" stroke="black" points="19,-78 19,-130 219,-130 219,-78 19,-78"/>
</g>
<!-- LocationSelectionComponent -->
<g id="node1" class="node">
<title>LocationSelectionComponent</title>
<polygon fill="#ffffb3" stroke="black" points="210.69,-122 27.31,-122 27.31,-86 210.69,-86 210.69,-122"/>
<text text-anchor="middle" x="119" y="-99.8" font-family="Times,serif" font-size="14.00">LocationSelectionComponent</text>
</g>
<!-- LocationModule -->
<g id="node2" class="node">
<title>LocationModule</title>
<polygon fill="#8dd3c7" stroke="black" points="348.81,-187 345.81,-191 324.81,-191 321.81,-187 239.19,-187 239.19,-151 348.81,-151 348.81,-187"/>
<text text-anchor="middle" x="294" y="-164.8" font-family="Times,serif" font-size="14.00">LocationModule</text>
</g>
<!-- LocationSelectionComponent&#45;&gt;LocationModule -->
<g id="edge1" class="edge">
<title>LocationSelectionComponent&#45;&gt;LocationModule</title>
<path fill="none" stroke="black" d="M205.62,-122.11C205.62,-141.34 205.62,-169 205.62,-169 205.62,-169 229.29,-169 229.29,-169"/>
<polygon fill="black" stroke="black" points="229.29,-172.5 239.29,-169 229.29,-165.5 229.29,-172.5"/>
</g>
<!-- LocationSelectionComponent  -->
<g id="node5" class="node">
<title>LocationSelectionComponent </title>
<polygon fill="#fb8072" stroke="black" points="387.19,-252 200.81,-252 200.81,-216 387.19,-216 387.19,-252"/>
<text text-anchor="middle" x="294" y="-229.8" font-family="Times,serif" font-size="14.00">LocationSelectionComponent </text>
</g>
<!-- LocationModule&#45;&gt;LocationSelectionComponent  -->
<g id="edge4" class="edge">
<title>LocationModule&#45;&gt;LocationSelectionComponent </title>
<path fill="none" stroke="black" stroke-dasharray="5,2" d="M294,-187.11C294,-187.11 294,-205.99 294,-205.99"/>
<polygon fill="black" stroke="black" points="290.5,-205.99 294,-215.99 297.5,-205.99 290.5,-205.99"/>
</g>
<!-- SharedModule -->
<g id="node3" class="node">
<title>SharedModule</title>
<polygon fill="#8dd3c7" stroke="black" points="469.42,-122 466.42,-126 445.42,-126 442.42,-122 370.58,-122 370.58,-86 469.42,-86 469.42,-122"/>
<text text-anchor="middle" x="420" y="-99.8" font-family="Times,serif" font-size="14.00">SharedModule</text>
</g>
<!-- SharedModule&#45;&gt;LocationModule -->
<g id="edge2" class="edge">
<title>SharedModule&#45;&gt;LocationModule</title>
<path fill="none" stroke="black" d="M379.07,-122.11C379.07,-141.34 379.07,-169 379.07,-169 379.07,-169 358.84,-169 358.84,-169"/>
<polygon fill="black" stroke="black" points="358.84,-165.5 348.84,-169 358.84,-172.5 358.84,-165.5"/>
</g>
<!-- TelemetryModule -->
<g id="node4" class="node">
<title>TelemetryModule</title>
<polygon fill="#8dd3c7" stroke="black" points="352.58,-122 349.58,-126 328.58,-126 325.58,-122 235.42,-122 235.42,-86 352.58,-86 352.58,-122"/>
<text text-anchor="middle" x="294" y="-99.8" font-family="Times,serif" font-size="14.00">TelemetryModule</text>
</g>
<!-- TelemetryModule&#45;&gt;LocationModule -->
<g id="edge3" class="edge">
<title>TelemetryModule&#45;&gt;LocationModule</title>
<path fill="none" stroke="black" d="M294,-122.11C294,-122.11 294,-140.99 294,-140.99"/>
<polygon fill="black" stroke="black" points="290.5,-140.99 294,-150.99 297.5,-140.99 290.5,-140.99"/>
</g>
</g>
</svg>
