<?xml version="1.0" encoding="UTF-8" standalone="no"?>
<!DOCTYPE svg PUBLIC "-//W3C//DTD SVG 1.1//EN"
 "http://www.w3.org/Graphics/SVG/1.1/DTD/svg11.dtd">
<!-- Generated by graphviz version 2.47.0 (20210316.0004)
 -->
<!-- Title: dependencies Pages: 1 -->
<svg width="1098pt" height="211pt"
 viewBox="0.00 0.00 1098.00 211.00" xmlns="http://www.w3.org/2000/svg" xmlns:xlink="http://www.w3.org/1999/xlink">
<g id="graph0" class="graph" transform="scale(1 1) rotate(0) translate(4 207)">
<title>dependencies</title>
<polygon fill="white" stroke="transparent" points="-4,4 -4,-207 1094,-207 1094,4 -4,4"/>
<text text-anchor="start" x="524.01" y="-42.4" font-family="Times-12" font-weight="bold" font-size="14.00">Legend</text>
<polygon fill="#ffffb3" stroke="transparent" points="311,-10 311,-30 331,-30 331,-10 311,-10"/>
<text text-anchor="start" x="334.63" y="-15.4" font-family="Times-12" font-size="14.00"> &#160;Declarations</text>
<polygon fill="#8dd3c7" stroke="transparent" points="424,-10 424,-30 444,-30 444,-10 424,-10"/>
<text text-anchor="start" x="447.73" y="-15.4" font-family="Times-12" font-size="14.00"> &#160;Module</text>
<polygon fill="#80b1d3" stroke="transparent" points="510,-10 510,-30 530,-30 530,-10 510,-10"/>
<text text-anchor="start" x="533.78" y="-15.4" font-family="Times-12" font-size="14.00"> &#160;Bootstrap</text>
<polygon fill="#fdb462" stroke="transparent" points="607,-10 607,-30 627,-30 627,-10 607,-10"/>
<text text-anchor="start" x="630.67" y="-15.4" font-family="Times-12" font-size="14.00"> &#160;Providers</text>
<polygon fill="#fb8072" stroke="transparent" points="703,-10 703,-30 723,-30 723,-10 703,-10"/>
<text text-anchor="start" x="726.73" y="-15.4" font-family="Times-12" font-size="14.00"> &#160;Exports</text>
<g id="clust1" class="cluster">
<title>cluster_SsoModule</title>
<polygon fill="none" stroke="black" stroke-dasharray="1,5" points="8,-70 8,-195 1082,-195 1082,-70 8,-70"/>
</g>
<g id="clust2" class="cluster">
<title>cluster_SsoModule_declarations</title>
<polygon fill="none" stroke="black" points="575,-78 575,-130 1074,-130 1074,-78 575,-78"/>
</g>
<g id="clust6" class="cluster">
<title>cluster_SsoModule_imports</title>
<polygon fill="none" stroke="black" points="16,-78 16,-130 567,-130 567,-78 16,-78"/>
</g>
<!-- AuthFailedComponent -->
<g id="node1" class="node">
<title>AuthFailedComponent</title>
<polygon fill="#ffffb3" stroke="black" points="1066.32,-122 921.68,-122 921.68,-86 1066.32,-86 1066.32,-122"/>
<text text-anchor="middle" x="994" y="-99.8" font-family="Times,serif" font-size="14.00">AuthFailedComponent</text>
</g>
<!-- SsoModule -->
<g id="node4" class="node">
<title>SsoModule</title>
<polygon fill="#8dd3c7" stroke="black" points="528.78,-187 525.78,-191 504.78,-191 501.78,-187 449.22,-187 449.22,-151 528.78,-151 528.78,-187"/>
<text text-anchor="middle" x="489" y="-164.8" font-family="Times,serif" font-size="14.00">SsoModule</text>
</g>
<!-- AuthFailedComponent&#45;&gt;SsoModule -->
<g id="edge1" class="edge">
<title>AuthFailedComponent&#45;&gt;SsoModule</title>
<path fill="none" stroke="black" d="M994,-122.29C994,-144.21 994,-178 994,-178 994,-178 539.05,-178 539.05,-178"/>
<polygon fill="black" stroke="black" points="539.05,-174.5 529.05,-178 539.05,-181.5 539.05,-174.5"/>
</g>
<!-- SelectOrgComponent -->
<g id="node2" class="node">
<title>SelectOrgComponent</title>
<polygon fill="#ffffb3" stroke="black" points="903.81,-122 766.19,-122 766.19,-86 903.81,-86 903.81,-122"/>
<text text-anchor="middle" x="835" y="-99.8" font-family="Times,serif" font-size="14.00">SelectOrgComponent</text>
</g>
<!-- SelectOrgComponent&#45;&gt;SsoModule -->
<g id="edge2" class="edge">
<title>SelectOrgComponent&#45;&gt;SsoModule</title>
<path fill="none" stroke="black" d="M835,-122.11C835,-141.34 835,-169 835,-169 835,-169 539.03,-169 539.03,-169"/>
<polygon fill="black" stroke="black" points="539.03,-165.5 529.03,-169 539.03,-172.5 539.03,-165.5"/>
</g>
<!-- UpdateContactComponent -->
<g id="node3" class="node">
<title>UpdateContactComponent</title>
<polygon fill="#ffffb3" stroke="black" points="748.81,-122 583.19,-122 583.19,-86 748.81,-86 748.81,-122"/>
<text text-anchor="middle" x="666" y="-99.8" font-family="Times,serif" font-size="14.00">UpdateContactComponent</text>
</g>
<!-- UpdateContactComponent&#45;&gt;SsoModule -->
<g id="edge3" class="edge">
<title>UpdateContactComponent&#45;&gt;SsoModule</title>
<path fill="none" stroke="black" d="M666,-122.03C666,-138.4 666,-160 666,-160 666,-160 539.16,-160 539.16,-160"/>
<polygon fill="black" stroke="black" points="539.16,-156.5 529.16,-160 539.16,-163.5 539.16,-156.5"/>
</g>
<!-- SharedFeatureModule -->
<g id="node5" class="node">
<title>SharedFeatureModule</title>
<polygon fill="#8dd3c7" stroke="black" points="559.4,-122 556.4,-126 535.4,-126 532.4,-122 418.6,-122 418.6,-86 559.4,-86 559.4,-122"/>
<text text-anchor="middle" x="489" y="-99.8" font-family="Times,serif" font-size="14.00">SharedFeatureModule</text>
</g>
<!-- SharedFeatureModule&#45;&gt;SsoModule -->
<g id="edge4" class="edge">
<title>SharedFeatureModule&#45;&gt;SsoModule</title>
<path fill="none" stroke="black" d="M489,-122.11C489,-122.11 489,-140.99 489,-140.99"/>
<polygon fill="black" stroke="black" points="485.5,-140.99 489,-150.99 492.5,-140.99 485.5,-140.99"/>
</g>
<!-- SharedModule -->
<g id="node6" class="node">
<title>SharedModule</title>
<polygon fill="#8dd3c7" stroke="black" points="401.42,-122 398.42,-126 377.42,-126 374.42,-122 302.58,-122 302.58,-86 401.42,-86 401.42,-122"/>
<text text-anchor="middle" x="352" y="-99.8" font-family="Times,serif" font-size="14.00">SharedModule</text>
</g>
<!-- SharedModule&#45;&gt;SsoModule -->
<g id="edge5" class="edge">
<title>SharedModule&#45;&gt;SsoModule</title>
<path fill="none" stroke="black" d="M352,-122.03C352,-138.4 352,-160 352,-160 352,-160 439.01,-160 439.01,-160"/>
<polygon fill="black" stroke="black" points="439.01,-163.5 449.01,-160 439.01,-156.5 439.01,-163.5"/>
</g>
<!-- SsoRoutingModule -->
<g id="node7" class="node">
<title>SsoRoutingModule</title>
<polygon fill="#8dd3c7" stroke="black" points="284.39,-122 281.39,-126 260.39,-126 257.39,-122 159.61,-122 159.61,-86 284.39,-86 284.39,-122"/>
<text text-anchor="middle" x="222" y="-99.8" font-family="Times,serif" font-size="14.00">SsoRoutingModule</text>
</g>
<!-- SsoRoutingModule&#45;&gt;SsoModule -->
<g id="edge6" class="edge">
<title>SsoRoutingModule&#45;&gt;SsoModule</title>
<path fill="none" stroke="black" d="M222,-122.11C222,-141.34 222,-169 222,-169 222,-169 439.03,-169 439.03,-169"/>
<polygon fill="black" stroke="black" points="439.03,-172.5 449.03,-169 439.03,-165.5 439.03,-172.5"/>
</g>
<!-- TelemetryModule -->
<g id="node8" class="node">
<title>TelemetryModule</title>
<polygon fill="#8dd3c7" stroke="black" points="141.58,-122 138.58,-126 117.58,-126 114.58,-122 24.42,-122 24.42,-86 141.58,-86 141.58,-122"/>
<text text-anchor="middle" x="83" y="-99.8" font-family="Times,serif" font-size="14.00">TelemetryModule</text>
</g>
<!-- TelemetryModule&#45;&gt;SsoModule -->
<g id="edge7" class="edge">
<title>TelemetryModule&#45;&gt;SsoModule</title>
<path fill="none" stroke="black" d="M83,-122.29C83,-144.21 83,-178 83,-178 83,-178 438.96,-178 438.96,-178"/>
<polygon fill="black" stroke="black" points="438.96,-181.5 448.96,-178 438.96,-174.5 438.96,-181.5"/>
</g>
</g>
</svg>
