<?xml version="1.0" encoding="UTF-8" standalone="no"?>
<!DOCTYPE svg PUBLIC "-//W3C//DTD SVG 1.1//EN"
 "http://www.w3.org/Graphics/SVG/1.1/DTD/svg11.dtd">
<!-- Generated by graphviz version 2.47.0 (20210316.0004)
 -->
<!-- Title: dependencies Pages: 1 -->
<svg width="504pt" height="211pt"
 viewBox="0.00 0.00 504.00 211.00" xmlns="http://www.w3.org/2000/svg" xmlns:xlink="http://www.w3.org/1999/xlink">
<g id="graph0" class="graph" transform="scale(1 1) rotate(0) translate(4 207)">
<title>dependencies</title>
<polygon fill="white" stroke="transparent" points="-4,4 -4,-207 500,-207 500,4 -4,4"/>
<text text-anchor="start" x="227.01" y="-42.4" font-family="Times-12" font-weight="bold" font-size="14.00">Legend</text>
<polygon fill="#ffffb3" stroke="transparent" points="14,-10 14,-30 34,-30 34,-10 14,-10"/>
<text text-anchor="start" x="37.63" y="-15.4" font-family="Times-12" font-size="14.00"> &#160;Declarations</text>
<polygon fill="#8dd3c7" stroke="transparent" points="127,-10 127,-30 147,-30 147,-10 127,-10"/>
<text text-anchor="start" x="150.73" y="-15.4" font-family="Times-12" font-size="14.00"> &#160;Module</text>
<polygon fill="#80b1d3" stroke="transparent" points="213,-10 213,-30 233,-30 233,-10 213,-10"/>
<text text-anchor="start" x="236.78" y="-15.4" font-family="Times-12" font-size="14.00"> &#160;Bootstrap</text>
<polygon fill="#fdb462" stroke="transparent" points="310,-10 310,-30 330,-30 330,-10 310,-10"/>
<text text-anchor="start" x="333.67" y="-15.4" font-family="Times-12" font-size="14.00"> &#160;Providers</text>
<polygon fill="#fb8072" stroke="transparent" points="406,-10 406,-30 426,-30 426,-10 406,-10"/>
<text text-anchor="start" x="429.73" y="-15.4" font-family="Times-12" font-size="14.00"> &#160;Exports</text>
<g id="clust1" class="cluster">
<title>cluster_GenericReportsModule</title>
<polygon fill="none" stroke="black" stroke-dasharray="1,5" points="56.5,-70 56.5,-195 439.5,-195 439.5,-70 56.5,-70"/>
</g>
<g id="clust2" class="cluster">
<title>cluster_GenericReportsModule_declarations</title>
<polygon fill="none" stroke="black" points="291.5,-78 291.5,-130 431.5,-130 431.5,-78 291.5,-78"/>
</g>
<g id="clust4" class="cluster">
<title>cluster_GenericReportsModule_imports</title>
<polygon fill="none" stroke="black" points="64.5,-78 64.5,-130 283.5,-130 283.5,-78 64.5,-78"/>
</g>
<!-- ReportsComponent -->
<g id="node1" class="node">
<title>ReportsComponent</title>
<polygon fill="#ffffb3" stroke="black" points="423.88,-122 299.12,-122 299.12,-86 423.88,-86 423.88,-122"/>
<text text-anchor="middle" x="361.5" y="-99.8" font-family="Times,serif" font-size="14.00">ReportsComponent</text>
</g>
<!-- GenericReportsModule -->
<g id="node2" class="node">
<title>GenericReportsModule</title>
<polygon fill="#8dd3c7" stroke="black" points="306.4,-187 303.4,-191 282.4,-191 279.4,-187 158.6,-187 158.6,-151 306.4,-151 306.4,-187"/>
<text text-anchor="middle" x="232.5" y="-164.8" font-family="Times,serif" font-size="14.00">GenericReportsModule</text>
</g>
<!-- ReportsComponent&#45;&gt;GenericReportsModule -->
<g id="edge1" class="edge">
<title>ReportsComponent&#45;&gt;GenericReportsModule</title>
<path fill="none" stroke="black" d="M302.63,-122.11C302.63,-122.11 302.63,-140.99 302.63,-140.99"/>
<polygon fill="black" stroke="black" points="299.13,-140.99 302.63,-150.99 306.13,-140.99 299.13,-140.99"/>
</g>
<!-- CoreModule -->
<g id="node3" class="node">
<title>CoreModule</title>
<polygon fill="#8dd3c7" stroke="black" points="275.76,-122 272.76,-126 251.76,-126 248.76,-122 189.24,-122 189.24,-86 275.76,-86 275.76,-122"/>
<text text-anchor="middle" x="232.5" y="-99.8" font-family="Times,serif" font-size="14.00">CoreModule</text>
</g>
<!-- CoreModule&#45;&gt;GenericReportsModule -->
<g id="edge2" class="edge">
<title>CoreModule&#45;&gt;GenericReportsModule</title>
<path fill="none" stroke="black" d="M232.5,-122.11C232.5,-122.11 232.5,-140.99 232.5,-140.99"/>
<polygon fill="black" stroke="black" points="229,-140.99 232.5,-150.99 236,-140.99 229,-140.99"/>
</g>
<!-- SharedModule -->
<g id="node4" class="node">
<title>SharedModule</title>
<polygon fill="#8dd3c7" stroke="black" points="170.92,-122 167.92,-126 146.92,-126 143.92,-122 72.08,-122 72.08,-86 170.92,-86 170.92,-122"/>
<text text-anchor="middle" x="121.5" y="-99.8" font-family="Times,serif" font-size="14.00">SharedModule</text>
</g>
<!-- SharedModule&#45;&gt;GenericReportsModule -->
<g id="edge3" class="edge">
<title>SharedModule&#45;&gt;GenericReportsModule</title>
<path fill="none" stroke="black" d="M164.76,-122.11C164.76,-122.11 164.76,-140.99 164.76,-140.99"/>
<polygon fill="black" stroke="black" points="161.26,-140.99 164.76,-150.99 168.26,-140.99 161.26,-140.99"/>
</g>
</g>
</svg>
