<?xml version="1.0" encoding="UTF-8" standalone="no"?>
<!DOCTYPE svg PUBLIC "-//W3C//DTD SVG 1.1//EN"
 "http://www.w3.org/Graphics/SVG/1.1/DTD/svg11.dtd">
<!-- Generated by graphviz version 2.47.0 (20210316.0004)
 -->
<!-- Title: dependencies Pages: 1 -->
<svg width="1095pt" height="211pt"
 viewBox="0.00 0.00 1095.00 211.00" xmlns="http://www.w3.org/2000/svg" xmlns:xlink="http://www.w3.org/1999/xlink">
<g id="graph0" class="graph" transform="scale(1 1) rotate(0) translate(4 207)">
<title>dependencies</title>
<polygon fill="white" stroke="transparent" points="-4,4 -4,-207 1091,-207 1091,4 -4,4"/>
<text text-anchor="start" x="522.51" y="-42.4" font-family="Times-12" font-weight="bold" font-size="14.00">Legend</text>
<polygon fill="#ffffb3" stroke="transparent" points="309.5,-10 309.5,-30 329.5,-30 329.5,-10 309.5,-10"/>
<text text-anchor="start" x="333.13" y="-15.4" font-family="Times-12" font-size="14.00"> &#160;Declarations</text>
<polygon fill="#8dd3c7" stroke="transparent" points="422.5,-10 422.5,-30 442.5,-30 442.5,-10 422.5,-10"/>
<text text-anchor="start" x="446.23" y="-15.4" font-family="Times-12" font-size="14.00"> &#160;Module</text>
<polygon fill="#80b1d3" stroke="transparent" points="508.5,-10 508.5,-30 528.5,-30 528.5,-10 508.5,-10"/>
<text text-anchor="start" x="532.28" y="-15.4" font-family="Times-12" font-size="14.00"> &#160;Bootstrap</text>
<polygon fill="#fdb462" stroke="transparent" points="605.5,-10 605.5,-30 625.5,-30 625.5,-10 605.5,-10"/>
<text text-anchor="start" x="629.17" y="-15.4" font-family="Times-12" font-size="14.00"> &#160;Providers</text>
<polygon fill="#fb8072" stroke="transparent" points="701.5,-10 701.5,-30 721.5,-30 721.5,-10 701.5,-10"/>
<text text-anchor="start" x="725.23" y="-15.4" font-family="Times-12" font-size="14.00"> &#160;Exports</text>
<g id="clust1" class="cluster">
<title>cluster_GroupModule</title>
<polygon fill="none" stroke="black" stroke-dasharray="1,5" points="8,-70 8,-195 1079,-195 1079,-70 8,-70"/>
</g>
<g id="clust5" class="cluster">
<title>cluster_GroupModule_imports</title>
<polygon fill="none" stroke="black" points="400,-78 400,-130 1071,-130 1071,-78 400,-78"/>
</g>
<g id="clust2" class="cluster">
<title>cluster_GroupModule_declarations</title>
<polygon fill="none" stroke="black" points="16,-78 16,-130 392,-130 392,-78 16,-78"/>
</g>
<!-- ExploreFtuPopupComponent -->
<g id="node1" class="node">
<title>ExploreFtuPopupComponent</title>
<polygon fill="#ffffb3" stroke="black" points="384.11,-122 203.89,-122 203.89,-86 384.11,-86 384.11,-122"/>
<text text-anchor="middle" x="294" y="-99.8" font-family="Times,serif" font-size="14.00">ExploreFtuPopupComponent</text>
</g>
<!-- GroupModule -->
<g id="node3" class="node">
<title>GroupModule</title>
<polygon fill="#8dd3c7" stroke="black" points="640.82,-187 637.82,-191 616.82,-191 613.82,-187 545.18,-187 545.18,-151 640.82,-151 640.82,-187"/>
<text text-anchor="middle" x="593" y="-164.8" font-family="Times,serif" font-size="14.00">GroupModule</text>
</g>
<!-- ExploreFtuPopupComponent&#45;&gt;GroupModule -->
<g id="edge1" class="edge">
<title>ExploreFtuPopupComponent&#45;&gt;GroupModule</title>
<path fill="none" stroke="black" d="M294,-122.11C294,-141.34 294,-169 294,-169 294,-169 535.29,-169 535.29,-169"/>
<polygon fill="black" stroke="black" points="535.29,-172.5 545.29,-169 535.29,-165.5 535.29,-172.5"/>
</g>
<!-- ExploreGroupComponent -->
<g id="node2" class="node">
<title>ExploreGroupComponent</title>
<polygon fill="#ffffb3" stroke="black" points="185.92,-122 24.08,-122 24.08,-86 185.92,-86 185.92,-122"/>
<text text-anchor="middle" x="105" y="-99.8" font-family="Times,serif" font-size="14.00">ExploreGroupComponent</text>
</g>
<!-- ExploreGroupComponent&#45;&gt;GroupModule -->
<g id="edge2" class="edge">
<title>ExploreGroupComponent&#45;&gt;GroupModule</title>
<path fill="none" stroke="black" d="M105,-122.29C105,-144.21 105,-178 105,-178 105,-178 535.32,-178 535.32,-178"/>
<polygon fill="black" stroke="black" points="535.32,-181.5 545.32,-178 535.32,-174.5 535.32,-181.5"/>
</g>
<!-- CoreModule -->
<g id="node4" class="node">
<title>CoreModule</title>
<polygon fill="#8dd3c7" stroke="black" points="1063.26,-122 1060.26,-126 1039.26,-126 1036.26,-122 976.74,-122 976.74,-86 1063.26,-86 1063.26,-122"/>
<text text-anchor="middle" x="1020" y="-99.8" font-family="Times,serif" font-size="14.00">CoreModule</text>
</g>
<!-- CoreModule&#45;&gt;GroupModule -->
<g id="edge3" class="edge">
<title>CoreModule&#45;&gt;GroupModule</title>
<path fill="none" stroke="black" d="M1020,-122.29C1020,-144.21 1020,-178 1020,-178 1020,-178 650.74,-178 650.74,-178"/>
<polygon fill="black" stroke="black" points="650.74,-174.5 640.74,-178 650.74,-181.5 650.74,-174.5"/>
</g>
<!-- GroupRoutingModule -->
<g id="node5" class="node">
<title>GroupRoutingModule</title>
<polygon fill="#8dd3c7" stroke="black" points="958.44,-122 955.44,-126 934.44,-126 931.44,-122 817.56,-122 817.56,-86 958.44,-86 958.44,-122"/>
<text text-anchor="middle" x="888" y="-99.8" font-family="Times,serif" font-size="14.00">GroupRoutingModule</text>
</g>
<!-- GroupRoutingModule&#45;&gt;GroupModule -->
<g id="edge4" class="edge">
<title>GroupRoutingModule&#45;&gt;GroupModule</title>
<path fill="none" stroke="black" d="M888,-122.11C888,-141.34 888,-169 888,-169 888,-169 650.72,-169 650.72,-169"/>
<polygon fill="black" stroke="black" points="650.72,-165.5 640.72,-169 650.72,-172.5 650.72,-165.5"/>
</g>
<!-- SharedFeatureModule -->
<g id="node6" class="node">
<title>SharedFeatureModule</title>
<polygon fill="#8dd3c7" stroke="black" points="800.4,-122 797.4,-126 776.4,-126 773.4,-122 659.6,-122 659.6,-86 800.4,-86 800.4,-122"/>
<text text-anchor="middle" x="730" y="-99.8" font-family="Times,serif" font-size="14.00">SharedFeatureModule</text>
</g>
<!-- SharedFeatureModule&#45;&gt;GroupModule -->
<g id="edge5" class="edge">
<title>SharedFeatureModule&#45;&gt;GroupModule</title>
<path fill="none" stroke="black" d="M730,-122.03C730,-138.4 730,-160 730,-160 730,-160 650.92,-160 650.92,-160"/>
<polygon fill="black" stroke="black" points="650.92,-156.5 640.92,-160 650.92,-163.5 650.92,-156.5"/>
</g>
<!-- SharedModule -->
<g id="node7" class="node">
<title>SharedModule</title>
<polygon fill="#8dd3c7" stroke="black" points="642.42,-122 639.42,-126 618.42,-126 615.42,-122 543.58,-122 543.58,-86 642.42,-86 642.42,-122"/>
<text text-anchor="middle" x="593" y="-99.8" font-family="Times,serif" font-size="14.00">SharedModule</text>
</g>
<!-- SharedModule&#45;&gt;GroupModule -->
<g id="edge6" class="edge">
<title>SharedModule&#45;&gt;GroupModule</title>
<path fill="none" stroke="black" d="M593,-122.11C593,-122.11 593,-140.99 593,-140.99"/>
<polygon fill="black" stroke="black" points="589.5,-140.99 593,-150.99 596.5,-140.99 589.5,-140.99"/>
</g>
<!-- TelemetryModule -->
<g id="node8" class="node">
<title>TelemetryModule</title>
<polygon fill="#8dd3c7" stroke="black" points="525.58,-122 522.58,-126 501.58,-126 498.58,-122 408.42,-122 408.42,-86 525.58,-86 525.58,-122"/>
<text text-anchor="middle" x="467" y="-99.8" font-family="Times,serif" font-size="14.00">TelemetryModule</text>
</g>
<!-- TelemetryModule&#45;&gt;GroupModule -->
<g id="edge7" class="edge">
<title>TelemetryModule&#45;&gt;GroupModule</title>
<path fill="none" stroke="black" d="M467,-122.03C467,-138.4 467,-160 467,-160 467,-160 535.01,-160 535.01,-160"/>
<polygon fill="black" stroke="black" points="535.01,-163.5 545.01,-160 535.01,-156.5 535.01,-163.5"/>
</g>
</g>
</svg>
