<?xml version="1.0" encoding="UTF-8" standalone="no"?>
<!DOCTYPE svg PUBLIC "-//W3C//DTD SVG 1.1//EN"
 "http://www.w3.org/Graphics/SVG/1.1/DTD/svg11.dtd">
<!-- Generated by graphviz version 2.47.0 (20210316.0004)
 -->
<!-- Title: dependencies Pages: 1 -->
<svg width="918pt" height="211pt"
 viewBox="0.00 0.00 918.00 211.00" xmlns="http://www.w3.org/2000/svg" xmlns:xlink="http://www.w3.org/1999/xlink">
<g id="graph0" class="graph" transform="scale(1 1) rotate(0) translate(4 207)">
<title>dependencies</title>
<polygon fill="white" stroke="transparent" points="-4,4 -4,-207 914,-207 914,4 -4,4"/>
<text text-anchor="start" x="434.01" y="-42.4" font-family="Times-12" font-weight="bold" font-size="14.00">Legend</text>
<polygon fill="#ffffb3" stroke="transparent" points="221,-10 221,-30 241,-30 241,-10 221,-10"/>
<text text-anchor="start" x="244.63" y="-15.4" font-family="Times-12" font-size="14.00"> &#160;Declarations</text>
<polygon fill="#8dd3c7" stroke="transparent" points="334,-10 334,-30 354,-30 354,-10 334,-10"/>
<text text-anchor="start" x="357.73" y="-15.4" font-family="Times-12" font-size="14.00"> &#160;Module</text>
<polygon fill="#80b1d3" stroke="transparent" points="420,-10 420,-30 440,-30 440,-10 420,-10"/>
<text text-anchor="start" x="443.78" y="-15.4" font-family="Times-12" font-size="14.00"> &#160;Bootstrap</text>
<polygon fill="#fdb462" stroke="transparent" points="517,-10 517,-30 537,-30 537,-10 517,-10"/>
<text text-anchor="start" x="540.67" y="-15.4" font-family="Times-12" font-size="14.00"> &#160;Providers</text>
<polygon fill="#fb8072" stroke="transparent" points="613,-10 613,-30 633,-30 633,-10 613,-10"/>
<text text-anchor="start" x="636.73" y="-15.4" font-family="Times-12" font-size="14.00"> &#160;Exports</text>
<g id="clust1" class="cluster">
<title>cluster_DownloadManagerPageModule</title>
<polygon fill="none" stroke="black" stroke-dasharray="1,5" points="8,-70 8,-195 902,-195 902,-70 8,-70"/>
</g>
<g id="clust7" class="cluster">
<title>cluster_DownloadManagerPageModule_imports</title>
<polygon fill="none" stroke="black" points="760,-78 760,-130 894,-130 894,-78 760,-78"/>
</g>
<g id="clust2" class="cluster">
<title>cluster_DownloadManagerPageModule_declarations</title>
<polygon fill="none" stroke="black" points="16,-78 16,-130 752,-130 752,-78 16,-78"/>
</g>
<!-- DownloadManagerPage -->
<g id="node1" class="node">
<title>DownloadManagerPage</title>
<polygon fill="#ffffb3" stroke="black" points="743.78,-122 592.22,-122 592.22,-86 743.78,-86 743.78,-122"/>
<text text-anchor="middle" x="668" y="-99.8" font-family="Times,serif" font-size="14.00">DownloadManagerPage</text>
</g>
<!-- DownloadManagerPageModule -->
<g id="node5" class="node">
<title>DownloadManagerPageModule</title>
<polygon fill="#8dd3c7" stroke="black" points="579.33,-187 576.33,-191 555.33,-191 552.33,-187 384.67,-187 384.67,-151 579.33,-151 579.33,-187"/>
<text text-anchor="middle" x="482" y="-164.8" font-family="Times,serif" font-size="14.00">DownloadManagerPageModule</text>
</g>
<!-- DownloadManagerPage&#45;&gt;DownloadManagerPageModule -->
<g id="edge1" class="edge">
<title>DownloadManagerPage&#45;&gt;DownloadManagerPageModule</title>
<path fill="none" stroke="black" d="M668,-122.02C668,-139.37 668,-163 668,-163 668,-163 589.36,-163 589.36,-163"/>
<polygon fill="black" stroke="black" points="589.36,-159.5 579.36,-163 589.36,-166.5 589.36,-159.5"/>
</g>
<!-- DownloadsHeaderComponent -->
<g id="node2" class="node">
<title>DownloadsHeaderComponent</title>
<polygon fill="#ffffb3" stroke="black" points="574.51,-122 389.49,-122 389.49,-86 574.51,-86 574.51,-122"/>
<text text-anchor="middle" x="482" y="-99.8" font-family="Times,serif" font-size="14.00">DownloadsHeaderComponent</text>
</g>
<!-- DownloadsHeaderComponent&#45;&gt;DownloadManagerPageModule -->
<g id="edge2" class="edge">
<title>DownloadsHeaderComponent&#45;&gt;DownloadManagerPageModule</title>
<path fill="none" stroke="black" d="M482,-122.11C482,-122.11 482,-140.99 482,-140.99"/>
<polygon fill="black" stroke="black" points="478.5,-140.99 482,-150.99 485.5,-140.99 478.5,-140.99"/>
</g>
<!-- DownloadsTabComponent -->
<g id="node3" class="node">
<title>DownloadsTabComponent</title>
<polygon fill="#ffffb3" stroke="black" points="371.36,-122 204.64,-122 204.64,-86 371.36,-86 371.36,-122"/>
<text text-anchor="middle" x="288" y="-99.8" font-family="Times,serif" font-size="14.00">DownloadsTabComponent</text>
</g>
<!-- DownloadsTabComponent&#45;&gt;DownloadManagerPageModule -->
<g id="edge3" class="edge">
<title>DownloadsTabComponent&#45;&gt;DownloadManagerPageModule</title>
<path fill="none" stroke="black" d="M288,-122.02C288,-139.37 288,-163 288,-163 288,-163 374.43,-163 374.43,-163"/>
<polygon fill="black" stroke="black" points="374.43,-166.5 384.43,-163 374.43,-159.5 374.43,-166.5"/>
</g>
<!-- NoDownloadsComponent -->
<g id="node4" class="node">
<title>NoDownloadsComponent</title>
<polygon fill="#ffffb3" stroke="black" points="186.2,-122 23.8,-122 23.8,-86 186.2,-86 186.2,-122"/>
<text text-anchor="middle" x="105" y="-99.8" font-family="Times,serif" font-size="14.00">NoDownloadsComponent</text>
</g>
<!-- NoDownloadsComponent&#45;&gt;DownloadManagerPageModule -->
<g id="edge4" class="edge">
<title>NoDownloadsComponent&#45;&gt;DownloadManagerPageModule</title>
<path fill="none" stroke="black" d="M105,-122.28C105,-143.32 105,-175 105,-175 105,-175 374.42,-175 374.42,-175"/>
<polygon fill="black" stroke="black" points="374.42,-178.5 384.42,-175 374.42,-171.5 374.42,-178.5"/>
</g>
<!-- DirectivesModule -->
<g id="node6" class="node">
<title>DirectivesModule</title>
<polygon fill="#8dd3c7" stroke="black" points="885.58,-122 882.58,-126 861.58,-126 858.58,-122 768.42,-122 768.42,-86 885.58,-86 885.58,-122"/>
<text text-anchor="middle" x="827" y="-99.8" font-family="Times,serif" font-size="14.00">DirectivesModule</text>
</g>
<!-- DirectivesModule&#45;&gt;DownloadManagerPageModule -->
<g id="edge5" class="edge">
<title>DirectivesModule&#45;&gt;DownloadManagerPageModule</title>
<path fill="none" stroke="black" d="M827,-122.28C827,-143.32 827,-175 827,-175 827,-175 589.48,-175 589.48,-175"/>
<polygon fill="black" stroke="black" points="589.48,-171.5 579.48,-175 589.48,-178.5 589.48,-171.5"/>
</g>
</g>
</svg>
