<?xml version="1.0" encoding="UTF-8" standalone="no"?>
<!DOCTYPE svg PUBLIC "-//W3C//DTD SVG 1.1//EN"
 "http://www.w3.org/Graphics/SVG/1.1/DTD/svg11.dtd">
<!-- Generated by graphviz version 2.47.0 (20210316.0004)
 -->
<!-- Title: dependencies Pages: 1 -->
<svg width="504pt" height="211pt"
 viewBox="0.00 0.00 504.00 211.00" xmlns="http://www.w3.org/2000/svg" xmlns:xlink="http://www.w3.org/1999/xlink">
<g id="graph0" class="graph" transform="scale(1 1) rotate(0) translate(4 207)">
<title>dependencies</title>
<polygon fill="white" stroke="transparent" points="-4,4 -4,-207 500,-207 500,4 -4,4"/>
<text text-anchor="start" x="227.01" y="-42.4" font-family="Times-12" font-weight="bold" font-size="14.00">Legend</text>
<polygon fill="#ffffb3" stroke="transparent" points="14,-10 14,-30 34,-30 34,-10 14,-10"/>
<text text-anchor="start" x="37.63" y="-15.4" font-family="Times-12" font-size="14.00"> &#160;Declarations</text>
<polygon fill="#8dd3c7" stroke="transparent" points="127,-10 127,-30 147,-30 147,-10 127,-10"/>
<text text-anchor="start" x="150.73" y="-15.4" font-family="Times-12" font-size="14.00"> &#160;Module</text>
<polygon fill="#80b1d3" stroke="transparent" points="213,-10 213,-30 233,-30 233,-10 213,-10"/>
<text text-anchor="start" x="236.78" y="-15.4" font-family="Times-12" font-size="14.00"> &#160;Bootstrap</text>
<polygon fill="#fdb462" stroke="transparent" points="310,-10 310,-30 330,-30 330,-10 310,-10"/>
<text text-anchor="start" x="333.67" y="-15.4" font-family="Times-12" font-size="14.00"> &#160;Providers</text>
<polygon fill="#fb8072" stroke="transparent" points="406,-10 406,-30 426,-30 426,-10 406,-10"/>
<text text-anchor="start" x="429.73" y="-15.4" font-family="Times-12" font-size="14.00"> &#160;Exports</text>
<g id="clust1" class="cluster">
<title>cluster_PlayerPageModule</title>
<polygon fill="none" stroke="black" stroke-dasharray="1,5" points="88,-70 88,-195 408,-195 408,-70 88,-70"/>
</g>
<g id="clust2" class="cluster">
<title>cluster_PlayerPageModule_declarations</title>
<polygon fill="none" stroke="black" points="306,-78 306,-130 400,-130 400,-78 306,-78"/>
</g>
<g id="clust7" class="cluster">
<title>cluster_PlayerPageModule_providers</title>
<polygon fill="none" stroke="black" points="96,-78 96,-130 298,-130 298,-78 96,-78"/>
</g>
<!-- PlayerPage -->
<g id="node1" class="node">
<title>PlayerPage</title>
<polygon fill="#ffffb3" stroke="black" points="392.47,-122 313.53,-122 313.53,-86 392.47,-86 392.47,-122"/>
<text text-anchor="middle" x="353" y="-99.8" font-family="Times,serif" font-size="14.00">PlayerPage</text>
</g>
<!-- PlayerPageModule -->
<g id="node2" class="node">
<title>PlayerPageModule</title>
<polygon fill="#8dd3c7" stroke="black" points="329.03,-187 326.03,-191 305.03,-191 302.03,-187 206.97,-187 206.97,-151 329.03,-151 329.03,-187"/>
<text text-anchor="middle" x="268" y="-164.8" font-family="Times,serif" font-size="14.00">PlayerPageModule</text>
</g>
<!-- PlayerPage&#45;&gt;PlayerPageModule -->
<g id="edge1" class="edge">
<title>PlayerPage&#45;&gt;PlayerPageModule</title>
<path fill="none" stroke="black" d="M321.39,-122.11C321.39,-122.11 321.39,-140.99 321.39,-140.99"/>
<polygon fill="black" stroke="black" points="317.89,-140.99 321.39,-150.99 324.89,-140.99 317.89,-140.99"/>
</g>
<!-- CanvasPlayerService -->
<g id="node3" class="node">
<title>CanvasPlayerService</title>
<ellipse fill="#fdb462" stroke="black" cx="197" cy="-104" rx="93.17" ry="18"/>
<text text-anchor="middle" x="197" y="-99.8" font-family="Times,serif" font-size="14.00">CanvasPlayerService</text>
</g>
<!-- CanvasPlayerService&#45;&gt;PlayerPageModule -->
<g id="edge2" class="edge">
<title>CanvasPlayerService&#45;&gt;PlayerPageModule</title>
<path fill="none" stroke="black" d="M248.41,-119.08C248.41,-119.08 248.41,-140.76 248.41,-140.76"/>
<polygon fill="black" stroke="black" points="244.91,-140.76 248.41,-150.76 251.91,-140.76 244.91,-140.76"/>
</g>
</g>
</svg>
