<?xml version="1.0" encoding="UTF-8" standalone="no"?>
<!DOCTYPE svg PUBLIC "-//W3C//DTD SVG 1.1//EN"
 "http://www.w3.org/Graphics/SVG/1.1/DTD/svg11.dtd">
<!-- Generated by graphviz version 2.47.0 (20210316.0004)
 -->
<!-- Title: dependencies Pages: 1 -->
<svg width="685pt" height="284pt"
 viewBox="0.00 0.00 685.00 284.00" xmlns="http://www.w3.org/2000/svg" xmlns:xlink="http://www.w3.org/1999/xlink">
<g id="graph0" class="graph" transform="scale(1 1) rotate(0) translate(4 280)">
<title>dependencies</title>
<polygon fill="white" stroke="transparent" points="-4,4 -4,-280 681,-280 681,4 -4,4"/>
<text text-anchor="start" x="317.51" y="-42.4" font-family="Times-12" font-weight="bold" font-size="14.00">Legend</text>
<polygon fill="#ffffb3" stroke="transparent" points="104.5,-10 104.5,-30 124.5,-30 124.5,-10 104.5,-10"/>
<text text-anchor="start" x="128.13" y="-15.4" font-family="Times-12" font-size="14.00"> &#160;Declarations</text>
<polygon fill="#8dd3c7" stroke="transparent" points="217.5,-10 217.5,-30 237.5,-30 237.5,-10 217.5,-10"/>
<text text-anchor="start" x="241.23" y="-15.4" font-family="Times-12" font-size="14.00"> &#160;Module</text>
<polygon fill="#80b1d3" stroke="transparent" points="303.5,-10 303.5,-30 323.5,-30 323.5,-10 303.5,-10"/>
<text text-anchor="start" x="327.28" y="-15.4" font-family="Times-12" font-size="14.00"> &#160;Bootstrap</text>
<polygon fill="#fdb462" stroke="transparent" points="400.5,-10 400.5,-30 420.5,-30 420.5,-10 400.5,-10"/>
<text text-anchor="start" x="424.17" y="-15.4" font-family="Times-12" font-size="14.00"> &#160;Providers</text>
<polygon fill="#fb8072" stroke="transparent" points="496.5,-10 496.5,-30 516.5,-30 516.5,-10 496.5,-10"/>
<text text-anchor="start" x="520.23" y="-15.4" font-family="Times-12" font-size="14.00"> &#160;Exports</text>
<g id="clust1" class="cluster">
<title>cluster_DiscussionModule</title>
<polygon fill="none" stroke="black" stroke-dasharray="1,5" points="8,-70 8,-268 669,-268 669,-70 8,-70"/>
</g>
<g id="clust8" class="cluster">
<title>cluster_DiscussionModule_providers</title>
<polygon fill="none" stroke="black" points="481,-78 481,-130 661,-130 661,-78 481,-78"/>
</g>
<g id="clust2" class="cluster">
<title>cluster_DiscussionModule_declarations</title>
<polygon fill="none" stroke="black" points="138,-78 138,-130 473,-130 473,-78 138,-78"/>
</g>
<g id="clust6" class="cluster">
<title>cluster_DiscussionModule_exports</title>
<polygon fill="none" stroke="black" points="188,-208 188,-260 390,-260 390,-208 188,-208"/>
</g>
<g id="clust5" class="cluster">
<title>cluster_DiscussionModule_imports</title>
<polygon fill="none" stroke="black" points="16,-78 16,-130 130,-130 130,-78 16,-78"/>
</g>
<!-- AccessDiscussionComponent -->
<g id="node1" class="node">
<title>AccessDiscussionComponent</title>
<polygon fill="#ffffb3" stroke="black" points="465.41,-122 282.59,-122 282.59,-86 465.41,-86 465.41,-122"/>
<text text-anchor="middle" x="374" y="-99.8" font-family="Times,serif" font-size="14.00">AccessDiscussionComponent</text>
</g>
<!-- DiscussionModule -->
<g id="node3" class="node">
<title>DiscussionModule</title>
<polygon fill="#8dd3c7" stroke="black" points="349.49,-187 346.49,-191 325.49,-191 322.49,-187 228.51,-187 228.51,-151 349.49,-151 349.49,-187"/>
<text text-anchor="middle" x="289" y="-164.8" font-family="Times,serif" font-size="14.00">DiscussionModule</text>
</g>
<!-- AccessDiscussionComponent&#45;&gt;DiscussionModule -->
<g id="edge1" class="edge">
<title>AccessDiscussionComponent&#45;&gt;DiscussionModule</title>
<path fill="none" stroke="black" d="M316.14,-122.11C316.14,-122.11 316.14,-140.99 316.14,-140.99"/>
<polygon fill="black" stroke="black" points="312.64,-140.99 316.14,-150.99 319.64,-140.99 312.64,-140.99"/>
</g>
<!-- ForumComponent -->
<g id="node2" class="node">
<title>ForumComponent</title>
<polygon fill="#ffffb3" stroke="black" points="264.17,-122 145.83,-122 145.83,-86 264.17,-86 264.17,-122"/>
<text text-anchor="middle" x="205" y="-99.8" font-family="Times,serif" font-size="14.00">ForumComponent</text>
</g>
<!-- ForumComponent&#45;&gt;DiscussionModule -->
<g id="edge2" class="edge">
<title>ForumComponent&#45;&gt;DiscussionModule</title>
<path fill="none" stroke="black" d="M246.42,-122.11C246.42,-122.11 246.42,-140.99 246.42,-140.99"/>
<polygon fill="black" stroke="black" points="242.92,-140.99 246.42,-150.99 249.92,-140.99 242.92,-140.99"/>
</g>
<!-- AccessDiscussionComponent  -->
<g id="node5" class="node">
<title>AccessDiscussionComponent </title>
<polygon fill="#fb8072" stroke="black" points="381.91,-252 196.09,-252 196.09,-216 381.91,-216 381.91,-252"/>
<text text-anchor="middle" x="289" y="-229.8" font-family="Times,serif" font-size="14.00">AccessDiscussionComponent </text>
</g>
<!-- DiscussionModule&#45;&gt;AccessDiscussionComponent  -->
<g id="edge4" class="edge">
<title>DiscussionModule&#45;&gt;AccessDiscussionComponent </title>
<path fill="none" stroke="black" stroke-dasharray="5,2" d="M289,-187.11C289,-187.11 289,-205.99 289,-205.99"/>
<polygon fill="black" stroke="black" points="285.5,-205.99 289,-215.99 292.5,-205.99 285.5,-205.99"/>
</g>
<!-- SharedModule -->
<g id="node4" class="node">
<title>SharedModule</title>
<polygon fill="#8dd3c7" stroke="black" points="122.42,-122 119.42,-126 98.42,-126 95.42,-122 23.58,-122 23.58,-86 122.42,-86 122.42,-122"/>
<text text-anchor="middle" x="73" y="-99.8" font-family="Times,serif" font-size="14.00">SharedModule</text>
</g>
<!-- SharedModule&#45;&gt;DiscussionModule -->
<g id="edge3" class="edge">
<title>SharedModule&#45;&gt;DiscussionModule</title>
<path fill="none" stroke="black" d="M73,-122.11C73,-141.34 73,-169 73,-169 73,-169 218.26,-169 218.26,-169"/>
<polygon fill="black" stroke="black" points="218.26,-172.5 228.26,-169 218.26,-165.5 218.26,-172.5"/>
</g>
<!-- DiscussionService -->
<g id="node6" class="node">
<title>DiscussionService</title>
<ellipse fill="#fdb462" stroke="black" cx="571" cy="-104" rx="82.24" ry="18"/>
<text text-anchor="middle" x="571" y="-99.8" font-family="Times,serif" font-size="14.00">DiscussionService</text>
</g>
<!-- DiscussionService&#45;&gt;DiscussionModule -->
<g id="edge5" class="edge">
<title>DiscussionService&#45;&gt;DiscussionModule</title>
<path fill="none" stroke="black" d="M571,-122.11C571,-141.34 571,-169 571,-169 571,-169 359.5,-169 359.5,-169"/>
<polygon fill="black" stroke="black" points="359.5,-165.5 349.5,-169 359.5,-172.5 359.5,-165.5"/>
</g>
</g>
</svg>
