<?xml version="1.0" encoding="UTF-8" standalone="no"?>
<!DOCTYPE svg PUBLIC "-//W3C//DTD SVG 1.1//EN"
 "http://www.w3.org/Graphics/SVG/1.1/DTD/svg11.dtd">
<!-- Generated by graphviz version 2.47.0 (20210316.0004)
 -->
<!-- Title: dependencies Pages: 1 -->
<svg width="1378pt" height="211pt"
 viewBox="0.00 0.00 1378.00 211.00" xmlns="http://www.w3.org/2000/svg" xmlns:xlink="http://www.w3.org/1999/xlink">
<g id="graph0" class="graph" transform="scale(1 1) rotate(0) translate(4 207)">
<title>dependencies</title>
<polygon fill="white" stroke="transparent" points="-4,4 -4,-207 1374,-207 1374,4 -4,4"/>
<text text-anchor="start" x="664.01" y="-42.4" font-family="Times-12" font-weight="bold" font-size="14.00">Legend</text>
<polygon fill="#ffffb3" stroke="transparent" points="451,-10 451,-30 471,-30 471,-10 451,-10"/>
<text text-anchor="start" x="474.63" y="-15.4" font-family="Times-12" font-size="14.00"> &#160;Declarations</text>
<polygon fill="#8dd3c7" stroke="transparent" points="564,-10 564,-30 584,-30 584,-10 564,-10"/>
<text text-anchor="start" x="587.73" y="-15.4" font-family="Times-12" font-size="14.00"> &#160;Module</text>
<polygon fill="#80b1d3" stroke="transparent" points="650,-10 650,-30 670,-30 670,-10 650,-10"/>
<text text-anchor="start" x="673.78" y="-15.4" font-family="Times-12" font-size="14.00"> &#160;Bootstrap</text>
<polygon fill="#fdb462" stroke="transparent" points="747,-10 747,-30 767,-30 767,-10 747,-10"/>
<text text-anchor="start" x="770.67" y="-15.4" font-family="Times-12" font-size="14.00"> &#160;Providers</text>
<polygon fill="#fb8072" stroke="transparent" points="843,-10 843,-30 863,-30 863,-10 843,-10"/>
<text text-anchor="start" x="866.73" y="-15.4" font-family="Times-12" font-size="14.00"> &#160;Exports</text>
<g id="clust1" class="cluster">
<title>cluster_DialCodeSearchModule</title>
<polygon fill="none" stroke="black" stroke-dasharray="1,5" points="8,-70 8,-195 1362,-195 1362,-70 8,-70"/>
</g>
<g id="clust2" class="cluster">
<title>cluster_DialCodeSearchModule_declarations</title>
<polygon fill="none" stroke="black" points="903,-78 903,-130 1354,-130 1354,-78 903,-78"/>
</g>
<g id="clust6" class="cluster">
<title>cluster_DialCodeSearchModule_imports</title>
<polygon fill="none" stroke="black" points="16,-78 16,-130 895,-130 895,-78 16,-78"/>
</g>
<!-- DialCodeCardComponent -->
<g id="node1" class="node">
<title>DialCodeCardComponent</title>
<polygon fill="#ffffb3" stroke="black" points="1346.2,-122 1183.8,-122 1183.8,-86 1346.2,-86 1346.2,-122"/>
<text text-anchor="middle" x="1265" y="-99.8" font-family="Times,serif" font-size="14.00">DialCodeCardComponent</text>
</g>
<!-- DialCodeSearchModule -->
<g id="node4" class="node">
<title>DialCodeSearchModule</title>
<polygon fill="#8dd3c7" stroke="black" points="759.79,-187 756.79,-191 735.79,-191 732.79,-187 608.21,-187 608.21,-151 759.79,-151 759.79,-187"/>
<text text-anchor="middle" x="684" y="-164.8" font-family="Times,serif" font-size="14.00">DialCodeSearchModule</text>
</g>
<!-- DialCodeCardComponent&#45;&gt;DialCodeSearchModule -->
<g id="edge1" class="edge">
<title>DialCodeCardComponent&#45;&gt;DialCodeSearchModule</title>
<path fill="none" stroke="black" d="M1265,-122.01C1265,-144.49 1265,-180 1265,-180 1265,-180 769.66,-180 769.66,-180"/>
<polygon fill="black" stroke="black" points="769.66,-176.5 759.66,-180 769.66,-183.5 769.66,-176.5"/>
</g>
<!-- DialCodeComponent -->
<g id="node2" class="node">
<title>DialCodeComponent</title>
<polygon fill="#ffffb3" stroke="black" points="1165.49,-122 1030.51,-122 1030.51,-86 1165.49,-86 1165.49,-122"/>
<text text-anchor="middle" x="1098" y="-99.8" font-family="Times,serif" font-size="14.00">DialCodeComponent</text>
</g>
<!-- DialCodeComponent&#45;&gt;DialCodeSearchModule -->
<g id="edge2" class="edge">
<title>DialCodeComponent&#45;&gt;DialCodeSearchModule</title>
<path fill="none" stroke="black" d="M1098,-122.13C1098,-142.57 1098,-173 1098,-173 1098,-173 769.93,-173 769.93,-173"/>
<polygon fill="black" stroke="black" points="769.93,-169.5 759.93,-173 769.93,-176.5 769.93,-169.5"/>
</g>
<!-- GetComponent -->
<g id="node3" class="node">
<title>GetComponent</title>
<polygon fill="#ffffb3" stroke="black" points="1012.55,-122 911.45,-122 911.45,-86 1012.55,-86 1012.55,-122"/>
<text text-anchor="middle" x="962" y="-99.8" font-family="Times,serif" font-size="14.00">GetComponent</text>
</g>
<!-- GetComponent&#45;&gt;DialCodeSearchModule -->
<g id="edge3" class="edge">
<title>GetComponent&#45;&gt;DialCodeSearchModule</title>
<path fill="none" stroke="black" d="M962,-122.27C962,-140.56 962,-166 962,-166 962,-166 769.96,-166 769.96,-166"/>
<polygon fill="black" stroke="black" points="769.96,-162.5 759.96,-166 769.96,-169.5 769.96,-162.5"/>
</g>
<!-- CoreModule -->
<g id="node5" class="node">
<title>CoreModule</title>
<polygon fill="#8dd3c7" stroke="black" points="887.26,-122 884.26,-126 863.26,-126 860.26,-122 800.74,-122 800.74,-86 887.26,-86 887.26,-122"/>
<text text-anchor="middle" x="844" y="-99.8" font-family="Times,serif" font-size="14.00">CoreModule</text>
</g>
<!-- CoreModule&#45;&gt;DialCodeSearchModule -->
<g id="edge4" class="edge">
<title>CoreModule&#45;&gt;DialCodeSearchModule</title>
<path fill="none" stroke="black" d="M844,-122.01C844,-138.05 844,-159 844,-159 844,-159 769.78,-159 769.78,-159"/>
<polygon fill="black" stroke="black" points="769.78,-155.5 759.78,-159 769.78,-162.5 769.78,-155.5"/>
</g>
<!-- DialCodeSearchRoutingModule -->
<g id="node6" class="node">
<title>DialCodeSearchRoutingModule</title>
<polygon fill="#8dd3c7" stroke="black" points="782.41,-122 779.41,-126 758.41,-126 755.41,-122 585.59,-122 585.59,-86 782.41,-86 782.41,-122"/>
<text text-anchor="middle" x="684" y="-99.8" font-family="Times,serif" font-size="14.00">DialCodeSearchRoutingModule</text>
</g>
<!-- DialCodeSearchRoutingModule&#45;&gt;DialCodeSearchModule -->
<g id="edge5" class="edge">
<title>DialCodeSearchRoutingModule&#45;&gt;DialCodeSearchModule</title>
<path fill="none" stroke="black" d="M684,-122.11C684,-122.11 684,-140.99 684,-140.99"/>
<polygon fill="black" stroke="black" points="680.5,-140.99 684,-150.99 687.5,-140.99 680.5,-140.99"/>
</g>
<!-- PlayerHelperModule -->
<g id="node7" class="node">
<title>PlayerHelperModule</title>
<polygon fill="#8dd3c7" stroke="black" points="567.9,-122 564.9,-126 543.9,-126 540.9,-122 434.1,-122 434.1,-86 567.9,-86 567.9,-122"/>
<text text-anchor="middle" x="501" y="-99.8" font-family="Times,serif" font-size="14.00">PlayerHelperModule</text>
</g>
<!-- PlayerHelperModule&#45;&gt;DialCodeSearchModule -->
<g id="edge6" class="edge">
<title>PlayerHelperModule&#45;&gt;DialCodeSearchModule</title>
<path fill="none" stroke="black" d="M501,-122.01C501,-138.05 501,-159 501,-159 501,-159 598.25,-159 598.25,-159"/>
<polygon fill="black" stroke="black" points="598.25,-162.5 608.25,-159 598.25,-155.5 598.25,-162.5"/>
</g>
<!-- SharedFeatureModule -->
<g id="node8" class="node">
<title>SharedFeatureModule</title>
<polygon fill="#8dd3c7" stroke="black" points="416.4,-122 413.4,-126 392.4,-126 389.4,-122 275.6,-122 275.6,-86 416.4,-86 416.4,-122"/>
<text text-anchor="middle" x="346" y="-99.8" font-family="Times,serif" font-size="14.00">SharedFeatureModule</text>
</g>
<!-- SharedFeatureModule&#45;&gt;DialCodeSearchModule -->
<g id="edge7" class="edge">
<title>SharedFeatureModule&#45;&gt;DialCodeSearchModule</title>
<path fill="none" stroke="black" d="M346,-122.27C346,-140.56 346,-166 346,-166 346,-166 598.15,-166 598.15,-166"/>
<polygon fill="black" stroke="black" points="598.15,-169.5 608.15,-166 598.15,-162.5 598.15,-169.5"/>
</g>
<!-- SharedModule -->
<g id="node9" class="node">
<title>SharedModule</title>
<polygon fill="#8dd3c7" stroke="black" points="258.42,-122 255.42,-126 234.42,-126 231.42,-122 159.58,-122 159.58,-86 258.42,-86 258.42,-122"/>
<text text-anchor="middle" x="209" y="-99.8" font-family="Times,serif" font-size="14.00">SharedModule</text>
</g>
<!-- SharedModule&#45;&gt;DialCodeSearchModule -->
<g id="edge8" class="edge">
<title>SharedModule&#45;&gt;DialCodeSearchModule</title>
<path fill="none" stroke="black" d="M209,-122.13C209,-142.57 209,-173 209,-173 209,-173 598.21,-173 598.21,-173"/>
<polygon fill="black" stroke="black" points="598.21,-176.5 608.21,-173 598.21,-169.5 598.21,-176.5"/>
</g>
<!-- TelemetryModule -->
<g id="node10" class="node">
<title>TelemetryModule</title>
<polygon fill="#8dd3c7" stroke="black" points="141.58,-122 138.58,-126 117.58,-126 114.58,-122 24.42,-122 24.42,-86 141.58,-86 141.58,-122"/>
<text text-anchor="middle" x="83" y="-99.8" font-family="Times,serif" font-size="14.00">TelemetryModule</text>
</g>
<!-- TelemetryModule&#45;&gt;DialCodeSearchModule -->
<g id="edge9" class="edge">
<title>TelemetryModule&#45;&gt;DialCodeSearchModule</title>
<path fill="none" stroke="black" d="M83,-122.01C83,-144.49 83,-180 83,-180 83,-180 598.19,-180 598.19,-180"/>
<polygon fill="black" stroke="black" points="598.19,-183.5 608.19,-180 598.19,-176.5 598.19,-183.5"/>
</g>
</g>
</svg>
