<?xml version="1.0" encoding="UTF-8" standalone="no"?>
<!DOCTYPE svg PUBLIC "-//W3C//DTD SVG 1.1//EN"
 "http://www.w3.org/Graphics/SVG/1.1/DTD/svg11.dtd">
<!-- Generated by graphviz version 2.47.0 (20210316.0004)
 -->
<!-- Title: dependencies Pages: 1 -->
<svg width="504pt" height="284pt"
 viewBox="0.00 0.00 504.00 284.00" xmlns="http://www.w3.org/2000/svg" xmlns:xlink="http://www.w3.org/1999/xlink">
<g id="graph0" class="graph" transform="scale(1 1) rotate(0) translate(4 280)">
<title>dependencies</title>
<polygon fill="white" stroke="transparent" points="-4,4 -4,-280 500,-280 500,4 -4,4"/>
<text text-anchor="start" x="227.01" y="-42.4" font-family="Times-12" font-weight="bold" font-size="14.00">Legend</text>
<polygon fill="#ffffb3" stroke="transparent" points="14,-10 14,-30 34,-30 34,-10 14,-10"/>
<text text-anchor="start" x="37.63" y="-15.4" font-family="Times-12" font-size="14.00"> &#160;Declarations</text>
<polygon fill="#8dd3c7" stroke="transparent" points="127,-10 127,-30 147,-30 147,-10 127,-10"/>
<text text-anchor="start" x="150.73" y="-15.4" font-family="Times-12" font-size="14.00"> &#160;Module</text>
<polygon fill="#80b1d3" stroke="transparent" points="213,-10 213,-30 233,-30 233,-10 213,-10"/>
<text text-anchor="start" x="236.78" y="-15.4" font-family="Times-12" font-size="14.00"> &#160;Bootstrap</text>
<polygon fill="#fdb462" stroke="transparent" points="310,-10 310,-30 330,-30 330,-10 310,-10"/>
<text text-anchor="start" x="333.67" y="-15.4" font-family="Times-12" font-size="14.00"> &#160;Providers</text>
<polygon fill="#fb8072" stroke="transparent" points="406,-10 406,-30 426,-30 426,-10 406,-10"/>
<text text-anchor="start" x="429.73" y="-15.4" font-family="Times-12" font-size="14.00"> &#160;Exports</text>
<g id="clust1" class="cluster">
<title>cluster_CreateEditGroupPageModule</title>
<polygon fill="none" stroke="black" stroke-dasharray="1,5" points="92,-70 92,-268 404,-268 404,-70 92,-70"/>
</g>
<g id="clust5" class="cluster">
<title>cluster_CreateEditGroupPageModule_exports</title>
<polygon fill="none" stroke="black" points="169,-208 169,-260 327,-260 327,-208 169,-208"/>
</g>
<g id="clust4" class="cluster">
<title>cluster_CreateEditGroupPageModule_imports</title>
<polygon fill="none" stroke="black" points="262,-78 262,-130 396,-130 396,-78 262,-78"/>
</g>
<g id="clust2" class="cluster">
<title>cluster_CreateEditGroupPageModule_declarations</title>
<polygon fill="none" stroke="black" points="100,-78 100,-130 254,-130 254,-78 100,-78"/>
</g>
<!-- CreateEditGroupPage -->
<g id="node1" class="node">
<title>CreateEditGroupPage</title>
<polygon fill="#ffffb3" stroke="black" points="246.34,-122 107.66,-122 107.66,-86 246.34,-86 246.34,-122"/>
<text text-anchor="middle" x="177" y="-99.8" font-family="Times,serif" font-size="14.00">CreateEditGroupPage</text>
</g>
<!-- CreateEditGroupPageModule -->
<g id="node2" class="node">
<title>CreateEditGroupPageModule</title>
<polygon fill="#8dd3c7" stroke="black" points="339.39,-187 336.39,-191 315.39,-191 312.39,-187 156.61,-187 156.61,-151 339.39,-151 339.39,-187"/>
<text text-anchor="middle" x="248" y="-164.8" font-family="Times,serif" font-size="14.00">CreateEditGroupPageModule</text>
</g>
<!-- CreateEditGroupPage&#45;&gt;CreateEditGroupPageModule -->
<g id="edge1" class="edge">
<title>CreateEditGroupPage&#45;&gt;CreateEditGroupPageModule</title>
<path fill="none" stroke="black" d="M201.61,-122.11C201.61,-122.11 201.61,-140.99 201.61,-140.99"/>
<polygon fill="black" stroke="black" points="198.11,-140.99 201.61,-150.99 205.11,-140.99 198.11,-140.99"/>
</g>
<!-- CreateEditGroupPage  -->
<g id="node4" class="node">
<title>CreateEditGroupPage </title>
<polygon fill="#fb8072" stroke="black" points="319.34,-252 176.66,-252 176.66,-216 319.34,-216 319.34,-252"/>
<text text-anchor="middle" x="248" y="-229.8" font-family="Times,serif" font-size="14.00">CreateEditGroupPage </text>
</g>
<!-- CreateEditGroupPageModule&#45;&gt;CreateEditGroupPage  -->
<g id="edge3" class="edge">
<title>CreateEditGroupPageModule&#45;&gt;CreateEditGroupPage </title>
<path fill="none" stroke="black" stroke-dasharray="5,2" d="M248,-187.11C248,-187.11 248,-205.99 248,-205.99"/>
<polygon fill="black" stroke="black" points="244.5,-205.99 248,-215.99 251.5,-205.99 244.5,-205.99"/>
</g>
<!-- DirectivesModule -->
<g id="node3" class="node">
<title>DirectivesModule</title>
<polygon fill="#8dd3c7" stroke="black" points="387.58,-122 384.58,-126 363.58,-126 360.58,-122 270.42,-122 270.42,-86 387.58,-86 387.58,-122"/>
<text text-anchor="middle" x="329" y="-99.8" font-family="Times,serif" font-size="14.00">DirectivesModule</text>
</g>
<!-- DirectivesModule&#45;&gt;CreateEditGroupPageModule -->
<g id="edge2" class="edge">
<title>DirectivesModule&#45;&gt;CreateEditGroupPageModule</title>
<path fill="none" stroke="black" d="M304.83,-122.11C304.83,-122.11 304.83,-140.99 304.83,-140.99"/>
<polygon fill="black" stroke="black" points="301.33,-140.99 304.83,-150.99 308.33,-140.99 301.33,-140.99"/>
</g>
</g>
</svg>
