<?xml version="1.0" encoding="UTF-8" standalone="no"?>
<!DOCTYPE svg PUBLIC "-//W3C//DTD SVG 1.1//EN"
 "http://www.w3.org/Graphics/SVG/1.1/DTD/svg11.dtd">
<!-- Generated by graphviz version 2.47.0 (20210316.0004)
 -->
<!-- Title: dependencies Pages: 1 -->
<svg width="10308pt" height="284pt"
 viewBox="0.00 0.00 10308.00 284.00" xmlns="http://www.w3.org/2000/svg" xmlns:xlink="http://www.w3.org/1999/xlink">
<g id="graph0" class="graph" transform="scale(1 1) rotate(0) translate(4 280)">
<title>dependencies</title>
<polygon fill="white" stroke="transparent" points="-4,4 -4,-280 10304,-280 10304,4 -4,4"/>
<text text-anchor="start" x="5129.01" y="-42.4" font-family="Times-12" font-weight="bold" font-size="14.00">Legend</text>
<polygon fill="#ffffb3" stroke="transparent" points="4916,-10 4916,-30 4936,-30 4936,-10 4916,-10"/>
<text text-anchor="start" x="4939.63" y="-15.4" font-family="Times-12" font-size="14.00"> &#160;Declarations</text>
<polygon fill="#8dd3c7" stroke="transparent" points="5029,-10 5029,-30 5049,-30 5049,-10 5029,-10"/>
<text text-anchor="start" x="5052.73" y="-15.4" font-family="Times-12" font-size="14.00"> &#160;Module</text>
<polygon fill="#80b1d3" stroke="transparent" points="5115,-10 5115,-30 5135,-30 5135,-10 5115,-10"/>
<text text-anchor="start" x="5138.78" y="-15.4" font-family="Times-12" font-size="14.00"> &#160;Bootstrap</text>
<polygon fill="#fdb462" stroke="transparent" points="5212,-10 5212,-30 5232,-30 5232,-10 5212,-10"/>
<text text-anchor="start" x="5235.67" y="-15.4" font-family="Times-12" font-size="14.00"> &#160;Providers</text>
<polygon fill="#fb8072" stroke="transparent" points="5308,-10 5308,-30 5328,-30 5328,-10 5308,-10"/>
<text text-anchor="start" x="5331.73" y="-15.4" font-family="Times-12" font-size="14.00"> &#160;Exports</text>
<g id="clust1" class="cluster">
<title>cluster_AppModule</title>
<polygon fill="none" stroke="black" stroke-dasharray="1,5" points="8,-70 8,-268 10292,-268 10292,-70 8,-70"/>
</g>
<g id="clust4" class="cluster">
<title>cluster_AppModule_imports</title>
<polygon fill="none" stroke="black" points="9093,-78 9093,-130 10284,-130 10284,-78 9093,-78"/>
</g>
<g id="clust2" class="cluster">
<title>cluster_AppModule_declarations</title>
<polygon fill="none" stroke="black" points="8963,-78 8963,-130 9085,-130 9085,-78 8963,-78"/>
</g>
<g id="clust6" class="cluster">
<title>cluster_AppModule_bootstrap</title>
<polygon fill="none" stroke="black" points="5579,-208 5579,-260 5703,-260 5703,-208 5579,-208"/>
</g>
<g id="clust7" class="cluster">
<title>cluster_AppModule_providers</title>
<polygon fill="none" stroke="black" points="16,-78 16,-130 8955,-130 8955,-78 16,-78"/>
</g>
<!-- AppComponent -->
<g id="node1" class="node">
<title>AppComponent</title>
<polygon fill="#ffffb3" stroke="black" points="9076.94,-122 8971.06,-122 8971.06,-86 9076.94,-86 9076.94,-122"/>
<text text-anchor="middle" x="9024" y="-99.8" font-family="Times,serif" font-size="14.00">AppComponent</text>
</g>
<!-- AppModule -->
<g id="node2" class="node">
<title>AppModule</title>
<polygon fill="#8dd3c7" stroke="black" points="5682.66,-187 5679.66,-191 5658.66,-191 5655.66,-187 5599.34,-187 5599.34,-151 5682.66,-151 5682.66,-187"/>
<text text-anchor="middle" x="5641" y="-164.8" font-family="Times,serif" font-size="14.00">AppModule</text>
</g>
<!-- AppComponent&#45;&gt;AppModule -->
<g id="edge1" class="edge">
<title>AppComponent&#45;&gt;AppModule</title>
<path fill="none" stroke="black" d="M9024,-122.28C9024,-143.32 9024,-175 9024,-175 9024,-175 5692.86,-175 5692.86,-175"/>
<polygon fill="black" stroke="black" points="5692.86,-171.5 5682.86,-175 5692.86,-178.5 5692.86,-171.5"/>
</g>
<!-- AppComponent  -->
<g id="node10" class="node">
<title>AppComponent </title>
<polygon fill="#80b1d3" stroke="black" points="5695.44,-252 5586.56,-252 5586.56,-216 5695.44,-216 5695.44,-252"/>
<text text-anchor="middle" x="5641" y="-229.8" font-family="Times,serif" font-size="14.00">AppComponent </text>
</g>
<!-- AppModule&#45;&gt;AppComponent  -->
<g id="edge9" class="edge">
<title>AppModule&#45;&gt;AppComponent </title>
<path fill="none" stroke="black" stroke-dasharray="1,5" d="M5641,-187.11C5641,-187.11 5641,-205.99 5641,-205.99"/>
<polygon fill="black" stroke="black" points="5637.5,-205.99 5641,-215.99 5644.5,-205.99 5637.5,-205.99"/>
</g>
<!-- AppRoutingModule -->
<g id="node3" class="node">
<title>AppRoutingModule</title>
<polygon fill="#8dd3c7" stroke="black" points="10276.27,-122 10273.27,-126 10252.27,-126 10249.27,-122 10147.73,-122 10147.73,-86 10276.27,-86 10276.27,-122"/>
<text text-anchor="middle" x="10212" y="-99.8" font-family="Times,serif" font-size="14.00">AppRoutingModule</text>
</g>
<!-- AppRoutingModule&#45;&gt;AppModule -->
<g id="edge2" class="edge">
<title>AppRoutingModule&#45;&gt;AppModule</title>
<path fill="none" stroke="black" d="M10212,-122.2C10212,-146.36 10212,-186 10212,-186 10212,-186 5692.98,-186 5692.98,-186"/>
<polygon fill="black" stroke="black" points="5692.98,-182.5 5682.98,-186 5692.98,-189.5 5692.98,-182.5"/>
</g>
<!-- CoreModule -->
<g id="node4" class="node">
<title>CoreModule</title>
<polygon fill="#8dd3c7" stroke="black" points="10129.26,-122 10126.26,-126 10105.26,-126 10102.26,-122 10042.74,-122 10042.74,-86 10129.26,-86 10129.26,-122"/>
<text text-anchor="middle" x="10086" y="-99.8" font-family="Times,serif" font-size="14.00">CoreModule</text>
</g>
<!-- CoreModule&#45;&gt;AppModule -->
<g id="edge3" class="edge">
<title>CoreModule&#45;&gt;AppModule</title>
<path fill="none" stroke="black" d="M10086,-122.15C10086,-145.76 10086,-184 10086,-184 10086,-184 5692.86,-184 5692.86,-184"/>
<polygon fill="black" stroke="black" points="5692.86,-180.5 5682.86,-184 5692.86,-187.5 5692.86,-180.5"/>
</g>
<!-- DirectivesModule -->
<g id="node5" class="node">
<title>DirectivesModule</title>
<polygon fill="#8dd3c7" stroke="black" points="10024.58,-122 10021.58,-126 10000.58,-126 9997.58,-122 9907.42,-122 9907.42,-86 10024.58,-86 10024.58,-122"/>
<text text-anchor="middle" x="9966" y="-99.8" font-family="Times,serif" font-size="14.00">DirectivesModule</text>
</g>
<!-- DirectivesModule&#45;&gt;AppModule -->
<g id="edge4" class="edge">
<title>DirectivesModule&#45;&gt;AppModule</title>
<path fill="none" stroke="black" d="M9966,-122.32C9966,-145.66 9966,-183 9966,-183 9966,-183 5692.76,-183 5692.76,-183"/>
<polygon fill="black" stroke="black" points="5692.76,-179.5 5682.76,-183 5692.76,-186.5 5692.76,-179.5"/>
</g>
<!-- PageFilterOptionsPageModule -->
<g id="node6" class="node">
<title>PageFilterOptionsPageModule</title>
<polygon fill="#8dd3c7" stroke="black" points="9889.14,-122 9886.14,-126 9865.14,-126 9862.14,-122 9700.86,-122 9700.86,-86 9889.14,-86 9889.14,-122"/>
<text text-anchor="middle" x="9795" y="-99.8" font-family="Times,serif" font-size="14.00">PageFilterOptionsPageModule</text>
</g>
<!-- PageFilterOptionsPageModule&#45;&gt;AppModule -->
<g id="edge5" class="edge">
<title>PageFilterOptionsPageModule&#45;&gt;AppModule</title>
<path fill="none" stroke="black" d="M9795,-122.25C9795,-145.02 9795,-181 9795,-181 9795,-181 5692.79,-181 5692.79,-181"/>
<polygon fill="black" stroke="black" points="5692.79,-177.5 5682.79,-181 5692.79,-184.5 5692.79,-177.5"/>
</g>
<!-- PageFilterPageModule -->
<g id="node7" class="node">
<title>PageFilterPageModule</title>
<polygon fill="#8dd3c7" stroke="black" points="9683.3,-122 9680.3,-126 9659.3,-126 9656.3,-122 9538.7,-122 9538.7,-86 9683.3,-86 9683.3,-122"/>
<text text-anchor="middle" x="9611" y="-99.8" font-family="Times,serif" font-size="14.00">PageFilterPageModule</text>
</g>
<!-- PageFilterPageModule&#45;&gt;AppModule -->
<g id="edge6" class="edge">
<title>PageFilterPageModule&#45;&gt;AppModule</title>
<path fill="none" stroke="black" d="M9611,-122.01C9611,-144.49 9611,-180 9611,-180 9611,-180 5692.9,-180 5692.9,-180"/>
<polygon fill="black" stroke="black" points="5692.9,-176.5 5682.9,-180 5692.9,-183.5 5692.9,-176.5"/>
</g>
<!-- TermsAndConditionsPageModule -->
<g id="node8" class="node">
<title>TermsAndConditionsPageModule</title>
<polygon fill="#8dd3c7" stroke="black" points="9521.08,-122 9518.08,-126 9497.08,-126 9494.08,-122 9312.92,-122 9312.92,-86 9521.08,-86 9521.08,-122"/>
<text text-anchor="middle" x="9417" y="-99.8" font-family="Times,serif" font-size="14.00">TermsAndConditionsPageModule</text>
</g>
<!-- TermsAndConditionsPageModule&#45;&gt;AppModule -->
<g id="edge7" class="edge">
<title>TermsAndConditionsPageModule&#45;&gt;AppModule</title>
<path fill="none" stroke="black" d="M9417,-122.29C9417,-144.21 9417,-178 9417,-178 9417,-178 5692.76,-178 5692.76,-178"/>
<polygon fill="black" stroke="black" points="5692.76,-174.5 5682.76,-178 5692.76,-181.5 5692.76,-174.5"/>
</g>
<!-- UserTypeSelectionPageModule -->
<g id="node9" class="node">
<title>UserTypeSelectionPageModule</title>
<polygon fill="#8dd3c7" stroke="black" points="9295.05,-122 9292.05,-126 9271.05,-126 9268.05,-122 9100.95,-122 9100.95,-86 9295.05,-86 9295.05,-122"/>
<text text-anchor="middle" x="9198" y="-99.8" font-family="Times,serif" font-size="14.00">UserTypeSelectionPageModule</text>
</g>
<!-- UserTypeSelectionPageModule&#45;&gt;AppModule -->
<g id="edge8" class="edge">
<title>UserTypeSelectionPageModule&#45;&gt;AppModule</title>
<path fill="none" stroke="black" d="M9198,-122.04C9198,-143.66 9198,-177 9198,-177 9198,-177 5692.8,-177 5692.8,-177"/>
<polygon fill="black" stroke="black" points="5692.8,-173.5 5682.8,-177 5692.8,-180.5 5692.8,-173.5"/>
</g>
<!-- AndroidPermissionsService -->
<g id="node11" class="node">
<title>AndroidPermissionsService</title>
<ellipse fill="#fdb462" stroke="black" cx="8828" cy="-104" rx="118.7" ry="18"/>
<text text-anchor="middle" x="8828" y="-99.8" font-family="Times,serif" font-size="14.00">AndroidPermissionsService</text>
</g>
<!-- AndroidPermissionsService&#45;&gt;AppModule -->
<g id="edge10" class="edge">
<title>AndroidPermissionsService&#45;&gt;AppModule</title>
<path fill="none" stroke="black" d="M8828,-122.03C8828,-142.77 8828,-174 8828,-174 8828,-174 5692.75,-174 5692.75,-174"/>
<polygon fill="black" stroke="black" points="5692.75,-170.5 5682.75,-174 5692.75,-177.5 5692.75,-170.5"/>
</g>
<!-- AppGlobalService -->
<g id="node12" class="node">
<title>AppGlobalService</title>
<ellipse fill="#fdb462" stroke="black" cx="8608" cy="-104" rx="82.81" ry="18"/>
<text text-anchor="middle" x="8608" y="-99.8" font-family="Times,serif" font-size="14.00">AppGlobalService</text>
</g>
<!-- AppGlobalService&#45;&gt;AppModule -->
<g id="edge11" class="edge">
<title>AppGlobalService&#45;&gt;AppModule</title>
<path fill="none" stroke="black" d="M8608,-122.22C8608,-142.37 8608,-172 8608,-172 8608,-172 5692.66,-172 5692.66,-172"/>
<polygon fill="black" stroke="black" points="5692.66,-168.5 5682.66,-172 5692.66,-175.5 5692.66,-168.5"/>
</g>
<!-- AppHeaderService -->
<g id="node13" class="node">
<title>AppHeaderService</title>
<ellipse fill="#fdb462" stroke="black" cx="8423" cy="-104" rx="84.49" ry="18"/>
<text text-anchor="middle" x="8423" y="-99.8" font-family="Times,serif" font-size="14.00">AppHeaderService</text>
</g>
<!-- AppHeaderService&#45;&gt;AppModule -->
<g id="edge12" class="edge">
<title>AppHeaderService&#45;&gt;AppModule</title>
<path fill="none" stroke="black" d="M8423,-122.31C8423,-142.15 8423,-171 8423,-171 8423,-171 5692.76,-171 5692.76,-171"/>
<polygon fill="black" stroke="black" points="5692.76,-167.5 5682.76,-171 5692.76,-174.5 5692.76,-167.5"/>
</g>
<!-- AppRatingService -->
<g id="node14" class="node">
<title>AppRatingService</title>
<ellipse fill="#fdb462" stroke="black" cx="8238" cy="-104" rx="82.24" ry="18"/>
<text text-anchor="middle" x="8238" y="-99.8" font-family="Times,serif" font-size="14.00">AppRatingService</text>
</g>
<!-- AppRatingService&#45;&gt;AppModule -->
<g id="edge13" class="edge">
<title>AppRatingService&#45;&gt;AppModule</title>
<path fill="none" stroke="black" d="M8238,-122.11C8238,-141.34 8238,-169 8238,-169 8238,-169 5692.84,-169 5692.84,-169"/>
<polygon fill="black" stroke="black" points="5692.84,-165.5 5682.84,-169 5692.84,-172.5 5692.84,-165.5"/>
</g>
<!-- CanvasPlayerService -->
<g id="node15" class="node">
<title>CanvasPlayerService</title>
<ellipse fill="#fdb462" stroke="black" cx="8045" cy="-104" rx="93.17" ry="18"/>
<text text-anchor="middle" x="8045" y="-99.8" font-family="Times,serif" font-size="14.00">CanvasPlayerService</text>
</g>
<!-- CanvasPlayerService&#45;&gt;AppModule -->
<g id="edge14" class="edge">
<title>CanvasPlayerService&#45;&gt;AppModule</title>
<path fill="none" stroke="black" d="M8045,-122.17C8045,-141.09 8045,-168 8045,-168 8045,-168 5692.73,-168 5692.73,-168"/>
<polygon fill="black" stroke="black" points="5692.73,-164.5 5682.73,-168 5692.73,-171.5 5692.73,-164.5"/>
</g>
<!-- CollectionService -->
<g id="node16" class="node">
<title>CollectionService</title>
<ellipse fill="#fdb462" stroke="black" cx="7854" cy="-104" rx="80.45" ry="18"/>
<text text-anchor="middle" x="7854" y="-99.8" font-family="Times,serif" font-size="14.00">CollectionService</text>
</g>
<!-- CollectionService&#45;&gt;AppModule -->
<g id="edge15" class="edge">
<title>CollectionService&#45;&gt;AppModule</title>
<path fill="none" stroke="black" d="M7854,-122.27C7854,-140.56 7854,-166 7854,-166 7854,-166 5692.74,-166 5692.74,-166"/>
<polygon fill="black" stroke="black" points="5692.74,-162.5 5682.74,-166 5692.74,-169.5 5692.74,-162.5"/>
</g>
<!-- ComingSoonMessageService -->
<g id="node17" class="node">
<title>ComingSoonMessageService</title>
<ellipse fill="#fdb462" stroke="black" cx="7631" cy="-104" rx="124.5" ry="18"/>
<text text-anchor="middle" x="7631" y="-99.8" font-family="Times,serif" font-size="14.00">ComingSoonMessageService</text>
</g>
<!-- ComingSoonMessageService&#45;&gt;AppModule -->
<g id="edge16" class="edge">
<title>ComingSoonMessageService&#45;&gt;AppModule</title>
<path fill="none" stroke="black" d="M7631,-122.3C7631,-140.27 7631,-165 7631,-165 7631,-165 5693.02,-165 5693.02,-165"/>
<polygon fill="black" stroke="black" points="5693.02,-161.5 5683.02,-165 5693.02,-168.5 5693.02,-161.5"/>
</g>
<!-- CommonUtilService -->
<g id="node18" class="node">
<title>CommonUtilService</title>
<ellipse fill="#fdb462" stroke="black" cx="7397" cy="-104" rx="90.93" ry="18"/>
<text text-anchor="middle" x="7397" y="-99.8" font-family="Times,serif" font-size="14.00">CommonUtilService</text>
</g>
<!-- CommonUtilService&#45;&gt;AppModule -->
<g id="edge17" class="edge">
<title>CommonUtilService&#45;&gt;AppModule</title>
<path fill="none" stroke="black" d="M7397,-122.02C7397,-139.37 7397,-163 7397,-163 7397,-163 5692.67,-163 5692.67,-163"/>
<polygon fill="black" stroke="black" points="5692.68,-159.5 5682.67,-163 5692.67,-166.5 5692.68,-159.5"/>
</g>
<!-- ConsentService -->
<g id="node19" class="node">
<title>ConsentService</title>
<ellipse fill="#fdb462" stroke="black" cx="7216" cy="-104" rx="71.79" ry="18"/>
<text text-anchor="middle" x="7216" y="-99.8" font-family="Times,serif" font-size="14.00">ConsentService</text>
</g>
<!-- ConsentService&#45;&gt;AppModule -->
<g id="edge18" class="edge">
<title>ConsentService&#45;&gt;AppModule</title>
<path fill="none" stroke="black" d="M7216,-122.03C7216,-139.06 7216,-162 7216,-162 7216,-162 5692.72,-162 5692.72,-162"/>
<polygon fill="black" stroke="black" points="5692.72,-158.5 5682.72,-162 5692.72,-165.5 5692.72,-158.5"/>
</g>
<!-- ContainerService -->
<g id="node20" class="node">
<title>ContainerService</title>
<ellipse fill="#fdb462" stroke="black" cx="7048" cy="-104" rx="78.15" ry="18"/>
<text text-anchor="middle" x="7048" y="-99.8" font-family="Times,serif" font-size="14.00">ContainerService</text>
</g>
<!-- ContainerService&#45;&gt;AppModule -->
<g id="edge19" class="edge">
<title>ContainerService&#45;&gt;AppModule</title>
<path fill="none" stroke="black" d="M7048,-122.03C7048,-138.4 7048,-160 7048,-160 7048,-160 5692.73,-160 5692.73,-160"/>
<polygon fill="black" stroke="black" points="5692.73,-156.5 5682.73,-160 5692.73,-163.5 5692.73,-156.5"/>
</g>
<!-- ContentAggregatorHandler -->
<g id="node21" class="node">
<title>ContentAggregatorHandler</title>
<ellipse fill="#fdb462" stroke="black" cx="6835" cy="-104" rx="116.88" ry="18"/>
<text text-anchor="middle" x="6835" y="-99.8" font-family="Times,serif" font-size="14.00">ContentAggregatorHandler</text>
</g>
<!-- ContentAggregatorHandler&#45;&gt;AppModule -->
<g id="edge20" class="edge">
<title>ContentAggregatorHandler&#45;&gt;AppModule</title>
<path fill="none" stroke="black" d="M6835,-122.01C6835,-138.05 6835,-159 6835,-159 6835,-159 5692.79,-159 5692.79,-159"/>
<polygon fill="black" stroke="black" points="5692.8,-155.5 5682.79,-159 5692.79,-162.5 5692.8,-155.5"/>
</g>
<!-- CourseUtilService -->
<g id="node22" class="node">
<title>CourseUtilService</title>
<ellipse fill="#fdb462" stroke="black" cx="6618" cy="-104" rx="82.24" ry="18"/>
<text text-anchor="middle" x="6618" y="-99.8" font-family="Times,serif" font-size="14.00">CourseUtilService</text>
</g>
<!-- CourseUtilService&#45;&gt;AppModule -->
<g id="edge21" class="edge">
<title>CourseUtilService&#45;&gt;AppModule</title>
<path fill="none" stroke="black" d="M6618,-122.24C6618,-137.57 6618,-157 6618,-157 6618,-157 5692.67,-157 5692.67,-157"/>
<polygon fill="black" stroke="black" points="5692.67,-153.5 5682.67,-157 5692.67,-160.5 5692.67,-153.5"/>
</g>
<!-- DiscussionTelemetryService -->
<g id="node23" class="node">
<title>DiscussionTelemetryService</title>
<ellipse fill="#fdb462" stroke="black" cx="6396" cy="-104" rx="122.1" ry="18"/>
<text text-anchor="middle" x="6396" y="-99.8" font-family="Times,serif" font-size="14.00">DiscussionTelemetryService</text>
</g>
<!-- DiscussionTelemetryService&#45;&gt;AppModule -->
<g id="edge22" class="edge">
<title>DiscussionTelemetryService&#45;&gt;AppModule</title>
<path fill="none" stroke="black" d="M6396,-122.19C6396,-137.18 6396,-156 6396,-156 6396,-156 5692.67,-156 5692.67,-156"/>
<polygon fill="black" stroke="black" points="5692.67,-152.5 5682.67,-156 5692.67,-159.5 5692.67,-152.5"/>
</g>
<!-- DownloadPdfService -->
<g id="node24" class="node">
<title>DownloadPdfService</title>
<ellipse fill="#fdb462" stroke="black" cx="6162" cy="-104" rx="93.76" ry="18"/>
<text text-anchor="middle" x="6162" y="-99.8" font-family="Times,serif" font-size="14.00">DownloadPdfService</text>
</g>
<!-- DownloadPdfService&#45;&gt;AppModule -->
<g id="edge23" class="edge">
<title>DownloadPdfService&#45;&gt;AppModule</title>
<path fill="none" stroke="black" d="M6162,-122.05C6162,-136.37 6162,-154 6162,-154 6162,-154 5692.75,-154 5692.75,-154"/>
<polygon fill="black" stroke="black" points="5692.75,-150.5 5682.75,-154 5692.75,-157.5 5692.75,-150.5"/>
</g>
<!-- ExternalIdVerificationService -->
<g id="node25" class="node">
<title>ExternalIdVerificationService</title>
<ellipse fill="#fdb462" stroke="black" cx="5923" cy="-104" rx="127.3" ry="18"/>
<text text-anchor="middle" x="5923" y="-99.8" font-family="Times,serif" font-size="14.00">ExternalIdVerificationService</text>
</g>
<!-- ExternalIdVerificationService&#45;&gt;AppModule -->
<g id="edge24" class="edge">
<title>ExternalIdVerificationService&#45;&gt;AppModule</title>
<path fill="none" stroke="black" d="M5923,-122.25C5923,-136.18 5923,-153 5923,-153 5923,-153 5692.91,-153 5692.91,-153"/>
<polygon fill="black" stroke="black" points="5692.91,-149.5 5682.91,-153 5692.91,-156.5 5692.91,-149.5"/>
</g>
<!-- FormAndFrameworkUtilService -->
<g id="node26" class="node">
<title>FormAndFrameworkUtilService</title>
<ellipse fill="#fdb462" stroke="black" cx="5641" cy="-104" rx="137.16" ry="18"/>
<text text-anchor="middle" x="5641" y="-99.8" font-family="Times,serif" font-size="14.00">FormAndFrameworkUtilService</text>
</g>
<!-- FormAndFrameworkUtilService&#45;&gt;AppModule -->
<g id="edge25" class="edge">
<title>FormAndFrameworkUtilService&#45;&gt;AppModule</title>
<path fill="none" stroke="black" d="M5641,-122.11C5641,-122.11 5641,-140.99 5641,-140.99"/>
<polygon fill="black" stroke="black" points="5637.5,-140.99 5641,-150.99 5644.5,-140.99 5637.5,-140.99"/>
</g>
<!-- GroupHandlerService -->
<g id="node27" class="node">
<title>GroupHandlerService</title>
<ellipse fill="#fdb462" stroke="black" cx="5390" cy="-104" rx="95.53" ry="18"/>
<text text-anchor="middle" x="5390" y="-99.8" font-family="Times,serif" font-size="14.00">GroupHandlerService</text>
</g>
<!-- GroupHandlerService&#45;&gt;AppModule -->
<g id="edge26" class="edge">
<title>GroupHandlerService&#45;&gt;AppModule</title>
<path fill="none" stroke="black" d="M5390,-122.25C5390,-136.18 5390,-153 5390,-153 5390,-153 5589.27,-153 5589.27,-153"/>
<polygon fill="black" stroke="black" points="5589.27,-156.5 5599.27,-153 5589.27,-149.5 5589.27,-156.5"/>
</g>
<!-- LocalCourseService -->
<g id="node28" class="node">
<title>LocalCourseService</title>
<ellipse fill="#fdb462" stroke="black" cx="5187" cy="-104" rx="89.16" ry="18"/>
<text text-anchor="middle" x="5187" y="-99.8" font-family="Times,serif" font-size="14.00">LocalCourseService</text>
</g>
<!-- LocalCourseService&#45;&gt;AppModule -->
<g id="edge27" class="edge">
<title>LocalCourseService&#45;&gt;AppModule</title>
<path fill="none" stroke="black" d="M5187,-122.05C5187,-136.37 5187,-154 5187,-154 5187,-154 5589.1,-154 5589.1,-154"/>
<polygon fill="black" stroke="black" points="5589.1,-157.5 5599.1,-154 5589.1,-150.5 5589.1,-157.5"/>
</g>
<!-- LocationHandler -->
<g id="node29" class="node">
<title>LocationHandler</title>
<ellipse fill="#fdb462" stroke="black" cx="5003" cy="-104" rx="76.42" ry="18"/>
<text text-anchor="middle" x="5003" y="-99.8" font-family="Times,serif" font-size="14.00">LocationHandler</text>
</g>
<!-- LocationHandler&#45;&gt;AppModule -->
<g id="edge28" class="edge">
<title>LocationHandler&#45;&gt;AppModule</title>
<path fill="none" stroke="black" d="M5003,-122.19C5003,-137.18 5003,-156 5003,-156 5003,-156 5589.14,-156 5589.14,-156"/>
<polygon fill="black" stroke="black" points="5589.14,-159.5 5599.14,-156 5589.14,-152.5 5589.14,-159.5"/>
</g>
<!-- LoginHandlerService -->
<g id="node30" class="node">
<title>LoginHandlerService</title>
<ellipse fill="#fdb462" stroke="black" cx="4814" cy="-104" rx="94.32" ry="18"/>
<text text-anchor="middle" x="4814" y="-99.8" font-family="Times,serif" font-size="14.00">LoginHandlerService</text>
</g>
<!-- LoginHandlerService&#45;&gt;AppModule -->
<g id="edge29" class="edge">
<title>LoginHandlerService&#45;&gt;AppModule</title>
<path fill="none" stroke="black" d="M4814,-122.24C4814,-137.57 4814,-157 4814,-157 4814,-157 5589.14,-157 5589.14,-157"/>
<polygon fill="black" stroke="black" points="5589.14,-160.5 5599.14,-157 5589.14,-153.5 5589.14,-160.5"/>
</g>
<!-- LoginNavigationHandlerService -->
<g id="node31" class="node">
<title>LoginNavigationHandlerService</title>
<ellipse fill="#fdb462" stroke="black" cx="4565" cy="-104" rx="137.14" ry="18"/>
<text text-anchor="middle" x="4565" y="-99.8" font-family="Times,serif" font-size="14.00">LoginNavigationHandlerService</text>
</g>
<!-- LoginNavigationHandlerService&#45;&gt;AppModule -->
<g id="edge30" class="edge">
<title>LoginNavigationHandlerService&#45;&gt;AppModule</title>
<path fill="none" stroke="black" d="M4565,-122.01C4565,-138.05 4565,-159 4565,-159 4565,-159 5589.15,-159 5589.15,-159"/>
<polygon fill="black" stroke="black" points="5589.15,-162.5 5599.15,-159 5589.15,-155.5 5589.15,-162.5"/>
</g>
<!-- LogoutHandlerService -->
<g id="node32" class="node">
<title>LogoutHandlerService</title>
<ellipse fill="#fdb462" stroke="black" cx="4311" cy="-104" rx="98.98" ry="18"/>
<text text-anchor="middle" x="4311" y="-99.8" font-family="Times,serif" font-size="14.00">LogoutHandlerService</text>
</g>
<!-- LogoutHandlerService&#45;&gt;AppModule -->
<g id="edge31" class="edge">
<title>LogoutHandlerService&#45;&gt;AppModule</title>
<path fill="none" stroke="black" d="M4311,-122.03C4311,-138.4 4311,-160 4311,-160 4311,-160 5589,-160 5589,-160"/>
<polygon fill="black" stroke="black" points="5589,-163.5 5599,-160 5589,-156.5 5589,-163.5"/>
</g>
<!-- NavigationService -->
<g id="node33" class="node">
<title>NavigationService</title>
<ellipse fill="#fdb462" stroke="black" cx="4111" cy="-104" rx="82.8" ry="18"/>
<text text-anchor="middle" x="4111" y="-99.8" font-family="Times,serif" font-size="14.00">NavigationService</text>
</g>
<!-- NavigationService&#45;&gt;AppModule -->
<g id="edge32" class="edge">
<title>NavigationService&#45;&gt;AppModule</title>
<path fill="none" stroke="black" d="M4111,-122.03C4111,-139.06 4111,-162 4111,-162 4111,-162 5589.28,-162 5589.28,-162"/>
<polygon fill="black" stroke="black" points="5589.28,-165.5 5599.28,-162 5589.28,-158.5 5589.28,-165.5"/>
</g>
<!-- OnboardingConfigurationService -->
<g id="node34" class="node">
<title>OnboardingConfigurationService</title>
<ellipse fill="#fdb462" stroke="black" cx="3870" cy="-104" rx="140.1" ry="18"/>
<text text-anchor="middle" x="3870" y="-99.8" font-family="Times,serif" font-size="14.00">OnboardingConfigurationService</text>
</g>
<!-- OnboardingConfigurationService&#45;&gt;AppModule -->
<g id="edge33" class="edge">
<title>OnboardingConfigurationService&#45;&gt;AppModule</title>
<path fill="none" stroke="black" d="M3870,-122.02C3870,-139.37 3870,-163 3870,-163 3870,-163 5588.97,-163 5588.97,-163"/>
<polygon fill="black" stroke="black" points="5588.97,-166.5 5598.97,-163 5588.97,-159.5 5588.97,-166.5"/>
</g>
<!-- PrintPdfService -->
<g id="node35" class="node">
<title>PrintPdfService</title>
<ellipse fill="#fdb462" stroke="black" cx="3640" cy="-104" rx="72.37" ry="18"/>
<text text-anchor="middle" x="3640" y="-99.8" font-family="Times,serif" font-size="14.00">PrintPdfService</text>
</g>
<!-- PrintPdfService&#45;&gt;AppModule -->
<g id="edge34" class="edge">
<title>PrintPdfService&#45;&gt;AppModule</title>
<path fill="none" stroke="black" d="M3640,-122.3C3640,-140.27 3640,-165 3640,-165 3640,-165 5589.21,-165 5589.21,-165"/>
<polygon fill="black" stroke="black" points="5589.21,-168.5 5599.21,-165 5589.21,-161.5 5589.21,-168.5"/>
</g>
<!-- ProfileHandler -->
<g id="node36" class="node">
<title>ProfileHandler</title>
<ellipse fill="#fdb462" stroke="black" cx="3481" cy="-104" rx="68.33" ry="18"/>
<text text-anchor="middle" x="3481" y="-99.8" font-family="Times,serif" font-size="14.00">ProfileHandler</text>
</g>
<!-- ProfileHandler&#45;&gt;AppModule -->
<g id="edge35" class="edge">
<title>ProfileHandler&#45;&gt;AppModule</title>
<path fill="none" stroke="black" d="M3481,-122.27C3481,-140.56 3481,-166 3481,-166 3481,-166 5589.3,-166 5589.3,-166"/>
<polygon fill="black" stroke="black" points="5589.3,-169.5 5599.3,-166 5589.3,-162.5 5589.3,-169.5"/>
</g>
<!-- QRScannerResultHandler -->
<g id="node37" class="node">
<title>QRScannerResultHandler</title>
<ellipse fill="#fdb462" stroke="black" cx="3283" cy="-104" rx="111.15" ry="18"/>
<text text-anchor="middle" x="3283" y="-99.8" font-family="Times,serif" font-size="14.00">QRScannerResultHandler</text>
</g>
<!-- QRScannerResultHandler&#45;&gt;AppModule -->
<g id="edge36" class="edge">
<title>QRScannerResultHandler&#45;&gt;AppModule</title>
<path fill="none" stroke="black" d="M3283,-122.17C3283,-141.09 3283,-168 3283,-168 3283,-168 5589.32,-168 5589.32,-168"/>
<polygon fill="black" stroke="black" points="5589.32,-171.5 5599.32,-168 5589.32,-164.5 5589.32,-171.5"/>
</g>
<!-- SegmentationTagService -->
<g id="node38" class="node">
<title>SegmentationTagService</title>
<ellipse fill="#fdb462" stroke="black" cx="3046" cy="-104" rx="108.22" ry="18"/>
<text text-anchor="middle" x="3046" y="-99.8" font-family="Times,serif" font-size="14.00">SegmentationTagService</text>
</g>
<!-- SegmentationTagService&#45;&gt;AppModule -->
<g id="edge37" class="edge">
<title>SegmentationTagService&#45;&gt;AppModule</title>
<path fill="none" stroke="black" d="M3046,-122.11C3046,-141.34 3046,-169 3046,-169 3046,-169 5589.19,-169 5589.19,-169"/>
<polygon fill="black" stroke="black" points="5589.19,-172.5 5599.19,-169 5589.19,-165.5 5589.19,-172.5"/>
</g>
<!-- SplaschreenDeeplinkActionHandlerDelegate -->
<g id="node39" class="node">
<title>SplaschreenDeeplinkActionHandlerDelegate</title>
<ellipse fill="#fdb462" stroke="black" cx="2735" cy="-104" rx="184.57" ry="18"/>
<text text-anchor="middle" x="2735" y="-99.8" font-family="Times,serif" font-size="14.00">SplaschreenDeeplinkActionHandlerDelegate</text>
</g>
<!-- SplaschreenDeeplinkActionHandlerDelegate&#45;&gt;AppModule -->
<g id="edge38" class="edge">
<title>SplaschreenDeeplinkActionHandlerDelegate&#45;&gt;AppModule</title>
<path fill="none" stroke="black" d="M2735,-122.31C2735,-142.15 2735,-171 2735,-171 2735,-171 5589.08,-171 5589.08,-171"/>
<polygon fill="black" stroke="black" points="5589.08,-174.5 5599.08,-171 5589.08,-167.5 5589.08,-174.5"/>
</g>
<!-- SplashScreenService -->
<g id="node40" class="node">
<title>SplashScreenService</title>
<ellipse fill="#fdb462" stroke="black" cx="2440" cy="-104" rx="92.03" ry="18"/>
<text text-anchor="middle" x="2440" y="-99.8" font-family="Times,serif" font-size="14.00">SplashScreenService</text>
</g>
<!-- SplashScreenService&#45;&gt;AppModule -->
<g id="edge39" class="edge">
<title>SplashScreenService&#45;&gt;AppModule</title>
<path fill="none" stroke="black" d="M2440,-122.22C2440,-142.37 2440,-172 2440,-172 2440,-172 5589.06,-172 5589.06,-172"/>
<polygon fill="black" stroke="black" points="5589.06,-175.5 5599.06,-172 5589.06,-168.5 5589.06,-175.5"/>
</g>
<!-- SplashcreenTelemetryActionHandlerDelegate -->
<g id="node41" class="node">
<title>SplashcreenTelemetryActionHandlerDelegate</title>
<ellipse fill="#fdb462" stroke="black" cx="2141" cy="-104" rx="189.14" ry="18"/>
<text text-anchor="middle" x="2141" y="-99.8" font-family="Times,serif" font-size="14.00">SplashcreenTelemetryActionHandlerDelegate</text>
</g>
<!-- SplashcreenTelemetryActionHandlerDelegate&#45;&gt;AppModule -->
<g id="edge40" class="edge">
<title>SplashcreenTelemetryActionHandlerDelegate&#45;&gt;AppModule</title>
<path fill="none" stroke="black" d="M2141,-122.03C2141,-142.77 2141,-174 2141,-174 2141,-174 5589.26,-174 5589.26,-174"/>
<polygon fill="black" stroke="black" points="5589.26,-177.5 5599.26,-174 5589.26,-170.5 5589.26,-177.5"/>
</g>
<!-- SplashscreenImportActionHandlerDelegate -->
<g id="node42" class="node">
<title>SplashscreenImportActionHandlerDelegate</title>
<ellipse fill="#fdb462" stroke="black" cx="1755" cy="-104" rx="179.35" ry="18"/>
<text text-anchor="middle" x="1755" y="-99.8" font-family="Times,serif" font-size="14.00">SplashscreenImportActionHandlerDelegate</text>
</g>
<!-- SplashscreenImportActionHandlerDelegate&#45;&gt;AppModule -->
<g id="edge41" class="edge">
<title>SplashscreenImportActionHandlerDelegate&#45;&gt;AppModule</title>
<path fill="none" stroke="black" d="M1755,-122.28C1755,-143.32 1755,-175 1755,-175 1755,-175 5589.34,-175 5589.34,-175"/>
<polygon fill="black" stroke="black" points="5589.34,-178.5 5599.34,-175 5589.34,-171.5 5589.34,-178.5"/>
</g>
<!-- StoragePermissionHandlerService -->
<g id="node43" class="node">
<title>StoragePermissionHandlerService</title>
<ellipse fill="#fdb462" stroke="black" cx="1414" cy="-104" rx="143.51" ry="18"/>
<text text-anchor="middle" x="1414" y="-99.8" font-family="Times,serif" font-size="14.00">StoragePermissionHandlerService</text>
</g>
<!-- StoragePermissionHandlerService&#45;&gt;AppModule -->
<g id="edge42" class="edge">
<title>StoragePermissionHandlerService&#45;&gt;AppModule</title>
<path fill="none" stroke="black" d="M1414,-122.04C1414,-143.66 1414,-177 1414,-177 1414,-177 5589.16,-177 5589.16,-177"/>
<polygon fill="black" stroke="black" points="5589.16,-180.5 5599.16,-177 5589.16,-173.5 5589.16,-180.5"/>
</g>
<!-- SunbirdQRScanner -->
<g id="node44" class="node">
<title>SunbirdQRScanner</title>
<ellipse fill="#fdb462" stroke="black" cx="1166" cy="-104" rx="86.26" ry="18"/>
<text text-anchor="middle" x="1166" y="-99.8" font-family="Times,serif" font-size="14.00">SunbirdQRScanner</text>
</g>
<!-- SunbirdQRScanner&#45;&gt;AppModule -->
<g id="edge43" class="edge">
<title>SunbirdQRScanner&#45;&gt;AppModule</title>
<path fill="none" stroke="black" d="M1166,-122.29C1166,-144.21 1166,-178 1166,-178 1166,-178 5589.21,-178 5589.21,-178"/>
<polygon fill="black" stroke="black" points="5589.21,-181.5 5599.21,-178 5589.21,-174.5 5589.21,-181.5"/>
</g>
<!-- TelemetryGeneratorService -->
<g id="node45" class="node">
<title>TelemetryGeneratorService</title>
<ellipse fill="#fdb462" stroke="black" cx="944" cy="-104" rx="118.05" ry="18"/>
<text text-anchor="middle" x="944" y="-99.8" font-family="Times,serif" font-size="14.00">TelemetryGeneratorService</text>
</g>
<!-- TelemetryGeneratorService&#45;&gt;AppModule -->
<g id="edge44" class="edge">
<title>TelemetryGeneratorService&#45;&gt;AppModule</title>
<path fill="none" stroke="black" d="M944,-122.01C944,-144.49 944,-180 944,-180 944,-180 5589.32,-180 5589.32,-180"/>
<polygon fill="black" stroke="black" points="5589.32,-183.5 5599.32,-180 5589.32,-176.5 5589.32,-183.5"/>
</g>
<!-- TextbookTocService -->
<g id="node46" class="node">
<title>TextbookTocService</title>
<ellipse fill="#fdb462" stroke="black" cx="716" cy="-104" rx="92.04" ry="18"/>
<text text-anchor="middle" x="716" y="-99.8" font-family="Times,serif" font-size="14.00">TextbookTocService</text>
</g>
<!-- TextbookTocService&#45;&gt;AppModule -->
<g id="edge45" class="edge">
<title>TextbookTocService&#45;&gt;AppModule</title>
<path fill="none" stroke="black" d="M716,-122.25C716,-145.02 716,-181 716,-181 716,-181 5589.17,-181 5589.17,-181"/>
<polygon fill="black" stroke="black" points="5589.17,-184.5 5599.17,-181 5589.17,-177.5 5589.17,-184.5"/>
</g>
<!-- TncUpdateHandlerService -->
<g id="node47" class="node">
<title>TncUpdateHandlerService</title>
<ellipse fill="#fdb462" stroke="black" cx="492" cy="-104" rx="113.98" ry="18"/>
<text text-anchor="middle" x="492" y="-99.8" font-family="Times,serif" font-size="14.00">TncUpdateHandlerService</text>
</g>
<!-- TncUpdateHandlerService&#45;&gt;AppModule -->
<g id="edge46" class="edge">
<title>TncUpdateHandlerService&#45;&gt;AppModule</title>
<path fill="none" stroke="black" d="M492,-122.32C492,-145.66 492,-183 492,-183 492,-183 5589.18,-183 5589.18,-183"/>
<polygon fill="black" stroke="black" points="5589.18,-186.5 5599.18,-183 5589.18,-179.5 5589.18,-186.5"/>
</g>
<!-- UpdateProfileService -->
<g id="node48" class="node">
<title>UpdateProfileService</title>
<ellipse fill="#fdb462" stroke="black" cx="266" cy="-104" rx="94.32" ry="18"/>
<text text-anchor="middle" x="266" y="-99.8" font-family="Times,serif" font-size="14.00">UpdateProfileService</text>
</g>
<!-- UpdateProfileService&#45;&gt;AppModule -->
<g id="edge47" class="edge">
<title>UpdateProfileService&#45;&gt;AppModule</title>
<path fill="none" stroke="black" d="M266,-122.15C266,-145.76 266,-184 266,-184 266,-184 5589.29,-184 5589.29,-184"/>
<polygon fill="black" stroke="black" points="5589.29,-187.5 5599.29,-184 5589.29,-180.5 5589.29,-187.5"/>
</g>
<!-- UtilityService -->
<g id="node49" class="node">
<title>UtilityService</title>
<ellipse fill="#fdb462" stroke="black" cx="89" cy="-104" rx="65.42" ry="18"/>
<text text-anchor="middle" x="89" y="-99.8" font-family="Times,serif" font-size="14.00">UtilityService</text>
</g>
<!-- UtilityService&#45;&gt;AppModule -->
<g id="edge48" class="edge">
<title>UtilityService&#45;&gt;AppModule</title>
<path fill="none" stroke="black" d="M89,-122.2C89,-146.36 89,-186 89,-186 89,-186 5589.11,-186 5589.11,-186"/>
<polygon fill="black" stroke="black" points="5589.11,-189.5 5599.11,-186 5589.11,-182.5 5589.11,-189.5"/>
</g>
</g>
</svg>
