<?xml version="1.0" encoding="UTF-8" standalone="no"?>
<!DOCTYPE svg PUBLIC "-//W3C//DTD SVG 1.1//EN"
 "http://www.w3.org/Graphics/SVG/1.1/DTD/svg11.dtd">
<!-- Generated by graphviz version 2.47.0 (20210316.0004)
 -->
<!-- Title: dependencies Pages: 1 -->
<svg width="2003pt" height="211pt"
 viewBox="0.00 0.00 2003.00 211.00" xmlns="http://www.w3.org/2000/svg" xmlns:xlink="http://www.w3.org/1999/xlink">
<g id="graph0" class="graph" transform="scale(1 1) rotate(0) translate(4 207)">
<title>dependencies</title>
<polygon fill="white" stroke="transparent" points="-4,4 -4,-207 1999,-207 1999,4 -4,4"/>
<text text-anchor="start" x="976.51" y="-42.4" font-family="Times-12" font-weight="bold" font-size="14.00">Legend</text>
<polygon fill="#ffffb3" stroke="transparent" points="763.5,-10 763.5,-30 783.5,-30 783.5,-10 763.5,-10"/>
<text text-anchor="start" x="787.13" y="-15.4" font-family="Times-12" font-size="14.00"> &#160;Declarations</text>
<polygon fill="#8dd3c7" stroke="transparent" points="876.5,-10 876.5,-30 896.5,-30 896.5,-10 876.5,-10"/>
<text text-anchor="start" x="900.23" y="-15.4" font-family="Times-12" font-size="14.00"> &#160;Module</text>
<polygon fill="#80b1d3" stroke="transparent" points="962.5,-10 962.5,-30 982.5,-30 982.5,-10 962.5,-10"/>
<text text-anchor="start" x="986.28" y="-15.4" font-family="Times-12" font-size="14.00"> &#160;Bootstrap</text>
<polygon fill="#fdb462" stroke="transparent" points="1059.5,-10 1059.5,-30 1079.5,-30 1079.5,-10 1059.5,-10"/>
<text text-anchor="start" x="1083.17" y="-15.4" font-family="Times-12" font-size="14.00"> &#160;Providers</text>
<polygon fill="#fb8072" stroke="transparent" points="1155.5,-10 1155.5,-30 1175.5,-30 1175.5,-10 1155.5,-10"/>
<text text-anchor="start" x="1179.23" y="-15.4" font-family="Times-12" font-size="14.00"> &#160;Exports</text>
<g id="clust1" class="cluster">
<title>cluster_CoreModule</title>
<polygon fill="none" stroke="black" stroke-dasharray="1,5" points="8,-70 8,-195 1987,-195 1987,-70 8,-70"/>
</g>
<g id="clust3" class="cluster">
<title>cluster_CoreModule_imports</title>
<polygon fill="none" stroke="black" points="1865,-78 1865,-130 1979,-130 1979,-78 1865,-78"/>
</g>
<g id="clust6" class="cluster">
<title>cluster_CoreModule_providers</title>
<polygon fill="none" stroke="black" points="16,-78 16,-130 1857,-130 1857,-78 16,-78"/>
</g>
<!-- SharedModule -->
<g id="node1" class="node">
<title>SharedModule</title>
<polygon fill="#8dd3c7" stroke="black" points="1971.42,-122 1968.42,-126 1947.42,-126 1944.42,-122 1872.58,-122 1872.58,-86 1971.42,-86 1971.42,-122"/>
<text text-anchor="middle" x="1922" y="-99.8" font-family="Times,serif" font-size="14.00">SharedModule</text>
</g>
<!-- CoreModule -->
<g id="node2" class="node">
<title>CoreModule</title>
<polygon fill="#8dd3c7" stroke="black" points="1155.26,-187 1152.26,-191 1131.26,-191 1128.26,-187 1068.74,-187 1068.74,-151 1155.26,-151 1155.26,-187"/>
<text text-anchor="middle" x="1112" y="-164.8" font-family="Times,serif" font-size="14.00">CoreModule</text>
</g>
<!-- SharedModule&#45;&gt;CoreModule -->
<g id="edge1" class="edge">
<title>SharedModule&#45;&gt;CoreModule</title>
<path fill="none" stroke="black" d="M1922,-122.01C1922,-144.49 1922,-180 1922,-180 1922,-180 1165.26,-180 1165.26,-180"/>
<polygon fill="black" stroke="black" points="1165.26,-176.5 1155.26,-180 1165.26,-183.5 1165.26,-176.5"/>
</g>
<!-- AssessmentApiService -->
<g id="node3" class="node">
<title>AssessmentApiService</title>
<ellipse fill="#fdb462" stroke="black" cx="1749" cy="-104" rx="100.13" ry="18"/>
<text text-anchor="middle" x="1749" y="-99.8" font-family="Times,serif" font-size="14.00">AssessmentApiService</text>
</g>
<!-- AssessmentApiService&#45;&gt;CoreModule -->
<g id="edge2" class="edge">
<title>AssessmentApiService&#45;&gt;CoreModule</title>
<path fill="none" stroke="black" d="M1749,-122.13C1749,-142.57 1749,-173 1749,-173 1749,-173 1165.28,-173 1165.28,-173"/>
<polygon fill="black" stroke="black" points="1165.28,-169.5 1155.28,-173 1165.28,-176.5 1165.28,-169.5"/>
</g>
<!-- DhitiApiService -->
<g id="node4" class="node">
<title>DhitiApiService</title>
<ellipse fill="#fdb462" stroke="black" cx="1557" cy="-104" rx="74.15" ry="18"/>
<text text-anchor="middle" x="1557" y="-99.8" font-family="Times,serif" font-size="14.00">DhitiApiService</text>
</g>
<!-- DhitiApiService&#45;&gt;CoreModule -->
<g id="edge3" class="edge">
<title>DhitiApiService&#45;&gt;CoreModule</title>
<path fill="none" stroke="black" d="M1557,-122.27C1557,-140.56 1557,-166 1557,-166 1557,-166 1165.48,-166 1165.48,-166"/>
<polygon fill="black" stroke="black" points="1165.48,-162.5 1155.48,-166 1165.48,-169.5 1165.48,-162.5"/>
</g>
<!-- EvidenceService -->
<g id="node5" class="node">
<title>EvidenceService</title>
<ellipse fill="#fdb462" stroke="black" cx="1389" cy="-104" rx="75.84" ry="18"/>
<text text-anchor="middle" x="1389" y="-99.8" font-family="Times,serif" font-size="14.00">EvidenceService</text>
</g>
<!-- EvidenceService&#45;&gt;CoreModule -->
<g id="edge4" class="edge">
<title>EvidenceService&#45;&gt;CoreModule</title>
<path fill="none" stroke="black" d="M1389,-122.01C1389,-138.05 1389,-159 1389,-159 1389,-159 1165.28,-159 1165.28,-159"/>
<polygon fill="black" stroke="black" points="1165.28,-155.5 1155.28,-159 1165.28,-162.5 1165.28,-155.5"/>
</g>
<!-- LocalStorageService -->
<g id="node6" class="node">
<title>LocalStorageService</title>
<ellipse fill="#fdb462" stroke="black" cx="1204" cy="-104" rx="91.45" ry="18"/>
<text text-anchor="middle" x="1204" y="-99.8" font-family="Times,serif" font-size="14.00">LocalStorageService</text>
</g>
<!-- LocalStorageService&#45;&gt;CoreModule -->
<g id="edge5" class="edge">
<title>LocalStorageService&#45;&gt;CoreModule</title>
<path fill="none" stroke="black" d="M1133.95,-115.62C1133.95,-115.62 1133.95,-140.85 1133.95,-140.85"/>
<polygon fill="black" stroke="black" points="1130.45,-140.85 1133.95,-150.85 1137.45,-140.85 1130.45,-140.85"/>
</g>
<!-- ProgramService -->
<g id="node7" class="node">
<title>ProgramService</title>
<ellipse fill="#fdb462" stroke="black" cx="1021" cy="-104" rx="73.49" ry="18"/>
<text text-anchor="middle" x="1021" y="-99.8" font-family="Times,serif" font-size="14.00">ProgramService</text>
</g>
<!-- ProgramService&#45;&gt;CoreModule -->
<g id="edge6" class="edge">
<title>ProgramService&#45;&gt;CoreModule</title>
<path fill="none" stroke="black" d="M1081.43,-114.44C1081.43,-114.44 1081.43,-140.97 1081.43,-140.97"/>
<polygon fill="black" stroke="black" points="1077.93,-140.97 1081.43,-150.97 1084.93,-140.97 1077.93,-140.97"/>
</g>
<!-- ProjectReportService -->
<g id="node8" class="node">
<title>ProjectReportService</title>
<ellipse fill="#fdb462" stroke="black" cx="836" cy="-104" rx="93.75" ry="18"/>
<text text-anchor="middle" x="836" y="-99.8" font-family="Times,serif" font-size="14.00">ProjectReportService</text>
</g>
<!-- ProjectReportService&#45;&gt;CoreModule -->
<g id="edge7" class="edge">
<title>ProjectReportService&#45;&gt;CoreModule</title>
<path fill="none" stroke="black" d="M836,-122.01C836,-138.05 836,-159 836,-159 836,-159 1058.57,-159 1058.57,-159"/>
<polygon fill="black" stroke="black" points="1058.57,-162.5 1068.57,-159 1058.57,-155.5 1058.57,-162.5"/>
</g>
<!-- SharingFeatureService -->
<g id="node9" class="node">
<title>SharingFeatureService</title>
<ellipse fill="#fdb462" stroke="black" cx="625" cy="-104" rx="98.97" ry="18"/>
<text text-anchor="middle" x="625" y="-99.8" font-family="Times,serif" font-size="14.00">SharingFeatureService</text>
</g>
<!-- SharingFeatureService&#45;&gt;CoreModule -->
<g id="edge8" class="edge">
<title>SharingFeatureService&#45;&gt;CoreModule</title>
<path fill="none" stroke="black" d="M625,-122.27C625,-140.56 625,-166 625,-166 625,-166 1058.35,-166 1058.35,-166"/>
<polygon fill="black" stroke="black" points="1058.35,-169.5 1068.35,-166 1058.35,-162.5 1058.35,-169.5"/>
</g>
<!-- UpdateLocalSchoolDataService -->
<g id="node10" class="node">
<title>UpdateLocalSchoolDataService</title>
<ellipse fill="#fdb462" stroke="black" cx="373" cy="-104" rx="134.83" ry="18"/>
<text text-anchor="middle" x="373" y="-99.8" font-family="Times,serif" font-size="14.00">UpdateLocalSchoolDataService</text>
</g>
<!-- UpdateLocalSchoolDataService&#45;&gt;CoreModule -->
<g id="edge9" class="edge">
<title>UpdateLocalSchoolDataService&#45;&gt;CoreModule</title>
<path fill="none" stroke="black" d="M373,-122.13C373,-142.57 373,-173 373,-173 373,-173 1058.53,-173 1058.53,-173"/>
<polygon fill="black" stroke="black" points="1058.53,-176.5 1068.53,-173 1058.53,-169.5 1058.53,-176.5"/>
</g>
<!-- UpdateTrackerService -->
<g id="node11" class="node">
<title>UpdateTrackerService</title>
<ellipse fill="#fdb462" stroke="black" cx="122" cy="-104" rx="97.79" ry="18"/>
<text text-anchor="middle" x="122" y="-99.8" font-family="Times,serif" font-size="14.00">UpdateTrackerService</text>
</g>
<!-- UpdateTrackerService&#45;&gt;CoreModule -->
<g id="edge10" class="edge">
<title>UpdateTrackerService&#45;&gt;CoreModule</title>
<path fill="none" stroke="black" d="M122,-122.01C122,-144.49 122,-180 122,-180 122,-180 1058.5,-180 1058.5,-180"/>
<polygon fill="black" stroke="black" points="1058.5,-183.5 1068.5,-180 1058.5,-176.5 1058.5,-183.5"/>
</g>
</g>
</svg>
