<?xml version="1.0" encoding="UTF-8" standalone="no"?>
<!DOCTYPE svg PUBLIC "-//W3C//DTD SVG 1.1//EN"
 "http://www.w3.org/Graphics/SVG/1.1/DTD/svg11.dtd">
<!-- Generated by graphviz version 2.47.0 (20210316.0004)
 -->
<!-- Title: dependencies Pages: 1 -->
<svg width="2040pt" height="211pt"
 viewBox="0.00 0.00 2040.00 211.00" xmlns="http://www.w3.org/2000/svg" xmlns:xlink="http://www.w3.org/1999/xlink">
<g id="graph0" class="graph" transform="scale(1 1) rotate(0) translate(4 207)">
<title>dependencies</title>
<polygon fill="white" stroke="transparent" points="-4,4 -4,-207 2036,-207 2036,4 -4,4"/>
<text text-anchor="start" x="995.01" y="-42.4" font-family="Times-12" font-weight="bold" font-size="14.00">Legend</text>
<polygon fill="#ffffb3" stroke="transparent" points="782,-10 782,-30 802,-30 802,-10 782,-10"/>
<text text-anchor="start" x="805.63" y="-15.4" font-family="Times-12" font-size="14.00"> &#160;Declarations</text>
<polygon fill="#8dd3c7" stroke="transparent" points="895,-10 895,-30 915,-30 915,-10 895,-10"/>
<text text-anchor="start" x="918.73" y="-15.4" font-family="Times-12" font-size="14.00"> &#160;Module</text>
<polygon fill="#80b1d3" stroke="transparent" points="981,-10 981,-30 1001,-30 1001,-10 981,-10"/>
<text text-anchor="start" x="1004.78" y="-15.4" font-family="Times-12" font-size="14.00"> &#160;Bootstrap</text>
<polygon fill="#fdb462" stroke="transparent" points="1078,-10 1078,-30 1098,-30 1098,-10 1078,-10"/>
<text text-anchor="start" x="1101.67" y="-15.4" font-family="Times-12" font-size="14.00"> &#160;Providers</text>
<polygon fill="#fb8072" stroke="transparent" points="1174,-10 1174,-30 1194,-30 1194,-10 1174,-10"/>
<text text-anchor="start" x="1197.73" y="-15.4" font-family="Times-12" font-size="14.00"> &#160;Exports</text>
<g id="clust1" class="cluster">
<title>cluster_SearchModule</title>
<polygon fill="none" stroke="black" stroke-dasharray="1,5" points="8,-70 8,-195 2024,-195 2024,-70 8,-70"/>
</g>
<g id="clust2" class="cluster">
<title>cluster_SearchModule_declarations</title>
<polygon fill="none" stroke="black" points="1050,-78 1050,-130 2016,-130 2016,-78 1050,-78"/>
</g>
<g id="clust9" class="cluster">
<title>cluster_SearchModule_imports</title>
<polygon fill="none" stroke="black" points="208,-78 208,-130 1042,-130 1042,-78 208,-78"/>
</g>
<g id="clust12" class="cluster">
<title>cluster_SearchModule_providers</title>
<polygon fill="none" stroke="black" points="16,-78 16,-130 200,-130 200,-78 16,-78"/>
</g>
<!-- HomeSearchComponent -->
<g id="node1" class="node">
<title>HomeSearchComponent</title>
<polygon fill="#ffffb3" stroke="black" points="2007.63,-122 1854.37,-122 1854.37,-86 2007.63,-86 2007.63,-122"/>
<text text-anchor="middle" x="1931" y="-99.8" font-family="Times,serif" font-size="14.00">HomeSearchComponent</text>
</g>
<!-- SearchModule -->
<g id="node7" class="node">
<title>SearchModule</title>
<polygon fill="#8dd3c7" stroke="black" points="1011.64,-187 1008.64,-191 987.64,-191 984.64,-187 914.36,-187 914.36,-151 1011.64,-151 1011.64,-187"/>
<text text-anchor="middle" x="963" y="-164.8" font-family="Times,serif" font-size="14.00">SearchModule</text>
</g>
<!-- HomeSearchComponent&#45;&gt;SearchModule -->
<g id="edge1" class="edge">
<title>HomeSearchComponent&#45;&gt;SearchModule</title>
<path fill="none" stroke="black" d="M1931,-122.09C1931,-145.13 1931,-182 1931,-182 1931,-182 1021.67,-182 1021.67,-182"/>
<polygon fill="black" stroke="black" points="1021.67,-178.5 1011.67,-182 1021.67,-185.5 1021.67,-178.5"/>
</g>
<!-- UserDeleteComponent -->
<g id="node2" class="node">
<title>UserDeleteComponent</title>
<polygon fill="#ffffb3" stroke="black" points="1836.29,-122 1691.71,-122 1691.71,-86 1836.29,-86 1836.29,-122"/>
<text text-anchor="middle" x="1764" y="-99.8" font-family="Times,serif" font-size="14.00">UserDeleteComponent</text>
</g>
<!-- UserDeleteComponent&#45;&gt;SearchModule -->
<g id="edge2" class="edge">
<title>UserDeleteComponent&#45;&gt;SearchModule</title>
<path fill="none" stroke="black" d="M1764,-122.04C1764,-143.66 1764,-177 1764,-177 1764,-177 1021.9,-177 1021.9,-177"/>
<polygon fill="black" stroke="black" points="1021.9,-173.5 1011.9,-177 1021.9,-180.5 1021.9,-173.5"/>
</g>
<!-- UserEditComponent -->
<g id="node3" class="node">
<title>UserEditComponent</title>
<polygon fill="#ffffb3" stroke="black" points="1673.59,-122 1542.41,-122 1542.41,-86 1673.59,-86 1673.59,-122"/>
<text text-anchor="middle" x="1608" y="-99.8" font-family="Times,serif" font-size="14.00">UserEditComponent</text>
</g>
<!-- UserEditComponent&#45;&gt;SearchModule -->
<g id="edge3" class="edge">
<title>UserEditComponent&#45;&gt;SearchModule</title>
<path fill="none" stroke="black" d="M1608,-122.22C1608,-142.37 1608,-172 1608,-172 1608,-172 1021.74,-172 1021.74,-172"/>
<polygon fill="black" stroke="black" points="1021.74,-168.5 1011.74,-172 1021.74,-175.5 1021.74,-168.5"/>
</g>
<!-- UserFilterComponent -->
<g id="node4" class="node">
<title>UserFilterComponent</title>
<polygon fill="#ffffb3" stroke="black" points="1524.09,-122 1385.91,-122 1385.91,-86 1524.09,-86 1524.09,-122"/>
<text text-anchor="middle" x="1455" y="-99.8" font-family="Times,serif" font-size="14.00">UserFilterComponent</text>
</g>
<!-- UserFilterComponent&#45;&gt;SearchModule -->
<g id="edge4" class="edge">
<title>UserFilterComponent&#45;&gt;SearchModule</title>
<path fill="none" stroke="black" d="M1455,-122.22C1455,-140.83 1455,-167 1455,-167 1455,-167 1021.97,-167 1021.97,-167"/>
<polygon fill="black" stroke="black" points="1021.97,-163.5 1011.97,-167 1021.97,-170.5 1021.97,-163.5"/>
</g>
<!-- UserProfileComponent -->
<g id="node5" class="node">
<title>UserProfileComponent</title>
<polygon fill="#ffffb3" stroke="black" points="1367.86,-122 1222.14,-122 1222.14,-86 1367.86,-86 1367.86,-122"/>
<text text-anchor="middle" x="1295" y="-99.8" font-family="Times,serif" font-size="14.00">UserProfileComponent</text>
</g>
<!-- UserProfileComponent&#45;&gt;SearchModule -->
<g id="edge5" class="edge">
<title>UserProfileComponent&#45;&gt;SearchModule</title>
<path fill="none" stroke="black" d="M1295,-122.03C1295,-139.06 1295,-162 1295,-162 1295,-162 1021.99,-162 1021.99,-162"/>
<polygon fill="black" stroke="black" points="1021.99,-158.5 1011.99,-162 1021.99,-165.5 1021.99,-158.5"/>
</g>
<!-- UserSearchComponent -->
<g id="node6" class="node">
<title>UserSearchComponent</title>
<polygon fill="#ffffb3" stroke="black" points="1203.85,-122 1058.15,-122 1058.15,-86 1203.85,-86 1203.85,-122"/>
<text text-anchor="middle" x="1131" y="-99.8" font-family="Times,serif" font-size="14.00">UserSearchComponent</text>
</g>
<!-- UserSearchComponent&#45;&gt;SearchModule -->
<g id="edge6" class="edge">
<title>UserSearchComponent&#45;&gt;SearchModule</title>
<path fill="none" stroke="black" d="M1131,-122.24C1131,-137.57 1131,-157 1131,-157 1131,-157 1022.04,-157 1022.04,-157"/>
<polygon fill="black" stroke="black" points="1022.04,-153.5 1012.04,-157 1022.04,-160.5 1022.04,-153.5"/>
</g>
<!-- ContentSearchModule -->
<g id="node8" class="node">
<title>ContentSearchModule</title>
<polygon fill="#8dd3c7" stroke="black" points="1033.97,-122 1030.97,-126 1009.97,-126 1006.97,-122 892.03,-122 892.03,-86 1033.97,-86 1033.97,-122"/>
<text text-anchor="middle" x="963" y="-99.8" font-family="Times,serif" font-size="14.00">ContentSearchModule</text>
</g>
<!-- ContentSearchModule&#45;&gt;SearchModule -->
<g id="edge7" class="edge">
<title>ContentSearchModule&#45;&gt;SearchModule</title>
<path fill="none" stroke="black" d="M963,-122.11C963,-122.11 963,-140.99 963,-140.99"/>
<polygon fill="black" stroke="black" points="959.5,-140.99 963,-150.99 966.5,-140.99 959.5,-140.99"/>
</g>
<!-- CoreModule -->
<g id="node9" class="node">
<title>CoreModule</title>
<polygon fill="#8dd3c7" stroke="black" points="874.26,-122 871.26,-126 850.26,-126 847.26,-122 787.74,-122 787.74,-86 874.26,-86 874.26,-122"/>
<text text-anchor="middle" x="831" y="-99.8" font-family="Times,serif" font-size="14.00">CoreModule</text>
</g>
<!-- CoreModule&#45;&gt;SearchModule -->
<g id="edge8" class="edge">
<title>CoreModule&#45;&gt;SearchModule</title>
<path fill="none" stroke="black" d="M831,-122.24C831,-137.57 831,-157 831,-157 831,-157 904.22,-157 904.22,-157"/>
<polygon fill="black" stroke="black" points="904.22,-160.5 914.22,-157 904.22,-153.5 904.22,-160.5"/>
</g>
<!-- SearchRoutingModule -->
<g id="node10" class="node">
<title>SearchRoutingModule</title>
<polygon fill="#8dd3c7" stroke="black" points="769.25,-122 766.25,-126 745.25,-126 742.25,-122 626.75,-122 626.75,-86 769.25,-86 769.25,-122"/>
<text text-anchor="middle" x="698" y="-99.8" font-family="Times,serif" font-size="14.00">SearchRoutingModule</text>
</g>
<!-- SearchRoutingModule&#45;&gt;SearchModule -->
<g id="edge9" class="edge">
<title>SearchRoutingModule&#45;&gt;SearchModule</title>
<path fill="none" stroke="black" d="M698,-122.03C698,-139.06 698,-162 698,-162 698,-162 904.09,-162 904.09,-162"/>
<polygon fill="black" stroke="black" points="904.09,-165.5 914.09,-162 904.09,-158.5 904.09,-165.5"/>
</g>
<!-- SharedFeatureModule -->
<g id="node11" class="node">
<title>SharedFeatureModule</title>
<polygon fill="#8dd3c7" stroke="black" points="608.4,-122 605.4,-126 584.4,-126 581.4,-122 467.6,-122 467.6,-86 608.4,-86 608.4,-122"/>
<text text-anchor="middle" x="538" y="-99.8" font-family="Times,serif" font-size="14.00">SharedFeatureModule</text>
</g>
<!-- SharedFeatureModule&#45;&gt;SearchModule -->
<g id="edge10" class="edge">
<title>SharedFeatureModule&#45;&gt;SearchModule</title>
<path fill="none" stroke="black" d="M538,-122.22C538,-140.83 538,-167 538,-167 538,-167 904.25,-167 904.25,-167"/>
<polygon fill="black" stroke="black" points="904.25,-170.5 914.25,-167 904.25,-163.5 904.25,-170.5"/>
</g>
<!-- SharedModule -->
<g id="node12" class="node">
<title>SharedModule</title>
<polygon fill="#8dd3c7" stroke="black" points="450.42,-122 447.42,-126 426.42,-126 423.42,-122 351.58,-122 351.58,-86 450.42,-86 450.42,-122"/>
<text text-anchor="middle" x="401" y="-99.8" font-family="Times,serif" font-size="14.00">SharedModule</text>
</g>
<!-- SharedModule&#45;&gt;SearchModule -->
<g id="edge11" class="edge">
<title>SharedModule&#45;&gt;SearchModule</title>
<path fill="none" stroke="black" d="M401,-122.22C401,-142.37 401,-172 401,-172 401,-172 904.11,-172 904.11,-172"/>
<polygon fill="black" stroke="black" points="904.11,-175.5 914.11,-172 904.11,-168.5 904.11,-175.5"/>
</g>
<!-- TelemetryModule -->
<g id="node13" class="node">
<title>TelemetryModule</title>
<polygon fill="#8dd3c7" stroke="black" points="333.58,-122 330.58,-126 309.58,-126 306.58,-122 216.42,-122 216.42,-86 333.58,-86 333.58,-122"/>
<text text-anchor="middle" x="275" y="-99.8" font-family="Times,serif" font-size="14.00">TelemetryModule</text>
</g>
<!-- TelemetryModule&#45;&gt;SearchModule -->
<g id="edge12" class="edge">
<title>TelemetryModule&#45;&gt;SearchModule</title>
<path fill="none" stroke="black" d="M275,-122.04C275,-143.66 275,-177 275,-177 275,-177 904.35,-177 904.35,-177"/>
<polygon fill="black" stroke="black" points="904.35,-180.5 914.35,-177 904.35,-173.5 904.35,-180.5"/>
</g>
<!-- UserSearchService -->
<g id="node14" class="node">
<title>UserSearchService</title>
<ellipse fill="#fdb462" stroke="black" cx="108" cy="-104" rx="84.48" ry="18"/>
<text text-anchor="middle" x="108" y="-99.8" font-family="Times,serif" font-size="14.00">UserSearchService</text>
</g>
<!-- UserSearchService&#45;&gt;SearchModule -->
<g id="edge13" class="edge">
<title>UserSearchService&#45;&gt;SearchModule</title>
<path fill="none" stroke="black" d="M108,-122.09C108,-145.13 108,-182 108,-182 108,-182 904.27,-182 904.27,-182"/>
<polygon fill="black" stroke="black" points="904.27,-185.5 914.27,-182 904.27,-178.5 904.27,-185.5"/>
</g>
</g>
</svg>
