<?xml version="1.0" encoding="UTF-8" standalone="no"?>
<!DOCTYPE svg PUBLIC "-//W3C//DTD SVG 1.1//EN"
 "http://www.w3.org/Graphics/SVG/1.1/DTD/svg11.dtd">
<!-- Generated by graphviz version 2.47.0 (20210316.0004)
 -->
<!-- Title: dependencies Pages: 1 -->
<svg width="1263pt" height="211pt"
 viewBox="0.00 0.00 1263.00 211.00" xmlns="http://www.w3.org/2000/svg" xmlns:xlink="http://www.w3.org/1999/xlink">
<g id="graph0" class="graph" transform="scale(1 1) rotate(0) translate(4 207)">
<title>dependencies</title>
<polygon fill="white" stroke="transparent" points="-4,4 -4,-207 1259,-207 1259,4 -4,4"/>
<text text-anchor="start" x="606.51" y="-42.4" font-family="Times-12" font-weight="bold" font-size="14.00">Legend</text>
<polygon fill="#ffffb3" stroke="transparent" points="393.5,-10 393.5,-30 413.5,-30 413.5,-10 393.5,-10"/>
<text text-anchor="start" x="417.13" y="-15.4" font-family="Times-12" font-size="14.00"> &#160;Declarations</text>
<polygon fill="#8dd3c7" stroke="transparent" points="506.5,-10 506.5,-30 526.5,-30 526.5,-10 506.5,-10"/>
<text text-anchor="start" x="530.23" y="-15.4" font-family="Times-12" font-size="14.00"> &#160;Module</text>
<polygon fill="#80b1d3" stroke="transparent" points="592.5,-10 592.5,-30 612.5,-30 612.5,-10 592.5,-10"/>
<text text-anchor="start" x="616.28" y="-15.4" font-family="Times-12" font-size="14.00"> &#160;Bootstrap</text>
<polygon fill="#fdb462" stroke="transparent" points="689.5,-10 689.5,-30 709.5,-30 709.5,-10 689.5,-10"/>
<text text-anchor="start" x="713.17" y="-15.4" font-family="Times-12" font-size="14.00"> &#160;Providers</text>
<polygon fill="#fb8072" stroke="transparent" points="785.5,-10 785.5,-30 805.5,-30 805.5,-10 785.5,-10"/>
<text text-anchor="start" x="809.23" y="-15.4" font-family="Times-12" font-size="14.00"> &#160;Exports</text>
<g id="clust1" class="cluster">
<title>cluster_BatchModule</title>
<polygon fill="none" stroke="black" stroke-dasharray="1,5" points="8,-70 8,-195 1247,-195 1247,-70 8,-70"/>
</g>
<g id="clust2" class="cluster">
<title>cluster_BatchModule_declarations</title>
<polygon fill="none" stroke="black" points="693,-78 693,-130 1239,-130 1239,-78 693,-78"/>
</g>
<g id="clust6" class="cluster">
<title>cluster_BatchModule_imports</title>
<polygon fill="none" stroke="black" points="16,-78 16,-130 685,-130 685,-78 16,-78"/>
</g>
<!-- CreateBatchComponent -->
<g id="node1" class="node">
<title>CreateBatchComponent</title>
<polygon fill="#ffffb3" stroke="black" points="1231.02,-122 1080.98,-122 1080.98,-86 1231.02,-86 1231.02,-122"/>
<text text-anchor="middle" x="1156" y="-99.8" font-family="Times,serif" font-size="14.00">CreateBatchComponent</text>
</g>
<!-- BatchModule -->
<g id="node4" class="node">
<title>BatchModule</title>
<polygon fill="#8dd3c7" stroke="black" points="589.21,-187 586.21,-191 565.21,-191 562.21,-187 496.79,-187 496.79,-151 589.21,-151 589.21,-187"/>
<text text-anchor="middle" x="543" y="-164.8" font-family="Times,serif" font-size="14.00">BatchModule</text>
</g>
<!-- CreateBatchComponent&#45;&gt;BatchModule -->
<g id="edge1" class="edge">
<title>CreateBatchComponent&#45;&gt;BatchModule</title>
<path fill="none" stroke="black" d="M1156,-122.29C1156,-144.21 1156,-178 1156,-178 1156,-178 599.33,-178 599.33,-178"/>
<polygon fill="black" stroke="black" points="599.33,-174.5 589.33,-178 599.33,-181.5 599.33,-174.5"/>
</g>
<!-- EnrollBatchComponent -->
<g id="node2" class="node">
<title>EnrollBatchComponent</title>
<polygon fill="#ffffb3" stroke="black" points="1062.48,-122 913.52,-122 913.52,-86 1062.48,-86 1062.48,-122"/>
<text text-anchor="middle" x="988" y="-99.8" font-family="Times,serif" font-size="14.00">EnrollBatchComponent</text>
</g>
<!-- EnrollBatchComponent&#45;&gt;BatchModule -->
<g id="edge2" class="edge">
<title>EnrollBatchComponent&#45;&gt;BatchModule</title>
<path fill="none" stroke="black" d="M988,-122.11C988,-141.34 988,-169 988,-169 988,-169 599.36,-169 599.36,-169"/>
<polygon fill="black" stroke="black" points="599.36,-165.5 589.36,-169 599.36,-172.5 599.36,-165.5"/>
</g>
<!-- UpdateCourseBatchComponent -->
<g id="node3" class="node">
<title>UpdateCourseBatchComponent</title>
<polygon fill="#ffffb3" stroke="black" points="895.07,-122 700.93,-122 700.93,-86 895.07,-86 895.07,-122"/>
<text text-anchor="middle" x="798" y="-99.8" font-family="Times,serif" font-size="14.00">UpdateCourseBatchComponent</text>
</g>
<!-- UpdateCourseBatchComponent&#45;&gt;BatchModule -->
<g id="edge3" class="edge">
<title>UpdateCourseBatchComponent&#45;&gt;BatchModule</title>
<path fill="none" stroke="black" d="M798,-122.03C798,-138.4 798,-160 798,-160 798,-160 599.18,-160 599.18,-160"/>
<polygon fill="black" stroke="black" points="599.18,-156.5 589.18,-160 599.18,-163.5 599.18,-156.5"/>
</g>
<!-- BatchRoutingModule -->
<g id="node5" class="node">
<title>BatchRoutingModule</title>
<polygon fill="#8dd3c7" stroke="black" points="676.82,-122 673.82,-126 652.82,-126 649.82,-122 539.18,-122 539.18,-86 676.82,-86 676.82,-122"/>
<text text-anchor="middle" x="608" y="-99.8" font-family="Times,serif" font-size="14.00">BatchRoutingModule</text>
</g>
<!-- BatchRoutingModule&#45;&gt;BatchModule -->
<g id="edge4" class="edge">
<title>BatchRoutingModule&#45;&gt;BatchModule</title>
<path fill="none" stroke="black" d="M564.22,-122.11C564.22,-122.11 564.22,-140.99 564.22,-140.99"/>
<polygon fill="black" stroke="black" points="560.72,-140.99 564.22,-150.99 567.72,-140.99 560.72,-140.99"/>
</g>
<!-- CoreModule -->
<g id="node6" class="node">
<title>CoreModule</title>
<polygon fill="#8dd3c7" stroke="black" points="521.26,-122 518.26,-126 497.26,-126 494.26,-122 434.74,-122 434.74,-86 521.26,-86 521.26,-122"/>
<text text-anchor="middle" x="478" y="-99.8" font-family="Times,serif" font-size="14.00">CoreModule</text>
</g>
<!-- CoreModule&#45;&gt;BatchModule -->
<g id="edge5" class="edge">
<title>CoreModule&#45;&gt;BatchModule</title>
<path fill="none" stroke="black" d="M509.14,-122.11C509.14,-122.11 509.14,-140.99 509.14,-140.99"/>
<polygon fill="black" stroke="black" points="505.64,-140.99 509.14,-150.99 512.64,-140.99 505.64,-140.99"/>
</g>
<!-- SharedFeatureModule -->
<g id="node7" class="node">
<title>SharedFeatureModule</title>
<polygon fill="#8dd3c7" stroke="black" points="416.4,-122 413.4,-126 392.4,-126 389.4,-122 275.6,-122 275.6,-86 416.4,-86 416.4,-122"/>
<text text-anchor="middle" x="346" y="-99.8" font-family="Times,serif" font-size="14.00">SharedFeatureModule</text>
</g>
<!-- SharedFeatureModule&#45;&gt;BatchModule -->
<g id="edge6" class="edge">
<title>SharedFeatureModule&#45;&gt;BatchModule</title>
<path fill="none" stroke="black" d="M346,-122.03C346,-138.4 346,-160 346,-160 346,-160 486.81,-160 486.81,-160"/>
<polygon fill="black" stroke="black" points="486.81,-163.5 496.81,-160 486.81,-156.5 486.81,-163.5"/>
</g>
<!-- SharedModule -->
<g id="node8" class="node">
<title>SharedModule</title>
<polygon fill="#8dd3c7" stroke="black" points="258.42,-122 255.42,-126 234.42,-126 231.42,-122 159.58,-122 159.58,-86 258.42,-86 258.42,-122"/>
<text text-anchor="middle" x="209" y="-99.8" font-family="Times,serif" font-size="14.00">SharedModule</text>
</g>
<!-- SharedModule&#45;&gt;BatchModule -->
<g id="edge7" class="edge">
<title>SharedModule&#45;&gt;BatchModule</title>
<path fill="none" stroke="black" d="M209,-122.11C209,-141.34 209,-169 209,-169 209,-169 486.56,-169 486.56,-169"/>
<polygon fill="black" stroke="black" points="486.56,-172.5 496.56,-169 486.56,-165.5 486.56,-172.5"/>
</g>
<!-- TelemetryModule -->
<g id="node9" class="node">
<title>TelemetryModule</title>
<polygon fill="#8dd3c7" stroke="black" points="141.58,-122 138.58,-126 117.58,-126 114.58,-122 24.42,-122 24.42,-86 141.58,-86 141.58,-122"/>
<text text-anchor="middle" x="83" y="-99.8" font-family="Times,serif" font-size="14.00">TelemetryModule</text>
</g>
<!-- TelemetryModule&#45;&gt;BatchModule -->
<g id="edge8" class="edge">
<title>TelemetryModule&#45;&gt;BatchModule</title>
<path fill="none" stroke="black" d="M83,-122.29C83,-144.21 83,-178 83,-178 83,-178 486.79,-178 486.79,-178"/>
<polygon fill="black" stroke="black" points="486.79,-181.5 496.79,-178 486.79,-174.5 486.79,-181.5"/>
</g>
</g>
</svg>
