<?xml version="1.0" encoding="UTF-8" standalone="no"?>
<!DOCTYPE svg PUBLIC "-//W3C//DTD SVG 1.1//EN"
 "http://www.w3.org/Graphics/SVG/1.1/DTD/svg11.dtd">
<!-- Generated by graphviz version 2.47.0 (20210316.0004)
 -->
<!-- Title: dependencies Pages: 1 -->
<svg width="504pt" height="211pt"
 viewBox="0.00 0.00 504.00 211.00" xmlns="http://www.w3.org/2000/svg" xmlns:xlink="http://www.w3.org/1999/xlink">
<g id="graph0" class="graph" transform="scale(1 1) rotate(0) translate(4 207)">
<title>dependencies</title>
<polygon fill="white" stroke="transparent" points="-4,4 -4,-207 500,-207 500,4 -4,4"/>
<text text-anchor="start" x="227.01" y="-42.4" font-family="Times-12" font-weight="bold" font-size="14.00">Legend</text>
<polygon fill="#ffffb3" stroke="transparent" points="14,-10 14,-30 34,-30 34,-10 14,-10"/>
<text text-anchor="start" x="37.63" y="-15.4" font-family="Times-12" font-size="14.00"> &#160;Declarations</text>
<polygon fill="#8dd3c7" stroke="transparent" points="127,-10 127,-30 147,-30 147,-10 127,-10"/>
<text text-anchor="start" x="150.73" y="-15.4" font-family="Times-12" font-size="14.00"> &#160;Module</text>
<polygon fill="#80b1d3" stroke="transparent" points="213,-10 213,-30 233,-30 233,-10 213,-10"/>
<text text-anchor="start" x="236.78" y="-15.4" font-family="Times-12" font-size="14.00"> &#160;Bootstrap</text>
<polygon fill="#fdb462" stroke="transparent" points="310,-10 310,-30 330,-30 330,-10 310,-10"/>
<text text-anchor="start" x="333.67" y="-15.4" font-family="Times-12" font-size="14.00"> &#160;Providers</text>
<polygon fill="#fb8072" stroke="transparent" points="406,-10 406,-30 426,-30 426,-10 406,-10"/>
<text text-anchor="start" x="429.73" y="-15.4" font-family="Times-12" font-size="14.00"> &#160;Exports</text>
<g id="clust1" class="cluster">
<title>cluster_ProfileSettingsPageModule</title>
<polygon fill="none" stroke="black" stroke-dasharray="1,5" points="98,-70 98,-195 398,-195 398,-70 98,-70"/>
</g>
<g id="clust2" class="cluster">
<title>cluster_ProfileSettingsPageModule_declarations</title>
<polygon fill="none" stroke="black" points="248,-78 248,-130 390,-130 390,-78 248,-78"/>
</g>
<g id="clust4" class="cluster">
<title>cluster_ProfileSettingsPageModule_imports</title>
<polygon fill="none" stroke="black" points="106,-78 106,-130 240,-130 240,-78 106,-78"/>
</g>
<!-- ProfileSettingsPage -->
<g id="node1" class="node">
<title>ProfileSettingsPage</title>
<polygon fill="#ffffb3" stroke="black" points="382.43,-122 255.57,-122 255.57,-86 382.43,-86 382.43,-122"/>
<text text-anchor="middle" x="319" y="-99.8" font-family="Times,serif" font-size="14.00">ProfileSettingsPage</text>
</g>
<!-- ProfileSettingsPageModule -->
<g id="node2" class="node">
<title>ProfileSettingsPageModule</title>
<polygon fill="#8dd3c7" stroke="black" points="332.97,-187 329.97,-191 308.97,-191 305.97,-187 163.03,-187 163.03,-151 332.97,-151 332.97,-187"/>
<text text-anchor="middle" x="248" y="-164.8" font-family="Times,serif" font-size="14.00">ProfileSettingsPageModule</text>
</g>
<!-- ProfileSettingsPage&#45;&gt;ProfileSettingsPageModule -->
<g id="edge1" class="edge">
<title>ProfileSettingsPage&#45;&gt;ProfileSettingsPageModule</title>
<path fill="none" stroke="black" d="M294.39,-122.11C294.39,-122.11 294.39,-140.99 294.39,-140.99"/>
<polygon fill="black" stroke="black" points="290.89,-140.99 294.39,-150.99 297.89,-140.99 290.89,-140.99"/>
</g>
<!-- DirectivesModule -->
<g id="node3" class="node">
<title>DirectivesModule</title>
<polygon fill="#8dd3c7" stroke="black" points="231.58,-122 228.58,-126 207.58,-126 204.58,-122 114.42,-122 114.42,-86 231.58,-86 231.58,-122"/>
<text text-anchor="middle" x="173" y="-99.8" font-family="Times,serif" font-size="14.00">DirectivesModule</text>
</g>
<!-- DirectivesModule&#45;&gt;ProfileSettingsPageModule -->
<g id="edge2" class="edge">
<title>DirectivesModule&#45;&gt;ProfileSettingsPageModule</title>
<path fill="none" stroke="black" d="M197.28,-122.11C197.28,-122.11 197.28,-140.99 197.28,-140.99"/>
<polygon fill="black" stroke="black" points="193.78,-140.99 197.28,-150.99 200.78,-140.99 193.78,-140.99"/>
</g>
</g>
</svg>
