<?xml version="1.0" encoding="UTF-8" standalone="no"?>
<!DOCTYPE svg PUBLIC "-//W3C//DTD SVG 1.1//EN"
 "http://www.w3.org/Graphics/SVG/1.1/DTD/svg11.dtd">
<!-- Generated by graphviz version 2.47.0 (20210316.0004)
 -->
<!-- Title: dependencies Pages: 1 -->
<svg width="1780pt" height="211pt"
 viewBox="0.00 0.00 1780.00 211.00" xmlns="http://www.w3.org/2000/svg" xmlns:xlink="http://www.w3.org/1999/xlink">
<g id="graph0" class="graph" transform="scale(1 1) rotate(0) translate(4 207)">
<title>dependencies</title>
<polygon fill="white" stroke="transparent" points="-4,4 -4,-207 1776,-207 1776,4 -4,4"/>
<text text-anchor="start" x="865.01" y="-42.4" font-family="Times-12" font-weight="bold" font-size="14.00">Legend</text>
<polygon fill="#ffffb3" stroke="transparent" points="652,-10 652,-30 672,-30 672,-10 652,-10"/>
<text text-anchor="start" x="675.63" y="-15.4" font-family="Times-12" font-size="14.00"> &#160;Declarations</text>
<polygon fill="#8dd3c7" stroke="transparent" points="765,-10 765,-30 785,-30 785,-10 765,-10"/>
<text text-anchor="start" x="788.73" y="-15.4" font-family="Times-12" font-size="14.00"> &#160;Module</text>
<polygon fill="#80b1d3" stroke="transparent" points="851,-10 851,-30 871,-30 871,-10 851,-10"/>
<text text-anchor="start" x="874.78" y="-15.4" font-family="Times-12" font-size="14.00"> &#160;Bootstrap</text>
<polygon fill="#fdb462" stroke="transparent" points="948,-10 948,-30 968,-30 968,-10 948,-10"/>
<text text-anchor="start" x="971.67" y="-15.4" font-family="Times-12" font-size="14.00"> &#160;Providers</text>
<polygon fill="#fb8072" stroke="transparent" points="1044,-10 1044,-30 1064,-30 1064,-10 1044,-10"/>
<text text-anchor="start" x="1067.73" y="-15.4" font-family="Times-12" font-size="14.00"> &#160;Exports</text>
<g id="clust1" class="cluster">
<title>cluster_CertificateModule</title>
<polygon fill="none" stroke="black" stroke-dasharray="1,5" points="8,-70 8,-195 1764,-195 1764,-70 8,-70"/>
</g>
<g id="clust2" class="cluster">
<title>cluster_CertificateModule_declarations</title>
<polygon fill="none" stroke="black" points="766,-78 766,-130 1756,-130 1756,-78 766,-78"/>
</g>
<g id="clust8" class="cluster">
<title>cluster_CertificateModule_imports</title>
<polygon fill="none" stroke="black" points="16,-78 16,-130 758,-130 758,-78 16,-78"/>
</g>
<!-- BrowseImagePopupComponent -->
<g id="node1" class="node">
<title>BrowseImagePopupComponent</title>
<polygon fill="#ffffb3" stroke="black" points="1748.36,-122 1553.64,-122 1553.64,-86 1748.36,-86 1748.36,-122"/>
<text text-anchor="middle" x="1651" y="-99.8" font-family="Times,serif" font-size="14.00">BrowseImagePopupComponent</text>
</g>
<!-- CertificateModule -->
<g id="node6" class="node">
<title>CertificateModule</title>
<polygon fill="#8dd3c7" stroke="black" points="814.13,-187 811.13,-191 790.13,-191 787.13,-187 695.87,-187 695.87,-151 814.13,-151 814.13,-187"/>
<text text-anchor="middle" x="755" y="-164.8" font-family="Times,serif" font-size="14.00">CertificateModule</text>
</g>
<!-- BrowseImagePopupComponent&#45;&gt;CertificateModule -->
<g id="edge1" class="edge">
<title>BrowseImagePopupComponent&#45;&gt;CertificateModule</title>
<path fill="none" stroke="black" d="M1651,-122.01C1651,-144.49 1651,-180 1651,-180 1651,-180 824.14,-180 824.14,-180"/>
<polygon fill="black" stroke="black" points="824.14,-176.5 814.14,-180 824.14,-183.5 824.14,-176.5"/>
</g>
<!-- CertificateConfigurationComponent -->
<g id="node2" class="node">
<title>CertificateConfigurationComponent</title>
<polygon fill="#ffffb3" stroke="black" points="1535.46,-122 1316.54,-122 1316.54,-86 1535.46,-86 1535.46,-122"/>
<text text-anchor="middle" x="1426" y="-99.8" font-family="Times,serif" font-size="14.00">CertificateConfigurationComponent</text>
</g>
<!-- CertificateConfigurationComponent&#45;&gt;CertificateModule -->
<g id="edge2" class="edge">
<title>CertificateConfigurationComponent&#45;&gt;CertificateModule</title>
<path fill="none" stroke="black" d="M1426,-122.13C1426,-142.57 1426,-173 1426,-173 1426,-173 824.25,-173 824.25,-173"/>
<polygon fill="black" stroke="black" points="824.25,-169.5 814.25,-173 824.25,-176.5 824.25,-169.5"/>
</g>
<!-- CertificateDetailsComponent -->
<g id="node3" class="node">
<title>CertificateDetailsComponent</title>
<polygon fill="#ffffb3" stroke="black" points="1298.06,-122 1117.94,-122 1117.94,-86 1298.06,-86 1298.06,-122"/>
<text text-anchor="middle" x="1208" y="-99.8" font-family="Times,serif" font-size="14.00">CertificateDetailsComponent</text>
</g>
<!-- CertificateDetailsComponent&#45;&gt;CertificateModule -->
<g id="edge3" class="edge">
<title>CertificateDetailsComponent&#45;&gt;CertificateModule</title>
<path fill="none" stroke="black" d="M1208,-122.27C1208,-140.56 1208,-166 1208,-166 1208,-166 824.22,-166 824.22,-166"/>
<polygon fill="black" stroke="black" points="824.22,-162.5 814.22,-166 824.22,-169.5 824.22,-162.5"/>
</g>
<!-- CreateTemplateComponent -->
<g id="node4" class="node">
<title>CreateTemplateComponent</title>
<polygon fill="#ffffb3" stroke="black" points="1100.23,-122 929.77,-122 929.77,-86 1100.23,-86 1100.23,-122"/>
<text text-anchor="middle" x="1015" y="-99.8" font-family="Times,serif" font-size="14.00">CreateTemplateComponent</text>
</g>
<!-- CreateTemplateComponent&#45;&gt;CertificateModule -->
<g id="edge4" class="edge">
<title>CreateTemplateComponent&#45;&gt;CertificateModule</title>
<path fill="none" stroke="black" d="M1015,-122.01C1015,-138.05 1015,-159 1015,-159 1015,-159 824.32,-159 824.32,-159"/>
<polygon fill="black" stroke="black" points="824.32,-155.5 814.32,-159 824.32,-162.5 824.32,-155.5"/>
</g>
<!-- SvgEditorComponent -->
<g id="node5" class="node">
<title>SvgEditorComponent</title>
<polygon fill="#ffffb3" stroke="black" points="912.11,-122 773.89,-122 773.89,-86 912.11,-86 912.11,-122"/>
<text text-anchor="middle" x="843" y="-99.8" font-family="Times,serif" font-size="14.00">SvgEditorComponent</text>
</g>
<!-- SvgEditorComponent&#45;&gt;CertificateModule -->
<g id="edge5" class="edge">
<title>SvgEditorComponent&#45;&gt;CertificateModule</title>
<path fill="none" stroke="black" d="M794.13,-122.11C794.13,-122.11 794.13,-140.99 794.13,-140.99"/>
<polygon fill="black" stroke="black" points="790.63,-140.99 794.13,-150.99 797.63,-140.99 790.63,-140.99"/>
</g>
<!-- CertificateRoutingModule -->
<g id="node7" class="node">
<title>CertificateRoutingModule</title>
<polygon fill="#8dd3c7" stroke="black" points="749.75,-122 746.75,-126 725.75,-126 722.75,-122 586.25,-122 586.25,-86 749.75,-86 749.75,-122"/>
<text text-anchor="middle" x="668" y="-99.8" font-family="Times,serif" font-size="14.00">CertificateRoutingModule</text>
</g>
<!-- CertificateRoutingModule&#45;&gt;CertificateModule -->
<g id="edge6" class="edge">
<title>CertificateRoutingModule&#45;&gt;CertificateModule</title>
<path fill="none" stroke="black" d="M722.78,-122.11C722.78,-122.11 722.78,-140.99 722.78,-140.99"/>
<polygon fill="black" stroke="black" points="719.28,-140.99 722.78,-150.99 726.28,-140.99 719.28,-140.99"/>
</g>
<!-- PlayerHelperModule -->
<g id="node8" class="node">
<title>PlayerHelperModule</title>
<polygon fill="#8dd3c7" stroke="black" points="567.9,-122 564.9,-126 543.9,-126 540.9,-122 434.1,-122 434.1,-86 567.9,-86 567.9,-122"/>
<text text-anchor="middle" x="501" y="-99.8" font-family="Times,serif" font-size="14.00">PlayerHelperModule</text>
</g>
<!-- PlayerHelperModule&#45;&gt;CertificateModule -->
<g id="edge7" class="edge">
<title>PlayerHelperModule&#45;&gt;CertificateModule</title>
<path fill="none" stroke="black" d="M501,-122.01C501,-138.05 501,-159 501,-159 501,-159 685.77,-159 685.77,-159"/>
<polygon fill="black" stroke="black" points="685.77,-162.5 695.77,-159 685.77,-155.5 685.77,-162.5"/>
</g>
<!-- SharedFeatureModule -->
<g id="node9" class="node">
<title>SharedFeatureModule</title>
<polygon fill="#8dd3c7" stroke="black" points="416.4,-122 413.4,-126 392.4,-126 389.4,-122 275.6,-122 275.6,-86 416.4,-86 416.4,-122"/>
<text text-anchor="middle" x="346" y="-99.8" font-family="Times,serif" font-size="14.00">SharedFeatureModule</text>
</g>
<!-- SharedFeatureModule&#45;&gt;CertificateModule -->
<g id="edge8" class="edge">
<title>SharedFeatureModule&#45;&gt;CertificateModule</title>
<path fill="none" stroke="black" d="M346,-122.27C346,-140.56 346,-166 346,-166 346,-166 685.53,-166 685.53,-166"/>
<polygon fill="black" stroke="black" points="685.53,-169.5 695.53,-166 685.53,-162.5 685.53,-169.5"/>
</g>
<!-- SharedModule -->
<g id="node10" class="node">
<title>SharedModule</title>
<polygon fill="#8dd3c7" stroke="black" points="258.42,-122 255.42,-126 234.42,-126 231.42,-122 159.58,-122 159.58,-86 258.42,-86 258.42,-122"/>
<text text-anchor="middle" x="209" y="-99.8" font-family="Times,serif" font-size="14.00">SharedModule</text>
</g>
<!-- SharedModule&#45;&gt;CertificateModule -->
<g id="edge9" class="edge">
<title>SharedModule&#45;&gt;CertificateModule</title>
<path fill="none" stroke="black" d="M209,-122.13C209,-142.57 209,-173 209,-173 209,-173 685.79,-173 685.79,-173"/>
<polygon fill="black" stroke="black" points="685.79,-176.5 695.79,-173 685.79,-169.5 685.79,-176.5"/>
</g>
<!-- TelemetryModule -->
<g id="node11" class="node">
<title>TelemetryModule</title>
<polygon fill="#8dd3c7" stroke="black" points="141.58,-122 138.58,-126 117.58,-126 114.58,-122 24.42,-122 24.42,-86 141.58,-86 141.58,-122"/>
<text text-anchor="middle" x="83" y="-99.8" font-family="Times,serif" font-size="14.00">TelemetryModule</text>
</g>
<!-- TelemetryModule&#45;&gt;CertificateModule -->
<g id="edge10" class="edge">
<title>TelemetryModule&#45;&gt;CertificateModule</title>
<path fill="none" stroke="black" d="M83,-122.01C83,-144.49 83,-180 83,-180 83,-180 685.66,-180 685.66,-180"/>
<polygon fill="black" stroke="black" points="685.66,-183.5 695.66,-180 685.66,-176.5 685.66,-183.5"/>
</g>
</g>
</svg>
