<?xml version="1.0" encoding="UTF-8" standalone="no"?>
<!DOCTYPE svg PUBLIC "-//W3C//DTD SVG 1.1//EN"
 "http://www.w3.org/Graphics/SVG/1.1/DTD/svg11.dtd">
<!-- Generated by graphviz version 2.47.0 (20210316.0004)
 -->
<!-- Title: dependencies Pages: 1 -->
<svg width="504pt" height="211pt"
 viewBox="0.00 0.00 504.00 211.00" xmlns="http://www.w3.org/2000/svg" xmlns:xlink="http://www.w3.org/1999/xlink">
<g id="graph0" class="graph" transform="scale(1 1) rotate(0) translate(4 207)">
<title>dependencies</title>
<polygon fill="white" stroke="transparent" points="-4,4 -4,-207 500,-207 500,4 -4,4"/>
<text text-anchor="start" x="227.01" y="-42.4" font-family="Times-12" font-weight="bold" font-size="14.00">Legend</text>
<polygon fill="#ffffb3" stroke="transparent" points="14,-10 14,-30 34,-30 34,-10 14,-10"/>
<text text-anchor="start" x="37.63" y="-15.4" font-family="Times-12" font-size="14.00"> &#160;Declarations</text>
<polygon fill="#8dd3c7" stroke="transparent" points="127,-10 127,-30 147,-30 147,-10 127,-10"/>
<text text-anchor="start" x="150.73" y="-15.4" font-family="Times-12" font-size="14.00"> &#160;Module</text>
<polygon fill="#80b1d3" stroke="transparent" points="213,-10 213,-30 233,-30 233,-10 213,-10"/>
<text text-anchor="start" x="236.78" y="-15.4" font-family="Times-12" font-size="14.00"> &#160;Bootstrap</text>
<polygon fill="#fdb462" stroke="transparent" points="310,-10 310,-30 330,-30 330,-10 310,-10"/>
<text text-anchor="start" x="333.67" y="-15.4" font-family="Times-12" font-size="14.00"> &#160;Providers</text>
<polygon fill="#fb8072" stroke="transparent" points="406,-10 406,-30 426,-30 426,-10 406,-10"/>
<text text-anchor="start" x="429.73" y="-15.4" font-family="Times-12" font-size="14.00"> &#160;Exports</text>
<g id="clust1" class="cluster">
<title>cluster_AttachmentListingPageRoutingModule</title>
<polygon fill="none" stroke="black" stroke-dasharray="1,5" points="122,-70 122,-195 374,-195 374,-70 122,-70"/>
</g>
<g id="clust4" class="cluster">
<title>cluster_AttachmentListingPageRoutingModule_exports</title>
<polygon fill="none" stroke="black" points="135,-135 135,-187 361,-187 361,-135 135,-135"/>
</g>
<!-- CoreModule  -->
<g id="node1" class="node">
<title>CoreModule </title>
<polygon fill="#fb8072" stroke="black" points="353.26,-179 262.74,-179 262.74,-143 353.26,-143 353.26,-179"/>
<text text-anchor="middle" x="308" y="-156.8" font-family="Times,serif" font-size="14.00">CoreModule </text>
</g>
<!-- SharedModule  -->
<g id="node2" class="node">
<title>SharedModule </title>
<polygon fill="#fb8072" stroke="black" points="244.92,-179 143.08,-179 143.08,-143 244.92,-143 244.92,-179"/>
<text text-anchor="middle" x="194" y="-156.8" font-family="Times,serif" font-size="14.00">SharedModule </text>
</g>
<!-- AttachmentListingPageRoutingModule -->
<g id="node3" class="node">
<title>AttachmentListingPageRoutingModule</title>
<polygon fill="#8dd3c7" stroke="black" points="366.36,-114 363.36,-118 342.36,-118 339.36,-114 129.64,-114 129.64,-78 366.36,-78 366.36,-114"/>
<text text-anchor="middle" x="248" y="-91.8" font-family="Times,serif" font-size="14.00">AttachmentListingPageRoutingModule</text>
</g>
<!-- AttachmentListingPageRoutingModule&#45;&gt;CoreModule  -->
<g id="edge1" class="edge">
<title>AttachmentListingPageRoutingModule&#45;&gt;CoreModule </title>
<path fill="none" stroke="black" stroke-dasharray="5,2" d="M308,-114.11C308,-114.11 308,-132.99 308,-132.99"/>
<polygon fill="black" stroke="black" points="304.5,-132.99 308,-142.99 311.5,-132.99 304.5,-132.99"/>
</g>
<!-- AttachmentListingPageRoutingModule&#45;&gt;SharedModule  -->
<g id="edge2" class="edge">
<title>AttachmentListingPageRoutingModule&#45;&gt;SharedModule </title>
<path fill="none" stroke="black" stroke-dasharray="5,2" d="M194,-114.11C194,-114.11 194,-132.99 194,-132.99"/>
<polygon fill="black" stroke="black" points="190.5,-132.99 194,-142.99 197.5,-132.99 190.5,-132.99"/>
</g>
</g>
</svg>
