<?xml version="1.0" encoding="UTF-8" standalone="no"?>
<!DOCTYPE svg PUBLIC "-//W3C//DTD SVG 1.1//EN"
 "http://www.w3.org/Graphics/SVG/1.1/DTD/svg11.dtd">
<!-- Generated by graphviz version 2.47.0 (20210316.0004)
 -->
<!-- Title: dependencies Pages: 1 -->
<svg width="945pt" height="211pt"
 viewBox="0.00 0.00 945.00 211.00" xmlns="http://www.w3.org/2000/svg" xmlns:xlink="http://www.w3.org/1999/xlink">
<g id="graph0" class="graph" transform="scale(1 1) rotate(0) translate(4 207)">
<title>dependencies</title>
<polygon fill="white" stroke="transparent" points="-4,4 -4,-207 941,-207 941,4 -4,4"/>
<text text-anchor="start" x="447.51" y="-42.4" font-family="Times-12" font-weight="bold" font-size="14.00">Legend</text>
<polygon fill="#ffffb3" stroke="transparent" points="234.5,-10 234.5,-30 254.5,-30 254.5,-10 234.5,-10"/>
<text text-anchor="start" x="258.13" y="-15.4" font-family="Times-12" font-size="14.00"> &#160;Declarations</text>
<polygon fill="#8dd3c7" stroke="transparent" points="347.5,-10 347.5,-30 367.5,-30 367.5,-10 347.5,-10"/>
<text text-anchor="start" x="371.23" y="-15.4" font-family="Times-12" font-size="14.00"> &#160;Module</text>
<polygon fill="#80b1d3" stroke="transparent" points="433.5,-10 433.5,-30 453.5,-30 453.5,-10 433.5,-10"/>
<text text-anchor="start" x="457.28" y="-15.4" font-family="Times-12" font-size="14.00"> &#160;Bootstrap</text>
<polygon fill="#fdb462" stroke="transparent" points="530.5,-10 530.5,-30 550.5,-30 550.5,-10 530.5,-10"/>
<text text-anchor="start" x="554.17" y="-15.4" font-family="Times-12" font-size="14.00"> &#160;Providers</text>
<polygon fill="#fb8072" stroke="transparent" points="626.5,-10 626.5,-30 646.5,-30 646.5,-10 626.5,-10"/>
<text text-anchor="start" x="650.23" y="-15.4" font-family="Times-12" font-size="14.00"> &#160;Exports</text>
<g id="clust1" class="cluster">
<title>cluster_GuestProfileModule</title>
<polygon fill="none" stroke="black" stroke-dasharray="1,5" points="8,-70 8,-195 929,-195 929,-70 8,-70"/>
</g>
<g id="clust2" class="cluster">
<title>cluster_GuestProfileModule_declarations</title>
<polygon fill="none" stroke="black" points="753,-78 753,-130 921,-130 921,-78 753,-78"/>
</g>
<g id="clust4" class="cluster">
<title>cluster_GuestProfileModule_imports</title>
<polygon fill="none" stroke="black" points="16,-78 16,-130 745,-130 745,-78 16,-78"/>
</g>
<!-- GuestProfileComponent -->
<g id="node1" class="node">
<title>GuestProfileComponent</title>
<polygon fill="#ffffb3" stroke="black" points="913.09,-122 760.91,-122 760.91,-86 913.09,-86 913.09,-122"/>
<text text-anchor="middle" x="837" y="-99.8" font-family="Times,serif" font-size="14.00">GuestProfileComponent</text>
</g>
<!-- GuestProfileModule -->
<g id="node2" class="node">
<title>GuestProfileModule</title>
<polygon fill="#8dd3c7" stroke="black" points="482.31,-187 479.31,-191 458.31,-191 455.31,-187 351.69,-187 351.69,-151 482.31,-151 482.31,-187"/>
<text text-anchor="middle" x="417" y="-164.8" font-family="Times,serif" font-size="14.00">GuestProfileModule</text>
</g>
<!-- GuestProfileComponent&#45;&gt;GuestProfileModule -->
<g id="edge1" class="edge">
<title>GuestProfileComponent&#45;&gt;GuestProfileModule</title>
<path fill="none" stroke="black" d="M837,-122.28C837,-143.32 837,-175 837,-175 837,-175 492.16,-175 492.16,-175"/>
<polygon fill="black" stroke="black" points="492.16,-171.5 482.16,-175 492.16,-178.5 492.16,-171.5"/>
</g>
<!-- GuestProfileRoutingModule -->
<g id="node3" class="node">
<title>GuestProfileRoutingModule</title>
<polygon fill="#8dd3c7" stroke="black" points="736.92,-122 733.92,-126 712.92,-126 709.92,-122 561.08,-122 561.08,-86 736.92,-86 736.92,-122"/>
<text text-anchor="middle" x="649" y="-99.8" font-family="Times,serif" font-size="14.00">GuestProfileRoutingModule</text>
</g>
<!-- GuestProfileRoutingModule&#45;&gt;GuestProfileModule -->
<g id="edge2" class="edge">
<title>GuestProfileRoutingModule&#45;&gt;GuestProfileModule</title>
<path fill="none" stroke="black" d="M649,-122.02C649,-139.37 649,-163 649,-163 649,-163 492.24,-163 492.24,-163"/>
<polygon fill="black" stroke="black" points="492.24,-159.5 482.24,-163 492.24,-166.5 492.24,-159.5"/>
</g>
<!-- LocationModule -->
<g id="node4" class="node">
<title>LocationModule</title>
<polygon fill="#8dd3c7" stroke="black" points="543.81,-122 540.81,-126 519.81,-126 516.81,-122 434.19,-122 434.19,-86 543.81,-86 543.81,-122"/>
<text text-anchor="middle" x="489" y="-99.8" font-family="Times,serif" font-size="14.00">LocationModule</text>
</g>
<!-- LocationModule&#45;&gt;GuestProfileModule -->
<g id="edge3" class="edge">
<title>LocationModule&#45;&gt;GuestProfileModule</title>
<path fill="none" stroke="black" d="M458.25,-122.11C458.25,-122.11 458.25,-140.99 458.25,-140.99"/>
<polygon fill="black" stroke="black" points="454.75,-140.99 458.25,-150.99 461.75,-140.99 454.75,-140.99"/>
</g>
<!-- SharedFeatureModule -->
<g id="node5" class="node">
<title>SharedFeatureModule</title>
<polygon fill="#8dd3c7" stroke="black" points="416.4,-122 413.4,-126 392.4,-126 389.4,-122 275.6,-122 275.6,-86 416.4,-86 416.4,-122"/>
<text text-anchor="middle" x="346" y="-99.8" font-family="Times,serif" font-size="14.00">SharedFeatureModule</text>
</g>
<!-- SharedFeatureModule&#45;&gt;GuestProfileModule -->
<g id="edge4" class="edge">
<title>SharedFeatureModule&#45;&gt;GuestProfileModule</title>
<path fill="none" stroke="black" d="M384.02,-122.11C384.02,-122.11 384.02,-140.99 384.02,-140.99"/>
<polygon fill="black" stroke="black" points="380.52,-140.99 384.02,-150.99 387.52,-140.99 380.52,-140.99"/>
</g>
<!-- SharedModule -->
<g id="node6" class="node">
<title>SharedModule</title>
<polygon fill="#8dd3c7" stroke="black" points="258.42,-122 255.42,-126 234.42,-126 231.42,-122 159.58,-122 159.58,-86 258.42,-86 258.42,-122"/>
<text text-anchor="middle" x="209" y="-99.8" font-family="Times,serif" font-size="14.00">SharedModule</text>
</g>
<!-- SharedModule&#45;&gt;GuestProfileModule -->
<g id="edge5" class="edge">
<title>SharedModule&#45;&gt;GuestProfileModule</title>
<path fill="none" stroke="black" d="M209,-122.02C209,-139.37 209,-163 209,-163 209,-163 341.76,-163 341.76,-163"/>
<polygon fill="black" stroke="black" points="341.76,-166.5 351.76,-163 341.76,-159.5 341.76,-166.5"/>
</g>
<!-- TelemetryModule -->
<g id="node7" class="node">
<title>TelemetryModule</title>
<polygon fill="#8dd3c7" stroke="black" points="141.58,-122 138.58,-126 117.58,-126 114.58,-122 24.42,-122 24.42,-86 141.58,-86 141.58,-122"/>
<text text-anchor="middle" x="83" y="-99.8" font-family="Times,serif" font-size="14.00">TelemetryModule</text>
</g>
<!-- TelemetryModule&#45;&gt;GuestProfileModule -->
<g id="edge6" class="edge">
<title>TelemetryModule&#45;&gt;GuestProfileModule</title>
<path fill="none" stroke="black" d="M83,-122.28C83,-143.32 83,-175 83,-175 83,-175 341.81,-175 341.81,-175"/>
<polygon fill="black" stroke="black" points="341.81,-178.5 351.81,-175 341.81,-171.5 341.81,-178.5"/>
</g>
</g>
</svg>
