<?xml version="1.0" encoding="UTF-8" standalone="no"?>
<!DOCTYPE svg PUBLIC "-//W3C//DTD SVG 1.1//EN"
 "http://www.w3.org/Graphics/SVG/1.1/DTD/svg11.dtd">
<!-- Generated by graphviz version 2.47.0 (20210316.0004)
 -->
<!-- Title: dependencies Pages: 1 -->
<svg width="1912pt" height="284pt"
 viewBox="0.00 0.00 1912.00 284.00" xmlns="http://www.w3.org/2000/svg" xmlns:xlink="http://www.w3.org/1999/xlink">
<g id="graph0" class="graph" transform="scale(1 1) rotate(0) translate(4 280)">
<title>dependencies</title>
<polygon fill="white" stroke="transparent" points="-4,4 -4,-280 1908,-280 1908,4 -4,4"/>
<text text-anchor="start" x="931.01" y="-42.4" font-family="Times-12" font-weight="bold" font-size="14.00">Legend</text>
<polygon fill="#ffffb3" stroke="transparent" points="718,-10 718,-30 738,-30 738,-10 718,-10"/>
<text text-anchor="start" x="741.63" y="-15.4" font-family="Times-12" font-size="14.00"> &#160;Declarations</text>
<polygon fill="#8dd3c7" stroke="transparent" points="831,-10 831,-30 851,-30 851,-10 831,-10"/>
<text text-anchor="start" x="854.73" y="-15.4" font-family="Times-12" font-size="14.00"> &#160;Module</text>
<polygon fill="#80b1d3" stroke="transparent" points="917,-10 917,-30 937,-30 937,-10 917,-10"/>
<text text-anchor="start" x="940.78" y="-15.4" font-family="Times-12" font-size="14.00"> &#160;Bootstrap</text>
<polygon fill="#fdb462" stroke="transparent" points="1014,-10 1014,-30 1034,-30 1034,-10 1014,-10"/>
<text text-anchor="start" x="1037.67" y="-15.4" font-family="Times-12" font-size="14.00"> &#160;Providers</text>
<polygon fill="#fb8072" stroke="transparent" points="1110,-10 1110,-30 1130,-30 1130,-10 1110,-10"/>
<text text-anchor="start" x="1133.73" y="-15.4" font-family="Times-12" font-size="14.00"> &#160;Exports</text>
<g id="clust1" class="cluster">
<title>cluster_ContentSearchModule</title>
<polygon fill="none" stroke="black" stroke-dasharray="1,5" points="8,-70 8,-268 1896,-268 1896,-70 8,-70"/>
</g>
<g id="clust2" class="cluster">
<title>cluster_ContentSearchModule_declarations</title>
<polygon fill="none" stroke="black" points="432,-78 432,-130 1888,-130 1888,-78 432,-78"/>
</g>
<g id="clust12" class="cluster">
<title>cluster_ContentSearchModule_exports</title>
<polygon fill="none" stroke="black" points="170,-208 170,-260 1654,-260 1654,-208 170,-208"/>
</g>
<g id="clust11" class="cluster">
<title>cluster_ContentSearchModule_imports</title>
<polygon fill="none" stroke="black" points="16,-78 16,-130 424,-130 424,-78 16,-78"/>
</g>
<!-- DataDrivenFilterComponent -->
<g id="node1" class="node">
<title>DataDrivenFilterComponent</title>
<polygon fill="#ffffb3" stroke="black" points="1880.46,-122 1703.54,-122 1703.54,-86 1880.46,-86 1880.46,-122"/>
<text text-anchor="middle" x="1792" y="-99.8" font-family="Times,serif" font-size="14.00">DataDrivenFilterComponent</text>
</g>
<!-- ContentSearchModule -->
<g id="node9" class="node">
<title>ContentSearchModule</title>
<polygon fill="#8dd3c7" stroke="black" points="901.97,-187 898.97,-191 877.97,-191 874.97,-187 760.03,-187 760.03,-151 901.97,-151 901.97,-187"/>
<text text-anchor="middle" x="831" y="-164.8" font-family="Times,serif" font-size="14.00">ContentSearchModule</text>
</g>
<!-- DataDrivenFilterComponent&#45;&gt;ContentSearchModule -->
<g id="edge1" class="edge">
<title>DataDrivenFilterComponent&#45;&gt;ContentSearchModule</title>
<path fill="none" stroke="black" d="M1792,-122.31C1792,-142.15 1792,-171 1792,-171 1792,-171 912.05,-171 912.05,-171"/>
<polygon fill="black" stroke="black" points="912.05,-167.5 902.05,-171 912.05,-174.5 912.05,-167.5"/>
</g>
<!-- GlobalSearchFilterComponent -->
<g id="node2" class="node">
<title>GlobalSearchFilterComponent</title>
<polygon fill="#ffffb3" stroke="black" points="1685.85,-122 1498.15,-122 1498.15,-86 1685.85,-86 1685.85,-122"/>
<text text-anchor="middle" x="1592" y="-99.8" font-family="Times,serif" font-size="14.00">GlobalSearchFilterComponent</text>
</g>
<!-- GlobalSearchFilterComponent&#45;&gt;ContentSearchModule -->
<g id="edge2" class="edge">
<title>GlobalSearchFilterComponent&#45;&gt;ContentSearchModule</title>
<path fill="none" stroke="black" d="M1572.15,-122.22C1572.15,-140.83 1572.15,-167 1572.15,-167 1572.15,-167 912.06,-167 912.06,-167"/>
<polygon fill="black" stroke="black" points="912.06,-163.5 902.06,-167 912.06,-170.5 912.06,-163.5"/>
</g>
<!-- GlobalSearchSelectedFilterComponent -->
<g id="node3" class="node">
<title>GlobalSearchSelectedFilterComponent</title>
<polygon fill="#ffffb3" stroke="black" points="1479.77,-122 1244.23,-122 1244.23,-86 1479.77,-86 1479.77,-122"/>
<text text-anchor="middle" x="1362" y="-99.8" font-family="Times,serif" font-size="14.00">GlobalSearchSelectedFilterComponent</text>
</g>
<!-- GlobalSearchSelectedFilterComponent&#45;&gt;ContentSearchModule -->
<g id="edge3" class="edge">
<title>GlobalSearchSelectedFilterComponent&#45;&gt;ContentSearchModule</title>
<path fill="none" stroke="black" d="M1250.34,-122.02C1250.34,-139.37 1250.34,-163 1250.34,-163 1250.34,-163 912.14,-163 912.14,-163"/>
<polygon fill="black" stroke="black" points="912.14,-159.5 902.14,-163 912.14,-166.5 912.14,-159.5"/>
</g>
<!-- NoResultComponent -->
<g id="node4" class="node">
<title>NoResultComponent</title>
<polygon fill="#ffffb3" stroke="black" points="1226.22,-122 1091.78,-122 1091.78,-86 1226.22,-86 1226.22,-122"/>
<text text-anchor="middle" x="1159" y="-99.8" font-family="Times,serif" font-size="14.00">NoResultComponent</text>
</g>
<!-- NoResultComponent&#45;&gt;ContentSearchModule -->
<g id="edge4" class="edge">
<title>NoResultComponent&#45;&gt;ContentSearchModule</title>
<path fill="none" stroke="black" d="M1159,-122.01C1159,-138.05 1159,-159 1159,-159 1159,-159 912.17,-159 912.17,-159"/>
<polygon fill="black" stroke="black" points="912.17,-155.5 902.17,-159 912.17,-162.5 912.17,-155.5"/>
</g>
<!-- PageSectionComponent -->
<g id="node5" class="node">
<title>PageSectionComponent</title>
<polygon fill="#ffffb3" stroke="black" points="1074.04,-122 923.96,-122 923.96,-86 1074.04,-86 1074.04,-122"/>
<text text-anchor="middle" x="999" y="-99.8" font-family="Times,serif" font-size="14.00">PageSectionComponent</text>
</g>
<!-- PageSectionComponent&#45;&gt;ContentSearchModule -->
<g id="edge5" class="edge">
<title>PageSectionComponent&#45;&gt;ContentSearchModule</title>
<path fill="none" stroke="black" d="M952.79,-122.12C952.79,-136.78 952.79,-155 952.79,-155 952.79,-155 912.2,-155 912.2,-155"/>
<polygon fill="black" stroke="black" points="912.2,-151.5 902.2,-155 912.2,-158.5 912.2,-151.5"/>
</g>
<!-- SearchFilterComponent -->
<g id="node6" class="node">
<title>SearchFilterComponent</title>
<polygon fill="#ffffb3" stroke="black" points="905.75,-122 756.25,-122 756.25,-86 905.75,-86 905.75,-122"/>
<text text-anchor="middle" x="831" y="-99.8" font-family="Times,serif" font-size="14.00">SearchFilterComponent</text>
</g>
<!-- SearchFilterComponent&#45;&gt;ContentSearchModule -->
<g id="edge6" class="edge">
<title>SearchFilterComponent&#45;&gt;ContentSearchModule</title>
<path fill="none" stroke="black" d="M831,-122.11C831,-122.11 831,-140.99 831,-140.99"/>
<polygon fill="black" stroke="black" points="827.5,-140.99 831,-150.99 834.5,-140.99 827.5,-140.99"/>
</g>
<!-- TopicPickerComponent -->
<g id="node7" class="node">
<title>TopicPickerComponent</title>
<polygon fill="#ffffb3" stroke="black" points="737.75,-122 588.25,-122 588.25,-86 737.75,-86 737.75,-122"/>
<text text-anchor="middle" x="663" y="-99.8" font-family="Times,serif" font-size="14.00">TopicPickerComponent</text>
</g>
<!-- TopicPickerComponent&#45;&gt;ContentSearchModule -->
<g id="edge7" class="edge">
<title>TopicPickerComponent&#45;&gt;ContentSearchModule</title>
<path fill="none" stroke="black" d="M704.93,-122.12C704.93,-136.78 704.93,-155 704.93,-155 704.93,-155 749.86,-155 749.86,-155"/>
<polygon fill="black" stroke="black" points="749.86,-158.5 759.86,-155 749.86,-151.5 749.86,-158.5"/>
</g>
<!-- ViewAllComponent -->
<g id="node8" class="node">
<title>ViewAllComponent</title>
<polygon fill="#ffffb3" stroke="black" points="569.54,-122 440.46,-122 440.46,-86 569.54,-86 569.54,-122"/>
<text text-anchor="middle" x="505" y="-99.8" font-family="Times,serif" font-size="14.00">ViewAllComponent</text>
</g>
<!-- ViewAllComponent&#45;&gt;ContentSearchModule -->
<g id="edge8" class="edge">
<title>ViewAllComponent&#45;&gt;ContentSearchModule</title>
<path fill="none" stroke="black" d="M535.07,-122.01C535.07,-138.05 535.07,-159 535.07,-159 535.07,-159 749.74,-159 749.74,-159"/>
<polygon fill="black" stroke="black" points="749.74,-162.5 759.74,-159 749.74,-155.5 749.74,-162.5"/>
</g>
<!-- DataDrivenFilterComponent  -->
<g id="node13" class="node">
<title>DataDrivenFilterComponent </title>
<polygon fill="#fb8072" stroke="black" points="1646.46,-252 1465.54,-252 1465.54,-216 1646.46,-216 1646.46,-252"/>
<text text-anchor="middle" x="1556" y="-229.8" font-family="Times,serif" font-size="14.00">DataDrivenFilterComponent </text>
</g>
<!-- ContentSearchModule&#45;&gt;DataDrivenFilterComponent  -->
<g id="edge12" class="edge">
<title>ContentSearchModule&#45;&gt;DataDrivenFilterComponent </title>
<path fill="none" stroke="black" stroke-dasharray="5,2" d="M902.13,-175C1069.2,-175 1472.7,-175 1472.7,-175 1472.7,-175 1472.7,-205.98 1472.7,-205.98"/>
<polygon fill="black" stroke="black" points="1469.2,-205.98 1472.7,-215.98 1476.2,-205.98 1469.2,-205.98"/>
</g>
<!-- GlobalSearchFilterComponent  -->
<g id="node14" class="node">
<title>GlobalSearchFilterComponent </title>
<polygon fill="#fb8072" stroke="black" points="1447.85,-252 1256.15,-252 1256.15,-216 1447.85,-216 1447.85,-252"/>
<text text-anchor="middle" x="1352" y="-229.8" font-family="Times,serif" font-size="14.00">GlobalSearchFilterComponent </text>
</g>
<!-- ContentSearchModule&#45;&gt;GlobalSearchFilterComponent  -->
<g id="edge13" class="edge">
<title>ContentSearchModule&#45;&gt;GlobalSearchFilterComponent </title>
<path fill="none" stroke="black" stroke-dasharray="5,2" d="M902.08,-179C1044.65,-179 1352,-179 1352,-179 1352,-179 1352,-205.99 1352,-205.99"/>
<polygon fill="black" stroke="black" points="1348.5,-205.99 1352,-215.99 1355.5,-205.99 1348.5,-205.99"/>
</g>
<!-- GlobalSearchSelectedFilterComponent  -->
<g id="node15" class="node">
<title>GlobalSearchSelectedFilterComponent </title>
<polygon fill="#fb8072" stroke="black" points="1238.27,-252 999.73,-252 999.73,-216 1238.27,-216 1238.27,-252"/>
<text text-anchor="middle" x="1119" y="-229.8" font-family="Times,serif" font-size="14.00">GlobalSearchSelectedFilterComponent </text>
</g>
<!-- ContentSearchModule&#45;&gt;GlobalSearchSelectedFilterComponent  -->
<g id="edge14" class="edge">
<title>ContentSearchModule&#45;&gt;GlobalSearchSelectedFilterComponent </title>
<path fill="none" stroke="black" stroke-dasharray="5,2" d="M902.16,-183C961.69,-183 1036.94,-183 1036.94,-183 1036.94,-183 1036.94,-205.88 1036.94,-205.88"/>
<polygon fill="black" stroke="black" points="1033.44,-205.88 1036.94,-215.88 1040.44,-205.88 1033.44,-205.88"/>
</g>
<!-- NoResultComponent  -->
<g id="node16" class="node">
<title>NoResultComponent </title>
<polygon fill="#fb8072" stroke="black" points="981.72,-252 844.28,-252 844.28,-216 981.72,-216 981.72,-252"/>
<text text-anchor="middle" x="913" y="-229.8" font-family="Times,serif" font-size="14.00">NoResultComponent </text>
</g>
<!-- ContentSearchModule&#45;&gt;NoResultComponent  -->
<g id="edge15" class="edge">
<title>ContentSearchModule&#45;&gt;NoResultComponent </title>
<path fill="none" stroke="black" stroke-dasharray="5,2" d="M873.06,-187.11C873.06,-187.11 873.06,-205.99 873.06,-205.99"/>
<polygon fill="black" stroke="black" points="869.56,-205.99 873.06,-215.99 876.56,-205.99 869.56,-205.99"/>
</g>
<!-- PageSectionComponent  -->
<g id="node17" class="node">
<title>PageSectionComponent </title>
<polygon fill="#fb8072" stroke="black" points="826.04,-252 671.96,-252 671.96,-216 826.04,-216 826.04,-252"/>
<text text-anchor="middle" x="749" y="-229.8" font-family="Times,serif" font-size="14.00">PageSectionComponent </text>
</g>
<!-- ContentSearchModule&#45;&gt;PageSectionComponent  -->
<g id="edge16" class="edge">
<title>ContentSearchModule&#45;&gt;PageSectionComponent </title>
<path fill="none" stroke="black" stroke-dasharray="5,2" d="M793.02,-187.11C793.02,-187.11 793.02,-205.99 793.02,-205.99"/>
<polygon fill="black" stroke="black" points="789.52,-205.99 793.02,-215.99 796.52,-205.99 789.52,-205.99"/>
</g>
<!-- SearchFilterComponent  -->
<g id="node18" class="node">
<title>SearchFilterComponent </title>
<polygon fill="#fb8072" stroke="black" points="653.75,-252 500.25,-252 500.25,-216 653.75,-216 653.75,-252"/>
<text text-anchor="middle" x="577" y="-229.8" font-family="Times,serif" font-size="14.00">SearchFilterComponent </text>
</g>
<!-- ContentSearchModule&#45;&gt;SearchFilterComponent  -->
<g id="edge17" class="edge">
<title>ContentSearchModule&#45;&gt;SearchFilterComponent </title>
<path fill="none" stroke="black" stroke-dasharray="5,2" d="M759.86,-183C698.9,-183 620.87,-183 620.87,-183 620.87,-183 620.87,-205.88 620.87,-205.88"/>
<polygon fill="black" stroke="black" points="617.37,-205.88 620.87,-215.88 624.37,-205.88 617.37,-205.88"/>
</g>
<!-- TopicPickerComponent  -->
<g id="node19" class="node">
<title>TopicPickerComponent </title>
<polygon fill="#fb8072" stroke="black" points="482.75,-252 329.25,-252 329.25,-216 482.75,-216 482.75,-252"/>
<text text-anchor="middle" x="406" y="-229.8" font-family="Times,serif" font-size="14.00">TopicPickerComponent </text>
</g>
<!-- ContentSearchModule&#45;&gt;TopicPickerComponent  -->
<g id="edge18" class="edge">
<title>ContentSearchModule&#45;&gt;TopicPickerComponent </title>
<path fill="none" stroke="black" stroke-dasharray="5,2" d="M759.74,-179C652.35,-179 461.43,-179 461.43,-179 461.43,-179 461.43,-205.99 461.43,-205.99"/>
<polygon fill="black" stroke="black" points="457.93,-205.99 461.43,-215.99 464.93,-205.99 457.93,-205.99"/>
</g>
<!-- ViewAllComponent  -->
<g id="node20" class="node">
<title>ViewAllComponent </title>
<polygon fill="#fb8072" stroke="black" points="311.54,-252 178.46,-252 178.46,-216 311.54,-216 311.54,-252"/>
<text text-anchor="middle" x="245" y="-229.8" font-family="Times,serif" font-size="14.00">ViewAllComponent </text>
</g>
<!-- ContentSearchModule&#45;&gt;ViewAllComponent  -->
<g id="edge19" class="edge">
<title>ContentSearchModule&#45;&gt;ViewAllComponent </title>
<path fill="none" stroke="black" stroke-dasharray="5,2" d="M759.92,-175C613.88,-175 293.66,-175 293.66,-175 293.66,-175 293.66,-205.98 293.66,-205.98"/>
<polygon fill="black" stroke="black" points="290.16,-205.98 293.66,-215.98 297.16,-205.98 290.16,-205.98"/>
</g>
<!-- SharedFeatureModule -->
<g id="node10" class="node">
<title>SharedFeatureModule</title>
<polygon fill="#8dd3c7" stroke="black" points="416.4,-122 413.4,-126 392.4,-126 389.4,-122 275.6,-122 275.6,-86 416.4,-86 416.4,-122"/>
<text text-anchor="middle" x="346" y="-99.8" font-family="Times,serif" font-size="14.00">SharedFeatureModule</text>
</g>
<!-- SharedFeatureModule&#45;&gt;ContentSearchModule -->
<g id="edge9" class="edge">
<title>SharedFeatureModule&#45;&gt;ContentSearchModule</title>
<path fill="none" stroke="black" d="M372.79,-122.02C372.79,-139.37 372.79,-163 372.79,-163 372.79,-163 749.91,-163 749.91,-163"/>
<polygon fill="black" stroke="black" points="749.91,-166.5 759.91,-163 749.91,-159.5 749.91,-166.5"/>
</g>
<!-- SharedModule -->
<g id="node11" class="node">
<title>SharedModule</title>
<polygon fill="#8dd3c7" stroke="black" points="258.42,-122 255.42,-126 234.42,-126 231.42,-122 159.58,-122 159.58,-86 258.42,-86 258.42,-122"/>
<text text-anchor="middle" x="209" y="-99.8" font-family="Times,serif" font-size="14.00">SharedModule</text>
</g>
<!-- SharedModule&#45;&gt;ContentSearchModule -->
<g id="edge10" class="edge">
<title>SharedModule&#45;&gt;ContentSearchModule</title>
<path fill="none" stroke="black" d="M218.35,-122.22C218.35,-140.83 218.35,-167 218.35,-167 218.35,-167 749.82,-167 749.82,-167"/>
<polygon fill="black" stroke="black" points="749.82,-170.5 759.82,-167 749.82,-163.5 749.82,-170.5"/>
</g>
<!-- TelemetryModule -->
<g id="node12" class="node">
<title>TelemetryModule</title>
<polygon fill="#8dd3c7" stroke="black" points="141.58,-122 138.58,-126 117.58,-126 114.58,-122 24.42,-122 24.42,-86 141.58,-86 141.58,-122"/>
<text text-anchor="middle" x="83" y="-99.8" font-family="Times,serif" font-size="14.00">TelemetryModule</text>
</g>
<!-- TelemetryModule&#45;&gt;ContentSearchModule -->
<g id="edge11" class="edge">
<title>TelemetryModule&#45;&gt;ContentSearchModule</title>
<path fill="none" stroke="black" d="M83,-122.31C83,-142.15 83,-171 83,-171 83,-171 749.96,-171 749.96,-171"/>
<polygon fill="black" stroke="black" points="749.96,-174.5 759.96,-171 749.96,-167.5 749.96,-174.5"/>
</g>
</g>
</svg>
