<?xml version="1.0" encoding="UTF-8" standalone="no"?>
<!DOCTYPE svg PUBLIC "-//W3C//DTD SVG 1.1//EN"
 "http://www.w3.org/Graphics/SVG/1.1/DTD/svg11.dtd">
<!-- Generated by graphviz version 2.47.0 (20210316.0004)
 -->
<!-- Title: dependencies Pages: 1 -->
<svg width="7932pt" height="211pt"
 viewBox="0.00 0.00 7932.00 211.00" xmlns="http://www.w3.org/2000/svg" xmlns:xlink="http://www.w3.org/1999/xlink">
<g id="graph0" class="graph" transform="scale(1 1) rotate(0) translate(4 207)">
<title>dependencies</title>
<polygon fill="white" stroke="transparent" points="-4,4 -4,-207 7928,-207 7928,4 -4,4"/>
<text text-anchor="start" x="3941.01" y="-42.4" font-family="Times-12" font-weight="bold" font-size="14.00">Legend</text>
<polygon fill="#ffffb3" stroke="transparent" points="3728,-10 3728,-30 3748,-30 3748,-10 3728,-10"/>
<text text-anchor="start" x="3751.63" y="-15.4" font-family="Times-12" font-size="14.00"> &#160;Declarations</text>
<polygon fill="#8dd3c7" stroke="transparent" points="3841,-10 3841,-30 3861,-30 3861,-10 3841,-10"/>
<text text-anchor="start" x="3864.73" y="-15.4" font-family="Times-12" font-size="14.00"> &#160;Module</text>
<polygon fill="#80b1d3" stroke="transparent" points="3927,-10 3927,-30 3947,-30 3947,-10 3927,-10"/>
<text text-anchor="start" x="3950.78" y="-15.4" font-family="Times-12" font-size="14.00"> &#160;Bootstrap</text>
<polygon fill="#fdb462" stroke="transparent" points="4024,-10 4024,-30 4044,-30 4044,-10 4024,-10"/>
<text text-anchor="start" x="4047.67" y="-15.4" font-family="Times-12" font-size="14.00"> &#160;Providers</text>
<polygon fill="#fb8072" stroke="transparent" points="4120,-10 4120,-30 4140,-30 4140,-10 4120,-10"/>
<text text-anchor="start" x="4143.73" y="-15.4" font-family="Times-12" font-size="14.00"> &#160;Exports</text>
<g id="clust1" class="cluster">
<title>cluster_WorkspaceModule</title>
<polygon fill="none" stroke="black" stroke-dasharray="1,5" points="8,-70 8,-195 7916,-195 7916,-70 8,-70"/>
</g>
<g id="clust36" class="cluster">
<title>cluster_WorkspaceModule_imports</title>
<polygon fill="none" stroke="black" points="7057,-78 7057,-130 7908,-130 7908,-78 7057,-78"/>
</g>
<g id="clust39" class="cluster">
<title>cluster_WorkspaceModule_providers</title>
<polygon fill="none" stroke="black" points="6333,-78 6333,-130 7049,-130 7049,-78 6333,-78"/>
</g>
<g id="clust2" class="cluster">
<title>cluster_WorkspaceModule_declarations</title>
<polygon fill="none" stroke="black" points="16,-78 16,-130 6325,-130 6325,-78 16,-78"/>
</g>
<!-- AllContentComponent -->
<g id="node1" class="node">
<title>AllContentComponent</title>
<polygon fill="#ffffb3" stroke="black" points="6316.55,-122 6173.45,-122 6173.45,-86 6316.55,-86 6316.55,-122"/>
<text text-anchor="middle" x="6245" y="-99.8" font-family="Times,serif" font-size="14.00">AllContentComponent</text>
</g>
<!-- WorkspaceModule -->
<g id="node34" class="node">
<title>WorkspaceModule</title>
<polygon fill="#8dd3c7" stroke="black" points="4182.01,-187 4179.01,-191 4158.01,-191 4155.01,-187 4059.99,-187 4059.99,-151 4182.01,-151 4182.01,-187"/>
<text text-anchor="middle" x="4121" y="-164.8" font-family="Times,serif" font-size="14.00">WorkspaceModule</text>
</g>
<!-- AllContentComponent&#45;&gt;WorkspaceModule -->
<g id="edge1" class="edge">
<title>AllContentComponent&#45;&gt;WorkspaceModule</title>
<path fill="none" stroke="black" d="M6245,-122.03C6245,-141.58 6245,-170 6245,-170 6245,-170 4192.28,-170 4192.28,-170"/>
<polygon fill="black" stroke="black" points="4192.28,-166.5 4182.28,-170 4192.28,-173.5 4192.28,-166.5"/>
</g>
<!-- AllTextbooksComponent -->
<g id="node2" class="node">
<title>AllTextbooksComponent</title>
<polygon fill="#ffffb3" stroke="black" points="6155.32,-122 5996.68,-122 5996.68,-86 6155.32,-86 6155.32,-122"/>
<text text-anchor="middle" x="6076" y="-99.8" font-family="Times,serif" font-size="14.00">AllTextbooksComponent</text>
</g>
<!-- AllTextbooksComponent&#45;&gt;WorkspaceModule -->
<g id="edge2" class="edge">
<title>AllTextbooksComponent&#45;&gt;WorkspaceModule</title>
<path fill="none" stroke="black" d="M6076,-122.11C6076,-141.34 6076,-169 6076,-169 6076,-169 4192.19,-169 4192.19,-169"/>
<polygon fill="black" stroke="black" points="4192.19,-165.5 4182.19,-169 4192.19,-172.5 4192.19,-165.5"/>
</g>
<!-- BatchListComponent -->
<g id="node3" class="node">
<title>BatchListComponent</title>
<polygon fill="#ffffb3" stroke="black" points="5978.77,-122 5843.23,-122 5843.23,-86 5978.77,-86 5978.77,-122"/>
<text text-anchor="middle" x="5911" y="-99.8" font-family="Times,serif" font-size="14.00">BatchListComponent</text>
</g>
<!-- BatchListComponent&#45;&gt;WorkspaceModule -->
<g id="edge3" class="edge">
<title>BatchListComponent&#45;&gt;WorkspaceModule</title>
<path fill="none" stroke="black" d="M5911,-122.22C5911,-140.83 5911,-167 5911,-167 5911,-167 4192.1,-167 4192.1,-167"/>
<polygon fill="black" stroke="black" points="4192.1,-163.5 4182.1,-167 4192.1,-170.5 4192.1,-163.5"/>
</g>
<!-- BatchPageSectionComponent -->
<g id="node4" class="node">
<title>BatchPageSectionComponent</title>
<polygon fill="#ffffb3" stroke="black" points="5825.69,-122 5642.31,-122 5642.31,-86 5825.69,-86 5825.69,-122"/>
<text text-anchor="middle" x="5734" y="-99.8" font-family="Times,serif" font-size="14.00">BatchPageSectionComponent</text>
</g>
<!-- BatchPageSectionComponent&#45;&gt;WorkspaceModule -->
<g id="edge4" class="edge">
<title>BatchPageSectionComponent&#45;&gt;WorkspaceModule</title>
<path fill="none" stroke="black" d="M5734,-122.27C5734,-140.56 5734,-166 5734,-166 5734,-166 4192.26,-166 4192.26,-166"/>
<polygon fill="black" stroke="black" points="4192.26,-162.5 4182.26,-166 4192.26,-169.5 4192.26,-162.5"/>
</g>
<!-- CollaboratingOnComponent -->
<g id="node5" class="node">
<title>CollaboratingOnComponent</title>
<polygon fill="#ffffb3" stroke="black" points="5624.93,-122 5449.07,-122 5449.07,-86 5624.93,-86 5624.93,-122"/>
<text text-anchor="middle" x="5537" y="-99.8" font-family="Times,serif" font-size="14.00">CollaboratingOnComponent</text>
</g>
<!-- CollaboratingOnComponent&#45;&gt;WorkspaceModule -->
<g id="edge5" class="edge">
<title>CollaboratingOnComponent&#45;&gt;WorkspaceModule</title>
<path fill="none" stroke="black" d="M5537,-122C5537,-139.68 5537,-164 5537,-164 5537,-164 4192.3,-164 4192.3,-164"/>
<polygon fill="black" stroke="black" points="4192.3,-160.5 4182.3,-164 4192.3,-167.5 4192.3,-160.5"/>
</g>
<!-- CollaborationContentFilterComponent -->
<g id="node6" class="node">
<title>CollaborationContentFilterComponent</title>
<polygon fill="#ffffb3" stroke="black" points="5431.48,-122 5198.52,-122 5198.52,-86 5431.48,-86 5431.48,-122"/>
<text text-anchor="middle" x="5315" y="-99.8" font-family="Times,serif" font-size="14.00">CollaborationContentFilterComponent</text>
</g>
<!-- CollaborationContentFilterComponent&#45;&gt;WorkspaceModule -->
<g id="edge6" class="edge">
<title>CollaborationContentFilterComponent&#45;&gt;WorkspaceModule</title>
<path fill="none" stroke="black" d="M5353.83,-122.03C5353.83,-139.06 5353.83,-162 5353.83,-162 5353.83,-162 4192.14,-162 4192.14,-162"/>
<polygon fill="black" stroke="black" points="4192.14,-158.5 4182.14,-162 4192.14,-165.5 4192.14,-158.5"/>
</g>
<!-- CollaborationContentFilterComponent&#45;&gt;WorkspaceModule -->
<g id="edge7" class="edge">
<title>CollaborationContentFilterComponent&#45;&gt;WorkspaceModule</title>
<path fill="none" stroke="black" d="M5276.17,-122.04C5276.17,-138.73 5276.17,-161 5276.17,-161 5276.17,-161 4192.29,-161 4192.29,-161"/>
<polygon fill="black" stroke="black" points="4192.29,-157.5 4182.29,-161 4192.29,-164.5 4192.29,-157.5"/>
</g>
<!-- CollectionEditorComponent -->
<g id="node7" class="node">
<title>CollectionEditorComponent</title>
<polygon fill="#ffffb3" stroke="black" points="5180.16,-122 5005.84,-122 5005.84,-86 5180.16,-86 5180.16,-122"/>
<text text-anchor="middle" x="5093" y="-99.8" font-family="Times,serif" font-size="14.00">CollectionEditorComponent</text>
</g>
<!-- CollectionEditorComponent&#45;&gt;WorkspaceModule -->
<g id="edge8" class="edge">
<title>CollectionEditorComponent&#45;&gt;WorkspaceModule</title>
<path fill="none" stroke="black" d="M5093,-122.01C5093,-138.05 5093,-159 5093,-159 5093,-159 4192.17,-159 4192.17,-159"/>
<polygon fill="black" stroke="black" points="4192.17,-155.5 4182.17,-159 4192.17,-162.5 4192.17,-155.5"/>
</g>
<!-- ContentEditorComponent -->
<g id="node8" class="node">
<title>ContentEditorComponent</title>
<polygon fill="#ffffb3" stroke="black" points="4987.16,-122 4826.84,-122 4826.84,-86 4987.16,-86 4987.16,-122"/>
<text text-anchor="middle" x="4907" y="-99.8" font-family="Times,serif" font-size="14.00">ContentEditorComponent</text>
</g>
<!-- ContentEditorComponent&#45;&gt;WorkspaceModule -->
<g id="edge9" class="edge">
<title>ContentEditorComponent&#45;&gt;WorkspaceModule</title>
<path fill="none" stroke="black" d="M4907,-122.28C4907,-137.95 4907,-158 4907,-158 4907,-158 4192.02,-158 4192.02,-158"/>
<polygon fill="black" stroke="black" points="4192.02,-154.5 4182.02,-158 4192.02,-161.5 4192.02,-154.5"/>
</g>
<!-- CreateContentComponent -->
<g id="node9" class="node">
<title>CreateContentComponent</title>
<polygon fill="#ffffb3" stroke="black" points="4809.2,-122 4646.8,-122 4646.8,-86 4809.2,-86 4809.2,-122"/>
<text text-anchor="middle" x="4728" y="-99.8" font-family="Times,serif" font-size="14.00">CreateContentComponent</text>
</g>
<!-- CreateContentComponent&#45;&gt;WorkspaceModule -->
<g id="edge10" class="edge">
<title>CreateContentComponent&#45;&gt;WorkspaceModule</title>
<path fill="none" stroke="black" d="M4728,-122.19C4728,-137.18 4728,-156 4728,-156 4728,-156 4192.26,-156 4192.26,-156"/>
<polygon fill="black" stroke="black" points="4192.26,-152.5 4182.26,-156 4192.26,-159.5 4192.26,-152.5"/>
</g>
<!-- DataDrivenComponent -->
<g id="node10" class="node">
<title>DataDrivenComponent</title>
<polygon fill="#ffffb3" stroke="black" points="4629.13,-122 4482.87,-122 4482.87,-86 4629.13,-86 4629.13,-122"/>
<text text-anchor="middle" x="4556" y="-99.8" font-family="Times,serif" font-size="14.00">DataDrivenComponent</text>
</g>
<!-- DataDrivenComponent&#45;&gt;WorkspaceModule -->
<g id="edge11" class="edge">
<title>DataDrivenComponent&#45;&gt;WorkspaceModule</title>
<path fill="none" stroke="black" d="M4556,-122.12C4556,-136.78 4556,-155 4556,-155 4556,-155 4192.4,-155 4192.4,-155"/>
<polygon fill="black" stroke="black" points="4192.4,-151.5 4182.4,-155 4192.4,-158.5 4192.4,-151.5"/>
</g>
<!-- DateFilterXtimeAgoPipe -->
<g id="node11" class="node">
<title>DateFilterXtimeAgoPipe</title>
<polygon fill="#ffffb3" stroke="black" points="4464.24,-122 4307.76,-122 4307.76,-86 4464.24,-86 4464.24,-122"/>
<text text-anchor="middle" x="4386" y="-99.8" font-family="Times,serif" font-size="14.00">DateFilterXtimeAgoPipe</text>
</g>
<!-- DateFilterXtimeAgoPipe&#45;&gt;WorkspaceModule -->
<g id="edge12" class="edge">
<title>DateFilterXtimeAgoPipe&#45;&gt;WorkspaceModule</title>
<path fill="none" stroke="black" d="M4386,-122.25C4386,-136.18 4386,-153 4386,-153 4386,-153 4192.13,-153 4192.13,-153"/>
<polygon fill="black" stroke="black" points="4192.13,-149.5 4182.13,-153 4192.13,-156.5 4192.13,-149.5"/>
</g>
<!-- DefaultTemplateComponent -->
<g id="node12" class="node">
<title>DefaultTemplateComponent</title>
<polygon fill="#ffffb3" stroke="black" points="4290.18,-122 4113.82,-122 4113.82,-86 4290.18,-86 4290.18,-122"/>
<text text-anchor="middle" x="4202" y="-99.8" font-family="Times,serif" font-size="14.00">DefaultTemplateComponent</text>
</g>
<!-- DefaultTemplateComponent&#45;&gt;WorkspaceModule -->
<g id="edge13" class="edge">
<title>DefaultTemplateComponent&#45;&gt;WorkspaceModule</title>
<path fill="none" stroke="black" d="M4148.08,-122.11C4148.08,-122.11 4148.08,-140.99 4148.08,-140.99"/>
<polygon fill="black" stroke="black" points="4144.58,-140.99 4148.08,-150.99 4151.58,-140.99 4144.58,-140.99"/>
</g>
<!-- DraftComponent -->
<g id="node13" class="node">
<title>DraftComponent</title>
<polygon fill="#ffffb3" stroke="black" points="4095.37,-122 3984.63,-122 3984.63,-86 4095.37,-86 4095.37,-122"/>
<text text-anchor="middle" x="4040" y="-99.8" font-family="Times,serif" font-size="14.00">DraftComponent</text>
</g>
<!-- DraftComponent&#45;&gt;WorkspaceModule -->
<g id="edge14" class="edge">
<title>DraftComponent&#45;&gt;WorkspaceModule</title>
<path fill="none" stroke="black" d="M4077.59,-122.11C4077.59,-122.11 4077.59,-140.99 4077.59,-140.99"/>
<polygon fill="black" stroke="black" points="4074.09,-140.99 4077.59,-150.99 4081.09,-140.99 4074.09,-140.99"/>
</g>
<!-- FlagConentplayerComponent -->
<g id="node14" class="node">
<title>FlagConentplayerComponent</title>
<polygon fill="#ffffb3" stroke="black" points="3966.64,-122 3785.36,-122 3785.36,-86 3966.64,-86 3966.64,-122"/>
<text text-anchor="middle" x="3876" y="-99.8" font-family="Times,serif" font-size="14.00">FlagConentplayerComponent</text>
</g>
<!-- FlagConentplayerComponent&#45;&gt;WorkspaceModule -->
<g id="edge15" class="edge">
<title>FlagConentplayerComponent&#45;&gt;WorkspaceModule</title>
<path fill="none" stroke="black" d="M3876,-122.25C3876,-136.18 3876,-153 3876,-153 3876,-153 4049.81,-153 4049.81,-153"/>
<polygon fill="black" stroke="black" points="4049.81,-156.5 4059.81,-153 4049.81,-149.5 4049.81,-156.5"/>
</g>
<!-- FlagReviewerComponent -->
<g id="node15" class="node">
<title>FlagReviewerComponent</title>
<polygon fill="#ffffb3" stroke="black" points="3766.86,-122 3607.14,-122 3607.14,-86 3766.86,-86 3766.86,-122"/>
<text text-anchor="middle" x="3687" y="-99.8" font-family="Times,serif" font-size="14.00">FlagReviewerComponent</text>
</g>
<!-- FlagReviewerComponent&#45;&gt;WorkspaceModule -->
<g id="edge16" class="edge">
<title>FlagReviewerComponent&#45;&gt;WorkspaceModule</title>
<path fill="none" stroke="black" d="M3687,-122.12C3687,-136.78 3687,-155 3687,-155 3687,-155 4049.74,-155 4049.74,-155"/>
<polygon fill="black" stroke="black" points="4049.74,-158.5 4059.74,-155 4049.74,-151.5 4049.74,-158.5"/>
</g>
<!-- FlaggedComponent -->
<g id="node16" class="node">
<title>FlaggedComponent</title>
<polygon fill="#ffffb3" stroke="black" points="3589.44,-122 3462.56,-122 3462.56,-86 3589.44,-86 3589.44,-122"/>
<text text-anchor="middle" x="3526" y="-99.8" font-family="Times,serif" font-size="14.00">FlaggedComponent</text>
</g>
<!-- FlaggedComponent&#45;&gt;WorkspaceModule -->
<g id="edge17" class="edge">
<title>FlaggedComponent&#45;&gt;WorkspaceModule</title>
<path fill="none" stroke="black" d="M3526,-122.19C3526,-137.18 3526,-156 3526,-156 3526,-156 4049.84,-156 4049.84,-156"/>
<polygon fill="black" stroke="black" points="4049.84,-159.5 4059.84,-156 4049.84,-152.5 4049.84,-159.5"/>
</g>
<!-- GenericEditorComponent -->
<g id="node17" class="node">
<title>GenericEditorComponent</title>
<polygon fill="#ffffb3" stroke="black" points="3444.13,-122 3283.87,-122 3283.87,-86 3444.13,-86 3444.13,-122"/>
<text text-anchor="middle" x="3364" y="-99.8" font-family="Times,serif" font-size="14.00">GenericEditorComponent</text>
</g>
<!-- GenericEditorComponent&#45;&gt;WorkspaceModule -->
<g id="edge18" class="edge">
<title>GenericEditorComponent&#45;&gt;WorkspaceModule</title>
<path fill="none" stroke="black" d="M3364,-122.28C3364,-137.95 3364,-158 3364,-158 3364,-158 4049.69,-158 4049.69,-158"/>
<polygon fill="black" stroke="black" points="4049.69,-161.5 4059.69,-158 4049.69,-154.5 4049.69,-161.5"/>
</g>
<!-- LimitedPublishedComponent -->
<g id="node18" class="node">
<title>LimitedPublishedComponent</title>
<polygon fill="#ffffb3" stroke="black" points="3265.39,-122 3084.61,-122 3084.61,-86 3265.39,-86 3265.39,-122"/>
<text text-anchor="middle" x="3175" y="-99.8" font-family="Times,serif" font-size="14.00">LimitedPublishedComponent</text>
</g>
<!-- LimitedPublishedComponent&#45;&gt;WorkspaceModule -->
<g id="edge19" class="edge">
<title>LimitedPublishedComponent&#45;&gt;WorkspaceModule</title>
<path fill="none" stroke="black" d="M3175,-122.01C3175,-138.05 3175,-159 3175,-159 3175,-159 4049.66,-159 4049.66,-159"/>
<polygon fill="black" stroke="black" points="4049.66,-162.5 4059.66,-159 4049.66,-155.5 4049.66,-162.5"/>
</g>
<!-- NewCollectionEditorComponent -->
<g id="node19" class="node">
<title>NewCollectionEditorComponent</title>
<polygon fill="#ffffb3" stroke="black" points="3066.58,-122 2865.42,-122 2865.42,-86 3066.58,-86 3066.58,-122"/>
<text text-anchor="middle" x="2966" y="-99.8" font-family="Times,serif" font-size="14.00">NewCollectionEditorComponent</text>
</g>
<!-- NewCollectionEditorComponent&#45;&gt;WorkspaceModule -->
<g id="edge20" class="edge">
<title>NewCollectionEditorComponent&#45;&gt;WorkspaceModule</title>
<path fill="none" stroke="black" d="M2966,-122.04C2966,-138.73 2966,-161 2966,-161 2966,-161 4049.72,-161 4049.72,-161"/>
<polygon fill="black" stroke="black" points="4049.72,-164.5 4059.72,-161 4049.72,-157.5 4049.72,-164.5"/>
</g>
<!-- PublishedComponent -->
<g id="node20" class="node">
<title>PublishedComponent</title>
<polygon fill="#ffffb3" stroke="black" points="2847.06,-122 2710.94,-122 2710.94,-86 2847.06,-86 2847.06,-122"/>
<text text-anchor="middle" x="2779" y="-99.8" font-family="Times,serif" font-size="14.00">PublishedComponent</text>
</g>
<!-- PublishedComponent&#45;&gt;WorkspaceModule -->
<g id="edge21" class="edge">
<title>PublishedComponent&#45;&gt;WorkspaceModule</title>
<path fill="none" stroke="black" d="M2779,-122.03C2779,-139.06 2779,-162 2779,-162 2779,-162 4049.85,-162 4049.85,-162"/>
<polygon fill="black" stroke="black" points="4049.85,-165.5 4059.85,-162 4049.85,-158.5 4049.85,-165.5"/>
</g>
<!-- PublishedPopupComponent -->
<g id="node21" class="node">
<title>PublishedPopupComponent</title>
<polygon fill="#ffffb3" stroke="black" points="2693.34,-122 2520.66,-122 2520.66,-86 2693.34,-86 2693.34,-122"/>
<text text-anchor="middle" x="2607" y="-99.8" font-family="Times,serif" font-size="14.00">PublishedPopupComponent</text>
</g>
<!-- PublishedPopupComponent&#45;&gt;WorkspaceModule -->
<g id="edge22" class="edge">
<title>PublishedPopupComponent&#45;&gt;WorkspaceModule</title>
<path fill="none" stroke="black" d="M2607,-122C2607,-139.68 2607,-164 2607,-164 2607,-164 4049.77,-164 4049.77,-164"/>
<polygon fill="black" stroke="black" points="4049.77,-167.5 4059.77,-164 4049.77,-160.5 4049.77,-167.5"/>
</g>
<!-- RequestChangesPopupComponent -->
<g id="node22" class="node">
<title>RequestChangesPopupComponent</title>
<polygon fill="#ffffb3" stroke="black" points="2503.43,-122 2292.57,-122 2292.57,-86 2503.43,-86 2503.43,-122"/>
<text text-anchor="middle" x="2398" y="-99.8" font-family="Times,serif" font-size="14.00">RequestChangesPopupComponent</text>
</g>
<!-- RequestChangesPopupComponent&#45;&gt;WorkspaceModule -->
<g id="edge23" class="edge">
<title>RequestChangesPopupComponent&#45;&gt;WorkspaceModule</title>
<path fill="none" stroke="black" d="M2398,-122.27C2398,-140.56 2398,-166 2398,-166 2398,-166 4049.93,-166 4049.93,-166"/>
<polygon fill="black" stroke="black" points="4049.93,-169.5 4059.93,-166 4049.93,-162.5 4049.93,-169.5"/>
</g>
<!-- ReviewCommentsComponent -->
<g id="node23" class="node">
<title>ReviewCommentsComponent</title>
<polygon fill="#ffffb3" stroke="black" points="2274.26,-122 2089.74,-122 2089.74,-86 2274.26,-86 2274.26,-122"/>
<text text-anchor="middle" x="2182" y="-99.8" font-family="Times,serif" font-size="14.00">ReviewCommentsComponent</text>
</g>
<!-- ReviewCommentsComponent&#45;&gt;WorkspaceModule -->
<g id="edge24" class="edge">
<title>ReviewCommentsComponent&#45;&gt;WorkspaceModule</title>
<path fill="none" stroke="black" d="M2182,-122.22C2182,-140.83 2182,-167 2182,-167 2182,-167 4049.77,-167 4049.77,-167"/>
<polygon fill="black" stroke="black" points="4049.77,-170.5 4059.77,-167 4049.77,-163.5 4049.77,-170.5"/>
</g>
<!-- ReviewSubmissionsComponent -->
<g id="node24" class="node">
<title>ReviewSubmissionsComponent</title>
<polygon fill="#ffffb3" stroke="black" points="2071.38,-122 1876.62,-122 1876.62,-86 2071.38,-86 2071.38,-122"/>
<text text-anchor="middle" x="1974" y="-99.8" font-family="Times,serif" font-size="14.00">ReviewSubmissionsComponent</text>
</g>
<!-- ReviewSubmissionsComponent&#45;&gt;WorkspaceModule -->
<g id="edge25" class="edge">
<title>ReviewSubmissionsComponent&#45;&gt;WorkspaceModule</title>
<path fill="none" stroke="black" d="M1974,-122.11C1974,-141.34 1974,-169 1974,-169 1974,-169 4049.92,-169 4049.92,-169"/>
<polygon fill="black" stroke="black" points="4049.92,-172.5 4059.92,-169 4049.92,-165.5 4049.92,-172.5"/>
</g>
<!-- ReviewsubmissionsContentplayerComponent -->
<g id="node25" class="node">
<title>ReviewsubmissionsContentplayerComponent</title>
<polygon fill="#ffffb3" stroke="black" points="1858.86,-122 1587.14,-122 1587.14,-86 1858.86,-86 1858.86,-122"/>
<text text-anchor="middle" x="1723" y="-99.8" font-family="Times,serif" font-size="14.00">ReviewsubmissionsContentplayerComponent</text>
</g>
<!-- ReviewsubmissionsContentplayerComponent&#45;&gt;WorkspaceModule -->
<g id="edge26" class="edge">
<title>ReviewsubmissionsContentplayerComponent&#45;&gt;WorkspaceModule</title>
<path fill="none" stroke="black" d="M1723,-122.03C1723,-141.58 1723,-170 1723,-170 1723,-170 4049.92,-170 4049.92,-170"/>
<polygon fill="black" stroke="black" points="4049.92,-173.5 4059.92,-170 4049.92,-166.5 4049.92,-173.5"/>
</g>
<!-- UpForReviewComponent -->
<g id="node26" class="node">
<title>UpForReviewComponent</title>
<polygon fill="#ffffb3" stroke="black" points="1569.15,-122 1408.85,-122 1408.85,-86 1569.15,-86 1569.15,-122"/>
<text text-anchor="middle" x="1489" y="-99.8" font-family="Times,serif" font-size="14.00">UpForReviewComponent</text>
</g>
<!-- UpForReviewComponent&#45;&gt;WorkspaceModule -->
<g id="edge27" class="edge">
<title>UpForReviewComponent&#45;&gt;WorkspaceModule</title>
<path fill="none" stroke="black" d="M1515.77,-122.22C1515.77,-142.37 1515.77,-172 1515.77,-172 1515.77,-172 4049.81,-172 4049.81,-172"/>
<polygon fill="black" stroke="black" points="4049.81,-175.5 4059.81,-172 4049.81,-168.5 4049.81,-175.5"/>
</g>
<!-- UpForReviewComponent&#45;&gt;WorkspaceModule -->
<g id="edge28" class="edge">
<title>UpForReviewComponent&#45;&gt;WorkspaceModule</title>
<path fill="none" stroke="black" d="M1462.23,-122.13C1462.23,-142.57 1462.23,-173 1462.23,-173 1462.23,-173 4049.83,-173 4049.83,-173"/>
<polygon fill="black" stroke="black" points="4049.83,-176.5 4059.83,-173 4049.83,-169.5 4049.83,-176.5"/>
</g>
<!-- UpdateBatchComponent -->
<g id="node27" class="node">
<title>UpdateBatchComponent</title>
<polygon fill="#ffffb3" stroke="black" points="1390.42,-122 1235.58,-122 1235.58,-86 1390.42,-86 1390.42,-122"/>
<text text-anchor="middle" x="1313" y="-99.8" font-family="Times,serif" font-size="14.00">UpdateBatchComponent</text>
</g>
<!-- UpdateBatchComponent&#45;&gt;WorkspaceModule -->
<g id="edge29" class="edge">
<title>UpdateBatchComponent&#45;&gt;WorkspaceModule</title>
<path fill="none" stroke="black" d="M1313,-122.28C1313,-143.32 1313,-175 1313,-175 1313,-175 4049.74,-175 4049.74,-175"/>
<polygon fill="black" stroke="black" points="4049.74,-178.5 4059.74,-175 4049.74,-171.5 4049.74,-178.5"/>
</g>
<!-- UpforReviewFilterComponent -->
<g id="node28" class="node">
<title>UpforReviewFilterComponent</title>
<polygon fill="#ffffb3" stroke="black" points="1217.85,-122 1030.15,-122 1030.15,-86 1217.85,-86 1217.85,-122"/>
<text text-anchor="middle" x="1124" y="-99.8" font-family="Times,serif" font-size="14.00">UpforReviewFilterComponent</text>
</g>
<!-- UpforReviewFilterComponent&#45;&gt;WorkspaceModule -->
<g id="edge30" class="edge">
<title>UpforReviewFilterComponent&#45;&gt;WorkspaceModule</title>
<path fill="none" stroke="black" d="M1092.69,-122.29C1092.69,-144.21 1092.69,-178 1092.69,-178 1092.69,-178 4049.82,-178 4049.82,-178"/>
<polygon fill="black" stroke="black" points="4049.82,-181.5 4059.82,-178 4049.82,-174.5 4049.82,-181.5"/>
</g>
<!-- UpforReviewFilterComponent&#45;&gt;WorkspaceModule -->
<g id="edge31" class="edge">
<title>UpforReviewFilterComponent&#45;&gt;WorkspaceModule</title>
<path fill="none" stroke="black" d="M1155.31,-122.04C1155.31,-143.66 1155.31,-177 1155.31,-177 1155.31,-177 4049.74,-177 4049.74,-177"/>
<polygon fill="black" stroke="black" points="4049.74,-180.5 4059.74,-177 4049.74,-173.5 4049.74,-180.5"/>
</g>
<!-- UpforreviewContentplayerComponent -->
<g id="node29" class="node">
<title>UpforreviewContentplayerComponent</title>
<polygon fill="#ffffb3" stroke="black" points="1012.16,-122 779.84,-122 779.84,-86 1012.16,-86 1012.16,-122"/>
<text text-anchor="middle" x="896" y="-99.8" font-family="Times,serif" font-size="14.00">UpforreviewContentplayerComponent</text>
</g>
<!-- UpforreviewContentplayerComponent&#45;&gt;WorkspaceModule -->
<g id="edge32" class="edge">
<title>UpforreviewContentplayerComponent&#45;&gt;WorkspaceModule</title>
<path fill="none" stroke="black" d="M896,-122.01C896,-144.49 896,-180 896,-180 896,-180 4049.81,-180 4049.81,-180"/>
<polygon fill="black" stroke="black" points="4049.81,-183.5 4059.81,-180 4049.81,-176.5 4049.81,-183.5"/>
</g>
<!-- UploadedComponent -->
<g id="node30" class="node">
<title>UploadedComponent</title>
<polygon fill="#ffffb3" stroke="black" points="761.76,-122 626.24,-122 626.24,-86 761.76,-86 761.76,-122"/>
<text text-anchor="middle" x="694" y="-99.8" font-family="Times,serif" font-size="14.00">UploadedComponent</text>
</g>
<!-- UploadedComponent&#45;&gt;WorkspaceModule -->
<g id="edge33" class="edge">
<title>UploadedComponent&#45;&gt;WorkspaceModule</title>
<path fill="none" stroke="black" d="M694,-122.25C694,-145.02 694,-181 694,-181 694,-181 4049.7,-181 4049.7,-181"/>
<polygon fill="black" stroke="black" points="4049.7,-184.5 4059.7,-181 4049.7,-177.5 4049.7,-184.5"/>
</g>
<!-- WorkspaceComponent -->
<g id="node31" class="node">
<title>WorkspaceComponent</title>
<polygon fill="#ffffb3" stroke="black" points="608.3,-122 463.7,-122 463.7,-86 608.3,-86 608.3,-122"/>
<text text-anchor="middle" x="536" y="-99.8" font-family="Times,serif" font-size="14.00">WorkspaceComponent</text>
</g>
<!-- WorkspaceComponent&#45;&gt;WorkspaceModule -->
<g id="edge34" class="edge">
<title>WorkspaceComponent&#45;&gt;WorkspaceModule</title>
<path fill="none" stroke="black" d="M536,-122.32C536,-145.66 536,-183 536,-183 536,-183 4049.91,-183 4049.91,-183"/>
<polygon fill="black" stroke="black" points="4049.91,-186.5 4059.91,-183 4049.91,-179.5 4049.91,-186.5"/>
</g>
<!-- WorkspaceContentFilterComponent -->
<g id="node32" class="node">
<title>WorkspaceContentFilterComponent</title>
<polygon fill="#ffffb3" stroke="black" points="445.46,-122 226.54,-122 226.54,-86 445.46,-86 445.46,-122"/>
<text text-anchor="middle" x="336" y="-99.8" font-family="Times,serif" font-size="14.00">WorkspaceContentFilterComponent</text>
</g>
<!-- WorkspaceContentFilterComponent&#45;&gt;WorkspaceModule -->
<g id="edge35" class="edge">
<title>WorkspaceContentFilterComponent&#45;&gt;WorkspaceModule</title>
<path fill="none" stroke="black" d="M336,-122.15C336,-145.76 336,-184 336,-184 336,-184 4049.63,-184 4049.63,-184"/>
<polygon fill="black" stroke="black" points="4049.63,-187.5 4059.63,-184 4049.63,-180.5 4049.63,-187.5"/>
</g>
<!-- WorkspacesidebarComponent -->
<g id="node33" class="node">
<title>WorkspacesidebarComponent</title>
<polygon fill="#ffffb3" stroke="black" points="208.22,-122 23.78,-122 23.78,-86 208.22,-86 208.22,-122"/>
<text text-anchor="middle" x="116" y="-99.8" font-family="Times,serif" font-size="14.00">WorkspacesidebarComponent</text>
</g>
<!-- WorkspacesidebarComponent&#45;&gt;WorkspaceModule -->
<g id="edge36" class="edge">
<title>WorkspacesidebarComponent&#45;&gt;WorkspaceModule</title>
<path fill="none" stroke="black" d="M116,-122.2C116,-146.36 116,-186 116,-186 116,-186 4049.69,-186 4049.69,-186"/>
<polygon fill="black" stroke="black" points="4049.69,-189.5 4059.69,-186 4049.69,-182.5 4049.69,-189.5"/>
</g>
<!-- ContentSearchModule -->
<g id="node35" class="node">
<title>ContentSearchModule</title>
<polygon fill="#8dd3c7" stroke="black" points="7899.97,-122 7896.97,-126 7875.97,-126 7872.97,-122 7758.03,-122 7758.03,-86 7899.97,-86 7899.97,-122"/>
<text text-anchor="middle" x="7829" y="-99.8" font-family="Times,serif" font-size="14.00">ContentSearchModule</text>
</g>
<!-- ContentSearchModule&#45;&gt;WorkspaceModule -->
<g id="edge37" class="edge">
<title>ContentSearchModule&#45;&gt;WorkspaceModule</title>
<path fill="none" stroke="black" d="M7829,-122.2C7829,-146.36 7829,-186 7829,-186 7829,-186 4192.27,-186 4192.27,-186"/>
<polygon fill="black" stroke="black" points="4192.27,-182.5 4182.27,-186 4192.27,-189.5 4192.27,-182.5"/>
</g>
<!-- CoreModule -->
<g id="node36" class="node">
<title>CoreModule</title>
<polygon fill="#8dd3c7" stroke="black" points="7740.26,-122 7737.26,-126 7716.26,-126 7713.26,-122 7653.74,-122 7653.74,-86 7740.26,-86 7740.26,-122"/>
<text text-anchor="middle" x="7697" y="-99.8" font-family="Times,serif" font-size="14.00">CoreModule</text>
</g>
<!-- CoreModule&#45;&gt;WorkspaceModule -->
<g id="edge38" class="edge">
<title>CoreModule&#45;&gt;WorkspaceModule</title>
<path fill="none" stroke="black" d="M7697,-122.15C7697,-145.76 7697,-184 7697,-184 7697,-184 4192.32,-184 4192.32,-184"/>
<polygon fill="black" stroke="black" points="4192.32,-180.5 4182.32,-184 4192.32,-187.5 4192.32,-180.5"/>
</g>
<!-- PlayerHelperModule -->
<g id="node37" class="node">
<title>PlayerHelperModule</title>
<polygon fill="#8dd3c7" stroke="black" points="7635.9,-122 7632.9,-126 7611.9,-126 7608.9,-122 7502.1,-122 7502.1,-86 7635.9,-86 7635.9,-122"/>
<text text-anchor="middle" x="7569" y="-99.8" font-family="Times,serif" font-size="14.00">PlayerHelperModule</text>
</g>
<!-- PlayerHelperModule&#45;&gt;WorkspaceModule -->
<g id="edge39" class="edge">
<title>PlayerHelperModule&#45;&gt;WorkspaceModule</title>
<path fill="none" stroke="black" d="M7569,-122.32C7569,-145.66 7569,-183 7569,-183 7569,-183 4192.31,-183 4192.31,-183"/>
<polygon fill="black" stroke="black" points="4192.31,-179.5 4182.31,-183 4192.31,-186.5 4192.31,-179.5"/>
</g>
<!-- SharedModule -->
<g id="node38" class="node">
<title>SharedModule</title>
<polygon fill="#8dd3c7" stroke="black" points="7484.42,-122 7481.42,-126 7460.42,-126 7457.42,-122 7385.58,-122 7385.58,-86 7484.42,-86 7484.42,-122"/>
<text text-anchor="middle" x="7435" y="-99.8" font-family="Times,serif" font-size="14.00">SharedModule</text>
</g>
<!-- SharedModule&#45;&gt;WorkspaceModule -->
<g id="edge40" class="edge">
<title>SharedModule&#45;&gt;WorkspaceModule</title>
<path fill="none" stroke="black" d="M7435,-122.25C7435,-145.02 7435,-181 7435,-181 7435,-181 4192.07,-181 4192.07,-181"/>
<polygon fill="black" stroke="black" points="4192.07,-177.5 4182.07,-181 4192.07,-184.5 4192.07,-177.5"/>
</g>
<!-- TelemetryModule -->
<g id="node39" class="node">
<title>TelemetryModule</title>
<polygon fill="#8dd3c7" stroke="black" points="7367.58,-122 7364.58,-126 7343.58,-126 7340.58,-122 7250.42,-122 7250.42,-86 7367.58,-86 7367.58,-122"/>
<text text-anchor="middle" x="7309" y="-99.8" font-family="Times,serif" font-size="14.00">TelemetryModule</text>
</g>
<!-- TelemetryModule&#45;&gt;WorkspaceModule -->
<g id="edge41" class="edge">
<title>TelemetryModule&#45;&gt;WorkspaceModule</title>
<path fill="none" stroke="black" d="M7309,-122.01C7309,-144.49 7309,-180 7309,-180 7309,-180 4192.19,-180 4192.19,-180"/>
<polygon fill="black" stroke="black" points="4192.19,-176.5 4182.19,-180 4192.19,-183.5 4192.19,-176.5"/>
</g>
<!-- WorkspaceRoutingModule -->
<g id="node40" class="node">
<title>WorkspaceRoutingModule</title>
<polygon fill="#8dd3c7" stroke="black" points="7232.63,-122 7229.63,-126 7208.63,-126 7205.63,-122 7065.37,-122 7065.37,-86 7232.63,-86 7232.63,-122"/>
<text text-anchor="middle" x="7149" y="-99.8" font-family="Times,serif" font-size="14.00">WorkspaceRoutingModule</text>
</g>
<!-- WorkspaceRoutingModule&#45;&gt;WorkspaceModule -->
<g id="edge42" class="edge">
<title>WorkspaceRoutingModule&#45;&gt;WorkspaceModule</title>
<path fill="none" stroke="black" d="M7149,-122.29C7149,-144.21 7149,-178 7149,-178 7149,-178 4192.17,-178 4192.17,-178"/>
<polygon fill="black" stroke="black" points="4192.17,-174.5 4182.17,-178 4192.17,-181.5 4192.17,-174.5"/>
</g>
<!-- BatchService -->
<g id="node41" class="node">
<title>BatchService</title>
<ellipse fill="#fdb462" stroke="black" cx="6978" cy="-104" rx="62.54" ry="18"/>
<text text-anchor="middle" x="6978" y="-99.8" font-family="Times,serif" font-size="14.00">BatchService</text>
</g>
<!-- BatchService&#45;&gt;WorkspaceModule -->
<g id="edge43" class="edge">
<title>BatchService&#45;&gt;WorkspaceModule</title>
<path fill="none" stroke="black" d="M6978,-122.04C6978,-143.66 6978,-177 6978,-177 6978,-177 4192.33,-177 4192.33,-177"/>
<polygon fill="black" stroke="black" points="4192.33,-173.5 4182.33,-177 4192.33,-180.5 4192.33,-173.5"/>
</g>
<!-- EditorService -->
<g id="node42" class="node">
<title>EditorService</title>
<ellipse fill="#fdb462" stroke="black" cx="6833" cy="-104" rx="64.26" ry="18"/>
<text text-anchor="middle" x="6833" y="-99.8" font-family="Times,serif" font-size="14.00">EditorService</text>
</g>
<!-- EditorService&#45;&gt;WorkspaceModule -->
<g id="edge44" class="edge">
<title>EditorService&#45;&gt;WorkspaceModule</title>
<path fill="none" stroke="black" d="M6833,-122.28C6833,-143.32 6833,-175 6833,-175 6833,-175 4192.09,-175 4192.09,-175"/>
<polygon fill="black" stroke="black" points="4192.09,-171.5 4182.09,-175 4192.09,-178.5 4192.09,-171.5"/>
</g>
<!-- ReviewCommentsService -->
<g id="node43" class="node">
<title>ReviewCommentsService</title>
<ellipse fill="#fdb462" stroke="black" cx="6640" cy="-104" rx="111.17" ry="18"/>
<text text-anchor="middle" x="6640" y="-99.8" font-family="Times,serif" font-size="14.00">ReviewCommentsService</text>
</g>
<!-- ReviewCommentsService&#45;&gt;WorkspaceModule -->
<g id="edge45" class="edge">
<title>ReviewCommentsService&#45;&gt;WorkspaceModule</title>
<path fill="none" stroke="black" d="M6640,-122.13C6640,-142.57 6640,-173 6640,-173 6640,-173 4192.02,-173 4192.02,-173"/>
<polygon fill="black" stroke="black" points="4192.02,-169.5 4182.02,-173 4192.02,-176.5 4192.02,-169.5"/>
</g>
<!-- WorkSpaceService -->
<g id="node44" class="node">
<title>WorkSpaceService</title>
<ellipse fill="#fdb462" stroke="black" cx="6426" cy="-104" rx="85.07" ry="18"/>
<text text-anchor="middle" x="6426" y="-99.8" font-family="Times,serif" font-size="14.00">WorkSpaceService</text>
</g>
<!-- WorkSpaceService&#45;&gt;WorkspaceModule -->
<g id="edge46" class="edge">
<title>WorkSpaceService&#45;&gt;WorkspaceModule</title>
<path fill="none" stroke="black" d="M6426,-122.22C6426,-142.37 6426,-172 6426,-172 6426,-172 4192.06,-172 4192.06,-172"/>
<polygon fill="black" stroke="black" points="4192.06,-168.5 4182.06,-172 4192.06,-175.5 4192.06,-168.5"/>
</g>
</g>
</svg>
