<?xml version="1.0" encoding="UTF-8" standalone="no"?>
<!DOCTYPE svg PUBLIC "-//W3C//DTD SVG 1.1//EN"
 "http://www.w3.org/Graphics/SVG/1.1/DTD/svg11.dtd">
<!-- Generated by graphviz version 2.47.0 (20210316.0004)
 -->
<!-- Title: dependencies Pages: 1 -->
<svg width="566pt" height="284pt"
 viewBox="0.00 0.00 566.00 284.00" xmlns="http://www.w3.org/2000/svg" xmlns:xlink="http://www.w3.org/1999/xlink">
<g id="graph0" class="graph" transform="scale(1 1) rotate(0) translate(4 280)">
<title>dependencies</title>
<polygon fill="white" stroke="transparent" points="-4,4 -4,-280 562,-280 562,4 -4,4"/>
<text text-anchor="start" x="258.01" y="-42.4" font-family="Times-12" font-weight="bold" font-size="14.00">Legend</text>
<polygon fill="#ffffb3" stroke="transparent" points="45,-10 45,-30 65,-30 65,-10 45,-10"/>
<text text-anchor="start" x="68.63" y="-15.4" font-family="Times-12" font-size="14.00"> &#160;Declarations</text>
<polygon fill="#8dd3c7" stroke="transparent" points="158,-10 158,-30 178,-30 178,-10 158,-10"/>
<text text-anchor="start" x="181.73" y="-15.4" font-family="Times-12" font-size="14.00"> &#160;Module</text>
<polygon fill="#80b1d3" stroke="transparent" points="244,-10 244,-30 264,-30 264,-10 244,-10"/>
<text text-anchor="start" x="267.78" y="-15.4" font-family="Times-12" font-size="14.00"> &#160;Bootstrap</text>
<polygon fill="#fdb462" stroke="transparent" points="341,-10 341,-30 361,-30 361,-10 341,-10"/>
<text text-anchor="start" x="364.67" y="-15.4" font-family="Times-12" font-size="14.00"> &#160;Providers</text>
<polygon fill="#fb8072" stroke="transparent" points="437,-10 437,-30 457,-30 457,-10 437,-10"/>
<text text-anchor="start" x="460.73" y="-15.4" font-family="Times-12" font-size="14.00"> &#160;Exports</text>
<g id="clust1" class="cluster">
<title>cluster_DirectivesModule</title>
<polygon fill="none" stroke="black" stroke-dasharray="1,5" points="8,-70 8,-268 550,-268 550,-70 8,-70"/>
</g>
<g id="clust7" class="cluster">
<title>cluster_DirectivesModule_exports</title>
<polygon fill="none" stroke="black" points="16,-208 16,-260 542,-260 542,-208 16,-208"/>
</g>
<g id="clust2" class="cluster">
<title>cluster_DirectivesModule_declarations</title>
<polygon fill="none" stroke="black" points="20,-78 20,-130 536,-130 536,-78 20,-78"/>
</g>
<!-- CustomIonSelectDirective -->
<g id="node1" class="node">
<title>CustomIonSelectDirective</title>
<polygon fill="#ffffb3" stroke="black" points="528.01,-122 363.99,-122 363.99,-86 528.01,-86 528.01,-122"/>
<text text-anchor="middle" x="446" y="-99.8" font-family="Times,serif" font-size="14.00">CustomIonSelectDirective</text>
</g>
<!-- DirectivesModule -->
<g id="node4" class="node">
<title>DirectivesModule</title>
<polygon fill="#8dd3c7" stroke="black" points="318.58,-187 315.58,-191 294.58,-191 291.58,-187 201.42,-187 201.42,-151 318.58,-151 318.58,-187"/>
<text text-anchor="middle" x="260" y="-164.8" font-family="Times,serif" font-size="14.00">DirectivesModule</text>
</g>
<!-- CustomIonSelectDirective&#45;&gt;DirectivesModule -->
<g id="edge1" class="edge">
<title>CustomIonSelectDirective&#45;&gt;DirectivesModule</title>
<path fill="none" stroke="black" d="M474.17,-122.02C474.17,-139.37 474.17,-163 474.17,-163 474.17,-163 328.81,-163 328.81,-163"/>
<polygon fill="black" stroke="black" points="328.81,-159.5 318.81,-163 328.81,-166.5 328.81,-159.5"/>
</g>
<!-- HideHeaderFooterDirective -->
<g id="node2" class="node">
<title>HideHeaderFooterDirective</title>
<polygon fill="#ffffb3" stroke="black" points="346.25,-122 173.75,-122 173.75,-86 346.25,-86 346.25,-122"/>
<text text-anchor="middle" x="260" y="-99.8" font-family="Times,serif" font-size="14.00">HideHeaderFooterDirective</text>
</g>
<!-- HideHeaderFooterDirective&#45;&gt;DirectivesModule -->
<g id="edge2" class="edge">
<title>HideHeaderFooterDirective&#45;&gt;DirectivesModule</title>
<path fill="none" stroke="black" d="M260,-122.11C260,-122.11 260,-140.99 260,-140.99"/>
<polygon fill="black" stroke="black" points="256.5,-140.99 260,-150.99 263.5,-140.99 256.5,-140.99"/>
</g>
<!-- ReadMoreDirective -->
<g id="node3" class="node">
<title>ReadMoreDirective</title>
<polygon fill="#ffffb3" stroke="black" points="155.67,-122 28.33,-122 28.33,-86 155.67,-86 155.67,-122"/>
<text text-anchor="middle" x="92" y="-99.8" font-family="Times,serif" font-size="14.00">ReadMoreDirective</text>
</g>
<!-- ReadMoreDirective&#45;&gt;DirectivesModule -->
<g id="edge3" class="edge">
<title>ReadMoreDirective&#45;&gt;DirectivesModule</title>
<path fill="none" stroke="black" d="M112.36,-122.02C112.36,-139.37 112.36,-163 112.36,-163 112.36,-163 191.23,-163 191.23,-163"/>
<polygon fill="black" stroke="black" points="191.23,-166.5 201.23,-163 191.23,-159.5 191.23,-166.5"/>
</g>
<!-- CustomIonSelectDirective  -->
<g id="node5" class="node">
<title>CustomIonSelectDirective </title>
<polygon fill="#fb8072" stroke="black" points="534.01,-252 365.99,-252 365.99,-216 534.01,-216 534.01,-252"/>
<text text-anchor="middle" x="450" y="-229.8" font-family="Times,serif" font-size="14.00">CustomIonSelectDirective </text>
</g>
<!-- DirectivesModule&#45;&gt;CustomIonSelectDirective  -->
<g id="edge4" class="edge">
<title>DirectivesModule&#45;&gt;CustomIonSelectDirective </title>
<path fill="none" stroke="black" stroke-dasharray="5,2" d="M318.7,-175C364.39,-175 420.08,-175 420.08,-175 420.08,-175 420.08,-205.98 420.08,-205.98"/>
<polygon fill="black" stroke="black" points="416.58,-205.98 420.08,-215.98 423.58,-205.98 416.58,-205.98"/>
</g>
<!-- HideHeaderFooterDirective  -->
<g id="node6" class="node">
<title>HideHeaderFooterDirective </title>
<polygon fill="#fb8072" stroke="black" points="347.75,-252 172.25,-252 172.25,-216 347.75,-216 347.75,-252"/>
<text text-anchor="middle" x="260" y="-229.8" font-family="Times,serif" font-size="14.00">HideHeaderFooterDirective </text>
</g>
<!-- DirectivesModule&#45;&gt;HideHeaderFooterDirective  -->
<g id="edge5" class="edge">
<title>DirectivesModule&#45;&gt;HideHeaderFooterDirective </title>
<path fill="none" stroke="black" stroke-dasharray="5,2" d="M260,-187.11C260,-187.11 260,-205.99 260,-205.99"/>
<polygon fill="black" stroke="black" points="256.5,-205.99 260,-215.99 263.5,-205.99 256.5,-205.99"/>
</g>
<!-- ReadMoreDirective  -->
<g id="node7" class="node">
<title>ReadMoreDirective </title>
<polygon fill="#fb8072" stroke="black" points="154.17,-252 23.83,-252 23.83,-216 154.17,-216 154.17,-252"/>
<text text-anchor="middle" x="89" y="-229.8" font-family="Times,serif" font-size="14.00">ReadMoreDirective </text>
</g>
<!-- DirectivesModule&#45;&gt;ReadMoreDirective  -->
<g id="edge6" class="edge">
<title>DirectivesModule&#45;&gt;ReadMoreDirective </title>
<path fill="none" stroke="black" stroke-dasharray="5,2" d="M201.3,-175C145.62,-175 70.39,-175 70.39,-175 70.39,-175 70.39,-205.98 70.39,-205.98"/>
<polygon fill="black" stroke="black" points="66.89,-205.98 70.39,-215.98 73.89,-205.98 66.89,-205.98"/>
</g>
</g>
</svg>
