<?xml version="1.0" encoding="UTF-8" standalone="no"?>
<!DOCTYPE svg PUBLIC "-//W3C//DTD SVG 1.1//EN"
 "http://www.w3.org/Graphics/SVG/1.1/DTD/svg11.dtd">
<!-- Generated by graphviz version 2.47.0 (20210316.0004)
 -->
<!-- Title: dependencies Pages: 1 -->
<svg width="1228pt" height="211pt"
 viewBox="0.00 0.00 1228.00 211.00" xmlns="http://www.w3.org/2000/svg" xmlns:xlink="http://www.w3.org/1999/xlink">
<g id="graph0" class="graph" transform="scale(1 1) rotate(0) translate(4 207)">
<title>dependencies</title>
<polygon fill="white" stroke="transparent" points="-4,4 -4,-207 1224,-207 1224,4 -4,4"/>
<text text-anchor="start" x="589.01" y="-42.4" font-family="Times-12" font-weight="bold" font-size="14.00">Legend</text>
<polygon fill="#ffffb3" stroke="transparent" points="376,-10 376,-30 396,-30 396,-10 376,-10"/>
<text text-anchor="start" x="399.63" y="-15.4" font-family="Times-12" font-size="14.00"> &#160;Declarations</text>
<polygon fill="#8dd3c7" stroke="transparent" points="489,-10 489,-30 509,-30 509,-10 489,-10"/>
<text text-anchor="start" x="512.73" y="-15.4" font-family="Times-12" font-size="14.00"> &#160;Module</text>
<polygon fill="#80b1d3" stroke="transparent" points="575,-10 575,-30 595,-30 595,-10 575,-10"/>
<text text-anchor="start" x="598.78" y="-15.4" font-family="Times-12" font-size="14.00"> &#160;Bootstrap</text>
<polygon fill="#fdb462" stroke="transparent" points="672,-10 672,-30 692,-30 692,-10 672,-10"/>
<text text-anchor="start" x="695.67" y="-15.4" font-family="Times-12" font-size="14.00"> &#160;Providers</text>
<polygon fill="#fb8072" stroke="transparent" points="768,-10 768,-30 788,-30 788,-10 768,-10"/>
<text text-anchor="start" x="791.73" y="-15.4" font-family="Times-12" font-size="14.00"> &#160;Exports</text>
<g id="clust1" class="cluster">
<title>cluster_ExplorePageModule</title>
<polygon fill="none" stroke="black" stroke-dasharray="1,5" points="8,-70 8,-195 1212,-195 1212,-70 8,-70"/>
</g>
<g id="clust4" class="cluster">
<title>cluster_ExplorePageModule_imports</title>
<polygon fill="none" stroke="black" points="192,-78 192,-130 1204,-130 1204,-78 192,-78"/>
</g>
<g id="clust2" class="cluster">
<title>cluster_ExplorePageModule_declarations</title>
<polygon fill="none" stroke="black" points="16,-78 16,-130 184,-130 184,-78 16,-78"/>
</g>
<!-- ExplorePageComponent -->
<g id="node1" class="node">
<title>ExplorePageComponent</title>
<polygon fill="#ffffb3" stroke="black" points="176.36,-122 23.64,-122 23.64,-86 176.36,-86 176.36,-122"/>
<text text-anchor="middle" x="100" y="-99.8" font-family="Times,serif" font-size="14.00">ExplorePageComponent</text>
</g>
<!-- ExplorePageModule -->
<g id="node2" class="node">
<title>ExplorePageModule</title>
<polygon fill="#8dd3c7" stroke="black" points="663.58,-187 660.58,-191 639.58,-191 636.58,-187 532.42,-187 532.42,-151 663.58,-151 663.58,-187"/>
<text text-anchor="middle" x="598" y="-164.8" font-family="Times,serif" font-size="14.00">ExplorePageModule</text>
</g>
<!-- ExplorePageComponent&#45;&gt;ExplorePageModule -->
<g id="edge1" class="edge">
<title>ExplorePageComponent&#45;&gt;ExplorePageModule</title>
<path fill="none" stroke="black" d="M100,-122.29C100,-144.21 100,-178 100,-178 100,-178 522.38,-178 522.38,-178"/>
<polygon fill="black" stroke="black" points="522.38,-181.5 532.38,-178 522.38,-174.5 522.38,-181.5"/>
</g>
<!-- ContentSearchModule -->
<g id="node3" class="node">
<title>ContentSearchModule</title>
<polygon fill="#8dd3c7" stroke="black" points="1195.97,-122 1192.97,-126 1171.97,-126 1168.97,-122 1054.03,-122 1054.03,-86 1195.97,-86 1195.97,-122"/>
<text text-anchor="middle" x="1125" y="-99.8" font-family="Times,serif" font-size="14.00">ContentSearchModule</text>
</g>
<!-- ContentSearchModule&#45;&gt;ExplorePageModule -->
<g id="edge2" class="edge">
<title>ContentSearchModule&#45;&gt;ExplorePageModule</title>
<path fill="none" stroke="black" d="M1125,-122.29C1125,-144.21 1125,-178 1125,-178 1125,-178 673.68,-178 673.68,-178"/>
<polygon fill="black" stroke="black" points="673.68,-174.5 663.68,-178 673.68,-181.5 673.68,-174.5"/>
</g>
<!-- CoreModule -->
<g id="node4" class="node">
<title>CoreModule</title>
<polygon fill="#8dd3c7" stroke="black" points="1036.26,-122 1033.26,-126 1012.26,-126 1009.26,-122 949.74,-122 949.74,-86 1036.26,-86 1036.26,-122"/>
<text text-anchor="middle" x="993" y="-99.8" font-family="Times,serif" font-size="14.00">CoreModule</text>
</g>
<!-- CoreModule&#45;&gt;ExplorePageModule -->
<g id="edge3" class="edge">
<title>CoreModule&#45;&gt;ExplorePageModule</title>
<path fill="none" stroke="black" d="M993,-122.11C993,-141.34 993,-169 993,-169 993,-169 673.67,-169 673.67,-169"/>
<polygon fill="black" stroke="black" points="673.67,-165.5 663.67,-169 673.67,-172.5 673.67,-165.5"/>
</g>
<!-- ExplorePageRoutingModule -->
<g id="node5" class="node">
<title>ExplorePageRoutingModule</title>
<polygon fill="#8dd3c7" stroke="black" points="932.2,-122 929.2,-126 908.2,-126 905.2,-122 755.8,-122 755.8,-86 932.2,-86 932.2,-122"/>
<text text-anchor="middle" x="844" y="-99.8" font-family="Times,serif" font-size="14.00">ExplorePageRoutingModule</text>
</g>
<!-- ExplorePageRoutingModule&#45;&gt;ExplorePageModule -->
<g id="edge4" class="edge">
<title>ExplorePageRoutingModule&#45;&gt;ExplorePageModule</title>
<path fill="none" stroke="black" d="M844,-122.03C844,-138.4 844,-160 844,-160 844,-160 673.6,-160 673.6,-160"/>
<polygon fill="black" stroke="black" points="673.6,-156.5 663.6,-160 673.6,-163.5 673.6,-156.5"/>
</g>
<!-- ObservationModule -->
<g id="node6" class="node">
<title>ObservationModule</title>
<polygon fill="#8dd3c7" stroke="black" points="737.97,-122 734.97,-126 713.97,-126 710.97,-122 610.03,-122 610.03,-86 737.97,-86 737.97,-122"/>
<text text-anchor="middle" x="674" y="-99.8" font-family="Times,serif" font-size="14.00">ObservationModule</text>
</g>
<!-- ObservationModule&#45;&gt;ExplorePageModule -->
<g id="edge5" class="edge">
<title>ObservationModule&#45;&gt;ExplorePageModule</title>
<path fill="none" stroke="black" d="M636.78,-122.11C636.78,-122.11 636.78,-140.99 636.78,-140.99"/>
<polygon fill="black" stroke="black" points="633.28,-140.99 636.78,-150.99 640.28,-140.99 633.28,-140.99"/>
</g>
<!-- SharedFeatureModule -->
<g id="node7" class="node">
<title>SharedFeatureModule</title>
<polygon fill="#8dd3c7" stroke="black" points="592.4,-122 589.4,-126 568.4,-126 565.4,-122 451.6,-122 451.6,-86 592.4,-86 592.4,-122"/>
<text text-anchor="middle" x="522" y="-99.8" font-family="Times,serif" font-size="14.00">SharedFeatureModule</text>
</g>
<!-- SharedFeatureModule&#45;&gt;ExplorePageModule -->
<g id="edge6" class="edge">
<title>SharedFeatureModule&#45;&gt;ExplorePageModule</title>
<path fill="none" stroke="black" d="M562.33,-122.11C562.33,-122.11 562.33,-140.99 562.33,-140.99"/>
<polygon fill="black" stroke="black" points="558.83,-140.99 562.33,-150.99 565.83,-140.99 558.83,-140.99"/>
</g>
<!-- SharedModule -->
<g id="node8" class="node">
<title>SharedModule</title>
<polygon fill="#8dd3c7" stroke="black" points="434.42,-122 431.42,-126 410.42,-126 407.42,-122 335.58,-122 335.58,-86 434.42,-86 434.42,-122"/>
<text text-anchor="middle" x="385" y="-99.8" font-family="Times,serif" font-size="14.00">SharedModule</text>
</g>
<!-- SharedModule&#45;&gt;ExplorePageModule -->
<g id="edge7" class="edge">
<title>SharedModule&#45;&gt;ExplorePageModule</title>
<path fill="none" stroke="black" d="M385,-122.03C385,-138.4 385,-160 385,-160 385,-160 522.35,-160 522.35,-160"/>
<polygon fill="black" stroke="black" points="522.35,-163.5 532.35,-160 522.35,-156.5 522.35,-163.5"/>
</g>
<!-- TelemetryModule -->
<g id="node9" class="node">
<title>TelemetryModule</title>
<polygon fill="#8dd3c7" stroke="black" points="317.58,-122 314.58,-126 293.58,-126 290.58,-122 200.42,-122 200.42,-86 317.58,-86 317.58,-122"/>
<text text-anchor="middle" x="259" y="-99.8" font-family="Times,serif" font-size="14.00">TelemetryModule</text>
</g>
<!-- TelemetryModule&#45;&gt;ExplorePageModule -->
<g id="edge8" class="edge">
<title>TelemetryModule&#45;&gt;ExplorePageModule</title>
<path fill="none" stroke="black" d="M259,-122.11C259,-141.34 259,-169 259,-169 259,-169 522.24,-169 522.24,-169"/>
<polygon fill="black" stroke="black" points="522.24,-172.5 532.24,-169 522.24,-165.5 522.24,-172.5"/>
</g>
</g>
</svg>
