<?xml version="1.0" encoding="UTF-8" standalone="no"?>
<!DOCTYPE svg PUBLIC "-//W3C//DTD SVG 1.1//EN"
 "http://www.w3.org/Graphics/SVG/1.1/DTD/svg11.dtd">
<!-- Generated by graphviz version 2.47.0 (20210316.0004)
 -->
<!-- Title: dependencies Pages: 1 -->
<svg width="504pt" height="211pt"
 viewBox="0.00 0.00 504.00 211.00" xmlns="http://www.w3.org/2000/svg" xmlns:xlink="http://www.w3.org/1999/xlink">
<g id="graph0" class="graph" transform="scale(1 1) rotate(0) translate(4 207)">
<title>dependencies</title>
<polygon fill="white" stroke="transparent" points="-4,4 -4,-207 500,-207 500,4 -4,4"/>
<text text-anchor="start" x="227.01" y="-42.4" font-family="Times-12" font-weight="bold" font-size="14.00">Legend</text>
<polygon fill="#ffffb3" stroke="transparent" points="14,-10 14,-30 34,-30 34,-10 14,-10"/>
<text text-anchor="start" x="37.63" y="-15.4" font-family="Times-12" font-size="14.00"> &#160;Declarations</text>
<polygon fill="#8dd3c7" stroke="transparent" points="127,-10 127,-30 147,-30 147,-10 127,-10"/>
<text text-anchor="start" x="150.73" y="-15.4" font-family="Times-12" font-size="14.00"> &#160;Module</text>
<polygon fill="#80b1d3" stroke="transparent" points="213,-10 213,-30 233,-30 233,-10 213,-10"/>
<text text-anchor="start" x="236.78" y="-15.4" font-family="Times-12" font-size="14.00"> &#160;Bootstrap</text>
<polygon fill="#fdb462" stroke="transparent" points="310,-10 310,-30 330,-30 330,-10 310,-10"/>
<text text-anchor="start" x="333.67" y="-15.4" font-family="Times-12" font-size="14.00"> &#160;Providers</text>
<polygon fill="#fb8072" stroke="transparent" points="406,-10 406,-30 426,-30 426,-10 406,-10"/>
<text text-anchor="start" x="429.73" y="-15.4" font-family="Times-12" font-size="14.00"> &#160;Exports</text>
<g id="clust1" class="cluster">
<title>cluster_ImageListingModule</title>
<polygon fill="none" stroke="black" stroke-dasharray="1,5" points="40.5,-70 40.5,-195 455.5,-195 455.5,-70 40.5,-70"/>
</g>
<g id="clust4" class="cluster">
<title>cluster_ImageListingModule_imports</title>
<polygon fill="none" stroke="black" points="228.5,-78 228.5,-130 447.5,-130 447.5,-78 228.5,-78"/>
</g>
<g id="clust2" class="cluster">
<title>cluster_ImageListingModule_declarations</title>
<polygon fill="none" stroke="black" points="48.5,-78 48.5,-130 220.5,-130 220.5,-78 48.5,-78"/>
</g>
<!-- ImageListingComponent -->
<g id="node1" class="node">
<title>ImageListingComponent</title>
<polygon fill="#ffffb3" stroke="black" points="212.48,-122 56.52,-122 56.52,-86 212.48,-86 212.48,-122"/>
<text text-anchor="middle" x="134.5" y="-99.8" font-family="Times,serif" font-size="14.00">ImageListingComponent</text>
</g>
<!-- ImageListingModule -->
<g id="node2" class="node">
<title>ImageListingModule</title>
<polygon fill="#8dd3c7" stroke="black" points="352.7,-187 349.7,-191 328.7,-191 325.7,-187 218.3,-187 218.3,-151 352.7,-151 352.7,-187"/>
<text text-anchor="middle" x="285.5" y="-164.8" font-family="Times,serif" font-size="14.00">ImageListingModule</text>
</g>
<!-- ImageListingComponent&#45;&gt;ImageListingModule -->
<g id="edge1" class="edge">
<title>ImageListingComponent&#45;&gt;ImageListingModule</title>
<path fill="none" stroke="black" d="M212.84,-104C221.54,-104 227.34,-104 227.34,-104 227.34,-104 227.34,-140.89 227.34,-140.89"/>
<polygon fill="black" stroke="black" points="223.84,-140.89 227.34,-150.89 230.84,-140.89 223.84,-140.89"/>
</g>
<!-- CoreModule -->
<g id="node3" class="node">
<title>CoreModule</title>
<polygon fill="#8dd3c7" stroke="black" points="439.76,-122 436.76,-126 415.76,-126 412.76,-122 353.24,-122 353.24,-86 439.76,-86 439.76,-122"/>
<text text-anchor="middle" x="396.5" y="-99.8" font-family="Times,serif" font-size="14.00">CoreModule</text>
</g>
<!-- CoreModule&#45;&gt;ImageListingModule -->
<g id="edge2" class="edge">
<title>CoreModule&#45;&gt;ImageListingModule</title>
<path fill="none" stroke="black" d="M352.86,-104C347.38,-104 343.66,-104 343.66,-104 343.66,-104 343.66,-140.89 343.66,-140.89"/>
<polygon fill="black" stroke="black" points="340.16,-140.89 343.66,-150.89 347.16,-140.89 340.16,-140.89"/>
</g>
<!-- SharedModule -->
<g id="node4" class="node">
<title>SharedModule</title>
<polygon fill="#8dd3c7" stroke="black" points="334.92,-122 331.92,-126 310.92,-126 307.92,-122 236.08,-122 236.08,-86 334.92,-86 334.92,-122"/>
<text text-anchor="middle" x="285.5" y="-99.8" font-family="Times,serif" font-size="14.00">SharedModule</text>
</g>
<!-- SharedModule&#45;&gt;ImageListingModule -->
<g id="edge3" class="edge">
<title>SharedModule&#45;&gt;ImageListingModule</title>
<path fill="none" stroke="black" d="M285.5,-122.11C285.5,-122.11 285.5,-140.99 285.5,-140.99"/>
<polygon fill="black" stroke="black" points="282,-140.99 285.5,-150.99 289,-140.99 282,-140.99"/>
</g>
</g>
</svg>
