<?xml version="1.0" encoding="UTF-8" standalone="no"?>
<!DOCTYPE svg PUBLIC "-//W3C//DTD SVG 1.1//EN"
 "http://www.w3.org/Graphics/SVG/1.1/DTD/svg11.dtd">
<!-- Generated by graphviz version 2.47.0 (20210316.0004)
 -->
<!-- Title: dependencies Pages: 1 -->
<svg width="2238pt" height="284pt"
 viewBox="0.00 0.00 2238.00 284.00" xmlns="http://www.w3.org/2000/svg" xmlns:xlink="http://www.w3.org/1999/xlink">
<g id="graph0" class="graph" transform="scale(1 1) rotate(0) translate(4 280)">
<title>dependencies</title>
<polygon fill="white" stroke="transparent" points="-4,4 -4,-280 2234,-280 2234,4 -4,4"/>
<text text-anchor="start" x="1094.01" y="-42.4" font-family="Times-12" font-weight="bold" font-size="14.00">Legend</text>
<polygon fill="#ffffb3" stroke="transparent" points="881,-10 881,-30 901,-30 901,-10 881,-10"/>
<text text-anchor="start" x="904.63" y="-15.4" font-family="Times-12" font-size="14.00"> &#160;Declarations</text>
<polygon fill="#8dd3c7" stroke="transparent" points="994,-10 994,-30 1014,-30 1014,-10 994,-10"/>
<text text-anchor="start" x="1017.73" y="-15.4" font-family="Times-12" font-size="14.00"> &#160;Module</text>
<polygon fill="#80b1d3" stroke="transparent" points="1080,-10 1080,-30 1100,-30 1100,-10 1080,-10"/>
<text text-anchor="start" x="1103.78" y="-15.4" font-family="Times-12" font-size="14.00"> &#160;Bootstrap</text>
<polygon fill="#fdb462" stroke="transparent" points="1177,-10 1177,-30 1197,-30 1197,-10 1177,-10"/>
<text text-anchor="start" x="1200.67" y="-15.4" font-family="Times-12" font-size="14.00"> &#160;Providers</text>
<polygon fill="#fb8072" stroke="transparent" points="1273,-10 1273,-30 1293,-30 1293,-10 1273,-10"/>
<text text-anchor="start" x="1296.73" y="-15.4" font-family="Times-12" font-size="14.00"> &#160;Exports</text>
<g id="clust1" class="cluster">
<title>cluster_OfflineModule</title>
<polygon fill="none" stroke="black" stroke-dasharray="1,5" points="8,-70 8,-268 2222,-268 2222,-70 8,-70"/>
</g>
<g id="clust11" class="cluster">
<title>cluster_OfflineModule_imports</title>
<polygon fill="none" stroke="black" points="1672,-78 1672,-130 2214,-130 2214,-78 1672,-78"/>
</g>
<g id="clust12" class="cluster">
<title>cluster_OfflineModule_exports</title>
<polygon fill="none" stroke="black" points="1108,-208 1108,-260 1260,-260 1260,-208 1108,-208"/>
</g>
<g id="clust14" class="cluster">
<title>cluster_OfflineModule_providers</title>
<polygon fill="none" stroke="black" points="1438,-78 1438,-130 1664,-130 1664,-78 1438,-78"/>
</g>
<g id="clust2" class="cluster">
<title>cluster_OfflineModule_declarations</title>
<polygon fill="none" stroke="black" points="16,-78 16,-130 1430,-130 1430,-78 16,-78"/>
</g>
<!-- AboutUsComponent -->
<g id="node1" class="node">
<title>AboutUsComponent</title>
<polygon fill="#ffffb3" stroke="black" points="1421.88,-122 1290.12,-122 1290.12,-86 1421.88,-86 1421.88,-122"/>
<text text-anchor="middle" x="1356" y="-99.8" font-family="Times,serif" font-size="14.00">AboutUsComponent</text>
</g>
<!-- OfflineModule -->
<g id="node9" class="node">
<title>OfflineModule</title>
<polygon fill="#8dd3c7" stroke="black" points="1233.97,-187 1230.97,-191 1209.97,-191 1206.97,-187 1134.03,-187 1134.03,-151 1233.97,-151 1233.97,-187"/>
<text text-anchor="middle" x="1184" y="-164.8" font-family="Times,serif" font-size="14.00">OfflineModule</text>
</g>
<!-- AboutUsComponent&#45;&gt;OfflineModule -->
<g id="edge1" class="edge">
<title>AboutUsComponent&#45;&gt;OfflineModule</title>
<path fill="none" stroke="black" d="M1356,-122.24C1356,-137.57 1356,-157 1356,-157 1356,-157 1244.21,-157 1244.21,-157"/>
<polygon fill="black" stroke="black" points="1244.21,-153.5 1234.21,-157 1244.21,-160.5 1244.21,-153.5"/>
</g>
<!-- ContentManagerComponent -->
<g id="node2" class="node">
<title>ContentManagerComponent</title>
<polygon fill="#ffffb3" stroke="black" points="1271.91,-122 1096.09,-122 1096.09,-86 1271.91,-86 1271.91,-122"/>
<text text-anchor="middle" x="1184" y="-99.8" font-family="Times,serif" font-size="14.00">ContentManagerComponent</text>
</g>
<!-- ContentManagerComponent&#45;&gt;OfflineModule -->
<g id="edge2" class="edge">
<title>ContentManagerComponent&#45;&gt;OfflineModule</title>
<path fill="none" stroke="black" d="M1184,-122.11C1184,-122.11 1184,-140.99 1184,-140.99"/>
<polygon fill="black" stroke="black" points="1180.5,-140.99 1184,-150.99 1187.5,-140.99 1180.5,-140.99"/>
</g>
<!-- ContentManagerInfoPopUpComponent -->
<g id="node3" class="node">
<title>ContentManagerInfoPopUpComponent</title>
<polygon fill="#ffffb3" stroke="black" points="1077.62,-122 840.38,-122 840.38,-86 1077.62,-86 1077.62,-122"/>
<text text-anchor="middle" x="959" y="-99.8" font-family="Times,serif" font-size="14.00">ContentManagerInfoPopUpComponent</text>
</g>
<!-- ContentManagerInfoPopUpComponent&#45;&gt;OfflineModule -->
<g id="edge3" class="edge">
<title>ContentManagerInfoPopUpComponent&#45;&gt;OfflineModule</title>
<path fill="none" stroke="black" d="M959,-122.24C959,-137.57 959,-157 959,-157 959,-157 1123.79,-157 1123.79,-157"/>
<polygon fill="black" stroke="black" points="1123.79,-160.5 1133.79,-157 1123.79,-153.5 1123.79,-160.5"/>
</g>
<!-- InfoCardComponent -->
<g id="node4" class="node">
<title>InfoCardComponent</title>
<polygon fill="#ffffb3" stroke="black" points="821.87,-122 690.13,-122 690.13,-86 821.87,-86 821.87,-122"/>
<text text-anchor="middle" x="756" y="-99.8" font-family="Times,serif" font-size="14.00">InfoCardComponent</text>
</g>
<!-- InfoCardComponent&#45;&gt;OfflineModule -->
<g id="edge4" class="edge">
<title>InfoCardComponent&#45;&gt;OfflineModule</title>
<path fill="none" stroke="black" d="M756,-122.03C756,-139.06 756,-162 756,-162 756,-162 1123.64,-162 1123.64,-162"/>
<polygon fill="black" stroke="black" points="1123.64,-165.5 1133.64,-162 1123.64,-158.5 1123.64,-165.5"/>
</g>
<!-- LibraryComponent -->
<g id="node5" class="node">
<title>LibraryComponent</title>
<polygon fill="#ffffb3" stroke="black" points="671.81,-122 548.19,-122 548.19,-86 671.81,-86 671.81,-122"/>
<text text-anchor="middle" x="610" y="-99.8" font-family="Times,serif" font-size="14.00">LibraryComponent</text>
</g>
<!-- LibraryComponent&#45;&gt;OfflineModule -->
<g id="edge5" class="edge">
<title>LibraryComponent&#45;&gt;OfflineModule</title>
<path fill="none" stroke="black" d="M610,-122.22C610,-140.83 610,-167 610,-167 610,-167 1123.82,-167 1123.82,-167"/>
<polygon fill="black" stroke="black" points="1123.82,-170.5 1133.82,-167 1123.82,-163.5 1123.82,-170.5"/>
</g>
<!-- LoadContentComponent -->
<g id="node6" class="node">
<title>LoadContentComponent</title>
<polygon fill="#ffffb3" stroke="black" points="530.43,-122 375.57,-122 375.57,-86 530.43,-86 530.43,-122"/>
<text text-anchor="middle" x="453" y="-99.8" font-family="Times,serif" font-size="14.00">LoadContentComponent</text>
</g>
<!-- LoadContentComponent&#45;&gt;OfflineModule -->
<g id="edge6" class="edge">
<title>LoadContentComponent&#45;&gt;OfflineModule</title>
<path fill="none" stroke="black" d="M453,-122.22C453,-142.37 453,-172 453,-172 453,-172 1123.76,-172 1123.76,-172"/>
<polygon fill="black" stroke="black" points="1123.76,-175.5 1133.76,-172 1123.76,-168.5 1123.76,-175.5"/>
</g>
<!-- TelemetryComponent -->
<g id="node7" class="node">
<title>TelemetryComponent</title>
<polygon fill="#ffffb3" stroke="black" points="357.36,-122 218.64,-122 218.64,-86 357.36,-86 357.36,-122"/>
<text text-anchor="middle" x="288" y="-99.8" font-family="Times,serif" font-size="14.00">TelemetryComponent</text>
</g>
<!-- TelemetryComponent&#45;&gt;OfflineModule -->
<g id="edge7" class="edge">
<title>TelemetryComponent&#45;&gt;OfflineModule</title>
<path fill="none" stroke="black" d="M288,-122.04C288,-143.66 288,-177 288,-177 288,-177 1123.91,-177 1123.91,-177"/>
<polygon fill="black" stroke="black" points="1123.91,-180.5 1133.91,-177 1123.91,-173.5 1123.91,-180.5"/>
</g>
<!-- TelemetryImportComponent -->
<g id="node8" class="node">
<title>TelemetryImportComponent</title>
<polygon fill="#ffffb3" stroke="black" points="200.46,-122 23.54,-122 23.54,-86 200.46,-86 200.46,-122"/>
<text text-anchor="middle" x="112" y="-99.8" font-family="Times,serif" font-size="14.00">TelemetryImportComponent</text>
</g>
<!-- TelemetryImportComponent&#45;&gt;OfflineModule -->
<g id="edge8" class="edge">
<title>TelemetryImportComponent&#45;&gt;OfflineModule</title>
<path fill="none" stroke="black" d="M112,-122.09C112,-145.13 112,-182 112,-182 112,-182 1123.73,-182 1123.73,-182"/>
<polygon fill="black" stroke="black" points="1123.73,-185.5 1133.73,-182 1123.73,-178.5 1123.73,-185.5"/>
</g>
<!-- InfoCardComponent  -->
<g id="node14" class="node">
<title>InfoCardComponent </title>
<polygon fill="#fb8072" stroke="black" points="1251.87,-252 1116.13,-252 1116.13,-216 1251.87,-216 1251.87,-252"/>
<text text-anchor="middle" x="1184" y="-229.8" font-family="Times,serif" font-size="14.00">InfoCardComponent </text>
</g>
<!-- OfflineModule&#45;&gt;InfoCardComponent  -->
<g id="edge13" class="edge">
<title>OfflineModule&#45;&gt;InfoCardComponent </title>
<path fill="none" stroke="black" stroke-dasharray="5,2" d="M1184,-187.11C1184,-187.11 1184,-205.99 1184,-205.99"/>
<polygon fill="black" stroke="black" points="1180.5,-205.99 1184,-215.99 1187.5,-205.99 1180.5,-205.99"/>
</g>
<!-- ContentSearchModule -->
<g id="node10" class="node">
<title>ContentSearchModule</title>
<polygon fill="#8dd3c7" stroke="black" points="2205.97,-122 2202.97,-126 2181.97,-126 2178.97,-122 2064.03,-122 2064.03,-86 2205.97,-86 2205.97,-122"/>
<text text-anchor="middle" x="2135" y="-99.8" font-family="Times,serif" font-size="14.00">ContentSearchModule</text>
</g>
<!-- ContentSearchModule&#45;&gt;OfflineModule -->
<g id="edge9" class="edge">
<title>ContentSearchModule&#45;&gt;OfflineModule</title>
<path fill="none" stroke="black" d="M2135,-122.09C2135,-145.13 2135,-182 2135,-182 2135,-182 1244.12,-182 1244.12,-182"/>
<polygon fill="black" stroke="black" points="1244.12,-178.5 1234.12,-182 1244.12,-185.5 1244.12,-178.5"/>
</g>
<!-- CoreModule -->
<g id="node11" class="node">
<title>CoreModule</title>
<polygon fill="#8dd3c7" stroke="black" points="2046.26,-122 2043.26,-126 2022.26,-126 2019.26,-122 1959.74,-122 1959.74,-86 2046.26,-86 2046.26,-122"/>
<text text-anchor="middle" x="2003" y="-99.8" font-family="Times,serif" font-size="14.00">CoreModule</text>
</g>
<!-- CoreModule&#45;&gt;OfflineModule -->
<g id="edge10" class="edge">
<title>CoreModule&#45;&gt;OfflineModule</title>
<path fill="none" stroke="black" d="M2003,-122.04C2003,-143.66 2003,-177 2003,-177 2003,-177 1244,-177 1244,-177"/>
<polygon fill="black" stroke="black" points="1244,-173.5 1234,-177 1244,-180.5 1244,-173.5"/>
</g>
<!-- OfflineRoutingModule -->
<g id="node12" class="node">
<title>OfflineRoutingModule</title>
<polygon fill="#8dd3c7" stroke="black" points="1941.59,-122 1938.59,-126 1917.59,-126 1914.59,-122 1796.41,-122 1796.41,-86 1941.59,-86 1941.59,-122"/>
<text text-anchor="middle" x="1869" y="-99.8" font-family="Times,serif" font-size="14.00">OfflineRoutingModule</text>
</g>
<!-- OfflineRoutingModule&#45;&gt;OfflineModule -->
<g id="edge11" class="edge">
<title>OfflineRoutingModule&#45;&gt;OfflineModule</title>
<path fill="none" stroke="black" d="M1869,-122.22C1869,-142.37 1869,-172 1869,-172 1869,-172 1244.09,-172 1244.09,-172"/>
<polygon fill="black" stroke="black" points="1244.09,-168.5 1234.09,-172 1244.09,-175.5 1244.09,-168.5"/>
</g>
<!-- SharedModule -->
<g id="node13" class="node">
<title>SharedModule</title>
<polygon fill="#8dd3c7" stroke="black" points="1778.42,-122 1775.42,-126 1754.42,-126 1751.42,-122 1679.58,-122 1679.58,-86 1778.42,-86 1778.42,-122"/>
<text text-anchor="middle" x="1729" y="-99.8" font-family="Times,serif" font-size="14.00">SharedModule</text>
</g>
<!-- SharedModule&#45;&gt;OfflineModule -->
<g id="edge12" class="edge">
<title>SharedModule&#45;&gt;OfflineModule</title>
<path fill="none" stroke="black" d="M1729,-122.22C1729,-140.83 1729,-167 1729,-167 1729,-167 1244.3,-167 1244.3,-167"/>
<polygon fill="black" stroke="black" points="1244.3,-163.5 1234.3,-167 1244.3,-170.5 1244.3,-163.5"/>
</g>
<!-- ContentManagerService -->
<g id="node15" class="node">
<title>ContentManagerService</title>
<ellipse fill="#fdb462" stroke="black" cx="1551" cy="-104" rx="104.78" ry="18"/>
<text text-anchor="middle" x="1551" y="-99.8" font-family="Times,serif" font-size="14.00">ContentManagerService</text>
</g>
<!-- ContentManagerService&#45;&gt;OfflineModule -->
<g id="edge14" class="edge">
<title>ContentManagerService&#45;&gt;OfflineModule</title>
<path fill="none" stroke="black" d="M1551,-122.03C1551,-139.06 1551,-162 1551,-162 1551,-162 1244.26,-162 1244.26,-162"/>
<polygon fill="black" stroke="black" points="1244.26,-158.5 1234.26,-162 1244.26,-165.5 1244.26,-158.5"/>
</g>
</g>
</svg>
