<?xml version="1.0" encoding="UTF-8" standalone="no"?>
<!DOCTYPE svg PUBLIC "-//W3C//DTD SVG 1.1//EN"
 "http://www.w3.org/Graphics/SVG/1.1/DTD/svg11.dtd">
<!-- Generated by graphviz version 2.47.0 (20210316.0004)
 -->
<!-- Title: dependencies Pages: 1 -->
<svg width="3422pt" height="211pt"
 viewBox="0.00 0.00 3422.00 211.00" xmlns="http://www.w3.org/2000/svg" xmlns:xlink="http://www.w3.org/1999/xlink">
<g id="graph0" class="graph" transform="scale(1 1) rotate(0) translate(4 207)">
<title>dependencies</title>
<polygon fill="white" stroke="transparent" points="-4,4 -4,-207 3418,-207 3418,4 -4,4"/>
<text text-anchor="start" x="1686.01" y="-42.4" font-family="Times-12" font-weight="bold" font-size="14.00">Legend</text>
<polygon fill="#ffffb3" stroke="transparent" points="1473,-10 1473,-30 1493,-30 1493,-10 1473,-10"/>
<text text-anchor="start" x="1496.63" y="-15.4" font-family="Times-12" font-size="14.00"> &#160;Declarations</text>
<polygon fill="#8dd3c7" stroke="transparent" points="1586,-10 1586,-30 1606,-30 1606,-10 1586,-10"/>
<text text-anchor="start" x="1609.73" y="-15.4" font-family="Times-12" font-size="14.00"> &#160;Module</text>
<polygon fill="#80b1d3" stroke="transparent" points="1672,-10 1672,-30 1692,-30 1692,-10 1672,-10"/>
<text text-anchor="start" x="1695.78" y="-15.4" font-family="Times-12" font-size="14.00"> &#160;Bootstrap</text>
<polygon fill="#fdb462" stroke="transparent" points="1769,-10 1769,-30 1789,-30 1789,-10 1769,-10"/>
<text text-anchor="start" x="1792.67" y="-15.4" font-family="Times-12" font-size="14.00"> &#160;Providers</text>
<polygon fill="#fb8072" stroke="transparent" points="1865,-10 1865,-30 1885,-30 1885,-10 1865,-10"/>
<text text-anchor="start" x="1888.73" y="-15.4" font-family="Times-12" font-size="14.00"> &#160;Exports</text>
<g id="clust1" class="cluster">
<title>cluster_CourseConsumptionModule</title>
<polygon fill="none" stroke="black" stroke-dasharray="1,5" points="8,-70 8,-195 3406,-195 3406,-70 8,-70"/>
</g>
<g id="clust13" class="cluster">
<title>cluster_CourseConsumptionModule_imports</title>
<polygon fill="none" stroke="black" points="2094,-78 2094,-130 3398,-130 3398,-78 2094,-78"/>
</g>
<g id="clust2" class="cluster">
<title>cluster_CourseConsumptionModule_declarations</title>
<polygon fill="none" stroke="black" points="16,-78 16,-130 2086,-130 2086,-78 16,-78"/>
</g>
<!-- AssessmentPlayerComponent -->
<g id="node1" class="node">
<title>AssessmentPlayerComponent</title>
<polygon fill="#ffffb3" stroke="black" points="2077.69,-122 1894.31,-122 1894.31,-86 2077.69,-86 2077.69,-122"/>
<text text-anchor="middle" x="1986" y="-99.8" font-family="Times,serif" font-size="14.00">AssessmentPlayerComponent</text>
</g>
<!-- CourseConsumptionModule -->
<g id="node11" class="node">
<title>CourseConsumptionModule</title>
<polygon fill="#8dd3c7" stroke="black" points="2073.16,-187 2070.16,-191 2049.16,-191 2046.16,-187 1898.84,-187 1898.84,-151 2073.16,-151 2073.16,-187"/>
<text text-anchor="middle" x="1986" y="-164.8" font-family="Times,serif" font-size="14.00">CourseConsumptionModule</text>
</g>
<!-- AssessmentPlayerComponent&#45;&gt;CourseConsumptionModule -->
<g id="edge1" class="edge">
<title>AssessmentPlayerComponent&#45;&gt;CourseConsumptionModule</title>
<path fill="none" stroke="black" d="M1956.89,-122.11C1956.89,-122.11 1956.89,-140.99 1956.89,-140.99"/>
<polygon fill="black" stroke="black" points="1953.39,-140.99 1956.89,-150.99 1960.39,-140.99 1953.39,-140.99"/>
</g>
<!-- AssessmentPlayerComponent&#45;&gt;CourseConsumptionModule -->
<g id="edge2" class="edge">
<title>AssessmentPlayerComponent&#45;&gt;CourseConsumptionModule</title>
<path fill="none" stroke="black" d="M2015.11,-122.11C2015.11,-122.11 2015.11,-140.99 2015.11,-140.99"/>
<polygon fill="black" stroke="black" points="2011.61,-140.99 2015.11,-150.99 2018.61,-140.99 2011.61,-140.99"/>
</g>
<!-- BatchDetailsComponent -->
<g id="node2" class="node">
<title>BatchDetailsComponent</title>
<polygon fill="#ffffb3" stroke="black" points="1876.64,-122 1723.36,-122 1723.36,-86 1876.64,-86 1876.64,-122"/>
<text text-anchor="middle" x="1800" y="-99.8" font-family="Times,serif" font-size="14.00">BatchDetailsComponent</text>
</g>
<!-- BatchDetailsComponent&#45;&gt;CourseConsumptionModule -->
<g id="edge3" class="edge">
<title>BatchDetailsComponent&#45;&gt;CourseConsumptionModule</title>
<path fill="none" stroke="black" d="M1800,-122.12C1800,-136.78 1800,-155 1800,-155 1800,-155 1888.72,-155 1888.72,-155"/>
<polygon fill="black" stroke="black" points="1888.72,-158.5 1898.72,-155 1888.72,-151.5 1888.72,-158.5"/>
</g>
<!-- CertificateNameUpdatePopupComponent -->
<g id="node3" class="node">
<title>CertificateNameUpdatePopupComponent</title>
<polygon fill="#ffffb3" stroke="black" points="1705.05,-122 1454.95,-122 1454.95,-86 1705.05,-86 1705.05,-122"/>
<text text-anchor="middle" x="1580" y="-99.8" font-family="Times,serif" font-size="14.00">CertificateNameUpdatePopupComponent</text>
</g>
<!-- CertificateNameUpdatePopupComponent&#45;&gt;CourseConsumptionModule -->
<g id="edge4" class="edge">
<title>CertificateNameUpdatePopupComponent&#45;&gt;CourseConsumptionModule</title>
<path fill="none" stroke="black" d="M1580,-122.01C1580,-138.05 1580,-159 1580,-159 1580,-159 1888.4,-159 1888.4,-159"/>
<polygon fill="black" stroke="black" points="1888.4,-162.5 1898.4,-159 1888.4,-155.5 1888.4,-162.5"/>
</g>
<!-- CourseCompletionComponent -->
<g id="node4" class="node">
<title>CourseCompletionComponent</title>
<polygon fill="#ffffb3" stroke="black" points="1436.6,-122 1249.4,-122 1249.4,-86 1436.6,-86 1436.6,-122"/>
<text text-anchor="middle" x="1343" y="-99.8" font-family="Times,serif" font-size="14.00">CourseCompletionComponent</text>
</g>
<!-- CourseCompletionComponent&#45;&gt;CourseConsumptionModule -->
<g id="edge5" class="edge">
<title>CourseCompletionComponent&#45;&gt;CourseConsumptionModule</title>
<path fill="none" stroke="black" d="M1343,-122.03C1343,-139.06 1343,-162 1343,-162 1343,-162 1888.61,-162 1888.61,-162"/>
<polygon fill="black" stroke="black" points="1888.61,-165.5 1898.61,-162 1888.61,-158.5 1888.61,-165.5"/>
</g>
<!-- CourseConsumptionHeaderComponent -->
<g id="node5" class="node">
<title>CourseConsumptionHeaderComponent</title>
<polygon fill="#ffffb3" stroke="black" points="1231.35,-122 994.65,-122 994.65,-86 1231.35,-86 1231.35,-122"/>
<text text-anchor="middle" x="1113" y="-99.8" font-family="Times,serif" font-size="14.00">CourseConsumptionHeaderComponent</text>
</g>
<!-- CourseConsumptionHeaderComponent&#45;&gt;CourseConsumptionModule -->
<g id="edge6" class="edge">
<title>CourseConsumptionHeaderComponent&#45;&gt;CourseConsumptionModule</title>
<path fill="none" stroke="black" d="M1113,-122.27C1113,-140.56 1113,-166 1113,-166 1113,-166 1888.7,-166 1888.7,-166"/>
<polygon fill="black" stroke="black" points="1888.7,-169.5 1898.7,-166 1888.7,-162.5 1888.7,-169.5"/>
</g>
<!-- CourseConsumptionPageComponent -->
<g id="node6" class="node">
<title>CourseConsumptionPageComponent</title>
<polygon fill="#ffffb3" stroke="black" points="976.65,-122 753.35,-122 753.35,-86 976.65,-86 976.65,-122"/>
<text text-anchor="middle" x="865" y="-99.8" font-family="Times,serif" font-size="14.00">CourseConsumptionPageComponent</text>
</g>
<!-- CourseConsumptionPageComponent&#45;&gt;CourseConsumptionModule -->
<g id="edge7" class="edge">
<title>CourseConsumptionPageComponent&#45;&gt;CourseConsumptionModule</title>
<path fill="none" stroke="black" d="M865,-122.11C865,-141.34 865,-169 865,-169 865,-169 1888.5,-169 1888.5,-169"/>
<polygon fill="black" stroke="black" points="1888.5,-172.5 1898.5,-169 1888.5,-165.5 1888.5,-172.5"/>
</g>
<!-- CourseDetailsComponent -->
<g id="node7" class="node">
<title>CourseDetailsComponent</title>
<polygon fill="#ffffb3" stroke="black" points="735.14,-122 574.86,-122 574.86,-86 735.14,-86 735.14,-122"/>
<text text-anchor="middle" x="655" y="-99.8" font-family="Times,serif" font-size="14.00">CourseDetailsComponent</text>
</g>
<!-- CourseDetailsComponent&#45;&gt;CourseConsumptionModule -->
<g id="edge8" class="edge">
<title>CourseDetailsComponent&#45;&gt;CourseConsumptionModule</title>
<path fill="none" stroke="black" d="M655,-122.13C655,-142.57 655,-173 655,-173 655,-173 1888.67,-173 1888.67,-173"/>
<polygon fill="black" stroke="black" points="1888.67,-176.5 1898.67,-173 1888.67,-169.5 1888.67,-176.5"/>
</g>
<!-- CoursePlayerComponent -->
<g id="node8" class="node">
<title>CoursePlayerComponent</title>
<polygon fill="#ffffb3" stroke="black" points="556.25,-122 399.75,-122 399.75,-86 556.25,-86 556.25,-122"/>
<text text-anchor="middle" x="478" y="-99.8" font-family="Times,serif" font-size="14.00">CoursePlayerComponent</text>
</g>
<!-- CoursePlayerComponent&#45;&gt;CourseConsumptionModule -->
<g id="edge9" class="edge">
<title>CoursePlayerComponent&#45;&gt;CourseConsumptionModule</title>
<path fill="none" stroke="black" d="M478,-122.04C478,-143.66 478,-177 478,-177 478,-177 1888.68,-177 1888.68,-177"/>
<polygon fill="black" stroke="black" points="1888.68,-180.5 1898.68,-177 1888.68,-173.5 1888.68,-180.5"/>
</g>
<!-- CurriculumCardComponent -->
<g id="node9" class="node">
<title>CurriculumCardComponent</title>
<polygon fill="#ffffb3" stroke="black" points="381.59,-122 208.41,-122 208.41,-86 381.59,-86 381.59,-122"/>
<text text-anchor="middle" x="295" y="-99.8" font-family="Times,serif" font-size="14.00">CurriculumCardComponent</text>
</g>
<!-- CurriculumCardComponent&#45;&gt;CourseConsumptionModule -->
<g id="edge10" class="edge">
<title>CurriculumCardComponent&#45;&gt;CourseConsumptionModule</title>
<path fill="none" stroke="black" d="M295,-122.01C295,-144.49 295,-180 295,-180 295,-180 1888.65,-180 1888.65,-180"/>
<polygon fill="black" stroke="black" points="1888.65,-183.5 1898.65,-180 1888.65,-176.5 1888.65,-183.5"/>
</g>
<!-- UnEnrollBatchComponent -->
<g id="node10" class="node">
<title>UnEnrollBatchComponent</title>
<polygon fill="#ffffb3" stroke="black" points="190.09,-122 23.91,-122 23.91,-86 190.09,-86 190.09,-122"/>
<text text-anchor="middle" x="107" y="-99.8" font-family="Times,serif" font-size="14.00">UnEnrollBatchComponent</text>
</g>
<!-- UnEnrollBatchComponent&#45;&gt;CourseConsumptionModule -->
<g id="edge11" class="edge">
<title>UnEnrollBatchComponent&#45;&gt;CourseConsumptionModule</title>
<path fill="none" stroke="black" d="M107,-122.15C107,-145.76 107,-184 107,-184 107,-184 1888.83,-184 1888.83,-184"/>
<polygon fill="black" stroke="black" points="1888.83,-187.5 1898.83,-184 1888.83,-180.5 1888.83,-187.5"/>
</g>
<!-- CoreModule -->
<g id="node12" class="node">
<title>CoreModule</title>
<polygon fill="#8dd3c7" stroke="black" points="3390.26,-122 3387.26,-126 3366.26,-126 3363.26,-122 3303.74,-122 3303.74,-86 3390.26,-86 3390.26,-122"/>
<text text-anchor="middle" x="3347" y="-99.8" font-family="Times,serif" font-size="14.00">CoreModule</text>
</g>
<!-- CoreModule&#45;&gt;CourseConsumptionModule -->
<g id="edge12" class="edge">
<title>CoreModule&#45;&gt;CourseConsumptionModule</title>
<path fill="none" stroke="black" d="M3347,-122.15C3347,-145.76 3347,-184 3347,-184 3347,-184 2083.21,-184 2083.21,-184"/>
<polygon fill="black" stroke="black" points="2083.21,-180.5 2073.21,-184 2083.21,-187.5 2083.21,-180.5"/>
</g>
<!-- CourseConsumptionRoutingModule -->
<g id="node13" class="node">
<title>CourseConsumptionRoutingModule</title>
<polygon fill="#8dd3c7" stroke="black" points="3285.78,-122 3282.78,-126 3261.78,-126 3258.78,-122 3066.22,-122 3066.22,-86 3285.78,-86 3285.78,-122"/>
<text text-anchor="middle" x="3176" y="-99.8" font-family="Times,serif" font-size="14.00">CourseConsumptionRoutingModule</text>
</g>
<!-- CourseConsumptionRoutingModule&#45;&gt;CourseConsumptionModule -->
<g id="edge13" class="edge">
<title>CourseConsumptionRoutingModule&#45;&gt;CourseConsumptionModule</title>
<path fill="none" stroke="black" d="M3176,-122.01C3176,-144.49 3176,-180 3176,-180 3176,-180 2083.5,-180 2083.5,-180"/>
<polygon fill="black" stroke="black" points="2083.5,-176.5 2073.5,-180 2083.5,-183.5 2083.5,-176.5"/>
</g>
<!-- DiscussionModule -->
<g id="node14" class="node">
<title>DiscussionModule</title>
<polygon fill="#8dd3c7" stroke="black" points="3048.49,-122 3045.49,-126 3024.49,-126 3021.49,-122 2927.51,-122 2927.51,-86 3048.49,-86 3048.49,-122"/>
<text text-anchor="middle" x="2988" y="-99.8" font-family="Times,serif" font-size="14.00">DiscussionModule</text>
</g>
<!-- DiscussionModule&#45;&gt;CourseConsumptionModule -->
<g id="edge14" class="edge">
<title>DiscussionModule&#45;&gt;CourseConsumptionModule</title>
<path fill="none" stroke="black" d="M2988,-122.04C2988,-143.66 2988,-177 2988,-177 2988,-177 2083.17,-177 2083.17,-177"/>
<polygon fill="black" stroke="black" points="2083.17,-173.5 2073.17,-177 2083.17,-180.5 2083.17,-173.5"/>
</g>
<!-- GroupsModule -->
<g id="node15" class="node">
<title>GroupsModule</title>
<polygon fill="#8dd3c7" stroke="black" points="2909.26,-122 2906.26,-126 2885.26,-126 2882.26,-122 2808.74,-122 2808.74,-86 2909.26,-86 2909.26,-122"/>
<text text-anchor="middle" x="2859" y="-99.8" font-family="Times,serif" font-size="14.00">GroupsModule</text>
</g>
<!-- GroupsModule&#45;&gt;CourseConsumptionModule -->
<g id="edge15" class="edge">
<title>GroupsModule&#45;&gt;CourseConsumptionModule</title>
<path fill="none" stroke="black" d="M2859,-122.13C2859,-142.57 2859,-173 2859,-173 2859,-173 2083.3,-173 2083.3,-173"/>
<polygon fill="black" stroke="black" points="2083.3,-169.5 2073.3,-173 2083.3,-176.5 2083.3,-169.5"/>
</g>
<!-- NotificationModule -->
<g id="node16" class="node">
<title>NotificationModule</title>
<polygon fill="#8dd3c7" stroke="black" points="2790.7,-122 2787.7,-126 2766.7,-126 2763.7,-122 2663.3,-122 2663.3,-86 2790.7,-86 2790.7,-122"/>
<text text-anchor="middle" x="2727" y="-99.8" font-family="Times,serif" font-size="14.00">NotificationModule</text>
</g>
<!-- NotificationModule&#45;&gt;CourseConsumptionModule -->
<g id="edge16" class="edge">
<title>NotificationModule&#45;&gt;CourseConsumptionModule</title>
<path fill="none" stroke="black" d="M2727,-122.11C2727,-141.34 2727,-169 2727,-169 2727,-169 2083.18,-169 2083.18,-169"/>
<polygon fill="black" stroke="black" points="2083.18,-165.5 2073.18,-169 2083.18,-172.5 2083.18,-165.5"/>
</g>
<!-- PlayerHelperModule -->
<g id="node17" class="node">
<title>PlayerHelperModule</title>
<polygon fill="#8dd3c7" stroke="black" points="2645.9,-122 2642.9,-126 2621.9,-126 2618.9,-122 2512.1,-122 2512.1,-86 2645.9,-86 2645.9,-122"/>
<text text-anchor="middle" x="2579" y="-99.8" font-family="Times,serif" font-size="14.00">PlayerHelperModule</text>
</g>
<!-- PlayerHelperModule&#45;&gt;CourseConsumptionModule -->
<g id="edge17" class="edge">
<title>PlayerHelperModule&#45;&gt;CourseConsumptionModule</title>
<path fill="none" stroke="black" d="M2579,-122.27C2579,-140.56 2579,-166 2579,-166 2579,-166 2083.18,-166 2083.18,-166"/>
<polygon fill="black" stroke="black" points="2083.18,-162.5 2073.18,-166 2083.18,-169.5 2083.18,-162.5"/>
</g>
<!-- SharedFeatureModule -->
<g id="node18" class="node">
<title>SharedFeatureModule</title>
<polygon fill="#8dd3c7" stroke="black" points="2494.4,-122 2491.4,-126 2470.4,-126 2467.4,-122 2353.6,-122 2353.6,-86 2494.4,-86 2494.4,-122"/>
<text text-anchor="middle" x="2424" y="-99.8" font-family="Times,serif" font-size="14.00">SharedFeatureModule</text>
</g>
<!-- SharedFeatureModule&#45;&gt;CourseConsumptionModule -->
<g id="edge18" class="edge">
<title>SharedFeatureModule&#45;&gt;CourseConsumptionModule</title>
<path fill="none" stroke="black" d="M2424,-122.03C2424,-139.06 2424,-162 2424,-162 2424,-162 2083.32,-162 2083.32,-162"/>
<polygon fill="black" stroke="black" points="2083.32,-158.5 2073.32,-162 2083.32,-165.5 2083.32,-158.5"/>
</g>
<!-- SharedModule -->
<g id="node19" class="node">
<title>SharedModule</title>
<polygon fill="#8dd3c7" stroke="black" points="2336.42,-122 2333.42,-126 2312.42,-126 2309.42,-122 2237.58,-122 2237.58,-86 2336.42,-86 2336.42,-122"/>
<text text-anchor="middle" x="2287" y="-99.8" font-family="Times,serif" font-size="14.00">SharedModule</text>
</g>
<!-- SharedModule&#45;&gt;CourseConsumptionModule -->
<g id="edge19" class="edge">
<title>SharedModule&#45;&gt;CourseConsumptionModule</title>
<path fill="none" stroke="black" d="M2287,-122.01C2287,-138.05 2287,-159 2287,-159 2287,-159 2083.47,-159 2083.47,-159"/>
<polygon fill="black" stroke="black" points="2083.47,-155.5 2073.47,-159 2083.47,-162.5 2083.47,-155.5"/>
</g>
<!-- TelemetryModule -->
<g id="node20" class="node">
<title>TelemetryModule</title>
<polygon fill="#8dd3c7" stroke="black" points="2219.58,-122 2216.58,-126 2195.58,-126 2192.58,-122 2102.42,-122 2102.42,-86 2219.58,-86 2219.58,-122"/>
<text text-anchor="middle" x="2161" y="-99.8" font-family="Times,serif" font-size="14.00">TelemetryModule</text>
</g>
<!-- TelemetryModule&#45;&gt;CourseConsumptionModule -->
<g id="edge20" class="edge">
<title>TelemetryModule&#45;&gt;CourseConsumptionModule</title>
<path fill="none" stroke="black" d="M2161,-122.12C2161,-136.78 2161,-155 2161,-155 2161,-155 2083.24,-155 2083.24,-155"/>
<polygon fill="black" stroke="black" points="2083.24,-151.5 2073.24,-155 2083.24,-158.5 2083.24,-151.5"/>
</g>
</g>
</svg>
