<?xml version="1.0" encoding="UTF-8" standalone="no"?>
<!DOCTYPE svg PUBLIC "-//W3C//DTD SVG 1.1//EN"
 "http://www.w3.org/Graphics/SVG/1.1/DTD/svg11.dtd">
<!-- Generated by graphviz version 2.47.0 (20210316.0004)
 -->
<!-- Title: dependencies Pages: 1 -->
<svg width="987pt" height="211pt"
 viewBox="0.00 0.00 987.00 211.00" xmlns="http://www.w3.org/2000/svg" xmlns:xlink="http://www.w3.org/1999/xlink">
<g id="graph0" class="graph" transform="scale(1 1) rotate(0) translate(4 207)">
<title>dependencies</title>
<polygon fill="white" stroke="transparent" points="-4,4 -4,-207 983,-207 983,4 -4,4"/>
<text text-anchor="start" x="468.51" y="-42.4" font-family="Times-12" font-weight="bold" font-size="14.00">Legend</text>
<polygon fill="#ffffb3" stroke="transparent" points="255.5,-10 255.5,-30 275.5,-30 275.5,-10 255.5,-10"/>
<text text-anchor="start" x="279.13" y="-15.4" font-family="Times-12" font-size="14.00"> &#160;Declarations</text>
<polygon fill="#8dd3c7" stroke="transparent" points="368.5,-10 368.5,-30 388.5,-30 388.5,-10 368.5,-10"/>
<text text-anchor="start" x="392.23" y="-15.4" font-family="Times-12" font-size="14.00"> &#160;Module</text>
<polygon fill="#80b1d3" stroke="transparent" points="454.5,-10 454.5,-30 474.5,-30 474.5,-10 454.5,-10"/>
<text text-anchor="start" x="478.28" y="-15.4" font-family="Times-12" font-size="14.00"> &#160;Bootstrap</text>
<polygon fill="#fdb462" stroke="transparent" points="551.5,-10 551.5,-30 571.5,-30 571.5,-10 551.5,-10"/>
<text text-anchor="start" x="575.17" y="-15.4" font-family="Times-12" font-size="14.00"> &#160;Providers</text>
<polygon fill="#fb8072" stroke="transparent" points="647.5,-10 647.5,-30 667.5,-30 667.5,-10 647.5,-10"/>
<text text-anchor="start" x="671.23" y="-15.4" font-family="Times-12" font-size="14.00"> &#160;Exports</text>
<g id="clust1" class="cluster">
<title>cluster_PlayerModule</title>
<polygon fill="none" stroke="black" stroke-dasharray="1,5" points="8,-70 8,-195 971,-195 971,-70 8,-70"/>
</g>
<g id="clust3" class="cluster">
<title>cluster_PlayerModule_imports</title>
<polygon fill="none" stroke="black" points="16,-78 16,-130 963,-130 963,-78 16,-78"/>
</g>
<!-- BadgingModule -->
<g id="node1" class="node">
<title>BadgingModule</title>
<polygon fill="#8dd3c7" stroke="black" points="955.49,-122 952.49,-126 931.49,-126 928.49,-122 848.51,-122 848.51,-86 955.49,-86 955.49,-122"/>
<text text-anchor="middle" x="902" y="-99.8" font-family="Times,serif" font-size="14.00">BadgingModule</text>
</g>
<!-- PlayerModule -->
<g id="node8" class="node">
<title>PlayerModule</title>
<polygon fill="#8dd3c7" stroke="black" points="551.81,-187 548.81,-191 527.81,-191 524.81,-187 456.19,-187 456.19,-151 551.81,-151 551.81,-187"/>
<text text-anchor="middle" x="504" y="-164.8" font-family="Times,serif" font-size="14.00">PlayerModule</text>
</g>
<!-- BadgingModule&#45;&gt;PlayerModule -->
<g id="edge1" class="edge">
<title>BadgingModule&#45;&gt;PlayerModule</title>
<path fill="none" stroke="black" d="M902,-122.29C902,-144.21 902,-178 902,-178 902,-178 562.01,-178 562.01,-178"/>
<polygon fill="black" stroke="black" points="562.01,-174.5 552.01,-178 562.01,-181.5 562.01,-174.5"/>
</g>
<!-- CoreModule -->
<g id="node2" class="node">
<title>CoreModule</title>
<polygon fill="#8dd3c7" stroke="black" points="830.26,-122 827.26,-126 806.26,-126 803.26,-122 743.74,-122 743.74,-86 830.26,-86 830.26,-122"/>
<text text-anchor="middle" x="787" y="-99.8" font-family="Times,serif" font-size="14.00">CoreModule</text>
</g>
<!-- CoreModule&#45;&gt;PlayerModule -->
<g id="edge2" class="edge">
<title>CoreModule&#45;&gt;PlayerModule</title>
<path fill="none" stroke="black" d="M787,-122.11C787,-141.34 787,-169 787,-169 787,-169 561.69,-169 561.69,-169"/>
<polygon fill="black" stroke="black" points="561.69,-165.5 551.69,-169 561.69,-172.5 561.69,-165.5"/>
</g>
<!-- PlayerHelperModule -->
<g id="node3" class="node">
<title>PlayerHelperModule</title>
<polygon fill="#8dd3c7" stroke="black" points="725.9,-122 722.9,-126 701.9,-126 698.9,-122 592.1,-122 592.1,-86 725.9,-86 725.9,-122"/>
<text text-anchor="middle" x="659" y="-99.8" font-family="Times,serif" font-size="14.00">PlayerHelperModule</text>
</g>
<!-- PlayerHelperModule&#45;&gt;PlayerModule -->
<g id="edge3" class="edge">
<title>PlayerHelperModule&#45;&gt;PlayerModule</title>
<path fill="none" stroke="black" d="M659,-122.03C659,-138.4 659,-160 659,-160 659,-160 561.77,-160 561.77,-160"/>
<polygon fill="black" stroke="black" points="561.77,-156.5 551.77,-160 561.77,-163.5 561.77,-156.5"/>
</g>
<!-- PlayerRoutingModule -->
<g id="node4" class="node">
<title>PlayerRoutingModule</title>
<polygon fill="#8dd3c7" stroke="black" points="574.43,-122 571.43,-126 550.43,-126 547.43,-122 433.57,-122 433.57,-86 574.43,-86 574.43,-122"/>
<text text-anchor="middle" x="504" y="-99.8" font-family="Times,serif" font-size="14.00">PlayerRoutingModule</text>
</g>
<!-- PlayerRoutingModule&#45;&gt;PlayerModule -->
<g id="edge4" class="edge">
<title>PlayerRoutingModule&#45;&gt;PlayerModule</title>
<path fill="none" stroke="black" d="M504,-122.11C504,-122.11 504,-140.99 504,-140.99"/>
<polygon fill="black" stroke="black" points="500.5,-140.99 504,-150.99 507.5,-140.99 500.5,-140.99"/>
</g>
<!-- SharedFeatureModule -->
<g id="node5" class="node">
<title>SharedFeatureModule</title>
<polygon fill="#8dd3c7" stroke="black" points="416.4,-122 413.4,-126 392.4,-126 389.4,-122 275.6,-122 275.6,-86 416.4,-86 416.4,-122"/>
<text text-anchor="middle" x="346" y="-99.8" font-family="Times,serif" font-size="14.00">SharedFeatureModule</text>
</g>
<!-- SharedFeatureModule&#45;&gt;PlayerModule -->
<g id="edge5" class="edge">
<title>SharedFeatureModule&#45;&gt;PlayerModule</title>
<path fill="none" stroke="black" d="M346,-122.03C346,-138.4 346,-160 346,-160 346,-160 446.17,-160 446.17,-160"/>
<polygon fill="black" stroke="black" points="446.17,-163.5 456.17,-160 446.17,-156.5 446.17,-163.5"/>
</g>
<!-- SharedModule -->
<g id="node6" class="node">
<title>SharedModule</title>
<polygon fill="#8dd3c7" stroke="black" points="258.42,-122 255.42,-126 234.42,-126 231.42,-122 159.58,-122 159.58,-86 258.42,-86 258.42,-122"/>
<text text-anchor="middle" x="209" y="-99.8" font-family="Times,serif" font-size="14.00">SharedModule</text>
</g>
<!-- SharedModule&#45;&gt;PlayerModule -->
<g id="edge6" class="edge">
<title>SharedModule&#45;&gt;PlayerModule</title>
<path fill="none" stroke="black" d="M209,-122.11C209,-141.34 209,-169 209,-169 209,-169 446.28,-169 446.28,-169"/>
<polygon fill="black" stroke="black" points="446.28,-172.5 456.28,-169 446.28,-165.5 446.28,-172.5"/>
</g>
<!-- TelemetryModule -->
<g id="node7" class="node">
<title>TelemetryModule</title>
<polygon fill="#8dd3c7" stroke="black" points="141.58,-122 138.58,-126 117.58,-126 114.58,-122 24.42,-122 24.42,-86 141.58,-86 141.58,-122"/>
<text text-anchor="middle" x="83" y="-99.8" font-family="Times,serif" font-size="14.00">TelemetryModule</text>
</g>
<!-- TelemetryModule&#45;&gt;PlayerModule -->
<g id="edge7" class="edge">
<title>TelemetryModule&#45;&gt;PlayerModule</title>
<path fill="none" stroke="black" d="M83,-122.29C83,-144.21 83,-178 83,-178 83,-178 446.12,-178 446.12,-178"/>
<polygon fill="black" stroke="black" points="446.12,-181.5 456.12,-178 446.12,-174.5 446.12,-181.5"/>
</g>
</g>
</svg>
