<?xml version="1.0" encoding="UTF-8" standalone="no"?>
<!DOCTYPE svg PUBLIC "-//W3C//DTD SVG 1.1//EN"
 "http://www.w3.org/Graphics/SVG/1.1/DTD/svg11.dtd">
<!-- Generated by graphviz version 2.47.0 (20210316.0004)
 -->
<!-- Title: dependencies Pages: 1 -->
<svg width="2274pt" height="211pt"
 viewBox="0.00 0.00 2274.00 211.00" xmlns="http://www.w3.org/2000/svg" xmlns:xlink="http://www.w3.org/1999/xlink">
<g id="graph0" class="graph" transform="scale(1 1) rotate(0) translate(4 207)">
<title>dependencies</title>
<polygon fill="white" stroke="transparent" points="-4,4 -4,-207 2270,-207 2270,4 -4,4"/>
<text text-anchor="start" x="1112.01" y="-42.4" font-family="Times-12" font-weight="bold" font-size="14.00">Legend</text>
<polygon fill="#ffffb3" stroke="transparent" points="899,-10 899,-30 919,-30 919,-10 899,-10"/>
<text text-anchor="start" x="922.63" y="-15.4" font-family="Times-12" font-size="14.00"> &#160;Declarations</text>
<polygon fill="#8dd3c7" stroke="transparent" points="1012,-10 1012,-30 1032,-30 1032,-10 1012,-10"/>
<text text-anchor="start" x="1035.73" y="-15.4" font-family="Times-12" font-size="14.00"> &#160;Module</text>
<polygon fill="#80b1d3" stroke="transparent" points="1098,-10 1098,-30 1118,-30 1118,-10 1098,-10"/>
<text text-anchor="start" x="1121.78" y="-15.4" font-family="Times-12" font-size="14.00"> &#160;Bootstrap</text>
<polygon fill="#fdb462" stroke="transparent" points="1195,-10 1195,-30 1215,-30 1215,-10 1195,-10"/>
<text text-anchor="start" x="1218.67" y="-15.4" font-family="Times-12" font-size="14.00"> &#160;Providers</text>
<polygon fill="#fb8072" stroke="transparent" points="1291,-10 1291,-30 1311,-30 1311,-10 1291,-10"/>
<text text-anchor="start" x="1314.73" y="-15.4" font-family="Times-12" font-size="14.00"> &#160;Exports</text>
<g id="clust1" class="cluster">
<title>cluster_ObservationModule</title>
<polygon fill="none" stroke="black" stroke-dasharray="1,5" points="8,-70 8,-195 2258,-195 2258,-70 8,-70"/>
</g>
<g id="clust2" class="cluster">
<title>cluster_ObservationModule_declarations</title>
<polygon fill="none" stroke="black" points="1166,-78 1166,-130 2250,-130 2250,-78 1166,-78"/>
</g>
<g id="clust9" class="cluster">
<title>cluster_ObservationModule_imports</title>
<polygon fill="none" stroke="black" points="16,-78 16,-130 1158,-130 1158,-78 16,-78"/>
</g>
<!-- AddEntityComponent -->
<g id="node1" class="node">
<title>AddEntityComponent</title>
<polygon fill="#ffffb3" stroke="black" points="2241.66,-122 2102.34,-122 2102.34,-86 2241.66,-86 2241.66,-122"/>
<text text-anchor="middle" x="2172" y="-99.8" font-family="Times,serif" font-size="14.00">AddEntityComponent</text>
</g>
<!-- ObservationModule -->
<g id="node7" class="node">
<title>ObservationModule</title>
<polygon fill="#8dd3c7" stroke="black" points="1010.97,-187 1007.97,-191 986.97,-191 983.97,-187 883.03,-187 883.03,-151 1010.97,-151 1010.97,-187"/>
<text text-anchor="middle" x="947" y="-164.8" font-family="Times,serif" font-size="14.00">ObservationModule</text>
</g>
<!-- AddEntityComponent&#45;&gt;ObservationModule -->
<g id="edge1" class="edge">
<title>AddEntityComponent&#45;&gt;ObservationModule</title>
<path fill="none" stroke="black" d="M2172,-122.09C2172,-145.13 2172,-182 2172,-182 2172,-182 1021.14,-182 1021.14,-182"/>
<polygon fill="black" stroke="black" points="1021.14,-178.5 1011.14,-182 1021.14,-185.5 1021.14,-178.5"/>
</g>
<!-- EditSubmissionComponent -->
<g id="node2" class="node">
<title>EditSubmissionComponent</title>
<polygon fill="#ffffb3" stroke="black" points="2084.01,-122 1913.99,-122 1913.99,-86 2084.01,-86 2084.01,-122"/>
<text text-anchor="middle" x="1999" y="-99.8" font-family="Times,serif" font-size="14.00">EditSubmissionComponent</text>
</g>
<!-- EditSubmissionComponent&#45;&gt;ObservationModule -->
<g id="edge2" class="edge">
<title>EditSubmissionComponent&#45;&gt;ObservationModule</title>
<path fill="none" stroke="black" d="M1999,-122.04C1999,-143.66 1999,-177 1999,-177 1999,-177 1021.22,-177 1021.22,-177"/>
<polygon fill="black" stroke="black" points="1021.22,-173.5 1011.22,-177 1021.22,-180.5 1021.22,-173.5"/>
</g>
<!-- EntityListComponent -->
<g id="node3" class="node">
<title>EntityListComponent</title>
<polygon fill="#ffffb3" stroke="black" points="1895.84,-122 1758.16,-122 1758.16,-86 1895.84,-86 1895.84,-122"/>
<text text-anchor="middle" x="1827" y="-99.8" font-family="Times,serif" font-size="14.00">EntityListComponent</text>
</g>
<!-- EntityListComponent&#45;&gt;ObservationModule -->
<g id="edge3" class="edge">
<title>EntityListComponent&#45;&gt;ObservationModule</title>
<path fill="none" stroke="black" d="M1827,-122.22C1827,-142.37 1827,-172 1827,-172 1827,-172 1021,-172 1021,-172"/>
<polygon fill="black" stroke="black" points="1021,-168.5 1011,-172 1021,-175.5 1021,-168.5"/>
</g>
<!-- ObservationDetailsComponent -->
<g id="node4" class="node">
<title>ObservationDetailsComponent</title>
<polygon fill="#ffffb3" stroke="black" points="1740.91,-122 1551.09,-122 1551.09,-86 1740.91,-86 1740.91,-122"/>
<text text-anchor="middle" x="1646" y="-99.8" font-family="Times,serif" font-size="14.00">ObservationDetailsComponent</text>
</g>
<!-- ObservationDetailsComponent&#45;&gt;ObservationModule -->
<g id="edge4" class="edge">
<title>ObservationDetailsComponent&#45;&gt;ObservationModule</title>
<path fill="none" stroke="black" d="M1646,-122.22C1646,-140.83 1646,-167 1646,-167 1646,-167 1021.2,-167 1021.2,-167"/>
<polygon fill="black" stroke="black" points="1021.2,-163.5 1011.2,-167 1021.2,-170.5 1021.2,-163.5"/>
</g>
<!-- ObservationListingComponent -->
<g id="node5" class="node">
<title>ObservationListingComponent</title>
<polygon fill="#ffffb3" stroke="black" points="1533.92,-122 1344.08,-122 1344.08,-86 1533.92,-86 1533.92,-122"/>
<text text-anchor="middle" x="1439" y="-99.8" font-family="Times,serif" font-size="14.00">ObservationListingComponent</text>
</g>
<!-- ObservationListingComponent&#45;&gt;ObservationModule -->
<g id="edge5" class="edge">
<title>ObservationListingComponent&#45;&gt;ObservationModule</title>
<path fill="none" stroke="black" d="M1439,-122.03C1439,-139.06 1439,-162 1439,-162 1439,-162 1021.07,-162 1021.07,-162"/>
<polygon fill="black" stroke="black" points="1021.07,-158.5 1011.07,-162 1021.07,-165.5 1021.07,-158.5"/>
</g>
<!-- SubmissionsComponent -->
<g id="node6" class="node">
<title>SubmissionsComponent</title>
<polygon fill="#ffffb3" stroke="black" points="1326.12,-122 1173.88,-122 1173.88,-86 1326.12,-86 1326.12,-122"/>
<text text-anchor="middle" x="1250" y="-99.8" font-family="Times,serif" font-size="14.00">SubmissionsComponent</text>
</g>
<!-- SubmissionsComponent&#45;&gt;ObservationModule -->
<g id="edge6" class="edge">
<title>SubmissionsComponent&#45;&gt;ObservationModule</title>
<path fill="none" stroke="black" d="M1250,-122.24C1250,-137.57 1250,-157 1250,-157 1250,-157 1021.26,-157 1021.26,-157"/>
<polygon fill="black" stroke="black" points="1021.26,-153.5 1011.26,-157 1021.26,-160.5 1021.26,-153.5"/>
</g>
<!-- ContentSearchModule -->
<g id="node8" class="node">
<title>ContentSearchModule</title>
<polygon fill="#8dd3c7" stroke="black" points="1149.97,-122 1146.97,-126 1125.97,-126 1122.97,-122 1008.03,-122 1008.03,-86 1149.97,-86 1149.97,-122"/>
<text text-anchor="middle" x="1079" y="-99.8" font-family="Times,serif" font-size="14.00">ContentSearchModule</text>
</g>
<!-- ContentSearchModule&#45;&gt;ObservationModule -->
<g id="edge7" class="edge">
<title>ContentSearchModule&#45;&gt;ObservationModule</title>
<path fill="none" stroke="black" d="M1007.74,-104C1002.49,-104 999.2,-104 999.2,-104 999.2,-104 999.2,-140.89 999.2,-140.89"/>
<polygon fill="black" stroke="black" points="995.7,-140.89 999.2,-150.89 1002.7,-140.89 995.7,-140.89"/>
</g>
<!-- CoreModule -->
<g id="node9" class="node">
<title>CoreModule</title>
<polygon fill="#8dd3c7" stroke="black" points="990.26,-122 987.26,-126 966.26,-126 963.26,-122 903.74,-122 903.74,-86 990.26,-86 990.26,-122"/>
<text text-anchor="middle" x="947" y="-99.8" font-family="Times,serif" font-size="14.00">CoreModule</text>
</g>
<!-- CoreModule&#45;&gt;ObservationModule -->
<g id="edge8" class="edge">
<title>CoreModule&#45;&gt;ObservationModule</title>
<path fill="none" stroke="black" d="M961.46,-122.11C961.46,-122.11 961.46,-140.99 961.46,-140.99"/>
<polygon fill="black" stroke="black" points="957.96,-140.99 961.46,-150.99 964.96,-140.99 957.96,-140.99"/>
</g>
<!-- CoreModule&#45;&gt;ObservationModule -->
<g id="edge9" class="edge">
<title>CoreModule&#45;&gt;ObservationModule</title>
<path fill="none" stroke="black" d="M932.54,-122.11C932.54,-122.11 932.54,-140.99 932.54,-140.99"/>
<polygon fill="black" stroke="black" points="929.04,-140.99 932.54,-150.99 936.04,-140.99 929.04,-140.99"/>
</g>
<!-- LocationModule -->
<g id="node10" class="node">
<title>LocationModule</title>
<polygon fill="#8dd3c7" stroke="black" points="885.81,-122 882.81,-126 861.81,-126 858.81,-122 776.19,-122 776.19,-86 885.81,-86 885.81,-122"/>
<text text-anchor="middle" x="831" y="-99.8" font-family="Times,serif" font-size="14.00">LocationModule</text>
</g>
<!-- LocationModule&#45;&gt;ObservationModule -->
<g id="edge10" class="edge">
<title>LocationModule&#45;&gt;ObservationModule</title>
<path fill="none" stroke="black" d="M885.79,-104C891.14,-104 894.64,-104 894.64,-104 894.64,-104 894.64,-140.89 894.64,-140.89"/>
<polygon fill="black" stroke="black" points="891.14,-140.89 894.64,-150.89 898.14,-140.89 891.14,-140.89"/>
</g>
<!-- ObservationRoutingModule -->
<g id="node11" class="node">
<title>ObservationRoutingModule</title>
<polygon fill="#8dd3c7" stroke="black" points="758.59,-122 755.59,-126 734.59,-126 731.59,-122 585.41,-122 585.41,-86 758.59,-86 758.59,-122"/>
<text text-anchor="middle" x="672" y="-99.8" font-family="Times,serif" font-size="14.00">ObservationRoutingModule</text>
</g>
<!-- ObservationRoutingModule&#45;&gt;ObservationModule -->
<g id="edge11" class="edge">
<title>ObservationRoutingModule&#45;&gt;ObservationModule</title>
<path fill="none" stroke="black" d="M672,-122.19C672,-137.18 672,-156 672,-156 672,-156 872.87,-156 872.87,-156"/>
<polygon fill="black" stroke="black" points="872.87,-159.5 882.87,-156 872.87,-152.5 872.87,-159.5"/>
</g>
<!-- PlayerHelperModule -->
<g id="node12" class="node">
<title>PlayerHelperModule</title>
<polygon fill="#8dd3c7" stroke="black" points="567.9,-122 564.9,-126 543.9,-126 540.9,-122 434.1,-122 434.1,-86 567.9,-86 567.9,-122"/>
<text text-anchor="middle" x="501" y="-99.8" font-family="Times,serif" font-size="14.00">PlayerHelperModule</text>
</g>
<!-- PlayerHelperModule&#45;&gt;ObservationModule -->
<g id="edge12" class="edge">
<title>PlayerHelperModule&#45;&gt;ObservationModule</title>
<path fill="none" stroke="black" d="M501,-122.03C501,-138.4 501,-160 501,-160 501,-160 872.62,-160 872.62,-160"/>
<polygon fill="black" stroke="black" points="872.62,-163.5 882.62,-160 872.62,-156.5 872.62,-163.5"/>
</g>
<!-- SharedFeatureModule -->
<g id="node13" class="node">
<title>SharedFeatureModule</title>
<polygon fill="#8dd3c7" stroke="black" points="416.4,-122 413.4,-126 392.4,-126 389.4,-122 275.6,-122 275.6,-86 416.4,-86 416.4,-122"/>
<text text-anchor="middle" x="346" y="-99.8" font-family="Times,serif" font-size="14.00">SharedFeatureModule</text>
</g>
<!-- SharedFeatureModule&#45;&gt;ObservationModule -->
<g id="edge13" class="edge">
<title>SharedFeatureModule&#45;&gt;ObservationModule</title>
<path fill="none" stroke="black" d="M322.6,-122.11C322.6,-141.34 322.6,-169 322.6,-169 322.6,-169 872.82,-169 872.82,-169"/>
<polygon fill="black" stroke="black" points="872.82,-172.5 882.82,-169 872.82,-165.5 872.82,-172.5"/>
</g>
<!-- SharedFeatureModule&#45;&gt;ObservationModule -->
<g id="edge14" class="edge">
<title>SharedFeatureModule&#45;&gt;ObservationModule</title>
<path fill="none" stroke="black" d="M369.4,-122.3C369.4,-140.27 369.4,-165 369.4,-165 369.4,-165 872.98,-165 872.98,-165"/>
<polygon fill="black" stroke="black" points="872.98,-168.5 882.98,-165 872.98,-161.5 872.98,-168.5"/>
</g>
<!-- SharedModule -->
<g id="node14" class="node">
<title>SharedModule</title>
<polygon fill="#8dd3c7" stroke="black" points="258.42,-122 255.42,-126 234.42,-126 231.42,-122 159.58,-122 159.58,-86 258.42,-86 258.42,-122"/>
<text text-anchor="middle" x="209" y="-99.8" font-family="Times,serif" font-size="14.00">SharedModule</text>
</g>
<!-- SharedModule&#45;&gt;ObservationModule -->
<g id="edge15" class="edge">
<title>SharedModule&#45;&gt;ObservationModule</title>
<path fill="none" stroke="black" d="M225.4,-122.03C225.4,-142.77 225.4,-174 225.4,-174 225.4,-174 872.96,-174 872.96,-174"/>
<polygon fill="black" stroke="black" points="872.96,-177.5 882.96,-174 872.96,-170.5 872.96,-177.5"/>
</g>
<!-- SharedModule&#45;&gt;ObservationModule -->
<g id="edge16" class="edge">
<title>SharedModule&#45;&gt;ObservationModule</title>
<path fill="none" stroke="black" d="M192.6,-122.29C192.6,-144.21 192.6,-178 192.6,-178 192.6,-178 873.01,-178 873.01,-178"/>
<polygon fill="black" stroke="black" points="873.01,-181.5 883.01,-178 873.01,-174.5 873.01,-181.5"/>
</g>
<!-- TelemetryModule -->
<g id="node15" class="node">
<title>TelemetryModule</title>
<polygon fill="#8dd3c7" stroke="black" points="141.58,-122 138.58,-126 117.58,-126 114.58,-122 24.42,-122 24.42,-86 141.58,-86 141.58,-122"/>
<text text-anchor="middle" x="83" y="-99.8" font-family="Times,serif" font-size="14.00">TelemetryModule</text>
</g>
<!-- TelemetryModule&#45;&gt;ObservationModule -->
<g id="edge17" class="edge">
<title>TelemetryModule&#45;&gt;ObservationModule</title>
<path fill="none" stroke="black" d="M83,-122.32C83,-145.66 83,-183 83,-183 83,-183 872.77,-183 872.77,-183"/>
<polygon fill="black" stroke="black" points="872.77,-186.5 882.77,-183 872.77,-179.5 872.77,-186.5"/>
</g>
</g>
</svg>
