<?xml version="1.0" encoding="UTF-8" standalone="no"?>
<!DOCTYPE svg PUBLIC "-//W3C//DTD SVG 1.1//EN"
 "http://www.w3.org/Graphics/SVG/1.1/DTD/svg11.dtd">
<!-- Generated by graphviz version 2.47.0 (20210316.0004)
 -->
<!-- Title: dependencies Pages: 1 -->
<svg width="1136pt" height="284pt"
 viewBox="0.00 0.00 1136.00 284.00" xmlns="http://www.w3.org/2000/svg" xmlns:xlink="http://www.w3.org/1999/xlink">
<g id="graph0" class="graph" transform="scale(1 1) rotate(0) translate(4 280)">
<title>dependencies</title>
<polygon fill="white" stroke="transparent" points="-4,4 -4,-280 1132,-280 1132,4 -4,4"/>
<text text-anchor="start" x="543.01" y="-42.4" font-family="Times-12" font-weight="bold" font-size="14.00">Legend</text>
<polygon fill="#ffffb3" stroke="transparent" points="330,-10 330,-30 350,-30 350,-10 330,-10"/>
<text text-anchor="start" x="353.63" y="-15.4" font-family="Times-12" font-size="14.00"> &#160;Declarations</text>
<polygon fill="#8dd3c7" stroke="transparent" points="443,-10 443,-30 463,-30 463,-10 443,-10"/>
<text text-anchor="start" x="466.73" y="-15.4" font-family="Times-12" font-size="14.00"> &#160;Module</text>
<polygon fill="#80b1d3" stroke="transparent" points="529,-10 529,-30 549,-30 549,-10 529,-10"/>
<text text-anchor="start" x="552.78" y="-15.4" font-family="Times-12" font-size="14.00"> &#160;Bootstrap</text>
<polygon fill="#fdb462" stroke="transparent" points="626,-10 626,-30 646,-30 646,-10 626,-10"/>
<text text-anchor="start" x="649.67" y="-15.4" font-family="Times-12" font-size="14.00"> &#160;Providers</text>
<polygon fill="#fb8072" stroke="transparent" points="722,-10 722,-30 742,-30 742,-10 722,-10"/>
<text text-anchor="start" x="745.73" y="-15.4" font-family="Times-12" font-size="14.00"> &#160;Exports</text>
<g id="clust1" class="cluster">
<title>cluster_TelemetryModule</title>
<polygon fill="none" stroke="black" stroke-dasharray="1,5" points="8,-70 8,-268 1120,-268 1120,-70 8,-70"/>
</g>
<g id="clust10" class="cluster">
<title>cluster_TelemetryModule_exports</title>
<polygon fill="none" stroke="black" points="16,-208 16,-260 1112,-260 1112,-208 16,-208"/>
</g>
<g id="clust2" class="cluster">
<title>cluster_TelemetryModule_declarations</title>
<polygon fill="none" stroke="black" points="28,-78 28,-130 1103,-130 1103,-78 28,-78"/>
</g>
<!-- TelemetryEndDirective -->
<g id="node1" class="node">
<title>TelemetryEndDirective</title>
<polygon fill="#ffffb3" stroke="black" points="1095.16,-122 946.84,-122 946.84,-86 1095.16,-86 1095.16,-122"/>
<text text-anchor="middle" x="1021" y="-99.8" font-family="Times,serif" font-size="14.00">TelemetryEndDirective</text>
</g>
<!-- TelemetryModule -->
<g id="node7" class="node">
<title>TelemetryModule</title>
<polygon fill="#8dd3c7" stroke="black" points="528.58,-187 525.58,-191 504.58,-191 501.58,-187 411.42,-187 411.42,-151 528.58,-151 528.58,-187"/>
<text text-anchor="middle" x="470" y="-164.8" font-family="Times,serif" font-size="14.00">TelemetryModule</text>
</g>
<!-- TelemetryEndDirective&#45;&gt;TelemetryModule -->
<g id="edge1" class="edge">
<title>TelemetryEndDirective&#45;&gt;TelemetryModule</title>
<path fill="none" stroke="black" d="M1047.44,-122.22C1047.44,-140.83 1047.44,-167 1047.44,-167 1047.44,-167 538.55,-167 538.55,-167"/>
<polygon fill="black" stroke="black" points="538.55,-163.5 528.55,-167 538.55,-170.5 538.55,-163.5"/>
</g>
<!-- TelemetryErrorDirective -->
<g id="node2" class="node">
<title>TelemetryErrorDirective</title>
<polygon fill="#ffffb3" stroke="black" points="928.65,-122 773.35,-122 773.35,-86 928.65,-86 928.65,-122"/>
<text text-anchor="middle" x="851" y="-99.8" font-family="Times,serif" font-size="14.00">TelemetryErrorDirective</text>
</g>
<!-- TelemetryErrorDirective&#45;&gt;TelemetryModule -->
<g id="edge2" class="edge">
<title>TelemetryErrorDirective&#45;&gt;TelemetryModule</title>
<path fill="none" stroke="black" d="M877.61,-122.03C877.61,-139.06 877.61,-162 877.61,-162 877.61,-162 538.83,-162 538.83,-162"/>
<polygon fill="black" stroke="black" points="538.83,-158.5 528.83,-162 538.83,-165.5 538.83,-158.5"/>
</g>
<!-- TelemetryImpressionDirective -->
<g id="node3" class="node">
<title>TelemetryImpressionDirective</title>
<polygon fill="#ffffb3" stroke="black" points="755.82,-122 568.18,-122 568.18,-86 755.82,-86 755.82,-122"/>
<text text-anchor="middle" x="662" y="-99.8" font-family="Times,serif" font-size="14.00">TelemetryImpressionDirective</text>
</g>
<!-- TelemetryImpressionDirective&#45;&gt;TelemetryModule -->
<g id="edge3" class="edge">
<title>TelemetryImpressionDirective&#45;&gt;TelemetryModule</title>
<path fill="none" stroke="black" d="M693.3,-122.24C693.3,-137.57 693.3,-157 693.3,-157 693.3,-157 538.67,-157 538.67,-157"/>
<polygon fill="black" stroke="black" points="538.67,-153.5 528.67,-157 538.67,-160.5 538.67,-153.5"/>
</g>
<!-- TelemetryInteractDirective -->
<g id="node4" class="node">
<title>TelemetryInteractDirective</title>
<polygon fill="#ffffb3" stroke="black" points="550.36,-122 381.64,-122 381.64,-86 550.36,-86 550.36,-122"/>
<text text-anchor="middle" x="466" y="-99.8" font-family="Times,serif" font-size="14.00">TelemetryInteractDirective</text>
</g>
<!-- TelemetryInteractDirective&#45;&gt;TelemetryModule -->
<g id="edge4" class="edge">
<title>TelemetryInteractDirective&#45;&gt;TelemetryModule</title>
<path fill="none" stroke="black" d="M470,-122.11C470,-122.11 470,-140.99 470,-140.99"/>
<polygon fill="black" stroke="black" points="466.5,-140.99 470,-150.99 473.5,-140.99 466.5,-140.99"/>
</g>
<!-- TelemetryShareDirective -->
<g id="node5" class="node">
<title>TelemetryShareDirective</title>
<polygon fill="#ffffb3" stroke="black" points="363.98,-122 206.02,-122 206.02,-86 363.98,-86 363.98,-122"/>
<text text-anchor="middle" x="285" y="-99.8" font-family="Times,serif" font-size="14.00">TelemetryShareDirective</text>
</g>
<!-- TelemetryShareDirective&#45;&gt;TelemetryModule -->
<g id="edge5" class="edge">
<title>TelemetryShareDirective&#45;&gt;TelemetryModule</title>
<path fill="none" stroke="black" d="M307.75,-122.01C307.75,-138.05 307.75,-159 307.75,-159 307.75,-159 401.42,-159 401.42,-159"/>
<polygon fill="black" stroke="black" points="401.42,-162.5 411.42,-159 401.42,-155.5 401.42,-162.5"/>
</g>
<!-- TelemetryStartDirective -->
<g id="node6" class="node">
<title>TelemetryStartDirective</title>
<polygon fill="#ffffb3" stroke="black" points="188.05,-122 35.95,-122 35.95,-86 188.05,-86 188.05,-122"/>
<text text-anchor="middle" x="112" y="-99.8" font-family="Times,serif" font-size="14.00">TelemetryStartDirective</text>
</g>
<!-- TelemetryStartDirective&#45;&gt;TelemetryModule -->
<g id="edge6" class="edge">
<title>TelemetryStartDirective&#45;&gt;TelemetryModule</title>
<path fill="none" stroke="black" d="M183.9,-122.27C183.9,-140.56 183.9,-166 183.9,-166 183.9,-166 401.41,-166 401.41,-166"/>
<polygon fill="black" stroke="black" points="401.41,-169.5 411.41,-166 401.41,-162.5 401.41,-169.5"/>
</g>
<!-- TelemetryEndDirective  -->
<g id="node8" class="node">
<title>TelemetryEndDirective </title>
<polygon fill="#fb8072" stroke="black" points="1103.66,-252 952.34,-252 952.34,-216 1103.66,-216 1103.66,-252"/>
<text text-anchor="middle" x="1028" y="-229.8" font-family="Times,serif" font-size="14.00">TelemetryEndDirective </text>
</g>
<!-- TelemetryModule&#45;&gt;TelemetryEndDirective  -->
<g id="edge7" class="edge">
<title>TelemetryModule&#45;&gt;TelemetryEndDirective </title>
<path fill="none" stroke="black" stroke-dasharray="5,2" d="M528.72,-172C666.66,-172 999.81,-172 999.81,-172 999.81,-172 999.81,-205.73 999.81,-205.73"/>
<polygon fill="black" stroke="black" points="996.31,-205.73 999.81,-215.73 1003.31,-205.73 996.31,-205.73"/>
</g>
<!-- TelemetryErrorDirective  -->
<g id="node9" class="node">
<title>TelemetryErrorDirective </title>
<polygon fill="#fb8072" stroke="black" points="934.15,-252 775.85,-252 775.85,-216 934.15,-216 934.15,-252"/>
<text text-anchor="middle" x="855" y="-229.8" font-family="Times,serif" font-size="14.00">TelemetryErrorDirective </text>
</g>
<!-- TelemetryModule&#45;&gt;TelemetryErrorDirective  -->
<g id="edge8" class="edge">
<title>TelemetryModule&#45;&gt;TelemetryErrorDirective </title>
<path fill="none" stroke="black" stroke-dasharray="5,2" d="M528.89,-177C630.19,-177 826.64,-177 826.64,-177 826.64,-177 826.64,-205.96 826.64,-205.96"/>
<polygon fill="black" stroke="black" points="823.14,-205.96 826.64,-215.96 830.14,-205.96 823.14,-205.96"/>
</g>
<!-- TelemetryImpressionDirective  -->
<g id="node10" class="node">
<title>TelemetryImpressionDirective </title>
<polygon fill="#fb8072" stroke="black" points="757.82,-252 566.18,-252 566.18,-216 757.82,-216 757.82,-252"/>
<text text-anchor="middle" x="662" y="-229.8" font-family="Times,serif" font-size="14.00">TelemetryImpressionDirective </text>
</g>
<!-- TelemetryModule&#45;&gt;TelemetryImpressionDirective  -->
<g id="edge9" class="edge">
<title>TelemetryModule&#45;&gt;TelemetryImpressionDirective </title>
<path fill="none" stroke="black" stroke-dasharray="5,2" d="M528.93,-182C574.79,-182 630.7,-182 630.7,-182 630.7,-182 630.7,-205.81 630.7,-205.81"/>
<polygon fill="black" stroke="black" points="627.2,-205.81 630.7,-215.81 634.2,-205.81 627.2,-205.81"/>
</g>
<!-- TelemetryInteractDirective  -->
<g id="node11" class="node">
<title>TelemetryInteractDirective </title>
<polygon fill="#fb8072" stroke="black" points="547.86,-252 376.14,-252 376.14,-216 547.86,-216 547.86,-252"/>
<text text-anchor="middle" x="462" y="-229.8" font-family="Times,serif" font-size="14.00">TelemetryInteractDirective </text>
</g>
<!-- TelemetryModule&#45;&gt;TelemetryInteractDirective  -->
<g id="edge10" class="edge">
<title>TelemetryModule&#45;&gt;TelemetryInteractDirective </title>
<path fill="none" stroke="black" stroke-dasharray="5,2" d="M470,-187.11C470,-187.11 470,-205.99 470,-205.99"/>
<polygon fill="black" stroke="black" points="466.5,-205.99 470,-215.99 473.5,-205.99 466.5,-205.99"/>
</g>
<!-- TelemetryShareDirective  -->
<g id="node12" class="node">
<title>TelemetryShareDirective </title>
<polygon fill="#fb8072" stroke="black" points="358.48,-252 197.52,-252 197.52,-216 358.48,-216 358.48,-252"/>
<text text-anchor="middle" x="278" y="-229.8" font-family="Times,serif" font-size="14.00">TelemetryShareDirective </text>
</g>
<!-- TelemetryModule&#45;&gt;TelemetryShareDirective  -->
<g id="edge11" class="edge">
<title>TelemetryModule&#45;&gt;TelemetryShareDirective </title>
<path fill="none" stroke="black" stroke-dasharray="5,2" d="M411.23,-180C348.19,-180 257,-180 257,-180 257,-180 257,-205.72 257,-205.72"/>
<polygon fill="black" stroke="black" points="253.5,-205.72 257,-215.72 260.5,-205.72 253.5,-205.72"/>
</g>
<!-- TelemetryStartDirective  -->
<g id="node13" class="node">
<title>TelemetryStartDirective </title>
<polygon fill="#fb8072" stroke="black" points="179.55,-252 24.45,-252 24.45,-216 179.55,-216 179.55,-252"/>
<text text-anchor="middle" x="102" y="-229.8" font-family="Times,serif" font-size="14.00">TelemetryStartDirective </text>
</g>
<!-- TelemetryModule&#45;&gt;TelemetryStartDirective  -->
<g id="edge12" class="edge">
<title>TelemetryModule&#45;&gt;TelemetryStartDirective </title>
<path fill="none" stroke="black" stroke-dasharray="5,2" d="M411.42,-173C308.93,-173 107.88,-173 107.88,-173 107.88,-173 107.88,-205.7 107.88,-205.7"/>
<polygon fill="black" stroke="black" points="104.38,-205.7 107.88,-215.7 111.38,-205.7 104.38,-205.7"/>
</g>
</g>
</svg>
