<?xml version="1.0" encoding="UTF-8" standalone="no"?>
<!DOCTYPE svg PUBLIC "-//W3C//DTD SVG 1.1//EN"
 "http://www.w3.org/Graphics/SVG/1.1/DTD/svg11.dtd">
<!-- Generated by graphviz version 2.47.0 (20210316.0004)
 -->
<!-- Title: dependencies Pages: 1 -->
<svg width="504pt" height="211pt"
 viewBox="0.00 0.00 504.00 211.00" xmlns="http://www.w3.org/2000/svg" xmlns:xlink="http://www.w3.org/1999/xlink">
<g id="graph0" class="graph" transform="scale(1 1) rotate(0) translate(4 207)">
<title>dependencies</title>
<polygon fill="white" stroke="transparent" points="-4,4 -4,-207 500,-207 500,4 -4,4"/>
<text text-anchor="start" x="227.01" y="-42.4" font-family="Times-12" font-weight="bold" font-size="14.00">Legend</text>
<polygon fill="#ffffb3" stroke="transparent" points="14,-10 14,-30 34,-30 34,-10 14,-10"/>
<text text-anchor="start" x="37.63" y="-15.4" font-family="Times-12" font-size="14.00"> &#160;Declarations</text>
<polygon fill="#8dd3c7" stroke="transparent" points="127,-10 127,-30 147,-30 147,-10 127,-10"/>
<text text-anchor="start" x="150.73" y="-15.4" font-family="Times-12" font-size="14.00"> &#160;Module</text>
<polygon fill="#80b1d3" stroke="transparent" points="213,-10 213,-30 233,-30 233,-10 213,-10"/>
<text text-anchor="start" x="236.78" y="-15.4" font-family="Times-12" font-size="14.00"> &#160;Bootstrap</text>
<polygon fill="#fdb462" stroke="transparent" points="310,-10 310,-30 330,-30 330,-10 310,-10"/>
<text text-anchor="start" x="333.67" y="-15.4" font-family="Times-12" font-size="14.00"> &#160;Providers</text>
<polygon fill="#fb8072" stroke="transparent" points="406,-10 406,-30 426,-30 426,-10 406,-10"/>
<text text-anchor="start" x="429.73" y="-15.4" font-family="Times-12" font-size="14.00"> &#160;Exports</text>
<g id="clust1" class="cluster">
<title>cluster_FaqReportIssuePageModule</title>
<polygon fill="none" stroke="black" stroke-dasharray="1,5" points="95,-70 95,-195 401,-195 401,-70 95,-70"/>
</g>
<g id="clust4" class="cluster">
<title>cluster_FaqReportIssuePageModule_imports</title>
<polygon fill="none" stroke="black" points="259,-78 259,-130 393,-130 393,-78 259,-78"/>
</g>
<g id="clust2" class="cluster">
<title>cluster_FaqReportIssuePageModule_declarations</title>
<polygon fill="none" stroke="black" points="103,-78 103,-130 251,-130 251,-78 103,-78"/>
</g>
<!-- FaqReportIssuePage -->
<g id="node1" class="node">
<title>FaqReportIssuePage</title>
<polygon fill="#ffffb3" stroke="black" points="242.58,-122 111.42,-122 111.42,-86 242.58,-86 242.58,-122"/>
<text text-anchor="middle" x="177" y="-99.8" font-family="Times,serif" font-size="14.00">FaqReportIssuePage</text>
</g>
<!-- FaqReportIssuePageModule -->
<g id="node2" class="node">
<title>FaqReportIssuePageModule</title>
<polygon fill="#8dd3c7" stroke="black" points="335.13,-187 332.13,-191 311.13,-191 308.13,-187 160.87,-187 160.87,-151 335.13,-151 335.13,-187"/>
<text text-anchor="middle" x="248" y="-164.8" font-family="Times,serif" font-size="14.00">FaqReportIssuePageModule</text>
</g>
<!-- FaqReportIssuePage&#45;&gt;FaqReportIssuePageModule -->
<g id="edge1" class="edge">
<title>FaqReportIssuePage&#45;&gt;FaqReportIssuePageModule</title>
<path fill="none" stroke="black" d="M201.61,-122.11C201.61,-122.11 201.61,-140.99 201.61,-140.99"/>
<polygon fill="black" stroke="black" points="198.11,-140.99 201.61,-150.99 205.11,-140.99 198.11,-140.99"/>
</g>
<!-- DirectivesModule -->
<g id="node3" class="node">
<title>DirectivesModule</title>
<polygon fill="#8dd3c7" stroke="black" points="384.58,-122 381.58,-126 360.58,-126 357.58,-122 267.42,-122 267.42,-86 384.58,-86 384.58,-122"/>
<text text-anchor="middle" x="326" y="-99.8" font-family="Times,serif" font-size="14.00">DirectivesModule</text>
</g>
<!-- DirectivesModule&#45;&gt;FaqReportIssuePageModule -->
<g id="edge2" class="edge">
<title>DirectivesModule&#45;&gt;FaqReportIssuePageModule</title>
<path fill="none" stroke="black" d="M301.39,-122.11C301.39,-122.11 301.39,-140.99 301.39,-140.99"/>
<polygon fill="black" stroke="black" points="297.89,-140.99 301.39,-150.99 304.89,-140.99 297.89,-140.99"/>
</g>
</g>
</svg>
