<?xml version="1.0" encoding="UTF-8" standalone="no"?>
<!DOCTYPE svg PUBLIC "-//W3C//DTD SVG 1.1//EN"
 "http://www.w3.org/Graphics/SVG/1.1/DTD/svg11.dtd">
<!-- Generated by graphviz version 2.47.0 (20210316.0004)
 -->
<!-- Title: dependencies Pages: 1 -->
<svg width="504pt" height="211pt"
 viewBox="0.00 0.00 504.00 211.00" xmlns="http://www.w3.org/2000/svg" xmlns:xlink="http://www.w3.org/1999/xlink">
<g id="graph0" class="graph" transform="scale(1 1) rotate(0) translate(4 207)">
<title>dependencies</title>
<polygon fill="white" stroke="transparent" points="-4,4 -4,-207 500,-207 500,4 -4,4"/>
<text text-anchor="start" x="227.01" y="-42.4" font-family="Times-12" font-weight="bold" font-size="14.00">Legend</text>
<polygon fill="#ffffb3" stroke="transparent" points="14,-10 14,-30 34,-30 34,-10 14,-10"/>
<text text-anchor="start" x="37.63" y="-15.4" font-family="Times-12" font-size="14.00"> &#160;Declarations</text>
<polygon fill="#8dd3c7" stroke="transparent" points="127,-10 127,-30 147,-30 147,-10 127,-10"/>
<text text-anchor="start" x="150.73" y="-15.4" font-family="Times-12" font-size="14.00"> &#160;Module</text>
<polygon fill="#80b1d3" stroke="transparent" points="213,-10 213,-30 233,-30 233,-10 213,-10"/>
<text text-anchor="start" x="236.78" y="-15.4" font-family="Times-12" font-size="14.00"> &#160;Bootstrap</text>
<polygon fill="#fdb462" stroke="transparent" points="310,-10 310,-30 330,-30 330,-10 310,-10"/>
<text text-anchor="start" x="333.67" y="-15.4" font-family="Times-12" font-size="14.00"> &#160;Providers</text>
<polygon fill="#fb8072" stroke="transparent" points="406,-10 406,-30 426,-30 426,-10 406,-10"/>
<text text-anchor="start" x="429.73" y="-15.4" font-family="Times-12" font-size="14.00"> &#160;Exports</text>
<g id="clust1" class="cluster">
<title>cluster_DomainEcmListingModule</title>
<polygon fill="none" stroke="black" stroke-dasharray="1,5" points="22.5,-70 22.5,-195 473.5,-195 473.5,-70 22.5,-70"/>
</g>
<g id="clust4" class="cluster">
<title>cluster_DomainEcmListingModule_imports</title>
<polygon fill="none" stroke="black" points="246.5,-78 246.5,-130 465.5,-130 465.5,-78 246.5,-78"/>
</g>
<g id="clust2" class="cluster">
<title>cluster_DomainEcmListingModule_declarations</title>
<polygon fill="none" stroke="black" points="30.5,-78 30.5,-130 238.5,-130 238.5,-78 30.5,-78"/>
</g>
<!-- DomainEcmLsitingComponent -->
<g id="node1" class="node">
<title>DomainEcmLsitingComponent</title>
<polygon fill="#ffffb3" stroke="black" points="230.26,-122 38.74,-122 38.74,-86 230.26,-86 230.26,-122"/>
<text text-anchor="middle" x="134.5" y="-99.8" font-family="Times,serif" font-size="14.00">DomainEcmLsitingComponent</text>
</g>
<!-- DomainEcmListingModule -->
<g id="node2" class="node">
<title>DomainEcmListingModule</title>
<polygon fill="#8dd3c7" stroke="black" points="388.48,-187 385.48,-191 364.48,-191 361.48,-187 218.52,-187 218.52,-151 388.48,-151 388.48,-187"/>
<text text-anchor="middle" x="303.5" y="-164.8" font-family="Times,serif" font-size="14.00">DomainEcmListingModule</text>
</g>
<!-- DomainEcmLsitingComponent&#45;&gt;DomainEcmListingModule -->
<g id="edge1" class="edge">
<title>DomainEcmLsitingComponent&#45;&gt;DomainEcmListingModule</title>
<path fill="none" stroke="black" d="M224.45,-122.11C224.45,-122.11 224.45,-140.99 224.45,-140.99"/>
<polygon fill="black" stroke="black" points="220.95,-140.99 224.45,-150.99 227.95,-140.99 220.95,-140.99"/>
</g>
<!-- CoreModule -->
<g id="node3" class="node">
<title>CoreModule</title>
<polygon fill="#8dd3c7" stroke="black" points="457.76,-122 454.76,-126 433.76,-126 430.76,-122 371.24,-122 371.24,-86 457.76,-86 457.76,-122"/>
<text text-anchor="middle" x="414.5" y="-99.8" font-family="Times,serif" font-size="14.00">CoreModule</text>
</g>
<!-- CoreModule&#45;&gt;DomainEcmListingModule -->
<g id="edge2" class="edge">
<title>CoreModule&#45;&gt;DomainEcmListingModule</title>
<path fill="none" stroke="black" d="M379.8,-122.11C379.8,-122.11 379.8,-140.99 379.8,-140.99"/>
<polygon fill="black" stroke="black" points="376.3,-140.99 379.8,-150.99 383.3,-140.99 376.3,-140.99"/>
</g>
<!-- SharedModule -->
<g id="node4" class="node">
<title>SharedModule</title>
<polygon fill="#8dd3c7" stroke="black" points="352.92,-122 349.92,-126 328.92,-126 325.92,-122 254.08,-122 254.08,-86 352.92,-86 352.92,-122"/>
<text text-anchor="middle" x="303.5" y="-99.8" font-family="Times,serif" font-size="14.00">SharedModule</text>
</g>
<!-- SharedModule&#45;&gt;DomainEcmListingModule -->
<g id="edge3" class="edge">
<title>SharedModule&#45;&gt;DomainEcmListingModule</title>
<path fill="none" stroke="black" d="M303.5,-122.11C303.5,-122.11 303.5,-140.99 303.5,-140.99"/>
<polygon fill="black" stroke="black" points="300,-140.99 303.5,-150.99 307,-140.99 300,-140.99"/>
</g>
</g>
</svg>
