<?xml version="1.0" encoding="UTF-8" standalone="no"?>
<!DOCTYPE svg PUBLIC "-//W3C//DTD SVG 1.1//EN"
 "http://www.w3.org/Graphics/SVG/1.1/DTD/svg11.dtd">
<!-- Generated by graphviz version 2.47.0 (20210316.0004)
 -->
<!-- Title: dependencies Pages: 1 -->
<svg width="2730pt" height="284pt"
 viewBox="0.00 0.00 2730.00 284.00" xmlns="http://www.w3.org/2000/svg" xmlns:xlink="http://www.w3.org/1999/xlink">
<g id="graph0" class="graph" transform="scale(1 1) rotate(0) translate(4 280)">
<title>dependencies</title>
<polygon fill="white" stroke="transparent" points="-4,4 -4,-280 2726,-280 2726,4 -4,4"/>
<text text-anchor="start" x="1340.01" y="-42.4" font-family="Times-12" font-weight="bold" font-size="14.00">Legend</text>
<polygon fill="#ffffb3" stroke="transparent" points="1127,-10 1127,-30 1147,-30 1147,-10 1127,-10"/>
<text text-anchor="start" x="1150.63" y="-15.4" font-family="Times-12" font-size="14.00"> &#160;Declarations</text>
<polygon fill="#8dd3c7" stroke="transparent" points="1240,-10 1240,-30 1260,-30 1260,-10 1240,-10"/>
<text text-anchor="start" x="1263.73" y="-15.4" font-family="Times-12" font-size="14.00"> &#160;Module</text>
<polygon fill="#80b1d3" stroke="transparent" points="1326,-10 1326,-30 1346,-30 1346,-10 1326,-10"/>
<text text-anchor="start" x="1349.78" y="-15.4" font-family="Times-12" font-size="14.00"> &#160;Bootstrap</text>
<polygon fill="#fdb462" stroke="transparent" points="1423,-10 1423,-30 1443,-30 1443,-10 1423,-10"/>
<text text-anchor="start" x="1446.67" y="-15.4" font-family="Times-12" font-size="14.00"> &#160;Providers</text>
<polygon fill="#fb8072" stroke="transparent" points="1519,-10 1519,-30 1539,-30 1539,-10 1519,-10"/>
<text text-anchor="start" x="1542.73" y="-15.4" font-family="Times-12" font-size="14.00"> &#160;Exports</text>
<g id="clust1" class="cluster">
<title>cluster_CoreModule</title>
<polygon fill="none" stroke="black" stroke-dasharray="1,5" points="8,-70 8,-268 2714,-268 2714,-70 8,-70"/>
</g>
<g id="clust2" class="cluster">
<title>cluster_CoreModule_declarations</title>
<polygon fill="none" stroke="black" points="699,-78 699,-130 2706,-130 2706,-78 699,-78"/>
</g>
<g id="clust16" class="cluster">
<title>cluster_CoreModule_exports</title>
<polygon fill="none" stroke="black" points="524,-208 524,-260 2072,-260 2072,-208 524,-208"/>
</g>
<g id="clust15" class="cluster">
<title>cluster_CoreModule_imports</title>
<polygon fill="none" stroke="black" points="168,-78 168,-130 691,-130 691,-78 168,-78"/>
</g>
<g id="clust18" class="cluster">
<title>cluster_CoreModule_providers</title>
<polygon fill="none" stroke="black" points="16,-78 16,-130 160,-130 160,-78 16,-78"/>
</g>
<!-- BodyScrollDirective -->
<g id="node1" class="node">
<title>BodyScrollDirective</title>
<polygon fill="#ffffb3" stroke="black" points="2697.86,-122 2566.14,-122 2566.14,-86 2697.86,-86 2697.86,-122"/>
<text text-anchor="middle" x="2632" y="-99.8" font-family="Times,serif" font-size="14.00">BodyScrollDirective</text>
</g>
<!-- CoreModule -->
<g id="node13" class="node">
<title>CoreModule</title>
<polygon fill="#8dd3c7" stroke="black" points="1325.26,-187 1322.26,-191 1301.26,-191 1298.26,-187 1238.74,-187 1238.74,-151 1325.26,-151 1325.26,-187"/>
<text text-anchor="middle" x="1282" y="-164.8" font-family="Times,serif" font-size="14.00">CoreModule</text>
</g>
<!-- BodyScrollDirective&#45;&gt;CoreModule -->
<g id="edge1" class="edge">
<title>BodyScrollDirective&#45;&gt;CoreModule</title>
<path fill="none" stroke="black" d="M2632,-122.03C2632,-142.77 2632,-174 2632,-174 2632,-174 1335.39,-174 1335.39,-174"/>
<polygon fill="black" stroke="black" points="1335.39,-170.5 1325.39,-174 1335.39,-177.5 1335.39,-170.5"/>
</g>
<!-- ContentTypeComponent -->
<g id="node2" class="node">
<title>ContentTypeComponent</title>
<polygon fill="#ffffb3" stroke="black" points="2548.43,-122 2393.57,-122 2393.57,-86 2548.43,-86 2548.43,-122"/>
<text text-anchor="middle" x="2471" y="-99.8" font-family="Times,serif" font-size="14.00">ContentTypeComponent</text>
</g>
<!-- ContentTypeComponent&#45;&gt;CoreModule -->
<g id="edge2" class="edge">
<title>ContentTypeComponent&#45;&gt;CoreModule</title>
<path fill="none" stroke="black" d="M2471,-122.31C2471,-142.15 2471,-171 2471,-171 2471,-171 1335.37,-171 1335.37,-171"/>
<polygon fill="black" stroke="black" points="1335.37,-167.5 1325.37,-171 1335.37,-174.5 1335.37,-167.5"/>
</g>
<!-- DesktopOnlyDirective -->
<g id="node3" class="node">
<title>DesktopOnlyDirective</title>
<polygon fill="#ffffb3" stroke="black" points="2375.24,-122 2232.76,-122 2232.76,-86 2375.24,-86 2375.24,-122"/>
<text text-anchor="middle" x="2304" y="-99.8" font-family="Times,serif" font-size="14.00">DesktopOnlyDirective</text>
</g>
<!-- DesktopOnlyDirective&#45;&gt;CoreModule -->
<g id="edge3" class="edge">
<title>DesktopOnlyDirective&#45;&gt;CoreModule</title>
<path fill="none" stroke="black" d="M2304,-122.17C2304,-141.09 2304,-168 2304,-168 2304,-168 1335.59,-168 1335.59,-168"/>
<polygon fill="black" stroke="black" points="1335.59,-164.5 1325.59,-168 1335.59,-171.5 1335.59,-164.5"/>
</g>
<!-- ErrorPageComponent -->
<g id="node4" class="node">
<title>ErrorPageComponent</title>
<polygon fill="#ffffb3" stroke="black" points="2215.08,-122 2076.92,-122 2076.92,-86 2215.08,-86 2215.08,-122"/>
<text text-anchor="middle" x="2146" y="-99.8" font-family="Times,serif" font-size="14.00">ErrorPageComponent</text>
</g>
<!-- ErrorPageComponent&#45;&gt;CoreModule -->
<g id="edge4" class="edge">
<title>ErrorPageComponent&#45;&gt;CoreModule</title>
<path fill="none" stroke="black" d="M2146,-122.3C2146,-140.27 2146,-165 2146,-165 2146,-165 1335.44,-165 1335.44,-165"/>
<polygon fill="black" stroke="black" points="1335.44,-161.5 1325.44,-165 1335.44,-168.5 1335.44,-161.5"/>
</g>
<!-- LanguageDropdownComponent -->
<g id="node5" class="node">
<title>LanguageDropdownComponent</title>
<polygon fill="#ffffb3" stroke="black" points="2059.4,-122 1862.6,-122 1862.6,-86 2059.4,-86 2059.4,-122"/>
<text text-anchor="middle" x="1961" y="-99.8" font-family="Times,serif" font-size="14.00">LanguageDropdownComponent</text>
</g>
<!-- LanguageDropdownComponent&#45;&gt;CoreModule -->
<g id="edge5" class="edge">
<title>LanguageDropdownComponent&#45;&gt;CoreModule</title>
<path fill="none" stroke="black" d="M1886.46,-122.02C1886.46,-139.37 1886.46,-163 1886.46,-163 1886.46,-163 1335.47,-163 1335.47,-163"/>
<polygon fill="black" stroke="black" points="1335.47,-159.5 1325.47,-163 1335.47,-166.5 1335.47,-159.5"/>
</g>
<!-- MainFooterComponent -->
<g id="node6" class="node">
<title>MainFooterComponent</title>
<polygon fill="#ffffb3" stroke="black" points="1844.93,-122 1697.07,-122 1697.07,-86 1844.93,-86 1844.93,-122"/>
<text text-anchor="middle" x="1771" y="-99.8" font-family="Times,serif" font-size="14.00">MainFooterComponent</text>
</g>
<!-- MainFooterComponent&#45;&gt;CoreModule -->
<g id="edge6" class="edge">
<title>MainFooterComponent&#45;&gt;CoreModule</title>
<path fill="none" stroke="black" d="M1721.62,-122.03C1721.62,-138.4 1721.62,-160 1721.62,-160 1721.62,-160 1335.36,-160 1335.36,-160"/>
<polygon fill="black" stroke="black" points="1335.36,-156.5 1325.36,-160 1335.36,-163.5 1335.36,-156.5"/>
</g>
<!-- MainHeaderComponent -->
<g id="node7" class="node">
<title>MainHeaderComponent</title>
<polygon fill="#ffffb3" stroke="black" points="1679.79,-122 1528.21,-122 1528.21,-86 1679.79,-86 1679.79,-122"/>
<text text-anchor="middle" x="1604" y="-99.8" font-family="Times,serif" font-size="14.00">MainHeaderComponent</text>
</g>
<!-- MainHeaderComponent&#45;&gt;CoreModule -->
<g id="edge7" class="edge">
<title>MainHeaderComponent&#45;&gt;CoreModule</title>
<path fill="none" stroke="black" d="M1537.26,-122.24C1537.26,-137.57 1537.26,-157 1537.26,-157 1537.26,-157 1335.3,-157 1335.3,-157"/>
<polygon fill="black" stroke="black" points="1335.3,-153.5 1325.3,-157 1335.3,-160.5 1335.3,-153.5"/>
</g>
<!-- MainMenuComponent -->
<g id="node8" class="node">
<title>MainMenuComponent</title>
<polygon fill="#ffffb3" stroke="black" points="1510.54,-122 1367.46,-122 1367.46,-86 1510.54,-86 1510.54,-122"/>
<text text-anchor="middle" x="1439" y="-99.8" font-family="Times,serif" font-size="14.00">MainMenuComponent</text>
</g>
<!-- MainMenuComponent&#45;&gt;CoreModule -->
<g id="edge8" class="edge">
<title>MainMenuComponent&#45;&gt;CoreModule</title>
<path fill="none" stroke="black" d="M1372.38,-122.05C1372.38,-136.37 1372.38,-154 1372.38,-154 1372.38,-154 1335.34,-154 1335.34,-154"/>
<polygon fill="black" stroke="black" points="1335.34,-150.5 1325.34,-154 1335.34,-157.5 1335.34,-150.5"/>
</g>
<!-- OnlineOnlyDirective -->
<g id="node9" class="node">
<title>OnlineOnlyDirective</title>
<polygon fill="#ffffb3" stroke="black" points="1349.18,-122 1214.82,-122 1214.82,-86 1349.18,-86 1349.18,-122"/>
<text text-anchor="middle" x="1282" y="-99.8" font-family="Times,serif" font-size="14.00">OnlineOnlyDirective</text>
</g>
<!-- OnlineOnlyDirective&#45;&gt;CoreModule -->
<g id="edge9" class="edge">
<title>OnlineOnlyDirective&#45;&gt;CoreModule</title>
<path fill="none" stroke="black" d="M1282,-122.11C1282,-122.11 1282,-140.99 1282,-140.99"/>
<polygon fill="black" stroke="black" points="1278.5,-140.99 1282,-150.99 1285.5,-140.99 1278.5,-140.99"/>
</g>
<!-- PermissionDirective -->
<g id="node10" class="node">
<title>PermissionDirective</title>
<polygon fill="#ffffb3" stroke="black" points="1197.3,-122 1066.7,-122 1066.7,-86 1197.3,-86 1197.3,-122"/>
<text text-anchor="middle" x="1132" y="-99.8" font-family="Times,serif" font-size="14.00">PermissionDirective</text>
</g>
<!-- PermissionDirective&#45;&gt;CoreModule -->
<g id="edge10" class="edge">
<title>PermissionDirective&#45;&gt;CoreModule</title>
<path fill="none" stroke="black" d="M1192,-122.05C1192,-136.37 1192,-154 1192,-154 1192,-154 1228.58,-154 1228.58,-154"/>
<polygon fill="black" stroke="black" points="1228.58,-157.5 1238.58,-154 1228.58,-150.5 1228.58,-157.5"/>
</g>
<!-- SearchComponent -->
<g id="node11" class="node">
<title>SearchComponent</title>
<polygon fill="#ffffb3" stroke="black" points="1048.92,-122 929.08,-122 929.08,-86 1048.92,-86 1048.92,-122"/>
<text text-anchor="middle" x="989" y="-99.8" font-family="Times,serif" font-size="14.00">SearchComponent</text>
</g>
<!-- SearchComponent&#45;&gt;CoreModule -->
<g id="edge11" class="edge">
<title>SearchComponent&#45;&gt;CoreModule</title>
<path fill="none" stroke="black" d="M1039.81,-122.24C1039.81,-137.57 1039.81,-157 1039.81,-157 1039.81,-157 1228.7,-157 1228.7,-157"/>
<polygon fill="black" stroke="black" points="1228.7,-160.5 1238.7,-157 1228.7,-153.5 1228.7,-160.5"/>
</g>
<!-- TelemetryErrorModalComponent -->
<g id="node12" class="node">
<title>TelemetryErrorModalComponent</title>
<polygon fill="#ffffb3" stroke="black" points="911.45,-122 706.55,-122 706.55,-86 911.45,-86 911.45,-122"/>
<text text-anchor="middle" x="809" y="-99.8" font-family="Times,serif" font-size="14.00">TelemetryErrorModalComponent</text>
</g>
<!-- TelemetryErrorModalComponent&#45;&gt;CoreModule -->
<g id="edge12" class="edge">
<title>TelemetryErrorModalComponent&#45;&gt;CoreModule</title>
<path fill="none" stroke="black" d="M904.29,-122.03C904.29,-138.4 904.29,-160 904.29,-160 904.29,-160 1228.67,-160 1228.67,-160"/>
<polygon fill="black" stroke="black" points="1228.67,-163.5 1238.67,-160 1228.67,-156.5 1228.67,-163.5"/>
</g>
<!-- BodyScrollDirective  -->
<g id="node18" class="node">
<title>BodyScrollDirective </title>
<polygon fill="#fb8072" stroke="black" points="2063.86,-252 1928.14,-252 1928.14,-216 2063.86,-216 2063.86,-252"/>
<text text-anchor="middle" x="1996" y="-229.8" font-family="Times,serif" font-size="14.00">BodyScrollDirective </text>
</g>
<!-- CoreModule&#45;&gt;BodyScrollDirective  -->
<g id="edge17" class="edge">
<title>CoreModule&#45;&gt;BodyScrollDirective </title>
<path fill="none" stroke="black" stroke-dasharray="5,2" d="M1325.45,-176C1479.99,-176 1993.76,-176 1993.76,-176 1993.76,-176 1993.76,-205.97 1993.76,-205.97"/>
<polygon fill="black" stroke="black" points="1990.26,-205.97 1993.76,-215.97 1997.26,-205.97 1990.26,-205.97"/>
</g>
<!-- DesktopOnlyDirective  -->
<g id="node19" class="node">
<title>DesktopOnlyDirective </title>
<polygon fill="#fb8072" stroke="black" points="1910.24,-252 1763.76,-252 1763.76,-216 1910.24,-216 1910.24,-252"/>
<text text-anchor="middle" x="1837" y="-229.8" font-family="Times,serif" font-size="14.00">DesktopOnlyDirective </text>
</g>
<!-- CoreModule&#45;&gt;DesktopOnlyDirective  -->
<g id="edge18" class="edge">
<title>CoreModule&#45;&gt;DesktopOnlyDirective </title>
<path fill="none" stroke="black" stroke-dasharray="5,2" d="M1325.63,-179C1451.16,-179 1804.3,-179 1804.3,-179 1804.3,-179 1804.3,-205.99 1804.3,-205.99"/>
<polygon fill="black" stroke="black" points="1800.8,-205.99 1804.3,-215.99 1807.8,-205.99 1800.8,-205.99"/>
</g>
<!-- LanguageDropdownComponent  -->
<g id="node20" class="node">
<title>LanguageDropdownComponent </title>
<polygon fill="#fb8072" stroke="black" points="1745.9,-252 1546.1,-252 1546.1,-216 1745.9,-216 1745.9,-252"/>
<text text-anchor="middle" x="1646" y="-229.8" font-family="Times,serif" font-size="14.00">LanguageDropdownComponent </text>
</g>
<!-- CoreModule&#45;&gt;LanguageDropdownComponent  -->
<g id="edge19" class="edge">
<title>CoreModule&#45;&gt;LanguageDropdownComponent </title>
<path fill="none" stroke="black" stroke-dasharray="5,2" d="M1325.59,-182C1415.43,-182 1612.85,-182 1612.85,-182 1612.85,-182 1612.85,-205.81 1612.85,-205.81"/>
<polygon fill="black" stroke="black" points="1609.35,-205.81 1612.85,-215.81 1616.35,-205.81 1609.35,-205.81"/>
</g>
<!-- MainFooterComponent  -->
<g id="node21" class="node">
<title>MainFooterComponent </title>
<polygon fill="#fb8072" stroke="black" points="1528.43,-252 1377.57,-252 1377.57,-216 1528.43,-216 1528.43,-252"/>
<text text-anchor="middle" x="1453" y="-229.8" font-family="Times,serif" font-size="14.00">MainFooterComponent </text>
</g>
<!-- CoreModule&#45;&gt;MainFooterComponent  -->
<g id="edge20" class="edge">
<title>CoreModule&#45;&gt;MainFooterComponent </title>
<path fill="none" stroke="black" stroke-dasharray="5,2" d="M1325.45,-185C1373.49,-185 1444.15,-185 1444.15,-185 1444.15,-185 1444.15,-205.75 1444.15,-205.75"/>
<polygon fill="black" stroke="black" points="1440.65,-205.75 1444.15,-215.75 1447.65,-205.75 1440.65,-205.75"/>
</g>
<!-- MainHeaderComponent  -->
<g id="node22" class="node">
<title>MainHeaderComponent </title>
<polygon fill="#fb8072" stroke="black" points="1359.29,-252 1204.71,-252 1204.71,-216 1359.29,-216 1359.29,-252"/>
<text text-anchor="middle" x="1282" y="-229.8" font-family="Times,serif" font-size="14.00">MainHeaderComponent </text>
</g>
<!-- CoreModule&#45;&gt;MainHeaderComponent  -->
<g id="edge21" class="edge">
<title>CoreModule&#45;&gt;MainHeaderComponent </title>
<path fill="none" stroke="black" stroke-dasharray="5,2" d="M1282,-187.11C1282,-187.11 1282,-205.99 1282,-205.99"/>
<polygon fill="black" stroke="black" points="1278.5,-205.99 1282,-215.99 1285.5,-205.99 1278.5,-205.99"/>
</g>
<!-- OnlineOnlyDirective  -->
<g id="node23" class="node">
<title>OnlineOnlyDirective </title>
<polygon fill="#fb8072" stroke="black" points="1186.68,-252 1049.32,-252 1049.32,-216 1186.68,-216 1186.68,-252"/>
<text text-anchor="middle" x="1118" y="-229.8" font-family="Times,serif" font-size="14.00">OnlineOnlyDirective </text>
</g>
<!-- CoreModule&#45;&gt;OnlineOnlyDirective  -->
<g id="edge22" class="edge">
<title>CoreModule&#45;&gt;OnlineOnlyDirective </title>
<path fill="none" stroke="black" stroke-dasharray="5,2" d="M1238.37,-185C1192.48,-185 1126.85,-185 1126.85,-185 1126.85,-185 1126.85,-205.75 1126.85,-205.75"/>
<polygon fill="black" stroke="black" points="1123.35,-205.75 1126.85,-215.75 1130.35,-205.75 1123.35,-205.75"/>
</g>
<!-- PermissionDirective  -->
<g id="node24" class="node">
<title>PermissionDirective </title>
<polygon fill="#fb8072" stroke="black" points="1030.8,-252 897.2,-252 897.2,-216 1030.8,-216 1030.8,-252"/>
<text text-anchor="middle" x="964" y="-229.8" font-family="Times,serif" font-size="14.00">PermissionDirective </text>
</g>
<!-- CoreModule&#45;&gt;PermissionDirective  -->
<g id="edge23" class="edge">
<title>CoreModule&#45;&gt;PermissionDirective </title>
<path fill="none" stroke="black" stroke-dasharray="5,2" d="M1238.42,-182C1154.82,-182 980.1,-182 980.1,-182 980.1,-182 980.1,-205.81 980.1,-205.81"/>
<polygon fill="black" stroke="black" points="976.6,-205.81 980.1,-215.81 983.6,-205.81 976.6,-205.81"/>
</g>
<!-- TelemetryErrorModalComponent  -->
<g id="node25" class="node">
<title>TelemetryErrorModalComponent </title>
<polygon fill="#fb8072" stroke="black" points="879.45,-252 670.55,-252 670.55,-216 879.45,-216 879.45,-252"/>
<text text-anchor="middle" x="775" y="-229.8" font-family="Times,serif" font-size="14.00">TelemetryErrorModalComponent </text>
</g>
<!-- CoreModule&#45;&gt;TelemetryErrorModalComponent  -->
<g id="edge24" class="edge">
<title>CoreModule&#45;&gt;TelemetryErrorModalComponent </title>
<path fill="none" stroke="black" stroke-dasharray="5,2" d="M1238.59,-179C1118.89,-179 792.88,-179 792.88,-179 792.88,-179 792.88,-205.99 792.88,-205.99"/>
<polygon fill="black" stroke="black" points="789.38,-205.99 792.88,-215.99 796.38,-205.99 789.38,-205.99"/>
</g>
<!-- TelemetryModule  -->
<g id="node26" class="node">
<title>TelemetryModule </title>
<polygon fill="#fb8072" stroke="black" points="652.08,-252 531.92,-252 531.92,-216 652.08,-216 652.08,-252"/>
<text text-anchor="middle" x="592" y="-229.8" font-family="Times,serif" font-size="14.00">TelemetryModule </text>
</g>
<!-- CoreModule&#45;&gt;TelemetryModule  -->
<g id="edge25" class="edge">
<title>CoreModule&#45;&gt;TelemetryModule </title>
<path fill="none" stroke="black" stroke-dasharray="5,2" d="M1238.61,-176C1090.32,-176 612.82,-176 612.82,-176 612.82,-176 612.82,-205.97 612.82,-205.97"/>
<polygon fill="black" stroke="black" points="609.32,-205.97 612.82,-215.97 616.32,-205.97 609.32,-205.97"/>
</g>
<!-- LocationModule -->
<g id="node14" class="node">
<title>LocationModule</title>
<polygon fill="#8dd3c7" stroke="black" points="682.81,-122 679.81,-126 658.81,-126 655.81,-122 573.19,-122 573.19,-86 682.81,-86 682.81,-122"/>
<text text-anchor="middle" x="628" y="-99.8" font-family="Times,serif" font-size="14.00">LocationModule</text>
</g>
<!-- LocationModule&#45;&gt;CoreModule -->
<g id="edge13" class="edge">
<title>LocationModule&#45;&gt;CoreModule</title>
<path fill="none" stroke="black" d="M676.72,-122.02C676.72,-139.37 676.72,-163 676.72,-163 676.72,-163 1228.47,-163 1228.47,-163"/>
<polygon fill="black" stroke="black" points="1228.47,-166.5 1238.47,-163 1228.47,-159.5 1228.47,-166.5"/>
</g>
<!-- NotificationModule -->
<g id="node15" class="node">
<title>NotificationModule</title>
<polygon fill="#8dd3c7" stroke="black" points="555.7,-122 552.7,-126 531.7,-126 528.7,-122 428.3,-122 428.3,-86 555.7,-86 555.7,-122"/>
<text text-anchor="middle" x="492" y="-99.8" font-family="Times,serif" font-size="14.00">NotificationModule</text>
</g>
<!-- NotificationModule&#45;&gt;CoreModule -->
<g id="edge14" class="edge">
<title>NotificationModule&#45;&gt;CoreModule</title>
<path fill="none" stroke="black" d="M543.66,-122.3C543.66,-140.27 543.66,-165 543.66,-165 543.66,-165 1228.57,-165 1228.57,-165"/>
<polygon fill="black" stroke="black" points="1228.57,-168.5 1238.57,-165 1228.57,-161.5 1228.57,-168.5"/>
</g>
<!-- SharedModule -->
<g id="node16" class="node">
<title>SharedModule</title>
<polygon fill="#8dd3c7" stroke="black" points="410.42,-122 407.42,-126 386.42,-126 383.42,-122 311.58,-122 311.58,-86 410.42,-86 410.42,-122"/>
<text text-anchor="middle" x="361" y="-99.8" font-family="Times,serif" font-size="14.00">SharedModule</text>
</g>
<!-- SharedModule&#45;&gt;CoreModule -->
<g id="edge15" class="edge">
<title>SharedModule&#45;&gt;CoreModule</title>
<path fill="none" stroke="black" d="M361,-122.17C361,-141.09 361,-168 361,-168 361,-168 1228.51,-168 1228.51,-168"/>
<polygon fill="black" stroke="black" points="1228.51,-171.5 1238.51,-168 1228.51,-164.5 1228.51,-171.5"/>
</g>
<!-- TelemetryModule -->
<g id="node17" class="node">
<title>TelemetryModule</title>
<polygon fill="#8dd3c7" stroke="black" points="293.58,-122 290.58,-126 269.58,-126 266.58,-122 176.42,-122 176.42,-86 293.58,-86 293.58,-122"/>
<text text-anchor="middle" x="235" y="-99.8" font-family="Times,serif" font-size="14.00">TelemetryModule</text>
</g>
<!-- TelemetryModule&#45;&gt;CoreModule -->
<g id="edge16" class="edge">
<title>TelemetryModule&#45;&gt;CoreModule</title>
<path fill="none" stroke="black" d="M235,-122.31C235,-142.15 235,-171 235,-171 235,-171 1228.68,-171 1228.68,-171"/>
<polygon fill="black" stroke="black" points="1228.68,-174.5 1238.68,-171 1228.68,-167.5 1228.68,-174.5"/>
</g>
<!-- CacheService -->
<g id="node27" class="node">
<title>CacheService</title>
<ellipse fill="#fdb462" stroke="black" cx="88" cy="-104" rx="64.24" ry="18"/>
<text text-anchor="middle" x="88" y="-99.8" font-family="Times,serif" font-size="14.00">CacheService</text>
</g>
<!-- CacheService&#45;&gt;CoreModule -->
<g id="edge26" class="edge">
<title>CacheService&#45;&gt;CoreModule</title>
<path fill="none" stroke="black" d="M88,-122.03C88,-142.77 88,-174 88,-174 88,-174 1228.44,-174 1228.44,-174"/>
<polygon fill="black" stroke="black" points="1228.44,-177.5 1238.44,-174 1228.44,-170.5 1228.44,-177.5"/>
</g>
</g>
</svg>
