<?xml version="1.0" encoding="UTF-8" standalone="no"?>
<!DOCTYPE svg PUBLIC "-//W3C//DTD SVG 1.1//EN"
 "http://www.w3.org/Graphics/SVG/1.1/DTD/svg11.dtd">
<!-- Generated by graphviz version 2.47.0 (20210316.0004)
 -->
<!-- Title: dependencies Pages: 1 -->
<svg width="610pt" height="211pt"
 viewBox="0.00 0.00 610.00 211.00" xmlns="http://www.w3.org/2000/svg" xmlns:xlink="http://www.w3.org/1999/xlink">
<g id="graph0" class="graph" transform="scale(1 1) rotate(0) translate(4 207)">
<title>dependencies</title>
<polygon fill="white" stroke="transparent" points="-4,4 -4,-207 606,-207 606,4 -4,4"/>
<text text-anchor="start" x="280.01" y="-42.4" font-family="Times-12" font-weight="bold" font-size="14.00">Legend</text>
<polygon fill="#ffffb3" stroke="transparent" points="67,-10 67,-30 87,-30 87,-10 67,-10"/>
<text text-anchor="start" x="90.63" y="-15.4" font-family="Times-12" font-size="14.00"> &#160;Declarations</text>
<polygon fill="#8dd3c7" stroke="transparent" points="180,-10 180,-30 200,-30 200,-10 180,-10"/>
<text text-anchor="start" x="203.73" y="-15.4" font-family="Times-12" font-size="14.00"> &#160;Module</text>
<polygon fill="#80b1d3" stroke="transparent" points="266,-10 266,-30 286,-30 286,-10 266,-10"/>
<text text-anchor="start" x="289.78" y="-15.4" font-family="Times-12" font-size="14.00"> &#160;Bootstrap</text>
<polygon fill="#fdb462" stroke="transparent" points="363,-10 363,-30 383,-30 383,-10 363,-10"/>
<text text-anchor="start" x="386.67" y="-15.4" font-family="Times-12" font-size="14.00"> &#160;Providers</text>
<polygon fill="#fb8072" stroke="transparent" points="459,-10 459,-30 479,-30 479,-10 459,-10"/>
<text text-anchor="start" x="482.73" y="-15.4" font-family="Times-12" font-size="14.00"> &#160;Exports</text>
<g id="clust1" class="cluster">
<title>cluster_ProjectTemplateviewPageModule</title>
<polygon fill="none" stroke="black" stroke-dasharray="1,5" points="8,-70 8,-195 594,-195 594,-70 8,-70"/>
</g>
<g id="clust2" class="cluster">
<title>cluster_ProjectTemplateviewPageModule_declarations</title>
<polygon fill="none" stroke="black" points="408,-78 408,-130 586,-130 586,-78 408,-78"/>
</g>
<g id="clust4" class="cluster">
<title>cluster_ProjectTemplateviewPageModule_imports</title>
<polygon fill="none" stroke="black" points="16,-78 16,-130 400,-130 400,-78 16,-78"/>
</g>
<!-- ProjectTemplateviewPage -->
<g id="node1" class="node">
<title>ProjectTemplateviewPage</title>
<polygon fill="#ffffb3" stroke="black" points="578.45,-122 415.55,-122 415.55,-86 578.45,-86 578.45,-122"/>
<text text-anchor="middle" x="497" y="-99.8" font-family="Times,serif" font-size="14.00">ProjectTemplateviewPage</text>
</g>
<!-- ProjectTemplateviewPageModule -->
<g id="node2" class="node">
<title>ProjectTemplateviewPageModule</title>
<polygon fill="#8dd3c7" stroke="black" points="369.5,-187 366.5,-191 345.5,-191 342.5,-187 162.5,-187 162.5,-151 369.5,-151 369.5,-187"/>
<text text-anchor="middle" x="266" y="-164.8" font-family="Times,serif" font-size="14.00">ProjectTemplateviewPageModule</text>
</g>
<!-- ProjectTemplateviewPage&#45;&gt;ProjectTemplateviewPageModule -->
<g id="edge1" class="edge">
<title>ProjectTemplateviewPage&#45;&gt;ProjectTemplateviewPageModule</title>
<path fill="none" stroke="black" d="M497,-122.11C497,-141.34 497,-169 497,-169 497,-169 379.34,-169 379.34,-169"/>
<polygon fill="black" stroke="black" points="379.34,-165.5 369.34,-169 379.34,-172.5 379.34,-165.5"/>
</g>
<!-- ProjectTemplateviewPageRoutingModule -->
<g id="node3" class="node">
<title>ProjectTemplateviewPageRoutingModule</title>
<polygon fill="#8dd3c7" stroke="black" points="391.61,-122 388.61,-126 367.61,-126 364.61,-122 140.39,-122 140.39,-86 391.61,-86 391.61,-122"/>
<text text-anchor="middle" x="266" y="-99.8" font-family="Times,serif" font-size="14.00">ProjectTemplateviewPageRoutingModule</text>
</g>
<!-- ProjectTemplateviewPageRoutingModule&#45;&gt;ProjectTemplateviewPageModule -->
<g id="edge2" class="edge">
<title>ProjectTemplateviewPageRoutingModule&#45;&gt;ProjectTemplateviewPageModule</title>
<path fill="none" stroke="black" d="M266,-122.11C266,-122.11 266,-140.99 266,-140.99"/>
<polygon fill="black" stroke="black" points="262.5,-140.99 266,-150.99 269.5,-140.99 262.5,-140.99"/>
</g>
<!-- SharedModule -->
<g id="node4" class="node">
<title>SharedModule</title>
<polygon fill="#8dd3c7" stroke="black" points="122.42,-122 119.42,-126 98.42,-126 95.42,-122 23.58,-122 23.58,-86 122.42,-86 122.42,-122"/>
<text text-anchor="middle" x="73" y="-99.8" font-family="Times,serif" font-size="14.00">SharedModule</text>
</g>
<!-- SharedModule&#45;&gt;ProjectTemplateviewPageModule -->
<g id="edge3" class="edge">
<title>SharedModule&#45;&gt;ProjectTemplateviewPageModule</title>
<path fill="none" stroke="black" d="M73,-122.11C73,-141.34 73,-169 73,-169 73,-169 152.72,-169 152.72,-169"/>
<polygon fill="black" stroke="black" points="152.72,-172.5 162.72,-169 152.72,-165.5 152.72,-172.5"/>
</g>
</g>
</svg>
