<?xml version="1.0" encoding="UTF-8" standalone="no"?>
<!DOCTYPE svg PUBLIC "-//W3C//DTD SVG 1.1//EN"
 "http://www.w3.org/Graphics/SVG/1.1/DTD/svg11.dtd">
<!-- Generated by graphviz version 2.47.0 (20210316.0004)
 -->
<!-- Title: dependencies Pages: 1 -->
<svg width="504pt" height="211pt"
 viewBox="0.00 0.00 504.00 211.00" xmlns="http://www.w3.org/2000/svg" xmlns:xlink="http://www.w3.org/1999/xlink">
<g id="graph0" class="graph" transform="scale(1 1) rotate(0) translate(4 207)">
<title>dependencies</title>
<polygon fill="white" stroke="transparent" points="-4,4 -4,-207 500,-207 500,4 -4,4"/>
<text text-anchor="start" x="227.01" y="-42.4" font-family="Times-12" font-weight="bold" font-size="14.00">Legend</text>
<polygon fill="#ffffb3" stroke="transparent" points="14,-10 14,-30 34,-30 34,-10 14,-10"/>
<text text-anchor="start" x="37.63" y="-15.4" font-family="Times-12" font-size="14.00"> &#160;Declarations</text>
<polygon fill="#8dd3c7" stroke="transparent" points="127,-10 127,-30 147,-30 147,-10 127,-10"/>
<text text-anchor="start" x="150.73" y="-15.4" font-family="Times-12" font-size="14.00"> &#160;Module</text>
<polygon fill="#80b1d3" stroke="transparent" points="213,-10 213,-30 233,-30 233,-10 213,-10"/>
<text text-anchor="start" x="236.78" y="-15.4" font-family="Times-12" font-size="14.00"> &#160;Bootstrap</text>
<polygon fill="#fdb462" stroke="transparent" points="310,-10 310,-30 330,-30 330,-10 310,-10"/>
<text text-anchor="start" x="333.67" y="-15.4" font-family="Times-12" font-size="14.00"> &#160;Providers</text>
<polygon fill="#fb8072" stroke="transparent" points="406,-10 406,-30 426,-30 426,-10 406,-10"/>
<text text-anchor="start" x="429.73" y="-15.4" font-family="Times-12" font-size="14.00"> &#160;Exports</text>
<g id="clust1" class="cluster">
<title>cluster_AddMemberToGroupPageModule</title>
<polygon fill="none" stroke="black" stroke-dasharray="1,5" points="78,-70 78,-195 418,-195 418,-70 78,-70"/>
</g>
<g id="clust4" class="cluster">
<title>cluster_AddMemberToGroupPageModule_imports</title>
<polygon fill="none" stroke="black" points="276,-78 276,-130 410,-130 410,-78 276,-78"/>
</g>
<g id="clust2" class="cluster">
<title>cluster_AddMemberToGroupPageModule_declarations</title>
<polygon fill="none" stroke="black" points="86,-78 86,-130 268,-130 268,-78 86,-78"/>
</g>
<!-- AddMemberToGroupPage -->
<g id="node1" class="node">
<title>AddMemberToGroupPage</title>
<polygon fill="#ffffb3" stroke="black" points="260.06,-122 93.94,-122 93.94,-86 260.06,-86 260.06,-122"/>
<text text-anchor="middle" x="177" y="-99.8" font-family="Times,serif" font-size="14.00">AddMemberToGroupPage</text>
</g>
<!-- AddMemberToGroupPageModule -->
<g id="node2" class="node">
<title>AddMemberToGroupPageModule</title>
<polygon fill="#8dd3c7" stroke="black" points="352.61,-187 349.61,-191 328.61,-191 325.61,-187 143.39,-187 143.39,-151 352.61,-151 352.61,-187"/>
<text text-anchor="middle" x="248" y="-164.8" font-family="Times,serif" font-size="14.00">AddMemberToGroupPageModule</text>
</g>
<!-- AddMemberToGroupPage&#45;&gt;AddMemberToGroupPageModule -->
<g id="edge1" class="edge">
<title>AddMemberToGroupPage&#45;&gt;AddMemberToGroupPageModule</title>
<path fill="none" stroke="black" d="M201.61,-122.11C201.61,-122.11 201.61,-140.99 201.61,-140.99"/>
<polygon fill="black" stroke="black" points="198.11,-140.99 201.61,-150.99 205.11,-140.99 198.11,-140.99"/>
</g>
<!-- DirectivesModule -->
<g id="node3" class="node">
<title>DirectivesModule</title>
<polygon fill="#8dd3c7" stroke="black" points="401.58,-122 398.58,-126 377.58,-126 374.58,-122 284.42,-122 284.42,-86 401.58,-86 401.58,-122"/>
<text text-anchor="middle" x="343" y="-99.8" font-family="Times,serif" font-size="14.00">DirectivesModule</text>
</g>
<!-- DirectivesModule&#45;&gt;AddMemberToGroupPageModule -->
<g id="edge2" class="edge">
<title>DirectivesModule&#45;&gt;AddMemberToGroupPageModule</title>
<path fill="none" stroke="black" d="M318.63,-122.11C318.63,-122.11 318.63,-140.99 318.63,-140.99"/>
<polygon fill="black" stroke="black" points="315.13,-140.99 318.63,-150.99 322.13,-140.99 315.13,-140.99"/>
</g>
</g>
</svg>
