<?xml version="1.0" encoding="UTF-8" standalone="no"?>
<!DOCTYPE svg PUBLIC "-//W3C//DTD SVG 1.1//EN"
 "http://www.w3.org/Graphics/SVG/1.1/DTD/svg11.dtd">
<!-- Generated by graphviz version 2.47.0 (20210316.0004)
 -->
<!-- Title: dependencies Pages: 1 -->
<svg width="504pt" height="211pt"
 viewBox="0.00 0.00 504.00 211.00" xmlns="http://www.w3.org/2000/svg" xmlns:xlink="http://www.w3.org/1999/xlink">
<g id="graph0" class="graph" transform="scale(1 1) rotate(0) translate(4 207)">
<title>dependencies</title>
<polygon fill="white" stroke="transparent" points="-4,4 -4,-207 500,-207 500,4 -4,4"/>
<text text-anchor="start" x="227.01" y="-42.4" font-family="Times-12" font-weight="bold" font-size="14.00">Legend</text>
<polygon fill="#ffffb3" stroke="transparent" points="14,-10 14,-30 34,-30 34,-10 14,-10"/>
<text text-anchor="start" x="37.63" y="-15.4" font-family="Times-12" font-size="14.00"> &#160;Declarations</text>
<polygon fill="#8dd3c7" stroke="transparent" points="127,-10 127,-30 147,-30 147,-10 127,-10"/>
<text text-anchor="start" x="150.73" y="-15.4" font-family="Times-12" font-size="14.00"> &#160;Module</text>
<polygon fill="#80b1d3" stroke="transparent" points="213,-10 213,-30 233,-30 233,-10 213,-10"/>
<text text-anchor="start" x="236.78" y="-15.4" font-family="Times-12" font-size="14.00"> &#160;Bootstrap</text>
<polygon fill="#fdb462" stroke="transparent" points="310,-10 310,-30 330,-30 330,-10 310,-10"/>
<text text-anchor="start" x="333.67" y="-15.4" font-family="Times-12" font-size="14.00"> &#160;Providers</text>
<polygon fill="#fb8072" stroke="transparent" points="406,-10 406,-30 426,-30 426,-10 406,-10"/>
<text text-anchor="start" x="429.73" y="-15.4" font-family="Times-12" font-size="14.00"> &#160;Exports</text>
<g id="clust1" class="cluster">
<title>cluster_ImpSuggestionsPageModule</title>
<polygon fill="none" stroke="black" stroke-dasharray="1,5" points="42,-70 42,-195 454,-195 454,-70 42,-70"/>
</g>
<g id="clust4" class="cluster">
<title>cluster_ImpSuggestionsPageModule_imports</title>
<polygon fill="none" stroke="black" points="208,-78 208,-130 446,-130 446,-78 208,-78"/>
</g>
<g id="clust2" class="cluster">
<title>cluster_ImpSuggestionsPageModule_declarations</title>
<polygon fill="none" stroke="black" points="50,-78 50,-130 200,-130 200,-78 50,-78"/>
</g>
<!-- ImpSuggestionsPage -->
<g id="node1" class="node">
<title>ImpSuggestionsPage</title>
<polygon fill="#ffffb3" stroke="black" points="191.93,-122 58.07,-122 58.07,-86 191.93,-86 191.93,-122"/>
<text text-anchor="middle" x="125" y="-99.8" font-family="Times,serif" font-size="14.00">ImpSuggestionsPage</text>
</g>
<!-- ImpSuggestionsPageModule -->
<g id="node2" class="node">
<title>ImpSuggestionsPageModule</title>
<polygon fill="#8dd3c7" stroke="black" points="320.48,-187 317.48,-191 296.48,-191 293.48,-187 143.52,-187 143.52,-151 320.48,-151 320.48,-187"/>
<text text-anchor="middle" x="232" y="-164.8" font-family="Times,serif" font-size="14.00">ImpSuggestionsPageModule</text>
</g>
<!-- ImpSuggestionsPage&#45;&gt;ImpSuggestionsPageModule -->
<g id="edge1" class="edge">
<title>ImpSuggestionsPage&#45;&gt;ImpSuggestionsPageModule</title>
<path fill="none" stroke="black" d="M167.61,-122.11C167.61,-122.11 167.61,-140.99 167.61,-140.99"/>
<polygon fill="black" stroke="black" points="164.11,-140.99 167.61,-150.99 171.11,-140.99 164.11,-140.99"/>
</g>
<!-- ImpSuggestionsPageRoutingModule -->
<g id="node3" class="node">
<title>ImpSuggestionsPageRoutingModule</title>
<polygon fill="#8dd3c7" stroke="black" points="438.1,-122 435.1,-126 414.1,-126 411.1,-122 215.9,-122 215.9,-86 438.1,-86 438.1,-122"/>
<text text-anchor="middle" x="327" y="-99.8" font-family="Times,serif" font-size="14.00">ImpSuggestionsPageRoutingModule</text>
</g>
<!-- ImpSuggestionsPageRoutingModule&#45;&gt;ImpSuggestionsPageModule -->
<g id="edge2" class="edge">
<title>ImpSuggestionsPageRoutingModule&#45;&gt;ImpSuggestionsPageModule</title>
<path fill="none" stroke="black" d="M268.22,-122.11C268.22,-122.11 268.22,-140.99 268.22,-140.99"/>
<polygon fill="black" stroke="black" points="264.72,-140.99 268.22,-150.99 271.72,-140.99 264.72,-140.99"/>
</g>
</g>
</svg>
