<?xml version="1.0" encoding="UTF-8" standalone="no"?>
<!DOCTYPE svg PUBLIC "-//W3C//DTD SVG 1.1//EN"
 "http://www.w3.org/Graphics/SVG/1.1/DTD/svg11.dtd">
<!-- Generated by graphviz version 2.47.0 (20210316.0004)
 -->
<!-- Title: dependencies Pages: 1 -->
<svg width="504pt" height="211pt"
 viewBox="0.00 0.00 504.00 211.00" xmlns="http://www.w3.org/2000/svg" xmlns:xlink="http://www.w3.org/1999/xlink">
<g id="graph0" class="graph" transform="scale(1 1) rotate(0) translate(4 207)">
<title>dependencies</title>
<polygon fill="white" stroke="transparent" points="-4,4 -4,-207 500,-207 500,4 -4,4"/>
<text text-anchor="start" x="227.01" y="-42.4" font-family="Times-12" font-weight="bold" font-size="14.00">Legend</text>
<polygon fill="#ffffb3" stroke="transparent" points="14,-10 14,-30 34,-30 34,-10 14,-10"/>
<text text-anchor="start" x="37.63" y="-15.4" font-family="Times-12" font-size="14.00"> &#160;Declarations</text>
<polygon fill="#8dd3c7" stroke="transparent" points="127,-10 127,-30 147,-30 147,-10 127,-10"/>
<text text-anchor="start" x="150.73" y="-15.4" font-family="Times-12" font-size="14.00"> &#160;Module</text>
<polygon fill="#80b1d3" stroke="transparent" points="213,-10 213,-30 233,-30 233,-10 213,-10"/>
<text text-anchor="start" x="236.78" y="-15.4" font-family="Times-12" font-size="14.00"> &#160;Bootstrap</text>
<polygon fill="#fdb462" stroke="transparent" points="310,-10 310,-30 330,-30 330,-10 310,-10"/>
<text text-anchor="start" x="333.67" y="-15.4" font-family="Times-12" font-size="14.00"> &#160;Providers</text>
<polygon fill="#fb8072" stroke="transparent" points="406,-10 406,-30 426,-30 426,-10 406,-10"/>
<text text-anchor="start" x="429.73" y="-15.4" font-family="Times-12" font-size="14.00"> &#160;Exports</text>
<g id="clust1" class="cluster">
<title>cluster_CoursesPageModule</title>
<polygon fill="none" stroke="black" stroke-dasharray="1,5" points="117,-70 117,-195 379,-195 379,-70 117,-70"/>
</g>
<g id="clust4" class="cluster">
<title>cluster_CoursesPageModule_imports</title>
<polygon fill="none" stroke="black" points="237,-78 237,-130 371,-130 371,-78 237,-78"/>
</g>
<g id="clust2" class="cluster">
<title>cluster_CoursesPageModule_declarations</title>
<polygon fill="none" stroke="black" points="125,-78 125,-130 229,-130 229,-78 125,-78"/>
</g>
<!-- CoursesPage -->
<g id="node1" class="node">
<title>CoursesPage</title>
<polygon fill="#ffffb3" stroke="black" points="221.31,-122 132.69,-122 132.69,-86 221.31,-86 221.31,-122"/>
<text text-anchor="middle" x="177" y="-99.8" font-family="Times,serif" font-size="14.00">CoursesPage</text>
</g>
<!-- CoursesPageModule -->
<g id="node2" class="node">
<title>CoursesPageModule</title>
<polygon fill="#8dd3c7" stroke="black" points="312.86,-187 309.86,-191 288.86,-191 285.86,-187 181.14,-187 181.14,-151 312.86,-151 312.86,-187"/>
<text text-anchor="middle" x="247" y="-164.8" font-family="Times,serif" font-size="14.00">CoursesPageModule</text>
</g>
<!-- CoursesPage&#45;&gt;CoursesPageModule -->
<g id="edge1" class="edge">
<title>CoursesPage&#45;&gt;CoursesPageModule</title>
<path fill="none" stroke="black" d="M201.11,-122.11C201.11,-122.11 201.11,-140.99 201.11,-140.99"/>
<polygon fill="black" stroke="black" points="197.61,-140.99 201.11,-150.99 204.61,-140.99 197.61,-140.99"/>
</g>
<!-- DirectivesModule -->
<g id="node3" class="node">
<title>DirectivesModule</title>
<polygon fill="#8dd3c7" stroke="black" points="362.58,-122 359.58,-126 338.58,-126 335.58,-122 245.42,-122 245.42,-86 362.58,-86 362.58,-122"/>
<text text-anchor="middle" x="304" y="-99.8" font-family="Times,serif" font-size="14.00">DirectivesModule</text>
</g>
<!-- DirectivesModule&#45;&gt;CoursesPageModule -->
<g id="edge2" class="edge">
<title>DirectivesModule&#45;&gt;CoursesPageModule</title>
<path fill="none" stroke="black" d="M279.2,-122.11C279.2,-122.11 279.2,-140.99 279.2,-140.99"/>
<polygon fill="black" stroke="black" points="275.7,-140.99 279.2,-150.99 282.7,-140.99 275.7,-140.99"/>
</g>
</g>
</svg>
