<?xml version="1.0" encoding="UTF-8" standalone="no"?>
<!DOCTYPE svg PUBLIC "-//W3C//DTD SVG 1.1//EN"
 "http://www.w3.org/Graphics/SVG/1.1/DTD/svg11.dtd">
<!-- Generated by graphviz version 2.47.0 (20210316.0004)
 -->
<!-- Title: dependencies Pages: 1 -->
<svg width="504pt" height="211pt"
 viewBox="0.00 0.00 504.00 211.00" xmlns="http://www.w3.org/2000/svg" xmlns:xlink="http://www.w3.org/1999/xlink">
<g id="graph0" class="graph" transform="scale(1 1) rotate(0) translate(4 207)">
<title>dependencies</title>
<polygon fill="white" stroke="transparent" points="-4,4 -4,-207 500,-207 500,4 -4,4"/>
<text text-anchor="start" x="227.01" y="-42.4" font-family="Times-12" font-weight="bold" font-size="14.00">Legend</text>
<polygon fill="#ffffb3" stroke="transparent" points="14,-10 14,-30 34,-30 34,-10 14,-10"/>
<text text-anchor="start" x="37.63" y="-15.4" font-family="Times-12" font-size="14.00"> &#160;Declarations</text>
<polygon fill="#8dd3c7" stroke="transparent" points="127,-10 127,-30 147,-30 147,-10 127,-10"/>
<text text-anchor="start" x="150.73" y="-15.4" font-family="Times-12" font-size="14.00"> &#160;Module</text>
<polygon fill="#80b1d3" stroke="transparent" points="213,-10 213,-30 233,-30 233,-10 213,-10"/>
<text text-anchor="start" x="236.78" y="-15.4" font-family="Times-12" font-size="14.00"> &#160;Bootstrap</text>
<polygon fill="#fdb462" stroke="transparent" points="310,-10 310,-30 330,-30 330,-10 310,-10"/>
<text text-anchor="start" x="333.67" y="-15.4" font-family="Times-12" font-size="14.00"> &#160;Providers</text>
<polygon fill="#fb8072" stroke="transparent" points="406,-10 406,-30 426,-30 426,-10 406,-10"/>
<text text-anchor="start" x="429.73" y="-15.4" font-family="Times-12" font-size="14.00"> &#160;Exports</text>
<g id="clust1" class="cluster">
<title>cluster_ActiveDownloadsPageModule</title>
<polygon fill="none" stroke="black" stroke-dasharray="1,5" points="89,-70 89,-195 407,-195 407,-70 89,-70"/>
</g>
<g id="clust4" class="cluster">
<title>cluster_ActiveDownloadsPageModule_imports</title>
<polygon fill="none" stroke="black" points="265,-78 265,-130 399,-130 399,-78 265,-78"/>
</g>
<g id="clust2" class="cluster">
<title>cluster_ActiveDownloadsPageModule_declarations</title>
<polygon fill="none" stroke="black" points="97,-78 97,-130 257,-130 257,-78 97,-78"/>
</g>
<!-- ActiveDownloadsPage -->
<g id="node1" class="node">
<title>ActiveDownloadsPage</title>
<polygon fill="#ffffb3" stroke="black" points="249.29,-122 104.71,-122 104.71,-86 249.29,-86 249.29,-122"/>
<text text-anchor="middle" x="177" y="-99.8" font-family="Times,serif" font-size="14.00">ActiveDownloadsPage</text>
</g>
<!-- ActiveDownloadsPageModule -->
<g id="node2" class="node">
<title>ActiveDownloadsPageModule</title>
<polygon fill="#8dd3c7" stroke="black" points="341.84,-187 338.84,-191 317.84,-191 314.84,-187 154.16,-187 154.16,-151 341.84,-151 341.84,-187"/>
<text text-anchor="middle" x="248" y="-164.8" font-family="Times,serif" font-size="14.00">ActiveDownloadsPageModule</text>
</g>
<!-- ActiveDownloadsPage&#45;&gt;ActiveDownloadsPageModule -->
<g id="edge1" class="edge">
<title>ActiveDownloadsPage&#45;&gt;ActiveDownloadsPageModule</title>
<path fill="none" stroke="black" d="M201.61,-122.11C201.61,-122.11 201.61,-140.99 201.61,-140.99"/>
<polygon fill="black" stroke="black" points="198.11,-140.99 201.61,-150.99 205.11,-140.99 198.11,-140.99"/>
</g>
<!-- DirectivesModule -->
<g id="node3" class="node">
<title>DirectivesModule</title>
<polygon fill="#8dd3c7" stroke="black" points="390.58,-122 387.58,-126 366.58,-126 363.58,-122 273.42,-122 273.42,-86 390.58,-86 390.58,-122"/>
<text text-anchor="middle" x="332" y="-99.8" font-family="Times,serif" font-size="14.00">DirectivesModule</text>
</g>
<!-- DirectivesModule&#45;&gt;ActiveDownloadsPageModule -->
<g id="edge2" class="edge">
<title>DirectivesModule&#45;&gt;ActiveDownloadsPageModule</title>
<path fill="none" stroke="black" d="M307.69,-122.11C307.69,-122.11 307.69,-140.99 307.69,-140.99"/>
<polygon fill="black" stroke="black" points="304.19,-140.99 307.69,-150.99 311.19,-140.99 304.19,-140.99"/>
</g>
</g>
</svg>
