<?xml version="1.0" encoding="UTF-8" standalone="no"?>
<!DOCTYPE svg PUBLIC "-//W3C//DTD SVG 1.1//EN"
 "http://www.w3.org/Graphics/SVG/1.1/DTD/svg11.dtd">
<!-- Generated by graphviz version 2.47.0 (20210316.0004)
 -->
<!-- Title: dependencies Pages: 1 -->
<svg width="504pt" height="211pt"
 viewBox="0.00 0.00 504.00 211.00" xmlns="http://www.w3.org/2000/svg" xmlns:xlink="http://www.w3.org/1999/xlink">
<g id="graph0" class="graph" transform="scale(1 1) rotate(0) translate(4 207)">
<title>dependencies</title>
<polygon fill="white" stroke="transparent" points="-4,4 -4,-207 500,-207 500,4 -4,4"/>
<text text-anchor="start" x="227.01" y="-42.4" font-family="Times-12" font-weight="bold" font-size="14.00">Legend</text>
<polygon fill="#ffffb3" stroke="transparent" points="14,-10 14,-30 34,-30 34,-10 14,-10"/>
<text text-anchor="start" x="37.63" y="-15.4" font-family="Times-12" font-size="14.00"> &#160;Declarations</text>
<polygon fill="#8dd3c7" stroke="transparent" points="127,-10 127,-30 147,-30 147,-10 127,-10"/>
<text text-anchor="start" x="150.73" y="-15.4" font-family="Times-12" font-size="14.00"> &#160;Module</text>
<polygon fill="#80b1d3" stroke="transparent" points="213,-10 213,-30 233,-30 233,-10 213,-10"/>
<text text-anchor="start" x="236.78" y="-15.4" font-family="Times-12" font-size="14.00"> &#160;Bootstrap</text>
<polygon fill="#fdb462" stroke="transparent" points="310,-10 310,-30 330,-30 330,-10 310,-10"/>
<text text-anchor="start" x="333.67" y="-15.4" font-family="Times-12" font-size="14.00"> &#160;Providers</text>
<polygon fill="#fb8072" stroke="transparent" points="406,-10 406,-30 426,-30 426,-10 406,-10"/>
<text text-anchor="start" x="429.73" y="-15.4" font-family="Times-12" font-size="14.00"> &#160;Exports</text>
<g id="clust1" class="cluster">
<title>cluster_DeeplinkRedirectModule</title>
<polygon fill="none" stroke="black" stroke-dasharray="1,5" points="28.5,-70 28.5,-195 467.5,-195 467.5,-70 28.5,-70"/>
</g>
<g id="clust4" class="cluster">
<title>cluster_DeeplinkRedirectModule_imports</title>
<polygon fill="none" stroke="black" points="240.5,-78 240.5,-130 459.5,-130 459.5,-78 240.5,-78"/>
</g>
<g id="clust2" class="cluster">
<title>cluster_DeeplinkRedirectModule_declarations</title>
<polygon fill="none" stroke="black" points="36.5,-78 36.5,-130 232.5,-130 232.5,-78 36.5,-78"/>
</g>
<!-- DeeplinkRedirectComponent -->
<g id="node1" class="node">
<title>DeeplinkRedirectComponent</title>
<polygon fill="#ffffb3" stroke="black" points="224.57,-122 44.43,-122 44.43,-86 224.57,-86 224.57,-122"/>
<text text-anchor="middle" x="134.5" y="-99.8" font-family="Times,serif" font-size="14.00">DeeplinkRedirectComponent</text>
</g>
<!-- DeeplinkRedirectModule -->
<g id="node2" class="node">
<title>DeeplinkRedirectModule</title>
<polygon fill="#8dd3c7" stroke="black" points="376.79,-187 373.79,-191 352.79,-191 349.79,-187 218.21,-187 218.21,-151 376.79,-151 376.79,-187"/>
<text text-anchor="middle" x="297.5" y="-164.8" font-family="Times,serif" font-size="14.00">DeeplinkRedirectModule</text>
</g>
<!-- DeeplinkRedirectComponent&#45;&gt;DeeplinkRedirectModule -->
<g id="edge1" class="edge">
<title>DeeplinkRedirectComponent&#45;&gt;DeeplinkRedirectModule</title>
<path fill="none" stroke="black" d="M224.72,-104C231.88,-104 236.41,-104 236.41,-104 236.41,-104 236.41,-140.89 236.41,-140.89"/>
<polygon fill="black" stroke="black" points="232.91,-140.89 236.41,-150.89 239.91,-140.89 232.91,-140.89"/>
</g>
<!-- CoreModule -->
<g id="node3" class="node">
<title>CoreModule</title>
<polygon fill="#8dd3c7" stroke="black" points="451.76,-122 448.76,-126 427.76,-126 424.76,-122 365.24,-122 365.24,-86 451.76,-86 451.76,-122"/>
<text text-anchor="middle" x="408.5" y="-99.8" font-family="Times,serif" font-size="14.00">CoreModule</text>
</g>
<!-- CoreModule&#45;&gt;DeeplinkRedirectModule -->
<g id="edge2" class="edge">
<title>CoreModule&#45;&gt;DeeplinkRedirectModule</title>
<path fill="none" stroke="black" d="M370.88,-122.11C370.88,-122.11 370.88,-140.99 370.88,-140.99"/>
<polygon fill="black" stroke="black" points="367.38,-140.99 370.88,-150.99 374.38,-140.99 367.38,-140.99"/>
</g>
<!-- SharedModule -->
<g id="node4" class="node">
<title>SharedModule</title>
<polygon fill="#8dd3c7" stroke="black" points="346.92,-122 343.92,-126 322.92,-126 319.92,-122 248.08,-122 248.08,-86 346.92,-86 346.92,-122"/>
<text text-anchor="middle" x="297.5" y="-99.8" font-family="Times,serif" font-size="14.00">SharedModule</text>
</g>
<!-- SharedModule&#45;&gt;DeeplinkRedirectModule -->
<g id="edge3" class="edge">
<title>SharedModule&#45;&gt;DeeplinkRedirectModule</title>
<path fill="none" stroke="black" d="M297.5,-122.11C297.5,-122.11 297.5,-140.99 297.5,-140.99"/>
<polygon fill="black" stroke="black" points="294,-140.99 297.5,-150.99 301,-140.99 294,-140.99"/>
</g>
</g>
</svg>
