<?xml version="1.0" encoding="UTF-8" standalone="no"?>
<!DOCTYPE svg PUBLIC "-//W3C//DTD SVG 1.1//EN"
 "http://www.w3.org/Graphics/SVG/1.1/DTD/svg11.dtd">
<!-- Generated by graphviz version 2.47.0 (20210316.0004)
 -->
<!-- Title: dependencies Pages: 1 -->
<svg width="581pt" height="211pt"
 viewBox="0.00 0.00 581.00 211.00" xmlns="http://www.w3.org/2000/svg" xmlns:xlink="http://www.w3.org/1999/xlink">
<g id="graph0" class="graph" transform="scale(1 1) rotate(0) translate(4 207)">
<title>dependencies</title>
<polygon fill="white" stroke="transparent" points="-4,4 -4,-207 577,-207 577,4 -4,4"/>
<text text-anchor="start" x="265.51" y="-42.4" font-family="Times-12" font-weight="bold" font-size="14.00">Legend</text>
<polygon fill="#ffffb3" stroke="transparent" points="52.5,-10 52.5,-30 72.5,-30 72.5,-10 52.5,-10"/>
<text text-anchor="start" x="76.13" y="-15.4" font-family="Times-12" font-size="14.00"> &#160;Declarations</text>
<polygon fill="#8dd3c7" stroke="transparent" points="165.5,-10 165.5,-30 185.5,-30 185.5,-10 165.5,-10"/>
<text text-anchor="start" x="189.23" y="-15.4" font-family="Times-12" font-size="14.00"> &#160;Module</text>
<polygon fill="#80b1d3" stroke="transparent" points="251.5,-10 251.5,-30 271.5,-30 271.5,-10 251.5,-10"/>
<text text-anchor="start" x="275.28" y="-15.4" font-family="Times-12" font-size="14.00"> &#160;Bootstrap</text>
<polygon fill="#fdb462" stroke="transparent" points="348.5,-10 348.5,-30 368.5,-30 368.5,-10 348.5,-10"/>
<text text-anchor="start" x="372.17" y="-15.4" font-family="Times-12" font-size="14.00"> &#160;Providers</text>
<polygon fill="#fb8072" stroke="transparent" points="444.5,-10 444.5,-30 464.5,-30 464.5,-10 444.5,-10"/>
<text text-anchor="start" x="468.23" y="-15.4" font-family="Times-12" font-size="14.00"> &#160;Exports</text>
<g id="clust1" class="cluster">
<title>cluster_AttachmentListingPageModule</title>
<polygon fill="none" stroke="black" stroke-dasharray="1,5" points="8,-70 8,-195 565,-195 565,-70 8,-70"/>
</g>
<g id="clust4" class="cluster">
<title>cluster_AttachmentListingPageModule_imports</title>
<polygon fill="none" stroke="black" points="188,-78 188,-130 557,-130 557,-78 188,-78"/>
</g>
<g id="clust2" class="cluster">
<title>cluster_AttachmentListingPageModule_declarations</title>
<polygon fill="none" stroke="black" points="16,-78 16,-130 180,-130 180,-78 16,-78"/>
</g>
<!-- AttachmentListingPage -->
<g id="node1" class="node">
<title>AttachmentListingPage</title>
<polygon fill="#ffffb3" stroke="black" points="172.19,-122 23.81,-122 23.81,-86 172.19,-86 172.19,-122"/>
<text text-anchor="middle" x="98" y="-99.8" font-family="Times,serif" font-size="14.00">AttachmentListingPage</text>
</g>
<!-- AttachmentListingPageModule -->
<g id="node2" class="node">
<title>AttachmentListingPageModule</title>
<polygon fill="#8dd3c7" stroke="black" points="340.74,-187 337.74,-191 316.74,-191 313.74,-187 149.26,-187 149.26,-151 340.74,-151 340.74,-187"/>
<text text-anchor="middle" x="245" y="-164.8" font-family="Times,serif" font-size="14.00">AttachmentListingPageModule</text>
</g>
<!-- AttachmentListingPage&#45;&gt;AttachmentListingPageModule -->
<g id="edge1" class="edge">
<title>AttachmentListingPage&#45;&gt;AttachmentListingPageModule</title>
<path fill="none" stroke="black" d="M160.61,-122.11C160.61,-122.11 160.61,-140.99 160.61,-140.99"/>
<polygon fill="black" stroke="black" points="157.11,-140.99 160.61,-150.99 164.11,-140.99 157.11,-140.99"/>
</g>
<!-- AttachmentListingPageRoutingModule -->
<g id="node3" class="node">
<title>AttachmentListingPageRoutingModule</title>
<polygon fill="#8dd3c7" stroke="black" points="549.36,-122 546.36,-126 525.36,-126 522.36,-122 312.64,-122 312.64,-86 549.36,-86 549.36,-122"/>
<text text-anchor="middle" x="431" y="-99.8" font-family="Times,serif" font-size="14.00">AttachmentListingPageRoutingModule</text>
</g>
<!-- AttachmentListingPageRoutingModule&#45;&gt;AttachmentListingPageModule -->
<g id="edge2" class="edge">
<title>AttachmentListingPageRoutingModule&#45;&gt;AttachmentListingPageModule</title>
<path fill="none" stroke="black" d="M326.72,-122.11C326.72,-122.11 326.72,-140.99 326.72,-140.99"/>
<polygon fill="black" stroke="black" points="323.22,-140.99 326.72,-150.99 330.22,-140.99 323.22,-140.99"/>
</g>
<!-- SharedModule -->
<g id="node4" class="node">
<title>SharedModule</title>
<polygon fill="#8dd3c7" stroke="black" points="294.42,-122 291.42,-126 270.42,-126 267.42,-122 195.58,-122 195.58,-86 294.42,-86 294.42,-122"/>
<text text-anchor="middle" x="245" y="-99.8" font-family="Times,serif" font-size="14.00">SharedModule</text>
</g>
<!-- SharedModule&#45;&gt;AttachmentListingPageModule -->
<g id="edge3" class="edge">
<title>SharedModule&#45;&gt;AttachmentListingPageModule</title>
<path fill="none" stroke="black" d="M245,-122.11C245,-122.11 245,-140.99 245,-140.99"/>
<polygon fill="black" stroke="black" points="241.5,-140.99 245,-150.99 248.5,-140.99 241.5,-140.99"/>
</g>
</g>
</svg>
