<?xml version="1.0" encoding="UTF-8" standalone="no"?>
<!DOCTYPE svg PUBLIC "-//W3C//DTD SVG 1.1//EN"
 "http://www.w3.org/Graphics/SVG/1.1/DTD/svg11.dtd">
<!-- Generated by graphviz version 2.47.0 (20210316.0004)
 -->
<!-- Title: dependencies Pages: 1 -->
<svg width="504pt" height="211pt"
 viewBox="0.00 0.00 504.00 211.00" xmlns="http://www.w3.org/2000/svg" xmlns:xlink="http://www.w3.org/1999/xlink">
<g id="graph0" class="graph" transform="scale(1 1) rotate(0) translate(4 207)">
<title>dependencies</title>
<polygon fill="white" stroke="transparent" points="-4,4 -4,-207 500,-207 500,4 -4,4"/>
<text text-anchor="start" x="227.01" y="-42.4" font-family="Times-12" font-weight="bold" font-size="14.00">Legend</text>
<polygon fill="#ffffb3" stroke="transparent" points="14,-10 14,-30 34,-30 34,-10 14,-10"/>
<text text-anchor="start" x="37.63" y="-15.4" font-family="Times-12" font-size="14.00"> &#160;Declarations</text>
<polygon fill="#8dd3c7" stroke="transparent" points="127,-10 127,-30 147,-30 147,-10 127,-10"/>
<text text-anchor="start" x="150.73" y="-15.4" font-family="Times-12" font-size="14.00"> &#160;Module</text>
<polygon fill="#80b1d3" stroke="transparent" points="213,-10 213,-30 233,-30 233,-10 213,-10"/>
<text text-anchor="start" x="236.78" y="-15.4" font-family="Times-12" font-size="14.00"> &#160;Bootstrap</text>
<polygon fill="#fdb462" stroke="transparent" points="310,-10 310,-30 330,-30 330,-10 310,-10"/>
<text text-anchor="start" x="333.67" y="-15.4" font-family="Times-12" font-size="14.00"> &#160;Providers</text>
<polygon fill="#fb8072" stroke="transparent" points="406,-10 406,-30 426,-30 426,-10 406,-10"/>
<text text-anchor="start" x="429.73" y="-15.4" font-family="Times-12" font-size="14.00"> &#160;Exports</text>
<g id="clust1" class="cluster">
<title>cluster_ActivityDetailsPageModule</title>
<polygon fill="none" stroke="black" stroke-dasharray="1,5" points="19.5,-70 19.5,-195 476.5,-195 476.5,-70 19.5,-70"/>
</g>
<g id="clust2" class="cluster">
<title>cluster_ActivityDetailsPageModule_declarations</title>
<polygon fill="none" stroke="black" points="27.5,-78 27.5,-130 468.5,-130 468.5,-78 27.5,-78"/>
</g>
<!-- ActivityDashboardPage -->
<g id="node1" class="node">
<title>ActivityDashboardPage</title>
<polygon fill="#ffffb3" stroke="black" points="460.24,-122 310.76,-122 310.76,-86 460.24,-86 460.24,-122"/>
<text text-anchor="middle" x="385.5" y="-99.8" font-family="Times,serif" font-size="14.00">ActivityDashboardPage</text>
</g>
<!-- ActivityDetailsPageModule -->
<g id="node4" class="node">
<title>ActivityDetailsPageModule</title>
<polygon fill="#8dd3c7" stroke="black" points="314.8,-187 311.8,-191 290.8,-191 287.8,-187 142.2,-187 142.2,-151 314.8,-151 314.8,-187"/>
<text text-anchor="middle" x="228.5" y="-164.8" font-family="Times,serif" font-size="14.00">ActivityDetailsPageModule</text>
</g>
<!-- ActivityDashboardPage&#45;&gt;ActivityDetailsPageModule -->
<g id="edge1" class="edge">
<title>ActivityDashboardPage&#45;&gt;ActivityDetailsPageModule</title>
<path fill="none" stroke="black" d="M310.72,-104C305.21,-104 301.75,-104 301.75,-104 301.75,-104 301.75,-140.89 301.75,-140.89"/>
<polygon fill="black" stroke="black" points="298.25,-140.89 301.75,-150.89 305.25,-140.89 298.25,-140.89"/>
</g>
<!-- ActivityDetailsPage -->
<g id="node2" class="node">
<title>ActivityDetailsPage</title>
<polygon fill="#ffffb3" stroke="black" points="292.75,-122 164.25,-122 164.25,-86 292.75,-86 292.75,-122"/>
<text text-anchor="middle" x="228.5" y="-99.8" font-family="Times,serif" font-size="14.00">ActivityDetailsPage</text>
</g>
<!-- ActivityDetailsPage&#45;&gt;ActivityDetailsPageModule -->
<g id="edge2" class="edge">
<title>ActivityDetailsPage&#45;&gt;ActivityDetailsPageModule</title>
<path fill="none" stroke="black" d="M228.5,-122.11C228.5,-122.11 228.5,-140.99 228.5,-140.99"/>
<polygon fill="black" stroke="black" points="225,-140.99 228.5,-150.99 232,-140.99 225,-140.99"/>
</g>
<!-- ActivityTocPage -->
<g id="node3" class="node">
<title>ActivityTocPage</title>
<polygon fill="#ffffb3" stroke="black" points="145.86,-122 35.14,-122 35.14,-86 145.86,-86 145.86,-122"/>
<text text-anchor="middle" x="90.5" y="-99.8" font-family="Times,serif" font-size="14.00">ActivityTocPage</text>
</g>
<!-- ActivityTocPage&#45;&gt;ActivityDetailsPageModule -->
<g id="edge3" class="edge">
<title>ActivityTocPage&#45;&gt;ActivityDetailsPageModule</title>
<path fill="none" stroke="black" d="M146.06,-104C151.48,-104 155.03,-104 155.03,-104 155.03,-104 155.03,-140.89 155.03,-140.89"/>
<polygon fill="black" stroke="black" points="151.53,-140.89 155.03,-150.89 158.53,-140.89 151.53,-140.89"/>
</g>
</g>
</svg>
