<?xml version="1.0" encoding="UTF-8" standalone="no"?>
<!DOCTYPE svg PUBLIC "-//W3C//DTD SVG 1.1//EN"
 "http://www.w3.org/Graphics/SVG/1.1/DTD/svg11.dtd">
<!-- Generated by graphviz version 2.47.0 (20210316.0004)
 -->
<!-- Title: dependencies Pages: 1 -->
<svg width="504pt" height="211pt"
 viewBox="0.00 0.00 504.00 211.00" xmlns="http://www.w3.org/2000/svg" xmlns:xlink="http://www.w3.org/1999/xlink">
<g id="graph0" class="graph" transform="scale(1 1) rotate(0) translate(4 207)">
<title>dependencies</title>
<polygon fill="white" stroke="transparent" points="-4,4 -4,-207 500,-207 500,4 -4,4"/>
<text text-anchor="start" x="227.01" y="-42.4" font-family="Times-12" font-weight="bold" font-size="14.00">Legend</text>
<polygon fill="#ffffb3" stroke="transparent" points="14,-10 14,-30 34,-30 34,-10 14,-10"/>
<text text-anchor="start" x="37.63" y="-15.4" font-family="Times-12" font-size="14.00"> &#160;Declarations</text>
<polygon fill="#8dd3c7" stroke="transparent" points="127,-10 127,-30 147,-30 147,-10 127,-10"/>
<text text-anchor="start" x="150.73" y="-15.4" font-family="Times-12" font-size="14.00"> &#160;Module</text>
<polygon fill="#80b1d3" stroke="transparent" points="213,-10 213,-30 233,-30 233,-10 213,-10"/>
<text text-anchor="start" x="236.78" y="-15.4" font-family="Times-12" font-size="14.00"> &#160;Bootstrap</text>
<polygon fill="#fdb462" stroke="transparent" points="310,-10 310,-30 330,-30 330,-10 310,-10"/>
<text text-anchor="start" x="333.67" y="-15.4" font-family="Times-12" font-size="14.00"> &#160;Providers</text>
<polygon fill="#fb8072" stroke="transparent" points="406,-10 406,-30 426,-30 426,-10 406,-10"/>
<text text-anchor="start" x="429.73" y="-15.4" font-family="Times-12" font-size="14.00"> &#160;Exports</text>
<g id="clust1" class="cluster">
<title>cluster_SearchPageModule</title>
<polygon fill="none" stroke="black" stroke-dasharray="1,5" points="120,-70 120,-195 376,-195 376,-70 120,-70"/>
</g>
<g id="clust2" class="cluster">
<title>cluster_SearchPageModule_declarations</title>
<polygon fill="none" stroke="black" points="270,-78 270,-130 368,-130 368,-78 270,-78"/>
</g>
<g id="clust4" class="cluster">
<title>cluster_SearchPageModule_imports</title>
<polygon fill="none" stroke="black" points="128,-78 128,-130 262,-130 262,-78 128,-78"/>
</g>
<!-- SearchPage -->
<g id="node1" class="node">
<title>SearchPage</title>
<polygon fill="#ffffb3" stroke="black" points="359.8,-122 278.2,-122 278.2,-86 359.8,-86 359.8,-122"/>
<text text-anchor="middle" x="319" y="-99.8" font-family="Times,serif" font-size="14.00">SearchPage</text>
</g>
<!-- SearchPageModule -->
<g id="node2" class="node">
<title>SearchPageModule</title>
<polygon fill="#8dd3c7" stroke="black" points="312.35,-187 309.35,-191 288.35,-191 285.35,-187 187.65,-187 187.65,-151 312.35,-151 312.35,-187"/>
<text text-anchor="middle" x="250" y="-164.8" font-family="Times,serif" font-size="14.00">SearchPageModule</text>
</g>
<!-- SearchPage&#45;&gt;SearchPageModule -->
<g id="edge1" class="edge">
<title>SearchPage&#45;&gt;SearchPageModule</title>
<path fill="none" stroke="black" d="M295.39,-122.11C295.39,-122.11 295.39,-140.99 295.39,-140.99"/>
<polygon fill="black" stroke="black" points="291.89,-140.99 295.39,-150.99 298.89,-140.99 291.89,-140.99"/>
</g>
<!-- DirectivesModule -->
<g id="node3" class="node">
<title>DirectivesModule</title>
<polygon fill="#8dd3c7" stroke="black" points="253.58,-122 250.58,-126 229.58,-126 226.58,-122 136.42,-122 136.42,-86 253.58,-86 253.58,-122"/>
<text text-anchor="middle" x="195" y="-99.8" font-family="Times,serif" font-size="14.00">DirectivesModule</text>
</g>
<!-- DirectivesModule&#45;&gt;SearchPageModule -->
<g id="edge2" class="edge">
<title>DirectivesModule&#45;&gt;SearchPageModule</title>
<path fill="none" stroke="black" d="M220.56,-122.11C220.56,-122.11 220.56,-140.99 220.56,-140.99"/>
<polygon fill="black" stroke="black" points="217.06,-140.99 220.56,-150.99 224.06,-140.99 217.06,-140.99"/>
</g>
</g>
</svg>
