<?xml version="1.0" encoding="UTF-8" standalone="no"?>
<!DOCTYPE svg PUBLIC "-//W3C//DTD SVG 1.1//EN"
 "http://www.w3.org/Graphics/SVG/1.1/DTD/svg11.dtd">
<!-- Generated by graphviz version 2.47.0 (20210316.0004)
 -->
<!-- Title: dependencies Pages: 1 -->
<svg width="1102pt" height="211pt"
 viewBox="0.00 0.00 1102.00 211.00" xmlns="http://www.w3.org/2000/svg" xmlns:xlink="http://www.w3.org/1999/xlink">
<g id="graph0" class="graph" transform="scale(1 1) rotate(0) translate(4 207)">
<title>dependencies</title>
<polygon fill="white" stroke="transparent" points="-4,4 -4,-207 1098,-207 1098,4 -4,4"/>
<text text-anchor="start" x="526.01" y="-42.4" font-family="Times-12" font-weight="bold" font-size="14.00">Legend</text>
<polygon fill="#ffffb3" stroke="transparent" points="313,-10 313,-30 333,-30 333,-10 313,-10"/>
<text text-anchor="start" x="336.63" y="-15.4" font-family="Times-12" font-size="14.00"> &#160;Declarations</text>
<polygon fill="#8dd3c7" stroke="transparent" points="426,-10 426,-30 446,-30 446,-10 426,-10"/>
<text text-anchor="start" x="449.73" y="-15.4" font-family="Times-12" font-size="14.00"> &#160;Module</text>
<polygon fill="#80b1d3" stroke="transparent" points="512,-10 512,-30 532,-30 532,-10 512,-10"/>
<text text-anchor="start" x="535.78" y="-15.4" font-family="Times-12" font-size="14.00"> &#160;Bootstrap</text>
<polygon fill="#fdb462" stroke="transparent" points="609,-10 609,-30 629,-30 629,-10 609,-10"/>
<text text-anchor="start" x="632.67" y="-15.4" font-family="Times-12" font-size="14.00"> &#160;Providers</text>
<polygon fill="#fb8072" stroke="transparent" points="705,-10 705,-30 725,-30 725,-10 705,-10"/>
<text text-anchor="start" x="728.73" y="-15.4" font-family="Times-12" font-size="14.00"> &#160;Exports</text>
<g id="clust1" class="cluster">
<title>cluster_ResourceModule</title>
<polygon fill="none" stroke="black" stroke-dasharray="1,5" points="8,-70 8,-195 1086,-195 1086,-70 8,-70"/>
</g>
<g id="clust4" class="cluster">
<title>cluster_ResourceModule_imports</title>
<polygon fill="none" stroke="black" points="230,-78 230,-130 1078,-130 1078,-78 230,-78"/>
</g>
<g id="clust2" class="cluster">
<title>cluster_ResourceModule_declarations</title>
<polygon fill="none" stroke="black" points="16,-78 16,-130 222,-130 222,-78 16,-78"/>
</g>
<!-- CurriculumCoursesComponent -->
<g id="node1" class="node">
<title>CurriculumCoursesComponent</title>
<polygon fill="#ffffb3" stroke="black" points="214.48,-122 23.52,-122 23.52,-86 214.48,-86 214.48,-122"/>
<text text-anchor="middle" x="119" y="-99.8" font-family="Times,serif" font-size="14.00">CurriculumCoursesComponent</text>
</g>
<!-- ResourceModule -->
<g id="node2" class="node">
<title>ResourceModule</title>
<polygon fill="#8dd3c7" stroke="black" points="615.64,-187 612.64,-191 591.64,-191 588.64,-187 504.36,-187 504.36,-151 615.64,-151 615.64,-187"/>
<text text-anchor="middle" x="560" y="-164.8" font-family="Times,serif" font-size="14.00">ResourceModule</text>
</g>
<!-- CurriculumCoursesComponent&#45;&gt;ResourceModule -->
<g id="edge1" class="edge">
<title>CurriculumCoursesComponent&#45;&gt;ResourceModule</title>
<path fill="none" stroke="black" d="M119,-122.29C119,-144.21 119,-178 119,-178 119,-178 494.15,-178 494.15,-178"/>
<polygon fill="black" stroke="black" points="494.15,-181.5 504.15,-178 494.15,-174.5 494.15,-181.5"/>
</g>
<!-- ContentSearchModule -->
<g id="node3" class="node">
<title>ContentSearchModule</title>
<polygon fill="#8dd3c7" stroke="black" points="1069.97,-122 1066.97,-126 1045.97,-126 1042.97,-122 928.03,-122 928.03,-86 1069.97,-86 1069.97,-122"/>
<text text-anchor="middle" x="999" y="-99.8" font-family="Times,serif" font-size="14.00">ContentSearchModule</text>
</g>
<!-- ContentSearchModule&#45;&gt;ResourceModule -->
<g id="edge2" class="edge">
<title>ContentSearchModule&#45;&gt;ResourceModule</title>
<path fill="none" stroke="black" d="M999,-122.29C999,-144.21 999,-178 999,-178 999,-178 626.05,-178 626.05,-178"/>
<polygon fill="black" stroke="black" points="626.05,-174.5 616.05,-178 626.05,-181.5 626.05,-174.5"/>
</g>
<!-- CoreModule -->
<g id="node4" class="node">
<title>CoreModule</title>
<polygon fill="#8dd3c7" stroke="black" points="910.26,-122 907.26,-126 886.26,-126 883.26,-122 823.74,-122 823.74,-86 910.26,-86 910.26,-122"/>
<text text-anchor="middle" x="867" y="-99.8" font-family="Times,serif" font-size="14.00">CoreModule</text>
</g>
<!-- CoreModule&#45;&gt;ResourceModule -->
<g id="edge3" class="edge">
<title>CoreModule&#45;&gt;ResourceModule</title>
<path fill="none" stroke="black" d="M867,-122.11C867,-141.34 867,-169 867,-169 867,-169 625.95,-169 625.95,-169"/>
<polygon fill="black" stroke="black" points="625.95,-165.5 615.95,-169 625.95,-172.5 625.95,-165.5"/>
</g>
<!-- ResourceRoutingModule -->
<g id="node5" class="node">
<title>ResourceRoutingModule</title>
<polygon fill="#8dd3c7" stroke="black" points="805.25,-122 802.25,-126 781.25,-126 778.25,-122 648.75,-122 648.75,-86 805.25,-86 805.25,-122"/>
<text text-anchor="middle" x="727" y="-99.8" font-family="Times,serif" font-size="14.00">ResourceRoutingModule</text>
</g>
<!-- ResourceRoutingModule&#45;&gt;ResourceModule -->
<g id="edge4" class="edge">
<title>ResourceRoutingModule&#45;&gt;ResourceModule</title>
<path fill="none" stroke="black" d="M727,-122.03C727,-138.4 727,-160 727,-160 727,-160 626.07,-160 626.07,-160"/>
<polygon fill="black" stroke="black" points="626.07,-156.5 616.07,-160 626.07,-163.5 626.07,-156.5"/>
</g>
<!-- SharedFeatureModule -->
<g id="node6" class="node">
<title>SharedFeatureModule</title>
<polygon fill="#8dd3c7" stroke="black" points="630.4,-122 627.4,-126 606.4,-126 603.4,-122 489.6,-122 489.6,-86 630.4,-86 630.4,-122"/>
<text text-anchor="middle" x="560" y="-99.8" font-family="Times,serif" font-size="14.00">SharedFeatureModule</text>
</g>
<!-- SharedFeatureModule&#45;&gt;ResourceModule -->
<g id="edge5" class="edge">
<title>SharedFeatureModule&#45;&gt;ResourceModule</title>
<path fill="none" stroke="black" d="M560,-122.11C560,-122.11 560,-140.99 560,-140.99"/>
<polygon fill="black" stroke="black" points="556.5,-140.99 560,-150.99 563.5,-140.99 556.5,-140.99"/>
</g>
<!-- SharedModule -->
<g id="node7" class="node">
<title>SharedModule</title>
<polygon fill="#8dd3c7" stroke="black" points="472.42,-122 469.42,-126 448.42,-126 445.42,-122 373.58,-122 373.58,-86 472.42,-86 472.42,-122"/>
<text text-anchor="middle" x="423" y="-99.8" font-family="Times,serif" font-size="14.00">SharedModule</text>
</g>
<!-- SharedModule&#45;&gt;ResourceModule -->
<g id="edge6" class="edge">
<title>SharedModule&#45;&gt;ResourceModule</title>
<path fill="none" stroke="black" d="M423,-122.03C423,-138.4 423,-160 423,-160 423,-160 494.28,-160 494.28,-160"/>
<polygon fill="black" stroke="black" points="494.28,-163.5 504.28,-160 494.28,-156.5 494.28,-163.5"/>
</g>
<!-- TelemetryModule -->
<g id="node8" class="node">
<title>TelemetryModule</title>
<polygon fill="#8dd3c7" stroke="black" points="355.58,-122 352.58,-126 331.58,-126 328.58,-122 238.42,-122 238.42,-86 355.58,-86 355.58,-122"/>
<text text-anchor="middle" x="297" y="-99.8" font-family="Times,serif" font-size="14.00">TelemetryModule</text>
</g>
<!-- TelemetryModule&#45;&gt;ResourceModule -->
<g id="edge7" class="edge">
<title>TelemetryModule&#45;&gt;ResourceModule</title>
<path fill="none" stroke="black" d="M297,-122.11C297,-141.34 297,-169 297,-169 297,-169 494.22,-169 494.22,-169"/>
<polygon fill="black" stroke="black" points="494.22,-172.5 504.22,-169 494.22,-165.5 494.22,-172.5"/>
</g>
</g>
</svg>
