<?xml version="1.0" encoding="UTF-8" standalone="no"?>
<!DOCTYPE svg PUBLIC "-//W3C//DTD SVG 1.1//EN"
 "http://www.w3.org/Graphics/SVG/1.1/DTD/svg11.dtd">
<!-- Generated by graphviz version 2.47.0 (20210316.0004)
 -->
<!-- Title: dependencies Pages: 1 -->
<svg width="2347pt" height="211pt"
 viewBox="0.00 0.00 2347.00 211.00" xmlns="http://www.w3.org/2000/svg" xmlns:xlink="http://www.w3.org/1999/xlink">
<g id="graph0" class="graph" transform="scale(1 1) rotate(0) translate(4 207)">
<title>dependencies</title>
<polygon fill="white" stroke="transparent" points="-4,4 -4,-207 2343,-207 2343,4 -4,4"/>
<text text-anchor="start" x="1148.51" y="-42.4" font-family="Times-12" font-weight="bold" font-size="14.00">Legend</text>
<polygon fill="#ffffb3" stroke="transparent" points="935.5,-10 935.5,-30 955.5,-30 955.5,-10 935.5,-10"/>
<text text-anchor="start" x="959.13" y="-15.4" font-family="Times-12" font-size="14.00"> &#160;Declarations</text>
<polygon fill="#8dd3c7" stroke="transparent" points="1048.5,-10 1048.5,-30 1068.5,-30 1068.5,-10 1048.5,-10"/>
<text text-anchor="start" x="1072.23" y="-15.4" font-family="Times-12" font-size="14.00"> &#160;Module</text>
<polygon fill="#80b1d3" stroke="transparent" points="1134.5,-10 1134.5,-30 1154.5,-30 1154.5,-10 1134.5,-10"/>
<text text-anchor="start" x="1158.28" y="-15.4" font-family="Times-12" font-size="14.00"> &#160;Bootstrap</text>
<polygon fill="#fdb462" stroke="transparent" points="1231.5,-10 1231.5,-30 1251.5,-30 1251.5,-10 1231.5,-10"/>
<text text-anchor="start" x="1255.17" y="-15.4" font-family="Times-12" font-size="14.00"> &#160;Providers</text>
<polygon fill="#fb8072" stroke="transparent" points="1327.5,-10 1327.5,-30 1347.5,-30 1347.5,-10 1327.5,-10"/>
<text text-anchor="start" x="1351.23" y="-15.4" font-family="Times-12" font-size="14.00"> &#160;Exports</text>
<g id="clust1" class="cluster">
<title>cluster_ProfileModule</title>
<polygon fill="none" stroke="black" stroke-dasharray="1,5" points="8,-70 8,-195 2331,-195 2331,-70 8,-70"/>
</g>
<g id="clust10" class="cluster">
<title>cluster_ProfileModule_imports</title>
<polygon fill="none" stroke="black" points="1362,-78 1362,-130 2323,-130 2323,-78 1362,-78"/>
</g>
<g id="clust2" class="cluster">
<title>cluster_ProfileModule_declarations</title>
<polygon fill="none" stroke="black" points="16,-78 16,-130 1354,-130 1354,-78 16,-78"/>
</g>
<!-- AccountRecoveryInfoComponent -->
<g id="node1" class="node">
<title>AccountRecoveryInfoComponent</title>
<polygon fill="#ffffb3" stroke="black" points="1345.72,-122 1140.28,-122 1140.28,-86 1345.72,-86 1345.72,-122"/>
<text text-anchor="middle" x="1243" y="-99.8" font-family="Times,serif" font-size="14.00">AccountRecoveryInfoComponent</text>
</g>
<!-- ProfileModule -->
<g id="node8" class="node">
<title>ProfileModule</title>
<polygon fill="#8dd3c7" stroke="black" points="1384.65,-187 1381.65,-191 1360.65,-191 1357.65,-187 1287.35,-187 1287.35,-151 1384.65,-151 1384.65,-187"/>
<text text-anchor="middle" x="1336" y="-164.8" font-family="Times,serif" font-size="14.00">ProfileModule</text>
</g>
<!-- AccountRecoveryInfoComponent&#45;&gt;ProfileModule -->
<g id="edge1" class="edge">
<title>AccountRecoveryInfoComponent&#45;&gt;ProfileModule</title>
<path fill="none" stroke="black" d="M1316.52,-122.11C1316.52,-122.11 1316.52,-140.99 1316.52,-140.99"/>
<polygon fill="black" stroke="black" points="1313.02,-140.99 1316.52,-150.99 1320.02,-140.99 1313.02,-140.99"/>
</g>
<!-- ChooseUserComponent -->
<g id="node2" class="node">
<title>ChooseUserComponent</title>
<polygon fill="#ffffb3" stroke="black" points="1121.75,-122 972.25,-122 972.25,-86 1121.75,-86 1121.75,-122"/>
<text text-anchor="middle" x="1047" y="-99.8" font-family="Times,serif" font-size="14.00">ChooseUserComponent</text>
</g>
<!-- ChooseUserComponent&#45;&gt;ProfileModule -->
<g id="edge2" class="edge">
<title>ChooseUserComponent&#45;&gt;ProfileModule</title>
<path fill="none" stroke="black" d="M1047,-122.24C1047,-137.57 1047,-157 1047,-157 1047,-157 1277.3,-157 1277.3,-157"/>
<polygon fill="black" stroke="black" points="1277.3,-160.5 1287.3,-157 1277.3,-153.5 1277.3,-160.5"/>
</g>
<!-- CreateUserComponent -->
<g id="node3" class="node">
<title>CreateUserComponent</title>
<polygon fill="#ffffb3" stroke="black" points="954.29,-122 809.71,-122 809.71,-86 954.29,-86 954.29,-122"/>
<text text-anchor="middle" x="882" y="-99.8" font-family="Times,serif" font-size="14.00">CreateUserComponent</text>
</g>
<!-- CreateUserComponent&#45;&gt;ProfileModule -->
<g id="edge3" class="edge">
<title>CreateUserComponent&#45;&gt;ProfileModule</title>
<path fill="none" stroke="black" d="M882,-122.03C882,-139.06 882,-162 882,-162 882,-162 1276.98,-162 1276.98,-162"/>
<polygon fill="black" stroke="black" points="1276.98,-165.5 1286.98,-162 1276.98,-158.5 1276.98,-165.5"/>
</g>
<!-- ProfileBadgeComponent -->
<g id="node4" class="node">
<title>ProfileBadgeComponent</title>
<polygon fill="#ffffb3" stroke="black" points="791.7,-122 636.3,-122 636.3,-86 791.7,-86 791.7,-122"/>
<text text-anchor="middle" x="714" y="-99.8" font-family="Times,serif" font-size="14.00">ProfileBadgeComponent</text>
</g>
<!-- ProfileBadgeComponent&#45;&gt;ProfileModule -->
<g id="edge4" class="edge">
<title>ProfileBadgeComponent&#45;&gt;ProfileModule</title>
<path fill="none" stroke="black" d="M714,-122.22C714,-140.83 714,-167 714,-167 714,-167 1277.19,-167 1277.19,-167"/>
<polygon fill="black" stroke="black" points="1277.19,-170.5 1287.19,-167 1277.19,-163.5 1277.19,-170.5"/>
</g>
<!-- ProfilePageComponent -->
<g id="node5" class="node">
<title>ProfilePageComponent</title>
<polygon fill="#ffffb3" stroke="black" points="618.14,-122 471.86,-122 471.86,-86 618.14,-86 618.14,-122"/>
<text text-anchor="middle" x="545" y="-99.8" font-family="Times,serif" font-size="14.00">ProfilePageComponent</text>
</g>
<!-- ProfilePageComponent&#45;&gt;ProfileModule -->
<g id="edge5" class="edge">
<title>ProfilePageComponent&#45;&gt;ProfileModule</title>
<path fill="none" stroke="black" d="M545,-122.22C545,-142.37 545,-172 545,-172 545,-172 1277.12,-172 1277.12,-172"/>
<polygon fill="black" stroke="black" points="1277.12,-175.5 1287.12,-172 1277.12,-168.5 1277.12,-175.5"/>
</g>
<!-- SubmitTeacherDetailsComponent -->
<g id="node6" class="node">
<title>SubmitTeacherDetailsComponent</title>
<polygon fill="#ffffb3" stroke="black" points="453.01,-122 246.99,-122 246.99,-86 453.01,-86 453.01,-122"/>
<text text-anchor="middle" x="350" y="-99.8" font-family="Times,serif" font-size="14.00">SubmitTeacherDetailsComponent</text>
</g>
<!-- SubmitTeacherDetailsComponent&#45;&gt;ProfileModule -->
<g id="edge6" class="edge">
<title>SubmitTeacherDetailsComponent&#45;&gt;ProfileModule</title>
<path fill="none" stroke="black" d="M350,-122.04C350,-143.66 350,-177 350,-177 350,-177 1277.1,-177 1277.1,-177"/>
<polygon fill="black" stroke="black" points="1277.1,-180.5 1287.1,-177 1277.1,-173.5 1277.1,-180.5"/>
</g>
<!-- UpdateContactDetailsComponent -->
<g id="node7" class="node">
<title>UpdateContactDetailsComponent</title>
<polygon fill="#ffffb3" stroke="black" points="228.46,-122 23.54,-122 23.54,-86 228.46,-86 228.46,-122"/>
<text text-anchor="middle" x="126" y="-99.8" font-family="Times,serif" font-size="14.00">UpdateContactDetailsComponent</text>
</g>
<!-- UpdateContactDetailsComponent&#45;&gt;ProfileModule -->
<g id="edge7" class="edge">
<title>UpdateContactDetailsComponent&#45;&gt;ProfileModule</title>
<path fill="none" stroke="black" d="M126,-122.09C126,-145.13 126,-182 126,-182 126,-182 1277.07,-182 1277.07,-182"/>
<polygon fill="black" stroke="black" points="1277.07,-185.5 1287.07,-182 1277.07,-178.5 1277.07,-185.5"/>
</g>
<!-- ContentSearchModule -->
<g id="node9" class="node">
<title>ContentSearchModule</title>
<polygon fill="#8dd3c7" stroke="black" points="2314.97,-122 2311.97,-126 2290.97,-126 2287.97,-122 2173.03,-122 2173.03,-86 2314.97,-86 2314.97,-122"/>
<text text-anchor="middle" x="2244" y="-99.8" font-family="Times,serif" font-size="14.00">ContentSearchModule</text>
</g>
<!-- ContentSearchModule&#45;&gt;ProfileModule -->
<g id="edge8" class="edge">
<title>ContentSearchModule&#45;&gt;ProfileModule</title>
<path fill="none" stroke="black" d="M2244,-122.09C2244,-145.13 2244,-182 2244,-182 2244,-182 1394.82,-182 1394.82,-182"/>
<polygon fill="black" stroke="black" points="1394.82,-178.5 1384.82,-182 1394.82,-185.5 1394.82,-178.5"/>
</g>
<!-- CoreModule -->
<g id="node10" class="node">
<title>CoreModule</title>
<polygon fill="#8dd3c7" stroke="black" points="2155.26,-122 2152.26,-126 2131.26,-126 2128.26,-122 2068.74,-122 2068.74,-86 2155.26,-86 2155.26,-122"/>
<text text-anchor="middle" x="2112" y="-99.8" font-family="Times,serif" font-size="14.00">CoreModule</text>
</g>
<!-- CoreModule&#45;&gt;ProfileModule -->
<g id="edge9" class="edge">
<title>CoreModule&#45;&gt;ProfileModule</title>
<path fill="none" stroke="black" d="M2112,-122.04C2112,-143.66 2112,-177 2112,-177 2112,-177 1394.84,-177 1394.84,-177"/>
<polygon fill="black" stroke="black" points="1394.84,-173.5 1384.84,-177 1394.84,-180.5 1394.84,-173.5"/>
</g>
<!-- LocationModule -->
<g id="node11" class="node">
<title>LocationModule</title>
<polygon fill="#8dd3c7" stroke="black" points="2050.81,-122 2047.81,-126 2026.81,-126 2023.81,-122 1941.19,-122 1941.19,-86 2050.81,-86 2050.81,-122"/>
<text text-anchor="middle" x="1996" y="-99.8" font-family="Times,serif" font-size="14.00">LocationModule</text>
</g>
<!-- LocationModule&#45;&gt;ProfileModule -->
<g id="edge10" class="edge">
<title>LocationModule&#45;&gt;ProfileModule</title>
<path fill="none" stroke="black" d="M1996,-122.22C1996,-142.37 1996,-172 1996,-172 1996,-172 1394.8,-172 1394.8,-172"/>
<polygon fill="black" stroke="black" points="1394.8,-168.5 1384.8,-172 1394.8,-175.5 1394.8,-168.5"/>
</g>
<!-- ProfileRoutingModule -->
<g id="node12" class="node">
<title>ProfileRoutingModule</title>
<polygon fill="#8dd3c7" stroke="black" points="1923.27,-122 1920.27,-126 1899.27,-126 1896.27,-122 1780.73,-122 1780.73,-86 1923.27,-86 1923.27,-122"/>
<text text-anchor="middle" x="1852" y="-99.8" font-family="Times,serif" font-size="14.00">ProfileRoutingModule</text>
</g>
<!-- ProfileRoutingModule&#45;&gt;ProfileModule -->
<g id="edge11" class="edge">
<title>ProfileRoutingModule&#45;&gt;ProfileModule</title>
<path fill="none" stroke="black" d="M1852,-122.22C1852,-140.83 1852,-167 1852,-167 1852,-167 1395.01,-167 1395.01,-167"/>
<polygon fill="black" stroke="black" points="1395.01,-163.5 1385.01,-167 1395.01,-170.5 1395.01,-163.5"/>
</g>
<!-- SharedFeatureModule -->
<g id="node13" class="node">
<title>SharedFeatureModule</title>
<polygon fill="#8dd3c7" stroke="black" points="1762.4,-122 1759.4,-126 1738.4,-126 1735.4,-122 1621.6,-122 1621.6,-86 1762.4,-86 1762.4,-122"/>
<text text-anchor="middle" x="1692" y="-99.8" font-family="Times,serif" font-size="14.00">SharedFeatureModule</text>
</g>
<!-- SharedFeatureModule&#45;&gt;ProfileModule -->
<g id="edge12" class="edge">
<title>SharedFeatureModule&#45;&gt;ProfileModule</title>
<path fill="none" stroke="black" d="M1692,-122.03C1692,-139.06 1692,-162 1692,-162 1692,-162 1394.75,-162 1394.75,-162"/>
<polygon fill="black" stroke="black" points="1394.75,-158.5 1384.75,-162 1394.75,-165.5 1394.75,-158.5"/>
</g>
<!-- SharedModule -->
<g id="node14" class="node">
<title>SharedModule</title>
<polygon fill="#8dd3c7" stroke="black" points="1604.42,-122 1601.42,-126 1580.42,-126 1577.42,-122 1505.58,-122 1505.58,-86 1604.42,-86 1604.42,-122"/>
<text text-anchor="middle" x="1555" y="-99.8" font-family="Times,serif" font-size="14.00">SharedModule</text>
</g>
<!-- SharedModule&#45;&gt;ProfileModule -->
<g id="edge13" class="edge">
<title>SharedModule&#45;&gt;ProfileModule</title>
<path fill="none" stroke="black" d="M1555,-122.24C1555,-137.57 1555,-157 1555,-157 1555,-157 1394.88,-157 1394.88,-157"/>
<polygon fill="black" stroke="black" points="1394.88,-153.5 1384.88,-157 1394.88,-160.5 1394.88,-153.5"/>
</g>
<!-- TelemetryModule -->
<g id="node15" class="node">
<title>TelemetryModule</title>
<polygon fill="#8dd3c7" stroke="black" points="1487.58,-122 1484.58,-126 1463.58,-126 1460.58,-122 1370.42,-122 1370.42,-86 1487.58,-86 1487.58,-122"/>
<text text-anchor="middle" x="1429" y="-99.8" font-family="Times,serif" font-size="14.00">TelemetryModule</text>
</g>
<!-- TelemetryModule&#45;&gt;ProfileModule -->
<g id="edge14" class="edge">
<title>TelemetryModule&#45;&gt;ProfileModule</title>
<path fill="none" stroke="black" d="M1377.64,-122.11C1377.64,-122.11 1377.64,-140.99 1377.64,-140.99"/>
<polygon fill="black" stroke="black" points="1374.14,-140.99 1377.64,-150.99 1381.14,-140.99 1374.14,-140.99"/>
</g>
</g>
</svg>
