<?xml version="1.0" encoding="UTF-8" standalone="no"?>
<!DOCTYPE svg PUBLIC "-//W3C//DTD SVG 1.1//EN"
 "http://www.w3.org/Graphics/SVG/1.1/DTD/svg11.dtd">
<!-- Generated by graphviz version 2.47.0 (20210316.0004)
 -->
<!-- Title: dependencies Pages: 1 -->
<svg width="1399pt" height="211pt"
 viewBox="0.00 0.00 1399.00 211.00" xmlns="http://www.w3.org/2000/svg" xmlns:xlink="http://www.w3.org/1999/xlink">
<g id="graph0" class="graph" transform="scale(1 1) rotate(0) translate(4 207)">
<title>dependencies</title>
<polygon fill="white" stroke="transparent" points="-4,4 -4,-207 1395,-207 1395,4 -4,4"/>
<text text-anchor="start" x="674.51" y="-42.4" font-family="Times-12" font-weight="bold" font-size="14.00">Legend</text>
<polygon fill="#ffffb3" stroke="transparent" points="461.5,-10 461.5,-30 481.5,-30 481.5,-10 461.5,-10"/>
<text text-anchor="start" x="485.13" y="-15.4" font-family="Times-12" font-size="14.00"> &#160;Declarations</text>
<polygon fill="#8dd3c7" stroke="transparent" points="574.5,-10 574.5,-30 594.5,-30 594.5,-10 574.5,-10"/>
<text text-anchor="start" x="598.23" y="-15.4" font-family="Times-12" font-size="14.00"> &#160;Module</text>
<polygon fill="#80b1d3" stroke="transparent" points="660.5,-10 660.5,-30 680.5,-30 680.5,-10 660.5,-10"/>
<text text-anchor="start" x="684.28" y="-15.4" font-family="Times-12" font-size="14.00"> &#160;Bootstrap</text>
<polygon fill="#fdb462" stroke="transparent" points="757.5,-10 757.5,-30 777.5,-30 777.5,-10 757.5,-10"/>
<text text-anchor="start" x="781.17" y="-15.4" font-family="Times-12" font-size="14.00"> &#160;Providers</text>
<polygon fill="#fb8072" stroke="transparent" points="853.5,-10 853.5,-30 873.5,-30 873.5,-10 853.5,-10"/>
<text text-anchor="start" x="877.23" y="-15.4" font-family="Times-12" font-size="14.00"> &#160;Exports</text>
<g id="clust1" class="cluster">
<title>cluster_ReportModule</title>
<polygon fill="none" stroke="black" stroke-dasharray="1,5" points="8,-70 8,-195 1383,-195 1383,-70 8,-70"/>
</g>
<g id="clust7" class="cluster">
<title>cluster_ReportModule_imports</title>
<polygon fill="none" stroke="black" points="701,-78 701,-130 1375,-130 1375,-78 701,-78"/>
</g>
<g id="clust2" class="cluster">
<title>cluster_ReportModule_declarations</title>
<polygon fill="none" stroke="black" points="16,-78 16,-130 693,-130 693,-78 16,-78"/>
</g>
<!-- AllEvidenceComponent -->
<g id="node1" class="node">
<title>AllEvidenceComponent</title>
<polygon fill="#ffffb3" stroke="black" points="684.81,-122 533.19,-122 533.19,-86 684.81,-86 684.81,-122"/>
<text text-anchor="middle" x="609" y="-99.8" font-family="Times,serif" font-size="14.00">AllEvidenceComponent</text>
</g>
<!-- ReportModule -->
<g id="node5" class="node">
<title>ReportModule</title>
<polygon fill="#8dd3c7" stroke="black" points="942.65,-187 939.65,-191 918.65,-191 915.65,-187 845.35,-187 845.35,-151 942.65,-151 942.65,-187"/>
<text text-anchor="middle" x="894" y="-164.8" font-family="Times,serif" font-size="14.00">ReportModule</text>
</g>
<!-- AllEvidenceComponent&#45;&gt;ReportModule -->
<g id="edge1" class="edge">
<title>AllEvidenceComponent&#45;&gt;ReportModule</title>
<path fill="none" stroke="black" d="M609,-122.02C609,-139.37 609,-163 609,-163 609,-163 835.33,-163 835.33,-163"/>
<polygon fill="black" stroke="black" points="835.33,-166.5 845.33,-163 835.33,-159.5 835.33,-166.5"/>
</g>
<!-- EntityListComponent -->
<g id="node2" class="node">
<title>EntityListComponent</title>
<polygon fill="#ffffb3" stroke="black" points="515.84,-122 378.16,-122 378.16,-86 515.84,-86 515.84,-122"/>
<text text-anchor="middle" x="447" y="-99.8" font-family="Times,serif" font-size="14.00">EntityListComponent</text>
</g>
<!-- EntityListComponent&#45;&gt;ReportModule -->
<g id="edge2" class="edge">
<title>EntityListComponent&#45;&gt;ReportModule</title>
<path fill="none" stroke="black" d="M447,-122.11C447,-141.34 447,-169 447,-169 447,-169 835.31,-169 835.31,-169"/>
<polygon fill="black" stroke="black" points="835.31,-172.5 845.31,-169 835.31,-165.5 835.31,-172.5"/>
</g>
<!-- ReportViewComponent -->
<g id="node3" class="node">
<title>ReportViewComponent</title>
<polygon fill="#ffffb3" stroke="black" points="359.75,-122 210.25,-122 210.25,-86 359.75,-86 359.75,-122"/>
<text text-anchor="middle" x="285" y="-99.8" font-family="Times,serif" font-size="14.00">ReportViewComponent</text>
</g>
<!-- ReportViewComponent&#45;&gt;ReportModule -->
<g id="edge3" class="edge">
<title>ReportViewComponent&#45;&gt;ReportModule</title>
<path fill="none" stroke="black" d="M285,-122.28C285,-143.32 285,-175 285,-175 285,-175 835.19,-175 835.19,-175"/>
<polygon fill="black" stroke="black" points="835.19,-178.5 845.19,-175 835.19,-171.5 835.19,-178.5"/>
</g>
<!-- SolutionListingComponent -->
<g id="node4" class="node">
<title>SolutionListingComponent</title>
<polygon fill="#ffffb3" stroke="black" points="192.46,-122 23.54,-122 23.54,-86 192.46,-86 192.46,-122"/>
<text text-anchor="middle" x="108" y="-99.8" font-family="Times,serif" font-size="14.00">SolutionListingComponent</text>
</g>
<!-- SolutionListingComponent&#45;&gt;ReportModule -->
<g id="edge4" class="edge">
<title>SolutionListingComponent&#45;&gt;ReportModule</title>
<path fill="none" stroke="black" d="M108,-122.09C108,-145.13 108,-182 108,-182 108,-182 835.13,-182 835.13,-182"/>
<polygon fill="black" stroke="black" points="835.13,-185.5 845.13,-182 835.13,-178.5 835.13,-185.5"/>
</g>
<!-- CoreModule -->
<g id="node6" class="node">
<title>CoreModule</title>
<polygon fill="#8dd3c7" stroke="black" points="1367.26,-122 1364.26,-126 1343.26,-126 1340.26,-122 1280.74,-122 1280.74,-86 1367.26,-86 1367.26,-122"/>
<text text-anchor="middle" x="1324" y="-99.8" font-family="Times,serif" font-size="14.00">CoreModule</text>
</g>
<!-- CoreModule&#45;&gt;ReportModule -->
<g id="edge5" class="edge">
<title>CoreModule&#45;&gt;ReportModule</title>
<path fill="none" stroke="black" d="M1338.46,-122.09C1338.46,-145.13 1338.46,-182 1338.46,-182 1338.46,-182 952.84,-182 952.84,-182"/>
<polygon fill="black" stroke="black" points="952.84,-178.5 942.84,-182 952.84,-185.5 952.84,-178.5"/>
</g>
<!-- CoreModule&#45;&gt;ReportModule -->
<g id="edge6" class="edge">
<title>CoreModule&#45;&gt;ReportModule</title>
<path fill="none" stroke="black" d="M1309.54,-122.28C1309.54,-143.32 1309.54,-175 1309.54,-175 1309.54,-175 952.89,-175 952.89,-175"/>
<polygon fill="black" stroke="black" points="952.89,-171.5 942.89,-175 952.89,-178.5 952.89,-171.5"/>
</g>
<!-- ReportRoutingModule -->
<g id="node7" class="node">
<title>ReportRoutingModule</title>
<polygon fill="#8dd3c7" stroke="black" points="1262.27,-122 1259.27,-126 1238.27,-126 1235.27,-122 1119.73,-122 1119.73,-86 1262.27,-86 1262.27,-122"/>
<text text-anchor="middle" x="1191" y="-99.8" font-family="Times,serif" font-size="14.00">ReportRoutingModule</text>
</g>
<!-- ReportRoutingModule&#45;&gt;ReportModule -->
<g id="edge7" class="edge">
<title>ReportRoutingModule&#45;&gt;ReportModule</title>
<path fill="none" stroke="black" d="M1191,-122.11C1191,-141.34 1191,-169 1191,-169 1191,-169 952.71,-169 952.71,-169"/>
<polygon fill="black" stroke="black" points="952.71,-165.5 942.71,-169 952.71,-172.5 952.71,-165.5"/>
</g>
<!-- SharedFeatureModule -->
<g id="node8" class="node">
<title>SharedFeatureModule</title>
<polygon fill="#8dd3c7" stroke="black" points="1101.4,-122 1098.4,-126 1077.4,-126 1074.4,-122 960.6,-122 960.6,-86 1101.4,-86 1101.4,-122"/>
<text text-anchor="middle" x="1031" y="-99.8" font-family="Times,serif" font-size="14.00">SharedFeatureModule</text>
</g>
<!-- SharedFeatureModule&#45;&gt;ReportModule -->
<g id="edge8" class="edge">
<title>SharedFeatureModule&#45;&gt;ReportModule</title>
<path fill="none" stroke="black" d="M1054.4,-122.02C1054.4,-139.37 1054.4,-163 1054.4,-163 1054.4,-163 953,-163 953,-163"/>
<polygon fill="black" stroke="black" points="953,-159.5 943,-163 953,-166.5 953,-159.5"/>
</g>
<!-- SharedFeatureModule&#45;&gt;ReportModule -->
<g id="edge9" class="edge">
<title>SharedFeatureModule&#45;&gt;ReportModule</title>
<path fill="none" stroke="black" d="M1007.6,-122.24C1007.6,-137.57 1007.6,-157 1007.6,-157 1007.6,-157 952.84,-157 952.84,-157"/>
<polygon fill="black" stroke="black" points="952.84,-153.5 942.84,-157 952.84,-160.5 952.84,-153.5"/>
</g>
<!-- SharedModule -->
<g id="node9" class="node">
<title>SharedModule</title>
<polygon fill="#8dd3c7" stroke="black" points="943.42,-122 940.42,-126 919.42,-126 916.42,-122 844.58,-122 844.58,-86 943.42,-86 943.42,-122"/>
<text text-anchor="middle" x="894" y="-99.8" font-family="Times,serif" font-size="14.00">SharedModule</text>
</g>
<!-- SharedModule&#45;&gt;ReportModule -->
<g id="edge10" class="edge">
<title>SharedModule&#45;&gt;ReportModule</title>
<path fill="none" stroke="black" d="M877.72,-122.11C877.72,-122.11 877.72,-140.99 877.72,-140.99"/>
<polygon fill="black" stroke="black" points="874.22,-140.99 877.72,-150.99 881.22,-140.99 874.22,-140.99"/>
</g>
<!-- SharedModule&#45;&gt;ReportModule -->
<g id="edge11" class="edge">
<title>SharedModule&#45;&gt;ReportModule</title>
<path fill="none" stroke="black" d="M910.28,-122.11C910.28,-122.11 910.28,-140.99 910.28,-140.99"/>
<polygon fill="black" stroke="black" points="906.78,-140.99 910.28,-150.99 913.78,-140.99 906.78,-140.99"/>
</g>
<!-- TelemetryModule -->
<g id="node10" class="node">
<title>TelemetryModule</title>
<polygon fill="#8dd3c7" stroke="black" points="826.58,-122 823.58,-126 802.58,-126 799.58,-122 709.42,-122 709.42,-86 826.58,-86 826.58,-122"/>
<text text-anchor="middle" x="768" y="-99.8" font-family="Times,serif" font-size="14.00">TelemetryModule</text>
</g>
<!-- TelemetryModule&#45;&gt;ReportModule -->
<g id="edge12" class="edge">
<title>TelemetryModule&#45;&gt;ReportModule</title>
<path fill="none" stroke="black" d="M768,-122.24C768,-137.57 768,-157 768,-157 768,-157 835.29,-157 835.29,-157"/>
<polygon fill="black" stroke="black" points="835.29,-160.5 845.29,-157 835.29,-153.5 835.29,-160.5"/>
</g>
</g>
</svg>
