<?xml version="1.0" encoding="UTF-8" standalone="no"?>
<!DOCTYPE svg PUBLIC "-//W3C//DTD SVG 1.1//EN"
 "http://www.w3.org/Graphics/SVG/1.1/DTD/svg11.dtd">
<!-- Generated by graphviz version 2.47.0 (20210316.0004)
 -->
<!-- Title: dependencies Pages: 1 -->
<svg width="914pt" height="284pt"
 viewBox="0.00 0.00 914.00 284.00" xmlns="http://www.w3.org/2000/svg" xmlns:xlink="http://www.w3.org/1999/xlink">
<g id="graph0" class="graph" transform="scale(1 1) rotate(0) translate(4 280)">
<title>dependencies</title>
<polygon fill="white" stroke="transparent" points="-4,4 -4,-280 910,-280 910,4 -4,4"/>
<text text-anchor="start" x="432.01" y="-42.4" font-family="Times-12" font-weight="bold" font-size="14.00">Legend</text>
<polygon fill="#ffffb3" stroke="transparent" points="219,-10 219,-30 239,-30 239,-10 219,-10"/>
<text text-anchor="start" x="242.63" y="-15.4" font-family="Times-12" font-size="14.00"> &#160;Declarations</text>
<polygon fill="#8dd3c7" stroke="transparent" points="332,-10 332,-30 352,-30 352,-10 332,-10"/>
<text text-anchor="start" x="355.73" y="-15.4" font-family="Times-12" font-size="14.00"> &#160;Module</text>
<polygon fill="#80b1d3" stroke="transparent" points="418,-10 418,-30 438,-30 438,-10 418,-10"/>
<text text-anchor="start" x="441.78" y="-15.4" font-family="Times-12" font-size="14.00"> &#160;Bootstrap</text>
<polygon fill="#fdb462" stroke="transparent" points="515,-10 515,-30 535,-30 535,-10 515,-10"/>
<text text-anchor="start" x="538.67" y="-15.4" font-family="Times-12" font-size="14.00"> &#160;Providers</text>
<polygon fill="#fb8072" stroke="transparent" points="611,-10 611,-30 631,-30 631,-10 611,-10"/>
<text text-anchor="start" x="634.73" y="-15.4" font-family="Times-12" font-size="14.00"> &#160;Exports</text>
<g id="clust1" class="cluster">
<title>cluster_BadgingModule</title>
<polygon fill="none" stroke="black" stroke-dasharray="1,5" points="8,-70 8,-268 898,-268 898,-70 8,-70"/>
</g>
<g id="clust2" class="cluster">
<title>cluster_BadgingModule_declarations</title>
<polygon fill="none" stroke="black" points="488,-78 488,-130 890,-130 890,-78 488,-78"/>
</g>
<g id="clust6" class="cluster">
<title>cluster_BadgingModule_exports</title>
<polygon fill="none" stroke="black" points="231,-208 231,-260 639,-260 639,-208 231,-208"/>
</g>
<g id="clust5" class="cluster">
<title>cluster_BadgingModule_imports</title>
<polygon fill="none" stroke="black" points="230,-78 230,-130 480,-130 480,-78 230,-78"/>
</g>
<g id="clust8" class="cluster">
<title>cluster_BadgingModule_providers</title>
<polygon fill="none" stroke="black" points="16,-78 16,-130 222,-130 222,-78 16,-78"/>
</g>
<!-- AssignBadgesContentComponent -->
<g id="node1" class="node">
<title>AssignBadgesContentComponent</title>
<polygon fill="#ffffb3" stroke="black" points="881.76,-122 676.24,-122 676.24,-86 881.76,-86 881.76,-122"/>
<text text-anchor="middle" x="779" y="-99.8" font-family="Times,serif" font-size="14.00">AssignBadgesContentComponent</text>
</g>
<!-- BadgingModule -->
<g id="node3" class="node">
<title>BadgingModule</title>
<polygon fill="#8dd3c7" stroke="black" points="476.49,-187 473.49,-191 452.49,-191 449.49,-187 369.51,-187 369.51,-151 476.49,-151 476.49,-187"/>
<text text-anchor="middle" x="423" y="-164.8" font-family="Times,serif" font-size="14.00">BadgingModule</text>
</g>
<!-- AssignBadgesContentComponent&#45;&gt;BadgingModule -->
<g id="edge1" class="edge">
<title>AssignBadgesContentComponent&#45;&gt;BadgingModule</title>
<path fill="none" stroke="black" d="M779,-122.28C779,-143.32 779,-175 779,-175 779,-175 486.68,-175 486.68,-175"/>
<polygon fill="black" stroke="black" points="486.68,-171.5 476.68,-175 486.68,-178.5 486.68,-171.5"/>
</g>
<!-- ContentBadgeComponent -->
<g id="node2" class="node">
<title>ContentBadgeComponent</title>
<polygon fill="#ffffb3" stroke="black" points="657.93,-122 496.07,-122 496.07,-86 657.93,-86 657.93,-122"/>
<text text-anchor="middle" x="577" y="-99.8" font-family="Times,serif" font-size="14.00">ContentBadgeComponent</text>
</g>
<!-- ContentBadgeComponent&#45;&gt;BadgingModule -->
<g id="edge2" class="edge">
<title>ContentBadgeComponent&#45;&gt;BadgingModule</title>
<path fill="none" stroke="black" d="M563.46,-122.02C563.46,-139.37 563.46,-163 563.46,-163 563.46,-163 486.5,-163 486.5,-163"/>
<polygon fill="black" stroke="black" points="486.5,-159.5 476.5,-163 486.5,-166.5 486.5,-159.5"/>
</g>
<!-- AssignBadgesContentComponent  -->
<g id="node6" class="node">
<title>AssignBadgesContentComponent </title>
<polygon fill="#fb8072" stroke="black" points="630.76,-252 421.24,-252 421.24,-216 630.76,-216 630.76,-252"/>
<text text-anchor="middle" x="526" y="-229.8" font-family="Times,serif" font-size="14.00">AssignBadgesContentComponent </text>
</g>
<!-- BadgingModule&#45;&gt;AssignBadgesContentComponent  -->
<g id="edge5" class="edge">
<title>BadgingModule&#45;&gt;AssignBadgesContentComponent </title>
<path fill="none" stroke="black" stroke-dasharray="5,2" d="M448.93,-187.11C448.93,-187.11 448.93,-205.99 448.93,-205.99"/>
<polygon fill="black" stroke="black" points="445.43,-205.99 448.93,-215.99 452.43,-205.99 445.43,-205.99"/>
</g>
<!-- ContentBadgeComponent  -->
<g id="node7" class="node">
<title>ContentBadgeComponent </title>
<polygon fill="#fb8072" stroke="black" points="403.43,-252 238.57,-252 238.57,-216 403.43,-216 403.43,-252"/>
<text text-anchor="middle" x="321" y="-229.8" font-family="Times,serif" font-size="14.00">ContentBadgeComponent </text>
</g>
<!-- BadgingModule&#45;&gt;ContentBadgeComponent  -->
<g id="edge6" class="edge">
<title>BadgingModule&#45;&gt;ContentBadgeComponent </title>
<path fill="none" stroke="black" stroke-dasharray="5,2" d="M386.48,-187.11C386.48,-187.11 386.48,-205.99 386.48,-205.99"/>
<polygon fill="black" stroke="black" points="382.98,-205.99 386.48,-215.99 389.98,-205.99 382.98,-205.99"/>
</g>
<!-- SharedModule -->
<g id="node4" class="node">
<title>SharedModule</title>
<polygon fill="#8dd3c7" stroke="black" points="472.42,-122 469.42,-126 448.42,-126 445.42,-122 373.58,-122 373.58,-86 472.42,-86 472.42,-122"/>
<text text-anchor="middle" x="423" y="-99.8" font-family="Times,serif" font-size="14.00">SharedModule</text>
</g>
<!-- SharedModule&#45;&gt;BadgingModule -->
<g id="edge3" class="edge">
<title>SharedModule&#45;&gt;BadgingModule</title>
<path fill="none" stroke="black" d="M423,-122.11C423,-122.11 423,-140.99 423,-140.99"/>
<polygon fill="black" stroke="black" points="419.5,-140.99 423,-150.99 426.5,-140.99 419.5,-140.99"/>
</g>
<!-- TelemetryModule -->
<g id="node5" class="node">
<title>TelemetryModule</title>
<polygon fill="#8dd3c7" stroke="black" points="355.58,-122 352.58,-126 331.58,-126 328.58,-122 238.42,-122 238.42,-86 355.58,-86 355.58,-122"/>
<text text-anchor="middle" x="297" y="-99.8" font-family="Times,serif" font-size="14.00">TelemetryModule</text>
</g>
<!-- TelemetryModule&#45;&gt;BadgingModule -->
<g id="edge4" class="edge">
<title>TelemetryModule&#45;&gt;BadgingModule</title>
<path fill="none" stroke="black" d="M297.04,-122.02C297.04,-139.37 297.04,-163 297.04,-163 297.04,-163 359.21,-163 359.21,-163"/>
<polygon fill="black" stroke="black" points="359.22,-166.5 369.21,-163 359.21,-159.5 359.22,-166.5"/>
</g>
<!-- ContentBadgeService -->
<g id="node8" class="node">
<title>ContentBadgeService</title>
<ellipse fill="#fdb462" stroke="black" cx="119" cy="-104" rx="95.48" ry="18"/>
<text text-anchor="middle" x="119" y="-99.8" font-family="Times,serif" font-size="14.00">ContentBadgeService</text>
</g>
<!-- ContentBadgeService&#45;&gt;BadgingModule -->
<g id="edge7" class="edge">
<title>ContentBadgeService&#45;&gt;BadgingModule</title>
<path fill="none" stroke="black" d="M119,-122.28C119,-143.32 119,-175 119,-175 119,-175 359.35,-175 359.35,-175"/>
<polygon fill="black" stroke="black" points="359.35,-178.5 369.35,-175 359.35,-171.5 359.35,-178.5"/>
</g>
</g>
</svg>
