<?xml version="1.0" encoding="UTF-8" standalone="no"?>
<!DOCTYPE svg PUBLIC "-//W3C//DTD SVG 1.1//EN"
 "http://www.w3.org/Graphics/SVG/1.1/DTD/svg11.dtd">
<!-- Generated by graphviz version 2.47.0 (20210316.0004)
 -->
<!-- Title: dependencies Pages: 1 -->
<svg width="845pt" height="284pt"
 viewBox="0.00 0.00 845.00 284.00" xmlns="http://www.w3.org/2000/svg" xmlns:xlink="http://www.w3.org/1999/xlink">
<g id="graph0" class="graph" transform="scale(1 1) rotate(0) translate(4 280)">
<title>dependencies</title>
<polygon fill="white" stroke="transparent" points="-4,4 -4,-280 841,-280 841,4 -4,4"/>
<text text-anchor="start" x="397.51" y="-42.4" font-family="Times-12" font-weight="bold" font-size="14.00">Legend</text>
<polygon fill="#ffffb3" stroke="transparent" points="184.5,-10 184.5,-30 204.5,-30 204.5,-10 184.5,-10"/>
<text text-anchor="start" x="208.13" y="-15.4" font-family="Times-12" font-size="14.00"> &#160;Declarations</text>
<polygon fill="#8dd3c7" stroke="transparent" points="297.5,-10 297.5,-30 317.5,-30 317.5,-10 297.5,-10"/>
<text text-anchor="start" x="321.23" y="-15.4" font-family="Times-12" font-size="14.00"> &#160;Module</text>
<polygon fill="#80b1d3" stroke="transparent" points="383.5,-10 383.5,-30 403.5,-30 403.5,-10 383.5,-10"/>
<text text-anchor="start" x="407.28" y="-15.4" font-family="Times-12" font-size="14.00"> &#160;Bootstrap</text>
<polygon fill="#fdb462" stroke="transparent" points="480.5,-10 480.5,-30 500.5,-30 500.5,-10 480.5,-10"/>
<text text-anchor="start" x="504.17" y="-15.4" font-family="Times-12" font-size="14.00"> &#160;Providers</text>
<polygon fill="#fb8072" stroke="transparent" points="576.5,-10 576.5,-30 596.5,-30 596.5,-10 576.5,-10"/>
<text text-anchor="start" x="600.23" y="-15.4" font-family="Times-12" font-size="14.00"> &#160;Exports</text>
<g id="clust1" class="cluster">
<title>cluster_GroupDetailsPageModule</title>
<polygon fill="none" stroke="black" stroke-dasharray="1,5" points="8,-70 8,-268 829,-268 829,-70 8,-70"/>
</g>
<g id="clust2" class="cluster">
<title>cluster_GroupDetailsPageModule_declarations</title>
<polygon fill="none" stroke="black" points="336,-78 336,-130 821,-130 821,-78 336,-78"/>
</g>
<g id="clust7" class="cluster">
<title>cluster_GroupDetailsPageModule_exports</title>
<polygon fill="none" stroke="black" points="426,-208 426,-260 564,-260 564,-208 426,-208"/>
</g>
<g id="clust9" class="cluster">
<title>cluster_GroupDetailsPageModule_providers</title>
<polygon fill="none" stroke="black" points="16,-78 16,-130 328,-130 328,-78 16,-78"/>
</g>
<!-- AddActivityToGroupPage -->
<g id="node1" class="node">
<title>AddActivityToGroupPage</title>
<polygon fill="#ffffb3" stroke="black" points="813.02,-122 648.98,-122 648.98,-86 813.02,-86 813.02,-122"/>
<text text-anchor="middle" x="731" y="-99.8" font-family="Times,serif" font-size="14.00">AddActivityToGroupPage</text>
</g>
<!-- GroupDetailsPageModule -->
<g id="node4" class="node">
<title>GroupDetailsPageModule</title>
<polygon fill="#8dd3c7" stroke="black" points="576.18,-187 573.18,-191 552.18,-191 549.18,-187 413.82,-187 413.82,-151 576.18,-151 576.18,-187"/>
<text text-anchor="middle" x="495" y="-164.8" font-family="Times,serif" font-size="14.00">GroupDetailsPageModule</text>
</g>
<!-- AddActivityToGroupPage&#45;&gt;GroupDetailsPageModule -->
<g id="edge1" class="edge">
<title>AddActivityToGroupPage&#45;&gt;GroupDetailsPageModule</title>
<path fill="none" stroke="black" d="M731,-122.11C731,-141.34 731,-169 731,-169 731,-169 586.22,-169 586.22,-169"/>
<polygon fill="black" stroke="black" points="586.22,-165.5 576.22,-169 586.22,-172.5 586.22,-165.5"/>
</g>
<!-- GroupDetailsPage -->
<g id="node2" class="node">
<title>GroupDetailsPage</title>
<polygon fill="#ffffb3" stroke="black" points="630.13,-122 511.87,-122 511.87,-86 630.13,-86 630.13,-122"/>
<text text-anchor="middle" x="571" y="-99.8" font-family="Times,serif" font-size="14.00">GroupDetailsPage</text>
</g>
<!-- GroupDetailsPage&#45;&gt;GroupDetailsPageModule -->
<g id="edge2" class="edge">
<title>GroupDetailsPage&#45;&gt;GroupDetailsPageModule</title>
<path fill="none" stroke="black" d="M543.89,-122.11C543.89,-122.11 543.89,-140.99 543.89,-140.99"/>
<polygon fill="black" stroke="black" points="540.39,-140.99 543.89,-150.99 547.39,-140.99 540.39,-140.99"/>
</g>
<!-- ViewMoreActivityPage -->
<g id="node3" class="node">
<title>ViewMoreActivityPage</title>
<polygon fill="#ffffb3" stroke="black" points="493.73,-122 344.27,-122 344.27,-86 493.73,-86 493.73,-122"/>
<text text-anchor="middle" x="419" y="-99.8" font-family="Times,serif" font-size="14.00">ViewMoreActivityPage</text>
</g>
<!-- ViewMoreActivityPage&#45;&gt;GroupDetailsPageModule -->
<g id="edge3" class="edge">
<title>ViewMoreActivityPage&#45;&gt;GroupDetailsPageModule</title>
<path fill="none" stroke="black" d="M453.89,-122.11C453.89,-122.11 453.89,-140.99 453.89,-140.99"/>
<polygon fill="black" stroke="black" points="450.39,-140.99 453.89,-150.99 457.39,-140.99 450.39,-140.99"/>
</g>
<!-- GroupDetailsPage  -->
<g id="node5" class="node">
<title>GroupDetailsPage </title>
<polygon fill="#fb8072" stroke="black" points="556.13,-252 433.87,-252 433.87,-216 556.13,-216 556.13,-252"/>
<text text-anchor="middle" x="495" y="-229.8" font-family="Times,serif" font-size="14.00">GroupDetailsPage </text>
</g>
<!-- GroupDetailsPageModule&#45;&gt;GroupDetailsPage  -->
<g id="edge4" class="edge">
<title>GroupDetailsPageModule&#45;&gt;GroupDetailsPage </title>
<path fill="none" stroke="black" stroke-dasharray="5,2" d="M495,-187.11C495,-187.11 495,-205.99 495,-205.99"/>
<polygon fill="black" stroke="black" points="491.5,-205.99 495,-215.99 498.5,-205.99 491.5,-205.99"/>
</g>
<!-- ViewMoreActivityDelegateService -->
<g id="node6" class="node">
<title>ViewMoreActivityDelegateService</title>
<ellipse fill="#fdb462" stroke="black" cx="172" cy="-104" rx="147.57" ry="18"/>
<text text-anchor="middle" x="172" y="-99.8" font-family="Times,serif" font-size="14.00">ViewMoreActivityDelegateService</text>
</g>
<!-- ViewMoreActivityDelegateService&#45;&gt;GroupDetailsPageModule -->
<g id="edge5" class="edge">
<title>ViewMoreActivityDelegateService&#45;&gt;GroupDetailsPageModule</title>
<path fill="none" stroke="black" d="M172,-122.11C172,-141.34 172,-169 172,-169 172,-169 403.49,-169 403.49,-169"/>
<polygon fill="black" stroke="black" points="403.49,-172.5 413.49,-169 403.49,-165.5 403.49,-172.5"/>
</g>
</g>
</svg>
