<?xml version="1.0" encoding="UTF-8" standalone="no"?>
<!DOCTYPE svg PUBLIC "-//W3C//DTD SVG 1.1//EN"
 "http://www.w3.org/Graphics/SVG/1.1/DTD/svg11.dtd">
<!-- Generated by graphviz version 2.47.0 (20210316.0004)
 -->
<!-- Title: dependencies Pages: 1 -->
<svg width="799pt" height="211pt"
 viewBox="0.00 0.00 799.00 211.00" xmlns="http://www.w3.org/2000/svg" xmlns:xlink="http://www.w3.org/1999/xlink">
<g id="graph0" class="graph" transform="scale(1 1) rotate(0) translate(4 207)">
<title>dependencies</title>
<polygon fill="white" stroke="transparent" points="-4,4 -4,-207 795,-207 795,4 -4,4"/>
<text text-anchor="start" x="374.51" y="-42.4" font-family="Times-12" font-weight="bold" font-size="14.00">Legend</text>
<polygon fill="#ffffb3" stroke="transparent" points="161.5,-10 161.5,-30 181.5,-30 181.5,-10 161.5,-10"/>
<text text-anchor="start" x="185.13" y="-15.4" font-family="Times-12" font-size="14.00"> &#160;Declarations</text>
<polygon fill="#8dd3c7" stroke="transparent" points="274.5,-10 274.5,-30 294.5,-30 294.5,-10 274.5,-10"/>
<text text-anchor="start" x="298.23" y="-15.4" font-family="Times-12" font-size="14.00"> &#160;Module</text>
<polygon fill="#80b1d3" stroke="transparent" points="360.5,-10 360.5,-30 380.5,-30 380.5,-10 360.5,-10"/>
<text text-anchor="start" x="384.28" y="-15.4" font-family="Times-12" font-size="14.00"> &#160;Bootstrap</text>
<polygon fill="#fdb462" stroke="transparent" points="457.5,-10 457.5,-30 477.5,-30 477.5,-10 457.5,-10"/>
<text text-anchor="start" x="481.17" y="-15.4" font-family="Times-12" font-size="14.00"> &#160;Providers</text>
<polygon fill="#fb8072" stroke="transparent" points="553.5,-10 553.5,-30 573.5,-30 573.5,-10 553.5,-10"/>
<text text-anchor="start" x="577.23" y="-15.4" font-family="Times-12" font-size="14.00"> &#160;Exports</text>
<g id="clust1" class="cluster">
<title>cluster_PublicModule</title>
<polygon fill="none" stroke="black" stroke-dasharray="1,5" points="8,-70 8,-195 783,-195 783,-70 8,-70"/>
</g>
<g id="clust2" class="cluster">
<title>cluster_PublicModule_declarations</title>
<polygon fill="none" stroke="black" points="603,-78 603,-130 775,-130 775,-78 603,-78"/>
</g>
<g id="clust7" class="cluster">
<title>cluster_PublicModule_providers</title>
<polygon fill="none" stroke="black" points="401,-78 401,-130 595,-130 595,-78 401,-78"/>
</g>
<g id="clust4" class="cluster">
<title>cluster_PublicModule_imports</title>
<polygon fill="none" stroke="black" points="16,-78 16,-130 393,-130 393,-78 16,-78"/>
</g>
<!-- LandingPageComponent -->
<g id="node1" class="node">
<title>LandingPageComponent</title>
<polygon fill="#ffffb3" stroke="black" points="766.7,-122 611.3,-122 611.3,-86 766.7,-86 766.7,-122"/>
<text text-anchor="middle" x="689" y="-99.8" font-family="Times,serif" font-size="14.00">LandingPageComponent</text>
</g>
<!-- PublicModule -->
<g id="node2" class="node">
<title>PublicModule</title>
<polygon fill="#8dd3c7" stroke="black" points="389.83,-187 386.83,-191 365.83,-191 362.83,-187 294.17,-187 294.17,-151 389.83,-151 389.83,-187"/>
<text text-anchor="middle" x="342" y="-164.8" font-family="Times,serif" font-size="14.00">PublicModule</text>
</g>
<!-- LandingPageComponent&#45;&gt;PublicModule -->
<g id="edge1" class="edge">
<title>LandingPageComponent&#45;&gt;PublicModule</title>
<path fill="none" stroke="black" d="M689,-122.28C689,-143.32 689,-175 689,-175 689,-175 399.88,-175 399.88,-175"/>
<polygon fill="black" stroke="black" points="399.88,-171.5 389.88,-175 399.88,-178.5 399.88,-171.5"/>
</g>
<!-- CoreModule -->
<g id="node3" class="node">
<title>CoreModule</title>
<polygon fill="#8dd3c7" stroke="black" points="385.26,-122 382.26,-126 361.26,-126 358.26,-122 298.74,-122 298.74,-86 385.26,-86 385.26,-122"/>
<text text-anchor="middle" x="342" y="-99.8" font-family="Times,serif" font-size="14.00">CoreModule</text>
</g>
<!-- CoreModule&#45;&gt;PublicModule -->
<g id="edge2" class="edge">
<title>CoreModule&#45;&gt;PublicModule</title>
<path fill="none" stroke="black" d="M342,-122.11C342,-122.11 342,-140.99 342,-140.99"/>
<polygon fill="black" stroke="black" points="338.5,-140.99 342,-150.99 345.5,-140.99 338.5,-140.99"/>
</g>
<!-- PublicRoutingModule -->
<g id="node4" class="node">
<title>PublicRoutingModule</title>
<polygon fill="#8dd3c7" stroke="black" points="280.45,-122 277.45,-126 256.45,-126 253.45,-122 139.55,-122 139.55,-86 280.45,-86 280.45,-122"/>
<text text-anchor="middle" x="210" y="-99.8" font-family="Times,serif" font-size="14.00">PublicRoutingModule</text>
</g>
<!-- PublicRoutingModule&#45;&gt;PublicModule -->
<g id="edge3" class="edge">
<title>PublicRoutingModule&#45;&gt;PublicModule</title>
<path fill="none" stroke="black" d="M210,-122.02C210,-139.37 210,-163 210,-163 210,-163 283.97,-163 283.97,-163"/>
<polygon fill="black" stroke="black" points="283.97,-166.5 293.97,-163 283.97,-159.5 283.97,-166.5"/>
</g>
<!-- SharedModule -->
<g id="node5" class="node">
<title>SharedModule</title>
<polygon fill="#8dd3c7" stroke="black" points="122.42,-122 119.42,-126 98.42,-126 95.42,-122 23.58,-122 23.58,-86 122.42,-86 122.42,-122"/>
<text text-anchor="middle" x="73" y="-99.8" font-family="Times,serif" font-size="14.00">SharedModule</text>
</g>
<!-- SharedModule&#45;&gt;PublicModule -->
<g id="edge4" class="edge">
<title>SharedModule&#45;&gt;PublicModule</title>
<path fill="none" stroke="black" d="M73,-122.28C73,-143.32 73,-175 73,-175 73,-175 284.22,-175 284.22,-175"/>
<polygon fill="black" stroke="black" points="284.22,-178.5 294.22,-175 284.22,-171.5 284.22,-178.5"/>
</g>
<!-- PublicPlayerService -->
<g id="node6" class="node">
<title>PublicPlayerService</title>
<ellipse fill="#fdb462" stroke="black" cx="498" cy="-104" rx="89.18" ry="18"/>
<text text-anchor="middle" x="498" y="-99.8" font-family="Times,serif" font-size="14.00">PublicPlayerService</text>
</g>
<!-- PublicPlayerService&#45;&gt;PublicModule -->
<g id="edge5" class="edge">
<title>PublicPlayerService&#45;&gt;PublicModule</title>
<path fill="none" stroke="black" d="M498,-122.02C498,-139.37 498,-163 498,-163 498,-163 400.08,-163 400.08,-163"/>
<polygon fill="black" stroke="black" points="400.08,-159.5 390.08,-163 400.08,-166.5 400.08,-159.5"/>
</g>
</g>
</svg>
