<?xml version="1.0" encoding="UTF-8" standalone="no"?>
<!DOCTYPE svg PUBLIC "-//W3C//DTD SVG 1.1//EN"
 "http://www.w3.org/Graphics/SVG/1.1/DTD/svg11.dtd">
<!-- Generated by graphviz version 2.47.0 (20210316.0004)
 -->
<!-- Title: dependencies Pages: 1 -->
<svg width="610pt" height="211pt"
 viewBox="0.00 0.00 610.00 211.00" xmlns="http://www.w3.org/2000/svg" xmlns:xlink="http://www.w3.org/1999/xlink">
<g id="graph0" class="graph" transform="scale(1 1) rotate(0) translate(4 207)">
<title>dependencies</title>
<polygon fill="white" stroke="transparent" points="-4,4 -4,-207 606,-207 606,4 -4,4"/>
<text text-anchor="start" x="280.01" y="-42.4" font-family="Times-12" font-weight="bold" font-size="14.00">Legend</text>
<polygon fill="#ffffb3" stroke="transparent" points="67,-10 67,-30 87,-30 87,-10 67,-10"/>
<text text-anchor="start" x="90.63" y="-15.4" font-family="Times-12" font-size="14.00"> &#160;Declarations</text>
<polygon fill="#8dd3c7" stroke="transparent" points="180,-10 180,-30 200,-30 200,-10 180,-10"/>
<text text-anchor="start" x="203.73" y="-15.4" font-family="Times-12" font-size="14.00"> &#160;Module</text>
<polygon fill="#80b1d3" stroke="transparent" points="266,-10 266,-30 286,-30 286,-10 266,-10"/>
<text text-anchor="start" x="289.78" y="-15.4" font-family="Times-12" font-size="14.00"> &#160;Bootstrap</text>
<polygon fill="#fdb462" stroke="transparent" points="363,-10 363,-30 383,-30 383,-10 363,-10"/>
<text text-anchor="start" x="386.67" y="-15.4" font-family="Times-12" font-size="14.00"> &#160;Providers</text>
<polygon fill="#fb8072" stroke="transparent" points="459,-10 459,-30 479,-30 479,-10 459,-10"/>
<text text-anchor="start" x="482.73" y="-15.4" font-family="Times-12" font-size="14.00"> &#160;Exports</text>
<g id="clust1" class="cluster">
<title>cluster_SettingsPageModule</title>
<polygon fill="none" stroke="black" stroke-dasharray="1,5" points="8,-70 8,-195 594,-195 594,-70 8,-70"/>
</g>
<g id="clust2" class="cluster">
<title>cluster_SettingsPageModule_declarations</title>
<polygon fill="none" stroke="black" points="16,-78 16,-130 586,-130 586,-78 16,-78"/>
</g>
<!-- AboutUsComponent -->
<g id="node1" class="node">
<title>AboutUsComponent</title>
<polygon fill="#ffffb3" stroke="black" points="577.88,-122 446.12,-122 446.12,-86 577.88,-86 577.88,-122"/>
<text text-anchor="middle" x="512" y="-99.8" font-family="Times,serif" font-size="14.00">AboutUsComponent</text>
</g>
<!-- SettingsPageModule -->
<g id="node5" class="node">
<title>SettingsPageModule</title>
<polygon fill="#8dd3c7" stroke="black" points="346.88,-187 343.88,-191 322.88,-191 319.88,-187 215.12,-187 215.12,-151 346.88,-151 346.88,-187"/>
<text text-anchor="middle" x="281" y="-164.8" font-family="Times,serif" font-size="14.00">SettingsPageModule</text>
</g>
<!-- AboutUsComponent&#45;&gt;SettingsPageModule -->
<g id="edge1" class="edge">
<title>AboutUsComponent&#45;&gt;SettingsPageModule</title>
<path fill="none" stroke="black" d="M512,-122.11C512,-141.34 512,-169 512,-169 512,-169 356.89,-169 356.89,-169"/>
<polygon fill="black" stroke="black" points="356.89,-165.5 346.89,-169 356.89,-172.5 356.89,-165.5"/>
</g>
<!-- DataSyncComponent -->
<g id="node2" class="node">
<title>DataSyncComponent</title>
<polygon fill="#ffffb3" stroke="black" points="427.76,-122 292.24,-122 292.24,-86 427.76,-86 427.76,-122"/>
<text text-anchor="middle" x="360" y="-99.8" font-family="Times,serif" font-size="14.00">DataSyncComponent</text>
</g>
<!-- DataSyncComponent&#45;&gt;SettingsPageModule -->
<g id="edge2" class="edge">
<title>DataSyncComponent&#45;&gt;SettingsPageModule</title>
<path fill="none" stroke="black" d="M319.53,-122.11C319.53,-122.11 319.53,-140.99 319.53,-140.99"/>
<polygon fill="black" stroke="black" points="316.03,-140.99 319.53,-150.99 323.03,-140.99 316.03,-140.99"/>
</g>
<!-- PermissionComponent -->
<g id="node3" class="node">
<title>PermissionComponent</title>
<polygon fill="#ffffb3" stroke="black" points="273.55,-122 130.45,-122 130.45,-86 273.55,-86 273.55,-122"/>
<text text-anchor="middle" x="202" y="-99.8" font-family="Times,serif" font-size="14.00">PermissionComponent</text>
</g>
<!-- PermissionComponent&#45;&gt;SettingsPageModule -->
<g id="edge3" class="edge">
<title>PermissionComponent&#45;&gt;SettingsPageModule</title>
<path fill="none" stroke="black" d="M244.42,-122.11C244.42,-122.11 244.42,-140.99 244.42,-140.99"/>
<polygon fill="black" stroke="black" points="240.92,-140.99 244.42,-150.99 247.92,-140.99 240.92,-140.99"/>
</g>
<!-- SettingsPage -->
<g id="node4" class="node">
<title>SettingsPage</title>
<polygon fill="#ffffb3" stroke="black" points="112.33,-122 23.67,-122 23.67,-86 112.33,-86 112.33,-122"/>
<text text-anchor="middle" x="68" y="-99.8" font-family="Times,serif" font-size="14.00">SettingsPage</text>
</g>
<!-- SettingsPage&#45;&gt;SettingsPageModule -->
<g id="edge4" class="edge">
<title>SettingsPage&#45;&gt;SettingsPageModule</title>
<path fill="none" stroke="black" d="M68,-122.11C68,-141.34 68,-169 68,-169 68,-169 205.06,-169 205.06,-169"/>
<polygon fill="black" stroke="black" points="205.06,-172.5 215.06,-169 205.06,-165.5 205.06,-172.5"/>
</g>
</g>
</svg>
