<?xml version="1.0" encoding="UTF-8" standalone="no"?>
<!DOCTYPE svg PUBLIC "-//W3C//DTD SVG 1.1//EN"
 "http://www.w3.org/Graphics/SVG/1.1/DTD/svg11.dtd">
<!-- Generated by graphviz version 2.47.0 (20210316.0004)
 -->
<!-- Title: dependencies Pages: 1 -->
<svg width="540pt" height="211pt"
 viewBox="0.00 0.00 540.00 211.00" xmlns="http://www.w3.org/2000/svg" xmlns:xlink="http://www.w3.org/1999/xlink">
<g id="graph0" class="graph" transform="scale(1 1) rotate(0) translate(4 207)">
<title>dependencies</title>
<polygon fill="white" stroke="transparent" points="-4,4 -4,-207 536,-207 536,4 -4,4"/>
<text text-anchor="start" x="245.01" y="-42.4" font-family="Times-12" font-weight="bold" font-size="14.00">Legend</text>
<polygon fill="#ffffb3" stroke="transparent" points="32,-10 32,-30 52,-30 52,-10 32,-10"/>
<text text-anchor="start" x="55.63" y="-15.4" font-family="Times-12" font-size="14.00"> &#160;Declarations</text>
<polygon fill="#8dd3c7" stroke="transparent" points="145,-10 145,-30 165,-30 165,-10 145,-10"/>
<text text-anchor="start" x="168.73" y="-15.4" font-family="Times-12" font-size="14.00"> &#160;Module</text>
<polygon fill="#80b1d3" stroke="transparent" points="231,-10 231,-30 251,-30 251,-10 231,-10"/>
<text text-anchor="start" x="254.78" y="-15.4" font-family="Times-12" font-size="14.00"> &#160;Bootstrap</text>
<polygon fill="#fdb462" stroke="transparent" points="328,-10 328,-30 348,-30 348,-10 328,-10"/>
<text text-anchor="start" x="351.67" y="-15.4" font-family="Times-12" font-size="14.00"> &#160;Providers</text>
<polygon fill="#fb8072" stroke="transparent" points="424,-10 424,-30 444,-30 444,-10 424,-10"/>
<text text-anchor="start" x="447.73" y="-15.4" font-family="Times-12" font-size="14.00"> &#160;Exports</text>
<g id="clust1" class="cluster">
<title>cluster_QuestionnaireModule</title>
<polygon fill="none" stroke="black" stroke-dasharray="1,5" points="8,-70 8,-195 524,-195 524,-70 8,-70"/>
</g>
<g id="clust4" class="cluster">
<title>cluster_QuestionnaireModule_imports</title>
<polygon fill="none" stroke="black" points="200,-78 200,-130 516,-130 516,-78 200,-78"/>
</g>
<g id="clust2" class="cluster">
<title>cluster_QuestionnaireModule_declarations</title>
<polygon fill="none" stroke="black" points="16,-78 16,-130 192,-130 192,-78 16,-78"/>
</g>
<!-- QuestionnaireComponent -->
<g id="node1" class="node">
<title>QuestionnaireComponent</title>
<polygon fill="#ffffb3" stroke="black" points="183.86,-122 24.14,-122 24.14,-86 183.86,-86 183.86,-122"/>
<text text-anchor="middle" x="104" y="-99.8" font-family="Times,serif" font-size="14.00">QuestionnaireComponent</text>
</g>
<!-- QuestionnaireModule -->
<g id="node2" class="node">
<title>QuestionnaireModule</title>
<polygon fill="#8dd3c7" stroke="black" points="326.08,-187 323.08,-191 302.08,-191 299.08,-187 187.92,-187 187.92,-151 326.08,-151 326.08,-187"/>
<text text-anchor="middle" x="257" y="-164.8" font-family="Times,serif" font-size="14.00">QuestionnaireModule</text>
</g>
<!-- QuestionnaireComponent&#45;&gt;QuestionnaireModule -->
<g id="edge1" class="edge">
<title>QuestionnaireComponent&#45;&gt;QuestionnaireModule</title>
<path fill="none" stroke="black" d="M184.02,-104C192.37,-104 197.88,-104 197.88,-104 197.88,-104 197.88,-140.89 197.88,-140.89"/>
<polygon fill="black" stroke="black" points="194.38,-140.89 197.88,-150.89 201.38,-140.89 194.38,-140.89"/>
</g>
<!-- QuestionnaireRoutingModule -->
<g id="node3" class="node">
<title>QuestionnaireRoutingModule</title>
<polygon fill="#8dd3c7" stroke="black" points="507.7,-122 504.7,-126 483.7,-126 480.7,-122 324.3,-122 324.3,-86 507.7,-86 507.7,-122"/>
<text text-anchor="middle" x="416" y="-99.8" font-family="Times,serif" font-size="14.00">QuestionnaireRoutingModule</text>
</g>
<!-- QuestionnaireRoutingModule&#45;&gt;QuestionnaireModule -->
<g id="edge2" class="edge">
<title>QuestionnaireRoutingModule&#45;&gt;QuestionnaireModule</title>
<path fill="none" stroke="black" d="M324.24,-104C318.7,-104 315.31,-104 315.31,-104 315.31,-104 315.31,-140.89 315.31,-140.89"/>
<polygon fill="black" stroke="black" points="311.81,-140.89 315.31,-150.89 318.81,-140.89 311.81,-140.89"/>
</g>
<!-- SharedModule -->
<g id="node4" class="node">
<title>SharedModule</title>
<polygon fill="#8dd3c7" stroke="black" points="306.42,-122 303.42,-126 282.42,-126 279.42,-122 207.58,-122 207.58,-86 306.42,-86 306.42,-122"/>
<text text-anchor="middle" x="257" y="-99.8" font-family="Times,serif" font-size="14.00">SharedModule</text>
</g>
<!-- SharedModule&#45;&gt;QuestionnaireModule -->
<g id="edge3" class="edge">
<title>SharedModule&#45;&gt;QuestionnaireModule</title>
<path fill="none" stroke="black" d="M257,-122.11C257,-122.11 257,-140.99 257,-140.99"/>
<polygon fill="black" stroke="black" points="253.5,-140.99 257,-150.99 260.5,-140.99 253.5,-140.99"/>
</g>
</g>
</svg>
