<?xml version="1.0" encoding="UTF-8" standalone="no"?>
<!DOCTYPE svg PUBLIC "-//W3C//DTD SVG 1.1//EN"
 "http://www.w3.org/Graphics/SVG/1.1/DTD/svg11.dtd">
<!-- Generated by graphviz version 2.47.0 (20210316.0004)
 -->
<!-- Title: dependencies Pages: 1 -->
<svg width="1035pt" height="284pt"
 viewBox="0.00 0.00 1035.00 284.00" xmlns="http://www.w3.org/2000/svg" xmlns:xlink="http://www.w3.org/1999/xlink">
<g id="graph0" class="graph" transform="scale(1 1) rotate(0) translate(4 280)">
<title>dependencies</title>
<polygon fill="white" stroke="transparent" points="-4,4 -4,-280 1031,-280 1031,4 -4,4"/>
<text text-anchor="start" x="492.51" y="-42.4" font-family="Times-12" font-weight="bold" font-size="14.00">Legend</text>
<polygon fill="#ffffb3" stroke="transparent" points="279.5,-10 279.5,-30 299.5,-30 299.5,-10 279.5,-10"/>
<text text-anchor="start" x="303.13" y="-15.4" font-family="Times-12" font-size="14.00"> &#160;Declarations</text>
<polygon fill="#8dd3c7" stroke="transparent" points="392.5,-10 392.5,-30 412.5,-30 412.5,-10 392.5,-10"/>
<text text-anchor="start" x="416.23" y="-15.4" font-family="Times-12" font-size="14.00"> &#160;Module</text>
<polygon fill="#80b1d3" stroke="transparent" points="478.5,-10 478.5,-30 498.5,-30 498.5,-10 478.5,-10"/>
<text text-anchor="start" x="502.28" y="-15.4" font-family="Times-12" font-size="14.00"> &#160;Bootstrap</text>
<polygon fill="#fdb462" stroke="transparent" points="575.5,-10 575.5,-30 595.5,-30 595.5,-10 575.5,-10"/>
<text text-anchor="start" x="599.17" y="-15.4" font-family="Times-12" font-size="14.00"> &#160;Providers</text>
<polygon fill="#fb8072" stroke="transparent" points="671.5,-10 671.5,-30 691.5,-30 691.5,-10 671.5,-10"/>
<text text-anchor="start" x="695.23" y="-15.4" font-family="Times-12" font-size="14.00"> &#160;Exports</text>
<g id="clust1" class="cluster">
<title>cluster_HelpModule</title>
<polygon fill="none" stroke="black" stroke-dasharray="1,5" points="8,-70 8,-268 1019,-268 1019,-70 8,-70"/>
</g>
<g id="clust2" class="cluster">
<title>cluster_HelpModule_declarations</title>
<polygon fill="none" stroke="black" points="528,-78 528,-130 1011,-130 1011,-78 528,-78"/>
</g>
<g id="clust7" class="cluster">
<title>cluster_HelpModule_exports</title>
<polygon fill="none" stroke="black" points="179,-208 179,-260 673,-260 673,-208 179,-208"/>
</g>
<g id="clust6" class="cluster">
<title>cluster_HelpModule_imports</title>
<polygon fill="none" stroke="black" points="16,-78 16,-130 520,-130 520,-78 16,-78"/>
</g>
<!-- FaqComponent -->
<g id="node1" class="node">
<title>FaqComponent</title>
<polygon fill="#ffffb3" stroke="black" points="1003.33,-122 900.67,-122 900.67,-86 1003.33,-86 1003.33,-122"/>
<text text-anchor="middle" x="952" y="-99.8" font-family="Times,serif" font-size="14.00">FaqComponent</text>
</g>
<!-- HelpModule -->
<g id="node4" class="node">
<title>HelpModule</title>
<polygon fill="#8dd3c7" stroke="black" points="512.26,-187 509.26,-191 488.26,-191 485.26,-187 425.74,-187 425.74,-151 512.26,-151 512.26,-187"/>
<text text-anchor="middle" x="469" y="-164.8" font-family="Times,serif" font-size="14.00">HelpModule</text>
</g>
<!-- FaqComponent&#45;&gt;HelpModule -->
<g id="edge1" class="edge">
<title>FaqComponent&#45;&gt;HelpModule</title>
<path fill="none" stroke="black" d="M952,-122.13C952,-142.57 952,-173 952,-173 952,-173 522.29,-173 522.29,-173"/>
<polygon fill="black" stroke="black" points="522.29,-169.5 512.29,-173 522.29,-176.5 522.29,-169.5"/>
</g>
<!-- FaqReportComponent -->
<g id="node2" class="node">
<title>FaqReportComponent</title>
<polygon fill="#ffffb3" stroke="black" points="883.43,-122 742.57,-122 742.57,-86 883.43,-86 883.43,-122"/>
<text text-anchor="middle" x="813" y="-99.8" font-family="Times,serif" font-size="14.00">FaqReportComponent</text>
</g>
<!-- FaqReportComponent&#45;&gt;HelpModule -->
<g id="edge2" class="edge">
<title>FaqReportComponent&#45;&gt;HelpModule</title>
<path fill="none" stroke="black" d="M813,-122.27C813,-140.56 813,-166 813,-166 813,-166 522.57,-166 522.57,-166"/>
<polygon fill="black" stroke="black" points="522.57,-162.5 512.57,-166 522.57,-169.5 522.57,-162.5"/>
</g>
<!-- OfflineHelpVideosComponent -->
<g id="node3" class="node">
<title>OfflineHelpVideosComponent</title>
<polygon fill="#ffffb3" stroke="black" points="724.12,-122 535.88,-122 535.88,-86 724.12,-86 724.12,-122"/>
<text text-anchor="middle" x="630" y="-99.8" font-family="Times,serif" font-size="14.00">OfflineHelpVideosComponent</text>
</g>
<!-- OfflineHelpVideosComponent&#45;&gt;HelpModule -->
<g id="edge3" class="edge">
<title>OfflineHelpVideosComponent&#45;&gt;HelpModule</title>
<path fill="none" stroke="black" d="M550.03,-122.01C550.03,-138.05 550.03,-159 550.03,-159 550.03,-159 522.36,-159 522.36,-159"/>
<polygon fill="black" stroke="black" points="522.36,-155.5 512.36,-159 522.36,-162.5 522.36,-155.5"/>
</g>
<!-- FaqComponent  -->
<g id="node9" class="node">
<title>FaqComponent </title>
<polygon fill="#fb8072" stroke="black" points="664.83,-252 559.17,-252 559.17,-216 664.83,-216 664.83,-252"/>
<text text-anchor="middle" x="612" y="-229.8" font-family="Times,serif" font-size="14.00">FaqComponent </text>
</g>
<!-- HelpModule&#45;&gt;FaqComponent  -->
<g id="edge8" class="edge">
<title>HelpModule&#45;&gt;FaqComponent </title>
<path fill="none" stroke="black" stroke-dasharray="5,2" d="M512.29,-180C554.38,-180 612,-180 612,-180 612,-180 612,-205.72 612,-205.72"/>
<polygon fill="black" stroke="black" points="608.5,-205.72 612,-215.72 615.5,-205.72 608.5,-205.72"/>
</g>
<!-- FaqReportComponent  -->
<g id="node10" class="node">
<title>FaqReportComponent </title>
<polygon fill="#fb8072" stroke="black" points="540.93,-252 397.07,-252 397.07,-216 540.93,-216 540.93,-252"/>
<text text-anchor="middle" x="469" y="-229.8" font-family="Times,serif" font-size="14.00">FaqReportComponent </text>
</g>
<!-- HelpModule&#45;&gt;FaqReportComponent  -->
<g id="edge9" class="edge">
<title>HelpModule&#45;&gt;FaqReportComponent </title>
<path fill="none" stroke="black" stroke-dasharray="5,2" d="M469,-187.11C469,-187.11 469,-205.99 469,-205.99"/>
<polygon fill="black" stroke="black" points="465.5,-205.99 469,-215.99 472.5,-205.99 465.5,-205.99"/>
</g>
<!-- OfflineHelpVideosComponent  -->
<g id="node11" class="node">
<title>OfflineHelpVideosComponent </title>
<polygon fill="#fb8072" stroke="black" points="379.12,-252 186.88,-252 186.88,-216 379.12,-216 379.12,-252"/>
<text text-anchor="middle" x="283" y="-229.8" font-family="Times,serif" font-size="14.00">OfflineHelpVideosComponent </text>
</g>
<!-- HelpModule&#45;&gt;OfflineHelpVideosComponent  -->
<g id="edge10" class="edge">
<title>HelpModule&#45;&gt;OfflineHelpVideosComponent </title>
<path fill="none" stroke="black" stroke-dasharray="5,2" d="M425.41,-180C383.85,-180 327.56,-180 327.56,-180 327.56,-180 327.56,-205.72 327.56,-205.72"/>
<polygon fill="black" stroke="black" points="324.06,-205.72 327.56,-215.72 331.06,-205.72 324.06,-205.72"/>
</g>
<!-- CoreModule -->
<g id="node5" class="node">
<title>CoreModule</title>
<polygon fill="#8dd3c7" stroke="black" points="512.26,-122 509.26,-126 488.26,-126 485.26,-122 425.74,-122 425.74,-86 512.26,-86 512.26,-122"/>
<text text-anchor="middle" x="469" y="-99.8" font-family="Times,serif" font-size="14.00">CoreModule</text>
</g>
<!-- CoreModule&#45;&gt;HelpModule -->
<g id="edge4" class="edge">
<title>CoreModule&#45;&gt;HelpModule</title>
<path fill="none" stroke="black" d="M469,-122.11C469,-122.11 469,-140.99 469,-140.99"/>
<polygon fill="black" stroke="black" points="465.5,-140.99 469,-150.99 472.5,-140.99 465.5,-140.99"/>
</g>
<!-- HelpRoutingModule -->
<g id="node6" class="node">
<title>HelpRoutingModule</title>
<polygon fill="#8dd3c7" stroke="black" points="407.88,-122 404.88,-126 383.88,-126 380.88,-122 276.12,-122 276.12,-86 407.88,-86 407.88,-122"/>
<text text-anchor="middle" x="342" y="-99.8" font-family="Times,serif" font-size="14.00">HelpRoutingModule</text>
</g>
<!-- HelpRoutingModule&#45;&gt;HelpModule -->
<g id="edge5" class="edge">
<title>HelpRoutingModule&#45;&gt;HelpModule</title>
<path fill="none" stroke="black" d="M402.49,-122.01C402.49,-138.05 402.49,-159 402.49,-159 402.49,-159 415.38,-159 415.38,-159"/>
<polygon fill="black" stroke="black" points="415.38,-162.5 425.38,-159 415.38,-155.5 415.38,-162.5"/>
</g>
<!-- SharedModule -->
<g id="node7" class="node">
<title>SharedModule</title>
<polygon fill="#8dd3c7" stroke="black" points="258.42,-122 255.42,-126 234.42,-126 231.42,-122 159.58,-122 159.58,-86 258.42,-86 258.42,-122"/>
<text text-anchor="middle" x="209" y="-99.8" font-family="Times,serif" font-size="14.00">SharedModule</text>
</g>
<!-- SharedModule&#45;&gt;HelpModule -->
<g id="edge6" class="edge">
<title>SharedModule&#45;&gt;HelpModule</title>
<path fill="none" stroke="black" d="M222.57,-122.27C222.57,-140.56 222.57,-166 222.57,-166 222.57,-166 415.51,-166 415.51,-166"/>
<polygon fill="black" stroke="black" points="415.51,-169.5 425.51,-166 415.51,-162.5 415.51,-169.5"/>
</g>
<!-- TelemetryModule -->
<g id="node8" class="node">
<title>TelemetryModule</title>
<polygon fill="#8dd3c7" stroke="black" points="141.58,-122 138.58,-126 117.58,-126 114.58,-122 24.42,-122 24.42,-86 141.58,-86 141.58,-122"/>
<text text-anchor="middle" x="83" y="-99.8" font-family="Times,serif" font-size="14.00">TelemetryModule</text>
</g>
<!-- TelemetryModule&#45;&gt;HelpModule -->
<g id="edge7" class="edge">
<title>TelemetryModule&#45;&gt;HelpModule</title>
<path fill="none" stroke="black" d="M83,-122.13C83,-142.57 83,-173 83,-173 83,-173 415.47,-173 415.47,-173"/>
<polygon fill="black" stroke="black" points="415.47,-176.5 425.47,-173 415.47,-169.5 415.47,-176.5"/>
</g>
</g>
</svg>
