<?xml version="1.0" encoding="UTF-8" standalone="no"?>
<!DOCTYPE svg PUBLIC "-//W3C//DTD SVG 1.1//EN"
 "http://www.w3.org/Graphics/SVG/1.1/DTD/svg11.dtd">
<!-- Generated by graphviz version 2.47.0 (20210316.0004)
 -->
<!-- Title: dependencies Pages: 1 -->
<svg width="585pt" height="211pt"
 viewBox="0.00 0.00 585.00 211.00" xmlns="http://www.w3.org/2000/svg" xmlns:xlink="http://www.w3.org/1999/xlink">
<g id="graph0" class="graph" transform="scale(1 1) rotate(0) translate(4 207)">
<title>dependencies</title>
<polygon fill="white" stroke="transparent" points="-4,4 -4,-207 581,-207 581,4 -4,4"/>
<text text-anchor="start" x="267.51" y="-42.4" font-family="Times-12" font-weight="bold" font-size="14.00">Legend</text>
<polygon fill="#ffffb3" stroke="transparent" points="54.5,-10 54.5,-30 74.5,-30 74.5,-10 54.5,-10"/>
<text text-anchor="start" x="78.13" y="-15.4" font-family="Times-12" font-size="14.00"> &#160;Declarations</text>
<polygon fill="#8dd3c7" stroke="transparent" points="167.5,-10 167.5,-30 187.5,-30 187.5,-10 167.5,-10"/>
<text text-anchor="start" x="191.23" y="-15.4" font-family="Times-12" font-size="14.00"> &#160;Module</text>
<polygon fill="#80b1d3" stroke="transparent" points="253.5,-10 253.5,-30 273.5,-30 273.5,-10 253.5,-10"/>
<text text-anchor="start" x="277.28" y="-15.4" font-family="Times-12" font-size="14.00"> &#160;Bootstrap</text>
<polygon fill="#fdb462" stroke="transparent" points="350.5,-10 350.5,-30 370.5,-30 370.5,-10 350.5,-10"/>
<text text-anchor="start" x="374.17" y="-15.4" font-family="Times-12" font-size="14.00"> &#160;Providers</text>
<polygon fill="#fb8072" stroke="transparent" points="446.5,-10 446.5,-30 466.5,-30 466.5,-10 446.5,-10"/>
<text text-anchor="start" x="470.23" y="-15.4" font-family="Times-12" font-size="14.00"> &#160;Exports</text>
<g id="clust1" class="cluster">
<title>cluster_MergeAccountModule</title>
<polygon fill="none" stroke="black" stroke-dasharray="1,5" points="8,-70 8,-195 569,-195 569,-70 8,-70"/>
</g>
<g id="clust4" class="cluster">
<title>cluster_MergeAccountModule_imports</title>
<polygon fill="none" stroke="black" points="240,-78 240,-130 561,-130 561,-78 240,-78"/>
</g>
<g id="clust2" class="cluster">
<title>cluster_MergeAccountModule_declarations</title>
<polygon fill="none" stroke="black" points="16,-78 16,-130 232,-130 232,-78 16,-78"/>
</g>
<!-- MergeAccountStatusComponent -->
<g id="node1" class="node">
<title>MergeAccountStatusComponent</title>
<polygon fill="#ffffb3" stroke="black" points="223.52,-122 24.48,-122 24.48,-86 223.52,-86 223.52,-122"/>
<text text-anchor="middle" x="124" y="-99.8" font-family="Times,serif" font-size="14.00">MergeAccountStatusComponent</text>
</g>
<!-- MergeAccountModule -->
<g id="node2" class="node">
<title>MergeAccountModule</title>
<polygon fill="#8dd3c7" stroke="black" points="368.51,-187 365.51,-191 344.51,-191 341.51,-187 225.49,-187 225.49,-151 368.51,-151 368.51,-187"/>
<text text-anchor="middle" x="297" y="-164.8" font-family="Times,serif" font-size="14.00">MergeAccountModule</text>
</g>
<!-- MergeAccountStatusComponent&#45;&gt;MergeAccountModule -->
<g id="edge1" class="edge">
<title>MergeAccountStatusComponent&#45;&gt;MergeAccountModule</title>
<path fill="none" stroke="black" d="M223.61,-104C231.51,-104 236.52,-104 236.52,-104 236.52,-104 236.52,-140.89 236.52,-140.89"/>
<polygon fill="black" stroke="black" points="233.02,-140.89 236.52,-150.89 240.02,-140.89 233.02,-140.89"/>
</g>
<!-- MergeAccountRoutingModule -->
<g id="node3" class="node">
<title>MergeAccountRoutingModule</title>
<polygon fill="#8dd3c7" stroke="black" points="553.13,-122 550.13,-126 529.13,-126 526.13,-122 364.87,-122 364.87,-86 553.13,-86 553.13,-122"/>
<text text-anchor="middle" x="459" y="-99.8" font-family="Times,serif" font-size="14.00">MergeAccountRoutingModule</text>
</g>
<!-- MergeAccountRoutingModule&#45;&gt;MergeAccountModule -->
<g id="edge2" class="edge">
<title>MergeAccountRoutingModule&#45;&gt;MergeAccountModule</title>
<path fill="none" stroke="black" d="M364.64,-104C358.94,-104 355.45,-104 355.45,-104 355.45,-104 355.45,-140.89 355.45,-140.89"/>
<polygon fill="black" stroke="black" points="351.95,-140.89 355.45,-150.89 358.95,-140.89 351.95,-140.89"/>
</g>
<!-- SharedModule -->
<g id="node4" class="node">
<title>SharedModule</title>
<polygon fill="#8dd3c7" stroke="black" points="346.42,-122 343.42,-126 322.42,-126 319.42,-122 247.58,-122 247.58,-86 346.42,-86 346.42,-122"/>
<text text-anchor="middle" x="297" y="-99.8" font-family="Times,serif" font-size="14.00">SharedModule</text>
</g>
<!-- SharedModule&#45;&gt;MergeAccountModule -->
<g id="edge3" class="edge">
<title>SharedModule&#45;&gt;MergeAccountModule</title>
<path fill="none" stroke="black" d="M297,-122.11C297,-122.11 297,-140.99 297,-140.99"/>
<polygon fill="black" stroke="black" points="293.5,-140.99 297,-150.99 300.5,-140.99 293.5,-140.99"/>
</g>
</g>
</svg>
