<?xml version="1.0" encoding="UTF-8" standalone="no"?>
<!DOCTYPE svg PUBLIC "-//W3C//DTD SVG 1.1//EN"
 "http://www.w3.org/Graphics/SVG/1.1/DTD/svg11.dtd">
<!-- Generated by graphviz version 2.47.0 (20210316.0004)
 -->
<!-- Title: dependencies Pages: 1 -->
<svg width="2591pt" height="211pt"
 viewBox="0.00 0.00 2591.00 211.00" xmlns="http://www.w3.org/2000/svg" xmlns:xlink="http://www.w3.org/1999/xlink">
<g id="graph0" class="graph" transform="scale(1 1) rotate(0) translate(4 207)">
<title>dependencies</title>
<polygon fill="white" stroke="transparent" points="-4,4 -4,-207 2587,-207 2587,4 -4,4"/>
<text text-anchor="start" x="1270.51" y="-42.4" font-family="Times-12" font-weight="bold" font-size="14.00">Legend</text>
<polygon fill="#ffffb3" stroke="transparent" points="1057.5,-10 1057.5,-30 1077.5,-30 1077.5,-10 1057.5,-10"/>
<text text-anchor="start" x="1081.13" y="-15.4" font-family="Times-12" font-size="14.00"> &#160;Declarations</text>
<polygon fill="#8dd3c7" stroke="transparent" points="1170.5,-10 1170.5,-30 1190.5,-30 1190.5,-10 1170.5,-10"/>
<text text-anchor="start" x="1194.23" y="-15.4" font-family="Times-12" font-size="14.00"> &#160;Module</text>
<polygon fill="#80b1d3" stroke="transparent" points="1256.5,-10 1256.5,-30 1276.5,-30 1276.5,-10 1256.5,-10"/>
<text text-anchor="start" x="1280.28" y="-15.4" font-family="Times-12" font-size="14.00"> &#160;Bootstrap</text>
<polygon fill="#fdb462" stroke="transparent" points="1353.5,-10 1353.5,-30 1373.5,-30 1373.5,-10 1353.5,-10"/>
<text text-anchor="start" x="1377.17" y="-15.4" font-family="Times-12" font-size="14.00"> &#160;Providers</text>
<polygon fill="#fb8072" stroke="transparent" points="1449.5,-10 1449.5,-30 1469.5,-30 1469.5,-10 1449.5,-10"/>
<text text-anchor="start" x="1473.23" y="-15.4" font-family="Times-12" font-size="14.00"> &#160;Exports</text>
<g id="clust1" class="cluster">
<title>cluster_CourseModule</title>
<polygon fill="none" stroke="black" stroke-dasharray="1,5" points="8,-70 8,-195 2575,-195 2575,-70 8,-70"/>
</g>
<g id="clust10" class="cluster">
<title>cluster_CourseModule_providers</title>
<polygon fill="none" stroke="black" points="1895,-78 1895,-130 2567,-130 2567,-78 1895,-78"/>
</g>
<g id="clust2" class="cluster">
<title>cluster_CourseModule_declarations</title>
<polygon fill="none" stroke="black" points="1011,-78 1011,-130 1887,-130 1887,-78 1011,-78"/>
</g>
<g id="clust7" class="cluster">
<title>cluster_CourseModule_imports</title>
<polygon fill="none" stroke="black" points="16,-78 16,-130 1003,-130 1003,-78 16,-78"/>
</g>
<!-- ExploreCourseComponent -->
<g id="node1" class="node">
<title>ExploreCourseComponent</title>
<polygon fill="#ffffb3" stroke="black" points="1878.81,-122 1713.19,-122 1713.19,-86 1878.81,-86 1878.81,-122"/>
<text text-anchor="middle" x="1796" y="-99.8" font-family="Times,serif" font-size="14.00">ExploreCourseComponent</text>
</g>
<!-- CourseModule -->
<g id="node5" class="node">
<title>CourseModule</title>
<polygon fill="#8dd3c7" stroke="black" points="1068.71,-187 1065.71,-191 1044.71,-191 1041.71,-187 969.29,-187 969.29,-151 1068.71,-151 1068.71,-187"/>
<text text-anchor="middle" x="1019" y="-164.8" font-family="Times,serif" font-size="14.00">CourseModule</text>
</g>
<!-- ExploreCourseComponent&#45;&gt;CourseModule -->
<g id="edge1" class="edge">
<title>ExploreCourseComponent&#45;&gt;CourseModule</title>
<path fill="none" stroke="black" d="M1796,-122.22C1796,-140.83 1796,-167 1796,-167 1796,-167 1078.79,-167 1078.79,-167"/>
<polygon fill="black" stroke="black" points="1078.79,-163.5 1068.79,-167 1078.79,-170.5 1078.79,-163.5"/>
</g>
<!-- PublicBatchDetailsComponent -->
<g id="node2" class="node">
<title>PublicBatchDetailsComponent</title>
<polygon fill="#ffffb3" stroke="black" points="1695.92,-122 1506.08,-122 1506.08,-86 1695.92,-86 1695.92,-122"/>
<text text-anchor="middle" x="1601" y="-99.8" font-family="Times,serif" font-size="14.00">PublicBatchDetailsComponent</text>
</g>
<!-- PublicBatchDetailsComponent&#45;&gt;CourseModule -->
<g id="edge2" class="edge">
<title>PublicBatchDetailsComponent&#45;&gt;CourseModule</title>
<path fill="none" stroke="black" d="M1601,-122.03C1601,-139.06 1601,-162 1601,-162 1601,-162 1078.62,-162 1078.62,-162"/>
<polygon fill="black" stroke="black" points="1078.62,-158.5 1068.62,-162 1078.62,-165.5 1078.62,-158.5"/>
</g>
<!-- PublicCourseConsumptionPageComponent -->
<g id="node3" class="node">
<title>PublicCourseConsumptionPageComponent</title>
<polygon fill="#ffffb3" stroke="black" points="1488.93,-122 1229.07,-122 1229.07,-86 1488.93,-86 1488.93,-122"/>
<text text-anchor="middle" x="1359" y="-99.8" font-family="Times,serif" font-size="14.00">PublicCourseConsumptionPageComponent</text>
</g>
<!-- PublicCourseConsumptionPageComponent&#45;&gt;CourseModule -->
<g id="edge3" class="edge">
<title>PublicCourseConsumptionPageComponent&#45;&gt;CourseModule</title>
<path fill="none" stroke="black" d="M1359,-122.24C1359,-137.57 1359,-157 1359,-157 1359,-157 1078.8,-157 1078.8,-157"/>
<polygon fill="black" stroke="black" points="1078.8,-153.5 1068.8,-157 1078.8,-160.5 1078.8,-153.5"/>
</g>
<!-- PublicCoursePlayerComponent -->
<g id="node4" class="node">
<title>PublicCoursePlayerComponent</title>
<polygon fill="#ffffb3" stroke="black" points="1211.03,-122 1018.97,-122 1018.97,-86 1211.03,-86 1211.03,-122"/>
<text text-anchor="middle" x="1115" y="-99.8" font-family="Times,serif" font-size="14.00">PublicCoursePlayerComponent</text>
</g>
<!-- PublicCoursePlayerComponent&#45;&gt;CourseModule -->
<g id="edge4" class="edge">
<title>PublicCoursePlayerComponent&#45;&gt;CourseModule</title>
<path fill="none" stroke="black" d="M1043.67,-122.11C1043.67,-122.11 1043.67,-140.99 1043.67,-140.99"/>
<polygon fill="black" stroke="black" points="1040.17,-140.99 1043.67,-150.99 1047.17,-140.99 1040.17,-140.99"/>
</g>
<!-- ContentSearchModule -->
<g id="node6" class="node">
<title>ContentSearchModule</title>
<polygon fill="#8dd3c7" stroke="black" points="994.97,-122 991.97,-126 970.97,-126 967.97,-122 853.03,-122 853.03,-86 994.97,-86 994.97,-122"/>
<text text-anchor="middle" x="924" y="-99.8" font-family="Times,serif" font-size="14.00">ContentSearchModule</text>
</g>
<!-- ContentSearchModule&#45;&gt;CourseModule -->
<g id="edge5" class="edge">
<title>ContentSearchModule&#45;&gt;CourseModule</title>
<path fill="none" stroke="black" d="M982.19,-122.11C982.19,-122.11 982.19,-140.99 982.19,-140.99"/>
<polygon fill="black" stroke="black" points="978.69,-140.99 982.19,-150.99 985.69,-140.99 978.69,-140.99"/>
</g>
<!-- CoreModule -->
<g id="node7" class="node">
<title>CoreModule</title>
<polygon fill="#8dd3c7" stroke="black" points="835.26,-122 832.26,-126 811.26,-126 808.26,-122 748.74,-122 748.74,-86 835.26,-86 835.26,-122"/>
<text text-anchor="middle" x="792" y="-99.8" font-family="Times,serif" font-size="14.00">CoreModule</text>
</g>
<!-- CoreModule&#45;&gt;CourseModule -->
<g id="edge6" class="edge">
<title>CoreModule&#45;&gt;CourseModule</title>
<path fill="none" stroke="black" d="M792,-122.24C792,-137.57 792,-157 792,-157 792,-157 959.18,-157 959.18,-157"/>
<polygon fill="black" stroke="black" points="959.18,-160.5 969.18,-157 959.18,-153.5 959.18,-160.5"/>
</g>
<!-- CourseRoutingModule -->
<g id="node8" class="node">
<title>CourseRoutingModule</title>
<polygon fill="#8dd3c7" stroke="black" points="730.32,-122 727.32,-126 706.32,-126 703.32,-122 585.68,-122 585.68,-86 730.32,-86 730.32,-122"/>
<text text-anchor="middle" x="658" y="-99.8" font-family="Times,serif" font-size="14.00">CourseRoutingModule</text>
</g>
<!-- CourseRoutingModule&#45;&gt;CourseModule -->
<g id="edge7" class="edge">
<title>CourseRoutingModule&#45;&gt;CourseModule</title>
<path fill="none" stroke="black" d="M658,-122.03C658,-139.06 658,-162 658,-162 658,-162 959.18,-162 959.18,-162"/>
<polygon fill="black" stroke="black" points="959.18,-165.5 969.18,-162 959.18,-158.5 959.18,-165.5"/>
</g>
<!-- PlayerHelperModule -->
<g id="node9" class="node">
<title>PlayerHelperModule</title>
<polygon fill="#8dd3c7" stroke="black" points="567.9,-122 564.9,-126 543.9,-126 540.9,-122 434.1,-122 434.1,-86 567.9,-86 567.9,-122"/>
<text text-anchor="middle" x="501" y="-99.8" font-family="Times,serif" font-size="14.00">PlayerHelperModule</text>
</g>
<!-- PlayerHelperModule&#45;&gt;CourseModule -->
<g id="edge8" class="edge">
<title>PlayerHelperModule&#45;&gt;CourseModule</title>
<path fill="none" stroke="black" d="M501,-122.22C501,-140.83 501,-167 501,-167 501,-167 959.33,-167 959.33,-167"/>
<polygon fill="black" stroke="black" points="959.33,-170.5 969.33,-167 959.33,-163.5 959.33,-170.5"/>
</g>
<!-- SharedFeatureModule -->
<g id="node10" class="node">
<title>SharedFeatureModule</title>
<polygon fill="#8dd3c7" stroke="black" points="416.4,-122 413.4,-126 392.4,-126 389.4,-122 275.6,-122 275.6,-86 416.4,-86 416.4,-122"/>
<text text-anchor="middle" x="346" y="-99.8" font-family="Times,serif" font-size="14.00">SharedFeatureModule</text>
</g>
<!-- SharedFeatureModule&#45;&gt;CourseModule -->
<g id="edge9" class="edge">
<title>SharedFeatureModule&#45;&gt;CourseModule</title>
<path fill="none" stroke="black" d="M346,-122.22C346,-142.37 346,-172 346,-172 346,-172 959.24,-172 959.24,-172"/>
<polygon fill="black" stroke="black" points="959.24,-175.5 969.24,-172 959.24,-168.5 959.24,-175.5"/>
</g>
<!-- SharedModule -->
<g id="node11" class="node">
<title>SharedModule</title>
<polygon fill="#8dd3c7" stroke="black" points="258.42,-122 255.42,-126 234.42,-126 231.42,-122 159.58,-122 159.58,-86 258.42,-86 258.42,-122"/>
<text text-anchor="middle" x="209" y="-99.8" font-family="Times,serif" font-size="14.00">SharedModule</text>
</g>
<!-- SharedModule&#45;&gt;CourseModule -->
<g id="edge10" class="edge">
<title>SharedModule&#45;&gt;CourseModule</title>
<path fill="none" stroke="black" d="M209,-122.04C209,-143.66 209,-177 209,-177 209,-177 959.25,-177 959.25,-177"/>
<polygon fill="black" stroke="black" points="959.25,-180.5 969.25,-177 959.25,-173.5 959.25,-180.5"/>
</g>
<!-- TelemetryModule -->
<g id="node12" class="node">
<title>TelemetryModule</title>
<polygon fill="#8dd3c7" stroke="black" points="141.58,-122 138.58,-126 117.58,-126 114.58,-122 24.42,-122 24.42,-86 141.58,-86 141.58,-122"/>
<text text-anchor="middle" x="83" y="-99.8" font-family="Times,serif" font-size="14.00">TelemetryModule</text>
</g>
<!-- TelemetryModule&#45;&gt;CourseModule -->
<g id="edge11" class="edge">
<title>TelemetryModule&#45;&gt;CourseModule</title>
<path fill="none" stroke="black" d="M83,-122.09C83,-145.13 83,-182 83,-182 83,-182 959.34,-182 959.34,-182"/>
<polygon fill="black" stroke="black" points="959.34,-185.5 969.34,-182 959.34,-178.5 959.34,-185.5"/>
</g>
<!-- CourseBatchService -->
<g id="node13" class="node">
<title>CourseBatchService</title>
<ellipse fill="#fdb462" stroke="black" cx="2469" cy="-104" rx="89.74" ry="18"/>
<text text-anchor="middle" x="2469" y="-99.8" font-family="Times,serif" font-size="14.00">CourseBatchService</text>
</g>
<!-- CourseBatchService&#45;&gt;CourseModule -->
<g id="edge12" class="edge">
<title>CourseBatchService&#45;&gt;CourseModule</title>
<path fill="none" stroke="black" d="M2469,-122.09C2469,-145.13 2469,-182 2469,-182 2469,-182 1078.91,-182 1078.91,-182"/>
<polygon fill="black" stroke="black" points="1078.91,-178.5 1068.91,-182 1078.91,-185.5 1078.91,-178.5"/>
</g>
<!-- CourseConsumptionService -->
<g id="node14" class="node">
<title>CourseConsumptionService</title>
<ellipse fill="#fdb462" stroke="black" cx="2242" cy="-104" rx="119.28" ry="18"/>
<text text-anchor="middle" x="2242" y="-99.8" font-family="Times,serif" font-size="14.00">CourseConsumptionService</text>
</g>
<!-- CourseConsumptionService&#45;&gt;CourseModule -->
<g id="edge13" class="edge">
<title>CourseConsumptionService&#45;&gt;CourseModule</title>
<path fill="none" stroke="black" d="M2242,-122.04C2242,-143.66 2242,-177 2242,-177 2242,-177 1078.84,-177 1078.84,-177"/>
<polygon fill="black" stroke="black" points="1078.84,-173.5 1068.84,-177 1078.84,-180.5 1078.84,-173.5"/>
</g>
<!-- CourseProgressService -->
<g id="node15" class="node">
<title>CourseProgressService</title>
<ellipse fill="#fdb462" stroke="black" cx="2004" cy="-104" rx="100.7" ry="18"/>
<text text-anchor="middle" x="2004" y="-99.8" font-family="Times,serif" font-size="14.00">CourseProgressService</text>
</g>
<!-- CourseProgressService&#45;&gt;CourseModule -->
<g id="edge14" class="edge">
<title>CourseProgressService&#45;&gt;CourseModule</title>
<path fill="none" stroke="black" d="M2004,-122.22C2004,-142.37 2004,-172 2004,-172 2004,-172 1078.86,-172 1078.86,-172"/>
<polygon fill="black" stroke="black" points="1078.86,-168.5 1068.86,-172 1078.86,-175.5 1078.86,-168.5"/>
</g>
</g>
</svg>
