<?xml version="1.0" encoding="UTF-8" standalone="no"?>
<!DOCTYPE svg PUBLIC "-//W3C//DTD SVG 1.1//EN"
 "http://www.w3.org/Graphics/SVG/1.1/DTD/svg11.dtd">
<!-- Generated by graphviz version 2.47.0 (20210316.0004)
 -->
<!-- Title: dependencies Pages: 1 -->
<svg width="504pt" height="211pt"
 viewBox="0.00 0.00 504.00 211.00" xmlns="http://www.w3.org/2000/svg" xmlns:xlink="http://www.w3.org/1999/xlink">
<g id="graph0" class="graph" transform="scale(1 1) rotate(0) translate(4 207)">
<title>dependencies</title>
<polygon fill="white" stroke="transparent" points="-4,4 -4,-207 500,-207 500,4 -4,4"/>
<text text-anchor="start" x="227.01" y="-42.4" font-family="Times-12" font-weight="bold" font-size="14.00">Legend</text>
<polygon fill="#ffffb3" stroke="transparent" points="14,-10 14,-30 34,-30 34,-10 14,-10"/>
<text text-anchor="start" x="37.63" y="-15.4" font-family="Times-12" font-size="14.00"> &#160;Declarations</text>
<polygon fill="#8dd3c7" stroke="transparent" points="127,-10 127,-30 147,-30 147,-10 127,-10"/>
<text text-anchor="start" x="150.73" y="-15.4" font-family="Times-12" font-size="14.00"> &#160;Module</text>
<polygon fill="#80b1d3" stroke="transparent" points="213,-10 213,-30 233,-30 233,-10 213,-10"/>
<text text-anchor="start" x="236.78" y="-15.4" font-family="Times-12" font-size="14.00"> &#160;Bootstrap</text>
<polygon fill="#fdb462" stroke="transparent" points="310,-10 310,-30 330,-30 330,-10 310,-10"/>
<text text-anchor="start" x="333.67" y="-15.4" font-family="Times-12" font-size="14.00"> &#160;Providers</text>
<polygon fill="#fb8072" stroke="transparent" points="406,-10 406,-30 426,-30 426,-10 406,-10"/>
<text text-anchor="start" x="429.73" y="-15.4" font-family="Times-12" font-size="14.00"> &#160;Exports</text>
<g id="clust1" class="cluster">
<title>cluster_RelevantContentsPageModule</title>
<polygon fill="none" stroke="black" stroke-dasharray="1,5" points="90,-70 90,-195 406,-195 406,-70 90,-70"/>
</g>
<g id="clust2" class="cluster">
<title>cluster_RelevantContentsPageModule_declarations</title>
<polygon fill="none" stroke="black" points="240,-78 240,-130 398,-130 398,-78 240,-78"/>
</g>
<g id="clust4" class="cluster">
<title>cluster_RelevantContentsPageModule_imports</title>
<polygon fill="none" stroke="black" points="98,-78 98,-130 232,-130 232,-78 98,-78"/>
</g>
<!-- RelevantContentsPage -->
<g id="node1" class="node">
<title>RelevantContentsPage</title>
<polygon fill="#ffffb3" stroke="black" points="390.25,-122 247.75,-122 247.75,-86 390.25,-86 390.25,-122"/>
<text text-anchor="middle" x="319" y="-99.8" font-family="Times,serif" font-size="14.00">RelevantContentsPage</text>
</g>
<!-- RelevantContentsPageModule -->
<g id="node2" class="node">
<title>RelevantContentsPageModule</title>
<polygon fill="#8dd3c7" stroke="black" points="341.3,-187 338.3,-191 317.3,-191 314.3,-187 154.7,-187 154.7,-151 341.3,-151 341.3,-187"/>
<text text-anchor="middle" x="248" y="-164.8" font-family="Times,serif" font-size="14.00">RelevantContentsPageModule</text>
</g>
<!-- RelevantContentsPage&#45;&gt;RelevantContentsPageModule -->
<g id="edge1" class="edge">
<title>RelevantContentsPage&#45;&gt;RelevantContentsPageModule</title>
<path fill="none" stroke="black" d="M294.39,-122.11C294.39,-122.11 294.39,-140.99 294.39,-140.99"/>
<polygon fill="black" stroke="black" points="290.89,-140.99 294.39,-150.99 297.89,-140.99 290.89,-140.99"/>
</g>
<!-- DirectivesModule -->
<g id="node3" class="node">
<title>DirectivesModule</title>
<polygon fill="#8dd3c7" stroke="black" points="223.58,-122 220.58,-126 199.58,-126 196.58,-122 106.42,-122 106.42,-86 223.58,-86 223.58,-122"/>
<text text-anchor="middle" x="165" y="-99.8" font-family="Times,serif" font-size="14.00">DirectivesModule</text>
</g>
<!-- DirectivesModule&#45;&gt;RelevantContentsPageModule -->
<g id="edge2" class="edge">
<title>DirectivesModule&#45;&gt;RelevantContentsPageModule</title>
<path fill="none" stroke="black" d="M189.19,-122.11C189.19,-122.11 189.19,-140.99 189.19,-140.99"/>
<polygon fill="black" stroke="black" points="185.69,-140.99 189.19,-150.99 192.69,-140.99 185.69,-140.99"/>
</g>
</g>
</svg>
