<?xml version="1.0" encoding="UTF-8" standalone="no"?>
<!DOCTYPE svg PUBLIC "-//W3C//DTD SVG 1.1//EN"
 "http://www.w3.org/Graphics/SVG/1.1/DTD/svg11.dtd">
<!-- Generated by graphviz version 2.47.0 (20210316.0004)
 -->
<!-- Title: dependencies Pages: 1 -->
<svg width="648pt" height="284pt"
 viewBox="0.00 0.00 648.00 284.00" xmlns="http://www.w3.org/2000/svg" xmlns:xlink="http://www.w3.org/1999/xlink">
<g id="graph0" class="graph" transform="scale(1 1) rotate(0) translate(4 280)">
<title>dependencies</title>
<polygon fill="white" stroke="transparent" points="-4,4 -4,-280 644,-280 644,4 -4,4"/>
<text text-anchor="start" x="299.01" y="-42.4" font-family="Times-12" font-weight="bold" font-size="14.00">Legend</text>
<polygon fill="#ffffb3" stroke="transparent" points="86,-10 86,-30 106,-30 106,-10 86,-10"/>
<text text-anchor="start" x="109.63" y="-15.4" font-family="Times-12" font-size="14.00"> &#160;Declarations</text>
<polygon fill="#8dd3c7" stroke="transparent" points="199,-10 199,-30 219,-30 219,-10 199,-10"/>
<text text-anchor="start" x="222.73" y="-15.4" font-family="Times-12" font-size="14.00"> &#160;Module</text>
<polygon fill="#80b1d3" stroke="transparent" points="285,-10 285,-30 305,-30 305,-10 285,-10"/>
<text text-anchor="start" x="308.78" y="-15.4" font-family="Times-12" font-size="14.00"> &#160;Bootstrap</text>
<polygon fill="#fdb462" stroke="transparent" points="382,-10 382,-30 402,-30 402,-10 382,-10"/>
<text text-anchor="start" x="405.67" y="-15.4" font-family="Times-12" font-size="14.00"> &#160;Providers</text>
<polygon fill="#fb8072" stroke="transparent" points="478,-10 478,-30 498,-30 498,-10 478,-10"/>
<text text-anchor="start" x="501.73" y="-15.4" font-family="Times-12" font-size="14.00"> &#160;Exports</text>
<g id="clust1" class="cluster">
<title>cluster_UserOnboardingModule</title>
<polygon fill="none" stroke="black" stroke-dasharray="1,5" points="8,-70 8,-268 632,-268 632,-70 8,-70"/>
</g>
<g id="clust5" class="cluster">
<title>cluster_UserOnboardingModule_exports</title>
<polygon fill="none" stroke="black" points="179,-208 179,-260 383,-260 383,-208 179,-208"/>
</g>
<g id="clust2" class="cluster">
<title>cluster_UserOnboardingModule_declarations</title>
<polygon fill="none" stroke="black" points="424,-78 424,-130 624,-130 624,-78 424,-78"/>
</g>
<g id="clust4" class="cluster">
<title>cluster_UserOnboardingModule_imports</title>
<polygon fill="none" stroke="black" points="16,-78 16,-130 416,-130 416,-78 16,-78"/>
</g>
<!-- OnboardingPopupComponent -->
<g id="node1" class="node">
<title>OnboardingPopupComponent</title>
<polygon fill="#ffffb3" stroke="black" points="615.99,-122 432.01,-122 432.01,-86 615.99,-86 615.99,-122"/>
<text text-anchor="middle" x="524" y="-99.8" font-family="Times,serif" font-size="14.00">OnboardingPopupComponent</text>
</g>
<!-- UserOnboardingModule -->
<g id="node2" class="node">
<title>UserOnboardingModule</title>
<polygon fill="#8dd3c7" stroke="black" points="357.35,-187 354.35,-191 333.35,-191 330.35,-187 204.65,-187 204.65,-151 357.35,-151 357.35,-187"/>
<text text-anchor="middle" x="281" y="-164.8" font-family="Times,serif" font-size="14.00">UserOnboardingModule</text>
</g>
<!-- OnboardingPopupComponent&#45;&gt;UserOnboardingModule -->
<g id="edge1" class="edge">
<title>OnboardingPopupComponent&#45;&gt;UserOnboardingModule</title>
<path fill="none" stroke="black" d="M524,-122.11C524,-141.34 524,-169 524,-169 524,-169 367.55,-169 367.55,-169"/>
<polygon fill="black" stroke="black" points="367.55,-165.5 357.55,-169 367.55,-172.5 367.55,-165.5"/>
</g>
<!-- OnboardingPopupComponent  -->
<g id="node6" class="node">
<title>OnboardingPopupComponent </title>
<polygon fill="#fb8072" stroke="black" points="374.99,-252 187.01,-252 187.01,-216 374.99,-216 374.99,-252"/>
<text text-anchor="middle" x="281" y="-229.8" font-family="Times,serif" font-size="14.00">OnboardingPopupComponent </text>
</g>
<!-- UserOnboardingModule&#45;&gt;OnboardingPopupComponent  -->
<g id="edge5" class="edge">
<title>UserOnboardingModule&#45;&gt;OnboardingPopupComponent </title>
<path fill="none" stroke="black" stroke-dasharray="5,2" d="M281,-187.11C281,-187.11 281,-205.99 281,-205.99"/>
<polygon fill="black" stroke="black" points="277.5,-205.99 281,-215.99 284.5,-205.99 277.5,-205.99"/>
</g>
<!-- LocationModule -->
<g id="node3" class="node">
<title>LocationModule</title>
<polygon fill="#8dd3c7" stroke="black" points="407.81,-122 404.81,-126 383.81,-126 380.81,-122 298.19,-122 298.19,-86 407.81,-86 407.81,-122"/>
<text text-anchor="middle" x="353" y="-99.8" font-family="Times,serif" font-size="14.00">LocationModule</text>
</g>
<!-- LocationModule&#45;&gt;UserOnboardingModule -->
<g id="edge2" class="edge">
<title>LocationModule&#45;&gt;UserOnboardingModule</title>
<path fill="none" stroke="black" d="M327.88,-122.11C327.88,-122.11 327.88,-140.99 327.88,-140.99"/>
<polygon fill="black" stroke="black" points="324.38,-140.99 327.88,-150.99 331.38,-140.99 324.38,-140.99"/>
</g>
<!-- SharedFeatureModule -->
<g id="node4" class="node">
<title>SharedFeatureModule</title>
<polygon fill="#8dd3c7" stroke="black" points="280.4,-122 277.4,-126 256.4,-126 253.4,-122 139.6,-122 139.6,-86 280.4,-86 280.4,-122"/>
<text text-anchor="middle" x="210" y="-99.8" font-family="Times,serif" font-size="14.00">SharedFeatureModule</text>
</g>
<!-- SharedFeatureModule&#45;&gt;UserOnboardingModule -->
<g id="edge3" class="edge">
<title>SharedFeatureModule&#45;&gt;UserOnboardingModule</title>
<path fill="none" stroke="black" d="M242.39,-122.11C242.39,-122.11 242.39,-140.99 242.39,-140.99"/>
<polygon fill="black" stroke="black" points="238.89,-140.99 242.39,-150.99 245.89,-140.99 238.89,-140.99"/>
</g>
<!-- SharedModule -->
<g id="node5" class="node">
<title>SharedModule</title>
<polygon fill="#8dd3c7" stroke="black" points="122.42,-122 119.42,-126 98.42,-126 95.42,-122 23.58,-122 23.58,-86 122.42,-86 122.42,-122"/>
<text text-anchor="middle" x="73" y="-99.8" font-family="Times,serif" font-size="14.00">SharedModule</text>
</g>
<!-- SharedModule&#45;&gt;UserOnboardingModule -->
<g id="edge4" class="edge">
<title>SharedModule&#45;&gt;UserOnboardingModule</title>
<path fill="none" stroke="black" d="M73,-122.11C73,-141.34 73,-169 73,-169 73,-169 194.43,-169 194.43,-169"/>
<polygon fill="black" stroke="black" points="194.43,-172.5 204.43,-169 194.43,-165.5 194.43,-172.5"/>
</g>
</g>
</svg>
