<?xml version="1.0" encoding="UTF-8" standalone="no"?>
<!DOCTYPE svg PUBLIC "-//W3C//DTD SVG 1.1//EN"
 "http://www.w3.org/Graphics/SVG/1.1/DTD/svg11.dtd">
<!-- Generated by graphviz version 2.47.0 (20210316.0004)
 -->
<!-- Title: dependencies Pages: 1 -->
<svg width="2296pt" height="211pt"
 viewBox="0.00 0.00 2296.00 211.00" xmlns="http://www.w3.org/2000/svg" xmlns:xlink="http://www.w3.org/1999/xlink">
<g id="graph0" class="graph" transform="scale(1 1) rotate(0) translate(4 207)">
<title>dependencies</title>
<polygon fill="white" stroke="transparent" points="-4,4 -4,-207 2292,-207 2292,4 -4,4"/>
<text text-anchor="start" x="1123.01" y="-42.4" font-family="Times-12" font-weight="bold" font-size="14.00">Legend</text>
<polygon fill="#ffffb3" stroke="transparent" points="910,-10 910,-30 930,-30 930,-10 910,-10"/>
<text text-anchor="start" x="933.63" y="-15.4" font-family="Times-12" font-size="14.00"> &#160;Declarations</text>
<polygon fill="#8dd3c7" stroke="transparent" points="1023,-10 1023,-30 1043,-30 1043,-10 1023,-10"/>
<text text-anchor="start" x="1046.73" y="-15.4" font-family="Times-12" font-size="14.00"> &#160;Module</text>
<polygon fill="#80b1d3" stroke="transparent" points="1109,-10 1109,-30 1129,-30 1129,-10 1109,-10"/>
<text text-anchor="start" x="1132.78" y="-15.4" font-family="Times-12" font-size="14.00"> &#160;Bootstrap</text>
<polygon fill="#fdb462" stroke="transparent" points="1206,-10 1206,-30 1226,-30 1226,-10 1206,-10"/>
<text text-anchor="start" x="1229.67" y="-15.4" font-family="Times-12" font-size="14.00"> &#160;Providers</text>
<polygon fill="#fb8072" stroke="transparent" points="1302,-10 1302,-30 1322,-30 1322,-10 1302,-10"/>
<text text-anchor="start" x="1325.73" y="-15.4" font-family="Times-12" font-size="14.00"> &#160;Exports</text>
<g id="clust1" class="cluster">
<title>cluster_OrgManagementModule</title>
<polygon fill="none" stroke="black" stroke-dasharray="1,5" points="8,-70 8,-195 2280,-195 2280,-70 8,-70"/>
</g>
<g id="clust10" class="cluster">
<title>cluster_OrgManagementModule_providers</title>
<polygon fill="none" stroke="black" points="1316,-78 1316,-130 2272,-130 2272,-78 1316,-78"/>
</g>
<g id="clust7" class="cluster">
<title>cluster_OrgManagementModule_imports</title>
<polygon fill="none" stroke="black" points="736,-78 736,-130 1308,-130 1308,-78 736,-78"/>
</g>
<g id="clust2" class="cluster">
<title>cluster_OrgManagementModule_declarations</title>
<polygon fill="none" stroke="black" points="16,-78 16,-130 728,-130 728,-78 16,-78"/>
</g>
<!-- CreateOrgTypeComponent -->
<g id="node1" class="node">
<title>CreateOrgTypeComponent</title>
<polygon fill="#ffffb3" stroke="black" points="720.4,-122 551.6,-122 551.6,-86 720.4,-86 720.4,-122"/>
<text text-anchor="middle" x="636" y="-99.8" font-family="Times,serif" font-size="14.00">CreateOrgTypeComponent</text>
</g>
<!-- OrgManagementModule -->
<g id="node5" class="node">
<title>OrgManagementModule</title>
<polygon fill="#8dd3c7" stroke="black" points="1173.4,-187 1170.4,-191 1149.4,-191 1146.4,-187 1018.6,-187 1018.6,-151 1173.4,-151 1173.4,-187"/>
<text text-anchor="middle" x="1096" y="-164.8" font-family="Times,serif" font-size="14.00">OrgManagementModule</text>
</g>
<!-- CreateOrgTypeComponent&#45;&gt;OrgManagementModule -->
<g id="edge1" class="edge">
<title>CreateOrgTypeComponent&#45;&gt;OrgManagementModule</title>
<path fill="none" stroke="black" d="M636,-122.22C636,-140.83 636,-167 636,-167 636,-167 1008.75,-167 1008.75,-167"/>
<polygon fill="black" stroke="black" points="1008.75,-170.5 1018.75,-167 1008.75,-163.5 1008.75,-170.5"/>
</g>
<!-- OrganizationUploadComponent -->
<g id="node2" class="node">
<title>OrganizationUploadComponent</title>
<polygon fill="#ffffb3" stroke="black" points="533.63,-122 338.37,-122 338.37,-86 533.63,-86 533.63,-122"/>
<text text-anchor="middle" x="436" y="-99.8" font-family="Times,serif" font-size="14.00">OrganizationUploadComponent</text>
</g>
<!-- OrganizationUploadComponent&#45;&gt;OrgManagementModule -->
<g id="edge2" class="edge">
<title>OrganizationUploadComponent&#45;&gt;OrgManagementModule</title>
<path fill="none" stroke="black" d="M436,-122.22C436,-142.37 436,-172 436,-172 436,-172 1008.67,-172 1008.67,-172"/>
<polygon fill="black" stroke="black" points="1008.67,-175.5 1018.67,-172 1008.67,-168.5 1008.67,-175.5"/>
</g>
<!-- StatusComponent -->
<g id="node3" class="node">
<title>StatusComponent</title>
<polygon fill="#ffffb3" stroke="black" points="319.56,-122 204.44,-122 204.44,-86 319.56,-86 319.56,-122"/>
<text text-anchor="middle" x="262" y="-99.8" font-family="Times,serif" font-size="14.00">StatusComponent</text>
</g>
<!-- StatusComponent&#45;&gt;OrgManagementModule -->
<g id="edge3" class="edge">
<title>StatusComponent&#45;&gt;OrgManagementModule</title>
<path fill="none" stroke="black" d="M262,-122.04C262,-143.66 262,-177 262,-177 262,-177 1008.66,-177 1008.66,-177"/>
<polygon fill="black" stroke="black" points="1008.66,-180.5 1018.66,-177 1008.66,-173.5 1008.66,-180.5"/>
</g>
<!-- ViewOrgTypeComponent -->
<g id="node4" class="node">
<title>ViewOrgTypeComponent</title>
<polygon fill="#ffffb3" stroke="black" points="186.19,-122 23.81,-122 23.81,-86 186.19,-86 186.19,-122"/>
<text text-anchor="middle" x="105" y="-99.8" font-family="Times,serif" font-size="14.00">ViewOrgTypeComponent</text>
</g>
<!-- ViewOrgTypeComponent&#45;&gt;OrgManagementModule -->
<g id="edge4" class="edge">
<title>ViewOrgTypeComponent&#45;&gt;OrgManagementModule</title>
<path fill="none" stroke="black" d="M105,-122.09C105,-145.13 105,-182 105,-182 105,-182 1008.65,-182 1008.65,-182"/>
<polygon fill="black" stroke="black" points="1008.65,-185.5 1018.65,-182 1008.65,-178.5 1008.65,-185.5"/>
</g>
<!-- CoreModule -->
<g id="node6" class="node">
<title>CoreModule</title>
<polygon fill="#8dd3c7" stroke="black" points="1300.26,-122 1297.26,-126 1276.26,-126 1273.26,-122 1213.74,-122 1213.74,-86 1300.26,-86 1300.26,-122"/>
<text text-anchor="middle" x="1257" y="-99.8" font-family="Times,serif" font-size="14.00">CoreModule</text>
</g>
<!-- CoreModule&#45;&gt;OrgManagementModule -->
<g id="edge5" class="edge">
<title>CoreModule&#45;&gt;OrgManagementModule</title>
<path fill="none" stroke="black" d="M1257,-122.24C1257,-137.57 1257,-157 1257,-157 1257,-157 1183.67,-157 1183.67,-157"/>
<polygon fill="black" stroke="black" points="1183.67,-153.5 1173.67,-157 1183.67,-160.5 1183.67,-153.5"/>
</g>
<!-- OrgManagementRoutingModule -->
<g id="node7" class="node">
<title>OrgManagementRoutingModule</title>
<polygon fill="#8dd3c7" stroke="black" points="1195.52,-122 1192.52,-126 1171.52,-126 1168.52,-122 996.48,-122 996.48,-86 1195.52,-86 1195.52,-122"/>
<text text-anchor="middle" x="1096" y="-99.8" font-family="Times,serif" font-size="14.00">OrgManagementRoutingModule</text>
</g>
<!-- OrgManagementRoutingModule&#45;&gt;OrgManagementModule -->
<g id="edge6" class="edge">
<title>OrgManagementRoutingModule&#45;&gt;OrgManagementModule</title>
<path fill="none" stroke="black" d="M1096,-122.11C1096,-122.11 1096,-140.99 1096,-140.99"/>
<polygon fill="black" stroke="black" points="1092.5,-140.99 1096,-150.99 1099.5,-140.99 1092.5,-140.99"/>
</g>
<!-- SharedModule -->
<g id="node8" class="node">
<title>SharedModule</title>
<polygon fill="#8dd3c7" stroke="black" points="978.42,-122 975.42,-126 954.42,-126 951.42,-122 879.58,-122 879.58,-86 978.42,-86 978.42,-122"/>
<text text-anchor="middle" x="929" y="-99.8" font-family="Times,serif" font-size="14.00">SharedModule</text>
</g>
<!-- SharedModule&#45;&gt;OrgManagementModule -->
<g id="edge7" class="edge">
<title>SharedModule&#45;&gt;OrgManagementModule</title>
<path fill="none" stroke="black" d="M929,-122.24C929,-137.57 929,-157 929,-157 929,-157 1008.37,-157 1008.37,-157"/>
<polygon fill="black" stroke="black" points="1008.37,-160.5 1018.37,-157 1008.37,-153.5 1008.37,-160.5"/>
</g>
<!-- TelemetryModule -->
<g id="node9" class="node">
<title>TelemetryModule</title>
<polygon fill="#8dd3c7" stroke="black" points="861.58,-122 858.58,-126 837.58,-126 834.58,-122 744.42,-122 744.42,-86 861.58,-86 861.58,-122"/>
<text text-anchor="middle" x="803" y="-99.8" font-family="Times,serif" font-size="14.00">TelemetryModule</text>
</g>
<!-- TelemetryModule&#45;&gt;OrgManagementModule -->
<g id="edge8" class="edge">
<title>TelemetryModule&#45;&gt;OrgManagementModule</title>
<path fill="none" stroke="black" d="M803,-122.03C803,-139.06 803,-162 803,-162 803,-162 1008.63,-162 1008.63,-162"/>
<polygon fill="black" stroke="black" points="1008.63,-165.5 1018.63,-162 1008.63,-158.5 1008.63,-165.5"/>
</g>
<!-- OrgManagementService -->
<g id="node10" class="node">
<title>OrgManagementService</title>
<ellipse fill="#fdb462" stroke="black" cx="2159" cy="-104" rx="105.34" ry="18"/>
<text text-anchor="middle" x="2159" y="-99.8" font-family="Times,serif" font-size="14.00">OrgManagementService</text>
</g>
<!-- OrgManagementService&#45;&gt;OrgManagementModule -->
<g id="edge9" class="edge">
<title>OrgManagementService&#45;&gt;OrgManagementModule</title>
<path fill="none" stroke="black" d="M2159,-122.09C2159,-145.13 2159,-182 2159,-182 2159,-182 1183.3,-182 1183.3,-182"/>
<polygon fill="black" stroke="black" points="1183.3,-178.5 1173.3,-182 1183.3,-185.5 1183.3,-178.5"/>
</g>
<!-- OrgTypeService -->
<g id="node11" class="node">
<title>OrgTypeService</title>
<ellipse fill="#fdb462" stroke="black" cx="1961" cy="-104" rx="74.7" ry="18"/>
<text text-anchor="middle" x="1961" y="-99.8" font-family="Times,serif" font-size="14.00">OrgTypeService</text>
</g>
<!-- OrgTypeService&#45;&gt;OrgManagementModule -->
<g id="edge10" class="edge">
<title>OrgTypeService&#45;&gt;OrgManagementModule</title>
<path fill="none" stroke="black" d="M1961,-122.04C1961,-143.66 1961,-177 1961,-177 1961,-177 1183.52,-177 1183.52,-177"/>
<polygon fill="black" stroke="black" points="1183.52,-173.5 1173.52,-177 1183.52,-180.5 1183.52,-173.5"/>
</g>
<!-- ResourceService -->
<g id="node12" class="node">
<title>ResourceService</title>
<ellipse fill="#fdb462" stroke="black" cx="1792" cy="-104" rx="75.84" ry="18"/>
<text text-anchor="middle" x="1792" y="-99.8" font-family="Times,serif" font-size="14.00">ResourceService</text>
</g>
<!-- ResourceService&#45;&gt;OrgManagementModule -->
<g id="edge11" class="edge">
<title>ResourceService&#45;&gt;OrgManagementModule</title>
<path fill="none" stroke="black" d="M1792,-122.22C1792,-142.37 1792,-172 1792,-172 1792,-172 1183.48,-172 1183.48,-172"/>
<polygon fill="black" stroke="black" points="1183.48,-168.5 1173.48,-172 1183.48,-175.5 1183.48,-168.5"/>
</g>
<!-- RouterNavigationService -->
<g id="node13" class="node">
<title>RouterNavigationService</title>
<ellipse fill="#fdb462" stroke="black" cx="1589" cy="-104" rx="109.37" ry="18"/>
<text text-anchor="middle" x="1589" y="-99.8" font-family="Times,serif" font-size="14.00">RouterNavigationService</text>
</g>
<!-- RouterNavigationService&#45;&gt;OrgManagementModule -->
<g id="edge12" class="edge">
<title>RouterNavigationService&#45;&gt;OrgManagementModule</title>
<path fill="none" stroke="black" d="M1589,-122.22C1589,-140.83 1589,-167 1589,-167 1589,-167 1183.3,-167 1183.3,-167"/>
<polygon fill="black" stroke="black" points="1183.3,-163.5 1173.3,-167 1183.3,-170.5 1183.3,-163.5"/>
</g>
<!-- ToasterService -->
<g id="node14" class="node">
<title>ToasterService</title>
<ellipse fill="#fdb462" stroke="black" cx="1393" cy="-104" rx="68.89" ry="18"/>
<text text-anchor="middle" x="1393" y="-99.8" font-family="Times,serif" font-size="14.00">ToasterService</text>
</g>
<!-- ToasterService&#45;&gt;OrgManagementModule -->
<g id="edge13" class="edge">
<title>ToasterService&#45;&gt;OrgManagementModule</title>
<path fill="none" stroke="black" d="M1393,-122.03C1393,-139.06 1393,-162 1393,-162 1393,-162 1183.26,-162 1183.26,-162"/>
<polygon fill="black" stroke="black" points="1183.26,-158.5 1173.26,-162 1183.26,-165.5 1183.26,-158.5"/>
</g>
</g>
</svg>
