<?xml version="1.0" encoding="UTF-8" standalone="no"?>
<!DOCTYPE svg PUBLIC "-//W3C//DTD SVG 1.1//EN"
 "http://www.w3.org/Graphics/SVG/1.1/DTD/svg11.dtd">
<!-- Generated by graphviz version 2.47.0 (20210316.0004)
 -->
<!-- Title: dependencies Pages: 1 -->
<svg width="2617pt" height="211pt"
 viewBox="0.00 0.00 2617.00 211.00" xmlns="http://www.w3.org/2000/svg" xmlns:xlink="http://www.w3.org/1999/xlink">
<g id="graph0" class="graph" transform="scale(1 1) rotate(0) translate(4 207)">
<title>dependencies</title>
<polygon fill="white" stroke="transparent" points="-4,4 -4,-207 2613,-207 2613,4 -4,4"/>
<text text-anchor="start" x="1283.51" y="-42.4" font-family="Times-12" font-weight="bold" font-size="14.00">Legend</text>
<polygon fill="#ffffb3" stroke="transparent" points="1070.5,-10 1070.5,-30 1090.5,-30 1090.5,-10 1070.5,-10"/>
<text text-anchor="start" x="1094.13" y="-15.4" font-family="Times-12" font-size="14.00"> &#160;Declarations</text>
<polygon fill="#8dd3c7" stroke="transparent" points="1183.5,-10 1183.5,-30 1203.5,-30 1203.5,-10 1183.5,-10"/>
<text text-anchor="start" x="1207.23" y="-15.4" font-family="Times-12" font-size="14.00"> &#160;Module</text>
<polygon fill="#80b1d3" stroke="transparent" points="1269.5,-10 1269.5,-30 1289.5,-30 1289.5,-10 1269.5,-10"/>
<text text-anchor="start" x="1293.28" y="-15.4" font-family="Times-12" font-size="14.00"> &#160;Bootstrap</text>
<polygon fill="#fdb462" stroke="transparent" points="1366.5,-10 1366.5,-30 1386.5,-30 1386.5,-10 1366.5,-10"/>
<text text-anchor="start" x="1390.17" y="-15.4" font-family="Times-12" font-size="14.00"> &#160;Providers</text>
<polygon fill="#fb8072" stroke="transparent" points="1462.5,-10 1462.5,-30 1482.5,-30 1482.5,-10 1462.5,-10"/>
<text text-anchor="start" x="1486.23" y="-15.4" font-family="Times-12" font-size="14.00"> &#160;Exports</text>
<g id="clust1" class="cluster">
<title>cluster_ProjectModule</title>
<polygon fill="none" stroke="black" stroke-dasharray="1,5" points="8,-70 8,-195 2601,-195 2601,-70 8,-70"/>
</g>
<g id="clust2" class="cluster">
<title>cluster_ProjectModule_declarations</title>
<polygon fill="none" stroke="black" points="243,-78 243,-130 2593,-130 2593,-78 243,-78"/>
</g>
<g id="clust18" class="cluster">
<title>cluster_ProjectModule_imports</title>
<polygon fill="none" stroke="black" points="16,-78 16,-130 235,-130 235,-78 16,-78"/>
</g>
<!-- AddEntityComponent -->
<g id="node1" class="node">
<title>AddEntityComponent</title>
<polygon fill="#ffffb3" stroke="black" points="2584.66,-122 2445.34,-122 2445.34,-86 2584.66,-86 2584.66,-122"/>
<text text-anchor="middle" x="2515" y="-99.8" font-family="Times,serif" font-size="14.00">AddEntityComponent</text>
</g>
<!-- ProjectModule -->
<g id="node16" class="node">
<title>ProjectModule</title>
<polygon fill="#8dd3c7" stroke="black" points="1200.7,-187 1197.7,-191 1176.7,-191 1173.7,-187 1101.3,-187 1101.3,-151 1200.7,-151 1200.7,-187"/>
<text text-anchor="middle" x="1151" y="-164.8" font-family="Times,serif" font-size="14.00">ProjectModule</text>
</g>
<!-- AddEntityComponent&#45;&gt;ProjectModule -->
<g id="edge1" class="edge">
<title>AddEntityComponent&#45;&gt;ProjectModule</title>
<path fill="none" stroke="black" d="M2515,-122.32C2515,-145.66 2515,-183 2515,-183 2515,-183 1210.76,-183 1210.76,-183"/>
<polygon fill="black" stroke="black" points="1210.76,-179.5 1200.76,-183 1210.76,-186.5 1210.76,-179.5"/>
</g>
<!-- AddFilePage -->
<g id="node2" class="node">
<title>AddFilePage</title>
<polygon fill="#ffffb3" stroke="black" points="2427.6,-122 2338.4,-122 2338.4,-86 2427.6,-86 2427.6,-122"/>
<text text-anchor="middle" x="2383" y="-99.8" font-family="Times,serif" font-size="14.00">AddFilePage</text>
</g>
<!-- AddFilePage&#45;&gt;ProjectModule -->
<g id="edge2" class="edge">
<title>AddFilePage&#45;&gt;ProjectModule</title>
<path fill="none" stroke="black" d="M2383,-122.16C2383,-144.35 2383,-179 2383,-179 2383,-179 1210.82,-179 1210.82,-179"/>
<polygon fill="black" stroke="black" points="1210.82,-175.5 1200.82,-179 1210.82,-182.5 1210.82,-175.5"/>
</g>
<!-- AddProgramsComponent -->
<g id="node3" class="node">
<title>AddProgramsComponent</title>
<polygon fill="#ffffb3" stroke="black" points="2320.59,-122 2161.41,-122 2161.41,-86 2320.59,-86 2320.59,-122"/>
<text text-anchor="middle" x="2241" y="-99.8" font-family="Times,serif" font-size="14.00">AddProgramsComponent</text>
</g>
<!-- AddProgramsComponent&#45;&gt;ProjectModule -->
<g id="edge3" class="edge">
<title>AddProgramsComponent&#45;&gt;ProjectModule</title>
<path fill="none" stroke="black" d="M2241,-122.28C2241,-143.32 2241,-175 2241,-175 2241,-175 1210.67,-175 1210.67,-175"/>
<polygon fill="black" stroke="black" points="1210.67,-171.5 1200.67,-175 1210.67,-178.5 1210.67,-171.5"/>
</g>
<!-- CategorySelectComponent -->
<g id="node4" class="node">
<title>CategorySelectComponent</title>
<polygon fill="#ffffb3" stroke="black" points="2143.36,-122 1976.64,-122 1976.64,-86 2143.36,-86 2143.36,-122"/>
<text text-anchor="middle" x="2060" y="-99.8" font-family="Times,serif" font-size="14.00">CategorySelectComponent</text>
</g>
<!-- CategorySelectComponent&#45;&gt;ProjectModule -->
<g id="edge4" class="edge">
<title>CategorySelectComponent&#45;&gt;ProjectModule</title>
<path fill="none" stroke="black" d="M2060,-122.31C2060,-142.15 2060,-171 2060,-171 2060,-171 1210.84,-171 1210.84,-171"/>
<polygon fill="black" stroke="black" points="1210.84,-167.5 1200.84,-171 1210.84,-174.5 1210.84,-167.5"/>
</g>
<!-- CreateProjectPage -->
<g id="node5" class="node">
<title>CreateProjectPage</title>
<polygon fill="#ffffb3" stroke="black" points="1958.9,-122 1839.1,-122 1839.1,-86 1958.9,-86 1958.9,-122"/>
<text text-anchor="middle" x="1899" y="-99.8" font-family="Times,serif" font-size="14.00">CreateProjectPage</text>
</g>
<!-- CreateProjectPage&#45;&gt;ProjectModule -->
<g id="edge5" class="edge">
<title>CreateProjectPage&#45;&gt;ProjectModule</title>
<path fill="none" stroke="black" d="M1899,-122.22C1899,-140.83 1899,-167 1899,-167 1899,-167 1210.66,-167 1210.66,-167"/>
<polygon fill="black" stroke="black" points="1210.66,-163.5 1200.66,-167 1210.66,-170.5 1210.66,-163.5"/>
</g>
<!-- ItemListHeaderComponent -->
<g id="node6" class="node">
<title>ItemListHeaderComponent</title>
<polygon fill="#ffffb3" stroke="black" points="1821.68,-122 1652.32,-122 1652.32,-86 1821.68,-86 1821.68,-122"/>
<text text-anchor="middle" x="1737" y="-99.8" font-family="Times,serif" font-size="14.00">ItemListHeaderComponent</text>
</g>
<!-- ItemListHeaderComponent&#45;&gt;ProjectModule -->
<g id="edge6" class="edge">
<title>ItemListHeaderComponent&#45;&gt;ProjectModule</title>
<path fill="none" stroke="black" d="M1737,-122.02C1737,-139.37 1737,-163 1737,-163 1737,-163 1210.71,-163 1210.71,-163"/>
<polygon fill="black" stroke="black" points="1210.71,-159.5 1200.71,-163 1210.71,-166.5 1210.71,-159.5"/>
</g>
<!-- LearningResourcesPage -->
<g id="node7" class="node">
<title>LearningResourcesPage</title>
<polygon fill="#ffffb3" stroke="black" points="1634.78,-122 1483.22,-122 1483.22,-86 1634.78,-86 1634.78,-122"/>
<text text-anchor="middle" x="1559" y="-99.8" font-family="Times,serif" font-size="14.00">LearningResourcesPage</text>
</g>
<!-- LearningResourcesPage&#45;&gt;ProjectModule -->
<g id="edge7" class="edge">
<title>LearningResourcesPage&#45;&gt;ProjectModule</title>
<path fill="none" stroke="black" d="M1559,-122.01C1559,-138.05 1559,-159 1559,-159 1559,-159 1210.62,-159 1210.62,-159"/>
<polygon fill="black" stroke="black" points="1210.62,-155.5 1200.62,-159 1210.62,-162.5 1210.62,-155.5"/>
</g>
<!-- LinkLearningResourcesComponent -->
<g id="node8" class="node">
<title>LinkLearningResourcesComponent</title>
<polygon fill="#ffffb3" stroke="black" points="1464.84,-122 1249.16,-122 1249.16,-86 1464.84,-86 1464.84,-122"/>
<text text-anchor="middle" x="1357" y="-99.8" font-family="Times,serif" font-size="14.00">LinkLearningResourcesComponent</text>
</g>
<!-- LinkLearningResourcesComponent&#45;&gt;ProjectModule -->
<g id="edge8" class="edge">
<title>LinkLearningResourcesComponent&#45;&gt;ProjectModule</title>
<path fill="none" stroke="black" d="M1357,-122.12C1357,-136.78 1357,-155 1357,-155 1357,-155 1210.6,-155 1210.6,-155"/>
<polygon fill="black" stroke="black" points="1210.6,-151.5 1200.6,-155 1210.6,-158.5 1210.6,-151.5"/>
</g>
<!-- ProjectDetailsComponent -->
<g id="node9" class="node">
<title>ProjectDetailsComponent</title>
<polygon fill="#ffffb3" stroke="black" points="1231.14,-122 1070.86,-122 1070.86,-86 1231.14,-86 1231.14,-122"/>
<text text-anchor="middle" x="1151" y="-99.8" font-family="Times,serif" font-size="14.00">ProjectDetailsComponent</text>
</g>
<!-- ProjectDetailsComponent&#45;&gt;ProjectModule -->
<g id="edge9" class="edge">
<title>ProjectDetailsComponent&#45;&gt;ProjectModule</title>
<path fill="none" stroke="black" d="M1151,-122.11C1151,-122.11 1151,-140.99 1151,-140.99"/>
<polygon fill="black" stroke="black" points="1147.5,-140.99 1151,-150.99 1154.5,-140.99 1147.5,-140.99"/>
</g>
<!-- ProjectEditPage -->
<g id="node10" class="node">
<title>ProjectEditPage</title>
<polygon fill="#ffffb3" stroke="black" points="1053.2,-122 946.8,-122 946.8,-86 1053.2,-86 1053.2,-122"/>
<text text-anchor="middle" x="1000" y="-99.8" font-family="Times,serif" font-size="14.00">ProjectEditPage</text>
</g>
<!-- ProjectEditPage&#45;&gt;ProjectModule -->
<g id="edge10" class="edge">
<title>ProjectEditPage&#45;&gt;ProjectModule</title>
<path fill="none" stroke="black" d="M1000,-122.12C1000,-136.78 1000,-155 1000,-155 1000,-155 1091.14,-155 1091.14,-155"/>
<polygon fill="black" stroke="black" points="1091.14,-158.5 1101.14,-155 1091.14,-151.5 1091.14,-158.5"/>
</g>
<!-- ProjectListingComponent -->
<g id="node11" class="node">
<title>ProjectListingComponent</title>
<polygon fill="#ffffb3" stroke="black" points="929.16,-122 768.84,-122 768.84,-86 929.16,-86 929.16,-122"/>
<text text-anchor="middle" x="849" y="-99.8" font-family="Times,serif" font-size="14.00">ProjectListingComponent</text>
</g>
<!-- ProjectListingComponent&#45;&gt;ProjectModule -->
<g id="edge11" class="edge">
<title>ProjectListingComponent&#45;&gt;ProjectModule</title>
<path fill="none" stroke="black" d="M849,-122.01C849,-138.05 849,-159 849,-159 849,-159 1091.13,-159 1091.13,-159"/>
<polygon fill="black" stroke="black" points="1091.13,-162.5 1101.13,-159 1091.13,-155.5 1091.13,-162.5"/>
</g>
<!-- ProjectOperationPage -->
<g id="node12" class="node">
<title>ProjectOperationPage</title>
<polygon fill="#ffffb3" stroke="black" points="750.34,-122 611.66,-122 611.66,-86 750.34,-86 750.34,-122"/>
<text text-anchor="middle" x="681" y="-99.8" font-family="Times,serif" font-size="14.00">ProjectOperationPage</text>
</g>
<!-- ProjectOperationPage&#45;&gt;ProjectModule -->
<g id="edge12" class="edge">
<title>ProjectOperationPage&#45;&gt;ProjectModule</title>
<path fill="none" stroke="black" d="M681,-122.02C681,-139.37 681,-163 681,-163 681,-163 1091.15,-163 1091.15,-163"/>
<polygon fill="black" stroke="black" points="1091.15,-166.5 1101.15,-163 1091.15,-159.5 1091.15,-166.5"/>
</g>
<!-- ProjectTemplatePage -->
<g id="node13" class="node">
<title>ProjectTemplatePage</title>
<polygon fill="#ffffb3" stroke="black" points="593.73,-122 458.27,-122 458.27,-86 593.73,-86 593.73,-122"/>
<text text-anchor="middle" x="526" y="-99.8" font-family="Times,serif" font-size="14.00">ProjectTemplatePage</text>
</g>
<!-- ProjectTemplatePage&#45;&gt;ProjectModule -->
<g id="edge13" class="edge">
<title>ProjectTemplatePage&#45;&gt;ProjectModule</title>
<path fill="none" stroke="black" d="M526,-122.22C526,-140.83 526,-167 526,-167 526,-167 1091.17,-167 1091.17,-167"/>
<polygon fill="black" stroke="black" points="1091.17,-170.5 1101.17,-167 1091.17,-163.5 1091.17,-170.5"/>
</g>
<!-- SyncPage -->
<g id="node14" class="node">
<title>SyncPage</title>
<polygon fill="#ffffb3" stroke="black" points="440.71,-122 369.29,-122 369.29,-86 440.71,-86 440.71,-122"/>
<text text-anchor="middle" x="405" y="-99.8" font-family="Times,serif" font-size="14.00">SyncPage</text>
</g>
<!-- SyncPage&#45;&gt;ProjectModule -->
<g id="edge14" class="edge">
<title>SyncPage&#45;&gt;ProjectModule</title>
<path fill="none" stroke="black" d="M405,-122.31C405,-142.15 405,-171 405,-171 405,-171 1091.19,-171 1091.19,-171"/>
<polygon fill="black" stroke="black" points="1091.19,-174.5 1101.19,-171 1091.19,-167.5 1091.19,-174.5"/>
</g>
<!-- TaskViewPage -->
<g id="node15" class="node">
<title>TaskViewPage</title>
<polygon fill="#ffffb3" stroke="black" points="351.24,-122 250.76,-122 250.76,-86 351.24,-86 351.24,-122"/>
<text text-anchor="middle" x="301" y="-99.8" font-family="Times,serif" font-size="14.00">TaskViewPage</text>
</g>
<!-- TaskViewPage&#45;&gt;ProjectModule -->
<g id="edge15" class="edge">
<title>TaskViewPage&#45;&gt;ProjectModule</title>
<path fill="none" stroke="black" d="M301,-122.28C301,-143.32 301,-175 301,-175 301,-175 1091.31,-175 1091.31,-175"/>
<polygon fill="black" stroke="black" points="1091.31,-178.5 1101.31,-175 1091.31,-171.5 1091.31,-178.5"/>
</g>
<!-- CoreModule -->
<g id="node17" class="node">
<title>CoreModule</title>
<polygon fill="#8dd3c7" stroke="black" points="227.26,-122 224.26,-126 203.26,-126 200.26,-122 140.74,-122 140.74,-86 227.26,-86 227.26,-122"/>
<text text-anchor="middle" x="184" y="-99.8" font-family="Times,serif" font-size="14.00">CoreModule</text>
</g>
<!-- CoreModule&#45;&gt;ProjectModule -->
<g id="edge16" class="edge">
<title>CoreModule&#45;&gt;ProjectModule</title>
<path fill="none" stroke="black" d="M184,-122.16C184,-144.35 184,-179 184,-179 184,-179 1091.38,-179 1091.38,-179"/>
<polygon fill="black" stroke="black" points="1091.38,-182.5 1101.38,-179 1091.38,-175.5 1091.38,-182.5"/>
</g>
<!-- SharedModule -->
<g id="node18" class="node">
<title>SharedModule</title>
<polygon fill="#8dd3c7" stroke="black" points="122.42,-122 119.42,-126 98.42,-126 95.42,-122 23.58,-122 23.58,-86 122.42,-86 122.42,-122"/>
<text text-anchor="middle" x="73" y="-99.8" font-family="Times,serif" font-size="14.00">SharedModule</text>
</g>
<!-- SharedModule&#45;&gt;ProjectModule -->
<g id="edge17" class="edge">
<title>SharedModule&#45;&gt;ProjectModule</title>
<path fill="none" stroke="black" d="M73,-122.32C73,-145.66 73,-183 73,-183 73,-183 1091.17,-183 1091.17,-183"/>
<polygon fill="black" stroke="black" points="1091.17,-186.5 1101.17,-183 1091.17,-179.5 1091.17,-186.5"/>
</g>
</g>
</svg>
