<?xml version="1.0" encoding="UTF-8" standalone="no"?>
<!DOCTYPE svg PUBLIC "-//W3C//DTD SVG 1.1//EN"
 "http://www.w3.org/Graphics/SVG/1.1/DTD/svg11.dtd">
<!-- Generated by graphviz version 2.47.0 (20210316.0004)
 -->
<!-- Title: dependencies Pages: 1 -->
<svg width="504pt" height="211pt"
 viewBox="0.00 0.00 504.00 211.00" xmlns="http://www.w3.org/2000/svg" xmlns:xlink="http://www.w3.org/1999/xlink">
<g id="graph0" class="graph" transform="scale(1 1) rotate(0) translate(4 207)">
<title>dependencies</title>
<polygon fill="white" stroke="transparent" points="-4,4 -4,-207 500,-207 500,4 -4,4"/>
<text text-anchor="start" x="227.01" y="-42.4" font-family="Times-12" font-weight="bold" font-size="14.00">Legend</text>
<polygon fill="#ffffb3" stroke="transparent" points="14,-10 14,-30 34,-30 34,-10 14,-10"/>
<text text-anchor="start" x="37.63" y="-15.4" font-family="Times-12" font-size="14.00"> &#160;Declarations</text>
<polygon fill="#8dd3c7" stroke="transparent" points="127,-10 127,-30 147,-30 147,-10 127,-10"/>
<text text-anchor="start" x="150.73" y="-15.4" font-family="Times-12" font-size="14.00"> &#160;Module</text>
<polygon fill="#80b1d3" stroke="transparent" points="213,-10 213,-30 233,-30 233,-10 213,-10"/>
<text text-anchor="start" x="236.78" y="-15.4" font-family="Times-12" font-size="14.00"> &#160;Bootstrap</text>
<polygon fill="#fdb462" stroke="transparent" points="310,-10 310,-30 330,-30 330,-10 310,-10"/>
<text text-anchor="start" x="333.67" y="-15.4" font-family="Times-12" font-size="14.00"> &#160;Providers</text>
<polygon fill="#fb8072" stroke="transparent" points="406,-10 406,-30 426,-30 426,-10 406,-10"/>
<text text-anchor="start" x="429.73" y="-15.4" font-family="Times-12" font-size="14.00"> &#160;Exports</text>
<g id="clust1" class="cluster">
<title>cluster_CurriculumCoursesPageModule</title>
<polygon fill="none" stroke="black" stroke-dasharray="1,5" points="37,-70 37,-195 459,-195 459,-70 37,-70"/>
</g>
<g id="clust2" class="cluster">
<title>cluster_CurriculumCoursesPageModule_declarations</title>
<polygon fill="none" stroke="black" points="283,-78 283,-130 451,-130 451,-78 283,-78"/>
</g>
<g id="clust4" class="cluster">
<title>cluster_CurriculumCoursesPageModule_imports</title>
<polygon fill="none" stroke="black" points="45,-78 45,-130 275,-130 275,-78 45,-78"/>
</g>
<!-- CurriculumCoursesPage -->
<g id="node1" class="node">
<title>CurriculumCoursesPage</title>
<polygon fill="#ffffb3" stroke="black" points="443.36,-122 290.64,-122 290.64,-86 443.36,-86 443.36,-122"/>
<text text-anchor="middle" x="367" y="-99.8" font-family="Times,serif" font-size="14.00">CurriculumCoursesPage</text>
</g>
<!-- CurriculumCoursesPageModule -->
<g id="node2" class="node">
<title>CurriculumCoursesPageModule</title>
<polygon fill="#8dd3c7" stroke="black" points="354.41,-187 351.41,-191 330.41,-191 327.41,-187 157.59,-187 157.59,-151 354.41,-151 354.41,-187"/>
<text text-anchor="middle" x="256" y="-164.8" font-family="Times,serif" font-size="14.00">CurriculumCoursesPageModule</text>
</g>
<!-- CurriculumCoursesPage&#45;&gt;CurriculumCoursesPageModule -->
<g id="edge1" class="edge">
<title>CurriculumCoursesPage&#45;&gt;CurriculumCoursesPageModule</title>
<path fill="none" stroke="black" d="M322.39,-122.11C322.39,-122.11 322.39,-140.99 322.39,-140.99"/>
<polygon fill="black" stroke="black" points="318.89,-140.99 322.39,-150.99 325.89,-140.99 318.89,-140.99"/>
</g>
<!-- CurriculumCoursesRoutingModule -->
<g id="node3" class="node">
<title>CurriculumCoursesRoutingModule</title>
<polygon fill="#8dd3c7" stroke="black" points="267.31,-122 264.31,-126 243.31,-126 240.31,-122 52.69,-122 52.69,-86 267.31,-86 267.31,-122"/>
<text text-anchor="middle" x="160" y="-99.8" font-family="Times,serif" font-size="14.00">CurriculumCoursesRoutingModule</text>
</g>
<!-- CurriculumCoursesRoutingModule&#45;&gt;CurriculumCoursesPageModule -->
<g id="edge2" class="edge">
<title>CurriculumCoursesRoutingModule&#45;&gt;CurriculumCoursesPageModule</title>
<path fill="none" stroke="black" d="M212.48,-122.11C212.48,-122.11 212.48,-140.99 212.48,-140.99"/>
<polygon fill="black" stroke="black" points="208.98,-140.99 212.48,-150.99 215.98,-140.99 208.98,-140.99"/>
</g>
</g>
</svg>
