<?xml version="1.0" encoding="UTF-8" standalone="no"?>
<!DOCTYPE svg PUBLIC "-//W3C//DTD SVG 1.1//EN"
 "http://www.w3.org/Graphics/SVG/1.1/DTD/svg11.dtd">
<!-- Generated by graphviz version 2.47.0 (20210316.0004)
 -->
<!-- Title: dependencies Pages: 1 -->
<svg width="992pt" height="211pt"
 viewBox="0.00 0.00 992.00 211.00" xmlns="http://www.w3.org/2000/svg" xmlns:xlink="http://www.w3.org/1999/xlink">
<g id="graph0" class="graph" transform="scale(1 1) rotate(0) translate(4 207)">
<title>dependencies</title>
<polygon fill="white" stroke="transparent" points="-4,4 -4,-207 988,-207 988,4 -4,4"/>
<text text-anchor="start" x="471.01" y="-42.4" font-family="Times-12" font-weight="bold" font-size="14.00">Legend</text>
<polygon fill="#ffffb3" stroke="transparent" points="258,-10 258,-30 278,-30 278,-10 258,-10"/>
<text text-anchor="start" x="281.63" y="-15.4" font-family="Times-12" font-size="14.00"> &#160;Declarations</text>
<polygon fill="#8dd3c7" stroke="transparent" points="371,-10 371,-30 391,-30 391,-10 371,-10"/>
<text text-anchor="start" x="394.73" y="-15.4" font-family="Times-12" font-size="14.00"> &#160;Module</text>
<polygon fill="#80b1d3" stroke="transparent" points="457,-10 457,-30 477,-30 477,-10 457,-10"/>
<text text-anchor="start" x="480.78" y="-15.4" font-family="Times-12" font-size="14.00"> &#160;Bootstrap</text>
<polygon fill="#fdb462" stroke="transparent" points="554,-10 554,-30 574,-30 574,-10 554,-10"/>
<text text-anchor="start" x="577.67" y="-15.4" font-family="Times-12" font-size="14.00"> &#160;Providers</text>
<polygon fill="#fb8072" stroke="transparent" points="650,-10 650,-30 670,-30 670,-10 650,-10"/>
<text text-anchor="start" x="673.73" y="-15.4" font-family="Times-12" font-size="14.00"> &#160;Exports</text>
<g id="clust1" class="cluster">
<title>cluster_ReportsModule</title>
<polygon fill="none" stroke="black" stroke-dasharray="1,5" points="8,-70 8,-195 976,-195 976,-70 8,-70"/>
</g>
<g id="clust2" class="cluster">
<title>cluster_ReportsModule_declarations</title>
<polygon fill="none" stroke="black" points="243,-78 243,-130 968,-130 968,-78 243,-78"/>
</g>
<g id="clust6" class="cluster">
<title>cluster_ReportsModule_imports</title>
<polygon fill="none" stroke="black" points="16,-78 16,-130 235,-130 235,-78 16,-78"/>
</g>
<!-- ObservationSolutionEntityListingComponent -->
<g id="node1" class="node">
<title>ObservationSolutionEntityListingComponent</title>
<polygon fill="#ffffb3" stroke="black" points="959.6,-122 688.4,-122 688.4,-86 959.6,-86 959.6,-122"/>
<text text-anchor="middle" x="824" y="-99.8" font-family="Times,serif" font-size="14.00">ObservationSolutionEntityListingComponent</text>
</g>
<!-- ReportsModule -->
<g id="node4" class="node">
<title>ReportsModule</title>
<polygon fill="#8dd3c7" stroke="black" points="384.6,-187 381.6,-191 360.6,-191 357.6,-187 281.4,-187 281.4,-151 384.6,-151 384.6,-187"/>
<text text-anchor="middle" x="333" y="-164.8" font-family="Times,serif" font-size="14.00">ReportsModule</text>
</g>
<!-- ObservationSolutionEntityListingComponent&#45;&gt;ReportsModule -->
<g id="edge1" class="edge">
<title>ObservationSolutionEntityListingComponent&#45;&gt;ReportsModule</title>
<path fill="none" stroke="black" d="M824,-122.28C824,-143.32 824,-175 824,-175 824,-175 394.62,-175 394.62,-175"/>
<polygon fill="black" stroke="black" points="394.62,-171.5 384.62,-175 394.62,-178.5 394.62,-171.5"/>
</g>
<!-- ObservationSolutionListingComponent -->
<g id="node2" class="node">
<title>ObservationSolutionListingComponent</title>
<polygon fill="#ffffb3" stroke="black" points="670.38,-122 433.62,-122 433.62,-86 670.38,-86 670.38,-122"/>
<text text-anchor="middle" x="552" y="-99.8" font-family="Times,serif" font-size="14.00">ObservationSolutionListingComponent</text>
</g>
<!-- ObservationSolutionListingComponent&#45;&gt;ReportsModule -->
<g id="edge2" class="edge">
<title>ObservationSolutionListingComponent&#45;&gt;ReportsModule</title>
<path fill="none" stroke="black" d="M552,-122.02C552,-139.37 552,-163 552,-163 552,-163 394.62,-163 394.62,-163"/>
<polygon fill="black" stroke="black" points="394.62,-159.5 384.62,-163 394.62,-166.5 394.62,-159.5"/>
</g>
<!-- ReportsListingComponent -->
<g id="node3" class="node">
<title>ReportsListingComponent</title>
<polygon fill="#ffffb3" stroke="black" points="415.05,-122 250.95,-122 250.95,-86 415.05,-86 415.05,-122"/>
<text text-anchor="middle" x="333" y="-99.8" font-family="Times,serif" font-size="14.00">ReportsListingComponent</text>
</g>
<!-- ReportsListingComponent&#45;&gt;ReportsModule -->
<g id="edge3" class="edge">
<title>ReportsListingComponent&#45;&gt;ReportsModule</title>
<path fill="none" stroke="black" d="M333,-122.11C333,-122.11 333,-140.99 333,-140.99"/>
<polygon fill="black" stroke="black" points="329.5,-140.99 333,-150.99 336.5,-140.99 329.5,-140.99"/>
</g>
<!-- CoreModule -->
<g id="node5" class="node">
<title>CoreModule</title>
<polygon fill="#8dd3c7" stroke="black" points="227.26,-122 224.26,-126 203.26,-126 200.26,-122 140.74,-122 140.74,-86 227.26,-86 227.26,-122"/>
<text text-anchor="middle" x="184" y="-99.8" font-family="Times,serif" font-size="14.00">CoreModule</text>
</g>
<!-- CoreModule&#45;&gt;ReportsModule -->
<g id="edge4" class="edge">
<title>CoreModule&#45;&gt;ReportsModule</title>
<path fill="none" stroke="black" d="M184,-122.02C184,-139.37 184,-163 184,-163 184,-163 271.31,-163 271.31,-163"/>
<polygon fill="black" stroke="black" points="271.31,-166.5 281.31,-163 271.31,-159.5 271.31,-166.5"/>
</g>
<!-- SharedModule -->
<g id="node6" class="node">
<title>SharedModule</title>
<polygon fill="#8dd3c7" stroke="black" points="122.42,-122 119.42,-126 98.42,-126 95.42,-122 23.58,-122 23.58,-86 122.42,-86 122.42,-122"/>
<text text-anchor="middle" x="73" y="-99.8" font-family="Times,serif" font-size="14.00">SharedModule</text>
</g>
<!-- SharedModule&#45;&gt;ReportsModule -->
<g id="edge5" class="edge">
<title>SharedModule&#45;&gt;ReportsModule</title>
<path fill="none" stroke="black" d="M73,-122.28C73,-143.32 73,-175 73,-175 73,-175 271.32,-175 271.32,-175"/>
<polygon fill="black" stroke="black" points="271.32,-178.5 281.32,-175 271.32,-171.5 271.32,-178.5"/>
</g>
</g>
</svg>
