<?xml version="1.0" encoding="UTF-8" standalone="no"?>
<!DOCTYPE svg PUBLIC "-//W3C//DTD SVG 1.1//EN"
 "http://www.w3.org/Graphics/SVG/1.1/DTD/svg11.dtd">
<!-- Generated by graphviz version 2.47.0 (20210316.0004)
 -->
<!-- Title: dependencies Pages: 1 -->
<svg width="504pt" height="211pt"
 viewBox="0.00 0.00 504.00 211.00" xmlns="http://www.w3.org/2000/svg" xmlns:xlink="http://www.w3.org/1999/xlink">
<g id="graph0" class="graph" transform="scale(1 1) rotate(0) translate(4 207)">
<title>dependencies</title>
<polygon fill="white" stroke="transparent" points="-4,4 -4,-207 500,-207 500,4 -4,4"/>
<text text-anchor="start" x="227.01" y="-42.4" font-family="Times-12" font-weight="bold" font-size="14.00">Legend</text>
<polygon fill="#ffffb3" stroke="transparent" points="14,-10 14,-30 34,-30 34,-10 14,-10"/>
<text text-anchor="start" x="37.63" y="-15.4" font-family="Times-12" font-size="14.00"> &#160;Declarations</text>
<polygon fill="#8dd3c7" stroke="transparent" points="127,-10 127,-30 147,-30 147,-10 127,-10"/>
<text text-anchor="start" x="150.73" y="-15.4" font-family="Times-12" font-size="14.00"> &#160;Module</text>
<polygon fill="#80b1d3" stroke="transparent" points="213,-10 213,-30 233,-30 233,-10 213,-10"/>
<text text-anchor="start" x="236.78" y="-15.4" font-family="Times-12" font-size="14.00"> &#160;Bootstrap</text>
<polygon fill="#fdb462" stroke="transparent" points="310,-10 310,-30 330,-30 330,-10 310,-10"/>
<text text-anchor="start" x="333.67" y="-15.4" font-family="Times-12" font-size="14.00"> &#160;Providers</text>
<polygon fill="#fb8072" stroke="transparent" points="406,-10 406,-30 426,-30 426,-10 406,-10"/>
<text text-anchor="start" x="429.73" y="-15.4" font-family="Times-12" font-size="14.00"> &#160;Exports</text>
<g id="clust1" class="cluster">
<title>cluster_CourseBatchesPageModule</title>
<polygon fill="none" stroke="black" stroke-dasharray="1,5" points="97,-70 97,-195 399,-195 399,-70 97,-70"/>
</g>
<g id="clust2" class="cluster">
<title>cluster_CourseBatchesPageModule_declarations</title>
<polygon fill="none" stroke="black" points="247,-78 247,-130 391,-130 391,-78 247,-78"/>
</g>
<g id="clust4" class="cluster">
<title>cluster_CourseBatchesPageModule_imports</title>
<polygon fill="none" stroke="black" points="105,-78 105,-130 239,-130 239,-78 105,-78"/>
</g>
<!-- CourseBatchesPage -->
<g id="node1" class="node">
<title>CourseBatchesPage</title>
<polygon fill="#ffffb3" stroke="black" points="382.68,-122 255.32,-122 255.32,-86 382.68,-86 382.68,-122"/>
<text text-anchor="middle" x="319" y="-99.8" font-family="Times,serif" font-size="14.00">CourseBatchesPage</text>
</g>
<!-- CourseBatchesPageModule -->
<g id="node2" class="node">
<title>CourseBatchesPageModule</title>
<polygon fill="#8dd3c7" stroke="black" points="333.23,-187 330.23,-191 309.23,-191 306.23,-187 162.77,-187 162.77,-151 333.23,-151 333.23,-187"/>
<text text-anchor="middle" x="248" y="-164.8" font-family="Times,serif" font-size="14.00">CourseBatchesPageModule</text>
</g>
<!-- CourseBatchesPage&#45;&gt;CourseBatchesPageModule -->
<g id="edge1" class="edge">
<title>CourseBatchesPage&#45;&gt;CourseBatchesPageModule</title>
<path fill="none" stroke="black" d="M294.39,-122.11C294.39,-122.11 294.39,-140.99 294.39,-140.99"/>
<polygon fill="black" stroke="black" points="290.89,-140.99 294.39,-150.99 297.89,-140.99 290.89,-140.99"/>
</g>
<!-- DirectivesModule -->
<g id="node3" class="node">
<title>DirectivesModule</title>
<polygon fill="#8dd3c7" stroke="black" points="230.58,-122 227.58,-126 206.58,-126 203.58,-122 113.42,-122 113.42,-86 230.58,-86 230.58,-122"/>
<text text-anchor="middle" x="172" y="-99.8" font-family="Times,serif" font-size="14.00">DirectivesModule</text>
</g>
<!-- DirectivesModule&#45;&gt;CourseBatchesPageModule -->
<g id="edge2" class="edge">
<title>DirectivesModule&#45;&gt;CourseBatchesPageModule</title>
<path fill="none" stroke="black" d="M196.59,-122.11C196.59,-122.11 196.59,-140.99 196.59,-140.99"/>
<polygon fill="black" stroke="black" points="193.09,-140.99 196.59,-150.99 200.09,-140.99 193.09,-140.99"/>
</g>
</g>
</svg>
