<?xml version="1.0" encoding="UTF-8" standalone="no"?>
<!DOCTYPE svg PUBLIC "-//W3C//DTD SVG 1.1//EN"
 "http://www.w3.org/Graphics/SVG/1.1/DTD/svg11.dtd">
<!-- Generated by graphviz version 2.47.0 (20210316.0004)
 -->
<!-- Title: dependencies Pages: 1 -->
<svg width="1505pt" height="284pt"
 viewBox="0.00 0.00 1505.00 284.00" xmlns="http://www.w3.org/2000/svg" xmlns:xlink="http://www.w3.org/1999/xlink">
<g id="graph0" class="graph" transform="scale(1 1) rotate(0) translate(4 280)">
<title>dependencies</title>
<polygon fill="white" stroke="transparent" points="-4,4 -4,-280 1501,-280 1501,4 -4,4"/>
<text text-anchor="start" x="727.51" y="-42.4" font-family="Times-12" font-weight="bold" font-size="14.00">Legend</text>
<polygon fill="#ffffb3" stroke="transparent" points="514.5,-10 514.5,-30 534.5,-30 534.5,-10 514.5,-10"/>
<text text-anchor="start" x="538.13" y="-15.4" font-family="Times-12" font-size="14.00"> &#160;Declarations</text>
<polygon fill="#8dd3c7" stroke="transparent" points="627.5,-10 627.5,-30 647.5,-30 647.5,-10 627.5,-10"/>
<text text-anchor="start" x="651.23" y="-15.4" font-family="Times-12" font-size="14.00"> &#160;Module</text>
<polygon fill="#80b1d3" stroke="transparent" points="713.5,-10 713.5,-30 733.5,-30 733.5,-10 713.5,-10"/>
<text text-anchor="start" x="737.28" y="-15.4" font-family="Times-12" font-size="14.00"> &#160;Bootstrap</text>
<polygon fill="#fdb462" stroke="transparent" points="810.5,-10 810.5,-30 830.5,-30 830.5,-10 810.5,-10"/>
<text text-anchor="start" x="834.17" y="-15.4" font-family="Times-12" font-size="14.00"> &#160;Providers</text>
<polygon fill="#fb8072" stroke="transparent" points="906.5,-10 906.5,-30 926.5,-30 926.5,-10 906.5,-10"/>
<text text-anchor="start" x="930.23" y="-15.4" font-family="Times-12" font-size="14.00"> &#160;Exports</text>
<g id="clust1" class="cluster">
<title>cluster_AppModule</title>
<polygon fill="none" stroke="black" stroke-dasharray="1,5" points="8,-70 8,-268 1489,-268 1489,-70 8,-70"/>
</g>
<g id="clust2" class="cluster">
<title>cluster_AppModule_declarations</title>
<polygon fill="none" stroke="black" points="1359,-78 1359,-130 1481,-130 1481,-78 1359,-78"/>
</g>
<g id="clust7" class="cluster">
<title>cluster_AppModule_providers</title>
<polygon fill="none" stroke="black" points="971,-78 971,-130 1351,-130 1351,-78 971,-78"/>
</g>
<g id="clust4" class="cluster">
<title>cluster_AppModule_imports</title>
<polygon fill="none" stroke="black" points="16,-78 16,-130 963,-130 963,-78 16,-78"/>
</g>
<g id="clust6" class="cluster">
<title>cluster_AppModule_bootstrap</title>
<polygon fill="none" stroke="black" points="647,-208 647,-260 771,-260 771,-208 647,-208"/>
</g>
<!-- AppComponent -->
<g id="node1" class="node">
<title>AppComponent</title>
<polygon fill="#ffffb3" stroke="black" points="1472.94,-122 1367.06,-122 1367.06,-86 1472.94,-86 1472.94,-122"/>
<text text-anchor="middle" x="1420" y="-99.8" font-family="Times,serif" font-size="14.00">AppComponent</text>
</g>
<!-- AppModule -->
<g id="node2" class="node">
<title>AppModule</title>
<polygon fill="#8dd3c7" stroke="black" points="750.66,-187 747.66,-191 726.66,-191 723.66,-187 667.34,-187 667.34,-151 750.66,-151 750.66,-187"/>
<text text-anchor="middle" x="709" y="-164.8" font-family="Times,serif" font-size="14.00">AppModule</text>
</g>
<!-- AppComponent&#45;&gt;AppModule -->
<g id="edge1" class="edge">
<title>AppComponent&#45;&gt;AppModule</title>
<path fill="none" stroke="black" d="M1420,-122.01C1420,-144.49 1420,-180 1420,-180 1420,-180 760.82,-180 760.82,-180"/>
<polygon fill="black" stroke="black" points="760.82,-176.5 750.82,-180 760.82,-183.5 760.82,-176.5"/>
</g>
<!-- AppComponent  -->
<g id="node10" class="node">
<title>AppComponent </title>
<polygon fill="#80b1d3" stroke="black" points="763.44,-252 654.56,-252 654.56,-216 763.44,-216 763.44,-252"/>
<text text-anchor="middle" x="709" y="-229.8" font-family="Times,serif" font-size="14.00">AppComponent </text>
</g>
<!-- AppModule&#45;&gt;AppComponent  -->
<g id="edge9" class="edge">
<title>AppModule&#45;&gt;AppComponent </title>
<path fill="none" stroke="black" stroke-dasharray="1,5" d="M709,-187.11C709,-187.11 709,-205.99 709,-205.99"/>
<polygon fill="black" stroke="black" points="705.5,-205.99 709,-215.99 712.5,-205.99 705.5,-205.99"/>
</g>
<!-- AppRoutingModule -->
<g id="node3" class="node">
<title>AppRoutingModule</title>
<polygon fill="#8dd3c7" stroke="black" points="955.27,-122 952.27,-126 931.27,-126 928.27,-122 826.73,-122 826.73,-86 955.27,-86 955.27,-122"/>
<text text-anchor="middle" x="891" y="-99.8" font-family="Times,serif" font-size="14.00">AppRoutingModule</text>
</g>
<!-- AppRoutingModule&#45;&gt;AppModule -->
<g id="edge2" class="edge">
<title>AppRoutingModule&#45;&gt;AppModule</title>
<path fill="none" stroke="black" d="M891,-122.01C891,-138.05 891,-159 891,-159 891,-159 760.75,-159 760.75,-159"/>
<polygon fill="black" stroke="black" points="760.75,-155.5 750.75,-159 760.75,-162.5 760.75,-155.5"/>
</g>
<!-- CoreModule -->
<g id="node4" class="node">
<title>CoreModule</title>
<polygon fill="#8dd3c7" stroke="black" points="808.26,-122 805.26,-126 784.26,-126 781.26,-122 721.74,-122 721.74,-86 808.26,-86 808.26,-122"/>
<text text-anchor="middle" x="765" y="-99.8" font-family="Times,serif" font-size="14.00">CoreModule</text>
</g>
<!-- CoreModule&#45;&gt;AppModule -->
<g id="edge3" class="edge">
<title>CoreModule&#45;&gt;AppModule</title>
<path fill="none" stroke="black" d="M736.22,-122.11C736.22,-122.11 736.22,-140.99 736.22,-140.99"/>
<polygon fill="black" stroke="black" points="732.72,-140.99 736.22,-150.99 739.72,-140.99 732.72,-140.99"/>
</g>
<!-- OfflineModule -->
<g id="node5" class="node">
<title>OfflineModule</title>
<polygon fill="#8dd3c7" stroke="black" points="703.97,-122 700.97,-126 679.97,-126 676.97,-122 604.03,-122 604.03,-86 703.97,-86 703.97,-122"/>
<text text-anchor="middle" x="654" y="-99.8" font-family="Times,serif" font-size="14.00">OfflineModule</text>
</g>
<!-- OfflineModule&#45;&gt;AppModule -->
<g id="edge4" class="edge">
<title>OfflineModule&#45;&gt;AppModule</title>
<path fill="none" stroke="black" d="M685.58,-122.11C685.58,-122.11 685.58,-140.99 685.58,-140.99"/>
<polygon fill="black" stroke="black" points="682.08,-140.99 685.58,-150.99 689.08,-140.99 682.08,-140.99"/>
</g>
<!-- SharedFeatureModule -->
<g id="node6" class="node">
<title>SharedFeatureModule</title>
<polygon fill="#8dd3c7" stroke="black" points="586.4,-122 583.4,-126 562.4,-126 559.4,-122 445.6,-122 445.6,-86 586.4,-86 586.4,-122"/>
<text text-anchor="middle" x="516" y="-99.8" font-family="Times,serif" font-size="14.00">SharedFeatureModule</text>
</g>
<!-- SharedFeatureModule&#45;&gt;AppModule -->
<g id="edge5" class="edge">
<title>SharedFeatureModule&#45;&gt;AppModule</title>
<path fill="none" stroke="black" d="M516,-122.01C516,-138.05 516,-159 516,-159 516,-159 657.12,-159 657.12,-159"/>
<polygon fill="black" stroke="black" points="657.12,-162.5 667.12,-159 657.12,-155.5 657.12,-162.5"/>
</g>
<!-- SharedModule -->
<g id="node7" class="node">
<title>SharedModule</title>
<polygon fill="#8dd3c7" stroke="black" points="428.42,-122 425.42,-126 404.42,-126 401.42,-122 329.58,-122 329.58,-86 428.42,-86 428.42,-122"/>
<text text-anchor="middle" x="379" y="-99.8" font-family="Times,serif" font-size="14.00">SharedModule</text>
</g>
<!-- SharedModule&#45;&gt;AppModule -->
<g id="edge6" class="edge">
<title>SharedModule&#45;&gt;AppModule</title>
<path fill="none" stroke="black" d="M379,-122.27C379,-140.56 379,-166 379,-166 379,-166 657.21,-166 657.21,-166"/>
<polygon fill="black" stroke="black" points="657.21,-169.5 667.21,-166 657.21,-162.5 657.21,-169.5"/>
</g>
<!-- TelemetryModule -->
<g id="node8" class="node">
<title>TelemetryModule</title>
<polygon fill="#8dd3c7" stroke="black" points="311.58,-122 308.58,-126 287.58,-126 284.58,-122 194.42,-122 194.42,-86 311.58,-86 311.58,-122"/>
<text text-anchor="middle" x="253" y="-99.8" font-family="Times,serif" font-size="14.00">TelemetryModule</text>
</g>
<!-- TelemetryModule&#45;&gt;AppModule -->
<g id="edge7" class="edge">
<title>TelemetryModule&#45;&gt;AppModule</title>
<path fill="none" stroke="black" d="M253,-122.13C253,-142.57 253,-173 253,-173 253,-173 657.32,-173 657.32,-173"/>
<polygon fill="black" stroke="black" points="657.32,-176.5 667.32,-173 657.32,-169.5 657.32,-176.5"/>
</g>
<!-- UserOnboardingModule -->
<g id="node9" class="node">
<title>UserOnboardingModule</title>
<polygon fill="#8dd3c7" stroke="black" points="176.35,-122 173.35,-126 152.35,-126 149.35,-122 23.65,-122 23.65,-86 176.35,-86 176.35,-122"/>
<text text-anchor="middle" x="100" y="-99.8" font-family="Times,serif" font-size="14.00">UserOnboardingModule</text>
</g>
<!-- UserOnboardingModule&#45;&gt;AppModule -->
<g id="edge8" class="edge">
<title>UserOnboardingModule&#45;&gt;AppModule</title>
<path fill="none" stroke="black" d="M100,-122.01C100,-144.49 100,-180 100,-180 100,-180 657.14,-180 657.14,-180"/>
<polygon fill="black" stroke="black" points="657.14,-183.5 667.14,-180 657.14,-176.5 657.14,-183.5"/>
</g>
<!-- CacheService -->
<g id="node11" class="node">
<title>CacheService</title>
<ellipse fill="#fdb462" stroke="black" cx="1279" cy="-104" rx="64.24" ry="18"/>
<text text-anchor="middle" x="1279" y="-99.8" font-family="Times,serif" font-size="14.00">CacheService</text>
</g>
<!-- CacheService&#45;&gt;AppModule -->
<g id="edge10" class="edge">
<title>CacheService&#45;&gt;AppModule</title>
<path fill="none" stroke="black" d="M1279,-122.13C1279,-142.57 1279,-173 1279,-173 1279,-173 760.91,-173 760.91,-173"/>
<polygon fill="black" stroke="black" points="760.91,-169.5 750.91,-173 760.91,-176.5 760.91,-169.5"/>
</g>
<!-- SessionExpiryInterceptor -->
<g id="node12" class="node">
<title>SessionExpiryInterceptor</title>
<ellipse fill="#fdb462" stroke="black" cx="1088" cy="-104" rx="109.37" ry="18"/>
<text text-anchor="middle" x="1088" y="-99.8" font-family="Times,serif" font-size="14.00">SessionExpiryInterceptor</text>
</g>
<!-- SessionExpiryInterceptor&#45;&gt;AppModule -->
<g id="edge11" class="edge">
<title>SessionExpiryInterceptor&#45;&gt;AppModule</title>
<path fill="none" stroke="black" d="M1088,-122.27C1088,-140.56 1088,-166 1088,-166 1088,-166 761.01,-166 761.01,-166"/>
<polygon fill="black" stroke="black" points="761.01,-162.5 751.01,-166 761.01,-169.5 761.01,-162.5"/>
</g>
</g>
</svg>
