<?xml version="1.0" encoding="UTF-8" standalone="no"?>
<!DOCTYPE svg PUBLIC "-//W3C//DTD SVG 1.1//EN"
 "http://www.w3.org/Graphics/SVG/1.1/DTD/svg11.dtd">
<!-- Generated by graphviz version 2.47.0 (20210316.0004)
 -->
<!-- Title: dependencies Pages: 1 -->
<svg width="1956pt" height="284pt"
 viewBox="0.00 0.00 1956.00 284.00" xmlns="http://www.w3.org/2000/svg" xmlns:xlink="http://www.w3.org/1999/xlink">
<g id="graph0" class="graph" transform="scale(1 1) rotate(0) translate(4 280)">
<title>dependencies</title>
<polygon fill="white" stroke="transparent" points="-4,4 -4,-280 1952,-280 1952,4 -4,4"/>
<text text-anchor="start" x="953.01" y="-42.4" font-family="Times-12" font-weight="bold" font-size="14.00">Legend</text>
<polygon fill="#ffffb3" stroke="transparent" points="740,-10 740,-30 760,-30 760,-10 740,-10"/>
<text text-anchor="start" x="763.63" y="-15.4" font-family="Times-12" font-size="14.00"> &#160;Declarations</text>
<polygon fill="#8dd3c7" stroke="transparent" points="853,-10 853,-30 873,-30 873,-10 853,-10"/>
<text text-anchor="start" x="876.73" y="-15.4" font-family="Times-12" font-size="14.00"> &#160;Module</text>
<polygon fill="#80b1d3" stroke="transparent" points="939,-10 939,-30 959,-30 959,-10 939,-10"/>
<text text-anchor="start" x="962.78" y="-15.4" font-family="Times-12" font-size="14.00"> &#160;Bootstrap</text>
<polygon fill="#fdb462" stroke="transparent" points="1036,-10 1036,-30 1056,-30 1056,-10 1036,-10"/>
<text text-anchor="start" x="1059.67" y="-15.4" font-family="Times-12" font-size="14.00"> &#160;Providers</text>
<polygon fill="#fb8072" stroke="transparent" points="1132,-10 1132,-30 1152,-30 1152,-10 1132,-10"/>
<text text-anchor="start" x="1155.73" y="-15.4" font-family="Times-12" font-size="14.00"> &#160;Exports</text>
<g id="clust1" class="cluster">
<title>cluster_PipesModule</title>
<polygon fill="none" stroke="black" stroke-dasharray="1,5" points="8,-70 8,-268 1940,-268 1940,-70 8,-70"/>
</g>
<g id="clust2" class="cluster">
<title>cluster_PipesModule_declarations</title>
<polygon fill="none" stroke="black" points="43,-78 43,-130 1907,-130 1907,-78 43,-78"/>
</g>
<g id="clust19" class="cluster">
<title>cluster_PipesModule_exports</title>
<polygon fill="none" stroke="black" points="16,-208 16,-260 1932,-260 1932,-208 16,-208"/>
</g>
<!-- AliasBoardName -->
<g id="node1" class="node">
<title>AliasBoardName</title>
<polygon fill="#ffffb3" stroke="black" points="1898.69,-122 1785.31,-122 1785.31,-86 1898.69,-86 1898.69,-122"/>
<text text-anchor="middle" x="1842" y="-99.8" font-family="Times,serif" font-size="14.00">AliasBoardName</text>
</g>
<!-- PipesModule -->
<g id="node16" class="node">
<title>PipesModule</title>
<polygon fill="#8dd3c7" stroke="black" points="1085.88,-187 1082.88,-191 1061.88,-191 1058.88,-187 996.12,-187 996.12,-151 1085.88,-151 1085.88,-187"/>
<text text-anchor="middle" x="1041" y="-164.8" font-family="Times,serif" font-size="14.00">PipesModule</text>
</g>
<!-- AliasBoardName&#45;&gt;PipesModule -->
<g id="edge1" class="edge">
<title>AliasBoardName&#45;&gt;PipesModule</title>
<path fill="none" stroke="black" d="M1798.73,-122.17C1798.73,-141.09 1798.73,-168 1798.73,-168 1798.73,-168 1096.13,-168 1096.13,-168"/>
<polygon fill="black" stroke="black" points="1096.13,-164.5 1086.13,-168 1096.13,-171.5 1096.13,-164.5"/>
</g>
<!-- CSAPipe -->
<g id="node2" class="node">
<title>CSAPipe</title>
<polygon fill="#ffffb3" stroke="black" points="1767.11,-122 1698.89,-122 1698.89,-86 1767.11,-86 1767.11,-122"/>
<text text-anchor="middle" x="1733" y="-99.8" font-family="Times,serif" font-size="14.00">CSAPipe</text>
</g>
<!-- CSAPipe&#45;&gt;PipesModule -->
<g id="edge2" class="edge">
<title>CSAPipe&#45;&gt;PipesModule</title>
<path fill="none" stroke="black" d="M1709.01,-122.27C1709.01,-140.56 1709.01,-166 1709.01,-166 1709.01,-166 1096.13,-166 1096.13,-166"/>
<polygon fill="black" stroke="black" points="1096.13,-162.5 1086.13,-166 1096.13,-169.5 1096.13,-162.5"/>
</g>
<!-- CategoryKeyTranslator -->
<g id="node3" class="node">
<title>CategoryKeyTranslator</title>
<polygon fill="#ffffb3" stroke="black" points="1681.17,-122 1532.83,-122 1532.83,-86 1681.17,-86 1681.17,-122"/>
<text text-anchor="middle" x="1607" y="-99.8" font-family="Times,serif" font-size="14.00">CategoryKeyTranslator</text>
</g>
<!-- CategoryKeyTranslator&#45;&gt;PipesModule -->
<g id="edge3" class="edge">
<title>CategoryKeyTranslator&#45;&gt;PipesModule</title>
<path fill="none" stroke="black" d="M1540.54,-122.02C1540.54,-139.37 1540.54,-163 1540.54,-163 1540.54,-163 1096.21,-163 1096.21,-163"/>
<polygon fill="black" stroke="black" points="1096.21,-159.5 1086.21,-163 1096.21,-166.5 1096.21,-159.5"/>
</g>
<!-- CategoryPipe -->
<g id="node4" class="node">
<title>CategoryPipe</title>
<polygon fill="#ffffb3" stroke="black" points="1515.21,-122 1422.79,-122 1422.79,-86 1515.21,-86 1515.21,-122"/>
<text text-anchor="middle" x="1469" y="-99.8" font-family="Times,serif" font-size="14.00">CategoryPipe</text>
</g>
<!-- CategoryPipe&#45;&gt;PipesModule -->
<g id="edge4" class="edge">
<title>CategoryPipe&#45;&gt;PipesModule</title>
<path fill="none" stroke="black" d="M1428.52,-122.04C1428.52,-138.73 1428.52,-161 1428.52,-161 1428.52,-161 1096.21,-161 1096.21,-161"/>
<polygon fill="black" stroke="black" points="1096.21,-157.5 1086.21,-161 1096.21,-164.5 1096.21,-157.5"/>
</g>
<!-- DateAgoPipe -->
<g id="node5" class="node">
<title>DateAgoPipe</title>
<polygon fill="#ffffb3" stroke="black" points="1404.92,-122 1313.08,-122 1313.08,-86 1404.92,-86 1404.92,-122"/>
<text text-anchor="middle" x="1359" y="-99.8" font-family="Times,serif" font-size="14.00">DateAgoPipe</text>
</g>
<!-- DateAgoPipe&#45;&gt;PipesModule -->
<g id="edge5" class="edge">
<title>DateAgoPipe&#45;&gt;PipesModule</title>
<path fill="none" stroke="black" d="M1317.41,-122.01C1317.41,-138.05 1317.41,-159 1317.41,-159 1317.41,-159 1096.03,-159 1096.03,-159"/>
<polygon fill="black" stroke="black" points="1096.03,-155.5 1086.03,-159 1096.03,-162.5 1096.03,-155.5"/>
</g>
<!-- FileSizePipe -->
<g id="node6" class="node">
<title>FileSizePipe</title>
<polygon fill="#ffffb3" stroke="black" points="1295.27,-122 1208.73,-122 1208.73,-86 1295.27,-86 1295.27,-122"/>
<text text-anchor="middle" x="1252" y="-99.8" font-family="Times,serif" font-size="14.00">FileSizePipe</text>
</g>
<!-- FileSizePipe&#45;&gt;PipesModule -->
<g id="edge6" class="edge">
<title>FileSizePipe&#45;&gt;PipesModule</title>
<path fill="none" stroke="black" d="M1267.88,-122.19C1267.88,-137.18 1267.88,-156 1267.88,-156 1267.88,-156 1096.1,-156 1096.1,-156"/>
<polygon fill="black" stroke="black" points="1096.1,-152.5 1086.1,-156 1096.1,-159.5 1096.1,-152.5"/>
</g>
<!-- FilterPipe -->
<g id="node7" class="node">
<title>FilterPipe</title>
<polygon fill="#ffffb3" stroke="black" points="1190.72,-122 1119.28,-122 1119.28,-86 1190.72,-86 1190.72,-122"/>
<text text-anchor="middle" x="1155" y="-99.8" font-family="Times,serif" font-size="14.00">FilterPipe</text>
</g>
<!-- FilterPipe&#45;&gt;PipesModule -->
<g id="edge7" class="edge">
<title>FilterPipe&#45;&gt;PipesModule</title>
<path fill="none" stroke="black" d="M1167.29,-122.05C1167.29,-136.37 1167.29,-154 1167.29,-154 1167.29,-154 1096.24,-154 1096.24,-154"/>
<polygon fill="black" stroke="black" points="1096.24,-150.5 1086.24,-154 1096.24,-157.5 1096.24,-150.5"/>
</g>
<!-- ImageContentPipe -->
<g id="node8" class="node">
<title>ImageContentPipe</title>
<polygon fill="#ffffb3" stroke="black" points="1101.2,-122 980.8,-122 980.8,-86 1101.2,-86 1101.2,-122"/>
<text text-anchor="middle" x="1041" y="-99.8" font-family="Times,serif" font-size="14.00">ImageContentPipe</text>
</g>
<!-- ImageContentPipe&#45;&gt;PipesModule -->
<g id="edge8" class="edge">
<title>ImageContentPipe&#45;&gt;PipesModule</title>
<path fill="none" stroke="black" d="M1041,-122.11C1041,-122.11 1041,-140.99 1041,-140.99"/>
<polygon fill="black" stroke="black" points="1037.5,-140.99 1041,-150.99 1044.5,-140.99 1037.5,-140.99"/>
</g>
<!-- InitialPipe -->
<g id="node9" class="node">
<title>InitialPipe</title>
<polygon fill="#ffffb3" stroke="black" points="963.33,-122 888.67,-122 888.67,-86 963.33,-86 963.33,-122"/>
<text text-anchor="middle" x="926" y="-99.8" font-family="Times,serif" font-size="14.00">InitialPipe</text>
</g>
<!-- InitialPipe&#45;&gt;PipesModule -->
<g id="edge9" class="edge">
<title>InitialPipe&#45;&gt;PipesModule</title>
<path fill="none" stroke="black" d="M936.89,-122.05C936.89,-136.37 936.89,-154 936.89,-154 936.89,-154 985.94,-154 985.94,-154"/>
<polygon fill="black" stroke="black" points="985.94,-157.5 995.94,-154 985.94,-150.5 985.94,-157.5"/>
</g>
<!-- MimeTypePipe -->
<g id="node10" class="node">
<title>MimeTypePipe</title>
<polygon fill="#ffffb3" stroke="black" points="870.6,-122 767.4,-122 767.4,-86 870.6,-86 870.6,-122"/>
<text text-anchor="middle" x="819" y="-99.8" font-family="Times,serif" font-size="14.00">MimeTypePipe</text>
</g>
<!-- MimeTypePipe&#45;&gt;PipesModule -->
<g id="edge10" class="edge">
<title>MimeTypePipe&#45;&gt;PipesModule</title>
<path fill="none" stroke="black" d="M832.68,-122.19C832.68,-137.18 832.68,-156 832.68,-156 832.68,-156 986.05,-156 986.05,-156"/>
<polygon fill="black" stroke="black" points="986.05,-159.5 996.05,-156 986.05,-152.5 986.05,-159.5"/>
</g>
<!-- RandomColorMapPipe -->
<g id="node11" class="node">
<title>RandomColorMapPipe</title>
<polygon fill="#ffffb3" stroke="black" points="749.88,-122 604.12,-122 604.12,-86 749.88,-86 749.88,-122"/>
<text text-anchor="middle" x="677" y="-99.8" font-family="Times,serif" font-size="14.00">RandomColorMapPipe</text>
</g>
<!-- RandomColorMapPipe&#45;&gt;PipesModule -->
<g id="edge11" class="edge">
<title>RandomColorMapPipe&#45;&gt;PipesModule</title>
<path fill="none" stroke="black" d="M745.31,-122.01C745.31,-138.05 745.31,-159 745.31,-159 745.31,-159 986.09,-159 986.09,-159"/>
<polygon fill="black" stroke="black" points="986.09,-162.5 996.09,-159 986.09,-155.5 986.09,-162.5"/>
</g>
<!-- SortByPipe -->
<g id="node12" class="node">
<title>SortByPipe</title>
<polygon fill="#ffffb3" stroke="black" points="586.06,-122 505.94,-122 505.94,-86 586.06,-86 586.06,-122"/>
<text text-anchor="middle" x="546" y="-99.8" font-family="Times,serif" font-size="14.00">SortByPipe</text>
</g>
<!-- SortByPipe&#45;&gt;PipesModule -->
<g id="edge12" class="edge">
<title>SortByPipe&#45;&gt;PipesModule</title>
<path fill="none" stroke="black" d="M579.65,-122.04C579.65,-138.73 579.65,-161 579.65,-161 579.65,-161 985.92,-161 985.92,-161"/>
<polygon fill="black" stroke="black" points="985.92,-164.5 995.92,-161 985.92,-157.5 985.92,-164.5"/>
</g>
<!-- ThemeInputsSelectorPipe -->
<g id="node13" class="node">
<title>ThemeInputsSelectorPipe</title>
<polygon fill="#ffffb3" stroke="black" points="487.12,-122 326.88,-122 326.88,-86 487.12,-86 487.12,-122"/>
<text text-anchor="middle" x="407" y="-99.8" font-family="Times,serif" font-size="14.00">ThemeInputsSelectorPipe</text>
</g>
<!-- ThemeInputsSelectorPipe&#45;&gt;PipesModule -->
<g id="edge13" class="edge">
<title>ThemeInputsSelectorPipe&#45;&gt;PipesModule</title>
<path fill="none" stroke="black" d="M479.19,-122.02C479.19,-139.37 479.19,-163 479.19,-163 479.19,-163 985.97,-163 985.97,-163"/>
<polygon fill="black" stroke="black" points="985.97,-166.5 995.97,-163 985.97,-159.5 985.97,-166.5"/>
</g>
<!-- TranslateHtmlPipe -->
<g id="node14" class="node">
<title>TranslateHtmlPipe</title>
<polygon fill="#ffffb3" stroke="black" points="308.75,-122 187.25,-122 187.25,-86 308.75,-86 308.75,-122"/>
<text text-anchor="middle" x="248" y="-99.8" font-family="Times,serif" font-size="14.00">TranslateHtmlPipe</text>
</g>
<!-- TranslateHtmlPipe&#45;&gt;PipesModule -->
<g id="edge14" class="edge">
<title>TranslateHtmlPipe&#45;&gt;PipesModule</title>
<path fill="none" stroke="black" d="M297.78,-122.27C297.78,-140.56 297.78,-166 297.78,-166 297.78,-166 985.9,-166 985.9,-166"/>
<polygon fill="black" stroke="black" points="985.91,-169.5 995.9,-166 985.9,-162.5 985.91,-169.5"/>
</g>
<!-- TranslateJsonPipe -->
<g id="node15" class="node">
<title>TranslateJsonPipe</title>
<polygon fill="#ffffb3" stroke="black" points="168.86,-122 51.14,-122 51.14,-86 168.86,-86 168.86,-122"/>
<text text-anchor="middle" x="110" y="-99.8" font-family="Times,serif" font-size="14.00">TranslateJsonPipe</text>
</g>
<!-- TranslateJsonPipe&#45;&gt;PipesModule -->
<g id="edge15" class="edge">
<title>TranslateJsonPipe&#45;&gt;PipesModule</title>
<path fill="none" stroke="black" d="M154.53,-122.17C154.53,-141.09 154.53,-168 154.53,-168 154.53,-168 985.82,-168 985.82,-168"/>
<polygon fill="black" stroke="black" points="985.82,-171.5 995.82,-168 985.82,-164.5 985.82,-171.5"/>
</g>
<!-- AliasBoardName  -->
<g id="node17" class="node">
<title>AliasBoardName </title>
<polygon fill="#fb8072" stroke="black" points="1924.19,-252 1807.81,-252 1807.81,-216 1924.19,-216 1924.19,-252"/>
<text text-anchor="middle" x="1866" y="-229.8" font-family="Times,serif" font-size="14.00">AliasBoardName </text>
</g>
<!-- PipesModule&#45;&gt;AliasBoardName  -->
<g id="edge16" class="edge">
<title>PipesModule&#45;&gt;AliasBoardName </title>
<path fill="none" stroke="black" stroke-dasharray="5,2" d="M1086.11,-171C1256.75,-171 1853.12,-171 1853.12,-171 1853.12,-171 1853.12,-205.78 1853.12,-205.78"/>
<polygon fill="black" stroke="black" points="1849.63,-205.78 1853.12,-215.78 1856.63,-205.78 1849.63,-205.78"/>
</g>
<!-- CSAPipe  -->
<g id="node18" class="node">
<title>CSAPipe </title>
<polygon fill="#fb8072" stroke="black" points="1789.61,-252 1718.39,-252 1718.39,-216 1789.61,-216 1789.61,-252"/>
<text text-anchor="middle" x="1754" y="-229.8" font-family="Times,serif" font-size="14.00">CSAPipe </text>
</g>
<!-- PipesModule&#45;&gt;CSAPipe  -->
<g id="edge17" class="edge">
<title>PipesModule&#45;&gt;CSAPipe </title>
<path fill="none" stroke="black" stroke-dasharray="5,2" d="M1085.96,-173C1240.81,-173 1742.62,-173 1742.62,-173 1742.62,-173 1742.62,-205.7 1742.62,-205.7"/>
<polygon fill="black" stroke="black" points="1739.13,-205.7 1742.62,-215.7 1746.13,-205.7 1739.13,-205.7"/>
</g>
<!-- CategoryKeyTranslator  -->
<g id="node19" class="node">
<title>CategoryKeyTranslator </title>
<polygon fill="#fb8072" stroke="black" points="1699.67,-252 1548.33,-252 1548.33,-216 1699.67,-216 1699.67,-252"/>
<text text-anchor="middle" x="1624" y="-229.8" font-family="Times,serif" font-size="14.00">CategoryKeyTranslator </text>
</g>
<!-- PipesModule&#45;&gt;CategoryKeyTranslator  -->
<g id="edge18" class="edge">
<title>PipesModule&#45;&gt;CategoryKeyTranslator </title>
<path fill="none" stroke="black" stroke-dasharray="5,2" d="M1086.01,-175C1221.24,-175 1614.62,-175 1614.62,-175 1614.62,-175 1614.62,-205.98 1614.62,-205.98"/>
<polygon fill="black" stroke="black" points="1611.13,-205.98 1614.62,-215.98 1618.13,-205.98 1611.13,-205.98"/>
</g>
<!-- CategoryPipe  -->
<g id="node20" class="node">
<title>CategoryPipe </title>
<polygon fill="#fb8072" stroke="black" points="1529.71,-252 1434.29,-252 1434.29,-216 1529.71,-216 1529.71,-252"/>
<text text-anchor="middle" x="1482" y="-229.8" font-family="Times,serif" font-size="14.00">CategoryPipe </text>
</g>
<!-- PipesModule&#45;&gt;CategoryPipe  -->
<g id="edge19" class="edge">
<title>PipesModule&#45;&gt;CategoryPipe </title>
<path fill="none" stroke="black" stroke-dasharray="5,2" d="M1086.18,-178C1197.24,-178 1474.62,-178 1474.62,-178 1474.62,-178 1474.62,-205.97 1474.62,-205.97"/>
<polygon fill="black" stroke="black" points="1471.13,-205.97 1474.62,-215.97 1478.13,-205.97 1471.13,-205.97"/>
</g>
<!-- DateAgoPipe  -->
<g id="node21" class="node">
<title>DateAgoPipe </title>
<polygon fill="#fb8072" stroke="black" points="1416.42,-252 1321.58,-252 1321.58,-216 1416.42,-216 1416.42,-252"/>
<text text-anchor="middle" x="1369" y="-229.8" font-family="Times,serif" font-size="14.00">DateAgoPipe </text>
</g>
<!-- PipesModule&#45;&gt;DateAgoPipe  -->
<g id="edge20" class="edge">
<title>PipesModule&#45;&gt;DateAgoPipe </title>
<path fill="none" stroke="black" stroke-dasharray="5,2" d="M1086.13,-180C1174.78,-180 1363.12,-180 1363.12,-180 1363.12,-180 1363.12,-205.72 1363.12,-205.72"/>
<polygon fill="black" stroke="black" points="1359.63,-205.72 1363.12,-215.72 1366.63,-205.72 1359.63,-205.72"/>
</g>
<!-- FileSizePipe  -->
<g id="node22" class="node">
<title>FileSizePipe </title>
<polygon fill="#fb8072" stroke="black" points="1303.27,-252 1212.73,-252 1212.73,-216 1303.27,-216 1303.27,-252"/>
<text text-anchor="middle" x="1258" y="-229.8" font-family="Times,serif" font-size="14.00">FileSizePipe </text>
</g>
<!-- PipesModule&#45;&gt;FileSizePipe  -->
<g id="edge21" class="edge">
<title>PipesModule&#45;&gt;FileSizePipe </title>
<path fill="none" stroke="black" stroke-dasharray="5,2" d="M1086.24,-183C1145.06,-183 1240.37,-183 1240.37,-183 1240.37,-183 1240.37,-205.88 1240.37,-205.88"/>
<polygon fill="black" stroke="black" points="1236.87,-205.88 1240.37,-215.88 1243.87,-205.88 1236.87,-205.88"/>
</g>
<!-- FilterPipe  -->
<g id="node23" class="node">
<title>FilterPipe </title>
<polygon fill="#fb8072" stroke="black" points="1195.22,-252 1120.78,-252 1120.78,-216 1195.22,-216 1195.22,-252"/>
<text text-anchor="middle" x="1158" y="-229.8" font-family="Times,serif" font-size="14.00">FilterPipe </text>
</g>
<!-- PipesModule&#45;&gt;FilterPipe  -->
<g id="edge22" class="edge">
<title>PipesModule&#45;&gt;FilterPipe </title>
<path fill="none" stroke="black" stroke-dasharray="5,2" d="M1086.16,-185C1113.83,-185 1143.96,-185 1143.96,-185 1143.96,-185 1143.96,-205.75 1143.96,-205.75"/>
<polygon fill="black" stroke="black" points="1140.46,-205.75 1143.96,-215.75 1147.46,-205.75 1140.46,-205.75"/>
</g>
<!-- ImageContentPipe  -->
<g id="node24" class="node">
<title>ImageContentPipe </title>
<polygon fill="#fb8072" stroke="black" points="1102.7,-252 979.3,-252 979.3,-216 1102.7,-216 1102.7,-252"/>
<text text-anchor="middle" x="1041" y="-229.8" font-family="Times,serif" font-size="14.00">ImageContentPipe </text>
</g>
<!-- PipesModule&#45;&gt;ImageContentPipe  -->
<g id="edge23" class="edge">
<title>PipesModule&#45;&gt;ImageContentPipe </title>
<path fill="none" stroke="black" stroke-dasharray="5,2" d="M1041,-187.11C1041,-187.11 1041,-205.99 1041,-205.99"/>
<polygon fill="black" stroke="black" points="1037.5,-205.99 1041,-215.99 1044.5,-205.99 1037.5,-205.99"/>
</g>
<!-- InitialPipe  -->
<g id="node25" class="node">
<title>InitialPipe </title>
<polygon fill="#fb8072" stroke="black" points="960.83,-252 883.17,-252 883.17,-216 960.83,-216 960.83,-252"/>
<text text-anchor="middle" x="922" y="-229.8" font-family="Times,serif" font-size="14.00">InitialPipe </text>
</g>
<!-- PipesModule&#45;&gt;InitialPipe  -->
<g id="edge24" class="edge">
<title>PipesModule&#45;&gt;InitialPipe </title>
<path fill="none" stroke="black" stroke-dasharray="5,2" d="M995.82,-185C958.93,-185 912.86,-185 912.86,-185 912.86,-185 912.86,-205.75 912.86,-205.75"/>
<polygon fill="black" stroke="black" points="909.36,-205.75 912.86,-215.75 916.36,-205.75 909.36,-205.75"/>
</g>
<!-- MimeTypePipe  -->
<g id="node26" class="node">
<title>MimeTypePipe </title>
<polygon fill="#fb8072" stroke="black" points="865.1,-252 758.9,-252 758.9,-216 865.1,-216 865.1,-252"/>
<text text-anchor="middle" x="812" y="-229.8" font-family="Times,serif" font-size="14.00">MimeTypePipe </text>
</g>
<!-- PipesModule&#45;&gt;MimeTypePipe  -->
<g id="edge25" class="edge">
<title>PipesModule&#45;&gt;MimeTypePipe </title>
<path fill="none" stroke="black" stroke-dasharray="5,2" d="M995.97,-183C926.23,-183 800.07,-183 800.07,-183 800.07,-183 800.07,-205.88 800.07,-205.88"/>
<polygon fill="black" stroke="black" points="796.57,-205.88 800.07,-215.88 803.57,-205.88 796.57,-205.88"/>
</g>
<!-- RandomColorMapPipe  -->
<g id="node27" class="node">
<title>RandomColorMapPipe </title>
<polygon fill="#fb8072" stroke="black" points="740.88,-252 591.12,-252 591.12,-216 740.88,-216 740.88,-252"/>
<text text-anchor="middle" x="666" y="-229.8" font-family="Times,serif" font-size="14.00">RandomColorMapPipe </text>
</g>
<!-- PipesModule&#45;&gt;RandomColorMapPipe  -->
<g id="edge26" class="edge">
<title>PipesModule&#45;&gt;RandomColorMapPipe </title>
<path fill="none" stroke="black" stroke-dasharray="5,2" d="M995.8,-180C897.37,-180 672.38,-180 672.38,-180 672.38,-180 672.38,-205.72 672.38,-205.72"/>
<polygon fill="black" stroke="black" points="668.88,-205.72 672.38,-215.72 675.88,-205.72 668.88,-205.72"/>
</g>
<!-- SortByPipe  -->
<g id="node28" class="node">
<title>SortByPipe </title>
<polygon fill="#fb8072" stroke="black" points="573.06,-252 488.94,-252 488.94,-216 573.06,-216 573.06,-252"/>
<text text-anchor="middle" x="531" y="-229.8" font-family="Times,serif" font-size="14.00">SortByPipe </text>
</g>
<!-- PipesModule&#45;&gt;SortByPipe  -->
<g id="edge27" class="edge">
<title>PipesModule&#45;&gt;SortByPipe </title>
<path fill="none" stroke="black" stroke-dasharray="5,2" d="M996.04,-178C872.92,-178 539.38,-178 539.38,-178 539.38,-178 539.38,-205.97 539.38,-205.97"/>
<polygon fill="black" stroke="black" points="535.88,-205.97 539.38,-215.97 542.88,-205.97 535.88,-205.97"/>
</g>
<!-- ThemeInputsSelectorPipe  -->
<g id="node29" class="node">
<title>ThemeInputsSelectorPipe </title>
<polygon fill="#fb8072" stroke="black" points="471.12,-252 306.88,-252 306.88,-216 471.12,-216 471.12,-252"/>
<text text-anchor="middle" x="389" y="-229.8" font-family="Times,serif" font-size="14.00">ThemeInputsSelectorPipe </text>
</g>
<!-- PipesModule&#45;&gt;ThemeInputsSelectorPipe  -->
<g id="edge28" class="edge">
<title>PipesModule&#45;&gt;ThemeInputsSelectorPipe </title>
<path fill="none" stroke="black" stroke-dasharray="5,2" d="M996.1,-175C850.21,-175 398.88,-175 398.88,-175 398.88,-175 398.88,-205.98 398.88,-205.98"/>
<polygon fill="black" stroke="black" points="395.38,-205.98 398.88,-215.98 402.38,-205.98 395.38,-205.98"/>
</g>
<!-- TranslateHtmlPipe  -->
<g id="node30" class="node">
<title>TranslateHtmlPipe </title>
<polygon fill="#fb8072" stroke="black" points="288.75,-252 163.25,-252 163.25,-216 288.75,-216 288.75,-252"/>
<text text-anchor="middle" x="226" y="-229.8" font-family="Times,serif" font-size="14.00">TranslateHtmlPipe </text>
</g>
<!-- PipesModule&#45;&gt;TranslateHtmlPipe  -->
<g id="edge29" class="edge">
<title>PipesModule&#45;&gt;TranslateHtmlPipe </title>
<path fill="none" stroke="black" stroke-dasharray="5,2" d="M996.1,-173C826.97,-173 237.88,-173 237.88,-173 237.88,-173 237.88,-205.7 237.88,-205.7"/>
<polygon fill="black" stroke="black" points="234.38,-205.7 237.88,-215.7 241.38,-205.7 234.38,-205.7"/>
</g>
<!-- TranslateJsonPipe  -->
<g id="node31" class="node">
<title>TranslateJsonPipe </title>
<polygon fill="#fb8072" stroke="black" points="145.86,-252 24.14,-252 24.14,-216 145.86,-216 145.86,-252"/>
<text text-anchor="middle" x="85" y="-229.8" font-family="Times,serif" font-size="14.00">TranslateJsonPipe </text>
</g>
<!-- PipesModule&#45;&gt;TranslateJsonPipe  -->
<g id="edge30" class="edge">
<title>PipesModule&#45;&gt;TranslateJsonPipe </title>
<path fill="none" stroke="black" stroke-dasharray="5,2" d="M995.85,-171C808.04,-171 98.38,-171 98.38,-171 98.38,-171 98.38,-205.78 98.38,-205.78"/>
<polygon fill="black" stroke="black" points="94.88,-205.78 98.38,-215.78 101.88,-205.78 94.88,-205.78"/>
</g>
</g>
</svg>
