<?xml version="1.0" encoding="UTF-8" standalone="no"?>
<!DOCTYPE svg PUBLIC "-//W3C//DTD SVG 1.1//EN"
 "http://www.w3.org/Graphics/SVG/1.1/DTD/svg11.dtd">
<!-- Generated by graphviz version 2.47.0 (20210316.0004)
 -->
<!-- Title: dependencies Pages: 1 -->
<svg width="576pt" height="211pt"
 viewBox="0.00 0.00 576.00 211.00" xmlns="http://www.w3.org/2000/svg" xmlns:xlink="http://www.w3.org/1999/xlink">
<g id="graph0" class="graph" transform="scale(1 1) rotate(0) translate(4 207)">
<title>dependencies</title>
<polygon fill="white" stroke="transparent" points="-4,4 -4,-207 572,-207 572,4 -4,4"/>
<text text-anchor="start" x="263.01" y="-42.4" font-family="Times-12" font-weight="bold" font-size="14.00">Legend</text>
<polygon fill="#ffffb3" stroke="transparent" points="50,-10 50,-30 70,-30 70,-10 50,-10"/>
<text text-anchor="start" x="73.63" y="-15.4" font-family="Times-12" font-size="14.00"> &#160;Declarations</text>
<polygon fill="#8dd3c7" stroke="transparent" points="163,-10 163,-30 183,-30 183,-10 163,-10"/>
<text text-anchor="start" x="186.73" y="-15.4" font-family="Times-12" font-size="14.00"> &#160;Module</text>
<polygon fill="#80b1d3" stroke="transparent" points="249,-10 249,-30 269,-30 269,-10 249,-10"/>
<text text-anchor="start" x="272.78" y="-15.4" font-family="Times-12" font-size="14.00"> &#160;Bootstrap</text>
<polygon fill="#fdb462" stroke="transparent" points="346,-10 346,-30 366,-30 366,-10 346,-10"/>
<text text-anchor="start" x="369.67" y="-15.4" font-family="Times-12" font-size="14.00"> &#160;Providers</text>
<polygon fill="#fb8072" stroke="transparent" points="442,-10 442,-30 462,-30 462,-10 442,-10"/>
<text text-anchor="start" x="465.73" y="-15.4" font-family="Times-12" font-size="14.00"> &#160;Exports</text>
<g id="clust1" class="cluster">
<title>cluster_EnrolledCourseDetailsPagePageModule</title>
<polygon fill="none" stroke="black" stroke-dasharray="1,5" points="8,-70 8,-195 560,-195 560,-70 8,-70"/>
</g>
<g id="clust2" class="cluster">
<title>cluster_EnrolledCourseDetailsPagePageModule_declarations</title>
<polygon fill="none" stroke="black" points="366,-78 366,-130 552,-130 552,-78 366,-78"/>
</g>
<g id="clust4" class="cluster">
<title>cluster_EnrolledCourseDetailsPagePageModule_imports</title>
<polygon fill="none" stroke="black" points="224,-78 224,-130 358,-130 358,-78 224,-78"/>
</g>
<g id="clust7" class="cluster">
<title>cluster_EnrolledCourseDetailsPagePageModule_providers</title>
<polygon fill="none" stroke="black" points="16,-78 16,-130 216,-130 216,-78 16,-78"/>
</g>
<!-- EnrolledCourseDetailsPage -->
<g id="node1" class="node">
<title>EnrolledCourseDetailsPage</title>
<polygon fill="#ffffb3" stroke="black" points="544.23,-122 373.77,-122 373.77,-86 544.23,-86 544.23,-122"/>
<text text-anchor="middle" x="459" y="-99.8" font-family="Times,serif" font-size="14.00">EnrolledCourseDetailsPage</text>
</g>
<!-- EnrolledCourseDetailsPagePageModule -->
<g id="node2" class="node">
<title>EnrolledCourseDetailsPagePageModule</title>
<polygon fill="#8dd3c7" stroke="black" points="411.99,-187 408.99,-191 387.99,-191 384.99,-187 170.01,-187 170.01,-151 411.99,-151 411.99,-187"/>
<text text-anchor="middle" x="291" y="-164.8" font-family="Times,serif" font-size="14.00">EnrolledCourseDetailsPagePageModule</text>
</g>
<!-- EnrolledCourseDetailsPage&#45;&gt;EnrolledCourseDetailsPagePageModule -->
<g id="edge1" class="edge">
<title>EnrolledCourseDetailsPage&#45;&gt;EnrolledCourseDetailsPagePageModule</title>
<path fill="none" stroke="black" d="M392.69,-122.11C392.69,-122.11 392.69,-140.99 392.69,-140.99"/>
<polygon fill="black" stroke="black" points="389.19,-140.99 392.69,-150.99 396.19,-140.99 389.19,-140.99"/>
</g>
<!-- DirectivesModule -->
<g id="node3" class="node">
<title>DirectivesModule</title>
<polygon fill="#8dd3c7" stroke="black" points="349.58,-122 346.58,-126 325.58,-126 322.58,-122 232.42,-122 232.42,-86 349.58,-86 349.58,-122"/>
<text text-anchor="middle" x="291" y="-99.8" font-family="Times,serif" font-size="14.00">DirectivesModule</text>
</g>
<!-- DirectivesModule&#45;&gt;EnrolledCourseDetailsPagePageModule -->
<g id="edge2" class="edge">
<title>DirectivesModule&#45;&gt;EnrolledCourseDetailsPagePageModule</title>
<path fill="none" stroke="black" d="M291,-122.11C291,-122.11 291,-140.99 291,-140.99"/>
<polygon fill="black" stroke="black" points="287.5,-140.99 291,-150.99 294.5,-140.99 287.5,-140.99"/>
</g>
<!-- TextbookTocService -->
<g id="node4" class="node">
<title>TextbookTocService</title>
<ellipse fill="#fdb462" stroke="black" cx="116" cy="-104" rx="92.04" ry="18"/>
<text text-anchor="middle" x="116" y="-99.8" font-family="Times,serif" font-size="14.00">TextbookTocService</text>
</g>
<!-- TextbookTocService&#45;&gt;EnrolledCourseDetailsPagePageModule -->
<g id="edge3" class="edge">
<title>TextbookTocService&#45;&gt;EnrolledCourseDetailsPagePageModule</title>
<path fill="none" stroke="black" d="M189.14,-115.03C189.14,-115.03 189.14,-140.78 189.14,-140.78"/>
<polygon fill="black" stroke="black" points="185.64,-140.78 189.14,-150.78 192.64,-140.78 185.64,-140.78"/>
</g>
</g>
</svg>
