<?xml version="1.0" encoding="UTF-8" standalone="no"?>
<!DOCTYPE svg PUBLIC "-//W3C//DTD SVG 1.1//EN"
 "http://www.w3.org/Graphics/SVG/1.1/DTD/svg11.dtd">
<!-- Generated by graphviz version 2.47.0 (20210316.0004)
 -->
<!-- Title: dependencies Pages: 1 -->
<svg width="1094pt" height="211pt"
 viewBox="0.00 0.00 1094.00 211.00" xmlns="http://www.w3.org/2000/svg" xmlns:xlink="http://www.w3.org/1999/xlink">
<g id="graph0" class="graph" transform="scale(1 1) rotate(0) translate(4 207)">
<title>dependencies</title>
<polygon fill="white" stroke="transparent" points="-4,4 -4,-207 1090,-207 1090,4 -4,4"/>
<text text-anchor="start" x="522.01" y="-42.4" font-family="Times-12" font-weight="bold" font-size="14.00">Legend</text>
<polygon fill="#ffffb3" stroke="transparent" points="309,-10 309,-30 329,-30 329,-10 309,-10"/>
<text text-anchor="start" x="332.63" y="-15.4" font-family="Times-12" font-size="14.00"> &#160;Declarations</text>
<polygon fill="#8dd3c7" stroke="transparent" points="422,-10 422,-30 442,-30 442,-10 422,-10"/>
<text text-anchor="start" x="445.73" y="-15.4" font-family="Times-12" font-size="14.00"> &#160;Module</text>
<polygon fill="#80b1d3" stroke="transparent" points="508,-10 508,-30 528,-30 528,-10 508,-10"/>
<text text-anchor="start" x="531.78" y="-15.4" font-family="Times-12" font-size="14.00"> &#160;Bootstrap</text>
<polygon fill="#fdb462" stroke="transparent" points="605,-10 605,-30 625,-30 625,-10 605,-10"/>
<text text-anchor="start" x="628.67" y="-15.4" font-family="Times-12" font-size="14.00"> &#160;Providers</text>
<polygon fill="#fb8072" stroke="transparent" points="701,-10 701,-30 721,-30 721,-10 701,-10"/>
<text text-anchor="start" x="724.73" y="-15.4" font-family="Times-12" font-size="14.00"> &#160;Exports</text>
<g id="clust1" class="cluster">
<title>cluster_ObservationModule</title>
<polygon fill="none" stroke="black" stroke-dasharray="1,5" points="8,-70 8,-195 1078,-195 1078,-70 8,-70"/>
</g>
<g id="clust6" class="cluster">
<title>cluster_ObservationModule_imports</title>
<polygon fill="none" stroke="black" points="660,-78 660,-130 1070,-130 1070,-78 660,-78"/>
</g>
<g id="clust2" class="cluster">
<title>cluster_ObservationModule_declarations</title>
<polygon fill="none" stroke="black" points="16,-78 16,-130 652,-130 652,-78 16,-78"/>
</g>
<!-- ObservationDetailComponent -->
<g id="node1" class="node">
<title>ObservationDetailComponent</title>
<polygon fill="#ffffb3" stroke="black" points="643.96,-122 460.04,-122 460.04,-86 643.96,-86 643.96,-122"/>
<text text-anchor="middle" x="552" y="-99.8" font-family="Times,serif" font-size="14.00">ObservationDetailComponent</text>
</g>
<!-- ObservationModule -->
<g id="node4" class="node">
<title>ObservationModule</title>
<polygon fill="#8dd3c7" stroke="black" points="697.97,-187 694.97,-191 673.97,-191 670.97,-187 570.03,-187 570.03,-151 697.97,-151 697.97,-187"/>
<text text-anchor="middle" x="634" y="-164.8" font-family="Times,serif" font-size="14.00">ObservationModule</text>
</g>
<!-- ObservationDetailComponent&#45;&gt;ObservationModule -->
<g id="edge1" class="edge">
<title>ObservationDetailComponent&#45;&gt;ObservationModule</title>
<path fill="none" stroke="black" d="M607,-122.11C607,-122.11 607,-140.99 607,-140.99"/>
<polygon fill="black" stroke="black" points="603.5,-140.99 607,-150.99 610.5,-140.99 603.5,-140.99"/>
</g>
<!-- ObservationHomeComponent -->
<g id="node2" class="node">
<title>ObservationHomeComponent</title>
<polygon fill="#ffffb3" stroke="black" points="441.97,-122 258.03,-122 258.03,-86 441.97,-86 441.97,-122"/>
<text text-anchor="middle" x="350" y="-99.8" font-family="Times,serif" font-size="14.00">ObservationHomeComponent</text>
</g>
<!-- ObservationHomeComponent&#45;&gt;ObservationModule -->
<g id="edge2" class="edge">
<title>ObservationHomeComponent&#45;&gt;ObservationModule</title>
<path fill="none" stroke="black" d="M350,-122.02C350,-139.37 350,-163 350,-163 350,-163 559.91,-163 559.91,-163"/>
<polygon fill="black" stroke="black" points="559.91,-166.5 569.91,-163 559.91,-159.5 559.91,-166.5"/>
</g>
<!-- ObservationSubmissionComponent -->
<g id="node3" class="node">
<title>ObservationSubmissionComponent</title>
<polygon fill="#ffffb3" stroke="black" points="239.6,-122 24.4,-122 24.4,-86 239.6,-86 239.6,-122"/>
<text text-anchor="middle" x="132" y="-99.8" font-family="Times,serif" font-size="14.00">ObservationSubmissionComponent</text>
</g>
<!-- ObservationSubmissionComponent&#45;&gt;ObservationModule -->
<g id="edge3" class="edge">
<title>ObservationSubmissionComponent&#45;&gt;ObservationModule</title>
<path fill="none" stroke="black" d="M132,-122.28C132,-143.32 132,-175 132,-175 132,-175 559.91,-175 559.91,-175"/>
<polygon fill="black" stroke="black" points="559.91,-178.5 569.91,-175 559.91,-171.5 559.91,-178.5"/>
</g>
<!-- CoreModule -->
<g id="node5" class="node">
<title>CoreModule</title>
<polygon fill="#8dd3c7" stroke="black" points="1062.26,-122 1059.26,-126 1038.26,-126 1035.26,-122 975.74,-122 975.74,-86 1062.26,-86 1062.26,-122"/>
<text text-anchor="middle" x="1019" y="-99.8" font-family="Times,serif" font-size="14.00">CoreModule</text>
</g>
<!-- CoreModule&#45;&gt;ObservationModule -->
<g id="edge4" class="edge">
<title>CoreModule&#45;&gt;ObservationModule</title>
<path fill="none" stroke="black" d="M1019,-122.28C1019,-143.32 1019,-175 1019,-175 1019,-175 708.01,-175 708.01,-175"/>
<polygon fill="black" stroke="black" points="708.01,-171.5 698.01,-175 708.01,-178.5 708.01,-171.5"/>
</g>
<!-- ObservationRoutingModule -->
<g id="node6" class="node">
<title>ObservationRoutingModule</title>
<polygon fill="#8dd3c7" stroke="black" points="957.59,-122 954.59,-126 933.59,-126 930.59,-122 784.41,-122 784.41,-86 957.59,-86 957.59,-122"/>
<text text-anchor="middle" x="871" y="-99.8" font-family="Times,serif" font-size="14.00">ObservationRoutingModule</text>
</g>
<!-- ObservationRoutingModule&#45;&gt;ObservationModule -->
<g id="edge5" class="edge">
<title>ObservationRoutingModule&#45;&gt;ObservationModule</title>
<path fill="none" stroke="black" d="M871,-122.02C871,-139.37 871,-163 871,-163 871,-163 708.14,-163 708.14,-163"/>
<polygon fill="black" stroke="black" points="708.14,-159.5 698.14,-163 708.14,-166.5 708.14,-159.5"/>
</g>
<!-- SharedModule -->
<g id="node7" class="node">
<title>SharedModule</title>
<polygon fill="#8dd3c7" stroke="black" points="766.42,-122 763.42,-126 742.42,-126 739.42,-122 667.58,-122 667.58,-86 766.42,-86 766.42,-122"/>
<text text-anchor="middle" x="717" y="-99.8" font-family="Times,serif" font-size="14.00">SharedModule</text>
</g>
<!-- SharedModule&#45;&gt;ObservationModule -->
<g id="edge6" class="edge">
<title>SharedModule&#45;&gt;ObservationModule</title>
<path fill="none" stroke="black" d="M682.89,-122.11C682.89,-122.11 682.89,-140.99 682.89,-140.99"/>
<polygon fill="black" stroke="black" points="679.39,-140.99 682.89,-150.99 686.39,-140.99 679.39,-140.99"/>
</g>
</g>
</svg>
