<?xml version="1.0" encoding="UTF-8" standalone="no"?>
<!DOCTYPE svg PUBLIC "-//W3C//DTD SVG 1.1//EN"
 "http://www.w3.org/Graphics/SVG/1.1/DTD/svg11.dtd">
<!-- Generated by graphviz version 2.47.0 (20210316.0004)
 -->
<!-- Title: dependencies Pages: 1 -->
<svg width="791pt" height="211pt"
 viewBox="0.00 0.00 791.00 211.00" xmlns="http://www.w3.org/2000/svg" xmlns:xlink="http://www.w3.org/1999/xlink">
<g id="graph0" class="graph" transform="scale(1 1) rotate(0) translate(4 207)">
<title>dependencies</title>
<polygon fill="white" stroke="transparent" points="-4,4 -4,-207 787,-207 787,4 -4,4"/>
<text text-anchor="start" x="370.51" y="-42.4" font-family="Times-12" font-weight="bold" font-size="14.00">Legend</text>
<polygon fill="#ffffb3" stroke="transparent" points="157.5,-10 157.5,-30 177.5,-30 177.5,-10 157.5,-10"/>
<text text-anchor="start" x="181.13" y="-15.4" font-family="Times-12" font-size="14.00"> &#160;Declarations</text>
<polygon fill="#8dd3c7" stroke="transparent" points="270.5,-10 270.5,-30 290.5,-30 290.5,-10 270.5,-10"/>
<text text-anchor="start" x="294.23" y="-15.4" font-family="Times-12" font-size="14.00"> &#160;Module</text>
<polygon fill="#80b1d3" stroke="transparent" points="356.5,-10 356.5,-30 376.5,-30 376.5,-10 356.5,-10"/>
<text text-anchor="start" x="380.28" y="-15.4" font-family="Times-12" font-size="14.00"> &#160;Bootstrap</text>
<polygon fill="#fdb462" stroke="transparent" points="453.5,-10 453.5,-30 473.5,-30 473.5,-10 453.5,-10"/>
<text text-anchor="start" x="477.17" y="-15.4" font-family="Times-12" font-size="14.00"> &#160;Providers</text>
<polygon fill="#fb8072" stroke="transparent" points="549.5,-10 549.5,-30 569.5,-30 569.5,-10 549.5,-10"/>
<text text-anchor="start" x="573.23" y="-15.4" font-family="Times-12" font-size="14.00"> &#160;Exports</text>
<g id="clust1" class="cluster">
<title>cluster_QuestionnairePageModule</title>
<polygon fill="none" stroke="black" stroke-dasharray="1,5" points="8,-70 8,-195 775,-195 775,-70 8,-70"/>
</g>
<g id="clust6" class="cluster">
<title>cluster_QuestionnairePageModule_imports</title>
<polygon fill="none" stroke="black" points="548,-78 548,-130 767,-130 767,-78 548,-78"/>
</g>
<g id="clust2" class="cluster">
<title>cluster_QuestionnairePageModule_declarations</title>
<polygon fill="none" stroke="black" points="16,-78 16,-130 540,-130 540,-78 16,-78"/>
</g>
<!-- MatrixModalComponent -->
<g id="node1" class="node">
<title>MatrixModalComponent</title>
<polygon fill="#ffffb3" stroke="black" points="531.98,-122 376.02,-122 376.02,-86 531.98,-86 531.98,-122"/>
<text text-anchor="middle" x="454" y="-99.8" font-family="Times,serif" font-size="14.00">MatrixModalComponent</text>
</g>
<!-- QuestionnairePageModule -->
<g id="node4" class="node">
<title>QuestionnairePageModule</title>
<polygon fill="#8dd3c7" stroke="black" points="536.79,-187 533.79,-191 512.79,-191 509.79,-187 371.21,-187 371.21,-151 536.79,-151 536.79,-187"/>
<text text-anchor="middle" x="454" y="-164.8" font-family="Times,serif" font-size="14.00">QuestionnairePageModule</text>
</g>
<!-- MatrixModalComponent&#45;&gt;QuestionnairePageModule -->
<g id="edge1" class="edge">
<title>MatrixModalComponent&#45;&gt;QuestionnairePageModule</title>
<path fill="none" stroke="black" d="M454,-122.11C454,-122.11 454,-140.99 454,-140.99"/>
<polygon fill="black" stroke="black" points="450.5,-140.99 454,-150.99 457.5,-140.99 450.5,-140.99"/>
</g>
<!-- QuestionMapModalComponent -->
<g id="node2" class="node">
<title>QuestionMapModalComponent</title>
<polygon fill="#ffffb3" stroke="black" points="358.09,-122 163.91,-122 163.91,-86 358.09,-86 358.09,-122"/>
<text text-anchor="middle" x="261" y="-99.8" font-family="Times,serif" font-size="14.00">QuestionMapModalComponent</text>
</g>
<!-- QuestionMapModalComponent&#45;&gt;QuestionnairePageModule -->
<g id="edge2" class="edge">
<title>QuestionMapModalComponent&#45;&gt;QuestionnairePageModule</title>
<path fill="none" stroke="black" d="M261,-122.02C261,-139.37 261,-163 261,-163 261,-163 361.31,-163 361.31,-163"/>
<polygon fill="black" stroke="black" points="361.31,-166.5 371.31,-163 361.31,-159.5 361.31,-166.5"/>
</g>
<!-- QuestionnairePage -->
<g id="node3" class="node">
<title>QuestionnairePage</title>
<polygon fill="#ffffb3" stroke="black" points="145.74,-122 24.26,-122 24.26,-86 145.74,-86 145.74,-122"/>
<text text-anchor="middle" x="85" y="-99.8" font-family="Times,serif" font-size="14.00">QuestionnairePage</text>
</g>
<!-- QuestionnairePage&#45;&gt;QuestionnairePageModule -->
<g id="edge3" class="edge">
<title>QuestionnairePage&#45;&gt;QuestionnairePageModule</title>
<path fill="none" stroke="black" d="M85,-122.28C85,-143.32 85,-175 85,-175 85,-175 361.19,-175 361.19,-175"/>
<polygon fill="black" stroke="black" points="361.19,-178.5 371.19,-175 361.19,-171.5 361.19,-178.5"/>
</g>
<!-- CoreModule -->
<g id="node5" class="node">
<title>CoreModule</title>
<polygon fill="#8dd3c7" stroke="black" points="759.26,-122 756.26,-126 735.26,-126 732.26,-122 672.74,-122 672.74,-86 759.26,-86 759.26,-122"/>
<text text-anchor="middle" x="716" y="-99.8" font-family="Times,serif" font-size="14.00">CoreModule</text>
</g>
<!-- CoreModule&#45;&gt;QuestionnairePageModule -->
<g id="edge4" class="edge">
<title>CoreModule&#45;&gt;QuestionnairePageModule</title>
<path fill="none" stroke="black" d="M716,-122.28C716,-143.32 716,-175 716,-175 716,-175 546.9,-175 546.9,-175"/>
<polygon fill="black" stroke="black" points="546.9,-171.5 536.9,-175 546.9,-178.5 546.9,-171.5"/>
</g>
<!-- SharedModule -->
<g id="node6" class="node">
<title>SharedModule</title>
<polygon fill="#8dd3c7" stroke="black" points="654.42,-122 651.42,-126 630.42,-126 627.42,-122 555.58,-122 555.58,-86 654.42,-86 654.42,-122"/>
<text text-anchor="middle" x="605" y="-99.8" font-family="Times,serif" font-size="14.00">SharedModule</text>
</g>
<!-- SharedModule&#45;&gt;QuestionnairePageModule -->
<g id="edge5" class="edge">
<title>SharedModule&#45;&gt;QuestionnairePageModule</title>
<path fill="none" stroke="black" d="M605,-122.02C605,-139.37 605,-163 605,-163 605,-163 547.01,-163 547.01,-163"/>
<polygon fill="black" stroke="black" points="547.01,-159.5 537.01,-163 547.01,-166.5 547.01,-159.5"/>
</g>
</g>
</svg>
