<?xml version="1.0" encoding="UTF-8" standalone="no"?>
<!DOCTYPE svg PUBLIC "-//W3C//DTD SVG 1.1//EN"
 "http://www.w3.org/Graphics/SVG/1.1/DTD/svg11.dtd">
<!-- Generated by graphviz version 2.47.0 (20210316.0004)
 -->
<!-- Title: dependencies Pages: 1 -->
<svg width="504pt" height="211pt"
 viewBox="0.00 0.00 504.00 211.00" xmlns="http://www.w3.org/2000/svg" xmlns:xlink="http://www.w3.org/1999/xlink">
<g id="graph0" class="graph" transform="scale(1 1) rotate(0) translate(4 207)">
<title>dependencies</title>
<polygon fill="white" stroke="transparent" points="-4,4 -4,-207 500,-207 500,4 -4,4"/>
<text text-anchor="start" x="227.01" y="-42.4" font-family="Times-12" font-weight="bold" font-size="14.00">Legend</text>
<polygon fill="#ffffb3" stroke="transparent" points="14,-10 14,-30 34,-30 34,-10 14,-10"/>
<text text-anchor="start" x="37.63" y="-15.4" font-family="Times-12" font-size="14.00"> &#160;Declarations</text>
<polygon fill="#8dd3c7" stroke="transparent" points="127,-10 127,-30 147,-30 147,-10 127,-10"/>
<text text-anchor="start" x="150.73" y="-15.4" font-family="Times-12" font-size="14.00"> &#160;Module</text>
<polygon fill="#80b1d3" stroke="transparent" points="213,-10 213,-30 233,-30 233,-10 213,-10"/>
<text text-anchor="start" x="236.78" y="-15.4" font-family="Times-12" font-size="14.00"> &#160;Bootstrap</text>
<polygon fill="#fdb462" stroke="transparent" points="310,-10 310,-30 330,-30 330,-10 310,-10"/>
<text text-anchor="start" x="333.67" y="-15.4" font-family="Times-12" font-size="14.00"> &#160;Providers</text>
<polygon fill="#fb8072" stroke="transparent" points="406,-10 406,-30 426,-30 426,-10 406,-10"/>
<text text-anchor="start" x="429.73" y="-15.4" font-family="Times-12" font-size="14.00"> &#160;Exports</text>
<g id="clust1" class="cluster">
<title>cluster_ProjectReportModule</title>
<polygon fill="none" stroke="black" stroke-dasharray="1,5" points="38.5,-70 38.5,-195 457.5,-195 457.5,-70 38.5,-70"/>
</g>
<g id="clust4" class="cluster">
<title>cluster_ProjectReportModule_imports</title>
<polygon fill="none" stroke="black" points="230.5,-78 230.5,-130 449.5,-130 449.5,-78 230.5,-78"/>
</g>
<g id="clust2" class="cluster">
<title>cluster_ProjectReportModule_declarations</title>
<polygon fill="none" stroke="black" points="46.5,-78 46.5,-130 222.5,-130 222.5,-78 46.5,-78"/>
</g>
<!-- ProjectReportComponent -->
<g id="node1" class="node">
<title>ProjectReportComponent</title>
<polygon fill="#ffffb3" stroke="black" points="214.09,-122 54.91,-122 54.91,-86 214.09,-86 214.09,-122"/>
<text text-anchor="middle" x="134.5" y="-99.8" font-family="Times,serif" font-size="14.00">ProjectReportComponent</text>
</g>
<!-- ProjectReportModule -->
<g id="node2" class="node">
<title>ProjectReportModule</title>
<polygon fill="#8dd3c7" stroke="black" points="356.31,-187 353.31,-191 332.31,-191 329.31,-187 218.69,-187 218.69,-151 356.31,-151 356.31,-187"/>
<text text-anchor="middle" x="287.5" y="-164.8" font-family="Times,serif" font-size="14.00">ProjectReportModule</text>
</g>
<!-- ProjectReportComponent&#45;&gt;ProjectReportModule -->
<g id="edge1" class="edge">
<title>ProjectReportComponent&#45;&gt;ProjectReportModule</title>
<path fill="none" stroke="black" d="M214.28,-104C222.87,-104 228.57,-104 228.57,-104 228.57,-104 228.57,-140.89 228.57,-140.89"/>
<polygon fill="black" stroke="black" points="225.07,-140.89 228.57,-150.89 232.07,-140.89 225.07,-140.89"/>
</g>
<!-- CoreModule -->
<g id="node3" class="node">
<title>CoreModule</title>
<polygon fill="#8dd3c7" stroke="black" points="441.76,-122 438.76,-126 417.76,-126 414.76,-122 355.24,-122 355.24,-86 441.76,-86 441.76,-122"/>
<text text-anchor="middle" x="398.5" y="-99.8" font-family="Times,serif" font-size="14.00">CoreModule</text>
</g>
<!-- CoreModule&#45;&gt;ProjectReportModule -->
<g id="edge2" class="edge">
<title>CoreModule&#45;&gt;ProjectReportModule</title>
<path fill="none" stroke="black" d="M355.07,-104C349.63,-104 345.92,-104 345.92,-104 345.92,-104 345.92,-140.89 345.92,-140.89"/>
<polygon fill="black" stroke="black" points="342.42,-140.89 345.92,-150.89 349.42,-140.89 342.42,-140.89"/>
</g>
<!-- SharedModule -->
<g id="node4" class="node">
<title>SharedModule</title>
<polygon fill="#8dd3c7" stroke="black" points="336.92,-122 333.92,-126 312.92,-126 309.92,-122 238.08,-122 238.08,-86 336.92,-86 336.92,-122"/>
<text text-anchor="middle" x="287.5" y="-99.8" font-family="Times,serif" font-size="14.00">SharedModule</text>
</g>
<!-- SharedModule&#45;&gt;ProjectReportModule -->
<g id="edge3" class="edge">
<title>SharedModule&#45;&gt;ProjectReportModule</title>
<path fill="none" stroke="black" d="M287.5,-122.11C287.5,-122.11 287.5,-140.99 287.5,-140.99"/>
<polygon fill="black" stroke="black" points="284,-140.99 287.5,-150.99 291,-140.99 284,-140.99"/>
</g>
</g>
</svg>
