<?xml version="1.0" encoding="UTF-8" standalone="no"?>
<!DOCTYPE svg PUBLIC "-//W3C//DTD SVG 1.1//EN"
 "http://www.w3.org/Graphics/SVG/1.1/DTD/svg11.dtd">
<!-- Generated by graphviz version 2.47.0 (20210316.0004)
 -->
<!-- Title: dependencies Pages: 1 -->
<svg width="1526pt" height="211pt"
 viewBox="0.00 0.00 1526.00 211.00" xmlns="http://www.w3.org/2000/svg" xmlns:xlink="http://www.w3.org/1999/xlink">
<g id="graph0" class="graph" transform="scale(1 1) rotate(0) translate(4 207)">
<title>dependencies</title>
<polygon fill="white" stroke="transparent" points="-4,4 -4,-207 1522,-207 1522,4 -4,4"/>
<text text-anchor="start" x="738.01" y="-42.4" font-family="Times-12" font-weight="bold" font-size="14.00">Legend</text>
<polygon fill="#ffffb3" stroke="transparent" points="525,-10 525,-30 545,-30 545,-10 525,-10"/>
<text text-anchor="start" x="548.63" y="-15.4" font-family="Times-12" font-size="14.00"> &#160;Declarations</text>
<polygon fill="#8dd3c7" stroke="transparent" points="638,-10 638,-30 658,-30 658,-10 638,-10"/>
<text text-anchor="start" x="661.73" y="-15.4" font-family="Times-12" font-size="14.00"> &#160;Module</text>
<polygon fill="#80b1d3" stroke="transparent" points="724,-10 724,-30 744,-30 744,-10 724,-10"/>
<text text-anchor="start" x="747.78" y="-15.4" font-family="Times-12" font-size="14.00"> &#160;Bootstrap</text>
<polygon fill="#fdb462" stroke="transparent" points="821,-10 821,-30 841,-30 841,-10 821,-10"/>
<text text-anchor="start" x="844.67" y="-15.4" font-family="Times-12" font-size="14.00"> &#160;Providers</text>
<polygon fill="#fb8072" stroke="transparent" points="917,-10 917,-30 937,-30 937,-10 917,-10"/>
<text text-anchor="start" x="940.73" y="-15.4" font-family="Times-12" font-size="14.00"> &#160;Exports</text>
<g id="clust1" class="cluster">
<title>cluster_ManageModule</title>
<polygon fill="none" stroke="black" stroke-dasharray="1,5" points="8,-70 8,-195 1510,-195 1510,-70 8,-70"/>
</g>
<g id="clust2" class="cluster">
<title>cluster_ManageModule_declarations</title>
<polygon fill="none" stroke="black" points="1092,-78 1092,-130 1502,-130 1502,-78 1092,-78"/>
</g>
<g id="clust8" class="cluster">
<title>cluster_ManageModule_providers</title>
<polygon fill="none" stroke="black" points="600,-78 600,-130 1084,-130 1084,-78 600,-78"/>
</g>
<g id="clust5" class="cluster">
<title>cluster_ManageModule_imports</title>
<polygon fill="none" stroke="black" points="16,-78 16,-130 592,-130 592,-78 16,-78"/>
</g>
<!-- UserOrgManagementComponent -->
<g id="node1" class="node">
<title>UserOrgManagementComponent</title>
<polygon fill="#ffffb3" stroke="black" points="1494.11,-122 1291.89,-122 1291.89,-86 1494.11,-86 1494.11,-122"/>
<text text-anchor="middle" x="1393" y="-99.8" font-family="Times,serif" font-size="14.00">UserOrgManagementComponent</text>
</g>
<!-- ManageModule -->
<g id="node3" class="node">
<title>ManageModule</title>
<polygon fill="#8dd3c7" stroke="black" points="729.14,-187 726.14,-191 705.14,-191 702.14,-187 624.86,-187 624.86,-151 729.14,-151 729.14,-187"/>
<text text-anchor="middle" x="677" y="-164.8" font-family="Times,serif" font-size="14.00">ManageModule</text>
</g>
<!-- UserOrgManagementComponent&#45;&gt;ManageModule -->
<g id="edge1" class="edge">
<title>UserOrgManagementComponent&#45;&gt;ManageModule</title>
<path fill="none" stroke="black" d="M1393,-122.01C1393,-144.49 1393,-180 1393,-180 1393,-180 739.36,-180 739.36,-180"/>
<polygon fill="black" stroke="black" points="739.36,-176.5 729.36,-180 739.36,-183.5 739.36,-176.5"/>
</g>
<!-- UserRoleAssignComponent -->
<g id="node2" class="node">
<title>UserRoleAssignComponent</title>
<polygon fill="#ffffb3" stroke="black" points="1273.59,-122 1100.41,-122 1100.41,-86 1273.59,-86 1273.59,-122"/>
<text text-anchor="middle" x="1187" y="-99.8" font-family="Times,serif" font-size="14.00">UserRoleAssignComponent</text>
</g>
<!-- UserRoleAssignComponent&#45;&gt;ManageModule -->
<g id="edge2" class="edge">
<title>UserRoleAssignComponent&#45;&gt;ManageModule</title>
<path fill="none" stroke="black" d="M1187,-122.13C1187,-142.57 1187,-173 1187,-173 1187,-173 739.18,-173 739.18,-173"/>
<polygon fill="black" stroke="black" points="739.18,-169.5 729.18,-173 739.18,-176.5 739.18,-169.5"/>
</g>
<!-- ManageRoutingModule -->
<g id="node4" class="node">
<title>ManageRoutingModule</title>
<polygon fill="#8dd3c7" stroke="black" points="583.76,-122 580.76,-126 559.76,-126 556.76,-122 434.24,-122 434.24,-86 583.76,-86 583.76,-122"/>
<text text-anchor="middle" x="509" y="-99.8" font-family="Times,serif" font-size="14.00">ManageRoutingModule</text>
</g>
<!-- ManageRoutingModule&#45;&gt;ManageModule -->
<g id="edge3" class="edge">
<title>ManageRoutingModule&#45;&gt;ManageModule</title>
<path fill="none" stroke="black" d="M509,-122.01C509,-138.05 509,-159 509,-159 509,-159 614.76,-159 614.76,-159"/>
<polygon fill="black" stroke="black" points="614.76,-162.5 624.76,-159 614.76,-155.5 614.76,-162.5"/>
</g>
<!-- SharedFeatureModule -->
<g id="node5" class="node">
<title>SharedFeatureModule</title>
<polygon fill="#8dd3c7" stroke="black" points="416.4,-122 413.4,-126 392.4,-126 389.4,-122 275.6,-122 275.6,-86 416.4,-86 416.4,-122"/>
<text text-anchor="middle" x="346" y="-99.8" font-family="Times,serif" font-size="14.00">SharedFeatureModule</text>
</g>
<!-- SharedFeatureModule&#45;&gt;ManageModule -->
<g id="edge4" class="edge">
<title>SharedFeatureModule&#45;&gt;ManageModule</title>
<path fill="none" stroke="black" d="M346,-122.27C346,-140.56 346,-166 346,-166 346,-166 614.55,-166 614.55,-166"/>
<polygon fill="black" stroke="black" points="614.55,-169.5 624.55,-166 614.55,-162.5 614.55,-169.5"/>
</g>
<!-- SharedModule -->
<g id="node6" class="node">
<title>SharedModule</title>
<polygon fill="#8dd3c7" stroke="black" points="258.42,-122 255.42,-126 234.42,-126 231.42,-122 159.58,-122 159.58,-86 258.42,-86 258.42,-122"/>
<text text-anchor="middle" x="209" y="-99.8" font-family="Times,serif" font-size="14.00">SharedModule</text>
</g>
<!-- SharedModule&#45;&gt;ManageModule -->
<g id="edge5" class="edge">
<title>SharedModule&#45;&gt;ManageModule</title>
<path fill="none" stroke="black" d="M209,-122.13C209,-142.57 209,-173 209,-173 209,-173 614.68,-173 614.68,-173"/>
<polygon fill="black" stroke="black" points="614.68,-176.5 624.68,-173 614.68,-169.5 614.68,-176.5"/>
</g>
<!-- TelemetryModule -->
<g id="node7" class="node">
<title>TelemetryModule</title>
<polygon fill="#8dd3c7" stroke="black" points="141.58,-122 138.58,-126 117.58,-126 114.58,-122 24.42,-122 24.42,-86 141.58,-86 141.58,-122"/>
<text text-anchor="middle" x="83" y="-99.8" font-family="Times,serif" font-size="14.00">TelemetryModule</text>
</g>
<!-- TelemetryModule&#45;&gt;ManageModule -->
<g id="edge6" class="edge">
<title>TelemetryModule&#45;&gt;ManageModule</title>
<path fill="none" stroke="black" d="M83,-122.01C83,-144.49 83,-180 83,-180 83,-180 614.81,-180 614.81,-180"/>
<polygon fill="black" stroke="black" points="614.81,-183.5 624.81,-180 614.81,-176.5 614.81,-183.5"/>
</g>
<!-- ManageService -->
<g id="node8" class="node">
<title>ManageService</title>
<ellipse fill="#fdb462" stroke="black" cx="1005" cy="-104" rx="71.19" ry="18"/>
<text text-anchor="middle" x="1005" y="-99.8" font-family="Times,serif" font-size="14.00">ManageService</text>
</g>
<!-- ManageService&#45;&gt;ManageModule -->
<g id="edge7" class="edge">
<title>ManageService&#45;&gt;ManageModule</title>
<path fill="none" stroke="black" d="M1005,-122.27C1005,-140.56 1005,-166 1005,-166 1005,-166 739.34,-166 739.34,-166"/>
<polygon fill="black" stroke="black" points="739.34,-162.5 729.34,-166 739.34,-169.5 739.34,-162.5"/>
</g>
<!-- ResourceService -->
<g id="node9" class="node">
<title>ResourceService</title>
<ellipse fill="#fdb462" stroke="black" cx="840" cy="-104" rx="75.84" ry="18"/>
<text text-anchor="middle" x="840" y="-99.8" font-family="Times,serif" font-size="14.00">ResourceService</text>
</g>
<!-- ResourceService&#45;&gt;ManageModule -->
<g id="edge8" class="edge">
<title>ResourceService&#45;&gt;ManageModule</title>
<path fill="none" stroke="black" d="M840,-122.01C840,-138.05 840,-159 840,-159 840,-159 739.47,-159 739.47,-159"/>
<polygon fill="black" stroke="black" points="739.47,-155.5 729.47,-159 739.47,-162.5 739.47,-155.5"/>
</g>
<!-- ToasterService -->
<g id="node10" class="node">
<title>ToasterService</title>
<ellipse fill="#fdb462" stroke="black" cx="677" cy="-104" rx="68.89" ry="18"/>
<text text-anchor="middle" x="677" y="-99.8" font-family="Times,serif" font-size="14.00">ToasterService</text>
</g>
<!-- ToasterService&#45;&gt;ManageModule -->
<g id="edge9" class="edge">
<title>ToasterService&#45;&gt;ManageModule</title>
<path fill="none" stroke="black" d="M677,-122.11C677,-122.11 677,-140.99 677,-140.99"/>
<polygon fill="black" stroke="black" points="673.5,-140.99 677,-150.99 680.5,-140.99 673.5,-140.99"/>
</g>
</g>
</svg>
