<?xml version="1.0" encoding="UTF-8" standalone="no"?>
<!DOCTYPE svg PUBLIC "-//W3C//DTD SVG 1.1//EN"
 "http://www.w3.org/Graphics/SVG/1.1/DTD/svg11.dtd">
<!-- Generated by graphviz version 2.47.0 (20210316.0004)
 -->
<!-- Title: dependencies Pages: 1 -->
<svg width="504pt" height="211pt"
 viewBox="0.00 0.00 504.00 211.00" xmlns="http://www.w3.org/2000/svg" xmlns:xlink="http://www.w3.org/1999/xlink">
<g id="graph0" class="graph" transform="scale(1 1) rotate(0) translate(4 207)">
<title>dependencies</title>
<polygon fill="white" stroke="transparent" points="-4,4 -4,-207 500,-207 500,4 -4,4"/>
<text text-anchor="start" x="227.01" y="-42.4" font-family="Times-12" font-weight="bold" font-size="14.00">Legend</text>
<polygon fill="#ffffb3" stroke="transparent" points="14,-10 14,-30 34,-30 34,-10 14,-10"/>
<text text-anchor="start" x="37.63" y="-15.4" font-family="Times-12" font-size="14.00"> &#160;Declarations</text>
<polygon fill="#8dd3c7" stroke="transparent" points="127,-10 127,-30 147,-30 147,-10 127,-10"/>
<text text-anchor="start" x="150.73" y="-15.4" font-family="Times-12" font-size="14.00"> &#160;Module</text>
<polygon fill="#80b1d3" stroke="transparent" points="213,-10 213,-30 233,-30 233,-10 213,-10"/>
<text text-anchor="start" x="236.78" y="-15.4" font-family="Times-12" font-size="14.00"> &#160;Bootstrap</text>
<polygon fill="#fdb462" stroke="transparent" points="310,-10 310,-30 330,-30 330,-10 310,-10"/>
<text text-anchor="start" x="333.67" y="-15.4" font-family="Times-12" font-size="14.00"> &#160;Providers</text>
<polygon fill="#fb8072" stroke="transparent" points="406,-10 406,-30 426,-30 426,-10 406,-10"/>
<text text-anchor="start" x="429.73" y="-15.4" font-family="Times-12" font-size="14.00"> &#160;Exports</text>
<g id="clust1" class="cluster">
<title>cluster_UciAdminModule</title>
<polygon fill="none" stroke="black" stroke-dasharray="1,5" points="87,-70 87,-195 409,-195 409,-70 87,-70"/>
</g>
<g id="clust2" class="cluster">
<title>cluster_UciAdminModule_declarations</title>
<polygon fill="none" stroke="black" points="283,-78 283,-130 401,-130 401,-78 283,-78"/>
</g>
<g id="clust4" class="cluster">
<title>cluster_UciAdminModule_imports</title>
<polygon fill="none" stroke="black" points="95,-78 95,-130 275,-130 275,-78 95,-78"/>
</g>
<!-- UciComponent -->
<g id="node1" class="node">
<title>UciComponent</title>
<polygon fill="#ffffb3" stroke="black" points="392.55,-122 291.45,-122 291.45,-86 392.55,-86 392.55,-122"/>
<text text-anchor="middle" x="342" y="-99.8" font-family="Times,serif" font-size="14.00">UciComponent</text>
</g>
<!-- UciAdminModule -->
<g id="node2" class="node">
<title>UciAdminModule</title>
<polygon fill="#8dd3c7" stroke="black" points="322.15,-187 319.15,-191 298.15,-191 295.15,-187 203.85,-187 203.85,-151 322.15,-151 322.15,-187"/>
<text text-anchor="middle" x="263" y="-164.8" font-family="Times,serif" font-size="14.00">UciAdminModule</text>
</g>
<!-- UciComponent&#45;&gt;UciAdminModule -->
<g id="edge1" class="edge">
<title>UciComponent&#45;&gt;UciAdminModule</title>
<path fill="none" stroke="black" d="M306.78,-122.11C306.78,-122.11 306.78,-140.99 306.78,-140.99"/>
<polygon fill="black" stroke="black" points="303.28,-140.99 306.78,-150.99 310.28,-140.99 303.28,-140.99"/>
</g>
<!-- UciAdminRoutingModule -->
<g id="node3" class="node">
<title>UciAdminRoutingModule</title>
<polygon fill="#8dd3c7" stroke="black" points="266.77,-122 263.77,-126 242.77,-126 239.77,-122 103.23,-122 103.23,-86 266.77,-86 266.77,-122"/>
<text text-anchor="middle" x="185" y="-99.8" font-family="Times,serif" font-size="14.00">UciAdminRoutingModule</text>
</g>
<!-- UciAdminRoutingModule&#45;&gt;UciAdminModule -->
<g id="edge2" class="edge">
<title>UciAdminRoutingModule&#45;&gt;UciAdminModule</title>
<path fill="none" stroke="black" d="M235.28,-122.11C235.28,-122.11 235.28,-140.99 235.28,-140.99"/>
<polygon fill="black" stroke="black" points="231.78,-140.99 235.28,-150.99 238.78,-140.99 231.78,-140.99"/>
</g>
</g>
</svg>
