<?xml version="1.0" encoding="UTF-8" standalone="no"?>
<!DOCTYPE svg PUBLIC "-//W3C//DTD SVG 1.1//EN"
 "http://www.w3.org/Graphics/SVG/1.1/DTD/svg11.dtd">
<!-- Generated by graphviz version 2.47.0 (20210316.0004)
 -->
<!-- Title: dependencies Pages: 1 -->
<svg width="504pt" height="211pt"
 viewBox="0.00 0.00 504.00 211.00" xmlns="http://www.w3.org/2000/svg" xmlns:xlink="http://www.w3.org/1999/xlink">
<g id="graph0" class="graph" transform="scale(1 1) rotate(0) translate(4 207)">
<title>dependencies</title>
<polygon fill="white" stroke="transparent" points="-4,4 -4,-207 500,-207 500,4 -4,4"/>
<text text-anchor="start" x="227.01" y="-42.4" font-family="Times-12" font-weight="bold" font-size="14.00">Legend</text>
<polygon fill="#ffffb3" stroke="transparent" points="14,-10 14,-30 34,-30 34,-10 14,-10"/>
<text text-anchor="start" x="37.63" y="-15.4" font-family="Times-12" font-size="14.00"> &#160;Declarations</text>
<polygon fill="#8dd3c7" stroke="transparent" points="127,-10 127,-30 147,-30 147,-10 127,-10"/>
<text text-anchor="start" x="150.73" y="-15.4" font-family="Times-12" font-size="14.00"> &#160;Module</text>
<polygon fill="#80b1d3" stroke="transparent" points="213,-10 213,-30 233,-30 233,-10 213,-10"/>
<text text-anchor="start" x="236.78" y="-15.4" font-family="Times-12" font-size="14.00"> &#160;Bootstrap</text>
<polygon fill="#fdb462" stroke="transparent" points="310,-10 310,-30 330,-30 330,-10 310,-10"/>
<text text-anchor="start" x="333.67" y="-15.4" font-family="Times-12" font-size="14.00"> &#160;Providers</text>
<polygon fill="#fb8072" stroke="transparent" points="406,-10 406,-30 426,-30 426,-10 406,-10"/>
<text text-anchor="start" x="429.73" y="-15.4" font-family="Times-12" font-size="14.00"> &#160;Exports</text>
<g id="clust1" class="cluster">
<title>cluster_AllEvidenceListModule</title>
<polygon fill="none" stroke="black" stroke-dasharray="1,5" points="31.5,-70 31.5,-195 464.5,-195 464.5,-70 31.5,-70"/>
</g>
<g id="clust4" class="cluster">
<title>cluster_AllEvidenceListModule_imports</title>
<polygon fill="none" stroke="black" points="237.5,-78 237.5,-130 456.5,-130 456.5,-78 237.5,-78"/>
</g>
<g id="clust2" class="cluster">
<title>cluster_AllEvidenceListModule_declarations</title>
<polygon fill="none" stroke="black" points="39.5,-78 39.5,-130 229.5,-130 229.5,-78 39.5,-78"/>
</g>
<!-- AllEvidenceListComponent -->
<g id="node1" class="node">
<title>AllEvidenceListComponent</title>
<polygon fill="#ffffb3" stroke="black" points="221.09,-122 47.91,-122 47.91,-86 221.09,-86 221.09,-122"/>
<text text-anchor="middle" x="134.5" y="-99.8" font-family="Times,serif" font-size="14.00">AllEvidenceListComponent</text>
</g>
<!-- AllEvidenceListModule -->
<g id="node2" class="node">
<title>AllEvidenceListModule</title>
<polygon fill="#8dd3c7" stroke="black" points="370.3,-187 367.3,-191 346.3,-191 343.3,-187 218.7,-187 218.7,-151 370.3,-151 370.3,-187"/>
<text text-anchor="middle" x="294.5" y="-164.8" font-family="Times,serif" font-size="14.00">AllEvidenceListModule</text>
</g>
<!-- AllEvidenceListComponent&#45;&gt;AllEvidenceListModule -->
<g id="edge1" class="edge">
<title>AllEvidenceListComponent&#45;&gt;AllEvidenceListModule</title>
<path fill="none" stroke="black" d="M221.07,-104C228.44,-104 233.17,-104 233.17,-104 233.17,-104 233.17,-140.89 233.17,-140.89"/>
<polygon fill="black" stroke="black" points="229.67,-140.89 233.17,-150.89 236.67,-140.89 229.67,-140.89"/>
</g>
<!-- CoreModule -->
<g id="node3" class="node">
<title>CoreModule</title>
<polygon fill="#8dd3c7" stroke="black" points="448.76,-122 445.76,-126 424.76,-126 421.76,-122 362.24,-122 362.24,-86 448.76,-86 448.76,-122"/>
<text text-anchor="middle" x="405.5" y="-99.8" font-family="Times,serif" font-size="14.00">CoreModule</text>
</g>
<!-- CoreModule&#45;&gt;AllEvidenceListModule -->
<g id="edge2" class="edge">
<title>CoreModule&#45;&gt;AllEvidenceListModule</title>
<path fill="none" stroke="black" d="M366.14,-122.11C366.14,-122.11 366.14,-140.99 366.14,-140.99"/>
<polygon fill="black" stroke="black" points="362.64,-140.99 366.14,-150.99 369.64,-140.99 362.64,-140.99"/>
</g>
<!-- SharedModule -->
<g id="node4" class="node">
<title>SharedModule</title>
<polygon fill="#8dd3c7" stroke="black" points="343.92,-122 340.92,-126 319.92,-126 316.92,-122 245.08,-122 245.08,-86 343.92,-86 343.92,-122"/>
<text text-anchor="middle" x="294.5" y="-99.8" font-family="Times,serif" font-size="14.00">SharedModule</text>
</g>
<!-- SharedModule&#45;&gt;AllEvidenceListModule -->
<g id="edge3" class="edge">
<title>SharedModule&#45;&gt;AllEvidenceListModule</title>
<path fill="none" stroke="black" d="M294.5,-122.11C294.5,-122.11 294.5,-140.99 294.5,-140.99"/>
<polygon fill="black" stroke="black" points="291,-140.99 294.5,-150.99 298,-140.99 291,-140.99"/>
</g>
</g>
</svg>
