<?xml version="1.0" encoding="UTF-8" standalone="no"?>
<!DOCTYPE svg PUBLIC "-//W3C//DTD SVG 1.1//EN"
 "http://www.w3.org/Graphics/SVG/1.1/DTD/svg11.dtd">
<!-- Generated by graphviz version 2.47.0 (20210316.0004)
 -->
<!-- Title: dependencies Pages: 1 -->
<svg width="3247pt" height="284pt"
 viewBox="0.00 0.00 3247.00 284.00" xmlns="http://www.w3.org/2000/svg" xmlns:xlink="http://www.w3.org/1999/xlink">
<g id="graph0" class="graph" transform="scale(1 1) rotate(0) translate(4 280)">
<title>dependencies</title>
<polygon fill="white" stroke="transparent" points="-4,4 -4,-280 3243,-280 3243,4 -4,4"/>
<text text-anchor="start" x="1598.51" y="-42.4" font-family="Times-12" font-weight="bold" font-size="14.00">Legend</text>
<polygon fill="#ffffb3" stroke="transparent" points="1385.5,-10 1385.5,-30 1405.5,-30 1405.5,-10 1385.5,-10"/>
<text text-anchor="start" x="1409.13" y="-15.4" font-family="Times-12" font-size="14.00"> &#160;Declarations</text>
<polygon fill="#8dd3c7" stroke="transparent" points="1498.5,-10 1498.5,-30 1518.5,-30 1518.5,-10 1498.5,-10"/>
<text text-anchor="start" x="1522.23" y="-15.4" font-family="Times-12" font-size="14.00"> &#160;Module</text>
<polygon fill="#80b1d3" stroke="transparent" points="1584.5,-10 1584.5,-30 1604.5,-30 1604.5,-10 1584.5,-10"/>
<text text-anchor="start" x="1608.28" y="-15.4" font-family="Times-12" font-size="14.00"> &#160;Bootstrap</text>
<polygon fill="#fdb462" stroke="transparent" points="1681.5,-10 1681.5,-30 1701.5,-30 1701.5,-10 1681.5,-10"/>
<text text-anchor="start" x="1705.17" y="-15.4" font-family="Times-12" font-size="14.00"> &#160;Providers</text>
<polygon fill="#fb8072" stroke="transparent" points="1777.5,-10 1777.5,-30 1797.5,-30 1797.5,-10 1777.5,-10"/>
<text text-anchor="start" x="1801.23" y="-15.4" font-family="Times-12" font-size="14.00"> &#160;Exports</text>
<g id="clust1" class="cluster">
<title>cluster_PlayerHelperModule</title>
<polygon fill="none" stroke="black" stroke-dasharray="1,5" points="8,-70 8,-268 3231,-268 3231,-70 8,-70"/>
</g>
<g id="clust2" class="cluster">
<title>cluster_PlayerHelperModule_declarations</title>
<polygon fill="none" stroke="black" points="379,-78 379,-130 3223,-130 3223,-78 379,-78"/>
</g>
<g id="clust19" class="cluster">
<title>cluster_PlayerHelperModule_exports</title>
<polygon fill="none" stroke="black" points="75,-208 75,-260 2971,-260 2971,-208 75,-208"/>
</g>
<g id="clust18" class="cluster">
<title>cluster_PlayerHelperModule_imports</title>
<polygon fill="none" stroke="black" points="16,-78 16,-130 371,-130 371,-78 16,-78"/>
</g>
<!-- CollectionPlayerMetadataComponent -->
<g id="node1" class="node">
<title>CollectionPlayerMetadataComponent</title>
<polygon fill="#ffffb3" stroke="black" points="3214.51,-122 2987.49,-122 2987.49,-86 3214.51,-86 3214.51,-122"/>
<text text-anchor="middle" x="3101" y="-99.8" font-family="Times,serif" font-size="14.00">CollectionPlayerMetadataComponent</text>
</g>
<!-- PlayerHelperModule -->
<g id="node16" class="node">
<title>PlayerHelperModule</title>
<polygon fill="#8dd3c7" stroke="black" points="1522.9,-187 1519.9,-191 1498.9,-191 1495.9,-187 1389.1,-187 1389.1,-151 1522.9,-151 1522.9,-187"/>
<text text-anchor="middle" x="1456" y="-164.8" font-family="Times,serif" font-size="14.00">PlayerHelperModule</text>
</g>
<!-- CollectionPlayerMetadataComponent&#45;&gt;PlayerHelperModule -->
<g id="edge1" class="edge">
<title>CollectionPlayerMetadataComponent&#45;&gt;PlayerHelperModule</title>
<path fill="none" stroke="black" d="M3101,-122.11C3101,-141.34 3101,-169 3101,-169 3101,-169 1532.78,-169 1532.78,-169"/>
<polygon fill="black" stroke="black" points="1532.78,-165.5 1522.78,-169 1532.78,-172.5 1532.78,-165.5"/>
</g>
<!-- CommingSoonComponent -->
<g id="node2" class="node">
<title>CommingSoonComponent</title>
<polygon fill="#ffffb3" stroke="black" points="2969.12,-122 2802.88,-122 2802.88,-86 2969.12,-86 2969.12,-122"/>
<text text-anchor="middle" x="2886" y="-99.8" font-family="Times,serif" font-size="14.00">CommingSoonComponent</text>
</g>
<!-- CommingSoonComponent&#45;&gt;PlayerHelperModule -->
<g id="edge2" class="edge">
<title>CommingSoonComponent&#45;&gt;PlayerHelperModule</title>
<path fill="none" stroke="black" d="M2882.72,-122.22C2882.72,-140.83 2882.72,-167 2882.72,-167 2882.72,-167 1532.9,-167 1532.9,-167"/>
<polygon fill="black" stroke="black" points="1532.9,-163.5 1522.9,-167 1532.9,-170.5 1532.9,-163.5"/>
</g>
<!-- ContentActionsComponent -->
<g id="node3" class="node">
<title>ContentActionsComponent</title>
<polygon fill="#ffffb3" stroke="black" points="2784.71,-122 2615.29,-122 2615.29,-86 2784.71,-86 2784.71,-122"/>
<text text-anchor="middle" x="2700" y="-99.8" font-family="Times,serif" font-size="14.00">ContentActionsComponent</text>
</g>
<!-- ContentActionsComponent&#45;&gt;PlayerHelperModule -->
<g id="edge3" class="edge">
<title>ContentActionsComponent&#45;&gt;PlayerHelperModule</title>
<path fill="none" stroke="black" d="M2664.6,-122.3C2664.6,-140.27 2664.6,-165 2664.6,-165 2664.6,-165 1532.7,-165 1532.7,-165"/>
<polygon fill="black" stroke="black" points="1532.7,-161.5 1522.7,-165 1532.7,-168.5 1532.7,-161.5"/>
</g>
<!-- ContentChapterlistComponent -->
<g id="node4" class="node">
<title>ContentChapterlistComponent</title>
<polygon fill="#ffffb3" stroke="black" points="2597.6,-122 2410.4,-122 2410.4,-86 2597.6,-86 2597.6,-122"/>
<text text-anchor="middle" x="2504" y="-99.8" font-family="Times,serif" font-size="14.00">ContentChapterlistComponent</text>
</g>
<!-- ContentChapterlistComponent&#45;&gt;PlayerHelperModule -->
<g id="edge4" class="edge">
<title>ContentChapterlistComponent&#45;&gt;PlayerHelperModule</title>
<path fill="none" stroke="black" d="M2468.4,-122.02C2468.4,-139.37 2468.4,-163 2468.4,-163 2468.4,-163 1532.82,-163 1532.82,-163"/>
<polygon fill="black" stroke="black" points="1532.82,-159.5 1522.82,-163 1532.82,-166.5 1532.82,-159.5"/>
</g>
<!-- ContentCreditsComponent -->
<g id="node5" class="node">
<title>ContentCreditsComponent</title>
<polygon fill="#ffffb3" stroke="black" points="2392.1,-122 2225.9,-122 2225.9,-86 2392.1,-86 2392.1,-122"/>
<text text-anchor="middle" x="2309" y="-99.8" font-family="Times,serif" font-size="14.00">ContentCreditsComponent</text>
</g>
<!-- ContentCreditsComponent&#45;&gt;PlayerHelperModule -->
<g id="edge5" class="edge">
<title>ContentCreditsComponent&#45;&gt;PlayerHelperModule</title>
<path fill="none" stroke="black" d="M2280.62,-122.03C2280.62,-138.4 2280.62,-160 2280.62,-160 2280.62,-160 1532.78,-160 1532.78,-160"/>
<polygon fill="black" stroke="black" points="1532.78,-156.5 1522.78,-160 1532.78,-163.5 1532.78,-156.5"/>
</g>
<!-- ContentLicenceComponent -->
<g id="node6" class="node">
<title>ContentLicenceComponent</title>
<polygon fill="#ffffb3" stroke="black" points="2207.97,-122 2038.03,-122 2038.03,-86 2207.97,-86 2207.97,-122"/>
<text text-anchor="middle" x="2123" y="-99.8" font-family="Times,serif" font-size="14.00">ContentLicenceComponent</text>
</g>
<!-- ContentLicenceComponent&#45;&gt;PlayerHelperModule -->
<g id="edge6" class="edge">
<title>ContentLicenceComponent&#45;&gt;PlayerHelperModule</title>
<path fill="none" stroke="black" d="M2082.41,-122.28C2082.41,-137.95 2082.41,-158 2082.41,-158 2082.41,-158 1532.74,-158 1532.74,-158"/>
<polygon fill="black" stroke="black" points="1532.74,-154.5 1522.74,-158 1532.74,-161.5 1532.74,-154.5"/>
</g>
<!-- ContentPlayerComponent -->
<g id="node7" class="node">
<title>ContentPlayerComponent</title>
<polygon fill="#ffffb3" stroke="black" points="2019.93,-122 1858.07,-122 1858.07,-86 2019.93,-86 2019.93,-122"/>
<text text-anchor="middle" x="1939" y="-99.8" font-family="Times,serif" font-size="14.00">ContentPlayerComponent</text>
</g>
<!-- ContentPlayerComponent&#45;&gt;PlayerHelperModule -->
<g id="edge7" class="edge">
<title>ContentPlayerComponent&#45;&gt;PlayerHelperModule</title>
<path fill="none" stroke="black" d="M1898.51,-122.19C1898.51,-137.18 1898.51,-156 1898.51,-156 1898.51,-156 1532.73,-156 1532.73,-156"/>
<polygon fill="black" stroke="black" points="1532.73,-152.5 1522.73,-156 1532.73,-159.5 1532.73,-152.5"/>
</g>
<!-- ContentPlayerMetadataComponent -->
<g id="node8" class="node">
<title>ContentPlayerMetadataComponent</title>
<polygon fill="#ffffb3" stroke="black" points="1840.51,-122 1627.49,-122 1627.49,-86 1840.51,-86 1840.51,-122"/>
<text text-anchor="middle" x="1734" y="-99.8" font-family="Times,serif" font-size="14.00">ContentPlayerMetadataComponent</text>
</g>
<!-- ContentPlayerMetadataComponent&#45;&gt;PlayerHelperModule -->
<g id="edge8" class="edge">
<title>ContentPlayerMetadataComponent&#45;&gt;PlayerHelperModule</title>
<path fill="none" stroke="black" d="M1687.35,-122.05C1687.35,-136.37 1687.35,-154 1687.35,-154 1687.35,-154 1532.92,-154 1532.92,-154"/>
<polygon fill="black" stroke="black" points="1532.92,-150.5 1522.92,-154 1532.92,-157.5 1532.92,-150.5"/>
</g>
<!-- ContentPlayerPageComponent -->
<g id="node9" class="node">
<title>ContentPlayerPageComponent</title>
<polygon fill="#ffffb3" stroke="black" points="1609.14,-122 1420.86,-122 1420.86,-86 1609.14,-86 1609.14,-122"/>
<text text-anchor="middle" x="1515" y="-99.8" font-family="Times,serif" font-size="14.00">ContentPlayerPageComponent</text>
</g>
<!-- ContentPlayerPageComponent&#45;&gt;PlayerHelperModule -->
<g id="edge9" class="edge">
<title>ContentPlayerPageComponent&#45;&gt;PlayerHelperModule</title>
<path fill="none" stroke="black" d="M1471.69,-122.11C1471.69,-122.11 1471.69,-140.99 1471.69,-140.99"/>
<polygon fill="black" stroke="black" points="1468.19,-140.99 1471.69,-150.99 1475.19,-140.99 1468.19,-140.99"/>
</g>
<!-- ContentRatingComponent -->
<g id="node10" class="node">
<title>ContentRatingComponent</title>
<polygon fill="#ffffb3" stroke="black" points="1402.5,-122 1239.5,-122 1239.5,-86 1402.5,-86 1402.5,-122"/>
<text text-anchor="middle" x="1321" y="-99.8" font-family="Times,serif" font-size="14.00">ContentRatingComponent</text>
</g>
<!-- ContentRatingComponent&#45;&gt;PlayerHelperModule -->
<g id="edge10" class="edge">
<title>ContentRatingComponent&#45;&gt;PlayerHelperModule</title>
<path fill="none" stroke="black" d="M1395.9,-122.11C1395.9,-122.11 1395.9,-140.99 1395.9,-140.99"/>
<polygon fill="black" stroke="black" points="1392.4,-140.99 1395.9,-150.99 1399.4,-140.99 1392.4,-140.99"/>
</g>
<!-- CourseInfoComponent -->
<g id="node11" class="node">
<title>CourseInfoComponent</title>
<polygon fill="#ffffb3" stroke="black" points="1221.31,-122 1076.69,-122 1076.69,-86 1221.31,-86 1221.31,-122"/>
<text text-anchor="middle" x="1149" y="-99.8" font-family="Times,serif" font-size="14.00">CourseInfoComponent</text>
</g>
<!-- CourseInfoComponent&#45;&gt;PlayerHelperModule -->
<g id="edge11" class="edge">
<title>CourseInfoComponent&#45;&gt;PlayerHelperModule</title>
<path fill="none" stroke="black" d="M1179.04,-122.05C1179.04,-136.37 1179.04,-154 1179.04,-154 1179.04,-154 1378.96,-154 1378.96,-154"/>
<polygon fill="black" stroke="black" points="1378.96,-157.5 1388.96,-154 1378.96,-150.5 1378.96,-157.5"/>
</g>
<!-- CreditsAndLicenceComponent -->
<g id="node12" class="node">
<title>CreditsAndLicenceComponent</title>
<polygon fill="#ffffb3" stroke="black" points="1059.18,-122 868.82,-122 868.82,-86 1059.18,-86 1059.18,-122"/>
<text text-anchor="middle" x="964" y="-99.8" font-family="Times,serif" font-size="14.00">CreditsAndLicenceComponent</text>
</g>
<!-- CreditsAndLicenceComponent&#45;&gt;PlayerHelperModule -->
<g id="edge12" class="edge">
<title>CreditsAndLicenceComponent&#45;&gt;PlayerHelperModule</title>
<path fill="none" stroke="black" d="M1005.92,-122.19C1005.92,-137.18 1005.92,-156 1005.92,-156 1005.92,-156 1379.1,-156 1379.1,-156"/>
<polygon fill="black" stroke="black" points="1379.1,-159.5 1389.1,-156 1379.1,-152.5 1379.1,-159.5"/>
</g>
<!-- CurriculumInfoComponent -->
<g id="node13" class="node">
<title>CurriculumInfoComponent</title>
<polygon fill="#ffffb3" stroke="black" points="850.7,-122 681.3,-122 681.3,-86 850.7,-86 850.7,-122"/>
<text text-anchor="middle" x="766" y="-99.8" font-family="Times,serif" font-size="14.00">CurriculumInfoComponent</text>
</g>
<!-- CurriculumInfoComponent&#45;&gt;PlayerHelperModule -->
<g id="edge13" class="edge">
<title>CurriculumInfoComponent&#45;&gt;PlayerHelperModule</title>
<path fill="none" stroke="black" d="M818.85,-122.28C818.85,-137.95 818.85,-158 818.85,-158 818.85,-158 1379.02,-158 1379.02,-158"/>
<polygon fill="black" stroke="black" points="1379.02,-161.5 1389.02,-158 1379.02,-154.5 1379.02,-161.5"/>
</g>
<!-- FancyTreeComponent -->
<g id="node14" class="node">
<title>FancyTreeComponent</title>
<polygon fill="#ffffb3" stroke="black" points="663.69,-122 522.31,-122 522.31,-86 663.69,-86 663.69,-122"/>
<text text-anchor="middle" x="593" y="-99.8" font-family="Times,serif" font-size="14.00">FancyTreeComponent</text>
</g>
<!-- FancyTreeComponent&#45;&gt;PlayerHelperModule -->
<g id="edge14" class="edge">
<title>FancyTreeComponent&#45;&gt;PlayerHelperModule</title>
<path fill="none" stroke="black" d="M619.38,-122.03C619.38,-138.4 619.38,-160 619.38,-160 619.38,-160 1378.95,-160 1378.95,-160"/>
<polygon fill="black" stroke="black" points="1378.95,-163.5 1388.95,-160 1378.95,-156.5 1378.95,-163.5"/>
</g>
<!-- PlayerComponent -->
<g id="node15" class="node">
<title>PlayerComponent</title>
<polygon fill="#ffffb3" stroke="black" points="504.6,-122 387.4,-122 387.4,-86 504.6,-86 504.6,-122"/>
<text text-anchor="middle" x="446" y="-99.8" font-family="Times,serif" font-size="14.00">PlayerComponent</text>
</g>
<!-- PlayerComponent&#45;&gt;PlayerHelperModule -->
<g id="edge15" class="edge">
<title>PlayerComponent&#45;&gt;PlayerHelperModule</title>
<path fill="none" stroke="black" d="M446,-122.02C446,-139.37 446,-163 446,-163 446,-163 1378.95,-163 1378.95,-163"/>
<polygon fill="black" stroke="black" points="1378.95,-166.5 1388.95,-163 1378.95,-159.5 1378.95,-166.5"/>
</g>
<!-- CollectionPlayerMetadataComponent  -->
<g id="node20" class="node">
<title>CollectionPlayerMetadataComponent </title>
<polygon fill="#fb8072" stroke="black" points="2962.51,-252 2731.49,-252 2731.49,-216 2962.51,-216 2962.51,-252"/>
<text text-anchor="middle" x="2847" y="-229.8" font-family="Times,serif" font-size="14.00">CollectionPlayerMetadataComponent </text>
</g>
<!-- PlayerHelperModule&#45;&gt;CollectionPlayerMetadataComponent  -->
<g id="edge19" class="edge">
<title>PlayerHelperModule&#45;&gt;CollectionPlayerMetadataComponent </title>
<path fill="none" stroke="black" stroke-dasharray="5,2" d="M1522.81,-172C1788.79,-172 2758.05,-172 2758.05,-172 2758.05,-172 2758.05,-205.73 2758.05,-205.73"/>
<polygon fill="black" stroke="black" points="2754.55,-205.73 2758.05,-215.73 2761.55,-205.73 2754.55,-205.73"/>
</g>
<!-- CommingSoonComponent  -->
<g id="node21" class="node">
<title>CommingSoonComponent </title>
<polygon fill="#fb8072" stroke="black" points="2713.62,-252 2544.38,-252 2544.38,-216 2713.62,-216 2713.62,-252"/>
<text text-anchor="middle" x="2629" y="-229.8" font-family="Times,serif" font-size="14.00">CommingSoonComponent </text>
</g>
<!-- PlayerHelperModule&#45;&gt;CommingSoonComponent  -->
<g id="edge20" class="edge">
<title>PlayerHelperModule&#45;&gt;CommingSoonComponent </title>
<path fill="none" stroke="black" stroke-dasharray="5,2" d="M1522.81,-174C1763.34,-174 2570.87,-174 2570.87,-174 2570.87,-174 2570.87,-206 2570.87,-206"/>
<polygon fill="black" stroke="black" points="2567.37,-206 2570.87,-216 2574.37,-206 2567.37,-206"/>
</g>
<!-- ContentActionsComponent  -->
<g id="node22" class="node">
<title>ContentActionsComponent </title>
<polygon fill="#fb8072" stroke="black" points="2526.21,-252 2353.79,-252 2353.79,-216 2526.21,-216 2526.21,-252"/>
<text text-anchor="middle" x="2440" y="-229.8" font-family="Times,serif" font-size="14.00">ContentActionsComponent </text>
</g>
<!-- PlayerHelperModule&#45;&gt;ContentActionsComponent  -->
<g id="edge21" class="edge">
<title>PlayerHelperModule&#45;&gt;ContentActionsComponent </title>
<path fill="none" stroke="black" stroke-dasharray="5,2" d="M1523.05,-176C1734.41,-176 2372.85,-176 2372.85,-176 2372.85,-176 2372.85,-205.97 2372.85,-205.97"/>
<polygon fill="black" stroke="black" points="2369.35,-205.97 2372.85,-215.97 2376.35,-205.97 2369.35,-205.97"/>
</g>
<!-- ContentChapterlistComponent  -->
<g id="node23" class="node">
<title>ContentChapterlistComponent </title>
<polygon fill="#fb8072" stroke="black" points="2335.1,-252 2144.9,-252 2144.9,-216 2335.1,-216 2335.1,-252"/>
<text text-anchor="middle" x="2240" y="-229.8" font-family="Times,serif" font-size="14.00">ContentChapterlistComponent </text>
</g>
<!-- PlayerHelperModule&#45;&gt;ContentChapterlistComponent  -->
<g id="edge22" class="edge">
<title>PlayerHelperModule&#45;&gt;ContentChapterlistComponent </title>
<path fill="none" stroke="black" stroke-dasharray="5,2" d="M1522.8,-178C1701.38,-178 2176.34,-178 2176.34,-178 2176.34,-178 2176.34,-205.97 2176.34,-205.97"/>
<polygon fill="black" stroke="black" points="2172.84,-205.97 2176.34,-215.97 2179.84,-205.97 2172.84,-205.97"/>
</g>
<!-- ContentCreditsComponent  -->
<g id="node24" class="node">
<title>ContentCreditsComponent </title>
<polygon fill="#fb8072" stroke="black" points="2126.6,-252 1957.4,-252 1957.4,-216 2126.6,-216 2126.6,-252"/>
<text text-anchor="middle" x="2042" y="-229.8" font-family="Times,serif" font-size="14.00">ContentCreditsComponent </text>
</g>
<!-- PlayerHelperModule&#45;&gt;ContentCreditsComponent  -->
<g id="edge23" class="edge">
<title>PlayerHelperModule&#45;&gt;ContentCreditsComponent </title>
<path fill="none" stroke="black" stroke-dasharray="5,2" d="M1522.9,-181C1665.9,-181 1988.46,-181 1988.46,-181 1988.46,-181 1988.46,-205.76 1988.46,-205.76"/>
<polygon fill="black" stroke="black" points="1984.96,-205.76 1988.46,-215.76 1991.96,-205.76 1984.96,-205.76"/>
</g>
<!-- ContentLicenceComponent  -->
<g id="node25" class="node">
<title>ContentLicenceComponent </title>
<polygon fill="#fb8072" stroke="black" points="1938.97,-252 1765.03,-252 1765.03,-216 1938.97,-216 1938.97,-252"/>
<text text-anchor="middle" x="1852" y="-229.8" font-family="Times,serif" font-size="14.00">ContentLicenceComponent </text>
</g>
<!-- PlayerHelperModule&#45;&gt;ContentLicenceComponent  -->
<g id="edge24" class="edge">
<title>PlayerHelperModule&#45;&gt;ContentLicenceComponent </title>
<path fill="none" stroke="black" stroke-dasharray="5,2" d="M1522.91,-183C1623.74,-183 1803.01,-183 1803.01,-183 1803.01,-183 1803.01,-205.88 1803.01,-205.88"/>
<polygon fill="black" stroke="black" points="1799.51,-205.88 1803.01,-215.88 1806.51,-205.88 1799.51,-205.88"/>
</g>
<!-- ContentPlayerComponent  -->
<g id="node26" class="node">
<title>ContentPlayerComponent </title>
<polygon fill="#fb8072" stroke="black" points="1747.43,-252 1582.57,-252 1582.57,-216 1747.43,-216 1747.43,-252"/>
<text text-anchor="middle" x="1665" y="-229.8" font-family="Times,serif" font-size="14.00">ContentPlayerComponent </text>
</g>
<!-- PlayerHelperModule&#45;&gt;ContentPlayerComponent  -->
<g id="edge25" class="edge">
<title>PlayerHelperModule&#45;&gt;ContentPlayerComponent </title>
<path fill="none" stroke="black" stroke-dasharray="5,2" d="M1523.1,-185C1559.01,-185 1595.93,-185 1595.93,-185 1595.93,-185 1595.93,-205.75 1595.93,-205.75"/>
<polygon fill="black" stroke="black" points="1592.43,-205.75 1595.93,-215.75 1599.43,-205.75 1592.43,-205.75"/>
</g>
<!-- ContentPlayerMetadataComponent  -->
<g id="node27" class="node">
<title>ContentPlayerMetadataComponent </title>
<polygon fill="#fb8072" stroke="black" points="1564.51,-252 1347.49,-252 1347.49,-216 1564.51,-216 1564.51,-252"/>
<text text-anchor="middle" x="1456" y="-229.8" font-family="Times,serif" font-size="14.00">ContentPlayerMetadataComponent </text>
</g>
<!-- PlayerHelperModule&#45;&gt;ContentPlayerMetadataComponent  -->
<g id="edge26" class="edge">
<title>PlayerHelperModule&#45;&gt;ContentPlayerMetadataComponent </title>
<path fill="none" stroke="black" stroke-dasharray="5,2" d="M1456,-187.11C1456,-187.11 1456,-205.99 1456,-205.99"/>
<polygon fill="black" stroke="black" points="1452.5,-205.99 1456,-215.99 1459.5,-205.99 1452.5,-205.99"/>
</g>
<!-- ContentPlayerPageComponent  -->
<g id="node28" class="node">
<title>ContentPlayerPageComponent </title>
<polygon fill="#fb8072" stroke="black" points="1329.14,-252 1136.86,-252 1136.86,-216 1329.14,-216 1329.14,-252"/>
<text text-anchor="middle" x="1233" y="-229.8" font-family="Times,serif" font-size="14.00">ContentPlayerPageComponent </text>
</g>
<!-- PlayerHelperModule&#45;&gt;ContentPlayerPageComponent  -->
<g id="edge27" class="edge">
<title>PlayerHelperModule&#45;&gt;ContentPlayerPageComponent </title>
<path fill="none" stroke="black" stroke-dasharray="5,2" d="M1389.12,-185C1340.9,-185 1284.29,-185 1284.29,-185 1284.29,-185 1284.29,-205.75 1284.29,-205.75"/>
<polygon fill="black" stroke="black" points="1280.79,-205.75 1284.29,-215.75 1287.79,-205.75 1280.79,-205.75"/>
</g>
<!-- ContentRatingComponent  -->
<g id="node29" class="node">
<title>ContentRatingComponent </title>
<polygon fill="#fb8072" stroke="black" points="1119.5,-252 952.5,-252 952.5,-216 1119.5,-216 1119.5,-252"/>
<text text-anchor="middle" x="1036" y="-229.8" font-family="Times,serif" font-size="14.00">ContentRatingComponent </text>
</g>
<!-- PlayerHelperModule&#45;&gt;ContentRatingComponent  -->
<g id="edge28" class="edge">
<title>PlayerHelperModule&#45;&gt;ContentRatingComponent </title>
<path fill="none" stroke="black" stroke-dasharray="5,2" d="M1389.09,-183C1285.49,-183 1098.05,-183 1098.05,-183 1098.05,-183 1098.05,-205.88 1098.05,-205.88"/>
<polygon fill="black" stroke="black" points="1094.55,-205.88 1098.05,-215.88 1101.55,-205.88 1094.55,-205.88"/>
</g>
<!-- CourseInfoComponent  -->
<g id="node30" class="node">
<title>CourseInfoComponent </title>
<polygon fill="#fb8072" stroke="black" points="934.81,-252 787.19,-252 787.19,-216 934.81,-216 934.81,-252"/>
<text text-anchor="middle" x="861" y="-229.8" font-family="Times,serif" font-size="14.00">CourseInfoComponent </text>
</g>
<!-- PlayerHelperModule&#45;&gt;CourseInfoComponent  -->
<g id="edge29" class="edge">
<title>PlayerHelperModule&#45;&gt;CourseInfoComponent </title>
<path fill="none" stroke="black" stroke-dasharray="5,2" d="M1389.16,-181C1241.79,-181 901.91,-181 901.91,-181 901.91,-181 901.91,-205.76 901.91,-205.76"/>
<polygon fill="black" stroke="black" points="898.41,-205.76 901.91,-215.76 905.41,-205.76 898.41,-205.76"/>
</g>
<!-- CreditsAndLicenceComponent  -->
<g id="node31" class="node">
<title>CreditsAndLicenceComponent </title>
<polygon fill="#fb8072" stroke="black" points="768.68,-252 575.32,-252 575.32,-216 768.68,-216 768.68,-252"/>
<text text-anchor="middle" x="672" y="-229.8" font-family="Times,serif" font-size="14.00">CreditsAndLicenceComponent </text>
</g>
<!-- PlayerHelperModule&#45;&gt;CreditsAndLicenceComponent  -->
<g id="edge30" class="edge">
<title>PlayerHelperModule&#45;&gt;CreditsAndLicenceComponent </title>
<path fill="none" stroke="black" stroke-dasharray="5,2" d="M1389.2,-178C1208.78,-178 725.12,-178 725.12,-178 725.12,-178 725.12,-205.97 725.12,-205.97"/>
<polygon fill="black" stroke="black" points="721.62,-205.97 725.12,-215.97 728.62,-205.97 721.62,-205.97"/>
</g>
<!-- CurriculumInfoComponent  -->
<g id="node32" class="node">
<title>CurriculumInfoComponent </title>
<polygon fill="#fb8072" stroke="black" points="557.2,-252 384.8,-252 384.8,-216 557.2,-216 557.2,-252"/>
<text text-anchor="middle" x="471" y="-229.8" font-family="Times,serif" font-size="14.00">CurriculumInfoComponent </text>
</g>
<!-- PlayerHelperModule&#45;&gt;CurriculumInfoComponent  -->
<g id="edge31" class="edge">
<title>PlayerHelperModule&#45;&gt;CurriculumInfoComponent </title>
<path fill="none" stroke="black" stroke-dasharray="5,2" d="M1389.01,-176C1177.81,-176 539.88,-176 539.88,-176 539.88,-176 539.88,-205.97 539.88,-205.97"/>
<polygon fill="black" stroke="black" points="536.38,-205.97 539.88,-215.97 543.38,-205.97 536.38,-205.97"/>
</g>
<!-- FancyTreeComponent  -->
<g id="node33" class="node">
<title>FancyTreeComponent </title>
<polygon fill="#fb8072" stroke="black" points="366.19,-252 221.81,-252 221.81,-216 366.19,-216 366.19,-252"/>
<text text-anchor="middle" x="294" y="-229.8" font-family="Times,serif" font-size="14.00">FancyTreeComponent </text>
</g>
<!-- PlayerHelperModule&#45;&gt;FancyTreeComponent  -->
<g id="edge32" class="edge">
<title>PlayerHelperModule&#45;&gt;FancyTreeComponent </title>
<path fill="none" stroke="black" stroke-dasharray="5,2" d="M1389.17,-174C1143.64,-174 305.54,-174 305.54,-174 305.54,-174 305.54,-206 305.54,-206"/>
<polygon fill="black" stroke="black" points="302.04,-206 305.54,-216 309.04,-206 302.04,-206"/>
</g>
<!-- PlayerComponent  -->
<g id="node34" class="node">
<title>PlayerComponent </title>
<polygon fill="#fb8072" stroke="black" points="203.1,-252 82.9,-252 82.9,-216 203.1,-216 203.1,-252"/>
<text text-anchor="middle" x="143" y="-229.8" font-family="Times,serif" font-size="14.00">PlayerComponent </text>
</g>
<!-- PlayerHelperModule&#45;&gt;PlayerComponent  -->
<g id="edge33" class="edge">
<title>PlayerHelperModule&#45;&gt;PlayerComponent </title>
<path fill="none" stroke="black" stroke-dasharray="5,2" d="M1389.27,-172C1127.05,-172 181.54,-172 181.54,-172 181.54,-172 181.54,-205.73 181.54,-205.73"/>
<polygon fill="black" stroke="black" points="178.04,-205.73 181.54,-215.73 185.04,-205.73 178.04,-205.73"/>
</g>
<!-- CoreModule -->
<g id="node17" class="node">
<title>CoreModule</title>
<polygon fill="#8dd3c7" stroke="black" points="363.26,-122 360.26,-126 339.26,-126 336.26,-122 276.74,-122 276.74,-86 363.26,-86 363.26,-122"/>
<text text-anchor="middle" x="320" y="-99.8" font-family="Times,serif" font-size="14.00">CoreModule</text>
</g>
<!-- CoreModule&#45;&gt;PlayerHelperModule -->
<g id="edge16" class="edge">
<title>CoreModule&#45;&gt;PlayerHelperModule</title>
<path fill="none" stroke="black" d="M334.46,-122.3C334.46,-140.27 334.46,-165 334.46,-165 334.46,-165 1379.2,-165 1379.2,-165"/>
<polygon fill="black" stroke="black" points="1379.2,-168.5 1389.2,-165 1379.2,-161.5 1379.2,-168.5"/>
</g>
<!-- SharedModule -->
<g id="node18" class="node">
<title>SharedModule</title>
<polygon fill="#8dd3c7" stroke="black" points="258.42,-122 255.42,-126 234.42,-126 231.42,-122 159.58,-122 159.58,-86 258.42,-86 258.42,-122"/>
<text text-anchor="middle" x="209" y="-99.8" font-family="Times,serif" font-size="14.00">SharedModule</text>
</g>
<!-- SharedModule&#45;&gt;PlayerHelperModule -->
<g id="edge17" class="edge">
<title>SharedModule&#45;&gt;PlayerHelperModule</title>
<path fill="none" stroke="black" d="M239.93,-122.22C239.93,-140.83 239.93,-167 239.93,-167 239.93,-167 1378.89,-167 1378.89,-167"/>
<polygon fill="black" stroke="black" points="1378.89,-170.5 1388.89,-167 1378.89,-163.5 1378.89,-170.5"/>
</g>
<!-- TelemetryModule -->
<g id="node19" class="node">
<title>TelemetryModule</title>
<polygon fill="#8dd3c7" stroke="black" points="141.58,-122 138.58,-126 117.58,-126 114.58,-122 24.42,-122 24.42,-86 141.58,-86 141.58,-122"/>
<text text-anchor="middle" x="83" y="-99.8" font-family="Times,serif" font-size="14.00">TelemetryModule</text>
</g>
<!-- TelemetryModule&#45;&gt;PlayerHelperModule -->
<g id="edge18" class="edge">
<title>TelemetryModule&#45;&gt;PlayerHelperModule</title>
<path fill="none" stroke="black" d="M112.12,-122.11C112.12,-141.34 112.12,-169 112.12,-169 112.12,-169 1378.9,-169 1378.9,-169"/>
<polygon fill="black" stroke="black" points="1378.9,-172.5 1388.9,-169 1378.9,-165.5 1378.9,-172.5"/>
</g>
</g>
</svg>
