<?xml version="1.0" encoding="UTF-8" standalone="no"?>
<!DOCTYPE svg PUBLIC "-//W3C//DTD SVG 1.1//EN"
 "http://www.w3.org/Graphics/SVG/1.1/DTD/svg11.dtd">
<!-- Generated by graphviz version 2.47.0 (20210316.0004)
 -->
<!-- Title: dependencies Pages: 1 -->
<svg width="1811pt" height="211pt"
 viewBox="0.00 0.00 1811.00 211.00" xmlns="http://www.w3.org/2000/svg" xmlns:xlink="http://www.w3.org/1999/xlink">
<g id="graph0" class="graph" transform="scale(1 1) rotate(0) translate(4 207)">
<title>dependencies</title>
<polygon fill="white" stroke="transparent" points="-4,4 -4,-207 1807,-207 1807,4 -4,4"/>
<text text-anchor="start" x="880.51" y="-42.4" font-family="Times-12" font-weight="bold" font-size="14.00">Legend</text>
<polygon fill="#ffffb3" stroke="transparent" points="667.5,-10 667.5,-30 687.5,-30 687.5,-10 667.5,-10"/>
<text text-anchor="start" x="691.13" y="-15.4" font-family="Times-12" font-size="14.00"> &#160;Declarations</text>
<polygon fill="#8dd3c7" stroke="transparent" points="780.5,-10 780.5,-30 800.5,-30 800.5,-10 780.5,-10"/>
<text text-anchor="start" x="804.23" y="-15.4" font-family="Times-12" font-size="14.00"> &#160;Module</text>
<polygon fill="#80b1d3" stroke="transparent" points="866.5,-10 866.5,-30 886.5,-30 886.5,-10 866.5,-10"/>
<text text-anchor="start" x="890.28" y="-15.4" font-family="Times-12" font-size="14.00"> &#160;Bootstrap</text>
<polygon fill="#fdb462" stroke="transparent" points="963.5,-10 963.5,-30 983.5,-30 983.5,-10 963.5,-10"/>
<text text-anchor="start" x="987.17" y="-15.4" font-family="Times-12" font-size="14.00"> &#160;Providers</text>
<polygon fill="#fb8072" stroke="transparent" points="1059.5,-10 1059.5,-30 1079.5,-30 1079.5,-10 1059.5,-10"/>
<text text-anchor="start" x="1083.23" y="-15.4" font-family="Times-12" font-size="14.00"> &#160;Exports</text>
<g id="clust1" class="cluster">
<title>cluster_SignupModule</title>
<polygon fill="none" stroke="black" stroke-dasharray="1,5" points="8,-70 8,-195 1795,-195 1795,-70 8,-70"/>
</g>
<g id="clust8" class="cluster">
<title>cluster_SignupModule_imports</title>
<polygon fill="none" stroke="black" points="1089,-78 1089,-130 1787,-130 1787,-78 1089,-78"/>
</g>
<g id="clust2" class="cluster">
<title>cluster_SignupModule_declarations</title>
<polygon fill="none" stroke="black" points="174,-78 174,-130 1081,-130 1081,-78 174,-78"/>
</g>
<g id="clust11" class="cluster">
<title>cluster_SignupModule_providers</title>
<polygon fill="none" stroke="black" points="16,-78 16,-130 166,-130 166,-78 16,-78"/>
</g>
<!-- OtpComponent -->
<g id="node1" class="node">
<title>OtpComponent</title>
<polygon fill="#ffffb3" stroke="black" points="1073.33,-122 970.67,-122 970.67,-86 1073.33,-86 1073.33,-122"/>
<text text-anchor="middle" x="1022" y="-99.8" font-family="Times,serif" font-size="14.00">OtpComponent</text>
</g>
<!-- SignupModule -->
<g id="node6" class="node">
<title>SignupModule</title>
<polygon fill="#8dd3c7" stroke="black" points="1071.72,-187 1068.72,-191 1047.72,-191 1044.72,-187 972.28,-187 972.28,-151 1071.72,-151 1071.72,-187"/>
<text text-anchor="middle" x="1022" y="-164.8" font-family="Times,serif" font-size="14.00">SignupModule</text>
</g>
<!-- OtpComponent&#45;&gt;SignupModule -->
<g id="edge1" class="edge">
<title>OtpComponent&#45;&gt;SignupModule</title>
<path fill="none" stroke="black" d="M1022,-122.11C1022,-122.11 1022,-140.99 1022,-140.99"/>
<polygon fill="black" stroke="black" points="1018.5,-140.99 1022,-150.99 1025.5,-140.99 1018.5,-140.99"/>
</g>
<!-- SignupBasicInfoComponent -->
<g id="node2" class="node">
<title>SignupBasicInfoComponent</title>
<polygon fill="#ffffb3" stroke="black" points="952.93,-122 777.07,-122 777.07,-86 952.93,-86 952.93,-122"/>
<text text-anchor="middle" x="865" y="-99.8" font-family="Times,serif" font-size="14.00">SignupBasicInfoComponent</text>
</g>
<!-- SignupBasicInfoComponent&#45;&gt;SignupModule -->
<g id="edge2" class="edge">
<title>SignupBasicInfoComponent&#45;&gt;SignupModule</title>
<path fill="none" stroke="black" d="M865,-122.24C865,-137.57 865,-157 865,-157 865,-157 962.32,-157 962.32,-157"/>
<polygon fill="black" stroke="black" points="962.32,-160.5 972.32,-157 962.32,-153.5 962.32,-160.5"/>
</g>
<!-- SignupComponent -->
<g id="node3" class="node">
<title>SignupComponent</title>
<polygon fill="#ffffb3" stroke="black" points="759.51,-122 638.49,-122 638.49,-86 759.51,-86 759.51,-122"/>
<text text-anchor="middle" x="699" y="-99.8" font-family="Times,serif" font-size="14.00">SignupComponent</text>
</g>
<!-- SignupComponent&#45;&gt;SignupModule -->
<g id="edge3" class="edge">
<title>SignupComponent&#45;&gt;SignupModule</title>
<path fill="none" stroke="black" d="M699,-122.02C699,-139.37 699,-163 699,-163 699,-163 962.24,-163 962.24,-163"/>
<polygon fill="black" stroke="black" points="962.24,-166.5 972.24,-163 962.24,-159.5 962.24,-166.5"/>
</g>
<!-- SignupEmailPasswordComponent -->
<g id="node4" class="node">
<title>SignupEmailPasswordComponent</title>
<polygon fill="#ffffb3" stroke="black" points="620.1,-122 411.9,-122 411.9,-86 620.1,-86 620.1,-122"/>
<text text-anchor="middle" x="516" y="-99.8" font-family="Times,serif" font-size="14.00">SignupEmailPasswordComponent</text>
</g>
<!-- SignupEmailPasswordComponent&#45;&gt;SignupModule -->
<g id="edge4" class="edge">
<title>SignupEmailPasswordComponent&#45;&gt;SignupModule</title>
<path fill="none" stroke="black" d="M516,-122.11C516,-141.34 516,-169 516,-169 516,-169 962.1,-169 962.1,-169"/>
<polygon fill="black" stroke="black" points="962.1,-172.5 972.1,-169 962.1,-165.5 962.1,-172.5"/>
</g>
<!-- SignupOnboardingInfoComponent -->
<g id="node5" class="node">
<title>SignupOnboardingInfoComponent</title>
<polygon fill="#ffffb3" stroke="black" points="393.7,-122 182.3,-122 182.3,-86 393.7,-86 393.7,-122"/>
<text text-anchor="middle" x="288" y="-99.8" font-family="Times,serif" font-size="14.00">SignupOnboardingInfoComponent</text>
</g>
<!-- SignupOnboardingInfoComponent&#45;&gt;SignupModule -->
<g id="edge5" class="edge">
<title>SignupOnboardingInfoComponent&#45;&gt;SignupModule</title>
<path fill="none" stroke="black" d="M288,-122.28C288,-143.32 288,-175 288,-175 288,-175 962.13,-175 962.13,-175"/>
<polygon fill="black" stroke="black" points="962.13,-178.5 972.13,-175 962.13,-171.5 962.13,-178.5"/>
</g>
<!-- LocationModule -->
<g id="node7" class="node">
<title>LocationModule</title>
<polygon fill="#8dd3c7" stroke="black" points="1778.81,-122 1775.81,-126 1754.81,-126 1751.81,-122 1669.19,-122 1669.19,-86 1778.81,-86 1778.81,-122"/>
<text text-anchor="middle" x="1724" y="-99.8" font-family="Times,serif" font-size="14.00">LocationModule</text>
</g>
<!-- LocationModule&#45;&gt;SignupModule -->
<g id="edge6" class="edge">
<title>LocationModule&#45;&gt;SignupModule</title>
<path fill="none" stroke="black" d="M1724,-122.09C1724,-145.13 1724,-182 1724,-182 1724,-182 1081.64,-182 1081.64,-182"/>
<polygon fill="black" stroke="black" points="1081.64,-178.5 1071.64,-182 1081.64,-185.5 1081.64,-178.5"/>
</g>
<!-- SharedFeatureModule -->
<g id="node8" class="node">
<title>SharedFeatureModule</title>
<polygon fill="#8dd3c7" stroke="black" points="1651.4,-122 1648.4,-126 1627.4,-126 1624.4,-122 1510.6,-122 1510.6,-86 1651.4,-86 1651.4,-122"/>
<text text-anchor="middle" x="1581" y="-99.8" font-family="Times,serif" font-size="14.00">SharedFeatureModule</text>
</g>
<!-- SharedFeatureModule&#45;&gt;SignupModule -->
<g id="edge7" class="edge">
<title>SharedFeatureModule&#45;&gt;SignupModule</title>
<path fill="none" stroke="black" d="M1581,-122.28C1581,-143.32 1581,-175 1581,-175 1581,-175 1082.1,-175 1082.1,-175"/>
<polygon fill="black" stroke="black" points="1082.1,-171.5 1072.1,-175 1082.1,-178.5 1082.1,-171.5"/>
</g>
<!-- SharedModule -->
<g id="node9" class="node">
<title>SharedModule</title>
<polygon fill="#8dd3c7" stroke="black" points="1493.42,-122 1490.42,-126 1469.42,-126 1466.42,-122 1394.58,-122 1394.58,-86 1493.42,-86 1493.42,-122"/>
<text text-anchor="middle" x="1444" y="-99.8" font-family="Times,serif" font-size="14.00">SharedModule</text>
</g>
<!-- SharedModule&#45;&gt;SignupModule -->
<g id="edge8" class="edge">
<title>SharedModule&#45;&gt;SignupModule</title>
<path fill="none" stroke="black" d="M1444,-122.11C1444,-141.34 1444,-169 1444,-169 1444,-169 1081.65,-169 1081.65,-169"/>
<polygon fill="black" stroke="black" points="1081.65,-165.5 1071.65,-169 1081.65,-172.5 1081.65,-165.5"/>
</g>
<!-- SignupRoutingModule -->
<g id="node10" class="node">
<title>SignupRoutingModule</title>
<polygon fill="#8dd3c7" stroke="black" points="1377.34,-122 1374.34,-126 1353.34,-126 1350.34,-122 1232.66,-122 1232.66,-86 1377.34,-86 1377.34,-122"/>
<text text-anchor="middle" x="1305" y="-99.8" font-family="Times,serif" font-size="14.00">SignupRoutingModule</text>
</g>
<!-- SignupRoutingModule&#45;&gt;SignupModule -->
<g id="edge9" class="edge">
<title>SignupRoutingModule&#45;&gt;SignupModule</title>
<path fill="none" stroke="black" d="M1305,-122.02C1305,-139.37 1305,-163 1305,-163 1305,-163 1081.62,-163 1081.62,-163"/>
<polygon fill="black" stroke="black" points="1081.62,-159.5 1071.62,-163 1081.62,-166.5 1081.62,-159.5"/>
</g>
<!-- TelemetryModule -->
<g id="node11" class="node">
<title>TelemetryModule</title>
<polygon fill="#8dd3c7" stroke="black" points="1214.58,-122 1211.58,-126 1190.58,-126 1187.58,-122 1097.42,-122 1097.42,-86 1214.58,-86 1214.58,-122"/>
<text text-anchor="middle" x="1156" y="-99.8" font-family="Times,serif" font-size="14.00">TelemetryModule</text>
</g>
<!-- TelemetryModule&#45;&gt;SignupModule -->
<g id="edge10" class="edge">
<title>TelemetryModule&#45;&gt;SignupModule</title>
<path fill="none" stroke="black" d="M1156,-122.24C1156,-137.57 1156,-157 1156,-157 1156,-157 1081.9,-157 1081.9,-157"/>
<polygon fill="black" stroke="black" points="1081.9,-153.5 1071.9,-157 1081.9,-160.5 1081.9,-153.5"/>
</g>
<!-- SignupService -->
<g id="node12" class="node">
<title>SignupService</title>
<ellipse fill="#fdb462" stroke="black" cx="91" cy="-104" rx="67.22" ry="18"/>
<text text-anchor="middle" x="91" y="-99.8" font-family="Times,serif" font-size="14.00">SignupService</text>
</g>
<!-- SignupService&#45;&gt;SignupModule -->
<g id="edge11" class="edge">
<title>SignupService&#45;&gt;SignupModule</title>
<path fill="none" stroke="black" d="M91,-122.09C91,-145.13 91,-182 91,-182 91,-182 962.27,-182 962.27,-182"/>
<polygon fill="black" stroke="black" points="962.27,-185.5 972.27,-182 962.27,-178.5 962.27,-185.5"/>
</g>
</g>
</svg>
